<?xml version="1.0" encoding="utf-8"?>
<!-- Generator: Adobe Illustrator 16.0.0, SVG Export Plug-In . SVG Version: 6.00 Build 0)  -->
<!DOCTYPE svg PUBLIC "-//W3C//DTD SVG 1.1//EN" "http://www.w3.org/Graphics/SVG/1.1/DTD/svg11.dtd">
<svg version="1.1" id="Selected_Items" xmlns="http://www.w3.org/2000/svg" xmlns:xlink="http://www.w3.org/1999/xlink" x="0px"
	 y="0px" width="550px" height="400px" viewBox="0 0 550 400" enable-background="new 0 0 550 400" xml:space="preserve">
<path fill-rule="evenodd" clip-rule="evenodd" fill="#333333" d="M179.65,74.7c0.033-0.534,0.067-0.867,0.1-1v-0.025
	c0.369-0.459,0.886-0.917,1.55-1.375c1.5-1,2.25-0.383,2.25,1.85c0,1-0.05,1.617-0.15,1.85c-0.3,0.667-1.083,0.917-2.35,0.75
	c-0.167,0.5-0.25,1.417-0.25,2.75c-0.233,0.167-0.433,0.283-0.6,0.35c-0.287-0.3-0.521-0.691-0.7-1.175V75.5
	C179.573,75.288,179.624,75.021,179.65,74.7z"/>
<path fill-rule="evenodd" clip-rule="evenodd" fill="#333333" d="M184.8,74.4c-0.333,0.067-0.667,0.184-1,0.35
	c-0.667,0.267-1,1.233-1,2.9v3.1c0,0.4-0.167,1.9-0.5,4.5c0,0.667,0.55,1.2,1.65,1.6c1.066,0.4,1.6,0.717,1.6,0.95
	c0,0.042,0,0.083,0,0.125c-0.016-0.01-0.033-0.018-0.05-0.025h-1.35c-1.704-0.24-2.879-0.54-3.525-0.9
	c-0.226-0.293-0.417-0.627-0.575-1c-0.333-0.8-0.5-1.783-0.5-2.95c0.767-4.667,1.2-7.517,1.3-8.55c0.3,0,0.9-0.1,1.8-0.3
	c0.8-0.167,1.483-0.233,2.05-0.2C184.7,74.1,184.733,74.233,184.8,74.4z"/>
<path fill-rule="evenodd" clip-rule="evenodd" fill="#333333" d="M181.95,82c0.066-0.1,0.233-0.15,0.5-0.15
	c0.4,0,0.75,0.267,1.05,0.8c0.367,0.733,0.6,1.133,0.7,1.2c0.033,0.066,1,0.45,2.9,1.15l1.6,0.1c0.1,0.066,0.233,0.1,0.4,0.1
	c0.133,0.066,0.2,0.216,0.2,0.45s-0.133,0.45-0.4,0.65c-0.267,0.167-0.417,0.267-0.45,0.3l-0.65,0.25l8.4-0.5
	c0.367,0.233,0.583,0.45,0.65,0.65c0.566-0.333,1.133-1.45,1.7-3.35c0-0.467-0.167-1.066-0.5-1.8V80.5
	c0.833-0.033,1.367,0.417,1.6,1.35c0.042,0.155,0.076,0.355,0.1,0.6v1.875c-0.077,0.561-0.244,1.203-0.5,1.925
	c-0.21,0.561-0.436,1.011-0.675,1.35c-0.419,0.214-0.944,0.331-1.575,0.35c-0.209,0.007-0.393,0.024-0.55,0.05h-10.725
	c-0.068-0.035-0.143-0.068-0.225-0.1h-0.7c-0.395-0.24-0.945-0.574-1.65-1c-0.9-0.533-1.35-1.033-1.35-1.5
	c0-0.133,0.267-0.483,0.8-1.05c-0.7-0.934-0.967-1.684-0.8-2.25L181.95,82z"/>
<path fill-rule="evenodd" clip-rule="evenodd" fill="#333333" d="M184.85,84.7c0-0.2,0.133-0.3,0.4-0.3c0.3,0,0.7,0.05,1.2,0.15
	l6.85-0.05c0.767-0.033,1.317-0.183,1.65-0.45c0.133-0.1,0.283-0.3,0.45-0.6c0.133-0.4,0.233-0.617,0.3-0.65
	c0.433,0,0.7,0.017,0.8,0.05s0.15,0.133,0.15,0.3c0,0.467-0.55,1.067-1.65,1.8c-1.167,0.8-2.217,1.183-3.15,1.15l-3.4,0.1
	c-0.2,0-0.3-0.117-0.3-0.35c0-0.133,0.117-0.2,0.35-0.2c0.6,0,1.267-0.066,2-0.2h1.3c0.117-0.146,0.475-0.229,1.075-0.25h-6.525
	c-0.633-0.034-1.05-0.083-1.25-0.15C184.933,84.983,184.85,84.867,184.85,84.7z"/>
<path fill-rule="evenodd" clip-rule="evenodd" fill="#333333" d="M182.65,83.95c1.133,0.333,1.733,0.517,1.8,0.55l3.75,1.1
	c-0.067-0.2-0.1-0.35-0.1-0.45c0.033-0.2,0.2-0.316,0.5-0.35h2.65c0.1-0.1,0.333-0.15,0.7-0.15h2c0.333,0.1,0.5,0.3,0.5,0.6
	s-0.383,0.6-1.15,0.9c-0.9,0.3-1.533,0.533-1.9,0.7h-2.25c-0.6,0.2-1.133,0.3-1.6,0.3c-0.667,0-1-0.167-1-0.5
	c0-0.2,0.067-0.333,0.2-0.4c-1.033-0.233-1.967-0.483-2.8-0.75c-1.6-0.5-2.4-0.983-2.4-1.45c0-0.267,0.1-0.417,0.3-0.45
	C182.083,83.533,182.35,83.65,182.65,83.95z M191.5,85.75c0.2,0,0.4-0.05,0.6-0.15l-0.55,0.1L191.5,85.75z"/>
<path fill-rule="evenodd" clip-rule="evenodd" fill="#333333" d="M195.6,75.2c0.833,0.533,1.25,1.683,1.25,3.45
	c0,0.867-0.05,1.667-0.15,2.4c-0.1,0.7-0.15,1.233-0.15,1.6c0,0.467,0.1,1.2,0.3,2.2c0,0.433-0.267,0.883-0.8,1.35
	c-0.667,0.566-1.466,0.85-2.4,0.85c-0.467,0-0.783-0.017-0.95-0.05c-0.067-0.067-0.133-0.1-0.2-0.1c-0.167,0.1-0.367,0.15-0.6,0.15
	c-0.433,0-0.65-0.15-0.65-0.45c0-0.133,0.333-0.35,1-0.65c0.867-0.434,1.383-0.7,1.55-0.8c0.067-0.066,0.45-0.267,1.15-0.6
	c0.533-0.3,0.8-0.533,0.8-0.7l-0.1-1.2c0-0.5,0.05-1.133,0.15-1.9c0.1-0.733,0.15-1.417,0.15-2.05c0-1.633-0.517-2.617-1.55-2.95
	c-1.566-0.1-2.917-0.233-4.05-0.4l-5.35,0.1c-1.133,0.267-1.783,0.517-1.95,0.75c-0.367,0.233-0.583,0.4-0.65,0.5
	c-0.133,0.267-0.3,0.4-0.5,0.4c-0.3,0-0.45-0.167-0.45-0.5c0-0.4,0.4-0.867,1.2-1.4c0.833-0.534,1.567-0.784,2.2-0.75l5.6-0.05
	C193.083,74.433,194.8,74.7,195.6,75.2z"/>
<path fill-rule="evenodd" clip-rule="evenodd" fill="#333333" d="M195.7,85.2c0.167-0.267,0.35-0.4,0.55-0.4
	c0.1,0,0.233,0.083,0.4,0.25c0.067-0.066,0.2-0.316,0.4-0.75c0.2-0.333,0.434-0.333,0.7,0c0.067,0.167,0.217,0.383,0.45,0.65
	c0.066,0.133,0.1,0.35,0.1,0.65c-0.167,1.133-0.466,1.7-0.9,1.7c-0.3,0-0.45-0.1-0.45-0.3c0-0.233-0.167-0.35-0.5-0.35L196,86.9
	c-0.333,0-0.5-0.167-0.5-0.5l0.1-0.4l-0.1-0.35C195.5,85.55,195.567,85.4,195.7,85.2z"/>
<path fill-rule="evenodd" clip-rule="evenodd" fill="#333333" d="M182.95,75.2c0.233,0,0.35,0.167,0.35,0.5l-0.25,0.75
	c-0.167,0.533-0.25,1.033-0.25,1.5c0,1.533,0.167,3,0.5,4.4c0,0.433-0.15,0.65-0.45,0.65c-0.4,0-0.7-0.2-0.9-0.6
	c-0.133-0.267-0.2-0.5-0.2-0.7c0-0.1,0.05-0.233,0.15-0.4c0.1-0.167,0.15-0.283,0.15-0.35c-0.1-1.2-0.15-2.217-0.15-3.05
	c0-0.8,0.017-1.283,0.05-1.45C182.083,75.617,182.417,75.2,182.95,75.2z"/>
<path fill-rule="evenodd" clip-rule="evenodd" fill="#333333" d="M194.7,72.5c-0.4,0-0.633-0.017-0.7-0.05l-8-0.1
	c-0.767,0.133-1.367,0.2-1.8,0.2c-0.434,0.034-1,0.267-1.7,0.7c-0.667,0.4-1.05,0.6-1.15,0.6c-0.233,0-0.383-0.083-0.45-0.25v-0.25
	c0-0.434,0.583-0.883,1.75-1.35c1.233-0.5,2.383-0.7,3.45-0.6l8.1,0.05l0.55,0.1l0.6-0.1h2.3c0.05,0.002,0.101,0.002,0.15,0
	c0.165,0.035,0.398,0.135,0.7,0.3c0.367,0.233,0.6,0.433,0.7,0.6c0.233,0.467,0.367,0.816,0.4,1.05l0.05,0.5v0.05
	c0.024,0.273,0.049,0.565,0.075,0.875c-0.039,0.305-0.097,0.63-0.175,0.975c0,0.267,0.067,0.667,0.2,1.2v1.2
	c0.004,0.472,0.004,0.914,0,1.325v0.5c-0.053,2.383-0.27,3.575-0.65,3.575c-0.367,0-0.55-0.15-0.55-0.45
	c0.067-0.333,0.1-0.533,0.1-0.6c-0.167-0.233-0.283-0.417-0.35-0.55c-0.033-0.033-0.05-0.217-0.05-0.55l0.05-0.55v-2.5l0.6-4.5
	c0-0.367-0.083-0.683-0.25-0.95c-0.267-0.434-0.65-0.6-1.15-0.5h-2.05C195.35,72.483,195.1,72.5,194.7,72.5z"/>
<path fill-rule="evenodd" clip-rule="evenodd" fill="#333333" d="M199.55,82.65c-0.167,0.1-0.267,0.2-0.3,0.3
	c-0.067,0.1-0.117,0.316-0.15,0.65c-0.067,0.267-0.233,0.4-0.5,0.4c-0.1,0-0.233-0.083-0.4-0.25c-0.1,0.067-0.15,0.317-0.15,0.75
	c-0.033,0.333-0.216,0.5-0.55,0.5c-0.233,0-0.383-0.117-0.45-0.35V84.3c0-0.367,0.217-0.95,0.65-1.75l0.35-0.85
	c0.5-0.333,0.75-0.567,0.75-0.7l-0.1-0.7c0-0.4,0.15-0.667,0.45-0.8c0.3-0.1,0.5,0.1,0.6,0.6v2.35
	C199.706,82.517,199.639,82.583,199.55,82.65z"/>
<path fill-rule="evenodd" clip-rule="evenodd" fill="#333333" d="M195,73.95c0.367-0.067,0.767,0.033,1.2,0.3
	c0.066,0.067,0.216,0.283,0.45,0.65c0.267,0.367,0.533,0.55,0.8,0.55c0.033,0,0.15-0.167,0.35-0.5c0.2-0.367,0.4-0.55,0.6-0.55
	c0.367,0,0.55,0.4,0.55,1.2c0,0.4-0.133,1.433-0.4,3.1l0.15,1c0,0.533-0.1,1.167-0.3,1.9c-0.133,0.4-0.333,1.017-0.6,1.85v0.05
	c0.133-0.133,0.267-0.2,0.4-0.2c0.433,0,0.633,0.25,0.6,0.75c0,1.067-0.2,1.667-0.6,1.8c-0.1,0-0.3,0.267-0.6,0.8
	c-0.3,0.5-0.583,0.75-0.85,0.75c-0.3,0-0.467-0.083-0.5-0.25c0-0.2,0-0.333,0-0.4c0-0.333,0.067-0.733,0.2-1.2
	c0.133-0.433,0.2-0.783,0.2-1.05c0-0.2-0.05-0.417-0.15-0.65c-0.133-0.233-0.2-0.483-0.2-0.75c0.333-2.767,0.5-4.333,0.5-4.7
	c0-0.267-0.05-0.583-0.15-0.95c-0.1-0.4-0.167-0.733-0.2-1c-0.034-0.267-0.367-0.583-1-0.95c-0.633-0.333-0.95-0.65-0.95-0.95
	C194.5,74.25,194.667,74.05,195,73.95z M197.7,83.7c-0.002,0.14-0.052,0.423-0.15,0.85v0.05c0.133-0.1,0.2-0.267,0.2-0.5
	C197.718,83.906,197.701,83.773,197.7,83.7z"/>
<path fill-rule="evenodd" clip-rule="evenodd" fill="#333333" d="M195.4,72.15c0.7,0.1,1.3,0.15,1.8,0.15c0.6,0,0.966-0.05,1.1-0.15
	c0.233,0,0.467,0.184,0.7,0.55c0.167,0.3,0.25,0.55,0.25,0.75c0,0.466-0.133,0.966-0.4,1.5c-0.367,0.767-0.9,1.15-1.6,1.15
	c-0.4,0-0.733-0.184-1-0.55c-0.166-0.231-0.249-0.415-0.25-0.55c-0.004,0.167-0.304,0.25-0.9,0.25c-0.833,0-1.65-0.1-2.45-0.3
	l-3.45-0.05c-1.067-0.033-1.75-0.083-2.05-0.15h-1.35l-0.05,0.05h-1.95c-0.566-0.066-0.933-0.15-1.1-0.25
	c-0.167-0.066-0.25-0.2-0.25-0.4c0-0.3,0.15-0.467,0.45-0.5c-0.133-0.2-0.2-0.383-0.2-0.55c0-0.367,0.117-0.617,0.35-0.75
	c0.233-0.133,0.717-0.267,1.45-0.4h2.25l0.25,0.1h4.15l0.25-0.1h3C194.467,71.95,194.8,72.017,195.4,72.15z"/>
<path fill-rule="evenodd" clip-rule="evenodd" d="M185.8,66.4c0.2,0.167,0.434,0.367,0.7,0.6c1,0.633,1.533,0.983,1.6,1.05
	c1.066,0.9,1.833,1.633,2.3,2.2c0.5-1.067,1.133-1.983,1.9-2.75c0.767-0.933,1.167-1.417,1.2-1.45c0.333-0.5,0.617-0.767,0.85-0.8
	c0.233,0,0.35,0.167,0.35,0.5c0,0.367-0.3,0.867-0.9,1.5c-0.8,0.9-1.233,1.4-1.3,1.5c-0.533,0.667-0.867,1.167-1,1.5
	c-0.233,0.967-0.567,1.45-1,1.45c-0.3,0-0.567-0.184-0.8-0.55c-0.233-0.4-0.4-0.65-0.5-0.75l-1.45-1.35l-1.8-1.3
	c-0.867-0.6-1.3-1.05-1.3-1.35c0-0.333,0.15-0.5,0.45-0.5C185.233,65.9,185.467,66.067,185.8,66.4z"/>
<path fill-rule="evenodd" clip-rule="evenodd" fill="#99FFFF" d="M183.65,75.05h12.05c0.233,0,0.35,0.15,0.35,0.45
	s-0.117,0.45-0.35,0.45h-12.15c-0.233,0-0.35-0.15-0.35-0.45S183.35,75.05,183.65,75.05z"/>
<path fill-rule="evenodd" clip-rule="evenodd" fill="#99FFFF" d="M184.25,75.7l-0.05,0.1v8.3c-0.1,0.267-0.25,0.4-0.45,0.4
	c-0.4,0-0.6-0.333-0.6-1c0.067-0.767,0.1-1.217,0.1-1.35v-6.6c0.2-0.5,0.417-0.667,0.65-0.5
	C184.133,75.15,184.25,75.367,184.25,75.7z"/>
<path fill-rule="evenodd" clip-rule="evenodd" fill="#99FFFF" d="M183.25,83.95c0-0.133,0-0.217,0-0.25
	c0.067-0.067,0.217-0.133,0.45-0.2h12c0.233,0,0.35,0.15,0.35,0.45c0,0.3-0.15,0.45-0.45,0.45l-12,0.05
	c-0.2-0.1-0.317-0.184-0.35-0.25V83.95z"/>
<path fill-rule="evenodd" clip-rule="evenodd" fill="#99FFFF" d="M195.7,75.1c0.267,0,0.4,0.316,0.4,0.95
	c0,0.367-0.017,0.817-0.05,1.35v4.75c0,0.167,0.034,0.6,0.1,1.3c-0.033,0.667-0.217,1-0.55,1c-0.367,0-0.55-0.333-0.55-1
	c0.067-0.7,0.1-1.133,0.1-1.3v-4.8c-0.066-0.434-0.1-0.833-0.1-1.2C195.05,75.45,195.267,75.1,195.7,75.1z"/>
<path fill-rule="evenodd" clip-rule="evenodd" fill="#99FFFF" d="M195.5,76.8c0,0.733-0.1,1.8-0.3,3.2v1.3
	c0.333,0.067,0.5,0.333,0.5,0.8s-0.1,0.9-0.3,1.3c-0.4,0.733-1.066,0.917-2,0.55h-2.05c-1.167-0.1-1.95-0.05-2.35,0.15l-3.6-0.1
	c-0.367-0.167-0.583-0.25-0.65-0.25l-0.25,0.1c-0.3,0-0.467-0.233-0.5-0.7c0-0.467,0-0.717,0-0.75l0.15-1.55l-0.35-1.6
	c0.133-0.4,0.2-0.767,0.2-1.1l0.05-1.1l-0.1-1.05c0-0.3,0.167-0.45,0.5-0.45c0.167,0,0.316,0.1,0.45,0.3h3.6
	c0.067-0.133,0.2-0.2,0.4-0.2l6.15-0.05C195.35,75.767,195.5,76.167,195.5,76.8z"/>
<path fill-rule="evenodd" clip-rule="evenodd" fill="#333333" d="M182.3,84.95c0-0.367,0.167-0.55,0.5-0.55c0.333,0,0.5,0.2,0.5,0.6
	c0,0.333-0.15,0.5-0.45,0.5c-0.2,0-0.35-0.1-0.45-0.3L182.3,84.95z"/>
<path fill-rule="evenodd" clip-rule="evenodd" fill="#333333" d="M182.35,74.55c0.033-0.767,0.367-0.917,1-0.45v10.8l0.1,0.2
	c0,0.1-0.067,0.217-0.2,0.35c-0.133,0.1-0.25,0.15-0.35,0.15c-0.367,0-0.55-0.383-0.55-1.15c0.066-0.934,0.1-1.534,0.1-1.8V76.5
	C182.35,75.633,182.317,74.983,182.35,74.55z"/>
<path fill-rule="evenodd" clip-rule="evenodd" fill="#333333" d="M196.95,79.5v3.3c0,0.267,0.033,0.9,0.1,1.9
	c-0.033,0.833-0.233,1.25-0.6,1.25s-0.55-0.434-0.55-1.3c0.067-1,0.1-1.633,0.1-1.9v-8.1c-0.067-0.433-0.1-0.75-0.1-0.95
	c0-0.367,0.184-0.567,0.55-0.6c0.367,0.2,0.55,0.667,0.55,1.4c0,0.433-0.017,1.033-0.05,1.8
	C196.983,76.967,196.983,78.033,196.95,79.5z"/>
<path fill-rule="evenodd" clip-rule="evenodd" fill="#333333" d="M182.45,84.6c0-0.233,0.15-0.383,0.45-0.45h13.95
	c0.267,0.2,0.4,0.35,0.4,0.45c-0.133,0.2-0.3,0.367-0.5,0.5H183.3l-0.1,0.05C182.7,85.15,182.45,84.967,182.45,84.6z"/>
<path fill-rule="evenodd" clip-rule="evenodd" fill="#333333" d="M183,74.3l13.95,0.05c0.167-0.033,0.3,0.017,0.4,0.15
	c0.066,0.1,0.1,0.2,0.1,0.3c0,0.034-0.034,0.117-0.1,0.25c-0.1,0.133-0.2,0.2-0.3,0.2h-14.3c-0.233-0.033-0.35-0.2-0.35-0.5
	c0-0.167,0.017-0.267,0.05-0.3C182.517,74.383,182.7,74.333,183,74.3z"/>
<path fill-rule="evenodd" clip-rule="evenodd" fill="#333333" d="M180.9,71.85c0.242-0.22,0.542-0.403,0.9-0.55h14.85
	c0.283,0.054,0.633,0.104,1.05,0.15c0.167,0,0.433,0.1,0.8,0.3c0.119,0.076,0.227,0.15,0.325,0.225
	c-0.083,0.09-0.175,0.165-0.275,0.225h-17.4c-0.171-0.049-0.279-0.141-0.325-0.275C180.85,71.898,180.875,71.873,180.9,71.85z"/>
<path fill-rule="evenodd" clip-rule="evenodd" fill="#333333" d="M182.2,72c0,0.2-0.05,0.317-0.15,0.35
	c-0.066,0.033-0.283,0.05-0.65,0.05c-0.533,0-0.9,0.65-1.1,1.95l-0.25,0.95c-0.133,0.434-0.2,0.784-0.2,1.05v8.15
	c0,0.233,0.15,0.55,0.45,0.95c0.333,0.433,0.5,0.75,0.5,0.95c0,0.267,0.383,0.517,1.15,0.75c0.609,0.166,0.967,0.358,1.075,0.575
	c-1.674-0.314-2.649-0.706-2.925-1.175c-0.067-0.1-0.217-0.566-0.45-1.4c-0.047-0.142-0.097-0.267-0.15-0.375V75.5
	c0.073-0.212,0.124-0.479,0.15-0.8c0.033-0.534,0.067-0.867,0.1-1c0.1-0.633,0.483-1.25,1.15-1.85c0.165-0.15,0.356-0.283,0.575-0.4
	C181.958,71.468,182.2,71.651,182.2,72z"/>
<path fill-rule="evenodd" clip-rule="evenodd" fill="#333333" d="M180.6,79.1c-0.067,1.867-0.267,2.8-0.6,2.8
	c-0.233,0-0.383-0.267-0.45-0.8c0-0.533,0-0.817,0-0.85v-1.2c0.333-0.4,0.6-0.55,0.8-0.45C180.517,78.7,180.6,78.867,180.6,79.1z"/>
<path fill-rule="evenodd" clip-rule="evenodd" fill="#333333" d="M185.5,87.9h-1.35c-0.842-0.118-1.558-0.252-2.15-0.4h16.6
	c0.2-0.233,0.433-0.617,0.7-1.15c0.135-0.286,0.235-0.536,0.3-0.75c0.006,0.098,0.022,0.182,0.05,0.25
	c0.007,0.046,0.007,0.096,0,0.15c-0.061,0.152-0.102,0.31-0.125,0.475c-0.039,0.075-0.08,0.15-0.125,0.225
	c-0.04,0.087-0.073,0.17-0.1,0.25c-0.433,0.633-1.2,0.966-2.3,1c-0.209,0.007-0.393,0.024-0.55,0.05h-10.725
	C185.657,87.965,185.582,87.932,185.5,87.9z M199.5,84.35c0-0.237,0.083-0.395,0.25-0.475v0.85c-0.033,0.075-0.058,0.158-0.075,0.25
	C199.558,84.681,199.5,84.472,199.5,84.35z"/>
<path fill-rule="evenodd" clip-rule="evenodd" fill="#333333" d="M199.2,84.9c0.195-0.223,0.378-0.306,0.55-0.25v0.075
	c-0.043,0.098-0.076,0.206-0.1,0.325c-0.066,0.367-0.066,0.633,0,0.8c0.007,0.047,0.007,0.097,0,0.15
	c-0.061,0.153-0.102,0.311-0.125,0.475c-0.038,0.075-0.08,0.15-0.125,0.225c-0.04,0.087-0.073,0.17-0.1,0.25
	c-0.276,0.404-0.685,0.688-1.225,0.85l-0.025-0.05c0-0.167,0-0.267,0-0.3c0-0.2,0.284-0.767,0.85-1.7
	C199.033,85.25,199.133,84.967,199.2,84.9z"/>
<path fill-rule="evenodd" clip-rule="evenodd" fill="#333333" d="M197.975,71.5c0.142,0.053,0.317,0.136,0.525,0.25
	c0.367,0.233,0.6,0.433,0.7,0.6c0.233,0.467,0.367,0.816,0.4,1.05l0.05,0.5c0.004,0.019,0.012,0.035,0.025,0.05
	c0.015,0.345,0.04,0.712,0.075,1.1v9.45c-0.038-0.042-0.071-0.092-0.1-0.15v-6.9c-0.2-0.034-0.333-0.1-0.4-0.2l0.15-3.05
	c0.033-0.633,0.033-1.083,0-1.35c-0.066-0.367-0.333-0.6-0.8-0.7c-0.434-0.066-0.65-0.2-0.65-0.4
	C197.95,71.639,197.958,71.556,197.975,71.5z"/>
<path fill-rule="evenodd" clip-rule="evenodd" d="M197.85,86.8c-0.167,0.333-0.467,0.45-0.9,0.35c-0.567-0.036-0.85-0.369-0.85-1
	c0-0.633,0.3-0.95,0.9-0.95s0.9,0.367,0.9,1.1L197.85,86.8z"/>
<rect x="193.85" y="84.85" fill-rule="evenodd" clip-rule="evenodd" width="1.05" height="1"/>
<rect x="193.85" y="86.25" fill-rule="evenodd" clip-rule="evenodd" width="1" height="1.05"/>
<rect x="192.35" y="84.85" fill-rule="evenodd" clip-rule="evenodd" width="1" height="1"/>
<rect x="192.35" y="86.25" fill-rule="evenodd" clip-rule="evenodd" width="1" height="1"/>
<rect x="190.75" y="84.85" fill-rule="evenodd" clip-rule="evenodd" width="1" height="1"/>
<polygon fill-rule="evenodd" clip-rule="evenodd" points="191.75,86.2 191.75,87.3 190.7,87.3 190.7,86.3 190.75,86.2 "/>
<path fill-rule="evenodd" clip-rule="evenodd" d="M179.2,76.1c0-0.533,0.117-0.934,0.35-1.2c0.233,0.3,0.35,0.717,0.35,1.25
	c0,0.3-0.017,0.733-0.05,1.3c0.033,0.566,0.033,1.4,0,2.5c0.066,3.4-0.033,5.1-0.3,5.1c-0.233,0-0.35-0.35-0.35-1.05
	c0.033-0.8,0.05-1.3,0.05-1.5v-2.55c-0.033-1.133-0.033-1.983,0-2.55C179.217,76.833,179.2,76.4,179.2,76.1z"/>
<path fill-rule="evenodd" clip-rule="evenodd" d="M200.05,74.35L200,74.6v10.5c-0.1,0.1-0.217,0.15-0.35,0.15
	c-0.2,0-0.3-0.367-0.3-1.1c0.033-0.867,0.05-1.433,0.05-1.7V76.7c-0.066-0.667-0.1-1.2-0.1-1.6c0-0.8,0.15-1.2,0.45-1.2
	C199.95,73.9,200.05,74.05,200.05,74.35z"/>
<path fill-rule="evenodd" clip-rule="evenodd" d="M196.7,87.7c0.167,0.1,0.25,0.183,0.25,0.25l-0.3,0.3L182.5,88.2
	c-0.167,0-0.25-0.083-0.25-0.25c0-0.167,0.083-0.25,0.25-0.25H196.7z"/>
<path fill-rule="evenodd" clip-rule="evenodd" d="M197.6,71.05c0.167,0.1,0.25,0.184,0.25,0.25c0,0.067-0.05,0.15-0.15,0.25h-15.85
	c-0.1-0.066-0.15-0.15-0.15-0.25c0-0.167,0.083-0.25,0.25-0.25H197.6z"/>
<path fill-rule="evenodd" clip-rule="evenodd" d="M198.35,71.05c0.633,0.267,1.066,0.617,1.3,1.05c0.167,0.333,0.25,0.9,0.25,1.7
	c0,0.667-0.1,1-0.3,1c-0.2,0-0.3-0.267-0.3-0.8c0.067-0.6,0.083-0.95,0.05-1.05c-0.133-0.534-0.283-0.883-0.45-1.05
	c-0.133-0.133-0.45-0.233-0.95-0.3c-0.4-0.067-0.6-0.2-0.6-0.4C197.35,70.867,197.683,70.817,198.35,71.05z"/>
<path fill-rule="evenodd" clip-rule="evenodd" d="M182.25,71.3c0,0.034-0.267,0.15-0.8,0.35c-0.567,0.2-0.9,0.4-1,0.6
	c-0.3,0.367-0.467,0.717-0.5,1.05c-0.034,0.2-0.034,0.7,0,1.5c0.033,0.6-0.05,0.9-0.25,0.9c-0.133,0-0.217-0.267-0.25-0.8
	c-0.034-0.267-0.05-0.566-0.05-0.9c0-0.8,0.133-1.4,0.4-1.8c0.4-0.633,1.133-1.017,2.2-1.15
	C182.167,71.15,182.25,71.233,182.25,71.3z"/>
<path fill-rule="evenodd" clip-rule="evenodd" d="M180,84.15c0,0.267-0.05,0.583-0.15,0.95c0,1.066,0.533,1.8,1.6,2.2
	c0.533,0.2,1.066,0.383,1.6,0.55c0,0.167-0.083,0.25-0.25,0.25c-1.433,0-2.433-0.45-3-1.35c-0.3-0.467-0.45-1.017-0.45-1.65
	l0.1-0.85c0-0.133,0.1-0.25,0.3-0.35C179.917,83.833,180,83.917,180,84.15z"/>
<path fill-rule="evenodd" clip-rule="evenodd" d="M200,85.15c0,0.667-0.133,1.25-0.4,1.75c-0.467,0.833-1.267,1.25-2.4,1.25
	c-0.5,0-0.767,0-0.8,0c0.067-0.033,0.067-0.083,0-0.15c-0.033-0.033-0.05-0.067-0.05-0.1c0-0.167,0.083-0.25,0.25-0.25
	c1.3,0.267,2.2-0.233,2.7-1.5l0.2-1c0.067-0.267,0.167-0.4,0.3-0.4S200,84.883,200,85.15z"/>
<path fill-rule="evenodd" clip-rule="evenodd" fill="#333333" d="M180.1,85.4c-0.167,0-0.25-0.3-0.25-0.9
	c0-0.567,0.133-0.85,0.4-0.85s0.4,0.184,0.4,0.55L180.1,85.4z"/>
<path fill-rule="evenodd" clip-rule="evenodd" fill="#333333" d="M182.85,87.7c-0.233,0-0.434-0.05-0.6-0.15
	c-0.133-0.1-0.2-0.183-0.2-0.25c0-0.367,0.2-0.466,0.6-0.3c0.4,0.133,0.6,0.283,0.6,0.45C183.25,87.617,183.117,87.7,182.85,87.7z"
	/>
<path fill-rule="evenodd" clip-rule="evenodd" fill="#333333" d="M183,87.75c-0.767,0-1.15-0.167-1.15-0.5
	c0-0.233,0.267-0.283,0.8-0.15s0.8,0.267,0.8,0.4C183.45,87.667,183.3,87.75,183,87.75z"/>
<path fill-rule="evenodd" clip-rule="evenodd" fill="#333333" d="M181.3,72.25c-0.267,0.1-0.466,0.233-0.6,0.4
	c-0.067,0.067-0.133,0.233-0.2,0.5c-0.067,0.233-0.183,0.35-0.35,0.35c-0.066,0-0.133-0.05-0.2-0.15l-0.05-0.15
	c0-0.434,0.283-0.867,0.85-1.3c0.533-0.4,0.8-0.383,0.8,0.05C181.55,72.117,181.467,72.217,181.3,72.25z"/>
<path fill-rule="evenodd" clip-rule="evenodd" fill="#333333" d="M199,73.5c-0.233,0-0.333-0.117-0.3-0.35
	c0.066-0.267,0.083-0.433,0.05-0.5c-0.033-0.1-0.167-0.25-0.4-0.45c-0.167-0.133-0.25-0.25-0.25-0.35c0-0.367,0.2-0.4,0.6-0.1
	c0.4,0.3,0.6,0.683,0.6,1.15C199.3,73.3,199.2,73.5,199,73.5z"/>
<path fill-rule="evenodd" clip-rule="evenodd" fill="#333333" d="M198.85,72.5c-0.1,0-0.184-0.067-0.25-0.2
	c-0.067-0.133-0.1-0.233-0.1-0.3c0-0.167,0.1-0.25,0.3-0.25c0.2,0,0.3,0.133,0.3,0.4C199.1,72.383,199.017,72.5,198.85,72.5z"/>
<path fill-rule="evenodd" clip-rule="evenodd" fill="#DFFFFF" d="M190.4,75.7l0.05,0.15c-1.133,0.533-2.184,1.283-3.15,2.25
	c-0.133,0.1-0.533,0.55-1.2,1.35c-0.6,0.667-0.95,1-1.05,1l-0.2-0.05c1-1.233,1.717-2.066,2.15-2.5c0.933-0.9,1.967-1.633,3.1-2.2
	H190.4z"/>
<path fill-rule="evenodd" clip-rule="evenodd" fill="#DFFFFF" d="M194.1,77.4l0.05,0.15L194,77.7
	c-3.733,1.066-6.117,2.716-7.15,4.95h-0.25l-0.05-0.15c0-0.667,0.9-1.65,2.7-2.95c1.833-1.3,3.283-2.017,4.35-2.15H194.1z"/>
<path fill-rule="evenodd" clip-rule="evenodd" fill="#DFFFFF" d="M194.15,80.9c0,0.033-0.25,0.2-0.75,0.5
	c-0.533,0.333-0.883,0.65-1.05,0.95c-0.167,0.233-0.7,0.667-1.6,1.3l-0.05-0.2c0-0.267,0.45-0.75,1.35-1.45
	c0.867-0.667,1.55-1.067,2.05-1.2L194.15,80.9z"/>
</svg>
