<?xml version="1.0" encoding="utf-8"?>
<!-- Generator: Adobe Illustrator 16.0.0, SVG Export Plug-In . SVG Version: 6.00 Build 0)  -->
<!DOCTYPE svg PUBLIC "-//W3C//DTD SVG 1.1//EN" "http://www.w3.org/Graphics/SVG/1.1/DTD/svg11.dtd">
<svg version="1.1" id="Selected_Items" xmlns="http://www.w3.org/2000/svg" xmlns:xlink="http://www.w3.org/1999/xlink" x="0px"
	 y="0px" width="550px" height="400px" viewBox="0 0 550 400" enable-background="new 0 0 550 400" xml:space="preserve">
<path fill-rule="evenodd" clip-rule="evenodd" fill="#99FFFF" d="M148.05,109.7c0.733,1.1,1.1,2.05,1.1,2.85
	c0,0.5-0.316,1.184-0.95,2.05c-0.833,1.1-1.833,1.65-3,1.65c-2.633,0-4.35-0.6-5.15-1.8c-0.3-0.434-0.45-1.15-0.45-2.15
	c0-0.933,0.25-1.8,0.75-2.6c0.833-1.4,2.233-2.1,4.2-2.1C145.95,107.6,147.117,108.3,148.05,109.7z"/>
<path fill-rule="evenodd" clip-rule="evenodd" fill="#99FFFF" d="M144,115.35c0.3-0.1,0.517-0.15,0.65-0.15
	c0.5,0,0.883,0.483,1.15,1.45c0.134,0.5,0.267,1.184,0.4,2.05c0.2,0.533,0.466,1.15,0.8,1.85c0.233,0.6,0.35,1.184,0.35,1.75
	c0,1.833-0.7,2.75-2.1,2.75c-1.233,0-1.933-0.617-2.1-1.85c0.034-1.434,0.034-2.35,0-2.75c-0.033-0.2-0.1-0.934-0.2-2.2
	c-0.1-1.333-0.15-2.15-0.15-2.45c0-0.433,0.034-0.683,0.1-0.75C143.033,114.883,143.4,114.983,144,115.35z"/>
<path fill-rule="evenodd" clip-rule="evenodd" fill="#99FFFF" d="M163.9,108.25c0.167,0.767,0.25,1.617,0.25,2.55
	c0,1.333-0.167,2.5-0.5,3.5c-0.733,2.034-2.083,3.05-4.05,3.05c-0.467,0-0.7-0.233-0.7-0.7c0-0.2,0.517-0.6,1.55-1.2
	c1.1-0.633,1.75-1.133,1.95-1.5c0.333-1.333,0.5-2.4,0.5-3.2l-0.15-1.3l-0.05-0.05c-0.434,0.767-0.8,1.383-1.1,1.85
	c-0.533,0.867-0.934,1.3-1.2,1.3c-0.367,0-0.8-0.45-1.3-1.35c-0.467-0.9-0.7-1.6-0.7-2.1l-0.1-0.15c-0.833,2.2-1.466,3.3-1.9,3.3
	c-0.267,0-0.767-0.5-1.5-1.5c-0.933-1.267-1.45-1.95-1.55-2.05l-0.1,2.5c0,1.3,0.483,2.533,1.45,3.7c0.5,0.567,0.983,1.067,1.45,1.5
	c0,0.434-0.267,0.65-0.8,0.65c-0.667,0-1.333-0.433-2-1.3c-0.4-0.5-0.733-1.033-1-1.6c-0.233-0.5-0.35-1.483-0.35-2.95
	c0-1.067,0.033-1.833,0.1-2.3c0.167-1.333,0.517-2,1.05-2c0.367,0,0.917,0.5,1.65,1.5c0.4,0.5,0.867,1.133,1.4,1.9
	c0.233-0.566,0.566-1.233,1-2c0.6-1.066,1.017-1.6,1.25-1.6c0.367,0,0.733,0.566,1.1,1.7c0.434,1.367,0.717,2.133,0.85,2.3
	c0.267-0.4,0.617-1.2,1.05-2.4c0.333-0.933,0.767-1.6,1.3-2C163.283,106.467,163.667,107.117,163.9,108.25z"/>
<path fill-rule="evenodd" clip-rule="evenodd" fill="#99FFFF" d="M160.3,111.5c0.1-0.1,0.367-0.567,0.8-1.4
	c0.467-0.8,0.9-1.2,1.3-1.2c0.667,0,0.95,0.633,0.85,1.9c0,1.6-0.617,3.15-1.85,4.65s-1.85,2.267-1.85,2.3
	c0,0.6,0.184,1.283,0.55,2.05c0.367,0.8,0.55,1.434,0.55,1.9c-0.133,2.233-0.883,3.35-2.25,3.35c-1.733,0-2.65-1.216-2.75-3.65
	c0.2-2.566,0.2-3.95,0-4.15c-0.433-0.467-1.017-1.667-1.75-3.6c-0.8-2.033-1.2-3.467-1.2-4.3c0-0.267,0.017-0.417,0.05-0.45
	c0.1-0.2,0.35-0.3,0.75-0.3c0.5,0,1.067,0.483,1.7,1.45c0.5,0.767,0.85,1.483,1.05,2.15c0.167-0.733,0.333-1.35,0.5-1.85
	c0.333-0.967,0.75-1.45,1.25-1.45c0.434,0,0.833,0.35,1.2,1.05C159.633,110.783,160,111.3,160.3,111.5z"/>
<path fill-rule="evenodd" clip-rule="evenodd" fill="#007171" d="M144.1,107.1c1.6-0.1,2.683,0.2,3.25,0.9
	c0.3,0.367,0.617,0.9,0.95,1.6c0.534,0.6,0.884,1.083,1.05,1.45c0.1,0.267,0.15,0.684,0.15,1.25c0,0.534-0.316,1.333-0.95,2.4
	c-0.8,1.333-1.716,2-2.75,2c-0.233,0-0.383-0.05-0.45-0.15v-0.2c0-0.1,0.566-0.567,1.7-1.4c1.134-1,1.7-1.883,1.7-2.65
	c-1.233-2.966-2.583-4.45-4.05-4.45c-1.833,0-3.133,0.733-3.9,2.2c-0.4,1.5-0.6,2.284-0.6,2.35c0,0.9,0.5,1.817,1.5,2.75
	c0.5,0.5,1,0.917,1.5,1.25c0,0.267-0.167,0.4-0.5,0.4c-1.1,0-1.967-0.7-2.6-2.1c-0.434-0.967-0.65-1.733-0.65-2.3
	c0-1.133,0.25-2.15,0.75-3.05C141,107.95,142.3,107.2,144.1,107.1z"/>
<path fill-rule="evenodd" clip-rule="evenodd" fill="#007171" d="M147.45,124c-0.467,0.733-1.2,1.1-2.2,1.1
	c-1.233,0-2.033-1.3-2.4-3.9c-0.133-2.567-0.2-3.867-0.2-3.9c0-0.566,0.1-0.917,0.3-1.05l0.4,0.1c0.033,0.733,0.05,2.333,0.05,4.8
	c0.167,2.1,0.784,3.15,1.85,3.15c1.133,0,1.767-0.583,1.9-1.75c0-0.1-0.267-0.7-0.8-1.8s-0.8-2.2-0.8-3.3
	c0-0.267,0.117-0.633,0.35-1.1c0.2-0.5,0.35-0.4,0.45,0.3c-0.067,0.833-0.05,1.483,0.05,1.95c0.034,0.267,0.3,0.9,0.8,1.9
	c0.466,0.9,0.7,1.583,0.7,2.05C147.9,123.05,147.75,123.533,147.45,124z"/>
<path fill-rule="evenodd" clip-rule="evenodd" fill="#007171" d="M158.7,106.55c0,0.167-0.434,0.867-1.3,2.1
	c-0.9,1.233-1.417,1.85-1.55,1.85c-0.333,0-0.633-0.283-0.9-0.85c-0.233-0.6-0.4-0.967-0.5-1.1c-0.067-0.066-0.467-0.383-1.2-0.95
	c-0.533-0.367-0.8-0.684-0.8-0.95s0.117-0.4,0.35-0.4c0.1,0,0.55,0.417,1.35,1.25c0.833,0.833,1.4,1.483,1.7,1.95
	c0.233-0.267,0.583-0.833,1.05-1.7c0.534-0.8,1.117-1.3,1.75-1.5L158.7,106.55z"/>
<path fill-rule="evenodd" clip-rule="evenodd" fill="#007171" d="M160.25,110.7c-0.1,0-0.417-0.534-0.95-1.6
	c-0.6-1.2-1.017-1.917-1.25-2.15v-0.6c0.467-0.067,1.034,0.5,1.7,1.7c0.633,1.067,0.95,1.784,0.95,2.15
	C160.7,110.533,160.55,110.7,160.25,110.7z"/>
<path fill-rule="evenodd" clip-rule="evenodd" fill="#007171" d="M163.3,106.3c-1.7,3.067-2.65,4.6-2.85,4.6
	c-0.233,0-0.367-0.05-0.4-0.15v-0.2c0-0.233,0.333-0.95,1-2.15c0.8-1.4,1.534-2.217,2.2-2.45L163.3,106.3z"/>
<path fill-rule="evenodd" clip-rule="evenodd" fill="#007171" d="M164.5,112.75c0,1.833-0.717,3.283-2.15,4.35l-2.15,1.65
	c0,0.367,0.1,0.767,0.3,1.2c0.2,0.433,0.3,0.683,0.3,0.75c0,0.066-0.033,0.167-0.1,0.3c-0.1,0.133-0.2,0.2-0.3,0.2
	c-0.3,0-0.617-0.517-0.95-1.55c-0.267-1.033-0.4-1.566-0.4-1.6c0-0.867,0.417-1.3,1.25-1.3c0.167,0,0.45,0.067,0.85,0.2
	c0.833,0,1.517-0.7,2.05-2.1l0.55-2.1c-0.133-1.367-0.167-2.383-0.1-3.05c0.034-0.4-0.05-0.9-0.25-1.5
	c-0.267-0.633-0.45-1.1-0.55-1.4v-0.55c0.6-0.433,1.05,0.4,1.35,2.5C164.4,110.083,164.5,111.417,164.5,112.75z"/>
<path fill-rule="evenodd" clip-rule="evenodd" fill="#007171" d="M159.85,119.35c0.566,0,0.917,1,1.05,3c0,0.467-0.167,1-0.5,1.6
	c-0.533,0.9-1.333,1.35-2.4,1.35c-1.7,0-2.55-1.767-2.55-5.3l0.2-2.15c0-0.3-0.4-0.633-1.2-1c-0.934-0.5-1.45-0.8-1.55-0.9
	c-0.2-0.2-0.383-0.517-0.55-0.95c-0.167-0.4-0.25-0.717-0.25-0.95c-0.233-1.8-0.35-3.017-0.35-3.65c0-0.767,0.133-1.55,0.4-2.35
	c0.367-1,0.833-1.5,1.4-1.5l0.05,0.4c0,0.267-0.184,0.75-0.55,1.45c-0.366,0.667-0.55,1.333-0.55,2c0,0.333,0.05,0.95,0.15,1.85
	c0.067,1.033,0.15,1.667,0.25,1.9c0.5,1.133,1.284,1.934,2.35,2.4c0.833,0.367,1.25,0.75,1.25,1.15c0,0.167-0.1,0.917-0.3,2.25
	c0,0.833,0.083,1.667,0.25,2.5c0.233,1.267,0.6,1.95,1.1,2.05h1c0.7-0.5,1.15-0.867,1.35-1.1c0.167-0.267,0.25-0.617,0.25-1.05
	c0-0.3-0.1-0.75-0.3-1.35c-0.2-0.633-0.3-1.033-0.3-1.2C159.55,119.5,159.65,119.35,159.85,119.35z"/>
<path fill-rule="evenodd" clip-rule="evenodd" fill="#007171" d="M153.3,107c-0.466,2.267-0.866,3.4-1.2,3.4
	c-0.033,0-0.15-0.05-0.35-0.15v-0.6c0.1-0.133,0.2-0.7,0.3-1.7c0.067-0.633,0.467-1.067,1.2-1.3L153.3,107z"/>
<path fill-rule="evenodd" clip-rule="evenodd" fill="#007171" d="M144,109.4c-0.005-0.152-0.172,0.214-0.5,1.1
	c-0.333,0.9-0.5,1.45-0.5,1.65c0,0.633,0.233,1.217,0.7,1.75c0.233,0.267,0.466,0.5,0.7,0.7c0,0.133-0.066,0.25-0.2,0.35
	c-0.133,0.1-0.267,0.15-0.4,0.15c-0.7,0-1.167-0.483-1.4-1.45l-0.15-1.45c0-0.767,0.067-1.4,0.2-1.9c0.133-0.6,0.417-1.05,0.85-1.35
	C143.765,108.618,143.998,108.768,144,109.4z"/>
<path fill-rule="evenodd" clip-rule="evenodd" fill="#007171" d="M146.4,109.65c0.4,0.633,0.6,1.467,0.6,2.5
	c0,0.6-0.167,1.233-0.5,1.9c-0.367,0.7-0.75,1.05-1.15,1.05c-0.233,0-0.367-0.05-0.4-0.15v-0.2c0-0.267,0.216-0.633,0.65-1.1
	c0.433-0.433,0.65-0.917,0.65-1.45c0-1.9-0.566-2.85-1.7-2.85c-0.267,0-0.483,0.066-0.65,0.2c-0.167,0.1-0.3,0.15-0.4,0.15
	c-0.033,0-0.15-0.05-0.35-0.15v-0.5C144.684,108.383,145.767,108.583,146.4,109.65z"/>
<path fill-rule="evenodd" clip-rule="evenodd" fill="#99FFFF" d="M154.6,113.65c0.4,0.3,0.6,0.55,0.6,0.75c0,0.1-0.067,0.2-0.2,0.3
	c-0.133,0.066-0.233,0.1-0.3,0.1c-0.7,0-1.184-0.333-1.45-1c-0.133-0.667-0.2-1.017-0.2-1.05c0-0.367,0.017-0.6,0.05-0.7
	c0.066-0.267,0.283-0.3,0.65-0.1C153.85,112.717,154.133,113.283,154.6,113.65z"/>
</svg>
