<?xml version="1.0" encoding="utf-8"?>
<!-- Generator: Adobe Illustrator 16.0.0, SVG Export Plug-In . SVG Version: 6.00 Build 0)  -->
<!DOCTYPE svg PUBLIC "-//W3C//DTD SVG 1.1//EN" "http://www.w3.org/Graphics/SVG/1.1/DTD/svg11.dtd">
<svg version="1.1" id="Selected_Items" xmlns="http://www.w3.org/2000/svg" xmlns:xlink="http://www.w3.org/1999/xlink" x="0px"
	 y="0px" width="550px" height="400px" viewBox="0 0 550 400" enable-background="new 0 0 550 400" xml:space="preserve">
<path fill-rule="evenodd" clip-rule="evenodd" fill="#660000" d="M158.6,127c0.066-0.567,0.3-1.317,0.7-2.25
	c0.067-0.233,0.434-0.567,1.1-1c0.567-0.4,1.017-0.667,1.35-0.8c1.167-0.5,1.9-0.684,2.2-0.55c0.566,0.233,0.867,0.35,0.9,0.35
	l2.45-0.25c2,0,3.6,0.5,4.8,1.5c0.867,0.733,1.3,1.383,1.3,1.95c0,0.5-0.233,0.75-0.7,0.75c-2.267-0.7-3.534-1.583-3.8-2.65
	l-1.6-0.1c-3.4,0-5.6,1.05-6.6,3.15c-0.4,0.833-0.6,2.217-0.6,4.15c0,1.067,0.816,2.517,2.45,4.35c0.833,0.9,1.65,1.783,2.45,2.65
	c0,0.5-0.233,0.75-0.7,0.75c-0.6,0-1.45-0.667-2.55-2c-0.767-0.933-1.483-1.933-2.15-3c-0.467-0.733-0.767-1.583-0.9-2.55
	c-0.067-0.534-0.1-1.383-0.1-2.55C158.6,127.7,158.6,127.067,158.6,127z"/>
<path fill-rule="evenodd" clip-rule="evenodd" fill="#660000" d="M172.95,141.7c0.367-0.667,0.716-1,1.05-1
	c0.433,0,0.667,0.267,0.7,0.8c0,0.5-0.2,1.117-0.6,1.85c-0.533,0.967-1.2,1.45-2,1.45c-1.733,0-3.4-0.683-5-2.05
	c-1.267-1.367-1.917-2.067-1.95-2.1c-1-0.9-1.783-1.65-2.35-2.25c-1.066-1.066-1.6-1.883-1.6-2.45c0-1.233,0.6-1.267,1.8-0.1
	c0.7,0.667,1.733,1.75,3.1,3.25c0.367,0.367,0.717,0.767,1.05,1.2c0.333,0.333,0.833,0.717,1.5,1.15
	c1.434,0.833,2.533,1.25,3.3,1.25C172.25,142.7,172.583,142.367,172.95,141.7z"/>
<path fill-rule="evenodd" clip-rule="evenodd" fill="#660000" d="M173.9,140.8c0.067-0.4,0.3-0.6,0.7-0.6
	c0.066,0,0.467,0.517,1.2,1.55c0.7,1.033,1.7,1.55,3,1.55c0.667,0,1.75-0.9,3.25-2.7c1.467-1.8,2.517-3.417,3.15-4.85
	c0.733-1.9,1.15-3.167,1.25-3.8c0.2-1.567,0.55-2.4,1.05-2.5c0.467-0.067,0.7,0.35,0.7,1.25c0,0.7-0.167,1.933-0.5,3.7
	c-0.167,1.4-0.7,2.6-1.6,3.6c-1.133,1.233-2.517,3.017-4.15,5.35c-0.622,0.901-1.389,1.385-2.3,1.45v-0.05
	c-0.967-0.133-1.917-0.383-2.85-0.75c-1.933-0.667-2.9-1.517-2.9-2.55C173.867,141.217,173.867,141,173.9,140.8z"/>
<path fill-rule="evenodd" clip-rule="evenodd" fill="#660000" d="M173.8,127.2c-0.466,0-0.7-0.284-0.7-0.85
	c0-0.233,0.167-0.583,0.5-1.05c0.333-0.433,0.65-0.75,0.95-0.95c0.5-0.333,0.733-0.684,0.7-1.05c0.1-0.167,1.067-0.25,2.9-0.25
	c2.333,0,3.667,0.067,4,0.2c0.367,0.133,1.6,1.033,3.7,2.7c0.833,0.833,1.417,1.633,1.75,2.4c0.467,1.133,0.7,1.917,0.7,2.35
	c0,0.6-0.25,0.9-0.75,0.9c-0.7-1.2-1.433-2.4-2.2-3.6c-1.6-2.433-3.533-3.65-5.8-3.65c-2,0-3.433,0.483-4.3,1.45
	C174.417,126.733,173.933,127.2,173.8,127.2z"/>
<path fill-rule="evenodd" clip-rule="evenodd" fill="#660000" d="M166.45,126.95c-1.434,0.867-2.15,1.767-2.15,2.7l0.2,1.4
	c0,0.633-0.25,0.95-0.75,0.95c-0.367,0-0.617-0.383-0.75-1.15l-0.1-1.2c0-1.433,0.95-2.783,2.85-4.05c1.9-1.233,2.85-1.233,2.85,0
	C167.9,126.033,167.183,126.483,166.45,126.95z"/>
<path fill-rule="evenodd" clip-rule="evenodd" fill="#660000" d="M172.3,128.75c0,0.4-0.233,0.767-0.7,1.1
	c-0.467,0.333-0.917,0.5-1.35,0.5c-1.8,0-3.133,0.65-4,1.95c-0.867,1.267-1.316,1.9-1.35,1.9c-0.466,0-0.7-0.284-0.7-0.85
	c0-0.767,0.417-1.6,1.25-2.5c1.033-1.133,2.383-1.75,4.05-1.85l0.25-0.1c-0.3-0.667-0.9-1.517-1.8-2.55
	c-0.833-0.934-1.25-1.417-1.25-1.45c0-1.267,0.933-1.05,2.8,0.65C171.367,127.283,172.3,128.35,172.3,128.75z"/>
<path fill-rule="evenodd" clip-rule="evenodd" fill="#660000" d="M162.8,129c0-0.3,0.167-0.567,0.5-0.8c0.4-0.233,0.7,0,0.9,0.7
	c0.133,0.267,0.283,0.833,0.45,1.7c0.034,0.066,0.233,0.617,0.6,1.65s0.55,1.633,0.55,1.8c0,0.5-0.267,0.75-0.8,0.75
	c-0.367,0-0.7-0.4-1-1.2c-0.267-0.867-0.433-1.417-0.5-1.65c-0.066-0.233-0.2-0.75-0.4-1.55C162.9,129.6,162.8,129.133,162.8,129z"
	/>
<path fill-rule="evenodd" clip-rule="evenodd" fill="#660000" d="M160.5,128c0.167-1.333,0.533-2,1.1-2c0.433,0,0.7,0.2,0.8,0.6
	c0.067,0.233,0.117,0.533,0.15,0.9l0.05,0.05c0.2-0.8,0.75-1.6,1.65-2.4c0.9-0.833,1.35-0.75,1.35,0.25c0,0.1-0.267,0.55-0.8,1.35
	c-0.566,0.867-0.95,1.567-1.15,2.1c-0.1,0.3-0.167,0.933-0.2,1.9c-0.1,0.833-0.417,1.25-0.95,1.25c-0.3,0-0.517-0.133-0.65-0.4
	c-0.067-0.3-0.117-0.483-0.15-0.55c-0.333,0.167-0.534,0.25-0.6,0.25c-0.333,0-0.55-0.167-0.65-0.5l-0.05-0.5
	C160.4,129.267,160.434,128.5,160.5,128z"/>
<path fill-rule="evenodd" clip-rule="evenodd" fill="#660000" d="M161.8,129.3v0.95c0.034,0,0.117-0.117,0.25-0.35
	c0.167-0.2,0.35-0.3,0.55-0.3c0.4,0,0.816,0.517,1.25,1.55c0.3,0.733,0.533,1.5,0.7,2.3c0.034,0.167,0.317,0.8,0.85,1.9
	c0.533,1.066,0.8,1.7,0.8,1.9c0,0.567-0.284,0.85-0.85,0.85c-0.5,0-1.267-0.567-2.3-1.7c-0.866-0.9-1.533-1.75-2-2.55
	c-0.733-1.133-1.15-1.917-1.25-2.35c-0.066-0.2-0.1-0.833-0.1-1.9c0-1,0.017-1.617,0.05-1.85c0.167-0.733,0.533-1.2,1.1-1.4
	c0.767-0.267,1.183,0.033,1.25,0.9C162.133,127.883,162.033,128.567,161.8,129.3z"/>
<path fill-rule="evenodd" clip-rule="evenodd" fill="#660000" d="M162.9,127.9c-0.6,0.6-1.033,0.9-1.3,0.9
	c-0.333,0-0.567-0.133-0.7-0.4l-0.1-0.45c0-0.133,0.1-0.333,0.3-0.6c0.2-0.267,0.3-0.434,0.3-0.5c-0.2-0.367-0.3-0.583-0.3-0.65
	c0-0.6,0.717-1.217,2.15-1.85c1.533-0.7,3.033-0.983,4.5-0.85c1.567,0.367,3.15,1.283,4.75,2.75c0.067-0.033,0.183-0.117,0.35-0.25
	c0.167-0.133,0.367-0.2,0.6-0.2c0.267,0,0.483,0.067,0.65,0.2c0.1,0.067,0.217,0.167,0.35,0.3c0.2-0.5,0.367-0.816,0.5-0.95
	c0.433-0.4,1.233-0.65,2.4-0.75c0.2-0.1,0.65-0.217,1.35-0.35c0.7-0.167,1.133-0.25,1.3-0.25c3.467,0,5.967,2.55,7.5,7.65
	c0,0.733-0.45,1.767-1.35,3.1c-1.033,1.567-1.633,2.633-1.8,3.2c-0.033,0.066-0.05,0.333-0.05,0.8c-0.033,0.3-0.167,0.567-0.4,0.8
	c-0.533,0.633-0.983,1.15-1.35,1.55c-0.5,0.667-0.966,1.217-1.4,1.65c-0.833,0.833-1.566,1.25-2.2,1.25
	c-0.833,0-1.717-0.483-2.65-1.45l-1.2-1.45c-0.934,0-1.55,0.4-1.85,1.2c-0.3,0.8-0.85,1.2-1.65,1.2c-0.5,0-1.133-0.217-1.9-0.65
	c-0.6-0.333-1.083-0.684-1.45-1.05c-0.3,0.2-0.517,0.3-0.65,0.3c-0.434,0-0.8-0.35-1.1-1.05c-0.2-0.733-0.333-1.133-0.4-1.2
	c-0.767-0.267-1.167-0.567-1.2-0.9l-0.2-1.15c0-0.333,0.25-1.133,0.75-2.4c-0.333-0.133-0.534-0.316-0.6-0.55
	c-0.033-0.067-0.05-0.25-0.05-0.55c0-1.267,0.3-2.433,0.9-3.5c0.9-1.6,2.316-2.566,4.25-2.9c-0.733-1.633-1.25-2.45-1.55-2.45
	c-0.333,0-1.033,0.15-2.1,0.45c-1.167,0.333-1.933,0.633-2.3,0.9C163.967,126.8,163.6,127.167,162.9,127.9z"/>
<path fill-rule="evenodd" clip-rule="evenodd" fill="#660000" d="M174.3,123.9c0.267-0.133,0.467-0.2,0.6-0.2
	c0.533,0,0.8,0.267,0.8,0.8c0,0.4-0.367,0.783-1.1,1.15c-0.833,0.367-1.867,0.55-3.1,0.55c-0.533,0-0.8-0.267-0.8-0.8
	s0.15-1,0.45-1.4c0.4-0.6,0.9-0.533,1.5,0.2C173.483,124.133,174.033,124.033,174.3,123.9z"/>
<path fill-rule="evenodd" clip-rule="evenodd" fill="#400000" d="M159.1,126.25v4.1c0,2.1,1.367,4.4,4.1,6.9
	c0.767,0.7,1.716,1.85,2.85,3.45c1.3,1.4,3.233,2.483,5.8,3.25h1.05c0.1-0.067,0.4-0.417,0.9-1.05c0.467-0.6,0.8-0.9,1-0.9
	c0.434,0,0.633,0.233,0.6,0.7c-0.6,1.667-1.6,2.5-3,2.5c-1.867,0-3.933-1.017-6.2-3.05c-2.1-2.233-3.383-3.583-3.85-4.05
	c-1.167-1.167-2.167-2.4-3-3.7c-1.033-1.533-1.55-2.767-1.55-3.7l0.1-2.7c-0.1-0.633-0.133-1.133-0.1-1.5
	C157.867,125.867,158.3,125.783,159.1,126.25z"/>
<path fill-rule="evenodd" clip-rule="evenodd" fill="#400000" d="M160.25,124.7c-1.1,1.466-1.75,2.2-1.95,2.2
	c-0.3,0-0.483-0.1-0.55-0.3l-0.05-0.35c0-0.7,0.583-1.6,1.75-2.7c1.4-1.3,2.917-1.933,4.55-1.9v-0.05h3.1
	c0.566,0.133,1.667,0.4,3.3,0.8c1.467,0.4,2.434,0.833,2.9,1.3c0.434,0.066,0.833,0,1.2-0.2c0.367-0.267,0.667-0.4,0.9-0.4
	c0.434,0,0.667,0.2,0.7,0.6c-0.434,0.8-1.267,1.2-2.5,1.2c-0.233,0-1.2-0.267-2.9-0.8c-1.667-0.533-2.9-0.95-3.7-1.25h-2.75
	C162.883,122.683,161.55,123.3,160.25,124.7z"/>
<path fill-rule="evenodd" clip-rule="evenodd" fill="#400000" d="M173.15,125.25c-0.2,0.433-0.433,0.65-0.7,0.65
	c-0.3,0-0.5-0.1-0.6-0.3l-0.05-0.3c0-0.667,0.267-1.15,0.8-1.45c0.533-0.3,0.8-0.117,0.8,0.55
	C173.4,124.6,173.317,124.883,173.15,125.25z"/>
<path fill-rule="evenodd" clip-rule="evenodd" fill="#400000" d="M175,126.8c-0.067,0.267-0.267,0.4-0.6,0.4
	c-0.4,0-0.633-0.167-0.7-0.5c0.033-0.4,0.033-0.65,0-0.75c-0.034-0.167-0.184-0.367-0.45-0.6c-0.233-0.233-0.35-0.45-0.35-0.65
	c0-0.767,0.35-0.883,1.05-0.35c0.7,0.566,1.05,1.2,1.05,1.9V126.8z"/>
<path fill-rule="evenodd" clip-rule="evenodd" fill="#400000" d="M174,124.5c0-0.767,0.4-0.867,1.2-0.3c0.8,0.533,1.2,0.933,1.2,1.2
	c0,0.4-0.2,0.6-0.6,0.6c-0.4,0-0.816-0.233-1.25-0.7C174.183,124.9,174,124.633,174,124.5z"/>
<path fill-rule="evenodd" clip-rule="evenodd" fill="#400000" d="M175.3,142.3c0.133,0,0.417,0.284,0.85,0.85
	c0.467,0.533,1.2,0.8,2.2,0.8c1.6,0,3.183-0.934,4.75-2.8c0.6-0.7,1.367-1.883,2.3-3.55c0.833-1.533,1.35-2.667,1.55-3.4
	c0.1-0.467,0.15-1.45,0.15-2.95c0-1.633-0.25-2.983-0.75-4.05c-1.133-2.434-3.383-3.65-6.75-3.65c-0.467,0-1.333,0.15-2.6,0.45
	c-1.167,0.267-1.767,0.4-1.8,0.4c-0.467,0-0.7-0.2-0.7-0.6c0-0.5,0.817-0.917,2.45-1.25c1.9-0.4,3.816-0.283,5.75,0.35
	c2.066,0.8,3.45,1.717,4.15,2.75c0.7,1.033,1.15,2,1.35,2.9c0.066,0.434,0.1,1.333,0.1,2.7c0,2.1,0,3.167,0,3.2
	c-0.133,0.667-0.783,1.983-1.95,3.95c-2,3.333-3.533,5.383-4.6,6.15c-0.633,0.434-1.767,0.65-3.4,0.65
	c-1.267,0-2.25-0.317-2.95-0.95c-0.467-0.433-0.7-0.833-0.7-1.2C174.7,142.55,174.9,142.3,175.3,142.3z"/>
<path fill-rule="evenodd" clip-rule="evenodd" fill="#910000" d="M168.65,128.75c-1.066,0.733-1.633,1.133-1.7,1.2
	c-1.167,1.633-1.833,2.45-2,2.45c-0.367,0-0.583-0.333-0.65-1v-1c0-2.133,0.934-3.617,2.8-4.45c1.867-0.833,2.8-0.3,2.8,1.6
	C169.9,127.75,169.483,128.15,168.65,128.75z"/>
<path fill-rule="evenodd" clip-rule="evenodd" fill="#910000" d="M166.5,127.3c0,0.233-0.167,0.45-0.5,0.65
	c-0.4,0.233-0.667,0.683-0.8,1.35c-0.2,0.733-0.3,1.367-0.3,1.9c0,0.167,0.067,0.383,0.2,0.65c0,0.167-0.067,0.433-0.2,0.8
	c-0.167,0.434-0.35,0.65-0.55,0.65c-0.3,0-0.483-0.183-0.55-0.55c0-0.333,0-0.517,0-0.55c0-1.067,0.1-2.034,0.3-2.9
	c0.267-1.233,0.733-2.066,1.4-2.5C166.167,126.367,166.5,126.533,166.5,127.3z"/>
<path fill-rule="evenodd" clip-rule="evenodd" fill="#910000" d="M169,126.2c-0.3,0-0.533,0.05-0.7,0.15
	c-0.167,0.1-0.267,0.15-0.3,0.15c-0.333,0-0.5-0.15-0.5-0.45c0-0.3,0.317-0.533,0.95-0.7c0.667-0.167,1.083-0.067,1.25,0.3
	c0.167,0.267,0.383,0.55,0.65,0.85c0.167,0.233,0.25,0.5,0.25,0.8c0,0.333-0.4,0.717-1.2,1.15c-0.933,0.466-1.533,0.783-1.8,0.95
	l-0.35-0.1l-0.05-0.35c0-0.4,0.2-0.684,0.6-0.85c0.267-0.133,0.9-0.434,1.9-0.9C169.367,126.533,169.133,126.2,169,126.2z"/>
<path fill-rule="evenodd" clip-rule="evenodd" fill="#400000" d="M159.5,130.2c1.967,3.233,3.217,5.233,3.75,6
	c0.5,0.733,1.817,2.117,3.95,4.15c1.033,1.033,1.833,1.683,2.4,1.95c1.2,0.567,2.45,0.867,3.75,0.9c0.833,0,1.25,0.183,1.25,0.55
	c0,0.267-0.283,0.5-0.85,0.7c-0.7,0.233-1.617,0.35-2.75,0.35c-0.9,0-1.483-0.117-1.75-0.35c-0.1-0.233-0.15-0.367-0.15-0.4
	c0-0.167,0.066-0.316,0.2-0.45c-2.167-1.567-4.483-3.833-6.95-6.8c-2.833-3.367-4.25-5.867-4.25-7.5
	C158.1,128.3,158.567,128.6,159.5,130.2z"/>
<path fill-rule="evenodd" clip-rule="evenodd" fill="#400000" d="M175.45,141.95c0.267-0.167,0.667-0.034,1.2,0.4
	c0.167,0.1,0.733,0.283,1.7,0.55c0.967,0.233,1.55,0.417,1.75,0.55c0.6,0,1.25-0.05,1.95-0.15c0.567,0,0.817,0.184,0.75,0.55
	c0,0.333-0.066,0.517-0.2,0.55c-0.233-0.033-0.45-0.05-0.65-0.05l-2.15,0.25c-1.3,0-2.417-0.25-3.35-0.75
	c-0.833-0.434-1.25-0.883-1.25-1.35C175.2,142.233,175.283,142.05,175.45,141.95z"/>
<path fill-rule="evenodd" clip-rule="evenodd" fill="#910000" d="M173.95,127c-0.367,0-0.967-0.35-1.8-1.05
	c-0.8-0.767-1.283-1.2-1.45-1.3c-0.6-0.433-1.434-0.816-2.5-1.15c-0.833-0.233-1.833-0.417-3-0.55c-0.6-0.067-0.9-0.2-0.9-0.4
	c0-0.667,1.667-0.517,5,0.45c3.333,0.933,5,2.017,5,3.25C174.3,126.75,174.183,127,173.95,127z"/>
<path fill-rule="evenodd" clip-rule="evenodd" fill="#910000" d="M184.25,124.4c1.167,0.733,1.983,1.367,2.45,1.9
	c0.433,0.5,0.7,1.784,0.8,3.85c0,0.434-0.133,0.65-0.4,0.65c-0.167,0-0.434-0.417-0.8-1.25c-0.433-1.066-0.85-1.867-1.25-2.4
	c-0.267-0.367-1.133-1.017-2.6-1.95c-0.667-0.434-1.55-0.767-2.65-1c-0.733-0.167-1.1-0.4-1.1-0.7c0-0.167,0.083-0.283,0.25-0.35
	c0.233-0.1,0.767-0.15,1.6-0.15C181.517,123,182.75,123.467,184.25,124.4z"/>
<path fill-rule="evenodd" clip-rule="evenodd" fill="#006600" d="M174.65,123.1l-0.05-0.35c0-1.1,1.733-2.55,5.2-4.35
	c3.7-1.9,6.767-2.533,9.2-1.9c0.267,0.067,0.4,0.2,0.4,0.4c0,0.167-0.45,0.65-1.35,1.45c-1.066,0.933-1.667,1.467-1.8,1.6
	c-0.633,0.7-1.183,1.267-1.65,1.7c-0.867,0.833-1.45,1.25-1.75,1.25c-0.5,0-0.75-0.15-0.75-0.45c0-0.034,0.767-0.767,2.3-2.2
	c1.6-1.5,2.667-2.433,3.2-2.8l-1.45-0.1c-1.467,0-3.15,0.45-5.05,1.35c-1.367,0.667-2.217,1.15-2.55,1.45
	c-1.966,2.033-3.133,3.05-3.5,3.05C174.983,123.2,174.85,123.167,174.65,123.1z"/>
<path fill-rule="evenodd" clip-rule="evenodd" fill="#006600" d="M175,122.65c0-0.4,1.333-0.717,4-0.95c2.667-0.267,4-0.1,4,0.5
	c0,0.267-0.083,0.4-0.25,0.4c-1.067-0.1-1.783-0.15-2.15-0.15c-1.067,0-2.117,0.117-3.15,0.35c-1.034,0.2-1.617,0.3-1.75,0.3
	C175.233,123.1,175,122.95,175,122.65z"/>
<path fill-rule="evenodd" clip-rule="evenodd" fill="#006600" d="M182.3,122.7c-0.3,0-0.65-0.184-1.05-0.55
	c-0.367-0.333-0.55-0.55-0.55-0.65c0-0.5,0.333-0.55,1-0.15c0.667,0.4,1,0.717,1,0.95C182.7,122.567,182.567,122.7,182.3,122.7z"/>
<path fill-rule="evenodd" clip-rule="evenodd" fill="#006600" d="M187.15,118.65l-1.55,1.3c-0.367,0.566-0.733,1.017-1.1,1.35
	c-0.667,0.6-1.583,0.9-2.75,0.9c-0.367,0-0.75-0.05-1.15-0.15c-0.367-0.133-0.9-0.2-1.6-0.2c-0.233,0-0.6,0.066-1.1,0.2
	c-0.5,0.1-0.8,0.15-0.9,0.15c-0.333,0-0.5-0.15-0.5-0.45c0-0.9,1.95-2.1,5.85-3.6c3.9-1.533,5.85-1.85,5.85-0.95
	C188.2,117.567,187.85,118.05,187.15,118.65z"/>
<path fill-rule="evenodd" clip-rule="evenodd" fill="#005100" d="M174.5,122.95c0-0.333,0.5-1.034,1.5-2.1c1-1.1,1.5-1.267,1.5-0.5
	l-2.5,3.05C174.667,123.4,174.5,123.25,174.5,122.95z"/>
<path fill-rule="evenodd" clip-rule="evenodd" fill="#005100" d="M174.65,122.5l-0.05-0.4c0-0.5,0.8-1.283,2.4-2.35
	c1.6-1.1,2.4-1.35,2.4-0.75c0,0.2-0.5,0.683-1.5,1.45l-2.9,2.15L174.65,122.5z"/>
<path fill-rule="evenodd" clip-rule="evenodd" fill="#005100" d="M189.8,116.4c-1.133,2.067-2.117,3.1-2.95,3.1
	c-0.067,0-0.2-0.033-0.4-0.1l-0.05-0.35l0.85-0.7c0.667-0.567,1.15-1.1,1.45-1.6h-1.1c-1.467,0.2-2.583,0.433-3.35,0.7
	c-0.867,0.367-1.667,0.667-2.4,0.9c-2.767,1.167-4.2,1.75-4.3,1.75c-0.367,0-0.55-0.15-0.55-0.45c0-0.333,1.583-1.017,4.75-2.05
	c3-1,4.917-1.55,5.75-1.65l1.9-0.05C189.667,115.967,189.8,116.133,189.8,116.4z"/>
<path fill-rule="evenodd" clip-rule="evenodd" fill="#005100" d="M183.2,123.4c-0.333,0-0.5-0.15-0.5-0.45
	c0-0.067,0.35-0.383,1.05-0.95c0.833-0.667,1.4-1.183,1.7-1.55c0.233-0.3,0.683-0.883,1.35-1.75c0.534-0.6,0.8-0.5,0.8,0.3
	C185.533,121.933,184.067,123.4,183.2,123.4z"/>
<path fill-rule="evenodd" clip-rule="evenodd" fill="#005100" d="M189.5,116.75c0,0.1-0.733,0.5-2.2,1.2c-1.7,0.8-2.833,1.4-3.4,1.8
	c-2.867,2.1-4.517,3.15-4.95,3.15l-0.3-0.05l-0.05-0.25c0-0.133,1.483-1.083,4.45-2.85c3.133-1.867,5.267-2.967,6.4-3.3
	L189.5,116.75z"/>
<path fill-rule="evenodd" clip-rule="evenodd" fill="#005100" d="M180.8,118.75c0,0.167-0.2,0.783-0.6,1.85
	c-0.434,1.1-0.767,1.8-1,2.1c-0.2-0.067-0.3-0.217-0.3-0.45c0-0.433,0.2-1.117,0.6-2.05c0.367-0.9,0.7-1.5,1-1.8
	C180.7,118.567,180.8,118.683,180.8,118.75z"/>
<path fill-rule="evenodd" clip-rule="evenodd" fill="#005100" d="M184.5,117.55c-0.5,1.5-0.85,2.25-1.05,2.25l-0.3-0.05l-0.05-0.3
	c0-0.2,0.15-0.583,0.45-1.15c0.333-0.667,0.633-1.017,0.9-1.05L184.5,117.55z"/>
<path fill-rule="evenodd" clip-rule="evenodd" fill="#005100" d="M185.2,120.6l0.3,0.25c0,0.167-0.033,0.267-0.1,0.3
	c-0.167,0.033-0.75,0.05-1.75,0.05l-1.9-0.05l-0.05-0.25c0-0.1,0.133-0.233,0.4-0.4C182.367,120.5,183.4,120.533,185.2,120.6z"/>
<path fill-rule="evenodd" clip-rule="evenodd" fill="#005100" d="M187.8,118.75c0,0.133-0.05,0.25-0.15,0.35h-1.75l-0.3-0.3
	c0-0.233,0.633-0.333,1.9-0.3L187.8,118.75z"/>
<path fill-rule="evenodd" clip-rule="evenodd" fill="#400000" d="M183.5,122.9c0.467,0.267,0.7,0.5,0.7,0.7l-0.05,0.25l-0.25,0.05
	c-0.8-0.433-1.35-0.683-1.65-0.75h-3.3c-0.1,0.033-0.383,0.05-0.85,0.05c-0.2-0.2-0.3-0.317-0.3-0.35s0.05-0.067,0.15-0.1
	c0.1-0.067,0.15-0.15,0.15-0.25h4.3C182.667,122.5,183.033,122.633,183.5,122.9z"/>
<path fill-rule="evenodd" clip-rule="evenodd" fill="#400000" d="M182.1,123c0.9,0.2,1.5,0.367,1.8,0.5c0.367,0.2,0.6,0.5,0.7,0.9
	c-0.033,0.067-0.133,0.1-0.3,0.1c-1.1-0.5-1.85-0.783-2.25-0.85l-4.15-0.05l-0.3-0.3l0.3-0.3H182.1z"/>
<path fill-rule="evenodd" clip-rule="evenodd" fill="#400000" d="M163.45,122.8l-0.3-0.05l-0.05-0.3c0-0.133,0.117-0.233,0.35-0.3
	c0.733-0.133,1.35-0.283,1.85-0.45h2.6l0.3,0.25c0,0.133-0.1,0.25-0.3,0.35l-2.55,0.05C164.417,122.65,163.783,122.8,163.45,122.8z"
	/>
<path fill-rule="evenodd" clip-rule="evenodd" fill="#713800" d="M171.5,117.7c1.6,0.066,2.95,0.066,4.05,0
	c0.3,0.133,0.45,1.033,0.45,2.7c0,0.233-0.1,0.45-0.3,0.65c-0.233,0.233-0.417,0.6-0.55,1.1c-0.033,0.133-0.033,0.434,0,0.9
	c-0.167,0.434-0.717,0.65-1.65,0.65s-1.567-0.2-1.9-0.6c-0.3-0.367-0.333-1.017-0.1-1.95c-0.2-1.5-0.3-2.45-0.3-2.85
	C171.2,117.933,171.3,117.733,171.5,117.7z M171.8,118.35c0.1,0.566,0.133,1.4,0.1,2.5c0.067,0.967,0.45,1.7,1.15,2.2h1.1l1.25-2.65
	l-0.1-2.15C174.7,118.35,173.533,118.383,171.8,118.35z"/>
<path fill-rule="evenodd" clip-rule="evenodd" fill="#713800" d="M171.6,117.45c0.3-0.1,0.95-0.117,1.95-0.05h2.25
	c0.2,0.033,0.3,0.167,0.3,0.4c0,0.3-0.067,0.8-0.2,1.5c0,0.1-0.066,0.317-0.2,0.65c-0.133,0.333-0.217,0.583-0.25,0.75
	c-0.067,0.367-0.284,0.783-0.65,1.25c-0.066,0.3-0.15,0.533-0.25,0.7c-0.167,0.333-0.433,0.5-0.8,0.5c-0.867,0-1.4-0.2-1.6-0.6
	c-0.1-0.2-0.183-0.85-0.25-1.95l-0.5-2.85C171.4,117.583,171.467,117.483,171.6,117.45z M172.25,118.6
	c-0.033,0.367,0.083,1.033,0.35,2c0.033,0.1,0.05,0.283,0.05,0.55c0.033,0.233,0.1,0.4,0.2,0.5s0.283,0.233,0.55,0.4
	c0.2,0.167,0.267,0.333,0.2,0.5h0.3l0.9-3.3c-0.633-0.033-1.133-0.067-1.5-0.1c-0.667-0.066-1-0.25-1-0.55H172.25z M174.55,118.05
	c-1.267-0.066-1.917-0.083-1.95-0.05c0.6-0.033,1.233,0.033,1.9,0.2L174.55,118.05z M175.4,118.2h0.05v-0.15h-0.3L175.4,118.2z"/>
<path fill-rule="evenodd" clip-rule="evenodd" fill="#713800" d="M173.45,118.7l0.3,0.15c0.067,0,0.15-0.033,0.25-0.1
	c0.7,0,1.05,0.2,1.05,0.6c-0.466,2.3-0.867,3.45-1.2,3.45c-0.2,0-0.45-0.167-0.75-0.5c-0.3-0.3-0.483-0.566-0.55-0.8l-0.2-0.05
	c0.066,0.466-0.033,0.7-0.3,0.7c-0.167,0-0.267-0.133-0.3-0.4v-0.4c0.167-1.2,0.25-1.934,0.25-2.2l-0.1-0.35
	c0-0.133,0.067-0.267,0.2-0.4c0.133-0.167,0.25-0.25,0.35-0.25c0.133-0.033,0.25,0.083,0.35,0.35c0.1,0.267,0.2,0.4,0.3,0.4
	c0.033,0,0.066-0.033,0.1-0.1C173.233,118.733,173.317,118.7,173.45,118.7z"/>
<path fill-rule="evenodd" clip-rule="evenodd" fill="#462300" d="M171.3,117.8c0.034-0.033,0.034-0.083,0-0.15
	c-0.033-0.033-0.05-0.066-0.05-0.1c0-0.167,0.083-0.25,0.25-0.25c1.2,0,1.8-0.033,1.8-0.1h2.85c0.167,0.1,0.25,0.25,0.25,0.45
	l-0.05,2.5c0,0.233-0.083,0.35-0.25,0.35c-0.233,0-0.35-0.267-0.35-0.8c0-0.5,0.033-0.784,0.1-0.85v-1.15l-3.85,0.1
	C171.567,117.8,171.333,117.8,171.3,117.8z"/>
<path fill-rule="evenodd" clip-rule="evenodd" fill="#462300" d="M171.45,123c-0.133,0-0.267-0.833-0.4-2.5s-0.2-2.517-0.2-2.55
	c0-0.267,0.066-0.467,0.2-0.6c0.133-0.167,0.284-0.033,0.45,0.4l0.1,1.3c0,0.534,0.066,1.4,0.2,2.6
	C171.8,122.55,171.683,123,171.45,123z"/>
<path fill-rule="evenodd" clip-rule="evenodd" fill="#462300" d="M171.4,117.85c0.133,0.066,0.283,0.367,0.45,0.9l0.2,1.65
	c0.034,0.867,0.3,1.633,0.8,2.3c0.233,0.333,0.467,0.583,0.7,0.75c0,0.167-0.25,0.267-0.75,0.3c-0.4,0-0.767-0.167-1.1-0.5
	c-0.267-0.3-0.4-0.517-0.4-0.65c0-0.1,0.05-0.167,0.15-0.2l0.25-0.15c-0.034-0.133-0.133-0.75-0.3-1.85
	c-0.133-1.1-0.2-1.783-0.2-2.05C171.2,117.95,171.267,117.783,171.4,117.85z"/>
<path fill-rule="evenodd" clip-rule="evenodd" fill="#824100" d="M175.6,117.5c0.133-0.333,0.267-0.05,0.4,0.85
	c0.067,0.667,0.1,1.183,0.1,1.55c0,0.6-0.083,0.9-0.25,0.9c-0.2,0-0.3-0.367-0.3-1.1c0-0.833-0.017-1.367-0.05-1.6l-1.35,0.25h-2.05
	c-0.533-0.1-0.8-0.25-0.8-0.45c0-0.133,0.117-0.217,0.35-0.25c0.2-0.033,0.95-0.083,2.25-0.15H175.6z"/>
<path fill-rule="evenodd" clip-rule="evenodd" fill="#824100" d="M175.5,117.75c-0.133,0.1-0.25,0.15-0.35,0.15
	c-0.066,0-0.133-0.05-0.2-0.15l-0.05-0.15c0-0.167,0.133-0.283,0.4-0.35c0.233-0.033,0.35,0.05,0.35,0.25
	C175.65,117.567,175.6,117.65,175.5,117.75z"/>
<path fill-rule="evenodd" clip-rule="evenodd" fill="#824100" d="M171.65,118.05c0-0.2,0.067-0.316,0.2-0.35
	c0.167-0.133,0.617-0.217,1.35-0.25h1.3c0.9-0.1,1.35,0.017,1.35,0.35c0,0.167-0.25,0.367-0.75,0.6
	c-0.567,0.233-1.184,0.35-1.85,0.35C172.183,118.75,171.65,118.517,171.65,118.05z M174.75,117.95l0.1-0.05l-0.3,0.05l-2.175,0.15
	c0.189-0.007,0.498,0.043,0.925,0.15C173.867,118.25,174.35,118.15,174.75,117.95z"/>
<path fill-rule="evenodd" clip-rule="evenodd" fill="#824100" d="M174.75,117.9c0-0.367,0.2-0.433,0.6-0.2
	c0.4,0.233,0.6,0.533,0.6,0.9c0,0.333-0.1,0.5-0.3,0.5L174.75,117.9z"/>
<path fill-rule="evenodd" clip-rule="evenodd" fill="#462300" d="M171.3,117.65c-0.267,0-0.4-0.083-0.4-0.25
	c0-0.133,0.117-0.217,0.35-0.25c0.667-0.133,1.067-0.217,1.2-0.25h1.45c1.667-0.566,2.5,0.033,2.5,1.8c0,0.233-0.1,0.35-0.3,0.35
	c-0.167,0-0.25-0.283-0.25-0.85c0-0.6-0.317-0.9-0.95-0.9L171.3,117.65z"/>
<path fill-rule="evenodd" clip-rule="evenodd" fill="#462300" d="M172.15,118.9c-0.1,0-0.283-0.066-0.55-0.2s-0.4-0.233-0.4-0.3
	c0-0.267,0.2-0.35,0.6-0.25c0.4,0.133,0.6,0.3,0.6,0.5C172.4,118.817,172.317,118.9,172.15,118.9z"/>
<path fill-rule="evenodd" clip-rule="evenodd" fill="#462300" d="M171.85,119.3c-0.133,0.267-0.217,0.4-0.25,0.4
	c-0.167,0-0.25-0.15-0.25-0.45c0-0.233,0.117-0.45,0.35-0.65c0.2-0.233,0.3-0.184,0.3,0.15C172,118.85,171.95,119.033,171.85,119.3z
	"/>
</svg>
