<?xml version="1.0" encoding="utf-8"?>
<!-- Generator: Adobe Illustrator 16.0.0, SVG Export Plug-In . SVG Version: 6.00 Build 0)  -->
<!DOCTYPE svg PUBLIC "-//W3C//DTD SVG 1.1//EN" "http://www.w3.org/Graphics/SVG/1.1/DTD/svg11.dtd">
<svg version="1.1" id="Selected_Items" xmlns="http://www.w3.org/2000/svg" xmlns:xlink="http://www.w3.org/1999/xlink" x="0px"
	 y="0px" width="550px" height="400px" viewBox="0 0 550 400" enable-background="new 0 0 550 400" xml:space="preserve">
<path fill-rule="evenodd" clip-rule="evenodd" fill="#3399FF" d="M390.45,115.85c-0.834,0.2-2.033,0.883-3.601,2.05
	c-1.399,1-2.35,1.717-2.85,2.15c-0.967,0.867-1.467,1.633-1.5,2.3c-0.033,0.267-0.233,0.633-0.6,1.1
	c-0.434,0.6-0.684,0.95-0.75,1.05c-0.134,0.2-0.284,0.917-0.45,2.15c-0.066,0.333-0.066,1.167,0,2.5
	c-0.101,1.167-0.533,1.75-1.3,1.75c-0.4,0-0.634-0.217-0.7-0.65c0-0.434,0-0.667,0-0.7c0-1.367,0.2-3.383,0.6-6.05
	c0.101-0.7,0.217-1.233,0.351-1.6c0.066-0.267,0.483-0.683,1.25-1.25c0.033-0.033,0.133-0.283,0.3-0.75
	c0.166-0.367,0.35-0.617,0.55-0.75c0.267-0.2,0.917-0.7,1.95-1.5c4.899-3.167,9.05-4.467,12.45-3.9
	c2.966,0.5,4.449,2.083,4.449,4.75c0,0.967-0.316,2.433-0.949,4.4c-0.134,0.567-0.467,1.267-1,2.1c-0.767,1.267-1.2,2-1.301,2.2
	c-0.8,1.333-1.85,2.683-3.149,4.05c-2.334,2.433-4.483,3.65-6.45,3.65c-1.3,0-2.116-0.1-2.45-0.3c-0.133-0.067-0.2-0.233-0.2-0.5
	c0-0.333,0.184-0.55,0.551-0.65c0.133-0.034,1.083-0.167,2.85-0.4c1.833-0.566,3.517-1.65,5.05-3.25c1.3-1.367,2.2-2.75,2.7-4.15
	c0.566-1.7,1.283-3.35,2.15-4.95c0.366-0.7,0.55-1.733,0.55-3.1c0-0.434-0.334-0.95-1-1.55c-0.767-0.667-1.584-1-2.45-1
	c-0.6,0-1.434,0.083-2.5,0.25C391.866,115.467,391.017,115.65,390.45,115.85z"/>
<path fill-rule="evenodd" clip-rule="evenodd" fill="#3399FF" d="M379.9,130.5c0,0.267-0.084,0.467-0.25,0.6
	c-0.334,0.2-0.983,0.3-1.95,0.3l-4.8-0.25c0.333,0.3,0.783,0.733,1.35,1.3c0.634,0.433,1.684,0.65,3.15,0.65l1.85-0.2
	c0.467,0,0.717,0.25,0.75,0.75c0,0.3-0.083,0.5-0.25,0.6c-0.333,0.167-1.116,0.25-2.35,0.25c-2.233,0-3.884-0.517-4.95-1.55
	c-0.7-0.7-1.05-1.434-1.05-2.2c0-0.7,0.183-1.033,0.55-1c0.467,0,2.383,0.083,5.75,0.25l1.5-0.2
	C379.634,129.8,379.866,130.033,379.9,130.5z"/>
<path fill-rule="evenodd" clip-rule="evenodd" fill="#3399FF" d="M386.5,134.4l-0.2,2.35c0,0.566,0.101,1.25,0.3,2.05
	c0.2,0.8,0.301,1.45,0.301,1.95c0,0.3-0.034,0.5-0.101,0.6c-0.2,0.233-0.616,0.35-1.25,0.35c-3.2,0-5.283-0.867-6.25-2.6
	c-0.399-0.7-0.6-1.867-0.6-3.5c0-1.167,0.267-1.9,0.8-2.2c0.533-0.333,0.8-0.167,0.8,0.5l-0.2,1.75c0,1.267,0.217,2.25,0.65,2.95
	c0.767,1.2,2.217,1.767,4.35,1.7h0.25c0.034,0,0.051-0.05,0.051-0.15c0-0.033-0.084-0.417-0.25-1.15
	c-0.167-0.733-0.25-1.467-0.25-2.2s0.033-1.333,0.1-1.8c0.134-1.067,0.4-1.6,0.8-1.6C386.4,133.4,386.634,133.733,386.5,134.4z"/>
<path fill-rule="evenodd" clip-rule="evenodd" fill="#3399FF" d="M394.5,125.9c0.467,0,0.7,0.317,0.7,0.95
	c0,0.167-0.066,0.433-0.2,0.8c0,0.167,0.066,0.35,0.2,0.55c0,0.3-0.65,1.05-1.95,2.25c-1.066,1-1.866,1.683-2.4,2.05
	c-0.833,0.533-2.199,1.133-4.1,1.8c-0.866,0.3-1.3,0.9-1.3,1.8c0,0.167,0.116,1.183,0.35,3.05c0,0.167,0.066,0.434,0.2,0.8
	c0,0.366-0.083,0.6-0.25,0.7s-0.533,0.15-1.1,0.15l-1.801-0.5c-0.199,0.133-0.383,0.2-0.55,0.2c-0.3,0-0.684-0.25-1.149-0.75
	c-0.534-0.533-0.834-1.067-0.9-1.6c-0.167-0.933-0.25-1.816-0.25-2.65c0-0.367-0.233-0.817-0.7-1.35l-0.55-0.65
	c-0.7-0.767-1.15-1.067-1.35-0.9c-0.5,0.433-1.101,0.65-1.801,0.65c-0.433-0.033-1.066-0.333-1.899-0.9
	c-0.8-0.534-1.2-0.883-1.2-1.05c0-0.466,0.25-0.7,0.75-0.7l2.75,0.55c0.134,0,0.5-0.1,1.1-0.3c0.634-0.233,1.334-0.367,2.101-0.4
	c0.833-2.9,1.467-5.067,1.899-6.5c0.801-2.567,1.75-3.85,2.851-3.85c0.1,0,0.616-0.434,1.55-1.3c0.866-0.633,1.3-0.417,1.3,0.65
	l-0.25,1.25c0.434,0.1,0.7,0.233,0.8,0.4c0.034,0.033,0.051,0.183,0.051,0.45c0,0.133-0.134,0.6-0.4,1.4
	c0.167,0.066,0.283,0.1,0.35,0.1c0.134-0.033,0.217-0.05,0.25-0.05c0.434,0,0.667,0.267,0.7,0.8c0,0.3-0.416,0.867-1.25,1.7
	c-0.833,0.833-1.25,1.566-1.25,2.2c0,0.267,0.101,0.583,0.3,0.95c0.334,0.567,0.801,0.85,1.4,0.85c2.366,0,4.083-0.6,5.15-1.8
	C393.684,126.5,394.3,125.9,394.5,125.9z"/>
<path fill-rule="evenodd" clip-rule="evenodd" fill="#3399FF" d="M379.8,133.6c-1.467,0-2.483-0.1-3.05-0.3
	c-0.434-0.167-0.65-0.433-0.65-0.8c0-0.5,0.75-0.684,2.25-0.55c1.5,0.1,2.25,0.417,2.25,0.95
	C380.6,133.367,380.333,133.6,379.8,133.6z"/>
<path fill-rule="evenodd" clip-rule="evenodd" fill="#3399FF" d="M396.6,122.3c0,0.467-0.25,0.7-0.75,0.7
	c-0.199,0-0.466-0.1-0.8-0.3c-0.3-0.2-0.467-0.317-0.5-0.35l-0.05,0.05v1c1.333-0.4,2,0.317,2,2.15c0,0.833-0.033,1.383-0.1,1.65
	c-0.2,0.8-0.7,1.2-1.5,1.2c-0.134,0-0.467-0.217-1-0.65c-0.5-0.467-0.784-0.7-0.851-0.7c-0.366,0.3-0.767,0.617-1.2,0.95
	c-0.833,0.6-1.767,0.9-2.8,0.9c-0.866,0-1.483-0.167-1.85-0.5c-0.2-0.2-0.3-0.4-0.3-0.6c0-0.2,0.35-0.716,1.05-1.55
	c0.7-0.8,1.05-1.217,1.05-1.25s-0.316-0.3-0.95-0.8c-0.633-0.534-0.95-0.9-0.95-1.1c0-0.467,0.25-0.7,0.75-0.7
	c0.167,0,1.784,0.717,4.851,2.15c0-0.5,0.066-1,0.2-1.5c0.1-0.5,0.149-0.833,0.149-1c-0.166-0.566-0.25-0.933-0.25-1.1
	c0-1.233,0.634-1.384,1.9-0.45C395.333,120.967,395.967,121.566,396.6,122.3z M394.65,125.15c0.1,0.1,0.183,0.15,0.25,0.15
	l0.05-0.45h-0.101L394.65,125.15z"/>
<path fill-rule="evenodd" clip-rule="evenodd" fill="#3399FF" d="M396.85,122.65c-0.366,0.767-0.716,1.15-1.05,1.15
	c-0.467,0-0.7-0.283-0.7-0.85c0-0.167,0.134-0.45,0.4-0.85s0.4-0.65,0.4-0.75c0-0.067-0.351-0.45-1.051-1.15
	c-0.699-0.7-1.05-1.4-1.05-2.1c0-0.9,0.233-1.35,0.7-1.35c0.467-0.033,0.7,0.417,0.7,1.35c0,0.333,0.35,0.767,1.05,1.3
	c0.7,0.567,1.05,1.184,1.05,1.85C397.3,121.517,397.15,121.983,396.85,122.65z"/>
<path fill-rule="evenodd" clip-rule="evenodd" fill="#3399FF" d="M394.1,116c0.434,0.066,0.784,0.316,1.051,0.75
	c0.166,0.3,0.25,0.55,0.25,0.75c0,0.533-0.233,0.8-0.7,0.8c-0.267,0-0.483-0.133-0.65-0.4c-0.133-0.2-0.184-0.35-0.149-0.45H393.1
	c-0.233,0.566-0.383,0.917-0.449,1.05c-0.101,0.167-0.617,0.25-1.551,0.25l-0.6,0.05l-0.15,0.05c0.7,0.367,1.351,0.633,1.95,0.8
	c0.267,0.133,0.4,0.467,0.4,1c0,0.567-0.101,1.083-0.3,1.55l0.399,0.05c0.167,0,0.667-0.15,1.5-0.45c0.8,0,1.167,0.383,1.101,1.15
	c0,0.267-0.101,0.566-0.301,0.9c0.233-0.2,0.784-0.95,1.65-2.25c0.767-1.2,1.217-1.8,1.35-1.8c0.733,0,0.917,0.6,0.551,1.8
	c0,0.1,0.066,0.216,0.199,0.35c0.101,0.133,0.15,0.233,0.15,0.3c0,0.3-0.566,0.983-1.7,2.05c-1.233,1.133-2.166,1.7-2.8,1.7
	c-0.467,0-0.833-0.083-1.1-0.25c-0.233-0.167-0.367-0.267-0.4-0.3c-1.1-0.067-2.1-0.434-3-1.1c-0.934-0.7-1.634-1.067-2.1-1.1
	c0.166,0.7-0.067,1.05-0.7,1.05c-0.4,0-0.75-0.35-1.05-1.05l-0.351-1.05c0-0.4,0.134-0.667,0.4-0.8v-0.6c-1.5,0.667-2.367,1-2.601,1
	c-0.333,0-0.566-0.117-0.699-0.35c-0.067-0.134-0.101-0.267-0.101-0.4c0-0.233,0.717-0.933,2.15-2.1c1.5-1.233,2.517-1.85,3.05-1.85
	c0.233,0,0.434,0.083,0.6,0.25c0.134,0.133,0.267,0.2,0.4,0.2c0.033,0,0.884-0.1,2.55-0.3c0.101-0.2,0.15-0.5,0.15-0.9
	C391.9,116.05,392.7,115.933,394.1,116z"/>
<path fill-rule="evenodd" clip-rule="evenodd" fill="#3399FF" d="M395.5,124.4c-0.634,0-1.083-0.15-1.35-0.45
	c-0.167-0.2-0.25-0.384-0.25-0.55c0-0.533,0.383-0.767,1.149-0.7c0.767,0.066,1.15,0.383,1.15,0.95
	C396.2,124.15,395.967,124.4,395.5,124.4z"/>
<path fill-rule="evenodd" clip-rule="evenodd" fill="#3399FF" d="M392.9,115.1c0.166-0.067,0.283-0.2,0.35-0.4
	c0.033-0.2,0.167-0.35,0.4-0.45c0.3-0.133,0.566-0.184,0.8-0.15c0.133,0.033,0.383,0.133,0.75,0.3c0.267,0,0.783,0.15,1.55,0.45
	c0.8,0.3,1.3,0.566,1.5,0.8c0.233,0.233,0.483,0.817,0.75,1.75c0.267,0.9,0.4,1.55,0.4,1.95c0,1.433-0.351,2.15-1.051,2.15
	c-0.8,0-1.333-0.283-1.6-0.85c-0.4-0.9-0.733-1.45-1-1.65c-0.134,0.167-0.233,0.3-0.3,0.4c-0.134,0.133-0.283,0.2-0.45,0.2
	c-0.533,0-0.816-0.333-0.85-1c0.1-0.767,0.149-1.25,0.149-1.45c-3.533,0.7-5.533,1.05-6,1.05c-0.3,0-0.5-0.117-0.6-0.35
	c-0.066-0.133-0.101-0.267-0.101-0.4c0-0.267,0.667-0.833,2-1.7C391.066,114.816,392.167,114.6,392.9,115.1z"/>
<path fill-rule="evenodd" clip-rule="evenodd" fill="#3399FF" d="M386.2,115.4c0.934,0.267,1.399,0.533,1.399,0.8
	c0,0.667-1.033,0.983-3.1,0.95c0.066,0.133,0.1,0.25,0.1,0.35c0,0.333-0.133,0.65-0.399,0.95c-0.4,0.333-0.75,0.633-1.05,0.9
	c-0.233,0.2-0.5,0.533-0.801,1c-0.233,0.4-0.466,0.633-0.699,0.7c-0.534,0.167-0.851,0.733-0.95,1.7c-0.101,0.9-0.367,1.35-0.8,1.35
	c-0.5,0-0.867-0.55-1.101-1.65l-0.2-1.65c0-3.466,1.5-5.367,4.5-5.7C384.134,115,385.167,115.1,386.2,115.4z"/>
<path fill-rule="evenodd" clip-rule="evenodd" fill="#006CD9" d="M388.55,125.9c-0.633,0.8-0.95,1.434-0.95,1.9
	c0,0.2,0,0.317,0,0.35c0.034,0.1,0.167,0.2,0.4,0.3h0.8c0.434-0.1,1.283-0.434,2.55-1c1.167-0.5,1.851-0.75,2.051-0.75
	c0.466,0,0.699,0.167,0.699,0.5c0,0.4-0.583,0.933-1.75,1.6c-1.333,0.733-2.683,1.1-4.05,1.1c-1.166,0-1.95-0.367-2.35-1.1
	l-0.25-1.1c0-1,0.633-2.067,1.899-3.2c1.267-1.167,1.9-1.167,1.9,0C389.5,124.633,389.184,125.1,388.55,125.9z"/>
<path fill-rule="evenodd" clip-rule="evenodd" fill="#006CD9" d="M391.8,128.6c-0.233,0-0.383-0.1-0.45-0.3l-0.05-0.3
	c0-0.367,0.417-0.8,1.25-1.3c0.834-0.5,1.25-0.434,1.25,0.2C393.8,126.967,393.134,127.533,391.8,128.6z"/>
<path fill-rule="evenodd" clip-rule="evenodd" fill="#006CD9" d="M393.05,122.9c-0.3,0-0.483-0.383-0.55-1.15
	c0-0.733,0-1.117,0-1.15c0-1.034,0.033-1.833,0.1-2.4c0.067-0.6,0.334-1,0.801-1.2c0.466-0.2,0.699,0.066,0.699,0.8
	C393.8,121.2,393.45,122.9,393.05,122.9z"/>
<path fill-rule="evenodd" clip-rule="evenodd" fill="#006CD9" d="M396.7,121.25c-0.033,0.233-0.184,0.35-0.45,0.35
	c-0.233,0-1.1-0.534-2.6-1.6c-0.534-0.367-1.284-0.6-2.25-0.7c-0.733-0.1-1.101-0.267-1.101-0.5c0-0.833,1.066-0.917,3.2-0.25
	c2.134,0.667,3.2,1.4,3.2,2.2V121.25z"/>
<path fill-rule="evenodd" clip-rule="evenodd" fill="#006CD9" d="M393.5,119.9c-1.233,0-2.134-0.133-2.7-0.4
	c-0.399-0.2-0.6-0.4-0.6-0.6c0-0.533,0.649-0.7,1.95-0.5c1.3,0.233,1.949,0.567,1.949,1C394.1,119.733,393.9,119.9,393.5,119.9z"/>
<path fill-rule="evenodd" clip-rule="evenodd" fill="#006CD9" d="M387.4,115.85c-0.5,0.367-1.134,0.917-1.9,1.65
	c-1.5,1.467-2.884,3.183-4.15,5.15c-1.1,1.7-1.767,2.9-2,3.6c-0.233,0.633-0.35,1.667-0.35,3.1c0,0.6-0.134,0.983-0.4,1.15
	l-0.35-0.1l-0.15-2.3c0-1.267,1-3.483,3-6.65c1.034-1.667,2.351-3.2,3.95-4.6C386.616,115.483,387.4,115.15,387.4,115.85z"/>
<path fill-rule="evenodd" clip-rule="evenodd" fill="#006CD9" d="M397.4,113.6c1.166,0.466,2.066,1.083,2.699,1.85
	c0.534,0.667,0.801,1.3,0.801,1.9c0,3.367-1.101,6.517-3.301,9.45c-1.033,2.034-2,3.583-2.899,4.65c-1.601,1.9-4.25,3.25-7.95,4.05
	c-0.033,0.066-0.134,0.1-0.3,0.1c-0.2,0-0.367-0.083-0.5-0.25c-0.101-0.133-0.15-0.25-0.15-0.35s0.717-0.333,2.15-0.7
	c1.7-0.433,2.816-0.783,3.35-1.05c0.533-0.3,1.017-0.667,1.45-1.1c0.267-0.267,0.634-0.65,1.1-1.15c0.534-0.533,1.084-1.3,1.65-2.3
	c0.7-1.267,1.134-2.017,1.3-2.25c2.167-3.167,3.25-6.217,3.25-9.15c0-0.5-0.399-1.133-1.2-1.9c-1.066-1.033-2.366-1.55-3.899-1.55
	c-2.434,0-4.417,0.367-5.95,1.1c-1.1,0.7-1.783,1.05-2.05,1.05c-0.134,0-0.351-0.067-0.65-0.2c-0.3-0.167-0.85-0.25-1.649-0.25
	c-1.867,0-3.284,0.55-4.25,1.65c-0.601,0.7-0.9,1.283-0.9,1.75c0,0.167,0.066,1.083,0.2,2.75c0,0.466,0.1,1.333,0.3,2.6
	c0,0.4-0.116,0.6-0.35,0.6c-0.067,0-0.2-0.033-0.4-0.1c-0.366-2-0.55-3.917-0.55-5.75c0-0.733,0.3-1.5,0.899-2.3
	c0.907-1.239,2.308-1.915,4.2-2.025c0.195-0.017,0.396-0.025,0.601-0.025c-0.034,0-0.167,0.033-0.4,0.1
	c0.311,0.071,1.011,0.071,2.1,0l0.301,0.1c0.1,0.033,0.283,0.1,0.55,0.2c0.033,0,0.45-0.2,1.25-0.6
	c0.934-0.467,1.616-0.767,2.05-0.9c0.5-0.167,1.65-0.284,3.45-0.35C395.733,113.15,396.967,113.267,397.4,113.6z"/>
<path fill-rule="evenodd" clip-rule="evenodd" fill="#006CD9" d="M386.4,134.8c0.733,4.034,1.1,6.083,1.1,6.15v0.6
	c-0.2,0.3-0.816,0.45-1.85,0.45c-1.767,0-3.15-0.267-4.15-0.8c-0.967-0.5-1.75-1.384-2.35-2.65c-0.301-0.633-0.483-1.3-0.551-2
	c-0.033-0.767-0.066-1.367-0.1-1.8c-2.9,0.2-4.983-0.333-6.25-1.6c-0.767-0.8-1.15-1.65-1.15-2.55c0-0.5,0.067-0.817,0.2-0.95
	c0.367-0.4,1.3-0.45,2.8-0.15h2.7c0.066,0.033,0.7,0.167,1.9,0.4c0.267,0.067,0.399,0.167,0.399,0.3c0,0.267-0.133,0.4-0.399,0.4
	l-2-0.25h-4.8v0.7c0.133,0.2,0.3,0.5,0.5,0.9c0.233,0.4,0.55,0.75,0.949,1.05c0.567,0.433,1.384,0.683,2.45,0.75
	c2.134,0.1,3.267,0.167,3.4,0.2c0.2,0.033,0.3,0.15,0.3,0.35l-0.2,1.6c0,1.067,0.3,2.083,0.9,3.05c0.967,1.566,2.467,2.3,4.5,2.2
	h1.7c0.199-0.2,0.3-0.333,0.3-0.4c0-0.133-0.117-0.8-0.351-2c-0.233-1.233-0.35-2.167-0.35-2.8c-0.033-0.2-0.033-0.4,0-0.6
	C386.033,134.983,386.167,134.8,386.4,134.8z"/>
<path fill-rule="evenodd" clip-rule="evenodd" fill="#006CD9" d="M386,116.4c0,0.267-0.35,0.4-1.05,0.4
	c-1.566,0-2.351-0.25-2.351-0.75c0-0.333,0.184-0.466,0.551-0.4c1.5,0.233,2.316,0.35,2.449,0.35
	C385.866,116.066,386,116.2,386,116.4z"/>
<path fill-rule="evenodd" clip-rule="evenodd" fill="#006CD9" d="M384.3,117.7c0,0.267-0.416,0.4-1.25,0.4
	c-1.533,0-2.483-0.083-2.85-0.25c-0.134-0.067-0.2-0.2-0.2-0.4c0-0.267,0.167-0.4,0.5-0.4s1.467,0.083,3.4,0.25
	C384.167,117.367,384.3,117.5,384.3,117.7z"/>
<path fill-rule="evenodd" clip-rule="evenodd" fill="#006CD9" d="M383.05,120c-0.1,0.066-0.166,0.1-0.2,0.1
	c-1.433,0-2.449-0.15-3.05-0.45c-0.333-0.167-0.5-0.333-0.5-0.5c0-0.267,0.65-0.316,1.95-0.15s1.95,0.4,1.95,0.7
	C383.2,119.8,383.15,119.9,383.05,120z"/>
<path fill-rule="evenodd" clip-rule="evenodd" fill="#006CD9" d="M381.05,122c-0.566,0-1.017-0.083-1.35-0.25
	c-0.267-0.133-0.4-0.283-0.4-0.45c0-0.433,0.4-0.533,1.2-0.3c0.8,0.2,1.2,0.4,1.2,0.6C381.7,121.867,381.483,122,381.05,122z"/>
<path fill-rule="evenodd" clip-rule="evenodd" fill="#006CD9" d="M380.6,133.55l-0.199,1.55c0,0.6,0.333,1.4,1,2.4
	c0.767,1.2,1.6,1.783,2.5,1.75h2.449c0.167-0.167,0.284-0.25,0.351-0.25c0.333,0,0.566,0.233,0.7,0.7c0,0.1-0.084,0.233-0.25,0.4
	H383.8c-1.467-0.367-2.45-0.833-2.95-1.4c-0.233-0.267-0.5-0.867-0.8-1.8c-0.233-0.7-0.35-1.3-0.35-1.8
	c0.033-0.534,0.05-1.034,0.05-1.5c0-0.133-1.184-0.4-3.55-0.8c-2.4-0.4-3.601-1.25-3.601-2.55c0-0.733,0.25-0.8,0.75-0.2
	c0.267,0.3,0.667,0.784,1.2,1.45c1,0.3,2.584,0.65,4.75,1.05C380.167,132.717,380.6,133.05,380.6,133.55z"/>
<path fill-rule="evenodd" clip-rule="evenodd" fill="#006CD9" d="M373.4,132.1c-0.301,0.333-0.584,0.5-0.851,0.5
	c-0.066,0-0.2-0.034-0.399-0.1l-0.051-0.4l0.851-0.9c0.566-0.467,0.85-0.4,0.85,0.2C373.8,131.566,373.667,131.8,373.4,132.1z"/>
<path fill-rule="evenodd" clip-rule="evenodd" fill="#006CD9" d="M375.35,133.3c-0.333,0.2-0.616,0.4-0.85,0.6l-0.35-0.1
	l-0.051-0.35c0-0.2,0.25-0.5,0.75-0.9c0.5-0.4,0.75-0.316,0.75,0.25C375.6,133.033,375.517,133.2,375.35,133.3z"/>
<path fill-rule="evenodd" clip-rule="evenodd" fill="#006CD9" d="M377.4,134.6l-0.351-0.1l-0.05-0.35c0-0.167,0.283-0.533,0.85-1.1
	c0.567-0.6,0.851-0.533,0.851,0.2C378.7,133.75,378.267,134.2,377.4,134.6z"/>
<path fill-rule="evenodd" clip-rule="evenodd" fill="#006CD9" d="M380.2,136.7c-0.3,0.366-0.566,0.6-0.8,0.7l-0.351-0.1l-0.05-0.35
	c0-0.2,0.267-0.567,0.8-1.1c0.533-0.534,0.8-0.5,0.8,0.1C380.6,136.083,380.467,136.333,380.2,136.7z"/>
<path fill-rule="evenodd" clip-rule="evenodd" fill="#006CD9" d="M380.05,134.65c-0.2,0.367-0.399,0.55-0.6,0.55
	c-0.367,0-0.55-0.167-0.55-0.5c0-0.167,0.233-0.5,0.699-1c0.467-0.5,0.7-0.417,0.7,0.25C380.3,134.117,380.217,134.35,380.05,134.65
	z"/>
<path fill-rule="evenodd" clip-rule="evenodd" fill="#006CD9" d="M381.35,139.45c-0.3,0.433-0.5,0.65-0.6,0.65
	c-0.366,0-0.55-0.15-0.55-0.45c0-0.133,0.267-0.5,0.8-1.1c0.533-0.566,0.8-0.533,0.8,0.1C381.8,138.75,381.65,139.017,381.35,139.45
	z"/>
<path fill-rule="evenodd" clip-rule="evenodd" fill="#006CD9" d="M383.5,140.5c-0.167,0.533-0.35,0.8-0.55,0.8
	c-0.066,0-0.2-0.033-0.4-0.1l-0.05-0.35c0-0.267,0.2-0.733,0.6-1.4c0.4-0.7,0.601-0.667,0.601,0.1
	C383.7,139.75,383.634,140.066,383.5,140.5z"/>
<path fill-rule="evenodd" clip-rule="evenodd" fill="#006CD9" d="M385.8,141.8l-0.35-0.1l-0.05-1c0-0.8,0.133-1.2,0.399-1.2
	s0.4,0.4,0.4,1.2C386.2,141.267,386.066,141.633,385.8,141.8z"/>
<path fill-rule="evenodd" clip-rule="evenodd" fill="#006CD9" d="M393.35,122.35c-0.133,0.433-0.3,0.65-0.5,0.65
	c-0.233,0-0.383-0.167-0.449-0.5c0-0.333,0-0.517,0-0.55c0-0.8,0.183-1.25,0.55-1.35c0.366-0.1,0.55,0.216,0.55,0.95
	C393.5,121.75,393.45,122.017,393.35,122.35z"/>
</svg>
