<?xml version="1.0" encoding="utf-8"?>
<!-- Generator: Adobe Illustrator 16.0.0, SVG Export Plug-In . SVG Version: 6.00 Build 0)  -->
<!DOCTYPE svg PUBLIC "-//W3C//DTD SVG 1.1//EN" "http://www.w3.org/Graphics/SVG/1.1/DTD/svg11.dtd">
<svg version="1.1" id="Selected_Items" xmlns="http://www.w3.org/2000/svg" xmlns:xlink="http://www.w3.org/1999/xlink" x="0px"
	 y="0px" width="550px" height="400px" viewBox="0 0 550 400" enable-background="new 0 0 550 400" xml:space="preserve">
<path fill-rule="evenodd" clip-rule="evenodd" fill="#666666" d="M245,160.4c0,0.3-0.167,0.5-0.5,0.6s-1.316,0.233-2.95,0.4
	c-0.2,0-0.5,0.133-0.9,0.4c-0.4,0.3-0.633,0.534-0.7,0.7c0.066,0.033,1.133,0.3,3.2,0.8c1.7,0.4,2.55,0.85,2.55,1.35
	c0,0.2-0.083,0.383-0.25,0.55c-0.167,0.167-0.35,0.25-0.55,0.25c-1.8,0-3.367-0.333-4.7-1c-1.233-0.633-1.85-1.284-1.85-1.95
	c0-1.267,1.117-2.15,3.35-2.65C243.9,159.35,245,159.533,245,160.4z"/>
<path fill-rule="evenodd" clip-rule="evenodd" fill="#666666" d="M264.9,164.65c-2.667,0.467-4.767,0.9-6.3,1.3h-4.3l-0.1-0.05
	h-2.55l-1.05-0.25h-3.7c-0.633-0.167-1.55-0.316-2.75-0.45c-0.367-0.067-0.55-0.267-0.55-0.6c0-0.633,0.3-0.95,0.9-0.95l0.75-0.05
	c0.633,0.033,1.3,0.167,2,0.4l3.5,0.05l1.1,0.2l2.55,0.05l0.3,0.1h3.5c1.2-0.233,2.55-0.566,4.05-1c1.3-0.367,2.617-0.667,3.95-0.9
	c-0.233-0.233-0.833-0.533-1.8-0.9c-1.3-0.533-2.55-0.8-3.75-0.8l-0.75,0.1h-7.45l-1.8,0.25h-7c-0.3,0-0.517-0.133-0.65-0.4
	l-0.15-0.45c0-0.867,1.167-1.133,3.5-0.8h4c0.133-0.033,0.767-0.1,1.9-0.2l7.35-0.05c5.433,0.133,8.15,1.217,8.15,3.25
	C267.75,163.5,266.8,164.217,264.9,164.65z"/>
<path fill-rule="evenodd" clip-rule="evenodd" fill="#666666" d="M242.75,168.65c0,0.533-0.267,0.8-0.8,0.8
	c-0.4,0-1.1-1.05-2.1-3.15l-1.4-3.15c0-0.566,0.35-0.85,1.05-0.85C240.5,162.3,241.583,164.417,242.75,168.65z"/>
<path fill-rule="evenodd" clip-rule="evenodd" fill="#666666" d="M263.05,170.15c-0.566,0-0.85-0.3-0.85-0.9
	c1.4-1.933,2.316-3.367,2.75-4.3c0.267-0.7,0.783-1.517,1.55-2.45c0.967-1.233,1.45-1.117,1.45,0.35
	C265.75,167.717,264.117,170.15,263.05,170.15z"/>
<path fill-rule="evenodd" clip-rule="evenodd" fill="#666666" d="M263.8,168.15c0.534,0,0.833,0.267,0.9,0.8
	c0,0.566-1.067,1.017-3.2,1.35c-1.733,0.3-4.733,0.6-9,0.9h-2.75c-3.3-0.5-5.467-0.9-6.5-1.2c-1.533-0.4-2.3-1.15-2.3-2.25
	c0-0.933,0.35-1.15,1.05-0.65c0.367,0.267,0.883,0.7,1.55,1.3c0.167,0.033,0.884,0.25,2.15,0.65c1.633,0.4,3.466,0.6,5.5,0.6
	c1.633,0,4.133-0.25,7.5-0.75C260.4,168.667,262.1,168.417,263.8,168.15z"/>
<path fill-rule="evenodd" clip-rule="evenodd" fill="#999999" d="M243.3,167.95c0,0.533-0.183,0.8-0.55,0.8
	c-0.233,0-0.467-0.3-0.7-0.9c-0.167-0.667-0.3-1.117-0.4-1.35c-0.7-1.133-1.05-1.933-1.05-2.4c0-0.367,0.2-0.55,0.6-0.55
	C241.633,163.55,242.333,165.017,243.3,167.95z"/>
<path fill-rule="evenodd" clip-rule="evenodd" fill="#999999" d="M248.8,166.35c-0.167,0.2-0.383,0.3-0.65,0.3l-0.35-0.15
	c-1.133,0.1-2.633-0.117-4.5-0.65c-1.933-0.567-2.9-1.117-2.9-1.65c0-0.667,0.383-0.817,1.15-0.45c0.4,0.167,1.017,0.5,1.85,1
	c0.733,0.133,1.633,0.3,2.7,0.5l2.4,0.2c0.3,0,0.45,0.167,0.45,0.5C248.95,166.083,248.9,166.217,248.8,166.35z"/>
<path fill-rule="evenodd" clip-rule="evenodd" fill="#999999" d="M257.85,165.05c0.433,0,0.65,0.184,0.65,0.55
	c0,0.433-0.333,0.65-1,0.65h-2.6c-0.333,0-0.583,0.05-0.75,0.15h-3.45c-0.1-0.033-0.35-0.066-0.75-0.1c-0.4,0-0.634-0.033-0.7-0.1
	h-2.6c-2.667-0.434-4-0.967-4-1.6c0-0.367,0.2-0.55,0.6-0.55c0.333,0,1.55,0.35,3.65,1.05h2.6c0.167,0.033,0.684,0.1,1.55,0.2
	l2.85-0.05l0.85-0.1h2.55L257.85,165.05z"/>
<path fill-rule="evenodd" clip-rule="evenodd" fill="#999999" d="M259.05,165.15c0.8-0.066,2.067-0.283,3.8-0.65
	c0.433-0.033,0.983-0.233,1.65-0.6c0.633-0.367,1.05-0.55,1.25-0.55c0.367,0,0.55,0.183,0.55,0.55c0,0.233-0.616,1.133-1.85,2.7
	c-1.1,1.633-1.833,2.45-2.2,2.45c-0.2,0-0.35-0.083-0.45-0.25l-0.1-0.3c0-0.1,0.3-0.55,0.9-1.35c0.667-0.933,1.066-1.5,1.2-1.7
	l-4.4,0.8h-2.05c-0.3-0.1-0.45-0.283-0.45-0.55c0-0.4,0.184-0.583,0.55-0.55H259.05z"/>
<path fill-rule="evenodd" clip-rule="evenodd" fill="#999999" d="M262.5,168.5c0,0.367-0.25,0.6-0.75,0.7
	c-0.8,0.1-1.483,0.2-2.05,0.3c-2.3,0.233-4.2,0.45-5.7,0.65h-3.05c-0.067,0-1.817-0.25-5.25-0.75c-2.333-0.333-3.5-0.8-3.5-1.4
	c0-0.467,0.316-0.6,0.95-0.4c1.3,0.433,2.067,0.667,2.3,0.7l5.85,0.75l2.45-0.05c0.9-0.067,3.6-0.417,8.1-1.05
	C262.283,167.95,262.5,168.133,262.5,168.5z"/>
<path fill-rule="evenodd" clip-rule="evenodd" fill="#999999" d="M257.3,168.85l-0.45,0.1h-2.3c-0.466,0.233-1.35,0.35-2.65,0.35
	c-0.333,0-0.583-0.033-0.75-0.1c-0.167-0.1-0.35-0.15-0.55-0.15c-1.1,0.3-1.95,0.45-2.55,0.45c-0.5,0-0.883-0.133-1.15-0.4
	c-0.167-0.267-0.283-0.4-0.35-0.4c-0.3,0.133-0.517,0.2-0.65,0.2c-0.233,0-0.433-0.083-0.6-0.25c-0.167-0.2-0.316-0.3-0.45-0.3
	c-0.067,0-0.184,0.066-0.35,0.2c-0.133,0.133-0.3,0.2-0.5,0.2c-0.333,0-0.65-0.2-0.95-0.6c-0.267-0.367-0.4-0.683-0.4-0.95
	c0-0.167-0.117-0.434-0.35-0.8c-0.233-0.4-0.35-0.667-0.35-0.8c0-0.1,0.05-0.2,0.15-0.3c0.1-0.133,0.233-0.2,0.4-0.2l0.7,0.3
	c0.5,0.167,0.85,0.25,1.05,0.25c0.533-0.066,1.017-0.017,1.45,0.15c0.533,0.167,0.816,0.25,0.85,0.25c0.167,0,0.6-0.066,1.3-0.2
	c0.433,0,1.216,0.117,2.35,0.35c0.1,0,0.233-0.034,0.4-0.1c0.133-0.067,0.566-0.083,1.3-0.05l1.05-0.1c0.233,0,0.6,0.083,1.1,0.25
	c0.7,0,2.134-0.133,4.3-0.4c0.066,0,0.466-0.083,1.2-0.25c0.434-0.1,0.917-0.15,1.45-0.15c0.367,0,0.6,0.033,0.7,0.1
	c0.066,0.067,0.15,0.1,0.25,0.1c0.833,0,1.333-0.117,1.5-0.35c0.167-0.267,0.35-0.4,0.55-0.4c0.367,0,0.55,0.183,0.55,0.55
	c0,0.333-0.483,0.983-1.45,1.95c-1.2,0.867-2.133,1.35-2.8,1.45L257.3,168.85z"/>
<path fill-rule="evenodd" clip-rule="evenodd" fill="#999999" d="M264.75,160.8c0.967,0.333,1.45,0.817,1.45,1.45
	c0,0.567-1.35,1.133-4.05,1.7c-2.9,0.533-4.583,0.85-5.05,0.95h-2.5l-0.5-0.15h-1.35l-0.2-0.05h-4.6
	c-2.667-0.367-4.434-0.684-5.3-0.95c-0.533-0.133-0.933-0.233-1.2-0.3c-0.434-0.133-0.717-0.267-0.85-0.4
	c-0.034-0.033-0.233-0.216-0.6-0.55c-0.167-0.133-0.25-0.3-0.25-0.5c0-0.5,0.55-0.833,1.65-1c0.667-0.133,1.867-0.317,3.6-0.55h1.55
	c0.5-0.034,0.917-0.083,1.25-0.15l1.45-0.05c0.767-0.033,1.7-0.15,2.8-0.35h1.45l0.1,0.05h7.2
	C262.767,160.283,264.083,160.567,264.75,160.8z"/>
<path fill-rule="evenodd" clip-rule="evenodd" fill="#666666" d="M262.6,164.4c-3.067,0.533-4.717,0.817-4.95,0.85h-2.05l-0.1-0.1
	l-1.3,0.05c-1.1,0.066-1.75,0.167-1.95,0.3h-4.85c-1.4-0.233-2.75-0.517-4.05-0.85c-2.567-0.6-3.85-1.1-3.85-1.5
	c0-0.267,0.133-0.4,0.4-0.4c0.167,0,1.333,0.4,3.5,1.2c0.1,0.033,1.534,0.283,4.3,0.75h4.3c0.133-0.1,0.816-0.217,2.05-0.35h1.65
	l0.25,0.1h1.5c0.866-0.233,2.866-0.583,6-1.05c0.6-0.167,1.233-0.383,1.9-0.65c1.133-0.6,1.7-0.65,1.7-0.15
	C267.05,163.167,265.566,163.767,262.6,164.4z"/>
<path fill-rule="evenodd" clip-rule="evenodd" fill="#666666" d="M262.7,163.55c0,0.233-0.1,0.35-0.3,0.35c-0.7,0-1.933-0.1-3.7-0.3
	c-1.967-0.233-3.317-0.367-4.05-0.4h-4.1l-3.5,0.55c-0.133,0-0.566,0.117-1.3,0.35c-0.7,0.2-1.133,0.3-1.3,0.3
	c-0.134,0-0.217-0.05-0.25-0.15l-0.05-0.15c0-0.533,2.133-1.05,6.4-1.55h4.15c0.866,0.133,2.716,0.284,5.55,0.45
	C261.883,163.067,262.7,163.25,262.7,163.55z"/>
</svg>
