<?xml version="1.0" encoding="utf-8"?>
<!-- Generator: Adobe Illustrator 16.0.0, SVG Export Plug-In . SVG Version: 6.00 Build 0)  -->
<!DOCTYPE svg PUBLIC "-//W3C//DTD SVG 1.1//EN" "http://www.w3.org/Graphics/SVG/1.1/DTD/svg11.dtd">
<svg version="1.1" id="Selected_Items" xmlns="http://www.w3.org/2000/svg" xmlns:xlink="http://www.w3.org/1999/xlink" x="0px"
	 y="0px" width="550px" height="400px" viewBox="0 0 550 400" enable-background="new 0 0 550 400" xml:space="preserve">
<path fill-rule="evenodd" clip-rule="evenodd" fill="#8C6900" d="M371.9,181.05c0-0.933,0.517-1.933,1.55-3
	c1.434-1.533,3.434-2.3,6-2.3c2,0,3.633,0.933,4.899,2.8c0.634,0.934,1.067,1.917,1.301,2.95c0,0.8-0.601,1.733-1.801,2.8
	c-1.5,1.333-3.316,2-5.449,2c-2.4,0-4.184-0.75-5.351-2.25C372.283,183.083,371.9,182.083,371.9,181.05z M373.15,181.05
	c0,0.867,0.383,1.684,1.149,2.45c1,1,2.367,1.5,4.101,1.5c0.933,0,1.683-0.1,2.25-0.3c0.033-0.034,0.399-0.217,1.1-0.55
	c-0.1-0.133-0.15-0.283-0.15-0.45c0-0.3,0.467-0.617,1.4-0.95c0.934-0.3,1.4-0.717,1.4-1.25c0-0.667-0.517-1.567-1.551-2.7
	c-1.267-1.4-2.649-2-4.149-1.8c-1.566,0-2.934,0.533-4.101,1.6C373.634,179.467,373.15,180.283,373.15,181.05z"/>
<path fill-rule="evenodd" clip-rule="evenodd" fill="#8C6900" d="M393.05,160.95c2.167,0.3,3.851,1.133,5.05,2.5
	c0.967,1.033,1.45,2.1,1.45,3.2c0,0.667-1.85,3.333-5.55,8c-0.533,0.6-1.983,2.033-4.35,4.3c-2.334,2.233-3.534,3.35-3.601,3.35
	c-0.3,0-0.5-0.1-0.6-0.3c-0.033-0.067-0.05-0.183-0.05-0.35c0-0.6,1-1.783,3-3.55c2.666-2.367,4.133-3.7,4.399-4
	c0.767-0.9,1.816-2.25,3.15-4.05c1.566-2.066,2.35-3.216,2.35-3.45c0-0.833-0.517-1.7-1.55-2.6c-1.333-1.2-3.1-1.8-5.3-1.8
	c-1.634,0-3.05,0.583-4.25,1.75c-0.066,0.066-0.584,0.733-1.55,2l-3.4,3.95c-1.033,1.2-2.583,2.817-4.65,4.85
	c-2.066,2.033-3.183,3.05-3.35,3.05c-0.3,0-0.5-0.1-0.6-0.3c-0.034-0.067-0.051-0.183-0.051-0.35c0-0.333,1.134-1.617,3.4-3.85
	c1.2-1.2,2.717-2.7,4.55-4.5c0.867-0.933,2.4-2.683,4.601-5.25c1.899-2.033,3.216-2.9,3.949-2.6H393.05z"/>
<path fill-rule="evenodd" clip-rule="evenodd" fill="#8C6900" d="M394.7,160c0.866-0.833,1.783-1.25,2.75-1.25
	c1.8,0,2.7,0.7,2.7,2.1c-0.567,2.167-1.483,3.25-2.75,3.25c-0.4,0-0.601-0.233-0.601-0.7c0-0.233,0.351-0.617,1.05-1.15
	c0.7-0.533,1.051-1,1.051-1.4c0-0.2-0.084-0.383-0.25-0.55c-0.2-0.2-0.45-0.3-0.75-0.3c-0.967,0-1.784,0.35-2.45,1.05
	c-0.7,0.7-1.101,1.05-1.2,1.05c-0.3,0-0.5-0.1-0.6-0.3c-0.034-0.066-0.051-0.183-0.051-0.35C393.6,161.15,393.967,160.667,394.7,160
	z"/>
<path fill-rule="evenodd" clip-rule="evenodd" fill="#8C6900" d="M381.25,180.9c0,1.267-0.8,2.667-2.4,4.2
	c-0.199,0.167-1.05,1.033-2.55,2.6c-0.934,0.933-1.566,1.4-1.899,1.4c-0.4,0-0.601-0.233-0.601-0.7c0-0.267,1.033-1.367,3.101-3.3
	c2.066-1.934,3.1-3.35,3.1-4.25c0-0.1-0.134-0.417-0.4-0.95h-1c-1.033,0.533-1.649,0.8-1.85,0.8c-0.3,0-0.5-0.1-0.6-0.3
	c-0.034-0.066-0.051-0.183-0.051-0.35c0-0.233,0.301-0.517,0.9-0.85c0.667-0.367,1.384-0.55,2.15-0.55c1,0,1.649,0.367,1.949,1.1
	C381.267,180.117,381.316,180.5,381.25,180.9z"/>
<path fill-rule="evenodd" clip-rule="evenodd" fill="#8C6900" d="M371.6,186.7c0,0.2,0.233,0.583,0.7,1.15
	c0.5,0.633,0.95,0.95,1.351,0.95c0.066,0,0.216-0.15,0.449-0.45c0.233-0.333,0.467-0.5,0.7-0.5c0.434,0,0.65,0.217,0.65,0.65
	c0,0.2-0.15,0.5-0.45,0.9c-0.366,0.467-0.783,0.7-1.25,0.7c-0.967,0-1.816-0.483-2.55-1.45c-0.601-0.8-0.9-1.45-0.9-1.95
	c0-0.6,0.334-1.25,1-1.95c0.9-0.8,1.601-1.483,2.101-2.05c1.5-1.8,2.283-2.733,2.35-2.8c0.934-0.9,1.4-0.8,1.4,0.3
	c0,0.3-0.917,1.417-2.75,3.35C372.533,185.483,371.6,186.533,371.6,186.7z"/>
<path fill-rule="evenodd" clip-rule="evenodd" fill="#CA9800" d="M380,180.25c0.134,0.233,0.184,0.483,0.15,0.75
	c0,1-1.117,2.683-3.351,5.05c-1.133,1.2-2.267,2.284-3.399,3.25c-0.5,0-0.983-0.4-1.45-1.2c-0.367-0.8-0.55-1.217-0.55-1.25
	c0-0.333,0.866-1.567,2.6-3.7c1.934-2.4,3.483-3.6,4.65-3.6C379.316,179.55,379.767,179.783,380,180.25z"/>
<path fill-rule="evenodd" clip-rule="evenodd" fill="#CA9800" d="M398.6,162c-0.433,0.633-0.899,0.95-1.399,0.95
	c-0.2,0-0.65-0.25-1.351-0.75l-1-0.75c0-0.967,0.717-1.567,2.15-1.8c1.4-0.2,2.1,0.2,2.1,1.2C399.1,161.117,398.934,161.5,398.6,162
	z"/>
<path fill-rule="evenodd" clip-rule="evenodd" fill="#CA9800" d="M373.45,182.7c-0.233,0-0.351-0.15-0.351-0.45
	c0-0.433,0.784-1.167,2.351-2.2c0.399-0.466,0.7-0.833,0.899-1.1c0.434-0.434,1.034-0.7,1.801-0.8h1.449
	c1.367,0.567,2.051,1.467,2.051,2.7c0,0.333-0.167,0.883-0.5,1.65c-0.267,0.567-0.483,0.983-0.65,1.25l-0.05,0.05
	c0.133-0.033,0.733-0.233,1.8-0.6c0.3,0,0.45,0.117,0.45,0.35c-1.4,1.067-2.233,1.6-2.5,1.6L379.85,185
	c-0.333,0.233-0.566,0.35-0.699,0.35c-0.233,0-0.351-0.133-0.351-0.4c1.4-2.1,2.101-3.467,2.101-4.1c0-0.4-0.134-0.783-0.4-1.15
	c-0.4-0.534-0.967-0.8-1.7-0.8c-0.934,0-1.649,0.267-2.149,0.8c-0.267,0.267-0.534,0.6-0.801,1c-0.399,0.2-0.833,0.533-1.3,1
	C373.983,182.367,373.616,182.7,373.45,182.7z"/>
<path fill-rule="evenodd" clip-rule="evenodd" fill="#CA9800" d="M384.3,181c0.2,0,0.316,0.133,0.351,0.4c0,0.4-0.167,0.833-0.5,1.3
	c-0.034,0.066-0.317,0.417-0.851,1.05c-0.399,0.4-1.083,0.8-2.05,1.2c-0.833,0.367-1.35,0.55-1.55,0.55c-0.267,0-0.4-0.15-0.4-0.45
	c0-0.2,0.101-0.333,0.3-0.4c0.434-0.133,0.733-0.25,0.9-0.35c-0.1-0.1-0.15-0.233-0.15-0.4c0-0.2,0.134-0.617,0.4-1.25
	c0.267-0.667,0.483-1,0.65-1c0.199,0,0.333,0.1,0.399,0.3l0.25-0.05c0.267,0,0.4,0.117,0.4,0.35l-0.101,0.35l-0.05,0.05
	c0.634-0.233,1.05-0.483,1.25-0.75c0.101-0.333,0.184-0.55,0.25-0.65C383.833,181.083,384,181,384.3,181z"/>
<path fill-rule="evenodd" clip-rule="evenodd" fill="#CA9800" d="M373.85,181.2c-0.233,0.8-0.416,1.2-0.55,1.2
	c-0.2,0-0.316-0.1-0.35-0.3c0-0.233,0-0.367,0-0.4c0-2.7,1.85-4.4,5.55-5.1h1.45c2,0.633,3.25,1.367,3.75,2.2
	c0.033,0.067,0.333,0.95,0.899,2.65c0,0.066-0.033,0.167-0.1,0.3c-0.1,0.133-0.2,0.2-0.3,0.2c-0.267,0-0.45-0.167-0.55-0.5
	c-0.067-0.4-0.117-0.633-0.15-0.7l-0.6-1.15l0.149-0.35c0-0.267-0.5-0.65-1.5-1.15c-1.033-0.5-1.833-0.75-2.399-0.75
	c-1.801,0-3.334,0.717-4.601,2.15C374.316,179.733,374.083,180.3,373.85,181.2z"/>
<path fill-rule="evenodd" clip-rule="evenodd" fill="#CA9800" d="M373.35,180.5c0-0.233,0.317-0.617,0.95-1.15
	c0.533-0.434,0.884-0.7,1.05-0.8c0.467-0.466,0.917-0.733,1.351-0.8c0.2-0.033,0.517-0.15,0.95-0.35l1.449-0.1l0.25-0.1h0.5
	c0.367,0,0.667,0.066,0.9,0.2c0.134,0.1,0.267,0.2,0.4,0.3l1,0.4c0.533,0.333,0.916,0.667,1.149,1c0.267,0.4,0.4,0.833,0.4,1.3
	c-0.033,0.367,0.033,0.583,0.2,0.65c0.199,0.1,0.3,0.267,0.3,0.5c0,0.167-0.3,0.534-0.9,1.1c-0.666,0.6-1.217,0.9-1.649,0.9
	c-0.301,0-0.483-0.1-0.551-0.3l-0.05-0.3c0.167-0.633,0.25-1.1,0.25-1.4c0-0.7-0.05-1.2-0.149-1.5c-0.034-0.133-0.267-0.6-0.7-1.4
	c-0.3,0.167-0.55,0.25-0.75,0.25c-0.233,0-0.417-0.033-0.55-0.1c-0.067-0.1-0.117-0.15-0.15-0.15l-0.35,0.1l-0.5-0.05l-0.45,0.3
	c-0.3,0.167-0.617,0.25-0.95,0.25c-0.1,0-0.55,0.367-1.35,1.1c-0.767,0.7-1.184,1.05-1.25,1.05L373.35,180.5z"/>
<path fill-rule="evenodd" clip-rule="evenodd" fill="#CA9800" d="M375.05,180.4c0,0.067-0.166,0.25-0.5,0.55
	c-0.366,0.3-0.6,0.45-0.7,0.45c-0.233,0-0.35-0.133-0.35-0.4c0-0.1,0.15-0.283,0.45-0.55c0.3-0.267,0.55-0.4,0.75-0.4
	C374.934,180.05,375.05,180.167,375.05,180.4z"/>
<path fill-rule="evenodd" clip-rule="evenodd" fill="#CA9800" d="M381.9,175.6c0.533,0.167,0.916,0.383,1.149,0.65
	c0.066,0.1,0.316,0.3,0.75,0.6c0.367,0.333,0.55,0.583,0.55,0.75c0,0.3-0.149,0.45-0.449,0.45c-0.134,0-0.367-0.167-0.7-0.5
	c-0.434-0.433-0.667-0.667-0.7-0.7c-0.467-0.367-1.3-0.65-2.5-0.85h-1.45c-1.533,0.367-2.399,0.55-2.6,0.55
	c-0.267,0-0.4-0.133-0.4-0.4c0-0.333,0.967-0.633,2.9-0.9h1.85C381.267,175.483,381.8,175.6,381.9,175.6z"/>
<path fill-rule="evenodd" clip-rule="evenodd" fill="#CA9800" d="M385.15,167.35c0,0.167-1.417,1.667-4.25,4.5
	c-0.733,0.833-1.45,1.617-2.15,2.35c-1.366,1.433-2.283,2.15-2.75,2.15c-0.233,0-0.35-0.133-0.35-0.4c0-0.067,0.35-0.367,1.05-0.9
	c0.8-0.667,1.316-1.133,1.55-1.4c0.733-0.933,1.417-1.683,2.05-2.25c0.367-0.367,1.15-1.25,2.351-2.65
	c1.1-1.233,1.816-1.85,2.149-1.85C385.033,166.9,385.15,167.05,385.15,167.35z"/>
<path fill-rule="evenodd" clip-rule="evenodd" fill="#CA9800" d="M392.65,161.85c2.5,0.533,3.966,1.167,4.399,1.9
	c0.134,0.233,0.434,0.633,0.9,1.2c0.399,0.566,0.6,1.05,0.6,1.45c0,0.434-0.467,1.383-1.399,2.85c-0.967,1.5-1.65,2.25-2.051,2.25
	c-0.233,0-0.35-0.133-0.35-0.4c0-0.033,0.517-0.717,1.55-2.05c1-1.367,1.5-2.25,1.5-2.65c0-0.333-0.5-1.1-1.5-2.3
	c-0.399-0.333-0.95-0.65-1.649-0.95c-0.934-0.367-1.884-0.55-2.851-0.55c-1.866,0-3.55,0.867-5.05,2.6
	c-1.134,1.7-1.816,2.55-2.05,2.55s-0.351-0.15-0.351-0.45c0-0.2,0.267-0.7,0.801-1.5c0.533-0.767,0.933-1.267,1.199-1.5
	c2-1.933,3.584-2.75,4.75-2.45H392.65z"/>
<path fill-rule="evenodd" clip-rule="evenodd" fill="#CA9800" d="M392.1,162.35h1.5c1.5,0.2,2.634,0.733,3.4,1.6
	c0.634,0.767,0.95,1.7,0.95,2.8c0,0.6-1,1.967-3,4.1c-0.5,0.533-1.101,1.083-1.8,1.65c-1.334,1.067-2.483,1.6-3.45,1.6
	c-0.601,0-1.134-0.067-1.601-0.2c-0.433-0.133-0.833-0.2-1.199-0.2c-0.467-0.034-0.884-0.167-1.25-0.4
	c-0.4-0.233-0.667-0.367-0.801-0.4c-0.6,1.434-0.899,2.283-0.899,2.55c0,0.167,0.25,0.55,0.75,1.15c0.467,0.6,0.7,1.133,0.7,1.6
	c0,0.4-0.167,0.6-0.5,0.6c-0.534,0-0.917-0.283-1.15-0.85c-0.167-0.6-0.3-0.934-0.4-1c-0.933-0.733-1.533-1.184-1.8-1.35
	c-0.3-0.167-0.95-0.25-1.95-0.25l-0.649,0.3c-0.134,0-0.283-0.083-0.45-0.25c-0.134,0.2-0.366,0.3-0.7,0.3
	c-0.233,0-0.399-0.083-0.5-0.25c-0.066-0.1-0.1-0.2-0.1-0.3c0-0.333,0.116-0.533,0.35-0.6c0.467-0.167,0.834-0.383,1.101-0.65
	l1.5-1.55c0.466-0.6,1.333-1.567,2.6-2.9c0.167-0.2,0.634-0.7,1.4-1.5c0.633-0.667,1.033-1.133,1.199-1.4
	c0.067-0.267,0.367-0.716,0.9-1.35c0.667-0.833,1.25-1.25,1.75-1.25c0.167,0,0.583-0.367,1.25-1.1c0.134-0.133,0.6-0.25,1.4-0.35
	C391.083,162.467,391.566,162.417,392.1,162.35z"/>
<path fill-rule="evenodd" clip-rule="evenodd" fill="#CA9800" d="M394.05,173c-0.1,0.4-0.283,0.75-0.55,1.05
	c-0.1,0.133-0.45,0.434-1.05,0.9c-2.733,2.333-4.134,3.5-4.2,3.5c-0.167,0-0.3-0.083-0.4-0.25c-0.066-0.133-0.1-0.233-0.1-0.3
	c0-0.167,0.217-0.433,0.65-0.8c0.399-0.367,0.6-0.65,0.6-0.85s0.283-0.5,0.85-0.9c0.267-0.2,0.634-0.45,1.101-0.75
	c0.566-0.434,1.184-1.1,1.85-2c0.033-0.033,0.533-0.667,1.5-1.9c0.967-1,1.45-0.883,1.45,0.35c0,0.2-0.283,0.534-0.85,1
	C394.366,172.517,394.083,172.833,394.05,173z"/>
<path fill-rule="evenodd" clip-rule="evenodd" fill="#CA9800" d="M385.45,179c0,0.333-0.184,0.5-0.55,0.5
	c-0.434,0-0.65-0.333-0.65-1c0-0.267,0.017-0.417,0.05-0.45c0.066-0.167,0.233-0.25,0.5-0.25C385.1,177.8,385.316,178.2,385.45,179z
	"/>
<path fill-rule="evenodd" clip-rule="evenodd" fill="#CA9800" d="M385.65,181.4c-0.067,0-0.267-0.35-0.601-1.05
	c-0.333-0.7-0.5-1.1-0.5-1.2c0-0.267,0.101-0.4,0.3-0.4c0.101,0,0.4,0.5,0.9,1.5c2.1-2.467,3.15-3.25,3.15-2.35
	C386.934,180.233,385.85,181.4,385.65,181.4z"/>
<path fill-rule="evenodd" clip-rule="evenodd" fill="#CA9800" d="M386.4,173.35c0.199-0.2,0.366-0.3,0.5-0.3l0.449,0.25l0.4-0.65
	c0.333-0.467,0.65-0.7,0.95-0.7c0.633,0,0.833,0.583,0.6,1.75c0.101-0.1,0.217-0.3,0.351-0.6c0.166-0.267,0.383-0.4,0.649-0.4
	c0.334,0,0.5,0.216,0.5,0.65v0.05c0.134-0.133,0.351-0.3,0.65-0.5c0.267-0.2,0.467-0.383,0.6-0.55c0.2-0.367,0.45-0.533,0.75-0.5
	c0.267,0.033,0.4,0.2,0.4,0.5c0,0.4-1.217,1.8-3.65,4.2c-0.033,0.034-0.633,0.75-1.8,2.15c-0.6,0.466-0.934,0.816-1,1.05
	c-0.066,0.167-0.15,0.383-0.25,0.65c-0.1,0.2-0.283,0.3-0.55,0.3c-0.2,0-0.4-0.233-0.601-0.7c-0.166-0.367-0.25-0.617-0.25-0.75
	s0.034-0.233,0.101-0.3v-0.4c-0.4,0.133-0.783-0.483-1.15-1.85c-0.267-1.1-0.399-1.967-0.399-2.6c0-0.367,0.017-0.6,0.05-0.7
	c0.1-0.233,0.383-0.316,0.85-0.25c0.033-0.2,0.084-0.367,0.15-0.5c0.133-0.3,0.333-0.45,0.6-0.45
	C385.767,172.2,386.134,172.583,386.4,173.35z"/>
<path fill-rule="evenodd" clip-rule="evenodd" fill="#8C6900" d="M374.55,177c0,0.033-0.366,0.6-1.1,1.7
	c-0.5,0.9-0.851,1.35-1.05,1.35c-0.2,0-0.301-0.117-0.301-0.35c0-0.2,0.317-0.75,0.95-1.65c0.634-0.9,1.017-1.35,1.15-1.35
	C374.4,176.7,374.517,176.8,374.55,177z"/>
<path fill-rule="evenodd" clip-rule="evenodd" fill="#8C6900" d="M385.25,182.1c-0.267,0.467-0.517,0.7-0.75,0.7
	c-0.134,0-0.217-0.05-0.25-0.15l-0.05-0.15c0-0.1,0.083-0.25,0.25-0.45c0.166-0.2,0.25-0.4,0.25-0.6l-0.2-1.65l-0.25,0.05
	c-0.333,0-0.6-0.25-0.8-0.75c-0.233-0.6-0.417-1-0.55-1.2c-0.2-0.3-0.584-0.566-1.15-0.8c-0.634-0.233-1.283-0.333-1.95-0.3h-1.45
	l-2.5,0.45c-0.133,0-0.233-0.05-0.3-0.15l-0.05-0.15c0-0.3,0.917-0.567,2.75-0.8h1.8l0.45,0.1c1.467,0.1,2.7,0.733,3.7,1.9
	c0.899,1,1.35,2.033,1.35,3.1C385.55,181.417,385.45,181.7,385.25,182.1z"/>
<path fill-rule="evenodd" clip-rule="evenodd" fill="#8C6900" d="M386.55,181.5c0,0.1-0.267,0.433-0.8,1s-0.85,0.85-0.95,0.85
	c-0.2,0-0.3-0.117-0.3-0.35c0-0.133,0.25-0.467,0.75-1c0.5-0.567,0.833-0.85,1-0.85C386.45,181.15,386.55,181.267,386.55,181.5z"/>
<path fill-rule="evenodd" clip-rule="evenodd" fill="#8C6900" d="M373.8,183.3c-0.133,0-0.217-0.05-0.25-0.15L373.5,183
	c0-0.167,0.267-0.567,0.8-1.2c0.5-0.6,0.834-0.95,1-1.05c0.267-0.267,0.8-0.633,1.601-1.1l1.149-0.5l0.3-0.05h0.45
	c0.601,0,1.101,0.25,1.5,0.75c0.3,0.367,0.45,0.7,0.45,1c-0.6,1.9-1.05,2.85-1.35,2.85c-0.2,0-0.301-0.117-0.301-0.35
	c0-0.1,0.184-0.483,0.551-1.15c0.333-0.667,0.5-1.117,0.5-1.35c0-0.167-0.15-0.383-0.45-0.65c-0.334-0.3-0.667-0.45-1-0.45
	c-0.9,0-1.934,0.533-3.101,1.6c-0.5,0.333-0.833,0.65-1,0.95C374.333,182.967,374.066,183.3,373.8,183.3z"/>
<path fill-rule="evenodd" clip-rule="evenodd" fill="#CA9800" d="M389.55,163.75l-1.649,1.35c-0.667,0-1-0.25-1-0.75
	c0-0.2,0.149-0.434,0.449-0.7c0.334-0.333,0.75-0.5,1.25-0.5C389.267,163.15,389.583,163.35,389.55,163.75z"/>
<path fill-rule="evenodd" clip-rule="evenodd" fill="#CA9800" d="M383.2,177.1c-0.367,0-1.033-0.267-2-0.8
	c-0.934-0.533-1.4-0.867-1.4-1c0-0.633,0.684-0.683,2.05-0.15c1.334,0.533,2,0.95,2,1.25C383.85,176.867,383.634,177.1,383.2,177.1z
	"/>
</svg>
