<?xml version="1.0" encoding="utf-8"?>
<!-- Generator: Adobe Illustrator 16.0.0, SVG Export Plug-In . SVG Version: 6.00 Build 0)  -->
<!DOCTYPE svg PUBLIC "-//W3C//DTD SVG 1.1//EN" "http://www.w3.org/Graphics/SVG/1.1/DTD/svg11.dtd">
<svg version="1.1" id="Selected_Items" xmlns="http://www.w3.org/2000/svg" xmlns:xlink="http://www.w3.org/1999/xlink" x="0px"
	 y="0px" width="550px" height="400px" viewBox="0 0 550 400" enable-background="new 0 0 550 400" xml:space="preserve">
<g>
	<path fill-rule="evenodd" clip-rule="evenodd" fill="#B9FFFF" d="M186.7,189.55c0,0.067-0.333,0.817-1,2.25
		c-0.733,1.534-1.2,2.617-1.4,3.25c-0.2,0.667-0.55,2.467-1.05,5.4c-0.167,0.833-0.934,1.717-2.3,2.649c-1.733,1-3,1.767-3.8,2.301
		c-0.566,0.366-1.65,1.383-3.25,3.05c-1.5,1.533-2.283,2.3-2.35,2.3c-0.133,0-0.566-0.35-1.3-1.05l-1.1-1.05
		c-0.133,0-1.816,0.633-5.05,1.899c-0.767,0-1.333-0.649-1.7-1.95c-0.233-1.333-0.35-2.017-0.35-2.05c0-0.633,0.217-1.25,0.65-1.85
		c0.433-0.634,0.65-1.5,0.65-2.601c0-0.5-0.067-0.983-0.2-1.449c-0.133-0.467-0.2-1.067-0.2-1.8c0-0.633,0.116-1.533,0.35-2.7
		c0.3-1.633,0.684-2.45,1.15-2.45c0.066,0,0.517,0.617,1.35,1.85c0.934,1.233,1.617,1.85,2.05,1.85c0.033,0,1.316-0.667,3.85-2
		c2.733-1.433,4.6-2.367,5.6-2.8c0.667-0.3,2.483-1.133,5.45-2.5C185.383,189.033,186.7,188.85,186.7,189.55z M182.9,195.5
		c0.467-1.8,1.017-3.333,1.65-4.6c-1.667,0.5-3.316,1.133-4.95,1.9c-2.567,1.167-4.1,1.85-4.6,2.05c-1.033,0.333-2.4,1.1-4.1,2.3
		c-0.833,0.4-1.433,0.717-1.8,0.95c-0.034,0.066-0.034,0.3,0,0.7c-0.034,0.367-0.25,0.55-0.65,0.55c-0.233,0-0.833-0.383-1.8-1.15
		c-0.9-0.733-1.583-1.367-2.05-1.9c-0.267,0.4-0.4,1.233-0.4,2.5c0,0.534,0.066,1.067,0.2,1.601c0.133,0.5,0.2,1.05,0.2,1.649
		c0,0.733-0.217,1.65-0.65,2.75c-0.434,1.101-0.65,1.684-0.65,1.75c0,0.3,0.083,0.767,0.25,1.4c0.2,0.767,0.417,1.149,0.65,1.149
		c3.333-1.267,5.05-1.899,5.15-1.899c0.466,0,1.183,0.616,2.15,1.85c0.033-0.033,0.75-0.783,2.15-2.25c0.967-1,1.867-1.783,2.7-2.35
		c0.566-0.4,1.683-1.134,3.35-2.2c1.4-0.967,2.15-1.684,2.25-2.15C182.45,197.533,182.767,196,182.9,195.5z"/>
	<path fill-rule="evenodd" clip-rule="evenodd" fill="#E6FFFF" fill-opacity="0.498" d="M182.9,195.5
		c-0.133,0.5-0.45,2.033-0.95,4.6c-0.1,0.467-0.85,1.184-2.25,2.15c-1.667,1.066-2.784,1.8-3.35,2.2
		c-0.833,0.566-1.733,1.35-2.7,2.35c-1.4,1.467-2.117,2.217-2.15,2.25c-0.967-1.233-1.684-1.85-2.15-1.85
		c-0.1,0-1.817,0.633-5.15,1.899c-0.233,0-0.45-0.383-0.65-1.149c-0.167-0.634-0.25-1.101-0.25-1.4c0-0.066,0.217-0.649,0.65-1.75
		c0.433-1.1,0.65-2.017,0.65-2.75c0-0.6-0.067-1.149-0.2-1.649c-0.133-0.534-0.2-1.067-0.2-1.601c0-1.267,0.133-2.1,0.4-2.5
		c0.466,0.534,1.15,1.167,2.05,1.9c0.967,0.767,1.567,1.15,1.8,1.15c0.4,0,0.616-0.184,0.65-0.55c-0.034-0.4-0.034-0.633,0-0.7
		c0.367-0.233,0.966-0.55,1.8-0.95c1.7-1.2,3.067-1.967,4.1-2.3c0.5-0.2,2.033-0.883,4.6-2.05c1.633-0.767,3.283-1.4,4.95-1.9
		C183.917,192.167,183.367,193.7,182.9,195.5z"/>
</g>
<path fill-rule="evenodd" clip-rule="evenodd" fill="#E6FFFF" fill-opacity="0.498" d="M185,190.75c0.067,0.033,0.1,0.133,0.1,0.3
	c0,0.233-0.133,0.633-0.4,1.2c-0.333,0.6-0.517,1-0.55,1.2c-0.167,0.6-0.333,1.45-0.5,2.55c-0.066,0.2-0.15,0.6-0.25,1.2
	c-0.1,0.566-0.2,0.966-0.3,1.2s-0.3,0.6-0.6,1.1c-0.267,0.5-0.433,0.917-0.5,1.25c-0.1,0.434-0.433,0.85-1,1.25
	c-0.2,0.134-0.75,0.434-1.65,0.9c-0.5,0.233-1.033,0.583-1.6,1.05c-0.6,0.533-1.05,0.899-1.35,1.1c-0.6,0.5-1.066,0.816-1.4,0.95
	c-0.233,0.066-0.583,0.45-1.05,1.15c-0.133,0.166-0.567,0.583-1.3,1.25c-0.733,0.633-1.133,0.949-1.2,0.949
	c-0.2,0-0.5-0.216-0.9-0.649c-0.433-0.434-0.7-0.8-0.8-1.101c-1.367,0.301-2.3,0.551-2.8,0.75c-1.3,0.567-2.2,0.851-2.7,0.851
	c-0.8,0-1.2-0.617-1.2-1.851c0-0.8,0.217-1.783,0.65-2.949c0.433-1.167,0.65-1.784,0.65-1.851c0-0.2-0.067-0.6-0.2-1.2
	c-0.3-0.3-0.45-0.683-0.45-1.149l0.05-2.65c0-1.3,0.35-1.95,1.05-1.95c0.3,0,0.417,0.316,0.35,0.95l3.7,2.35h0.05
	c-0.333-0.566-0.167-1.05,0.5-1.45c0.4-0.233,1.017-0.55,1.85-0.95c0.133-0.133,0.433-0.283,0.9-0.45c0.567-0.2,0.967-0.367,1.2-0.5
	c1-0.633,1.65-0.983,1.95-1.05c0.5-0.133,1.2-0.483,2.1-1.05c0.9-0.534,1.633-0.883,2.2-1.05c0.3-0.1,1.117-0.433,2.45-1
	c1.233-0.5,2.017-0.75,2.35-0.75C184.7,190.65,184.9,190.683,185,190.75z M169.45,198.4l0.05-0.2h-0.05V198.4z M166.45,207.3h-0.1
	l-0.7,0.2l-0.05,0.05C166.067,207.483,166.35,207.4,166.45,207.3z M164.1,208.6l0.25-0.05h-0.15L164.1,208.6z"/>
<path fill-rule="evenodd" clip-rule="evenodd" fill="#FBFFFF" d="M176.6,196.55c-2.367,1.534-4.05,2.75-5.05,3.65
	c-0.867,0.7-2.233,1.967-4.1,3.8c-0.133,0-0.2-0.05-0.2-0.15V203.7c0-0.4,1.383-1.7,4.15-3.9c2.167-1.9,3.883-3.033,5.15-3.4
	L176.6,196.55z"/>
<path fill-rule="evenodd" clip-rule="evenodd" fill="#FBFFFF" d="M179.2,198.15c0,0.067-0.684,0.533-2.05,1.4
	c-1.667,1.033-2.867,1.851-3.6,2.45c-1.066,0.8-2.617,2.1-4.65,3.9l-0.15-0.051l-0.05-0.149c0-0.434,1.5-1.717,4.5-3.851
	c2.833-2.066,4.816-3.35,5.95-3.85L179.2,198.15z"/>
</svg>
