<?xml version="1.0" encoding="utf-8"?>
<!-- Generator: Adobe Illustrator 16.0.0, SVG Export Plug-In . SVG Version: 6.00 Build 0)  -->
<!DOCTYPE svg PUBLIC "-//W3C//DTD SVG 1.1//EN" "http://www.w3.org/Graphics/SVG/1.1/DTD/svg11.dtd">
<svg version="1.1" id="Selected_Items" xmlns="http://www.w3.org/2000/svg" xmlns:xlink="http://www.w3.org/1999/xlink" x="0px"
	 y="0px" width="550px" height="400px" viewBox="0 0 550 400" enable-background="new 0 0 550 400" xml:space="preserve">
<path fill-rule="evenodd" clip-rule="evenodd" fill="#1C6F36" d="M265.3,196.95c-0.066-0.133-0.533-0.45-1.4-0.95
	c-0.767-0.467-1.15-0.8-1.15-1c0-0.633,0.983-0.717,2.95-0.25c1.966,0.467,2.95,1.217,2.95,2.25c0,1.567-0.983,3.717-2.95,6.45
	c-2.867,3.967-6.65,5.95-11.35,5.95c-5,0-9.367-1.733-13.1-5.2c-2.867-2.667-4.3-4.667-4.3-6c0-0.567,0.35-1.233,1.05-2
	c0.967-1.067,2.233-1.6,3.8-1.6c0.567,0,0.883,0.233,0.95,0.7c0,0.267-0.2,0.45-0.6,0.55c-0.8,0.133-1.5,0.35-2.1,0.65
	c1.5,0.633,3.034,1.15,4.6,1.55c2.2,0.534,5.133,1.034,8.8,1.5h5C260.75,198.983,263.033,198.117,265.3,196.95z M258.55,200.6h-5.1
	c-5.067-0.733-8.434-1.316-10.1-1.75c-2.2-0.533-3.667-1.233-4.4-2.1c-0.667,0.6-1,1.083-1,1.45c0,1.233,1.45,3.083,4.35,5.55
	c3.633,3.066,7.65,4.6,12.05,4.6c4.367,0,7.883-1.85,10.55-5.55c1.367-1.866,2.283-3.8,2.75-5.8c0-0.267-0.1-0.45-0.3-0.55
	c-0.2-0.133-0.65-0.267-1.35-0.4c0.033,0.067,0.133,0.25,0.3,0.55c0.034,0.033,0.05,0.133,0.05,0.3
	C266.35,198,263.75,199.233,258.55,200.6z"/>
<path fill-rule="evenodd" clip-rule="evenodd" fill="#228843" d="M238.25,196.9c0.367-0.6,0.783-0.816,1.25-0.65v0.4
	c0,0.233,0.367,0.55,1.1,0.95c0.7,0.4,1.05,0.7,1.05,0.9c0,0.267-0.15,0.4-0.45,0.4c-0.267,0-0.483-0.1-0.65-0.3
	c-0.133-0.167-0.3-0.25-0.5-0.25c0,0.333,0.233,0.75,0.7,1.25c0,0.167-0.35,0.6-1.05,1.3c-0.5,0-0.967-0.467-1.4-1.4
	c-0.333-0.933-0.5-1.417-0.5-1.45C237.8,197.75,237.95,197.367,238.25,196.9z"/>
<path fill-rule="evenodd" clip-rule="evenodd" fill="#228843" d="M265.45,195.1c0.533,0.233,1.1,0.583,1.7,1.05
	c0.033,0,0.05-0.1,0.05-0.3l0.35-0.1l0.35,0.1l0.05,0.85c-1.434,4.666-2.75,7-3.95,7c-0.233,0-0.367-0.05-0.4-0.15v-0.2
	c0-0.3,0.25-0.85,0.75-1.649c0.333-0.566,0.633-1,0.9-1.3v-0.051c-0.167,0.167-0.333,0.25-0.5,0.25c-0.033,0-0.15-0.05-0.35-0.149
	v-0.5c0.7-0.6,1.184-1.1,1.45-1.5c0.233-0.434,0.35-0.9,0.35-1.4c0-0.3-0.317-0.616-0.95-0.95s-0.95-0.583-0.95-0.75
	C264.3,194.817,264.683,194.733,265.45,195.1z"/>
<path fill-rule="evenodd" clip-rule="evenodd" fill="#228843" d="M266.85,197.25c0,0.934-1.333,2.283-4,4.05
	c-0.033,0-0.15-0.05-0.35-0.149v-0.601c0.633-0.434,1.333-1.167,2.1-2.2c0.533-0.7,1.267-1.167,2.2-1.4L266.85,197.25z"/>
<path fill-rule="evenodd" clip-rule="evenodd" fill="#228843" d="M264.8,198.15c0.567,0,0.883,0.284,0.95,0.85
	c0,0.7-1.2,1.4-3.6,2.1c-2.5,0.733-5.15,1.101-7.95,1.101c-1.367,0-3.55-0.283-6.55-0.851c-2.733-0.566-4.117-0.85-4.15-0.85
	c-0.233,0.134-0.433,0.2-0.6,0.2c-0.9,0-1.767-0.351-2.6-1.05c-0.667-0.566-1-0.966-1-1.2c0-0.7,0.784-0.85,2.35-0.45
	c0.833,0.233,1.95,0.583,3.35,1.05c0.6,0.1,1.917,0.35,3.95,0.75c2.066,0.4,3.8,0.601,5.2,0.601c3.267,0,5.867-0.367,7.8-1.101
	C262.917,198.9,263.867,198.517,264.8,198.15z"/>
<path fill-rule="evenodd" clip-rule="evenodd" fill="#228843" d="M265.95,202.5c-0.667,1.2-1.35,2.033-2.05,2.5
	c-1,0.7-2.1,1.333-3.3,1.9c-2.333,1.133-4.517,1.699-6.55,1.699c-2.767,0-5-0.466-6.7-1.399c-1.633-1.167-3.083-2.017-4.35-2.55
	c-0.767-0.334-1.667-1.101-2.7-2.301c-1.066-1.199-1.6-2.083-1.6-2.649c0-0.567,0.316-0.85,0.95-0.85c0.033,0,0.7,0.683,2,2.05
	c1.4,1.433,2.3,2.25,2.7,2.449c1.233,0.634,2.65,1.434,4.25,2.4c1.4,0.7,3.2,1.05,5.4,1.05c3.233,0,6.233-1.149,9-3.45
	c1.033-1.199,1.617-1.966,1.75-2.3c0.033-0.467,0.1-0.883,0.2-1.25c0.167-0.633,0.533-0.95,1.1-0.95c0.6,0,0.9,0.333,0.9,1
	C266.95,200.483,266.617,201.366,265.95,202.5z"/>
<path fill-rule="evenodd" clip-rule="evenodd" fill="#228843" d="M265.95,199.95c0,0.866-1.133,2.25-3.4,4.149
	c-2.433,2.034-4.5,3.051-6.2,3.051c-0.667,0-1.333,0.116-2,0.35h-4.2c-2.233-0.2-4.117-0.717-5.65-1.55
	c-1.4-0.767-2.1-1.533-2.1-2.3c0-0.467,0.117-0.784,0.35-0.95c-1.567-1.3-2.35-2.384-2.35-3.25c0-0.367,0.033-0.6,0.1-0.7
	c0.167-0.333,0.55-0.5,1.15-0.5c0.033,0,1.2,0.45,3.5,1.35c2.5,0.933,4.233,1.466,5.2,1.6h5.05c1.733-0.434,3.3-0.8,4.7-1.101
	l1.4-0.3c0.5-0.133,1.117-0.167,1.85-0.1c0.167-0.167,0.35-0.417,0.55-0.75c0.2-0.267,0.483-0.4,0.85-0.4
	c0.267,0,0.55,0.217,0.85,0.65C265.833,199.567,265.95,199.817,265.95,199.95z"/>
<path fill-rule="evenodd" clip-rule="evenodd" fill="#1C6F36" d="M244.6,194.7c0,0.367-0.567,0.7-1.7,1
	c-1.133,0.267-1.7,0.533-1.7,0.8c0,0.167,0.133,0.35,0.4,0.55c0.267,0.2,0.4,0.35,0.4,0.45c0,0.267-0.15,0.4-0.45,0.4
	c-0.367-0.267-0.566-0.4-0.6-0.4c-0.3,0-0.5-0.066-0.6-0.2l-0.45-0.5v-0.4c0-0.333,0.05-0.533,0.15-0.6
	c0.167-0.133,0.6-0.283,1.3-0.45c0-0.667,0.967-1,2.9-1C244.483,194.35,244.6,194.467,244.6,194.7z"/>
<path fill-rule="evenodd" clip-rule="evenodd" fill="#F7F7F7" d="M261.15,194.05c0,0.333-0.183,0.5-0.55,0.5
	c-0.1,0-0.667-0.383-1.7-1.15c-1.133-0.833-1.816-1.316-2.05-1.45s-0.917-0.667-2.05-1.6c-1-0.833-1.566-1.25-1.7-1.25
	c-0.533,0-1.467,0.65-2.8,1.95c-1.333,1.4-2.117,2.2-2.35,2.4c-0.833,0.333-1.367,0.7-1.6,1.1c-0.5,0.467-0.867,0.833-1.1,1.1
	c-0.533,0.534-0.95,0.95-1.25,1.25c-0.567,0.534-0.917,0.8-1.05,0.8c-0.034,0-0.167-0.083-0.4-0.25c-0.2,0.066-0.417,0.05-0.65-0.05
	c-0.267-0.133-0.417-0.25-0.45-0.35c0-0.167,0-0.3,0-0.4c0-0.533,0.35-0.9,1.05-1.1c1.033-0.3,1.683-0.566,1.95-0.8
	c0.3-0.3,0.8-0.7,1.5-1.2c0.6-0.433,1.033-0.8,1.3-1.1c0.333-0.467,1.117-1.233,2.35-2.3c1.6-1.367,2.767-2.05,3.5-2.05
	c0.4,0,1.267,0.45,2.6,1.35c1.2,0.833,1.933,1.316,2.2,1.45C258.5,191.2,259.583,192.25,261.15,194.05z"/>
<path fill-rule="evenodd" clip-rule="evenodd" fill="#F7F7F7" d="M257.15,199.6c-0.667-0.167-1.083-0.184-1.25-0.05h-3.2
	c-1.833-0.366-2.983-0.55-3.45-0.55c-0.167,0.1-0.317,0.15-0.45,0.15c-2-0.533-3.333-0.85-4-0.95c-1.1-0.167-1.667-0.267-1.7-0.3
	c-0.833-0.2-1.25-0.517-1.25-0.95c0-0.2,0.083-0.35,0.25-0.45c0.167-0.133,0.383-0.1,0.65,0.1c0.133,0.133,0.3,0.217,0.5,0.25
	c0.467,0.066,0.717,0.1,0.75,0.1c0.5,0.133,1.567,0.3,3.2,0.5l5.75,1.1h2.7l0.5-0.05c1.067,0,1.6,0.2,1.6,0.6
	C257.75,199.434,257.55,199.6,257.15,199.6z"/>
<path fill-rule="evenodd" clip-rule="evenodd" fill="#F7F7F7" d="M265.05,196.95c0,0.333-1.1,0.867-3.3,1.6
	c-2.133,0.7-3.467,1.05-4,1.05c-0.633,0-0.95-0.167-0.95-0.5c0-0.233,0.1-0.383,0.3-0.45c1.133-0.2,2.383-0.5,3.75-0.9
	c0.1-0.033,0.65-0.267,1.65-0.7c1.067-0.4,1.75-0.6,2.05-0.6C264.883,196.45,265.05,196.617,265.05,196.95z"/>
<path fill-rule="evenodd" clip-rule="evenodd" fill="#F7F7F7" d="M264.45,195.8c0.7,0.467,1.05,0.817,1.05,1.05
	c0,0.367-0.233,0.55-0.7,0.55c-0.233,0-0.367-0.1-0.4-0.3c-0.066-0.133-0.066-0.233,0-0.3l-2.5-1.8c-1.633-0.9-2.45-1.45-2.45-1.65
	c0-0.167,0.017-0.267,0.05-0.3c0.033-0.066,0.183-0.1,0.45-0.1c0.2,0,1.233,0.65,3.1,1.95
	C263.217,195.033,263.683,195.333,264.45,195.8z"/>
<path fill-rule="evenodd" clip-rule="evenodd" fill="#F7F7F7" d="M261.9,196.1h0.05c-0.167-0.167-0.333-0.25-0.5-0.25l0.25,0.35
	L261.9,196.1z M263.2,195.2c0.7,0.533,1.05,0.933,1.05,1.2c0,0.3-0.083,0.5-0.25,0.6l-1,0.25c-0.167,0.033-0.733,0.317-1.7,0.85
	c-1.933,0.7-3.3,1.05-4.1,1.05c-0.934,0-2.3-0.1-4.1-0.3c-1.934-0.233-3.267-0.467-4-0.7c-1.233-0.433-2.067-0.65-2.5-0.65
	c-1.867-0.033-2.8-0.316-2.8-0.85c0-0.233,1.45-1.566,4.35-4c0.2-0.233,0.583-0.533,1.15-0.9c0.6-0.433,1-0.75,1.2-0.95
	c0.6-0.667,1.083-1.116,1.45-1.35c0.433-0.267,0.9-0.4,1.4-0.4s0.85,0.117,1.05,0.35c0.1,0.133,0.167,0.284,0.2,0.45
	c0.1,0.1,0.517,0.333,1.25,0.7c0.367,0.233,1.05,0.767,2.05,1.6l0.4-0.1c0.233,0,1.284,0.75,3.15,2.25
	c0.233,0.134,0.583,0.25,1.05,0.35L263.2,195.2z M245.8,196.25h0.15l0.05-0.1L245.8,196.25z"/>
<path fill-rule="evenodd" clip-rule="evenodd" fill="#1C6F36" d="M263.95,195.1c0-0.434,0.417-0.383,1.25,0.15
	c0.8,0.533,1.2,1.05,1.2,1.55c0,0.233-0.25,0.534-0.75,0.9s-0.917,0.55-1.25,0.55c-0.1,0-0.167-0.05-0.2-0.15l-0.05-0.15
	c0-0.2,0.267-0.383,0.8-0.55c0.5-0.133,0.75-0.367,0.75-0.7c0-0.067-0.284-0.333-0.85-0.8C264.25,195.467,263.95,195.2,263.95,195.1
	z"/>
<path fill-rule="evenodd" clip-rule="evenodd" fill="#1C6F36" d="M266.65,195.2c0.133,0.1,0.283,0.216,0.45,0.35l0.25-0.15
	c0.533,0,0.867,0.534,1,1.6c0,0.434-0.083,0.8-0.25,1.1c-0.267,0.4-0.483,0.767-0.65,1.1c-0.1,0.167-0.217,0.533-0.35,1.1
	c-0.167,0.566-0.317,0.967-0.45,1.2c-0.7,1.066-1.283,1.934-1.75,2.6c-0.867,1.267-1.433,1.9-1.7,1.9c-0.133,0-0.217-0.066-0.25-0.2
	v-0.2c-0.133,0.167-0.267,0.25-0.4,0.25c-0.066,0-0.133-0.033-0.2-0.1l-0.05-0.15c0-0.133,0.3-0.433,0.9-0.899
	c0.833-0.601,1.667-1.65,2.5-3.15l1.05-2.25c0.733-0.9,1.1-1.616,1.1-2.15c0-0.4-0.267-0.767-0.8-1.1
	c-0.566-0.333-0.85-0.55-0.85-0.65C266.2,195.1,266.35,195.033,266.65,195.2z"/>
<path fill-rule="evenodd" clip-rule="evenodd" fill="#1C6F36" d="M239.25,202c-0.133,0.1-0.233,0.15-0.3,0.15
	c-0.333,0-0.667-0.634-1-1.9c-0.333-1-0.5-1.667-0.5-2c0-0.267,0.1-0.417,0.3-0.45c0.2-0.066,0.4,0.05,0.6,0.35l0.25,1.2
	c0.033,0.267,0.3,1.05,0.8,2.35C239.4,201.8,239.35,201.9,239.25,202z"/>
<path fill-rule="evenodd" clip-rule="evenodd" fill="#1C6F36" d="M240.6,201.8c0.533,0.601,0.8,1.101,0.8,1.5
	c0,0.334-0.167,0.5-0.5,0.5c-0.267,0-0.417-0.1-0.45-0.3c0-0.2,0-0.316,0-0.35c0-0.167-0.5-0.834-1.5-2c-1-1.2-1.5-2.083-1.5-2.65
	c0-0.1,0.066-0.2,0.2-0.3c0.167-0.133,0.333-0.15,0.5-0.05c0.1,0.067,0.217,0.333,0.35,0.8c0.5,0.867,0.8,1.366,0.9,1.5
	C239.6,200.684,240,201.134,240.6,201.8z"/>
<path fill-rule="evenodd" clip-rule="evenodd" fill="#1C6F36" d="M238.1,199.3c0.467,0.367,1.35,1.134,2.65,2.3
	c0.2,0.167,1.017,0.801,2.45,1.9c1.033,0.8,1.55,1.267,1.55,1.4c0,0.1-0.05,0.199-0.15,0.3c-0.1,0.1-0.2,0.149-0.3,0.149
	c-0.4,0-1.75-1.017-4.05-3.05c-0.567-0.434-1.117-0.866-1.65-1.3c-1.067-0.934-1.6-1.533-1.6-1.8
	C237,198.667,237.367,198.7,238.1,199.3z"/>
<path fill-rule="evenodd" clip-rule="evenodd" fill="#1C6F36" d="M246.2,206.45c-0.1,0.1-0.2,0.149-0.3,0.149
	c-0.566,0-1.8-0.816-3.7-2.449c-1.667-1.4-2.5-2.233-2.5-2.5c0-0.667,0.383-0.65,1.15,0.05c0.433,0.366,1.05,0.95,1.85,1.75
	c0.2,0.166,0.883,0.633,2.05,1.399c1.067,0.733,1.6,1.15,1.6,1.25C246.35,206.233,246.3,206.35,246.2,206.45z"/>
<path fill-rule="evenodd" clip-rule="evenodd" fill="#1C6F36" d="M247.35,207.55c-0.267,0-0.833-0.316-1.7-0.95
	c-0.7-0.5-1.3-0.983-1.8-1.449c-1.767-1.301-2.65-2.117-2.65-2.45c0-0.601,0.417-0.566,1.25,0.1c0.466,0.367,1.117,0.934,1.95,1.7
	c0.3,0.267,1.017,0.767,2.15,1.5c0.867,0.566,1.3,0.917,1.3,1.05C247.85,207.384,247.683,207.55,247.35,207.55z"/>
<path fill-rule="evenodd" clip-rule="evenodd" fill="#1C6F36" d="M246,206.7c-0.5,0-1.483-0.584-2.95-1.75
	c-1.4-1.134-2.1-1.767-2.1-1.9c0-0.3,0.167-0.434,0.5-0.399c0.3,0.066,0.533,0.233,0.7,0.5c0.1,0.133,0.567,0.483,1.4,1.05
	c0.3,0.233,0.967,0.649,2,1.25c0.667,0.399,1,0.666,1,0.8C246.55,206.55,246.367,206.7,246,206.7z"/>
<path fill-rule="evenodd" clip-rule="evenodd" fill="#1C6F36" d="M247.55,206.95c-0.233,0-0.95-0.384-2.15-1.15
	c-1.467-0.934-2.25-1.434-2.35-1.5c-2.033-1.5-3.05-2.434-3.05-2.8c0-0.667,0.383-0.65,1.15,0.05c1.3,1.167,2.067,1.816,2.3,1.95
	c3.033,1.767,4.55,2.767,4.55,3C248,206.8,247.85,206.95,247.55,206.95z"/>
<path fill-rule="evenodd" clip-rule="evenodd" fill="#1C6F36" d="M250.05,208.1c-0.1,0.101-0.2,0.15-0.3,0.15
	c-0.233,0-1.383-0.616-3.45-1.85c-0.367-0.2-0.783-0.483-1.25-0.851c-0.667-0.533-1-0.916-1-1.149c0-0.267,0.133-0.367,0.4-0.301
	c0.233,0.034,0.466,0.167,0.7,0.4c0.267,0.267,0.767,0.634,1.5,1.1c0.1,0.067,0.717,0.4,1.85,1c1.133,0.634,1.7,1.034,1.7,1.2
	C250.2,207.9,250.15,208,250.05,208.1z"/>
<path fill-rule="evenodd" clip-rule="evenodd" fill="#1C6F36" d="M251.45,208.7c-0.833,0-2.034-0.434-3.6-1.3
	c-1.467-0.834-2.2-1.367-2.2-1.601s0.1-0.366,0.3-0.399c0.2,0,0.433,0.116,0.7,0.35l1.65,0.9c0.133,0.066,0.4,0.199,0.8,0.399
	c0.4,0.233,0.816,0.384,1.25,0.45c1.033,0.134,1.55,0.366,1.55,0.7C251.9,208.533,251.75,208.7,251.45,208.7z"/>
<path fill-rule="evenodd" clip-rule="evenodd" fill="#1C6F36" d="M253.1,209.35c-0.767,0-2.017-0.383-3.75-1.149
	s-2.6-1.316-2.6-1.65c0-0.333,0.167-0.483,0.5-0.45c0.3,0.034,0.55,0.167,0.75,0.4l1.65,0.9c0.133,0.066,0.85,0.25,2.15,0.55
	c1.2,0.366,1.8,0.684,1.8,0.95C253.6,209.2,253.433,209.35,253.1,209.35z"/>
<path fill-rule="evenodd" clip-rule="evenodd" fill="#1C6F36" d="M251.05,207.35c0.5,0.2,1.067,0.434,1.7,0.7
	c0.1,0.033,0.567,0.117,1.4,0.25c0.767,0.2,1.15,0.45,1.15,0.75s-0.2,0.45-0.6,0.45c-1,0-2.767-0.517-5.3-1.55
	c-2.5-1.033-3.75-1.733-3.75-2.101c0-0.433,0.517-0.416,1.55,0.051c1.3,0.566,2,0.85,2.1,0.85
	C249.533,206.75,250.117,206.95,251.05,207.35z"/>
<path fill-rule="evenodd" clip-rule="evenodd" fill="#1C6F36" d="M238.3,197.85l-0.15,0.9c0,0.667,0.3,1.35,0.9,2.05
	c0,0.101-0.033,0.2-0.1,0.3l1.6,1.9c0.233,0.267,0.583,0.55,1.05,0.85c0.3,0.167,0.767,0.434,1.4,0.801c0.5,0.3,1.417,0.8,2.75,1.5
	c0.067,0.033,0.55,0.283,1.45,0.75c0.867,0.466,1.3,0.767,1.3,0.899c0,0.101-0.05,0.2-0.15,0.3c-0.1,0.101-0.2,0.15-0.3,0.15
	c-0.667,0-3.233-1.384-7.7-4.15l-2-2.399c-0.533-0.566-0.867-1.017-1-1.351c-0.167-0.333-0.25-0.783-0.25-1.35
	c0-0.667,0.066-1.133,0.2-1.4c0.167-0.434,0.383-0.583,0.65-0.45C238.183,197.317,238.3,197.55,238.3,197.85z"/>
<path fill-rule="evenodd" clip-rule="evenodd" fill="#1C6F36" d="M239.1,196.3c0,0.067-0.1,0.684-0.3,1.85
	c0,0.867,0.35,1.6,1.05,2.2c0.667,0.567,1,1.051,1,1.45c0,0.467-0.15,0.7-0.45,0.7c-0.367,0-0.8-0.333-1.3-1
	c-0.333-0.467-0.567-0.866-0.7-1.2c-0.1-0.2-0.233-0.667-0.4-1.4c-0.167-0.7-0.25-1.117-0.25-1.25c0.233-0.733,0.367-1.167,0.4-1.3
	c0.1-0.4,0.283-0.583,0.55-0.55C238.967,195.833,239.1,196,239.1,196.3z"/>
<path fill-rule="evenodd" clip-rule="evenodd" fill="#228843" d="M241.3,195.5c-0.466,0.033-0.767,0.184-0.9,0.45
	c-0.433,0.733-0.683,1.1-0.75,1.1c-0.267,0-0.4-0.15-0.4-0.45c0-0.7,0.45-1.217,1.35-1.55c0.867-0.333,1.3-0.3,1.3,0.1
	C241.9,195.317,241.7,195.434,241.3,195.5z"/>
<path fill-rule="evenodd" clip-rule="evenodd" fill="#228843" d="M243.6,194.85c0,0.133-0.767,0.417-2.3,0.85
	c-0.4,0.233-0.65,0.617-0.75,1.15l1.55,1.65c-0.033,0.1-0.117,0.15-0.25,0.15c-0.233,0-0.533-0.167-0.9-0.5
	c-0.3-0.267-0.483-0.483-0.55-0.65c-0.167,0.067-0.25,0.217-0.25,0.45c0.033,0.2-0.017,0.3-0.15,0.3c-0.2,0-0.317-0.133-0.35-0.4
	v-0.4c0-0.5,0.1-0.9,0.3-1.2c0.633-0.7,0.966-1.05,1-1.05l0.2,0.15c0.3,0,0.383-0.1,0.25-0.3c0-0.267,0.717-0.383,2.15-0.35
	L243.6,194.85z"/>
<path fill-rule="evenodd" clip-rule="evenodd" fill="#228843" d="M266.2,195.8c0.167,0,0.267,0.35,0.3,1.05
	c0,0.3-0.1,0.583-0.3,0.85c-0.233,0.3-0.55,0.45-0.95,0.45l-1.5,0.9L263.6,199l-0.05-0.2c0-0.066,0.4-0.333,1.2-0.8
	c0.767-0.467,1.15-0.8,1.15-1c0-0.533-0.35-1.033-1.05-1.5c-0.7-0.367-1.05-0.583-1.05-0.65c0-0.233,0.25-0.267,0.75-0.1
	c0.267,0.1,0.567,0.217,0.9,0.35c0.3,0.133,0.45,0.3,0.45,0.5C265.933,195.733,266.033,195.8,266.2,195.8z"/>
<path fill-rule="evenodd" clip-rule="evenodd" fill="#1C6F36" d="M254,209.3c0,0.2-0.067,0.3-0.2,0.3h-3.3
	c-0.9-0.133-1.85-0.433-2.85-0.899c-1.066-0.566-1.867-0.983-2.4-1.25c-0.4-0.2-1.133-0.733-2.2-1.601c-1-0.8-1.5-1.25-1.5-1.35
	c0-0.2,0.117-0.3,0.35-0.3c0.167,0,0.7,0.366,1.6,1.1c1.067,0.867,1.767,1.4,2.1,1.601c2.133,1.166,3.816,1.866,5.05,2.1h1.85
	l0.9-0.1C253.8,208.9,254,209.033,254,209.3z"/>
<path fill-rule="evenodd" clip-rule="evenodd" fill="#1C6F36" d="M247.25,208.2c-0.167,0-0.783-0.3-1.85-0.9
	c-1.2-0.7-1.85-1.066-1.95-1.1c-0.434-0.2-0.967-0.517-1.6-0.95c-0.8-0.566-1.2-0.967-1.2-1.2c0-0.5,0.15-0.616,0.45-0.35
	c0.167,0.133,0.433,0.434,0.8,0.899c0.5,0.4,1.1,0.75,1.8,1.051c0.3,0.1,1.017,0.483,2.15,1.149c1.133,0.634,1.7,1,1.7,1.101
	C247.55,208.1,247.45,208.2,247.25,208.2z"/>
<path fill-rule="evenodd" clip-rule="evenodd" fill="#1C6F36" d="M239.6,202.6c0.3,0.301,0.75,0.733,1.35,1.301
	c0.9,1,2.083,1.883,3.55,2.649l2.25,1.3c0.067,0.034,0.417,0.117,1.05,0.25c0.567,0.2,0.85,0.384,0.85,0.551
	c0,0.199-0.133,0.3-0.4,0.3c-0.9,0-2.433-0.733-4.6-2.2c-2-1.5-3.033-2.267-3.1-2.3c-0.733-0.467-1.483-1.283-2.25-2.45
	c-0.833-1.233-1.25-2.25-1.25-3.05c0-0.2,0.067-0.333,0.2-0.4c0.167-0.1,0.3,0,0.4,0.3l0.2,0.8c0.033,0.367,0.25,0.867,0.65,1.5
	C238.633,201.55,239,202.033,239.6,202.6z"/>
<path fill-rule="evenodd" clip-rule="evenodd" fill="#1C6F36" d="M263.3,205.1c0.167,0,0.267,0.101,0.3,0.301l-1.15,1.25
	c-0.133,0.1-0.434,0.216-0.9,0.35c-0.1,0.033-0.183,0.116-0.25,0.25c-0.066,0.134-0.167,0.2-0.3,0.2s-0.217-0.05-0.25-0.15
	l-0.05-0.149c0-0.334,0.383-0.7,1.15-1.101c0.066-0.033,0.267-0.2,0.6-0.5C262.817,205.25,263.1,205.1,263.3,205.1z"/>
<path fill-rule="evenodd" clip-rule="evenodd" fill="#E0E0E0" d="M253.75,188.25c-1.1,0.434-1.817,0.767-2.15,1
	c-0.267,0.133-0.733,0.483-1.4,1.05c-1.133,1.034-1.983,1.8-2.55,2.3c-1.733,1.367-2.7,2.133-2.9,2.3c-0.2,0.167-0.9,0.467-2.1,0.9
	c-0.267,0.067-0.55,0.3-0.85,0.7c-0.267,0.333-0.417,0.5-0.45,0.5c-0.167,0-0.25-0.15-0.25-0.45c0-0.433,0.383-0.8,1.15-1.1
	c1.267-0.5,2-0.817,2.2-0.95c0.566-0.4,1.466-1.133,2.7-2.2c0.633-0.466,1.65-1.366,3.05-2.7c1.3-1.067,2.4-1.6,3.3-1.6
	C253.667,188.1,253.75,188.184,253.75,188.25z"/>
<path fill-rule="evenodd" clip-rule="evenodd" fill="#E0E0E0" d="M253.3,188.4c-0.167-0.066-0.25-0.15-0.25-0.25
	c0-0.167,0.117-0.25,0.35-0.25c0.1,0,0.583,0.067,1.45,0.2l0.75,0.7c0.8,0.8,1.2,1.3,1.2,1.5c0,0.167-0.083,0.25-0.25,0.25
	c-0.2,0-0.417-0.167-0.65-0.5c-0.233-0.366-0.4-0.6-0.5-0.7c-0.033-0.033-0.15-0.167-0.35-0.4c-0.1-0.167-0.233-0.284-0.4-0.35
	C254.35,188.633,253.9,188.567,253.3,188.4z"/>
<path fill-rule="evenodd" clip-rule="evenodd" fill="#E0E0E0" d="M255.75,189.4c-0.233,0-0.617-0.15-1.15-0.45
	c-0.5-0.3-0.75-0.483-0.75-0.55c0-0.233,0.367-0.216,1.1,0.05c0.7,0.233,1.05,0.45,1.05,0.65C256,189.3,255.917,189.4,255.75,189.4z
	"/>
<path fill-rule="evenodd" clip-rule="evenodd" fill="#E0E0E0" d="M265,195.65c0.467,0.3,0.7,0.667,0.7,1.1
	c0,0.3-0.117,0.45-0.35,0.45c-0.1,0-0.167-0.034-0.2-0.1l-0.05-0.15l0.1-0.3l-4.9-3.35c-1.066-0.966-1.85-1.6-2.35-1.9
	c-0.667-0.367-1.167-0.65-1.5-0.85c-0.534-0.366-0.8-0.683-0.8-0.95c0-0.367,0.133-0.417,0.4-0.15c0.133,0.133,0.267,0.3,0.4,0.5
	c0.267,0.2,0.783,0.5,1.55,0.9c0.3,0.167,1.167,0.816,2.6,1.95l2.75,1.95C263.75,195.017,264.3,195.317,265,195.65z"/>
<path fill-rule="evenodd" clip-rule="evenodd" fill="#E0E0E0" d="M244,195.5c0,1.1,0.867,1.9,2.6,2.4c1.7,0.5,2.55,0.817,2.55,0.95
	c0,0.1-0.017,0.167-0.05,0.2c-0.067,0.034-0.217,0.05-0.45,0.05c-1.133,0-2.583-0.217-4.35-0.65c-2.066-0.534-3.1-1.083-3.1-1.65
	c0-0.3,0.167-0.616,0.5-0.95c0.367-0.4,0.767-0.6,1.2-0.6c0.1,0,0.383-0.066,0.85-0.2c0.267-0.066,0.4,0,0.4,0.2L244,195.5z"/>
<path fill-rule="evenodd" clip-rule="evenodd" fill="#E0E0E0" d="M253.55,199.5c0,0.167-0.167,0.25-0.5,0.25
	c-0.533,0-1.4-0.1-2.6-0.3c-1.4-0.233-2.1-0.467-2.1-0.7s0.433-0.267,1.3-0.1c1.833,0.333,3.05,0.534,3.65,0.6
	C253.467,199.35,253.55,199.434,253.55,199.5z"/>
<path fill-rule="evenodd" clip-rule="evenodd" fill="#E0E0E0" d="M244.55,195.75c0,0.467,1.267,1.133,3.8,2
	c0.3,0.1,1.417,0.367,3.35,0.8c1.367,0.333,2.05,0.583,2.05,0.75c0,0.167-0.133,0.25-0.4,0.25c-0.633,0-1.583-0.15-2.85-0.45
	c-1.167-0.333-1.767-0.5-1.8-0.5c0,0.2-0.083,0.3-0.25,0.3l-1.5-0.65c-0.1,0.1-0.217,0.15-0.35,0.15c-0.1,0-0.35-0.117-0.75-0.35
	l-0.55-0.4l-0.25,0.1c-0.233,0-0.5-0.3-0.8-0.9c-0.267-0.533-0.4-0.85-0.4-0.95c0-0.367,0.133-0.7,0.4-1
	c0.267-0.267,0.4-0.167,0.4,0.3L244.55,195.75z"/>
</svg>
