<?xml version="1.0" encoding="utf-8"?>
<!-- Generator: Adobe Illustrator 16.0.0, SVG Export Plug-In . SVG Version: 6.00 Build 0)  -->
<!DOCTYPE svg PUBLIC "-//W3C//DTD SVG 1.1//EN" "http://www.w3.org/Graphics/SVG/1.1/DTD/svg11.dtd">
<svg version="1.1" id="Selected_Items" xmlns="http://www.w3.org/2000/svg" xmlns:xlink="http://www.w3.org/1999/xlink" x="0px"
	 y="0px" width="550px" height="400px" viewBox="0 0 550 400" enable-background="new 0 0 550 400" xml:space="preserve">
<path fill-rule="evenodd" clip-rule="evenodd" fill="#B9FFFF" d="M331.5,197.85c0.833,2.167,1.367,3.716,1.6,4.65
	c0.101,0.4,0.851,1.9,2.25,4.5c1.301,2.467,1.95,4.066,1.95,4.8c0,0.334-0.183,0.5-0.55,0.5c-0.434,0-0.85-0.6-1.25-1.8
	c-0.4-1.366-0.7-2.25-0.9-2.65c-0.033-0.1-0.5-0.85-1.399-2.25c-0.566-0.933-0.9-1.683-1-2.25c-0.101-0.466-0.634-2.033-1.601-4.7
	c-0.933-2.5-1.399-3.917-1.399-4.25c0-0.233,0.133-0.4,0.399-0.5c0.301-0.1,0.534,0.05,0.7,0.45L331.5,197.85z"/>
<path fill-rule="evenodd" clip-rule="evenodd" fill="#B9FFFF" d="M353.9,193.55c0,1.434-0.783,4.833-2.351,10.2
	c-1.566,5.366-2.566,8.05-3,8.05c-0.267,0-0.433-0.083-0.5-0.25c-0.033-0.066-0.05-0.166-0.05-0.3c0-0.233,0.45-1.65,1.35-4.25
	c1.034-2.967,1.634-4.75,1.801-5.35c0.533-2,0.883-3.601,1.05-4.8c-0.033-0.6,0.083-1.4,0.35-2.4c0.067-0.467,0.3-0.934,0.7-1.4
	C353.684,192.583,353.9,192.75,353.9,193.55z"/>
<path fill-rule="evenodd" clip-rule="evenodd" fill="#B9FFFF" d="M329.7,194.3c0-0.133,0.017-0.233,0.05-0.3
	c0.066-0.2,0.217-0.3,0.45-0.3l1.05,1.05c0.767,0.733,1.3,1.15,1.6,1.25c2.601,0.8,4.851,1.317,6.75,1.55h2.9
	c2.167-0.3,3.816-0.65,4.95-1.05c0.7-0.267,1.583-0.683,2.649-1.25c0.101-0.033,0.801-0.683,2.101-1.95c0.8-0.8,1.2-0.783,1.2,0.05
	c0,0.867-1.117,1.883-3.351,3.05c-2.399,1.233-4.883,1.967-7.45,2.2h-3c-3.033-0.434-5.449-1.05-7.25-1.85
	C330.583,195.983,329.7,195.167,329.7,194.3z"/>
<path fill-rule="evenodd" clip-rule="evenodd" fill="#B9FFFF" d="M333.3,192.35c-1.8,0.467-2.7,1.066-2.7,1.8
	c0,0.1,0.134,0.333,0.4,0.7c0,0.367-0.167,0.55-0.5,0.55c-0.467,0-0.75-0.2-0.85-0.6c-0.033-0.4-0.051-0.617-0.051-0.65
	c0-1.133,0.75-1.95,2.25-2.45c1.233-0.4,4.417-1,9.551-1.8h6.1c2.066-0.033,3.733,0.4,5,1.3c0.934,0.667,1.4,1.267,1.4,1.8
	c0,0.333-0.184,0.5-0.551,0.5c-0.333,0-0.616-0.183-0.85-0.55c-0.267-0.5-0.467-0.784-0.6-0.85c-0.667-0.467-2.167-0.85-4.5-1.15h-6
	C337.233,191.55,334.533,192.017,333.3,192.35z"/>
<path fill-rule="evenodd" clip-rule="evenodd" fill="#B9FFFF" d="M339.8,213c-0.8-0.033-1.55-0.283-2.25-0.75
	c-0.633-0.434-0.95-0.783-0.95-1.05c0-0.101,0.018-0.2,0.051-0.3c0.066-0.2,0.217-0.301,0.449-0.301c0.067,0,0.45,0.2,1.15,0.601
	c0.7,0.434,1.217,0.684,1.55,0.75h2.9c1.667-0.267,3.1-0.667,4.3-1.2c0.134-0.066,0.566-0.35,1.3-0.85c0.667-0.334,1-0.184,1,0.449
	c0,0.301-0.75,0.801-2.25,1.5c-1.666,0.733-3.083,1.117-4.25,1.15H339.8z"/>
<path fill-rule="evenodd" clip-rule="evenodd" fill="#B9FFFF" d="M337.2,210.9c0.333,0,0.616,0.216,0.85,0.649
	c0.601,0.4,2.017,0.601,4.25,0.601c1.134,0,2.7-0.367,4.7-1.101c1.4-0.5,2.1-0.517,2.1-0.05c0,0.3-0.783,0.75-2.35,1.35
	c-1.5,0.534-2.55,0.817-3.15,0.851H341c-1.8,0.033-3.1-0.2-3.9-0.7c-0.466-0.3-0.699-0.6-0.699-0.9
	C336.4,211.134,336.667,210.9,337.2,210.9z"/>
<path fill-rule="evenodd" clip-rule="evenodd" fill="#0099FF" d="M345.65,201.05c0.199,0,0.683-0.366,1.449-1.1
	c0.667-0.7,1.4-0.967,2.2-0.8h1c0.2-0.1,0.601-0.483,1.2-1.15c0.467-0.433,0.7-0.3,0.7,0.4c0,0.567-0.233,0.967-0.7,1.2
	c-0.6,0.3-1.667,0.45-3.2,0.45c-0.033,0-0.366,0.351-1,1.05c-0.6,0.667-1.133,1-1.6,1c-0.333,0-0.7-0.083-1.101-0.25
	c-0.433-0.199-0.866-0.3-1.3-0.3c-0.5,0-0.983,0.184-1.45,0.55c-0.5,0.334-1.083,0.5-1.75,0.5c-0.6,0-1.133-0.166-1.6-0.5
	c-0.467-0.366-0.767-0.55-0.9-0.55c-0.232,0-0.517,0.084-0.85,0.25c-0.333,0.134-0.633,0.2-0.9,0.2c-0.566,0-1.383-0.316-2.449-0.95
	c-1-0.6-1.5-0.983-1.5-1.15c0-0.333,0.183-0.5,0.55-0.5c0.133,0,0.649,0.267,1.55,0.8c0.934,0.5,1.55,0.75,1.85,0.75
	c0.233,0,0.534-0.066,0.9-0.2c0.367-0.167,0.65-0.25,0.85-0.25c0.301,0,0.733,0.184,1.301,0.55c0.566,0.367,0.883,0.55,0.949,0.55
	c0.534,0,1.101-0.183,1.7-0.55c0.634-0.366,1.2-0.55,1.7-0.55c0.533,0,0.983,0.1,1.35,0.3C345,200.967,345.35,201.05,345.65,201.05z
	"/>
<path fill-rule="evenodd" clip-rule="evenodd" fill="#0099FF" fill-opacity="0.749" d="M341.1,212.2
	c-1.767,0.366-3.216-0.334-4.35-2.101c-0.866-2-1.417-3.166-1.65-3.5c-2.066-2.966-3.1-4.899-3.1-5.8c0-1.466,0.533-1.466,1.6,0
	c1.034,1.367,1.768,2.816,2.2,4.351c0.733,2.633,1.684,4.366,2.851,5.199c0.767,0.534,2.033,0.801,3.8,0.801
	c1.399,0,2.8-0.351,4.2-1.051c0.699-0.366,1.383-0.733,2.05-1.1c0.333,0,0.5,0.184,0.5,0.55c0,0.334-0.783,0.867-2.351,1.601
	c-1.6,0.767-2.649,1.116-3.149,1.05H341.1z"/>
<path fill-rule="evenodd" clip-rule="evenodd" fill="#0099FF" fill-opacity="0.749" d="M348.4,210c-0.334,0-0.5-0.167-0.5-0.5
	c0-0.1,0.683-2.1,2.05-6c0.566-1.4,0.883-2.4,0.95-3c0.1-1.267,0.35-1.95,0.75-2.05c0.366-0.1,0.55,0.2,0.55,0.9
	C350.367,206.45,349.1,210,348.4,210z"/>
<path fill-rule="evenodd" clip-rule="evenodd" fill="#0099FF" fill-opacity="0.749" d="M346.05,201.65c0.3,0,0.733-0.301,1.3-0.9
	c0.567-0.634,0.934-0.983,1.101-1.05c1.333-0.467,2.233-0.534,2.7-0.2c0.267,0.167,0.399,0.483,0.399,0.95
	c0,0.333-0.217,0.899-0.649,1.7c-0.434,0.833-0.65,1.35-0.65,1.55c-0.033,0.233-0.25,0.8-0.65,1.7c-0.399,0.866-0.6,1.333-0.6,1.399
	c0,0.167,0.117,0.434,0.35,0.8c0,0.634-0.5,1.4-1.5,2.301c-1.133,1.033-2.316,1.616-3.55,1.75l-4.6,0.1
	c-1.134,0-2.033-0.55-2.7-1.65c-0.233-0.333-0.55-1.083-0.95-2.25c-1.2-2.433-1.8-3.783-1.8-4.05c0-0.166,0.15-0.399,0.45-0.7
	c-0.7-0.466-1.05-0.866-1.05-1.199c0-0.5,0.267-0.75,0.8-0.75c0.366,0,0.6,0.1,0.7,0.3c0.1,0,0.35-0.05,0.75-0.15
	c0.399-0.1,0.8-0.149,1.199-0.149c0.768,0,1.518,0.183,2.25,0.55c0.733,0.333,1.134,0.5,1.2,0.5c0.033,0,0.5-0.184,1.4-0.55
	c0.899-0.4,1.684-0.601,2.35-0.601C345.033,201.05,345.617,201.25,346.05,201.65z"/>
<path fill-rule="evenodd" clip-rule="evenodd" fill="#005288" fill-opacity="0.749" d="M332,198.85l1.5,0.95
	c1.066,0.601,1.85,0.9,2.35,0.9c0.334,0,0.65-0.084,0.95-0.25c0.334-0.2,0.75-0.3,1.25-0.3c0.3,0,0.617,0.116,0.95,0.35
	c0.3,0.2,0.65,0.3,1.05,0.3c0.267,0,0.75-0.149,1.45-0.45c0.7-0.333,1.316-0.5,1.85-0.5c0.534,0,1,0.1,1.4,0.3
	c0.367,0.166,0.6,0.25,0.7,0.25c0.233,0,0.7-0.233,1.399-0.7c0.768-0.5,1.2-0.767,1.301-0.8c0.3-0.1,0.85-0.133,1.649-0.1
	c0.601,0.034,1.15-0.183,1.65-0.65c0.1-0.1,0.2-0.25,0.3-0.45c0.167-0.167,0.4-0.184,0.7-0.05l0.05,0.3c0,0.2-0.233,0.533-0.7,1
	c-0.2,0.167-0.8,0.316-1.8,0.45c-1.033,0.167-1.566,0.267-1.6,0.3c-0.267,0.1-0.75,0.399-1.45,0.899
	c-0.533,0.4-1.033,0.601-1.5,0.601c-0.3,0-0.634-0.084-1-0.25c-0.367-0.2-0.717-0.3-1.05-0.3c-0.467,0-1.017,0.166-1.65,0.5
	c-0.667,0.3-1.233,0.449-1.7,0.449c-0.533,0-0.967-0.1-1.3-0.3c-0.333-0.233-0.566-0.35-0.7-0.35c-0.533,0-0.933,0.1-1.2,0.3
	c-0.267,0.167-0.616,0.25-1.05,0.25c-1.066,0-2.083-0.366-3.05-1.1l-1.1-1.15C331.65,198.983,331.767,198.85,332,198.85z"/>
<path fill-rule="evenodd" clip-rule="evenodd" fill="#0099FF" d="M332.85,199.1c0,0.133-0.1,0.2-0.3,0.2
	c-0.366,0-0.55-0.133-0.55-0.4c0-0.2,0.283-0.483,0.85-0.85c0.601-0.4,1.117-0.6,1.551-0.6c0.399,0,0.75,0.117,1.05,0.35
	c0.233,0.167,0.35,0.3,0.35,0.4c0,0.2-0.1,0.3-0.3,0.3c-0.566-0.267-0.934-0.4-1.1-0.4c-0.867,0.367-1.317,0.566-1.351,0.6
	C332.95,198.767,332.884,198.9,332.85,199.1z"/>
<path fill-rule="evenodd" clip-rule="evenodd" fill="#0099FF" d="M336.6,197.05l-0.05-0.15c0-0.3,0.851-0.583,2.55-0.85
	c1.634-0.267,3.25-0.4,4.851-0.4h1.6v0.05l1.3,0.1c1,0,1.5,0.15,1.5,0.45c0,0.2-0.133,0.3-0.399,0.3
	c-1.333-0.167-2.434-0.25-3.3-0.25l-2.45,0.1c-0.733,0.033-1.783,0.184-3.15,0.45c-1.333,0.233-2.066,0.35-2.2,0.35
	C336.717,197.2,336.634,197.15,336.6,197.05z"/>
<path fill-rule="evenodd" clip-rule="evenodd" fill="#0099FF" d="M332.65,197.65l0.3-0.15h0.45c0.967,0,1.449,0.167,1.449,0.5
	c0,0.2-0.1,0.3-0.3,0.3c-0.333-0.1-0.717-0.15-1.149-0.15c-0.334,0-0.533,0.133-0.601,0.4c-0.033,0.267-0.149,0.4-0.35,0.4
	c-0.134,0-0.217-0.05-0.25-0.15l-0.05-0.15c0-0.2,0.083-0.433,0.25-0.7L332.65,197.65z"/>
<path fill-rule="evenodd" clip-rule="evenodd" fill="#0099FF" d="M341.3,195.75c0.2,0.067,0.4,0.1,0.601,0.1
	c0.233,0,0.616-0.083,1.149-0.25c0.533-0.167,1.033-0.25,1.5-0.25c0.4,0,0.717,0.083,0.95,0.25c0.233,0.167,0.384,0.25,0.45,0.25
	s0.149-0.033,0.25-0.1c0.2-0.1,0.517-0.15,0.95-0.15c0.733,0,1.1,0.133,1.1,0.4c0,0.2-0.1,0.3-0.3,0.3
	c-0.333-0.033-0.617-0.05-0.851-0.05c-0.366,0-0.6,0.033-0.699,0.1c-0.134,0.066-0.317,0.1-0.551,0.1
	c-0.232,0-0.449-0.067-0.649-0.2c-0.2-0.167-0.434-0.25-0.7-0.25c-0.366,0-0.833,0.083-1.4,0.25c-0.566,0.167-0.966,0.25-1.199,0.25
	c-0.334,0-0.584-0.033-0.75-0.1c-0.2-0.1-0.483-0.15-0.851-0.15c-0.566,0-1.149,0.133-1.75,0.4c-0.6,0.267-0.967,0.4-1.1,0.4
	c-0.2,0-0.333-0.05-0.4-0.15l-0.05-0.15c0-0.133,0.4-0.35,1.2-0.65c0.833-0.333,1.533-0.5,2.1-0.5
	C340.733,195.6,341.066,195.65,341.3,195.75z"/>
<path fill-rule="evenodd" clip-rule="evenodd" fill="#0099FF" d="M349.35,196.5c0.134,0,0.334,0.133,0.601,0.4
	c0.7-0.033,1.25,0.017,1.649,0.15c0.301,0.133,0.45,0.284,0.45,0.45c0,0.233-0.1,0.35-0.3,0.35c-0.133,0-0.217-0.033-0.25-0.1
	c-0.1-0.067-0.2-0.117-0.3-0.15c-0.233,0.033-0.733,0-1.5-0.1c-0.167-0.033-0.333-0.133-0.5-0.3c-0.134-0.133-0.2-0.267-0.2-0.4
	C349,196.6,349.117,196.5,349.35,196.5z"/>
<path fill-rule="evenodd" clip-rule="evenodd" fill="#0099FF" fill-opacity="0.749" d="M339.65,199c-0.834-0.1-1.634-0.2-2.4-0.3
	c-1.5-0.267-2.25-0.534-2.25-0.8c0-0.2,0.134-0.3,0.4-0.3c0.1,0,0.666,0.1,1.699,0.3c1.034,0.2,1.784,0.35,2.25,0.45l0.551,0.05
	h2.949c1.9-0.233,3.15-0.467,3.75-0.7c1.9-0.8,2.851-1,2.851-0.6c0,0.7-2.117,1.333-6.351,1.9H339.65z"/>
<path fill-rule="evenodd" clip-rule="evenodd" fill="#0099FF" fill-opacity="0.749" d="M338.95,197.55
	c-1.3-0.167-1.95-0.367-1.95-0.6c0-0.2,0.117-0.3,0.35-0.3c0.134,0,0.584,0.083,1.351,0.25l0.149-0.25
	c0.101-0.167,0.25-0.283,0.45-0.35c0.067-0.066,0.334-0.1,0.8-0.1l4.851-0.1l1-0.1h1.7l0.199,0.3c0,0.2-0.732,0.483-2.199,0.85
	c-1.601,0.367-3.051,0.55-4.351,0.55C340.7,197.7,339.917,197.65,338.95,197.55z"/>
<path fill-rule="evenodd" clip-rule="evenodd" fill="#0099FF" d="M332.8,198.95c0.3,0,1.101,0.4,2.4,1.2h0.5
	c1.333-0.333,2.184-0.5,2.55-0.5c0.566,0,1.083,0.217,1.55,0.65h0.75c0.2-0.033,0.584-0.2,1.15-0.5c0.6-0.267,1.167-0.4,1.7-0.4
	c0.467,0,0.883,0.083,1.25,0.25c0.199,0.1,0.449,0.217,0.75,0.35c0.1-0.033,0.566-0.25,1.399-0.65c0.634-0.333,1.117-0.533,1.45-0.6
	c0.233-0.067,0.733-0.167,1.5-0.3c0.533-0.067,1-0.217,1.4-0.45c-1.367-0.167-2.051-0.4-2.051-0.7c0-0.2,0.15-0.3,0.45-0.3
	c0.367,0,0.834,0.1,1.4,0.3c0.6,0.2,0.899,0.4,0.899,0.6c0,0.4-0.267,0.7-0.8,0.9c-0.333,0.133-1.083,0.284-2.25,0.45
	c-0.2,0.033-0.783,0.267-1.75,0.7c-0.933,0.434-1.45,0.649-1.55,0.649c-0.333,0-0.684-0.083-1.05-0.25
	c-0.367-0.199-0.733-0.3-1.101-0.3c-0.466,0-0.949,0.15-1.449,0.45c-0.5,0.267-1.084,0.4-1.75,0.4c-0.533,0-0.934-0.101-1.2-0.301
	c-0.3-0.199-0.55-0.3-0.75-0.3c-1.267,0.3-2.184,0.45-2.75,0.45c-0.4,0-1-0.217-1.8-0.65c-0.767-0.433-1.15-0.716-1.15-0.85
	C332.5,199.05,332.6,198.95,332.8,198.95z"/>
<path fill-rule="evenodd" clip-rule="evenodd" fill="#0099FF" fill-opacity="0.749" d="M335.7,198.25c0.3,0,0.55,0.033,0.75,0.1
	c0.1,0.066,0.25,0.15,0.45,0.25l1.199,0.05l0.601,0.2c0.267,0,0.483-0.05,0.649-0.15c0.268,0,0.551,0.1,0.851,0.3
	c0.133,0,0.233-0.05,0.3-0.15c0.033-0.133,0.15-0.2,0.35-0.2l0.25,0.05h2.301l0.05,0.05c0.267,0,1.3-0.233,3.1-0.7
	c0.467-0.066,1-0.2,1.601-0.4c0.5-0.2,0.866-0.3,1.1-0.3c0.134,0,0.3,0.066,0.5,0.2l0.55,0.05c0.367-0.067,0.65-0.017,0.851,0.15
	c0.166,0.133,0.25,0.267,0.25,0.4c0,0.267-0.384,0.483-1.15,0.65c-0.833,0.133-1.316,0.217-1.45,0.25
	c-1.467,0.767-2.35,1.15-2.649,1.15c-1.367,0-1.934-0.217-1.7-0.65H344.1c-0.732,0-1.5,0.167-2.3,0.5l-1.25,0.5
	c-0.233,0-0.366,0-0.399,0c0-0.066-0.033-0.133-0.101-0.2c-0.3,0-0.55-0.05-0.75-0.149c-0.133-0.101-0.217-0.167-0.25-0.2l-0.6-0.05
	c-0.555,0-0.862-0.025-0.925-0.075c-0.28,0.035-0.605,0.109-0.976,0.225c-0.533,0.134-0.95,0.2-1.25,0.2c-0.5,0-1.033-0.2-1.6-0.6
	c-0.533-0.367-0.8-0.633-0.8-0.8c0-0.1,0.217-0.267,0.649-0.5c0.467-0.267,0.851-0.4,1.15-0.4c0.2,0,0.333,0.033,0.399,0.1
	c0.034,0.033,0.067,0.1,0.101,0.2L335.7,198.25z"/>
<path fill-rule="evenodd" clip-rule="evenodd" fill="#005288" fill-opacity="0.749" d="M334.05,197.75
	c-0.7,0.033-1.2,0.283-1.5,0.75c-0.2,0.667-0.416,1-0.649,1c-0.101,0-0.167-0.05-0.2-0.15l-0.05-0.15c0-0.9,0.55-1.5,1.649-1.8
	c1.101-0.3,1.65-0.267,1.65,0.1C334.95,197.633,334.65,197.717,334.05,197.75z"/>
<path fill-rule="evenodd" clip-rule="evenodd" fill="#005288" fill-opacity="0.749" d="M332.9,200.05
	c-0.167,0-0.417-0.216-0.75-0.65c-0.301-0.433-0.45-0.633-0.45-0.6c0-0.533,0.25-0.533,0.75,0c0.233,0.267,0.467,0.583,0.7,0.95
	C333.15,199.95,333.066,200.05,332.9,200.05z"/>
<path fill-rule="evenodd" clip-rule="evenodd" fill="#005288" fill-opacity="0.749" d="M339.9,201.45c-0.301,0-0.634-0.134-1-0.4
	c-0.334-0.233-0.517-0.366-0.551-0.399c-0.566,0.066-0.982,0.183-1.25,0.35c-0.232,0.134-0.433,0.2-0.6,0.2
	c-0.2,0-0.3-0.084-0.3-0.25c0-0.101,0.35-0.283,1.05-0.55c0.733-0.233,1.184-0.301,1.35-0.2c0.367,0.267,0.934,0.6,1.7,1
	C340.3,201.366,340.167,201.45,339.9,201.45z"/>
<path fill-rule="evenodd" clip-rule="evenodd" fill="#005288" fill-opacity="0.749" d="M345.05,201.1
	c0-0.033-0.017-0.083-0.05-0.149c-0.033-0.033-0.05-0.066-0.05-0.101c0-0.166,0.083-0.25,0.25-0.25c0.8-0.1,1.399-0.3,1.8-0.6
	c0.5-0.333,0.95-0.55,1.35-0.65c0.101-0.033,1.018-0.233,2.75-0.6c0.634-0.167,0.95-0.383,0.95-0.65c0-0.7-0.883-1.05-2.649-1.05
	c-0.067,0-0.134-0.033-0.2-0.1l-0.05-0.15c0-0.2,0.1-0.35,0.3-0.45c0.233-0.133,0.434-0.033,0.6,0.3c1.667-0.066,2.5,0.4,2.5,1.4
	c0,0.934-1.033,1.483-3.1,1.65c-0.7,0.033-1.4,0.283-2.101,0.75c-0.666,0.434-1.3,0.649-1.899,0.649
	C345.217,201.1,345.083,201.1,345.05,201.1z"/>
<path fill-rule="evenodd" clip-rule="evenodd" fill="#005288" fill-opacity="0.749" d="M335.95,196.7c0-0.1,0.233-0.2,0.7-0.3
	c0.699-0.133,1.149-0.233,1.35-0.3c0.167-0.067,0.434-0.217,0.8-0.45c0.4-0.167,0.851-0.25,1.351-0.25c0.8,0,1.449,0.067,1.949,0.2
	c0.634,0,1.15-0.117,1.551-0.35c0.733-0.133,1.217-0.15,1.449-0.05c0.334,0.167,0.584,0.25,0.75,0.25c0.334,0,0.717-0.05,1.15-0.15
	c0.566,0,1,0.117,1.3,0.35c0.2,0.133,0.3,0.267,0.3,0.4c-0.033,0.2-0.116,0.3-0.25,0.3c-0.033,0-0.166-0.083-0.399-0.25
	c-0.233-0.167-0.55-0.25-0.95-0.25l-1.15,0.1c-0.267,0-0.482-0.034-0.649-0.1c-0.134-0.1-0.367-0.15-0.7-0.15
	c-0.533,0-0.967,0.066-1.3,0.2s-0.7,0.2-1.101,0.2c-0.666-0.1-1.3-0.15-1.899-0.15c-0.267,0-0.851,0.183-1.75,0.55
	c-0.934,0.333-1.634,0.5-2.101,0.5c-0.199,0-0.316-0.05-0.35-0.15L335.95,196.7z"/>
<path fill-rule="evenodd" clip-rule="evenodd" fill="#005288" fill-opacity="0.749" d="M335.55,198.35
	c0.233-0.3,0.533-0.434,0.9-0.4l0.05,0.15c0,0.066-0.15,0.183-0.45,0.35c-0.3,0.167-0.45,0.35-0.45,0.55s0.067,0.333,0.2,0.4
	c0.067,0.033,0.25,0.05,0.55,0.05l0.2,0.05l0.05,0.15c0,0.167-0.149,0.25-0.449,0.25c-0.301,0-0.533-0.117-0.7-0.35
	c-0.167-0.2-0.25-0.367-0.25-0.5C335.2,198.817,335.316,198.583,335.55,198.35z"/>
<path fill-rule="evenodd" clip-rule="evenodd" fill="#005288" fill-opacity="0.749" d="M341.3,196.7c0.334,0.2,0.667,0.3,1,0.3
	c0.5,0,0.967-0.083,1.4-0.25l0.2,0.2c0,0.066-0.134,0.15-0.4,0.25c-0.366,0.133-0.767,0.2-1.2,0.2c-0.399,0-0.733-0.066-1-0.2
	c-0.3-0.167-0.533-0.25-0.7-0.25c-0.533,0.133-0.816,0.2-0.85,0.2l-0.25-0.05l-0.05-0.15c0-0.167,0.3-0.3,0.899-0.4
	C340.684,196.483,341,196.533,341.3,196.7z"/>
<path fill-rule="evenodd" clip-rule="evenodd" fill="#005288" fill-opacity="0.749" d="M342.05,199.55c0.233,0,0.467-0.05,0.7-0.15
	s0.434-0.15,0.6-0.15l0.851,0.1l0.75-0.1l0.8,0.4c0,0.133-0.1,0.2-0.3,0.2c-0.101,0-0.184-0.033-0.25-0.1s-0.167-0.1-0.3-0.1
	l-0.75,0.1l-0.801-0.1c-0.3,0-0.55,0.05-0.75,0.15c-0.199,0.1-0.383,0.15-0.55,0.15c-0.566,0-1.183-0.083-1.85-0.25
	c-0.667-0.167-1-0.333-1-0.5l0.05-0.15c0.066,0,0.5,0.083,1.3,0.25C341.316,199.467,341.816,199.55,342.05,199.55z"/>
<path fill-rule="evenodd" clip-rule="evenodd" fill="#005288" fill-opacity="0.749" d="M343.45,198.8c-0.033,0-0.05-0.05-0.05-0.15
	c0-0.533,0.633-0.566,1.899-0.1h0.45c0.2-0.2,0.434-0.3,0.7-0.3c0.133,0,0.283,0.083,0.45,0.25c0.133,0.167,0.316,0.2,0.55,0.1
	l0.2,0.2c0,0.167-0.15,0.25-0.45,0.25c-0.167,0-0.316-0.066-0.45-0.2c-0.133-0.133-0.25-0.2-0.35-0.2c-0.2,0-0.351,0.05-0.45,0.15
	c-0.066,0.1-0.217,0.15-0.45,0.15s-0.467-0.05-0.7-0.15c-0.233-0.1-0.383-0.15-0.45-0.15c-0.166,0-0.3,0.033-0.399,0.1
	c-0.134,0.067-0.217,0.1-0.25,0.1L343.45,198.8z"/>
<path fill-rule="evenodd" clip-rule="evenodd" fill="#005288" fill-opacity="0.749" d="M349.4,198.75
	c-0.2,0.233-0.417,0.35-0.65,0.35l-0.2-0.05c-0.033,0-0.05-0.05-0.05-0.15c0-0.033,0.134-0.117,0.4-0.25
	c0.233-0.133,0.35-0.283,0.35-0.45c0-0.1-0.133-0.284-0.4-0.55c0.534-0.433,0.801-0.233,0.801,0.6
	C349.65,198.383,349.566,198.55,349.4,198.75z"/>
<path fill-rule="evenodd" clip-rule="evenodd" fill="#005288" fill-opacity="0.749" d="M345.9,196.6c-0.134-0.133-0.2-0.233-0.2-0.3
	l0.05-0.15c0.134,0,0.3,0.05,0.5,0.15c0.167,0.133,0.25,0.233,0.25,0.3c0,0.133-0.066,0.2-0.2,0.2
	C346.167,196.8,346.033,196.733,345.9,196.6z"/>
<path fill-rule="evenodd" clip-rule="evenodd" fill="#005288" fill-opacity="0.749" d="M338.4,198.75c0.166,0,0.333,0.133,0.5,0.4
	c0,0.133-0.084,0.2-0.25,0.2c-0.101,0-0.167-0.033-0.2-0.1s-0.066-0.1-0.101-0.1l-0.3,0.1c-0.166,0-0.333-0.1-0.5-0.3l-0.2-0.3
	c0-0.267,0.101-0.316,0.301-0.15c0.1,0.1,0.217,0.217,0.35,0.35L338.4,198.75z"/>
<path fill-rule="evenodd" clip-rule="evenodd" fill="#E6FFFF" fill-opacity="0.498" d="M333.25,197.45c-0.4,0.167-0.633,0.3-0.7,0.4
	c-0.433,0.5-0.7,0.75-0.8,0.75c-0.133,0-0.333-0.417-0.6-1.25c-0.267-0.767-0.4-1.2-0.4-1.3c0-0.4,0.517-0.333,1.55,0.2
	c1,0.5,1.5,0.8,1.5,0.9C333.8,197.183,333.617,197.283,333.25,197.45z"/>
<path fill-rule="evenodd" clip-rule="evenodd" fill="#E6FFFF" fill-opacity="0.498" d="M352.1,197.2
	c-0.366-0.167-0.633-0.284-0.8-0.35H350l-0.25-0.3c0-0.1,0.25-0.316,0.75-0.65c0.434-0.3,0.717-0.467,0.85-0.5
	c0.467-0.367,0.75-0.566,0.851-0.6c0.366-0.167,0.55-0.017,0.55,0.45C352.617,196.55,352.4,197.2,352.1,197.2z"/>
<path fill-rule="evenodd" clip-rule="evenodd" fill="#E6FFFF" d="M331.85,194.9c0.167,0.1,0.25,0.2,0.25,0.3
	c0,0.167-0.066,0.25-0.199,0.25c-0.233,0-0.533-0.267-0.9-0.8c-0.333-0.5-0.5-0.733-0.5-0.7c0-0.4,0.184-0.4,0.55,0
	c0.167,0.2,0.334,0.433,0.5,0.7C331.55,194.717,331.65,194.8,331.85,194.9z"/>
<path fill-rule="evenodd" clip-rule="evenodd" fill="#E6FFFF" fill-opacity="0.498" d="M331.75,193.15c0,0.1-0.05,0.25-0.15,0.45
	c-0.1,0.167-0.149,0.316-0.149,0.45c0,0.267,0.233,0.534,0.7,0.8c0.433,0.267,0.649,0.467,0.649,0.6c0,0.3-0.133,0.45-0.399,0.45
	c-0.434,0-0.884-0.283-1.351-0.85c-0.399-0.5-0.6-0.867-0.6-1.1c0-0.267,0.066-0.517,0.2-0.75c0.166-0.333,0.416-0.5,0.75-0.5
	C331.634,192.7,331.75,192.85,331.75,193.15z"/>
<path fill-rule="evenodd" clip-rule="evenodd" fill="#E6FFFF" d="M333.6,196.45c-1-0.3-1.5-0.65-1.5-1.05
	c0-0.233,0.117-0.35,0.351-0.35c0.133,0,0.3,0.083,0.5,0.25c0.233,0.167,0.467,0.284,0.7,0.35c0.1,0.033,0.483,0.117,1.149,0.25
	c0.367,0.067,0.684,0.1,0.95,0.1c0.367,0,1.384-0.383,3.05-1.15c0.2,0,0.317,0.133,0.351,0.4c0,0.133-0.434,0.417-1.301,0.85
	c-0.933,0.467-1.649,0.7-2.149,0.7C335.1,196.8,334.4,196.683,333.6,196.45z"/>
<path fill-rule="evenodd" clip-rule="evenodd" fill="#E6FFFF" d="M340.05,194.75l2.101,0.1c0.733,0,1.467-0.117,2.199-0.35
	c0.2,0,0.317,0.117,0.351,0.35c0,0.133-0.267,0.3-0.8,0.5c-0.601,0.2-1.184,0.3-1.75,0.3c-0.733,0-1.217-0.017-1.45-0.05
	c-0.233-0.067-0.434-0.1-0.601-0.1c-0.6,0-1.149,0.133-1.649,0.4c-0.5,0.233-0.783,0.35-0.851,0.35c-0.267,0-0.399-0.133-0.399-0.4
	c0-0.2,0.333-0.434,1-0.7S339.483,194.75,340.05,194.75z"/>
<path fill-rule="evenodd" clip-rule="evenodd" fill="#E6FFFF" d="M343.4,194.85c0-0.267,0.116-0.383,0.35-0.35l1.7,0.05
	c0.287,0,0.587,0.059,0.899,0.175c-0.014,0.016-0.03,0.024-0.05,0.025h0.101l1-0.1c0.5,0,0.916,0.1,1.25,0.3
	c0.3,0.167,0.449,0.333,0.449,0.5c0,0.066-0.033,0.15-0.1,0.25c-0.1,0.133-0.2,0.2-0.3,0.2c-0.066,0-0.217-0.083-0.45-0.25
	c-0.233-0.167-0.5-0.25-0.8-0.25c-0.333,0.1-0.733,0.15-1.2,0.15c-0.267,0-0.483-0.033-0.65-0.1c-0.166-0.1-0.267-0.15-0.3-0.15H344
	C343.6,195.133,343.4,194.983,343.4,194.85z"/>
<path fill-rule="evenodd" clip-rule="evenodd" fill="#E6FFFF" d="M348.7,196.1c-0.2,0-0.316-0.083-0.351-0.25l-0.05-0.25
	c0-0.167,0.067-0.25,0.2-0.25c0.1,0,0.184,0.033,0.25,0.1c0.033-0.133,0.2-0.267,0.5-0.4s0.45-0.066,0.45,0.2
	C349.7,195.35,349.367,195.633,348.7,196.1z"/>
<path fill-rule="evenodd" clip-rule="evenodd" fill="#E6FFFF" d="M352.35,192.15c0.301,0.267,0.45,0.55,0.45,0.85
	c0,0.4-0.517,0.983-1.55,1.75c-1,0.733-1.667,1.1-2,1.1c-0.133,0-0.217-0.033-0.25-0.1l-0.05-0.15c0-0.167,1.05-0.9,3.149-2.2
	l-0.05-0.5c-0.133-0.2-0.2-0.383-0.2-0.55C351.85,191.983,352.017,191.917,352.35,192.15z"/>
<path fill-rule="evenodd" clip-rule="evenodd" fill="#E6FFFF" fill-opacity="0.498" d="M333.35,193c-0.6,0-0.982,0.133-1.149,0.4
	c-0.101,0.367-0.267,0.55-0.5,0.55c-0.2,0-0.333-0.083-0.4-0.25c-0.066-0.1-0.1-0.2-0.1-0.3c0-0.7,1.267-1.3,3.8-1.8
	c2.6-0.533,5.767-0.8,9.5-0.8c0.3,0,0.533-0.066,0.7-0.2h1.399c0.167,0.033,0.867,0.117,2.101,0.25c0.8,0.1,1.2,0.3,1.2,0.6
	c0,0.3-0.417,0.45-1.25,0.45l-3.051-0.2l-0.699,0.1c-0.167-0.066-0.4-0.1-0.7-0.1l-0.601-0.05c-1.666,0-3.449,0.117-5.35,0.35
	c-1.467,0.167-2.35,0.3-2.65,0.4C334.533,192.733,333.783,192.933,333.35,193z"/>
<path fill-rule="evenodd" clip-rule="evenodd" fill="#E6FFFF" fill-opacity="0.498" d="M352.4,192.4c0,0.133-0.051,0.25-0.15,0.35
	s-0.2,0.15-0.3,0.15c-0.333,0-0.5-0.15-0.5-0.45c-0.333,0.033-0.8-0.1-1.4-0.4c-0.866-0.233-1.3-0.45-1.3-0.65
	c0-0.3,0.134-0.433,0.4-0.4c0.166,0,0.399,0.033,0.699,0.1l0.351-0.1c0.066,0,0.283,0.05,0.649,0.15c0.434,0.1,0.733,0.217,0.9,0.35
	C352.184,191.8,352.4,192.1,352.4,192.4z"/>
<path fill-rule="evenodd" clip-rule="evenodd" fill="#E6FFFF" fill-opacity="0.498" d="M344.55,194.7l-0.55,0.15
	c-0.467,0-0.7-0.217-0.7-0.65c0-0.367,0.2-0.55,0.601-0.55c0.333,0,0.717,0.05,1.149,0.15c0.567,0.1,1.233,0.184,2,0.25
	c0.467,0,1.05,0.117,1.75,0.35h0.5c0.167-0.2,0.434-0.4,0.8-0.6c0.233-0.1,0.601-0.283,1.101-0.55c-0.134-0.2-0.2-0.35-0.2-0.45
	c0-0.4,0.217-0.533,0.65-0.4c0.399,0.167,0.6,0.434,0.6,0.8c0,0.267-0.116,0.483-0.35,0.65c-0.134,0.133-0.45,0.3-0.95,0.5
	c-0.066,0.033-0.316,0.217-0.75,0.55c-0.367,0.267-0.75,0.4-1.15,0.4c-1.267-0.2-1.933-0.3-2-0.3l-2-0.15
	C344.85,194.75,344.684,194.7,344.55,194.7z"/>
<path fill-rule="evenodd" clip-rule="evenodd" fill="#E6FFFF" fill-opacity="0.498" d="M335.6,192.15
	c2.334-0.233,4.15-0.483,5.45-0.75v-0.05h2.2l1,0.2c0.033,0,0.4-0.05,1.1-0.15c0.434,0,0.817,0.05,1.15,0.15
	c0.333,0.1,0.583,0.15,0.75,0.15l0.75-0.1c1.367,0.3,2.05,0.35,2.05,0.15c0.967,0.041,1.45,0.474,1.45,1.3
	c0,0.434-0.283,0.833-0.85,1.2c-0.634,0.4-1.367,0.6-2.2,0.6c-0.2,0-0.351-0.1-0.45-0.3c-0.434-0.1-1.066-0.15-1.9-0.15
	c-0.666,0-1.116-0.033-1.35-0.1c-0.233-0.066-0.467-0.1-0.7-0.1l-0.6,0.1l0.1,0.3c0,0.4-0.149,0.566-0.45,0.5H341.7
	c-0.2,0.2-0.417,0.3-0.65,0.3l-0.95-0.1c-1.666,0-3.116,0.267-4.35,0.8h-1.9c-1.966-0.934-2.949-1.617-2.949-2.05
	c0-0.3,0.149-0.45,0.449-0.45c0.034,0,0.167,0.05,0.4,0.15l0.65-0.6c0.133-0.133,0.25-0.217,0.35-0.25c0.167-0.066,0.5-0.117,1-0.15
	c0.333-0.033,0.583-0.133,0.75-0.3C334.667,192.283,335.033,192.183,335.6,192.15z"/>
<path fill-rule="evenodd" clip-rule="evenodd" fill="#B9FFFF" d="M331.35,195.55c0.301,0.2,0.851,0.417,1.65,0.65l3.15,0.85
	c0.5,0.034,0.8,0.067,0.899,0.1c0.101,0.033,0.15,0.117,0.15,0.25c0,0.2-0.15,0.3-0.45,0.3c-0.866,0-2.15-0.284-3.85-0.85
	c-1.801-0.6-2.7-1.117-2.7-1.55c0-0.367,0.166-0.45,0.5-0.25C330.866,195.15,331.083,195.317,331.35,195.55z"/>
<path fill-rule="evenodd" clip-rule="evenodd" fill="#B9FFFF" d="M335.8,197c0.934,0.267,1.4,0.45,1.4,0.55
	c0,0.2-0.117,0.3-0.351,0.3c-0.466,0-1.116-0.133-1.949-0.4c-0.801-0.267-1.2-0.45-1.2-0.55c0-0.2,0.149-0.3,0.45-0.3
	C334.35,196.6,334.9,196.733,335.8,197z"/>
<path fill-rule="evenodd" clip-rule="evenodd" fill="#B9FFFF" d="M336.85,196.95c0.601,0.167,0.9,0.316,0.9,0.45
	c0,0.2-0.134,0.3-0.4,0.3c-0.366,0-0.866-0.1-1.5-0.3c-0.633-0.2-0.949-0.35-0.949-0.45c0-0.2,0.149-0.3,0.449-0.3
	C335.717,196.65,336.217,196.75,336.85,196.95z"/>
<path fill-rule="evenodd" clip-rule="evenodd" fill="#B9FFFF" d="M350.15,196.05c-0.733,0.5-1.2,0.8-1.4,0.9
	c-0.566,0.3-1.116,0.45-1.65,0.45c-0.3,0-0.449-0.1-0.449-0.3c0-0.367,1.05-0.9,3.149-1.6c0.2-0.067,0.783-0.45,1.75-1.15
	c0.867-0.567,1.3-0.617,1.3-0.15C352.85,194.3,351.95,194.917,350.15,196.05z"/>
<path fill-rule="evenodd" clip-rule="evenodd" fill="#B9FFFF" d="M332,201.6c-0.267,0-0.434-0.216-0.5-0.649
	c0.033-0.467,0.017-0.75-0.05-0.851c-0.334-0.667-0.5-1.2-0.5-1.6c0-0.233,0.083-0.383,0.25-0.45c0.166-0.1,0.283,0.05,0.35,0.45
	c0,0.1,0.101,0.383,0.3,0.85c0.334,1,0.5,1.65,0.5,1.95C332.35,201.5,332.233,201.6,332,201.6z"/>
<path fill-rule="evenodd" clip-rule="evenodd" fill="#B9FFFF" d="M330.9,198.5c0-0.167,0.066-0.317,0.199-0.45
	c0.167-0.133,0.301-0.05,0.4,0.25l0.15,0.75c0.1,0.5,0.25,1,0.449,1.5l0.9,3c0,0.2-0.1,0.3-0.3,0.3c-0.267,0-0.5-0.416-0.7-1.25
	c-0.167-0.833-0.267-1.3-0.3-1.399L330.9,198.5z"/>
<path fill-rule="evenodd" clip-rule="evenodd" fill="#B9FFFF" d="M333.4,205.1c-0.2,0-0.4-0.333-0.601-1
	c-0.2-0.699-0.316-1.1-0.35-1.199c-0.634-1.034-0.95-1.75-0.95-2.15c0-0.867,0.384-0.533,1.15,1c0.733,1.533,1.1,2.55,1.1,3.05
	C333.75,205,333.634,205.1,333.4,205.1z"/>
<path fill-rule="evenodd" clip-rule="evenodd" fill="#B9FFFF" d="M334.55,207.25c-0.133,0-0.283-0.217-0.45-0.65
	c-0.166-0.5-0.267-0.783-0.3-0.85c-0.5-0.833-0.75-1.35-0.75-1.55c0-0.767,0.3-0.617,0.9,0.45c0.6,1.1,0.899,1.85,0.899,2.25
	C334.85,207.134,334.75,207.25,334.55,207.25z"/>
<path fill-rule="evenodd" clip-rule="evenodd" fill="#B9FFFF" d="M349.45,209.95c-0.233,0.566-0.417,0.85-0.55,0.85
	c-0.2,0-0.301-0.116-0.301-0.35c0-0.3,0.2-0.8,0.601-1.5c0.366-0.7,0.55-0.7,0.55,0C349.75,209.083,349.65,209.417,349.45,209.95z"
	/>
<path fill-rule="evenodd" clip-rule="evenodd" fill="#B9FFFF" d="M352.35,200.65c-0.199,0-0.3-0.117-0.3-0.351
	c0-0.2,0.066-0.617,0.2-1.25c0.1-0.6,0.167-0.917,0.2-0.95c-0.066-0.8,0.017-1.25,0.25-1.35c0.267-0.1,0.399,0.133,0.399,0.7
	C352.8,199.583,352.55,200.65,352.35,200.65z"/>
<path fill-rule="evenodd" clip-rule="evenodd" fill="#B9FFFF" d="M352.7,199.1c0,1.3-0.184,1.95-0.55,1.95
	c-0.2,0-0.301-0.133-0.301-0.399c0.167-1.267,0.301-2.017,0.4-2.25l0.25-1.1c0.066-0.3,0.2-0.5,0.4-0.6
	c0.199-0.133,0.3-0.05,0.3,0.25C353.2,197.15,353.033,197.867,352.7,199.1z"/>
<path fill-rule="evenodd" clip-rule="evenodd" fill="#E6FFFF" fill-opacity="0.498" d="M352.25,194.6c0.467-0.333,0.7-0.233,0.7,0.3
	c0,0.133-0.134,0.617-0.4,1.45l0.2,0.6c0,0.367-0.116,0.883-0.35,1.55c-0.267,0.667-0.4,1.05-0.4,1.15l0.1,0.45
	c0,0.301-0.633,2.517-1.899,6.65c-0.2,0.667-0.684,1.783-1.45,3.35c-0.167,0.267-0.733,0.684-1.7,1.25
	c-1.166,0.634-2.184,0.95-3.05,0.95l-0.75-0.1c-0.4,0.166-0.95,0.25-1.65,0.25c-1.199,0-2.233-0.15-3.1-0.45
	c-0.667-0.233-1.066-0.483-1.2-0.75c-0.533-1-0.934-1.717-1.2-2.15c-0.8-1.233-1.25-1.966-1.35-2.199l-1.2-2
	c-0.267-0.367-0.517-1.134-0.75-2.301c-0.133-0.466-0.383-1.199-0.75-2.199c-0.2-0.567-0.416-1.284-0.649-2.15
	c-0.134-0.6-0.25-0.967-0.351-1.1c-0.166-0.167-0.3-0.316-0.399-0.45c-0.2-0.2-0.301-0.367-0.301-0.5c0-0.333,0.15-0.5,0.45-0.5
	c0.134,0,0.316,0.133,0.55,0.4c0.233,0.3,0.417,0.467,0.551,0.5c0.133,0.033,0.767,0.217,1.899,0.55c0.033,0,0.15-0.05,0.351-0.15
	c0.199,0,0.583,0.183,1.149,0.55c0.334,0.133,1.017,0.217,2.05,0.25l3.2,0.4h1.4c1.8-0.133,3.2-0.35,4.2-0.65
	c0.133-0.033,1.017-0.383,2.649-1.05l2.601-1.2C351.467,195.267,351.75,195.033,352.25,194.6z"/>
</svg>
