<?xml version="1.0" encoding="utf-8"?>
<!-- Generator: Adobe Illustrator 16.0.0, SVG Export Plug-In . SVG Version: 6.00 Build 0)  -->
<!DOCTYPE svg PUBLIC "-//W3C//DTD SVG 1.1//EN" "http://www.w3.org/Graphics/SVG/1.1/DTD/svg11.dtd">
<svg version="1.1" id="Selected_Items" xmlns="http://www.w3.org/2000/svg" xmlns:xlink="http://www.w3.org/1999/xlink" x="0px"
	 y="0px" width="550px" height="400px" viewBox="0 0 550 400" enable-background="new 0 0 550 400" xml:space="preserve">
<path fill-rule="evenodd" clip-rule="evenodd" fill="#000033" d="M224.4,114.55c-2.6,0-4.3-0.5-5.1-1.5
	c-0.433-1.3-0.8-2.216-1.1-2.75c-0.167-0.333-0.483-1.233-0.95-2.7s-0.7-2.317-0.7-2.55c0-0.767,0.25-1.517,0.75-2.25
	c0.733-1.1,1.833-1.65,3.3-1.65c0.667,0,1.083,0.05,1.25,0.15c0.066,0.034,0.1,0.133,0.1,0.3c0,0.033-0.6,0.383-1.8,1.05
	c-1.233,0.667-1.85,1.283-1.85,1.85c0,0.133,0.5,1.783,1.5,4.95c0.067,0.267,0.05,0.716-0.05,1.35
	c-0.033,0.534,0.167,0.917,0.6,1.15c0.867,0.5,1.967,0.933,3.3,1.3c0.867,0.2,1.3,0.467,1.3,0.8
	C224.95,114.383,224.767,114.55,224.4,114.55z"/>
<path fill-rule="evenodd" clip-rule="evenodd" fill="#000033" d="M247.6,95.9l0.5,0.4l4.25,0.1c0.333,0.133,0.5,0.3,0.5,0.5
	c-0.1,0.5-0.333,0.667-0.7,0.5h-4.45l-10.6,1.55c-4.867,1-7.367,1.5-7.5,1.5c-0.167-0.133-0.333-0.2-0.5-0.2l-7.8,2.3
	c-0.233-0.167-0.433-0.25-0.6-0.25c-0.434,0.167-0.733,0.25-0.9,0.25c-0.3,0-0.466-0.066-0.5-0.2c0-0.133,0-0.217,0-0.25
	c0-0.3,0.667-0.667,2-1.1c1.034-0.367,1.833-0.6,2.4-0.7l6.7-1.35c0.3-0.067,2.083-0.617,5.35-1.65c2.167-0.7,5.2-1.167,9.1-1.4
	H247.6z"/>
<path fill-rule="evenodd" clip-rule="evenodd" fill="#000033" d="M247.4,96.1c0-0.467,1.017-0.783,3.05-0.95
	c1.167-0.066,3.216-0.2,6.15-0.4h4.65c1.6,0.1,2.65,0.217,3.15,0.35c0.7,0.133,1.05,0.35,1.05,0.65c0,0.233-0.2,0.417-0.6,0.55
	l-5.8,0.1l0.05,0.2c-0.267,0.467-0.767,0.7-1.5,0.7l-5.15,0.1l-0.35,0.05c-0.3,0-0.483-0.1-0.55-0.3c0-0.167,0-0.267,0-0.3
	c-1.933-0.133-3.1-0.233-3.5-0.3C247.617,96.517,247.4,96.367,247.4,96.1z"/>
<path fill-rule="evenodd" clip-rule="evenodd" fill="#000033" d="M259.9,96.05c0-0.267,0.3-0.433,0.9-0.5
	c0.7-0.1,2.284-0.15,4.75-0.15c2.733,0,4.567,0.1,5.5,0.3c0.833,0.167,1.184,0.466,1.05,0.9c8,1.867,12,3.2,12,4
	c0,0.3-0.183,0.45-0.55,0.45c-1.133-0.433-1.916-0.65-2.35-0.65c-0.167,0.367-0.367,0.55-0.601,0.55c-0.1,0-0.983-0.317-2.649-0.95
	c-1.733-0.667-2.75-1.033-3.05-1.1c-3.033-0.633-4.6-0.95-4.7-0.95c-0.367-0.034-0.717-0.267-1.05-0.7
	c-0.267-0.333-0.983-0.483-2.15-0.45h-6C260.267,96.767,259.9,96.517,259.9,96.05z"/>
<path fill-rule="evenodd" clip-rule="evenodd" fill="#000033" d="M288.8,102.95c-0.066,0-0.467-0.184-1.2-0.55
	c-0.767-0.367-1.267-0.566-1.5-0.6c-1.666-0.433-2.75-0.7-3.25-0.8c-2-0.467-3.066-0.733-3.199-0.8c-1.4-0.4-2.101-0.767-2.101-1.1
	l0.05-0.4c1.067-0.267,3.284,0.1,6.65,1.1c3.4,1,5.1,1.867,5.1,2.6C289.35,102.767,289.167,102.95,288.8,102.95z"/>
<path fill-rule="evenodd" clip-rule="evenodd" fill="#000033" d="M289.6,103.95c0,1.633-0.166,2.883-0.5,3.75
	c-0.233,0.6-0.866,1.3-1.899,2.1c-1.134,0.833-2.084,1.25-2.851,1.25c-0.466,0-0.699-0.15-0.699-0.45l1.8-0.9
	c1.267-0.733,2.05-1.417,2.35-2.05c0.066-0.2,0.184-0.783,0.351-1.75c0.166-1,0.25-1.566,0.25-1.7c0-0.534-0.301-1.067-0.9-1.6
	c-0.634-0.567-0.95-0.95-0.95-1.15c0-0.633,0.351-0.717,1.05-0.25c0.367,0.233,0.784,0.55,1.25,0.95
	C289.517,102.35,289.767,102.95,289.6,103.95z"/>
<path fill-rule="evenodd" clip-rule="evenodd" fill="#000033" d="M229.55,113.95c0-0.067,0-0.133,0-0.2
	c0.067-0.133,0.217-0.217,0.45-0.25h6.35c3.8,0.5,6.75,0.75,8.85,0.75c0.633,0,1.533,0.083,2.7,0.25c1.2,0.133,2.65,0.2,4.35,0.2
	l7.85-0.2c0.9,0.033,1.35,0.233,1.35,0.6c0,0.167-0.15,0.233-0.45,0.2c-0.7-0.033-1.617,0.1-2.75,0.4h-5.3l-0.4,0.1h-6.3l-0.2-0.05
	l-2.55-0.05l-0.2-0.05h-1.5c-0.2,0.2-0.367,0.3-0.5,0.3c-0.333,0-1.667-0.15-4-0.45c-2.267-0.267-3.65-0.45-4.15-0.55h-6.55
	c-0.333-0.267-0.5-0.383-0.5-0.35c-0.733-0.033-1.333-0.15-1.8-0.35c-0.433-0.2-0.65-0.417-0.65-0.65c0-0.467,0.5-0.6,1.5-0.4
	c2.133,0.466,3.367,0.716,3.7,0.75H229.55z"/>
<path fill-rule="evenodd" clip-rule="evenodd" fill="#000033" d="M283.15,110.7c1.966-0.534,2.949-0.6,2.949-0.2
	c0,0.8-5.116,2.45-15.35,4.95h-2.55l-1.85,0.25l-3.5,0.05l-1.7,0.2c-0.2,0-0.8-0.184-1.8-0.55c-1.033-0.4-1.55-0.667-1.55-0.8
	c0-0.167,0.15-0.317,0.45-0.45l2.65-0.1c0.233-0.033,0.483-0.1,0.75-0.2c0.167-0.067,0.684-0.1,1.55-0.1l5.75,0.2
	c0.667-0.133,2.25-0.483,4.75-1.05c2.133-0.5,4.033-0.883,5.7-1.15C279.767,111.683,281.017,111.333,283.15,110.7z"/>
<path fill-rule="evenodd" clip-rule="evenodd" fill="#000033" d="M230.85,113.85c0,0.367-0.033,0.583-0.1,0.65
	c-0.233,0.2-0.933,0.3-2.1,0.3c-0.367,0-0.617-0.05-0.75-0.15l-0.25-0.2c-0.066,0-0.133,0.05-0.2,0.15c-0.034,0.066-0.1,0.1-0.2,0.1
	c-1.867-0.3-3.017-0.6-3.45-0.9c-0.233-0.167-0.7-0.233-1.4-0.2c-0.7,0.033-1.15-0.033-1.35-0.2c-0.267-0.2-0.4-0.4-0.4-0.6
	c0-0.167,0.083-0.283,0.25-0.35c0.434-0.167,1.3-0.15,2.6,0.05c0.767,0.267,1.633,0.383,2.6,0.35c0.9,0,1.4,0.017,1.5,0.05
	s0.267,0.017,0.5-0.05c0.267-0.1,1.1,0.017,2.5,0.35C230.767,113.233,230.85,113.45,230.85,113.85z"/>
<path fill-rule="evenodd" clip-rule="evenodd" fill="#000033" d="M221.25,102.55c-0.367,0.167-0.817,0.25-1.35,0.25
	c-0.4,0-0.6-0.15-0.6-0.45c0-0.5,0.4-0.783,1.2-0.85s1.2,0.133,1.2,0.6C221.7,102.267,221.55,102.417,221.25,102.55z"/>
<path fill-rule="evenodd" clip-rule="evenodd" fill="#000033" d="M256.45,97.45c-0.267,0-0.434-0.083-0.5-0.25
	c-0.034-0.067-0.05-0.167-0.05-0.3c0-0.333,0.767-0.65,2.3-0.95c1.566-0.3,2.483-0.267,2.75,0.1c0.933,0,1.4,0.184,1.4,0.55
	c0,0.3-0.317,0.45-0.95,0.45l-2.6-0.2c-0.3,0-0.733,0.1-1.3,0.3C256.933,97.35,256.583,97.45,256.45,97.45z"/>
<path fill-rule="evenodd" clip-rule="evenodd" fill="#000033" d="M257.25,96.55c-0.467-0.033-0.7-0.233-0.7-0.6
	c0-0.3,0.167-0.45,0.5-0.45l0.3,0.05l6.4,0.35c-0.233-0.111-0.35-0.311-0.35-0.6c0-0.466,1.267-0.417,3.8,0.15
	c2.5,0.566,3.75,1.083,3.75,1.55c0,0.367-0.133,0.55-0.4,0.55c-0.233-0.133-0.433-0.2-0.6-0.2c0.066,0.233-0.25,0.35-0.95,0.35
	l-8.45-1.05L257.25,96.55z"/>
<path fill-rule="evenodd" clip-rule="evenodd" fill="#000033" d="M261.35,96.5h3.25c1.133,0.167,2.2,0.283,3.2,0.35
	c0.434,0.066,0.65,0.25,0.65,0.55c0,0.367-0.2,0.55-0.6,0.55c-0.833,0-1.9-0.15-3.2-0.45h-3.2c-2.434,0.167-3.65-0.117-3.65-0.85
	l0.05-0.45c0.1,0,0.367,0.083,0.8,0.25C259.017,96.55,259.917,96.567,261.35,96.5z"/>
<path fill-rule="evenodd" clip-rule="evenodd" fill="#000033" d="M247.75,96.3c-1.2,0.333-2.367,0.5-3.5,0.5
	c-0.3,0-0.45-0.15-0.45-0.45c0-0.4,0.934-0.733,2.8-1c1.833-0.267,2.75-0.184,2.75,0.25C249.35,95.767,248.817,96,247.75,96.3z"/>
<path fill-rule="evenodd" clip-rule="evenodd" fill="#000033" d="M241.3,115.5c0-0.267,0.083-0.417,0.25-0.45
	c0.133-0.033,0.65-0.05,1.55-0.05l3.075,0.2c-0.017-0.025-0.025-0.092-0.025-0.2c0-0.233,0.067-0.383,0.2-0.45
	c0.233-0.133,0.75-0.117,1.55,0.05l2.75-0.05l0.2-0.05l2.75-0.05c0.667-0.133,1.55-0.233,2.65-0.3h2.85
	c1.566,0.667,2.35,1.15,2.35,1.45c0,0.233-0.1,0.383-0.3,0.45c-0.1,0.034-0.35,0.067-0.75,0.1l-7.05,0.05l-1.05-0.1l-2.55,0.05
	c-4.533-0.066-6.883-0.1-7.05-0.1C241.767,116.05,241.3,115.867,241.3,115.5z"/>
<path fill-rule="evenodd" clip-rule="evenodd" fill="#000033" d="M288.95,104.1c0,0.533-0.066,0.967-0.2,1.3
	c-0.167,0.333-0.267,0.934-0.3,1.8c-0.033,0.433-0.4,0.95-1.101,1.55c-0.833,0.667-1.399,1.117-1.699,1.35
	c-0.733,0.533-2.334,1.316-4.801,2.35c-2.899,1.233-5,1.85-6.3,1.85c-0.3,0-0.466-0.066-0.5-0.2c0-0.133,0-0.217,0-0.25
	c0-0.1,1.233-0.533,3.7-1.3c2.866-0.9,4.983-1.816,6.35-2.75c0.733-0.533,1.483-1.316,2.25-2.35c0.834-1.133,1.25-2.017,1.25-2.65
	c0-1.1-1.25-2.017-3.75-2.75c-2.533-0.767-3.8-1.283-3.8-1.55c0-0.633,0.3-0.817,0.9-0.55c0.333,0.133,0.8,0.333,1.399,0.6
	c0.034,0,0.167-0.133,0.4-0.4c0.366,0,1.134,0.25,2.3,0.75c1.066,0.434,1.75,0.767,2.05,1c0.834,0.633,1.351,1.067,1.551,1.3
	C288.85,103.433,288.95,103.733,288.95,104.1z"/>
<path fill-rule="evenodd" clip-rule="evenodd" fill="#000033" d="M230.95,99.95l0.2,0.1l1.3-0.4c0.5,0,0.75,0.15,0.75,0.45
	c0,0.4-1.083,1.033-3.25,1.9c-2.167,0.867-3.25,1.417-3.25,1.65c0,0.067,0.133,0.233,0.4,0.5c0.233,0.267,0.35,0.45,0.35,0.55
	c0,0.233-0.117,0.4-0.35,0.5c0.066,0.133,0.417,0.267,1.05,0.4l3.95,0.05c0.333,0.133,0.5,0.283,0.5,0.45
	c0,0.233-0.25,0.433-0.75,0.6c-0.533,0.167-1.167,0.25-1.9,0.25c-2.434,0-4.117-0.434-5.05-1.3c-0.5-0.467-0.75-0.967-0.75-1.5
	c0-1.533,1.283-2.933,3.85-4.2c2.567-1.3,3.85-1.534,3.85-0.7C231.517,99.417,231.217,99.65,230.95,99.95z"/>
<path fill-rule="evenodd" clip-rule="evenodd" fill="#000033" d="M236.1,106.65l-0.25,0.05h-4.75c-0.967-0.167-1.817-0.333-2.55-0.5
	c-1.433-0.3-2.15-0.617-2.15-0.95c0-0.267,0.117-0.433,0.35-0.5c0.3-0.1,0.767,0,1.4,0.3c1.133,0.333,3.117,0.367,5.95,0.1h11.45
	c0.067,0,0.233,0.05,0.5,0.15c0.233,0.1,0.45,0.15,0.65,0.15c0.033,0,0.667-0.034,1.9-0.1c1.367-0.1,2.283-0.217,2.75-0.35h3.4
	c0.3,0.067,0.45,0.233,0.45,0.5c0,0.133-0.117,0.25-0.35,0.35c-0.467,0.2-1.333,0.25-2.6,0.15c-1.133,0.3-2.05,0.517-2.75,0.65
	c-1.185,0.198-3.102,0.298-5.75,0.3c-0.031,0-0.064,0-0.1,0c0.044,0,0.077,0.009,0.1,0.025c0.01,0.121-0.157,0.212-0.5,0.275
	c-0.8,0.133-2.25-0.067-4.35-0.6H236.1z"/>
<path fill-rule="evenodd" clip-rule="evenodd" fill="#000033" d="M245.6,97.65c0.5,0.1,1.167,0.133,2,0.1h3.4
	c2.967,0.3,5.533,0.483,7.7,0.55c3.633,0.067,5.8,0.117,6.5,0.15l2.8,0.05c1.6,0.033,3.283,0.3,5.05,0.8
	c1.867,0.534,2.8,1.05,2.8,1.55c0,0.3-0.133,0.45-0.399,0.45c-0.167,0-0.667-0.183-1.5-0.55c-0.934-0.4-1.55-0.633-1.85-0.7
	c-1.667-0.367-4.333-0.45-8-0.25h-4c-0.233-0.033-1.067-0.2-2.5-0.5c-0.733-0.167-2.967-0.35-6.7-0.55h-3.2
	c-0.867,0.2-1.534,0.3-2,0.3c-0.8,0-1.684,0-2.65,0l-2.45-0.25c-0.8,0-2.05,0.3-3.75,0.9c-1.7,0.566-3.017,0.85-3.95,0.85
	c-0.633,0-1-0.083-1.1-0.25c0-0.167,0-0.267,0-0.3c0-0.5,1.067-1.033,3.2-1.6c2.5-0.667,5.167-0.917,8-0.75H245.6z"/>
<path fill-rule="evenodd" clip-rule="evenodd" fill="#000033" d="M278.65,101.95c0.3,0.167,0.449,0.55,0.449,1.15
	c0,0.8-0.449,1.433-1.35,1.9c-1.2,0.633-3.317,1.067-6.35,1.3h-2.9l-0.2-0.05l-8.05-0.05c-0.533-0.133-1.033-0.217-1.5-0.25
	c-0.5-0.067-1.033-0.167-1.6-0.3l-5.8,0.05c-0.3-0.067-0.45-0.25-0.45-0.55c0-0.333,0.283-0.533,0.85-0.6
	c0.533-0.033,2.4-0.083,5.6-0.15l5.75,0.25l5.25-0.4c0.4,0,0.667,0.067,0.8,0.2l2.8-0.05c0.3,0,1.15,0.1,2.55,0.3
	c0.4,0,1.017-0.184,1.85-0.55c0.801-0.367,1.2-0.633,1.2-0.8c0-0.167-1.283-0.667-3.85-1.5c-2.6-0.867-3.9-1.55-3.9-2.05
	c0-0.267,0.284-0.4,0.85-0.4c1.067,0,2.8,0.483,5.2,1.45C276.884,101.283,277.816,101.65,278.65,101.95z"/>
<path fill-rule="evenodd" clip-rule="evenodd" fill="#000033" d="M222.9,122.4c-0.8-2.4-1.2-3.816-1.2-4.25
	c0-0.066-0.15-0.566-0.45-1.5c-0.3-0.967-0.45-1.75-0.45-2.35c0-0.867,0.284-1.3,0.85-1.3c0.467,0,1,1.25,1.6,3.75
	c0.867,3.633,1.3,5.467,1.3,5.5c0.367,1.133,1,2.7,1.9,4.7c0.267,0.633,0.933,1.566,2,2.8c1,1.133,1.5,1.733,1.5,1.8
	c0,0.167-0.117,0.417-0.35,0.75c-0.233,0.333-0.417,0.5-0.55,0.5c-0.3,0-0.55-0.2-0.75-0.6c-0.2-0.434-0.316-0.684-0.35-0.75
	c-0.1-0.167-0.267-0.284-0.5-0.35c-0.267-0.067-0.517-0.25-0.75-0.55c-0.034-0.066-0.65-0.883-1.85-2.45
	c-0.367-0.467-0.833-1.417-1.4-2.85c-0.534-1.367-0.8-2.167-0.8-2.4c0-0.067,0.05-0.133,0.15-0.2
	C222.867,122.583,222.9,122.5,222.9,122.4z"/>
<path fill-rule="evenodd" clip-rule="evenodd" fill="#000033" d="M235.5,133.75c-1-0.033-1.733-0.283-2.2-0.75
	c-2.133-0.2-3.4-0.333-3.8-0.4c-0.467-0.067-0.7-0.267-0.7-0.6c0-0.167,0.067-0.317,0.2-0.45c-0.467-0.333-0.7-0.583-0.7-0.75
	c0-0.3,0.167-0.417,0.5-0.35c0.333,0.033,0.7,0.216,1.1,0.55c0.8,0.533,1.483,0.7,2.05,0.5c0.833,0,2.966,0.35,6.4,1.05l5.65,0.1
	l0.4,0.05l2.2-0.2h18.05c1.1,0,1.7,0.067,1.8,0.2c0.066,0.1,0.017,0.233-0.15,0.4c1.833-0.033,2.684,0.133,2.55,0.5
	c0,0.3-0.167,0.45-0.5,0.45l-2.5,0.1c-0.533,0.133-0.867,0.217-1,0.25c-0.2,0.033-0.7,0.05-1.5,0.05l-4.7-0.25
	c-0.6,0-1.283,0.083-2.05,0.25h-5.75c-0.833-0.2-1.3-0.35-1.4-0.45l-4.85-0.2c-3.3,0-5.717-0.033-7.25-0.1
	C236.65,133.767,236.033,133.783,235.5,133.75z"/>
<path fill-rule="evenodd" clip-rule="evenodd" fill="#000033" d="M288.85,107.15c0.434,0.6,0.684,1.533,0.75,2.8v3.2
	c0,0.267-0.166,1.283-0.5,3.05c-0.333,1.767-0.5,2.767-0.5,3c0,2.367-0.433,4.367-1.3,6c-0.566,1.3-1.1,2.316-1.6,3.05
	c-0.9,1.267-2.167,2.233-3.8,2.9c-1.9,0.767-4.601,1.483-8.101,2.15c-3.267,0.6-5.733,0.9-7.4,0.9c-1.133,0-1.867-0.25-2.2-0.75
	c-0.1-0.467-0.15-0.717-0.15-0.75c0-0.2,0.083-0.317,0.25-0.35c1.3-0.267,2.034-0.417,2.2-0.45l5.3-0.1c6.5-1,10.384-2.2,11.65-3.6
	c1.866-2.8,2.8-4.483,2.8-5.05c-0.134-0.167-0.2-0.333-0.2-0.5c0-0.867,0.233-1.917,0.7-3.15c0.434-1.267,0.65-2.267,0.65-3
	c0-0.367-0.117-0.983-0.351-1.85c-0.267-0.9-0.399-1.467-0.399-1.7c0-0.367,0.233-1.284,0.699-2.75
	C287.884,108.5,288.384,107.483,288.85,107.15z M265.85,133.2h0.35l-0.15-0.2h-0.7L265.85,133.2z"/>
<path fill-rule="evenodd" clip-rule="evenodd" fill="#000033" d="M240.3,124.75c-0.466,0.867-0.7,1.467-0.7,1.8
	c0,0.4,0.333,0.883,1,1.45c0.667,0.567,1,1.067,1,1.5c0,0.333,1.133,0.817,3.4,1.45c2.233,0.633,3.35,1.183,3.35,1.65
	c0,0.3-0.317,0.45-0.95,0.45c-1.9,0-4-0.9-6.3-2.7c-2.2-1.733-3.3-3.2-3.3-4.4c0-0.667,0.434-1.5,1.3-2.5
	c0.7-0.8,1.333-1.383,1.9-1.75c0.733-0.534,2.183-1.167,4.35-1.9c2.4-0.833,3.6-0.95,3.6-0.35c0,0.233-0.1,0.4-0.3,0.5
	c-0.267,0.1-0.816,0.2-1.65,0.3c-0.3,0.3-1.167,0.75-2.6,1.35c-1.533,0.6-2.566,1.133-3.1,1.6
	C241.1,123.367,240.767,123.883,240.3,124.75z"/>
<path fill-rule="evenodd" clip-rule="evenodd" fill="#000033" d="M263.45,120.5c-1.1-0.267-1.95-0.4-2.55-0.4
	c0.033,0.133-0.233,0.2-0.8,0.2c-0.5,0-1.05-0.083-1.65-0.25c-0.167,0.333-0.3,0.5-0.4,0.5c-2.2-0.566-4.433-0.85-6.7-0.85
	c-0.067,0-0.467,0.1-1.2,0.3c-0.767,0.2-1.383,0.3-1.85,0.3c-0.6-0.667-0.9-1.033-0.9-1.1c0-0.3,0.367-0.467,1.1-0.5
	c1.367-0.1,2.45-0.25,3.25-0.45h2.6c5.733-0.1,10.233,0.8,13.5,2.7c2.566,1.5,3.85,3.133,3.85,4.9c0,0.367-0.1,0.683-0.3,0.95
	c-0.2,0.3-0.3,0.567-0.3,0.8c0,0.5-0.217,0.95-0.65,1.35c-0.7,0.6-1.317,1.15-1.85,1.65c-0.733,0.867-1.267,1.417-1.6,1.65
	c-0.5,0.367-1.5,0.55-3,0.55c-0.633,0-0.95-0.15-0.95-0.45c0-0.3,0.217-0.5,0.65-0.6c0.8-0.167,1.5-0.417,2.1-0.75
	c0.434-0.233,1.034-0.75,1.8-1.55c0.267-0.333,0.667-0.9,1.2-1.7c0.567-0.9,0.85-1.433,0.85-1.6c0-0.867-0.267-1.566-0.8-2.1
	c-0.667-0.566-1.184-1.017-1.55-1.35c-0.267-0.4-0.483-0.7-0.65-0.9c-0.267-0.4-0.583-0.633-0.95-0.7
	C264.8,120.867,264.05,120.667,263.45,120.5z"/>
<path fill-rule="evenodd" clip-rule="evenodd" fill="#000033" d="M249.25,125.55v-0.05c1.3,0.027,1.95,0.261,1.95,0.7
	c-2.333,1.167-3.934,1.75-4.8,1.75c-1.5,0-2.25-0.267-2.25-0.8c0-0.167,0.85-0.483,2.55-0.95
	C247.567,125.967,248.417,125.75,249.25,125.55z"/>
<path fill-rule="evenodd" clip-rule="evenodd" fill="#000033" d="M263.85,128.45c-0.367-0.1-0.85-0.15-1.45-0.15
	c-0.533,0-1.267-0.367-2.2-1.1c-0.867-0.667-1.3-1.05-1.3-1.15c0-0.7,0.917-0.816,2.75-0.35c1.8,0.466,2.7,1.2,2.7,2.2
	C264.35,128.267,264.183,128.45,263.85,128.45z"/>
<path fill-rule="evenodd" clip-rule="evenodd" fill="#000033" d="M256.75,130.05c-0.567,0.267-0.933,0.4-1.1,0.4
	c-1.033,0-1.816-0.233-2.35-0.7c-0.333-0.467-0.5-0.717-0.5-0.75c0-0.467,0.8-0.667,2.4-0.6c1.6,0.067,2.4,0.417,2.4,1.05
	C257.6,129.583,257.317,129.783,256.75,130.05z"/>
<path fill-rule="evenodd" clip-rule="evenodd" fill="#000033" d="M217.95,129.9c0.233,0.233,0.483,0.833,0.75,1.8
	c0,1-0.267,1.5-0.8,1.5c-0.1,0-0.233-0.034-0.4-0.1c-0.167-0.1-0.35-0.184-0.55-0.25c0,0.867-0.25,1.733-0.75,2.6
	c-0.534,0.9-1.1,1.35-1.7,1.35c-0.9,0-1.533-0.483-1.9-1.45c-0.2-0.5-0.3-1.033-0.3-1.6c0-0.467,0.067-1,0.2-1.6
	c0.167-0.7,0.267-1.283,0.3-1.75c0.333-0.566,0.95-1.066,1.85-1.5c0.9-0.433,1.5-0.9,1.8-1.4c0.3-0.6,1.466-1.883,3.5-3.85
	c2.167-2.133,3.25-2.733,3.25-1.8c0,0.233-1.284,1.633-3.85,4.2c-0.467,0.467-1.367,1.483-2.7,3.05
	c-0.367,0.433-0.983,0.65-1.85,0.65c-0.8,0-1.2,0.683-1.2,2.05l-0.4,2c0,0.3,0.117,0.684,0.35,1.15c0.267,0.533,0.567,0.8,0.9,0.8
	c0.433,0,0.783-0.283,1.05-0.85c0.2-0.467,0.3-0.917,0.3-1.35c0.1-0.167,0.167-0.55,0.2-1.15c0.2-0.467,0.767-0.633,1.7-0.5
	c-0.534-1.267-0.8-1.983-0.8-2.15c0-0.133,1.15-1.133,3.45-3c2.233-1.833,3.383-2.75,3.45-2.75c0.4,0,0.583,0.167,0.55,0.5
	c0,0.133-0.883,0.933-2.65,2.4C219.667,128.5,218.417,129.5,217.95,129.9z"/>
<path fill-rule="evenodd" clip-rule="evenodd" fill="#000033" d="M290.55,122.2c0.066,0.133,0.467,0.683,1.2,1.65
	c0.4,0.533,0.6,1.066,0.6,1.6c0,0.133-0.083,0.483-0.25,1.05v0.55l0.051,0.1c0,0.033,0.05,0.05,0.149,0.05
	c0.066,0,0.2-0.067,0.4-0.2c0.267-0.167,0.566-0.25,0.899-0.25c0.733,0,1.117,0.533,1.15,1.6c0.066,1.033,0.434,1.55,1.1,1.55
	c0.334,0,0.567-0.633,0.7-1.9c0-1.467-0.883-2.45-2.649-2.95c-0.601-0.167-1.267-0.667-2-1.5
	C291.134,122.683,290.684,122.233,290.55,122.2z M293.05,123.25c0.167,0.133,0.816,0.5,1.95,1.1c0.967,0.5,1.583,0.9,1.85,1.2
	c0.301,0.333,0.483,0.75,0.551,1.25c0.033,0.167,0.05,0.583,0.05,1.25c0,0.567-0.084,1.117-0.25,1.65
	c-0.267,0.833-0.7,1.25-1.3,1.25c-1.267,0-1.983-0.45-2.15-1.35c0.033-1,0-1.617-0.1-1.85c-0.267,0.067-0.467,0.2-0.601,0.4
	c-0.133,0.2-0.333,0.3-0.6,0.3c-0.8,0-1.233-0.483-1.3-1.45c0.1-0.933,0.149-1.417,0.149-1.45c0-0.433-1.25-2.117-3.75-5.05
	c0-0.267,0.134-0.45,0.4-0.55c-0.2-0.2-0.3-0.35-0.3-0.45c0-0.833,0.733-0.65,2.199,0.55
	C291.017,120.983,292.083,122.05,293.05,123.25z"/>
<path fill-rule="evenodd" clip-rule="evenodd" fill="#000033" d="M241.6,134.5c0.1-0.367,0.183-0.8,0.25-1.3l0.3-0.05
	c0.167,0,0.333,0.067,0.5,0.2l0.6-0.55c0.4-0.233,0.6-0.066,0.6,0.5c0,0.167-0.083,0.367-0.25,0.6c0,0.533,0.417,1.633,1.25,3.3
	c0.066,0.233,0.3,0.517,0.7,0.85c0.434,0.367,0.667,0.65,0.7,0.85c0.033,0.3,0.15,0.833,0.35,1.6c0,0.567-0.233,0.983-0.7,1.25
	c-0.5,0.267-0.767,0.6-0.8,1c0,0.067-0.017,0.433-0.05,1.1c-0.2,0.633-0.867,0.95-2,0.95c-1.767,0-2.65-0.517-2.65-1.55
	c0-0.5,0.367-1,1.1-1.5c0.7-0.467,1.05-0.983,1.05-1.55c0-0.333-0.167-1.117-0.5-2.35c-0.333-1.267-0.5-2.117-0.5-2.55
	C241.55,134.9,241.567,134.633,241.6,134.5z M242.45,135.25c0,0.1,0.167,0.85,0.5,2.25c0.333,1.4,0.5,2.317,0.5,2.75
	c0,0.533-0.333,1.15-1,1.85c-0.667,0.7-1,1.066-1,1.1c0,0.2,0.183,0.35,0.55,0.45c0.3,0.1,0.633,0.15,1,0.15
	c0.8,0,1.217-0.183,1.25-0.55c-0.133-0.5-0.167-0.85-0.1-1.05c0.067-0.3,0.333-0.633,0.8-1c0.466-0.367,0.7-0.567,0.7-0.6
	c0-0.067-0.417-0.9-1.25-2.5c-0.9-1.733-1.483-2.983-1.75-3.75C242.617,134.55,242.55,134.85,242.45,135.25z"/>
<path fill-rule="evenodd" clip-rule="evenodd" fill="#000033" d="M268.25,133.4c0.4,0,0.55,0.717,0.45,2.15
	c0,1.2-0.267,2.717-0.8,4.55c0,0.2,0.067,0.316,0.2,0.35c0.133,0.033,0.55,0.05,1.25,0.05c0.767,0,1.3,0.367,1.6,1.1
	c0.367,0.933,0.783,1.55,1.25,1.85h0.95c0.067-0.034,0.15-0.067,0.25-0.1c0.067-0.033,0.1-0.1,0.1-0.2
	c0-1.167-0.583-2.117-1.75-2.85c-1.167-0.7-1.733-1.333-1.7-1.9c0.034-1.133-0.1-2.033-0.4-2.7c-0.333-0.7-0.5-1.4-0.5-2.1
	c0-0.3,0.1-0.583,0.3-0.85c0.2-0.267,0.4-0.15,0.6,0.35c0.067,0.667,0.15,1.133,0.25,1.4c0.434,1.433,0.65,2.4,0.65,2.9
	c-0.034,0.6,0.333,1.2,1.1,1.8c0.4,0.333,0.917,0.7,1.55,1.1c0.2,0.167,0.4,0.6,0.6,1.3c0.167,0.633,0.25,1.133,0.25,1.5
	c0,0.9-0.6,1.35-1.8,1.35c-0.9,0-1.55-0.217-1.95-0.65c-0.267-0.5-0.45-0.833-0.55-1c-0.167-0.566-0.283-0.917-0.35-1.05
	c-0.066-0.133-0.533-0.2-1.4-0.2c-0.633,0-1.066-0.25-1.3-0.75l-0.2-0.75c0.6-1.633,0.9-2.767,0.9-3.4c-0.066-0.867-0.1-1.533-0.1-2
	C267.7,133.817,267.883,133.4,268.25,133.4z"/>
<path fill-rule="evenodd" clip-rule="evenodd" fill="#333399" d="M239.5,127.7c0-0.867,0-1.333,0-1.4c0-1.733,1.533-3.417,4.6-5.05
	c3.033-1.633,4.55-1.533,4.55,0.3c0,0.467-0.667,1.083-2,1.85c-1.467,0.8-2.3,1.417-2.5,1.85c-1.1,2.433-2.15,3.65-3.15,3.65
	C240.2,128.9,239.7,128.5,239.5,127.7z"/>
<path fill-rule="evenodd" clip-rule="evenodd" fill="#333399" d="M242.75,125.25c0.7,0,1.083,0.5,1.15,1.5
	c0,0.333-0.183,0.75-0.55,1.25c0.3,0.433,0.65,0.8,1.05,1.1c0.333,0.233,0.917,0.566,1.75,1c1.4,0.733,4.6,0.867,9.6,0.4
	c0,0.055,0,0.105,0,0.15c3.937-0.062,6.937-0.562,9-1.5c1.833-0.8,2.75-1.8,2.75-3c0-1.167-0.383-2.05-1.15-2.65
	c-0.934-0.733-2.517-1.1-4.75-1.1c-3.633,0-6.917-0.25-9.85-0.75c-1.7-0.3-3.133-0.4-4.3-0.3c-0.467,0.066-0.7-0.033-0.7-0.3
	c0-1.168,2.717-1.768,8.15-1.8v0.35c0-0.233,1.1-0.317,3.3-0.25c1.133,0.033,2.4,0.083,3.8,0.15c2.1,0,4.017,0.867,5.75,2.6
	c1.433,1.433,2.15,2.566,2.15,3.4c0,1.833-0.917,3.367-2.75,4.6c-2.5,1.7-6.517,2.55-12.05,2.55c-4.833,0-8.667-0.6-11.5-1.8
	c-2.4-1-3.6-2.133-3.6-3.4C241.767,125.983,242.683,125.25,242.75,125.25z"/>
<path fill-rule="evenodd" clip-rule="evenodd" fill="#333399" d="M250.95,121.9c3.3-0.1,4.95,0.65,4.95,2.25
	c0,0.9-0.667,1.667-2,2.3c-1.367,0.633-2.05,1.283-2.05,1.95c0,0.2,0.3,0.617,0.9,1.25s0.9,1.05,0.9,1.25
	c0,0.434-0.167,0.717-0.5,0.85c-0.2,0.1-0.583,0.15-1.15,0.15c-1.867,0-3.783-0.383-5.75-1.15c-1.667-0.633-2.5-1.1-2.5-1.4
	c0-0.5,0.167-0.817,0.5-0.95c0.133-0.033,0.483-0.05,1.05-0.05c2.8,0,4.617-0.383,5.45-1.15c0.5-0.5,1.333-1.45,2.5-2.85
	c-3.267-0.2-5.25-0.35-5.95-0.45c-0.867-0.1-1.3-0.383-1.3-0.85C246,122.383,247.65,122,250.95,121.9z"/>
<path fill-rule="evenodd" clip-rule="evenodd" fill="#333399" d="M252.375,123.25c0.263,0.005,0.805,0.172,1.625,0.5
	c0.167,0,0.25-0.133,0.25-0.4C254.018,123.284,253.393,123.25,252.375,123.25z M258.9,123c0,0.667-0.85,1-2.55,1
	c0.066,0.133,0.183,0.367,0.35,0.7c0.133,0.3,0.2,0.583,0.2,0.85c0,0.733-0.35,1.1-1.05,1.1c-0.267,0-1.017-0.283-2.25-0.85
	c-1.267-0.6-2.05-0.9-2.35-0.9c-0.4,0.233-1.05,0.35-1.95,0.35c-1.533,0.267-3,0.433-4.4,0.5c-0.2,0.1-0.5,0.15-0.9,0.15
	c-0.667,0-1-0.283-1-0.85c0-0.367,0.467-0.883,1.4-1.55c1.133-0.8,2.25-1.167,3.35-1.1l0.75-0.25c-0.467-1.333,1.133-1.733,4.8-1.2
	C257.033,121.517,258.9,122.2,258.9,123z"/>
<path fill-rule="evenodd" clip-rule="evenodd" fill="#333399" d="M260.5,121.75c5.267,0,7.9,1.25,7.9,3.75
	c0,0.033-0.083,0.65-0.25,1.85c-0.3,1.2-0.85,1.8-1.65,1.8c-0.333,0-0.85-0.55-1.55-1.65c-0.767-1.2-1.284-1.867-1.55-2
	c-0.8-0.467-2.383-0.617-4.75-0.45c-1.933,0.1-2.9-0.15-2.9-0.75c0-0.167,0.083-0.383,0.25-0.65c0.267-0.367,0.65-0.583,1.15-0.65
	c-0.1-0.1-0.183-0.183-0.25-0.25c-0.1-0.133-0.15-0.317-0.15-0.55c0-0.3,0.133-0.534,0.4-0.7c0.233-0.167,0.467-0.25,0.7-0.25
	s0.683,0.083,1.35,0.25C259.867,121.667,260.3,121.75,260.5,121.75z"/>
<path fill-rule="evenodd" clip-rule="evenodd" fill="#333399" d="M265.25,131.75c-1.033,0.6-2.333,0.9-3.9,0.9
	c-2.067,0-3.1-0.367-3.1-1.1c0-0.433,1.4-0.933,4.2-1.5c2.8-0.6,4.2-0.7,4.2-0.3C266.65,130.517,266.183,131.183,265.25,131.75z"/>
<path fill-rule="evenodd" clip-rule="evenodd" fill="#333399" d="M252.1,132.9c-0.233,0.333-0.517,0.5-0.85,0.5
	c-1.333,0-2.5-0.3-3.5-0.9c-0.833-0.5-1.25-0.933-1.25-1.3c0-0.9,0.983-1.05,2.95-0.45c1.966,0.567,2.95,1.067,2.95,1.5
	C252.4,132.45,252.3,132.667,252.1,132.9z"/>
<path fill-rule="evenodd" clip-rule="evenodd" fill="#333399" d="M256.85,133.65c-4.4,0-6.6-0.566-6.6-1.7
	c0-0.133,0.067-0.317,0.2-0.55c0.2-0.267,0.466-0.4,0.8-0.4c0.4,0,1.6,0.167,3.6,0.5c1.7,0,3.983-0.35,6.85-1.05
	c1.466-0.333,2.2-0.05,2.2,0.85C263.9,132.867,261.55,133.65,256.85,133.65z"/>
<path fill-rule="evenodd" clip-rule="evenodd" fill="#333399" d="M263.75,130.5c-0.633,0.267-1.133,0.4-1.5,0.4
	c-1.533,0-3.367-0.967-5.5-2.9c-1.833-1.933-2.75-2.917-2.75-2.95c0-1.066,0.65-1.233,1.95-0.5c0.667,0.367,1.55,0.934,2.65,1.7
	c1.333,0.867,3.433,1.95,6.3,3.25C264.9,129.833,264.517,130.167,263.75,130.5z"/>
<path fill-rule="evenodd" clip-rule="evenodd" fill="#333399" d="M262.25,125c-0.5-0.167-0.95-0.25-1.35-0.25
	c-0.933,0-1.933,0.267-3,0.8c-0.933,0.534-1.483,0.817-1.65,0.85l-0.9-0.3l-0.1-0.55c0.267-0.533,1.05-1.133,2.35-1.8
	c1.566-0.833,2.95-1.167,4.15-1c0.6,0.5,0.9,0.9,0.9,1.2C262.65,124.65,262.517,125,262.25,125z"/>
<path fill-rule="evenodd" clip-rule="evenodd" fill="#333399" d="M252.85,125.3l-0.15,0.3l0.1,0.25l-0.65,0.7
	c-0.167,0-0.633-0.25-1.4-0.75h-1.1l-0.15,0.1c-0.733,0.033-1.267,0.1-1.6,0.2c-0.5,0.167-0.983,0.283-1.45,0.35
	c-1.3,0.533-2.1,0.8-2.4,0.8c-0.133,0-0.216-0.083-0.25-0.25l-0.05-0.25c0-0.2,0.267-0.367,0.8-0.5c0.267-0.033,0.65-0.1,1.15-0.2
	c0.167-0.1,0.466-0.25,0.9-0.45c0.566-0.233,0.983-0.35,1.25-0.35c0.066,0,0.133,0.05,0.2,0.15c0.066,0.099,0.1,0.166,0.1,0.2
	c0.001-0.167,0.435-0.233,1.3-0.2l0.15-0.1c0.467,0,0.75-0.017,0.85-0.05l0.4,0.05l0.15,0.1c0.033,0,0.15-0.1,0.35-0.3
	c0.3-0.167,0.7-0.2,1.2-0.1L252.85,125.3z"/>
<path fill-rule="evenodd" clip-rule="evenodd" fill="#333399" d="M252.1,124.9c0,0.067-0.184,0.317-0.55,0.75h-1.15l-0.2-0.1
	c-0.667,0.267-1.2,0.4-1.6,0.4c-0.133-0.133-0.233-0.2-0.3-0.2c-0.3,0.1-0.55,0.15-0.75,0.15l-0.55-0.1
	c-0.333,0.133-0.65,0.184-0.95,0.15c-0.966,0.3-1.566,0.716-1.8,1.25c-0.1,0.233-0.15,0.7-0.15,1.4c0,0.233-0.083,0.35-0.25,0.35
	c-0.167,0-0.25-0.083-0.25-0.25l-0.2,0.1l-0.25-0.05l-0.05-0.2c0-0.1,0.1-0.333,0.3-0.7c-0.267,0-0.4-0.083-0.4-0.25
	c0-0.067,0.1-0.2,0.3-0.4c0.167-0.2,0.284-0.317,0.35-0.35c-0.267-0.267-0.4-0.467-0.4-0.6c0-0.167,0.283-0.367,0.85-0.6
	c0.533-0.233,0.933-0.35,1.2-0.35c0.1,0,0.167,0.034,0.2,0.1c0.067,0.033,0.217,0.05,0.45,0.05c0.267,0,0.716-0.067,1.35-0.2
	s1.117-0.2,1.45-0.2l0.35,0.1l0.7-0.2c0.034,0,0.6-0.117,1.7-0.35C251.9,124.533,252.1,124.633,252.1,124.9z"/>
<path fill-rule="evenodd" clip-rule="evenodd" fill="#333399" d="M251.9,126.3c-1.467,1.434-2.35,2.15-2.65,2.15l-0.3-0.15
	l-0.6,0.15c-0.067-0.067-0.15-0.1-0.25-0.1c-0.2,0-0.55,0.066-1.05,0.2c-0.466,0.133-1.066,0.2-1.8,0.2
	c-0.567,0-1.017-0.083-1.35-0.25c-0.233-0.133-0.35-0.25-0.35-0.35c0.167-0.3,0.25-0.533,0.25-0.7c0-0.167,0.083-0.25,0.25-0.25
	c0.067,0,0.184,0.083,0.35,0.25c0.233,0.167,0.633,0.25,1.2,0.25c0.566,0,1.35-0.133,2.35-0.4c0.8-0.2,1.433-0.4,1.9-0.6
	c0.267-0.133,0.717-0.35,1.35-0.65C251.667,125.85,251.9,125.933,251.9,126.3z"/>
<path fill-rule="evenodd" clip-rule="evenodd" fill="#333399" d="M253.9,126.8c0,0.333-0.583,0.934-1.75,1.8v0.1l0.15,0.1
	c0.034,0,0.467-0.25,1.3-0.75c0.829-0.431,1.245-0.464,1.25-0.1c-0.002-0.066-0.036-0.083-0.1-0.05
	c-0.129,0.032-0.212,0.049-0.25,0.05c0.437,0,1.287,0.117,2.55,0.35c0.633,0.233,0.95,0.534,0.95,0.9c0,0.267-0.183,0.583-0.55,0.95
	c-0.5,0.434-1.117,0.65-1.85,0.65c-0.833,0-1.25-0.117-1.25-0.35c0-0.133,0.083-0.217,0.25-0.25h0.5l0.25,0.1
	c0.3,0,0.583-0.05,0.85-0.15c0.267-0.133,0.483-0.2,0.65-0.2c0.2,0,0.417-0.267,0.65-0.8c0-0.267-0.35-0.45-1.05-0.55
	c-0.867-0.067-1.434-0.117-1.7-0.15h-0.8c-0.9,0.566-1.467,0.85-1.7,0.85c-0.433,0-0.65-0.167-0.65-0.5
	c-0.167-0.267-0.25-0.466-0.25-0.6s0.133-0.35,0.4-0.65c0.267-0.267,0.483-0.466,0.65-0.6c0.3-0.233,0.583-0.4,0.85-0.5
	C253.683,126.283,253.9,126.4,253.9,126.8z"/>
<path fill-rule="evenodd" clip-rule="evenodd" fill="#333399" d="M257.85,129.55c-0.033,0-0.35-0.35-0.95-1.05
	c0-0.433,0.2-0.483,0.6-0.15c0.367,0.333,0.55,0.6,0.55,0.8C258.05,129.417,257.983,129.55,257.85,129.55z"/>
<path fill-rule="evenodd" clip-rule="evenodd" fill="#333399" d="M258.5,128.95l0.05,0.2l0.1-0.05L258.5,128.95z M259.9,129.35
	l-0.2,0.3l0.35,0.35h0.3c0.167,0,0.267,0.083,0.3,0.25c0,0.1-0.1,0.217-0.3,0.35c-0.167,0.1-0.317,0.15-0.45,0.15l-0.35,0.25
	l-0.2-0.1c-0.067,0.067-0.15,0.1-0.25,0.1l-0.45-0.1l-0.65,0.05c-0.1,0-0.267,0.1-0.5,0.3c-0.233,0.167-0.383,0.25-0.45,0.25
	c-0.2,0-0.3-0.167-0.3-0.5l-0.15,0.05c-0.067,0-0.133-0.05-0.2-0.15l-0.05-0.15c1.1-1.067,1.65-1.65,1.65-1.75l-0.35-0.55
	c-0.033,0.133-0.117,0.2-0.25,0.2c-0.1,0-0.183-0.066-0.25-0.2l-0.3,0.2c-0.133,0-0.2-0.05-0.2-0.15c-0.4,0.033-0.65,0.05-0.75,0.05
	c-0.133-0.033-0.383-0.117-0.75-0.25c-0.433-0.2-0.717-0.3-0.85-0.3c-0.4,0.167-0.683,0.25-0.85,0.25c-0.2,0-0.333,0.117-0.4,0.35
	c-0.033,0.1-0.05,0.2-0.05,0.3c0,0.267,0.283,0.567,0.85,0.9c0.533,0.3,0.8,0.55,0.8,0.75c0,0.4-0.15,0.6-0.45,0.6
	c-0.467,0-0.934-0.283-1.4-0.85c-0.5-0.566-0.716-1.033-0.65-1.4c-0.233-0.066-0.35-0.133-0.35-0.2c0-0.233,0.1-0.417,0.3-0.55
	c0.133-0.1,0.483-0.35,1.05-0.75c0.067-0.066,0.167-0.283,0.3-0.65s0.316-0.6,0.55-0.7c0.267-0.133,0.567-0.216,0.9-0.25
	c0.467,0,0.767,0.167,0.9,0.5c0,0.1,0.034,0.2,0.1,0.3c0.1,0.167,0.25,0.233,0.45,0.2c0.133-0.033,0.333,0.05,0.6,0.25
	c0.267,0.2,0.433,0.3,0.5,0.3c0.033,0,0.133-0.067,0.3-0.2c0.133,0,0.533,0.367,1.2,1.1C259.283,128.617,259.6,128.983,259.9,129.35
	z"/>
<path fill-rule="evenodd" clip-rule="evenodd" fill="#333399" d="M261.3,125.25l-0.25,0.25c-0.533-0.067-0.883-0.05-1.05,0.05
	c-0.167,0.133-0.283,0.2-0.35,0.2l-0.3-0.1c-0.067,0-0.133,0.05-0.2,0.15l-0.05,0.15c0,0.167,0.233,0.433,0.7,0.8
	c0.467,0.367,0.7,0.6,0.7,0.7c0,0.066-0.133,0.167-0.4,0.3l-0.25,0.25c-0.1,0-0.55-0.45-1.35-1.35c-0.033,0.067-0.1,0.1-0.2,0.1
	c-0.367,0-0.6-0.083-0.7-0.25c-0.033-0.033-0.05-0.133-0.05-0.3c0-0.6,0.25-1,0.75-1.2c0.1-0.067,0.184-0.167,0.25-0.3
	c0.067-0.133,0.184-0.2,0.35-0.2c0.333,0,0.533,0.15,0.6,0.45c0.167-0.1,0.333-0.15,0.5-0.15c0.367,0,0.717,0.05,1.05,0.15
	C261.083,125.017,261.167,125.117,261.3,125.25z"/>
<path fill-rule="evenodd" clip-rule="evenodd" fill="#333399" d="M262.3,124.75l1.6,0.75c0.367,0.2,0.583,0.333,0.65,0.4
	c0.034,0.033,0.05,0.15,0.05,0.35l0.15,0.5c0,0.033,0.067,0.083,0.2,0.15c0.167,0.1,0.283,0.35,0.35,0.75
	c0.034,0.2,0.133,0.333,0.3,0.4c0.167,0.1,0.25,0.233,0.25,0.4c0,0.2-0.05,0.4-0.15,0.6c-0.167,0.3-0.383,0.45-0.65,0.45
	c-0.066,0-0.133,0.083-0.2,0.25c-0.067,0.167-0.15,0.25-0.25,0.25s-0.217-0.133-0.35-0.4c-0.167-0.267-0.317-0.434-0.45-0.5
	c-0.066-0.033-0.466-0.083-1.2-0.15c-0.533-0.067-0.8-0.233-0.8-0.5c0-0.233,0.4-0.333,1.2-0.3l0.15-0.1h0.35
	c0.167,0.067,0.383,0.167,0.65,0.3l0.1-0.35c0-0.233-0.1-0.483-0.3-0.75c-0.3-0.3-0.534-0.55-0.7-0.75
	c-0.933-0.4-1.417-0.6-1.45-0.6c-0.8-0.2-1.566-0.283-2.3-0.25c-0.4,0-0.6-0.083-0.6-0.25v-0.15c0.033,0,0.117-0.033,0.25-0.1
	c0.567,0,0.9-0.033,1-0.1c0.067,0,0.317,0.034,0.75,0.1c-0.2-0.066-0.3-0.15-0.3-0.25c0-0.233,0.233-0.333,0.7-0.3
	C261.533,124.633,261.867,124.683,262.3,124.75z"/>
<path fill-rule="evenodd" clip-rule="evenodd" fill="#333399" d="M255.45,120c-0.867,0-1.3-0.117-1.3-0.35
	c0-0.333,0.367-0.483,1.1-0.45c0.733,0.033,1.1,0.2,1.1,0.5C256.35,119.9,256.05,120,255.45,120z"/>
<path fill-rule="evenodd" clip-rule="evenodd" fill="#333399" d="M241.5,143.65c-0.1-0.133-0.15-0.35-0.15-0.65
	c0-0.1,0.333-0.483,1-1.15c0.667-0.667,1-1.317,1-1.95c-0.133-0.267-0.217-0.617-0.25-1.05l-0.1-1c-0.467-1.267-0.7-1.95-0.7-2.05
	l0.1-0.35l-0.1-0.8l0.1-0.85c0.5-0.2,0.75-0.066,0.75,0.4c0,0.1-0.05,0.3-0.15,0.6c1.833,3.5,2.75,5.35,2.75,5.55
	c0,0.167-0.067,0.35-0.2,0.55c-0.2,0.233-0.433,0.4-0.7,0.5l0.05,0.15c0,0.133-0.066,0.317-0.2,0.55
	c-0.167,0.233-0.284,0.5-0.35,0.8c-0.033,0.133-0.05,0.367-0.05,0.7c-0.033,0.3-0.216,0.517-0.55,0.65h-1.25
	C242,144.05,241.667,143.85,241.5,143.65z"/>
<path fill-rule="evenodd" clip-rule="evenodd" fill="#333399" d="M269.45,134.65c0,0.033,0.1,0.267,0.3,0.7
	c0.2,0.433,0.3,0.733,0.3,0.9l0.2,1.45l-0.1,0.5v0.4l2.35,1.8c0.067,0.067,0.2,0.117,0.4,0.15c0.167,0.034,0.3,0.1,0.4,0.2
	c0.167,0.167,0.3,0.35,0.4,0.55l0.15,1c0,1-0.233,1.5-0.7,1.5c-0.967,0-1.733-0.533-2.3-1.6c-0.533-1.067-0.95-1.6-1.25-1.6
	l-0.55,0.1c-0.133-0.067-0.233-0.1-0.3-0.1l-0.55,0.1c-0.3,0-0.5-0.133-0.6-0.4l-0.1-0.4c0-0.233,0.067-0.433,0.2-0.6
	c0.2-0.233,0.333-0.483,0.4-0.75c0.033-0.267,0.167-0.7,0.4-1.3c-0.133-0.067-0.2-0.167-0.2-0.3l0.1-1.35
	c0.2-0.733,0.3-1.184,0.3-1.35c-0.1-0.1-0.15-0.183-0.15-0.25c0-0.2,0.184-0.267,0.55-0.2c0.333,0.067,0.5,0.2,0.5,0.4
	L269.45,134.65z"/>
<path fill-rule="evenodd" clip-rule="evenodd" fill="#333399" d="M290.75,121.85c0.533,0.433,1.267,1.2,2.2,2.3
	c0.1,0.1,0.45,0.267,1.05,0.5c0.667,0.2,1.066,0.35,1.2,0.45c0.633,0.467,1,0.85,1.1,1.15c0,0.1,0.117,0.5,0.351,1.2
	c0.166,0.6,0.25,1.033,0.25,1.3c-0.134,1.1-0.483,1.65-1.051,1.65c-0.533,0-0.916-0.267-1.149-0.8c-0.134-0.3-0.2-0.6-0.2-0.9
	c0-0.4-0.066-0.784-0.2-1.15c-0.2-0.4-0.434-0.6-0.7-0.6l-0.5,0.15c-0.1,0-0.149,0.066-0.149,0.2c-0.033,0.133-0.15,0.2-0.351,0.2
	c-0.5,0-0.75-0.133-0.75-0.4l0.15-0.35l-0.1-0.35c0.199-0.467,0.3-0.8,0.3-1c0-0.167-0.267-0.65-0.8-1.45
	c-0.733-0.934-1.25-1.567-1.551-1.9c-1.233-0.867-1.85-1.517-1.85-1.95C288,119.433,288.917,120.017,290.75,121.85z M295.35,126.25
	c0-0.133-0.05-0.217-0.149-0.25c-0.3-0.133-0.483-0.217-0.55-0.25c-0.9-0.367-1.367-0.55-1.4-0.55c0,0.233-0.083,0.517-0.25,0.85
	l0.15-0.05l0.75,0.4c0.5,0.3,0.8,0.6,0.899,0.9c0.132,0.527,0.198,1.035,0.2,1.525c0.008-0.383,0.258-0.575,0.75-0.575
	c0.1,0,0.217,0.067,0.35,0.2l-0.05-0.75l0.101-0.4c-0.334-0.6-0.517-0.9-0.551-0.9C295.467,126.4,295.384,126.35,295.35,126.25z"/>
<path fill-rule="evenodd" clip-rule="evenodd" fill="#333399" d="M294.1,125.05c0.101,0,0.25,0.083,0.45,0.25
	c0.2,0.133,0.384,0.2,0.55,0.2c0.101,0,0.25,0.117,0.45,0.35c0.233,0.267,0.367,0.5,0.4,0.7c0,0.1,0.066,0.167,0.2,0.2
	c0.166,0.067,0.267,0.15,0.3,0.25l0.05,0.5c0,0.633-0.217,1.15-0.65,1.55h-0.35c-0.033,0.267-0.15,0.4-0.35,0.4
	c-0.067,0-0.15-0.184-0.25-0.55l-0.15-0.6c0.1-0.2,0.15-0.35,0.15-0.45c0-0.367-0.4-0.767-1.2-1.2c-0.8-0.433-1.2-0.7-1.2-0.8
	c0-0.2,0.083-0.3,0.25-0.3c0.033,0,0.1,0.05,0.2,0.15h0.149c-0.3-0.233-0.449-0.4-0.449-0.5c0-0.233,0.149-0.3,0.449-0.2
	c0.167,0.067,0.384,0.15,0.65,0.25C293.85,125.25,293.967,125.183,294.1,125.05z"/>
<path fill-rule="evenodd" clip-rule="evenodd" fill="#333399" d="M223.35,122.7c0,0.167-0.017,0.383-0.05,0.65
	c0,0.3,0.117,0.667,0.35,1.1c-1.2,0.933-2.4,1.867-3.6,2.8c-2.433,1.867-3.7,2.8-3.8,2.8c-0.133,0-0.2-0.05-0.2-0.15v-0.15
	c0-0.1,0.083-0.183,0.25-0.25l-0.15-0.3l3.35-3.45c0.067-0.067,0.6-0.633,1.6-1.7c0.6-0.633,1.083-1.216,1.45-1.75l0.3-0.05
	C223.15,122.25,223.317,122.4,223.35,122.7z"/>
<path fill-rule="evenodd" clip-rule="evenodd" fill="#333399" d="M216.7,129.4c0,0.167-0.2,0.383-0.6,0.65
	c-0.434,0.267-0.65,0.417-0.65,0.45c0,0.3,0.017,0.717,0.05,1.25v0.05c0.067-0.066,0.117-0.15,0.15-0.25
	c0.033-0.1,0.117-0.15,0.25-0.15c0.167,0,0.267,0.167,0.3,0.5c-0.034,2.7-0.667,4.05-1.9,4.05c-0.367,0-0.7-0.317-1-0.95l-0.35-0.95
	c0-0.233,0.083-0.633,0.25-1.2c0.2-0.633,0.316-1,0.35-1.1c0-0.5,0.034-0.883,0.1-1.15c0.133-0.667,0.434-1,0.9-1
	c0.067,0,0.3-0.067,0.7-0.2c0.133,0,0.283,0.05,0.45,0.15l0.6-0.35C216.567,129.033,216.7,129.1,216.7,129.4z"/>
<path fill-rule="evenodd" clip-rule="evenodd" fill="#333399" d="M217.3,128.9c0.3-0.267,0.45-0.25,0.45,0.05
	c0,0.1-0.083,0.267-0.25,0.5c-0.167,0.267-0.25,0.433-0.25,0.5c0,0.1,0.167,0.417,0.5,0.95c0.3,0.567,0.45,0.934,0.45,1.1
	c0,0.467-0.117,0.7-0.35,0.7c-0.733-0.2-1.333-0.3-1.8-0.3c-0.4-0.1-0.617-0.2-0.65-0.3c0.033-0.133,0.05-0.233,0.05-0.3l-0.3-0.65
	c0-0.2,0.184-0.533,0.55-1c0.4-0.533,0.767-0.8,1.1-0.8L217.3,128.9z"/>
<path fill-rule="evenodd" clip-rule="evenodd" fill="#333399" d="M220.2,125.55c0,0.233-0.75,1.05-2.25,2.45
	c-1.567,1.433-2.55,2.15-2.95,2.15c-0.133,0-0.2-0.033-0.2-0.1v-0.15c0-0.1,0.233-0.35,0.7-0.75c0.433-0.4,0.667-0.6,0.7-0.6
	c0.333-0.167,0.8-0.55,1.4-1.15c0.1-0.133,0.316-0.316,0.65-0.55c0.4-0.267,0.667-0.483,0.8-0.65c0.434-0.534,0.667-0.833,0.7-0.9
	C220.05,125.033,220.2,125.117,220.2,125.55z"/>
<path fill-rule="evenodd" clip-rule="evenodd" fill="#24246F" d="M224.2,121.4c-0.8-2.267-1.2-3.533-1.2-3.8
	c0-0.533,0.217-0.9,0.65-1.1c0.5-0.267,1.1-0.033,1.8,0.7c0.9,1.5,1.433,2.417,1.6,2.75c0.333-0.767,0.9-1.417,1.7-1.95
	c1.033-0.7,2.233-1.05,3.6-1.05l1.8,0.15c1.267,0,2.917,0.783,4.95,2.35c0.167,0,0.467-0.083,0.9-0.25c0.467,0,0.817,0.2,1.05,0.6
	c0.133,0.233,0.2,0.483,0.2,0.75c0,0.267-0.45,1.05-1.35,2.35c-0.933,1.3-1.4,1.983-1.4,2.05c0,0.333-0.117,0.95-0.35,1.85
	c1.733,2.867,2.6,4.567,2.6,5.1c0,0.3-0.1,0.583-0.3,0.85c-0.233,0.3-0.55,0.45-0.95,0.45c-0.367,0-1.267-0.184-2.7-0.55
	c-1.433-0.367-2.833-0.55-4.2-0.55c-2.1,0-3.783-0.833-5.05-2.5c-1.133-2.067-1.95-3.533-2.45-4.4c-0.233-0.434-0.434-1.034-0.6-1.8
	C224.4,122.5,224.3,121.833,224.2,121.4z"/>
<path fill-rule="evenodd" clip-rule="evenodd" fill="#24246F" d="M229.4,120.7c-0.5,1-1.133,1.5-1.9,1.5
	c-0.833,0-1.55-0.517-2.15-1.55c-0.434-1.1-0.7-1.717-0.8-1.85c-1.633-2.167-2.45-3.4-2.45-3.7c0-0.4,0.15-0.733,0.45-1
	c0.434-0.367,1.017-0.317,1.75,0.15l3.45,0.15c2.533,0.133,4.433,0.267,5.7,0.4c2.267,0.233,4.617,0.467,7.05,0.7
	c1.333,0.233,2,0.8,2,1.7c0,0.667-0.3,1.466-0.9,2.4c-0.767,1.167-1.684,1.75-2.75,1.75c-0.767,0-1.25-0.283-1.45-0.85
	c-0.233-0.6-0.7-0.9-1.4-0.9c-0.433,0-1.117-0.083-2.05-0.25c-1.1-0.233-2.417-0.383-3.95-0.45
	C229.933,119.467,229.733,120.067,229.4,120.7z"/>
<path fill-rule="evenodd" clip-rule="evenodd" fill="#24246F" d="M239.8,122.35c-0.633,0-1.033-0.233-1.2-0.7
	c-0.067-0.467-0.1-0.717-0.1-0.75c0-0.7,0.317-1.633,0.95-2.8c0.9-1.667,2.1-2.5,3.6-2.5c0.833,0,1.35,0.033,1.55,0.1h4.5l0.95,0.1
	c1.7,0,3.383-0.133,5.05-0.4c0.833-0.066,1.25,0.333,1.25,1.2c0,0.633-0.35,1.017-1.05,1.15c-1.633,0.2-3.383,0.417-5.25,0.65
	c-0.267,0.2-1.033,0.483-2.3,0.85c-1.4,0.367-2.433,0.75-3.1,1.15c-0.5,0.3-1.316,0.684-2.45,1.15
	C240.9,122.083,240.1,122.35,239.8,122.35z"/>
<path fill-rule="evenodd" clip-rule="evenodd" fill="#24246F" d="M264.5,117.85c0,0.267-0.083,0.517-0.25,0.75
	c-0.267,0.333-0.683,0.5-1.25,0.5l-1.2-0.2l-3.7,0.05c-0.767,0-1.434-0.05-2-0.15c-0.567-0.1-1.6-0.15-3.1-0.15
	c-0.567,0-1.083,0-1.55,0c-0.663,0.025-1.08,0.066-1.25,0.125c0.074,0.048,0.141,0.074,0.2,0.075c-0.105,0-0.205,0-0.3,0
	c-1.167-0.066-1.75-0.499-1.75-1.3c0-0.667,0.316-1.083,0.95-1.25c0.5-0.133,1.667-0.2,3.5-0.2c0.167,0,2.15,0.083,5.95,0.25H262
	c0.933,0.133,1.583,0.3,1.95,0.5C264.317,117.05,264.5,117.383,264.5,117.85z"/>
<path fill-rule="evenodd" clip-rule="evenodd" fill="#24246F" d="M272.75,116.3c0,0.233-0.083,0.483-0.25,0.75
	c-0.233,0.367-0.567,0.55-1,0.55c-0.633,0-1.317-0.117-2.05-0.35c-0.7-0.233-1.184-0.35-1.45-0.35c-0.133,0.033-0.45,0.05-0.95,0.05
	l0.05,0.6c0,0.3-0.083,0.567-0.25,0.8c-0.233,0.333-0.567,0.5-1,0.5c-0.033,0-2.35-0.4-6.95-1.2l-3.65-0.05
	c-0.833-0.133-1.25-0.55-1.25-1.25c0-0.733,0.417-1.15,1.25-1.25h3.6c1.167,0.233,1.917,0.35,2.25,0.35
	c0.667,0,1.967-0.184,3.9-0.55c2.033-0.367,3.15-0.55,3.35-0.55c1.033,0.333,2.15,0.583,3.35,0.75
	C272.4,115.233,272.75,115.633,272.75,116.3z"/>
<path fill-rule="evenodd" clip-rule="evenodd" fill="#24246F" d="M287.85,113c0,0.167,0.084,0.5,0.25,1c0,0.9-0.3,2.75-0.899,5.55
	c-0.467,2.167-0.884,3.917-1.25,5.25c-0.334,1.1-0.8,2-1.4,2.7c-0.899,1.033-2.217,1.867-3.95,2.5c-1.166,0.4-2.8,0.883-4.899,1.45
	c-2.534,0.667-4.117,1-4.75,1c-0.967,0-1.45-0.55-1.45-1.65c0-0.333,0.317-1.183,0.95-2.55c0.6-1.367,0.9-2.45,0.9-3.25
	c0-1.533-1.383-2.95-4.15-4.25c-2.8-1.3-4.2-2.183-4.2-2.65c0-0.934,0.467-1.4,1.4-1.4c0.133,0,0.417,0.083,0.85,0.25
	c0.4,0.133,0.683,0.2,0.85,0.2l0.85-0.4c0.767-0.3,1.683-0.583,2.75-0.85c0.5-0.133,0.833-0.383,1-0.75
	c0.133-0.333,0.466-0.55,1-0.65c1.8-0.4,3.833-0.933,6.1-1.6c0.767-0.2,2.101-0.483,4-0.85c1.3-0.267,2.334-0.566,3.101-0.9
	c0.399-0.167,0.733-0.533,1-1.1c0.233-0.466,0.55-0.75,0.949-0.85c1.167-0.3,1.75,0.133,1.75,1.3
	C288.6,110.833,288.35,111.667,287.85,113z"/>
<path fill-rule="evenodd" clip-rule="evenodd" fill="#333399" d="M222.1,105.8c-0.533,0.267-1.15,0.4-1.85,0.4
	c-0.733,0-1.2-0.217-1.4-0.65c-0.067-0.133-0.1-0.433-0.1-0.9c0-1.5,0.717-2.066,2.15-1.7c1.4,0.367,2.1,0.917,2.1,1.65
	C223,105.1,222.7,105.5,222.1,105.8z"/>
<path fill-rule="evenodd" clip-rule="evenodd" fill="#24246F" d="M220.9,105.55c-0.4,0.6-0.867,0.9-1.4,0.9
	c-0.633,0-1.033-0.284-1.2-0.85c-0.033-0.6-0.05-0.917-0.05-0.95c0-1.233,0.517-1.883,1.55-1.95c1.034-0.067,1.55,0.466,1.55,1.6
	C221.35,104.667,221.2,105.083,220.9,105.55z"/>
<path fill-rule="evenodd" clip-rule="evenodd" fill="#24246F" d="M224.55,103.9c0.067,0.333,0.45,0.7,1.15,1.1
	c0.4,0.2,1.066,0.55,2,1.05c0.4,0.233,0.667,0.583,0.8,1.05c0.3,0.9,0.45,1.367,0.45,1.4c0.4,0.967,0.5,1.783,0.3,2.45h-0.05
	c0.2,0.033,2,0.4,5.4,1.1l5.4,0.05c0.5,0.1,1.617,0.117,3.35,0.05c1.5,0.1,2.25,0.617,2.25,1.55c0,0.333-0.1,0.617-0.3,0.85
	c-0.233,0.267-0.55,0.4-0.95,0.4c-0.7,0-1.617-0.05-2.75-0.15c-1.167-0.1-1.85-0.15-2.05-0.15l-5.05-0.05
	c-0.2-0.033-1.333-0.3-3.4-0.8c-1.767-0.433-3.617-0.65-5.55-0.65l-1.15,0.2c-2.7,0-4.417-0.967-5.15-2.9
	c-0.267-0.667-0.4-1.934-0.4-3.8c0-0.4,0.05-0.7,0.15-0.9c0.2-0.333,0.6-0.617,1.2-0.85c-0.3-0.633-0.45-1.05-0.45-1.25
	c0-0.367,0.267-0.767,0.8-1.2c0.6-0.5,1.284-0.75,2.05-0.75s1.3,0.316,1.6,0.95C224.367,102.983,224.483,103.4,224.55,103.9z"/>
<path fill-rule="evenodd" clip-rule="evenodd" fill="#24246F" d="M237.35,106.2H240c1,0.133,1.667,0.316,2,0.55s0.5,0.583,0.5,1.05
	c0,0.6-0.267,1-0.8,1.2c-0.7,0.233-2.317,0.35-4.85,0.35l-6.75-0.25c-1.4-0.233-2.35-0.483-2.85-0.75s-0.75-0.65-0.75-1.15
	c0-0.7,0.333-1.083,1-1.15c0.567-0.033,1.6,0.133,3.1,0.5h3.05C235.35,106.55,236.583,106.433,237.35,106.2z"/>
<path fill-rule="evenodd" clip-rule="evenodd" fill="#24246F" d="M234.95,109c0.066,0,0.533-0.067,1.4-0.2
	c1.033-0.133,2.033-0.2,3-0.2c3.333,0,5,1.133,5,3.4c0,0.533-0.033,0.9-0.1,1.1c-0.167,0.5-0.55,0.75-1.15,0.75l-1.75-0.25
	c-0.133,0-0.367-0.067-0.7-0.2l-0.45-0.25c-0.4,0.133-0.684,0.2-0.85,0.2c-0.833-0.367-1.267-0.55-1.3-0.55
	c-0.367,0-0.716,0.133-1.05,0.4c-0.367,0.267-0.833,0.4-1.4,0.4c-0.733,0-1.283-0.2-1.65-0.6c-0.267-0.433-0.467-0.65-0.6-0.65
	c-0.5,0.167-0.833,0.25-1,0.25c-0.967,0-2.017-0.483-3.15-1.45c-0.967-0.833-1.45-1.35-1.45-1.55c0-0.833,0.3-1.233,0.9-1.2
	c0.333,0.033,0.917,0.133,1.75,0.3c0.067,0,0.267-0.05,0.6-0.15c0.333-0.133,0.767-0.2,1.3-0.2c0.667,0,1.184,0.117,1.55,0.35
	C234.25,108.9,234.617,109,234.95,109z"/>
<path fill-rule="evenodd" clip-rule="evenodd" fill="#333399" d="M250.8,98.2c1.7,0.333,2.55,0.917,2.55,1.75
	c0,0.367-0.117,0.667-0.35,0.9s-0.55,0.35-0.95,0.35c-0.133,0-1.05-0.167-2.75-0.5c-1.767-0.333-2.9-0.517-3.4-0.55h-2.7
	c-1.333,0.1-2.233,0.217-2.7,0.35c-0.5,0.167-1.033,0.317-1.6,0.45c-0.633,0.133-1.1,0.4-1.4,0.8
	c-0.267,0.467-0.483,0.817-0.65,1.05c-0.167,0.2-0.417,0.35-0.75,0.45c-0.333,0.067-0.583,0.133-0.75,0.2
	c-0.267,0.1-0.417,0.25-0.45,0.45c-0.066,0.4-0.117,0.617-0.15,0.65c-0.2,0.333-0.6,0.633-1.2,0.9c-0.733,0.267-1.55,0.4-2.45,0.4
	c-3.067,0-4.6-0.65-4.6-1.95c0-1.3,2.633-2.717,7.9-4.25c4.1-1.2,6.883-1.867,8.35-2V97.6h3.35
	C247.033,97.733,248.6,97.933,250.8,98.2z"/>
<path fill-rule="evenodd" clip-rule="evenodd" fill="#333399" d="M238.6,105.25c-0.333,0.1-0.967,0.183-1.9,0.25
	c-0.7,0.067-1.2,0.1-1.5,0.1c-1.2,0-2-0.184-2.4-0.55c-0.2-0.2-0.3-0.483-0.3-0.85c0-0.467,0.133-0.767,0.4-0.9
	c0.3-0.167,1-0.25,2.1-0.25c0.567,0,1.1-0.267,1.6-0.8c0.667-0.733,1.167-1.183,1.5-1.35c0.433-0.233,1.35-0.533,2.75-0.9
	c1.3-0.367,2.1-0.55,2.4-0.55l1.6,0.2c0.533,0,1.117-0.25,1.75-0.75c0.767-0.267,2.05,0.067,3.85,1c0.667,0.333,1.25,0.867,1.75,1.6
	c0.433,0.6,0.65,1.083,0.65,1.45c0,0.633-0.333,1.233-1,1.8c-0.9,0.733-2.184,1.1-3.85,1.1c-0.6,0-2.5-0.2-5.7-0.6H238.6z"/>
<path fill-rule="evenodd" clip-rule="evenodd" fill="#333399" d="M277.25,102.3c0.667,0.367,1,0.833,1,1.4c0,1-0.833,1.5-2.5,1.5
	l-1.5-0.2l-6.4,0.45c-4.533-0.167-7.517-0.4-8.95-0.7l-3-0.05c-0.267,0.133-0.733,0.283-1.4,0.45c-0.7,0.2-1.183,0.3-1.45,0.3
	c-0.733,0-1.3-0.167-1.7-0.5c-0.333-0.267-0.5-0.583-0.5-0.95s0.1-0.767,0.3-1.2c0.3-0.633,0.7-0.95,1.2-0.95
	c0.033,0,0.667,0.017,1.9,0.05c1.233,0.067,1.967,0.167,2.2,0.3h2.8c0.8,0.167,2.35,0.35,4.65,0.55c1.967,0.133,3.267,0.2,3.9,0.2
	l1.6-0.15c-0.3-0.333-0.55-0.583-0.75-0.75c-0.333-0.267-0.75-0.4-1.25-0.4c-0.7,0-1.167,0.05-1.4,0.15
	c-0.2,0.1-0.967,0.15-2.3,0.15c-1.167,0-2.217-0.083-3.15-0.25c-0.966-0.2-2.1-0.3-3.4-0.3l-2.8,0.2c-1.467,0-2.483-0.15-3.05-0.45
	c-0.466-0.233-0.7-0.617-0.7-1.15c0-1.267,1.667-1.75,5-1.45c1.833,0.167,4.617,0.467,8.35,0.9c0.566,0,1.15-0.05,1.75-0.15
	c0.566-0.133,1.117-0.2,1.65-0.2c0.967,0,1.816,0.033,2.55,0.1c0.233,0,1.833,0.7,4.8,2.1C275.4,101.6,276.25,101.933,277.25,102.3z
	"/>
<path fill-rule="evenodd" clip-rule="evenodd" fill="#333399" d="M271.35,103.35c-0.267,0.333-0.65,0.5-1.15,0.5
	c-0.3,0-1.833-0.233-4.6-0.7c-2.733-0.5-5.067-0.75-7-0.75c-0.267,0-0.867,0.05-1.8,0.15c-0.966,0.1-1.583,0.184-1.85,0.25
	c-1.3,0.267-2.784,0.4-4.45,0.4c-0.833,0-1.25-0.417-1.25-1.25c0-1.434,3.733-2.034,11.2-1.8c7.433,0.2,11.15,1.017,11.15,2.45
	C271.6,102.867,271.517,103.117,271.35,103.35z"/>
<path fill-rule="evenodd" clip-rule="evenodd" fill="#24246F" d="M241.7,110.9c-0.034-0.033-0.1-0.267-0.2-0.7
	c-1.167-0.034-1.75-0.45-1.75-1.25c0-1.333,1.683-2.15,5.05-2.45c5.633-0.5,8.867-0.85,9.7-1.05h3.4l0.45-0.05v-0.05h6.9
	c2.4,0.167,3.65,0.25,3.75,0.25h4.6c1.2,0.167,2.05,0.417,2.55,0.75c0.466,0.333,0.699,0.8,0.699,1.4c0,0.767-0.699,1.533-2.1,2.3
	c-1.4,0.6-2.117,0.9-2.15,0.9l-0.9-0.3c-0.9,0.1-2.034,0.15-3.4,0.15l-5.95,0.2l-0.5,0.1l-2.5,0.05l-3.05,0.45
	c-0.533,0.066-1.517,0.1-2.95,0.1l-5.6-0.1c-1,0-1.567-0.033-1.7-0.1l-3.3-0.05C242.217,111.35,241.867,111.167,241.7,110.9z"/>
<path fill-rule="evenodd" clip-rule="evenodd" fill="#24246F" d="M241.1,112.05c0-0.667,0.333-1.083,1-1.25c0.5-0.1,1.833-0.3,4-0.6
	h2.55c1.667-0.3,3.45-0.5,5.35-0.6l13.3-0.15c0.967-0.233,2.534-0.333,4.7-0.3c1.4-0.167,2.1,0.233,2.1,1.2
	c0,0.367-0.05,0.633-0.15,0.8c-0.233,0.3-0.65,0.483-1.25,0.55l0.05,0.35c0,0.534-0.4,1.034-1.2,1.5
	c-0.767,0.434-1.517,0.65-2.25,0.65l-1.9-0.2h-4.8c-1,0-3.434,0.183-7.3,0.55l-5.5,0.55c-0.867,0-1.5-0.2-1.9-0.6
	c-2.9,0.267-4.483-0.1-4.75-1.1c-0.833,0.1-1.417-0.066-1.75-0.5C241.2,112.633,241.1,112.35,241.1,112.05z"/>
<path fill-rule="evenodd" clip-rule="evenodd" fill="#24246F" d="M288.5,104.7c0,0.367-0.75,1.5-2.25,3.4
	c-1.434,1.867-2.333,2.9-2.7,3.1c-0.666,0.333-2.583,0.867-5.75,1.6c-3.133,0.7-5.05,1.05-5.75,1.05c-0.667,0-1.15-0.267-1.45-0.8
	c-0.167-0.5-0.25-0.767-0.25-0.8c0-0.8,0.6-1.517,1.8-2.15c0.7-0.4,1.967-1.067,3.8-2c-1.067-0.434-1.6-0.983-1.6-1.65
	c0-0.767,0.784-1.284,2.35-1.55c1.533-0.267,2.3-0.9,2.3-1.9c0-0.733-0.533-1.167-1.6-1.3c-1.101-0.167-1.65-0.633-1.65-1.4
	c0-1.3,0.983-1.617,2.95-0.95c0.967,0.333,1.95,0.8,2.95,1.4l0.899-0.3c1.101,0,2.4,0.617,3.9,1.85
	C287.816,103.433,288.5,104.233,288.5,104.7z"/>
<path fill-rule="evenodd" clip-rule="evenodd" fill="#24246F" d="M226.5,101.15c0,0.1-0.267,0.4-0.8,0.9
	c-0.567,0.5-0.883,0.867-0.95,1.1c-0.033,0.1-0.1,0.5-0.2,1.2c-0.167,0.667-0.4,1-0.7,1c-0.167,0-0.3-0.083-0.4-0.25
	c-0.067-0.133-0.1-0.233-0.1-0.3c0-0.133,0.083-0.55,0.25-1.25c0.167-0.7,0.283-1.083,0.35-1.15v-0.05
	c-0.333,0.3-0.617,0.45-0.85,0.45c-0.2,0-0.35-0.083-0.45-0.25c-0.066-0.1-0.1-0.2-0.1-0.3c0-0.233,0.5-0.567,1.5-1
	c0.934-0.4,1.583-0.6,1.95-0.6C226.333,100.65,226.5,100.817,226.5,101.15z"/>
<path fill-rule="evenodd" clip-rule="evenodd" fill="#24246F" d="M245.9,97.65c0-0.467,1.033-0.7,3.1-0.7
	c0.467,0,0.967,0.066,1.5,0.2c0.114,0.027,0.239,0.052,0.375,0.075c0.544,0.083,1.269,0.125,2.175,0.125c0.1,0,0.8-0.033,2.1-0.1
	h1.75c1.05-0.085,1.858-0.135,2.425-0.15c0.099,0,0.19,0,0.275,0c0.967,0,1.833,0.05,2.6,0.15h1.6c0.6-0.167,1.417-0.167,2.45,0
	c1.3,0.2,1.983,0.3,2.05,0.3c0.067,0,0.15-0.05,0.25-0.15c0.1-0.1,0.25-0.15,0.45-0.15l4.45,1.05c0.4,0.1,1.133,0.25,2.2,0.45
	c0.899,0.267,1.35,0.633,1.35,1.1c0,0.333-0.184,0.5-0.55,0.5c-0.233,0-0.967-0.2-2.2-0.6c-1.267-0.4-2.033-0.617-2.3-0.65
	c-2.767-0.5-5.383-0.783-7.85-0.85h-2.05c-0.867-0.067-1.533-0.1-2-0.1l-0.75-0.05c-0.433,0.133-1.233,0.183-2.4,0.15l-4.5,0.1
	c-0.5-0.133-1.033-0.233-1.6-0.3c-0.107-0.007-0.215-0.016-0.325-0.025c-0.47-0.05-0.961-0.075-1.475-0.075l-1.3,0.15
	c-0.4,0.066-0.833,0.1-1.3,0.1c-0.167,0-0.3-0.083-0.4-0.25C245.933,97.817,245.9,97.717,245.9,97.65z"/>
<path fill-rule="evenodd" clip-rule="evenodd" fill="#24246F" d="M258.3,97.5l7.35-0.05l0.25-0.05l0.25,0.05h1.5
	c0.667,0.1,1,0.316,1,0.65c0,0.3-0.117,0.467-0.35,0.5c-0.333-0.033-0.6-0.05-0.8-0.05l-1.65,0.1c-0.3,0-0.483-0.017-0.55-0.05
	l-0.15-0.15h-3.45c-0.133,0.033-0.567,0.066-1.3,0.1c-0.7,0-1.066,0-1.1,0c-1,0-1.6-0.033-1.8-0.1c-0.1-0.034-0.15-0.167-0.15-0.4
	C257.35,97.883,257.667,97.7,258.3,97.5z"/>
<path fill-rule="evenodd" clip-rule="evenodd" fill="#24246F" d="M277,101.2c-0.366,0-0.85-0.2-1.45-0.6
	c-0.566-0.367-0.85-0.6-0.85-0.7c0-0.566,0.483-0.65,1.45-0.25c0.933,0.367,1.399,0.717,1.399,1.05
	C277.55,101.033,277.366,101.2,277,101.2z"/>
<path fill-rule="evenodd" clip-rule="evenodd" fill="#24246F" d="M265,118.55c0.733,0.3,1.1,0.567,1.1,0.8
	c0,0.333-0.167,0.5-0.5,0.5c-0.267,0-0.817-0.167-1.65-0.5c-0.867-0.367-1.3-0.633-1.3-0.8c0-0.333,0.184-0.5,0.55-0.5
	C263.667,118.05,264.267,118.217,265,118.55z"/>
<path fill-rule="evenodd" clip-rule="evenodd" fill="#24246F" d="M263.75,119.35c-0.233,0-0.467-0.117-0.7-0.35
	c-0.2-0.2-0.3-0.35-0.3-0.45c0-0.466,0.267-0.617,0.8-0.45c0.5,0.2,0.75,0.45,0.75,0.75C264.3,119.183,264.117,119.35,263.75,119.35
	z"/>
<path fill-rule="evenodd" clip-rule="evenodd" fill="#24246F" d="M271.2,122.2c0.5,0.566,0.75,0.95,0.75,1.15
	c0,0.333-0.184,0.5-0.55,0.5c-0.133,0-0.517-0.333-1.15-1c-0.633-0.667-0.95-1.033-0.95-1.1c0-0.333,0.184-0.5,0.55-0.5
	C270.183,121.25,270.633,121.567,271.2,122.2z"/>
<path fill-rule="evenodd" clip-rule="evenodd" fill="#24246F" d="M270.7,129.4c0,0.167-0.25,0.567-0.75,1.2
	c0.667,0.433,1,0.816,1,1.15c0,0.2-0.1,0.383-0.3,0.55c-0.233,0.167-0.517,0.25-0.85,0.25l-0.75-0.1l-2.85,0.5
	c-0.4,0-0.6-0.167-0.6-0.5c0-0.133,0.4-0.45,1.2-0.95c0.967-0.6,1.483-0.917,1.55-0.95c0.267-0.267,0.683-0.65,1.25-1.15
	c0.133-0.2,0.35-0.35,0.65-0.45C270.55,128.883,270.7,129.033,270.7,129.4z"/>
<path fill-rule="evenodd" clip-rule="evenodd" fill="#24246F" d="M266.6,132.15c0,0.133-0.05,0.233-0.15,0.3
	c0.167,0.167,0.25,0.283,0.25,0.35c0,0.167-0.067,0.267-0.2,0.3c-0.2,0.066-0.683,0.1-1.45,0.1c-0.167,0-0.283-0.05-0.35-0.15
	l-0.05-0.15c0-0.1,0.217-0.3,0.65-0.6c0.434-0.3,0.767-0.45,1-0.45C266.5,131.85,266.6,131.95,266.6,132.15z"/>
<path fill-rule="evenodd" clip-rule="evenodd" fill="#333399" d="M249.55,122.05c0,0.167-0.083,0.267-0.25,0.3l0.05,0.25
	c0,0.2-0.1,0.3-0.3,0.3c-0.133,0-0.233-0.066-0.3-0.2c-0.033-0.133-0.067-0.217-0.1-0.25c-0.667,0.1-1,0-1-0.3
	c0-0.367,0.267-0.55,0.8-0.55C249.183,121.6,249.55,121.75,249.55,122.05z"/>
<path fill-rule="evenodd" clip-rule="evenodd" fill="#24246F" d="M240.35,129.4c0.933,0.5,1.6,0.917,2,1.25
	c0.566,0.434,1.467,0.867,2.7,1.3c1,0.333,1.5,0.6,1.5,0.8s-0.117,0.3-0.35,0.3c-0.133,0-0.317-0.033-0.55-0.1
	c-0.233-0.067-0.517-0.117-0.85-0.15l-2.9,0.1c-0.833,0-1.35-0.017-1.55-0.05c-0.267-0.033-0.4-0.15-0.4-0.35v-0.2
	c0.033-0.066,0.167-0.1,0.4-0.1l0.1-0.05c-0.167-0.167-0.333-0.267-0.5-0.3c-0.1-0.033-0.15-0.1-0.15-0.2l0.1-0.3
	c-0.167-0.434-0.25-0.684-0.25-0.75c0-0.267,0.067-0.5,0.2-0.7l-0.8-0.4c-0.033-0.033-0.05-0.167-0.05-0.4
	c0-0.467,0.133-0.6,0.4-0.4C239.967,129.133,240.283,129.367,240.35,129.4z"/>
<path fill-rule="evenodd" clip-rule="evenodd" fill="#333399" d="M235.15,119.9c0,1.4-0.433,2.75-1.3,4.05
	c-1.333,1.9-3.35,2.85-6.05,2.85c-0.433,0-0.816-0.083-1.15-0.25c-0.333-0.167-0.5-0.316-0.5-0.45c0-0.233,0.1-0.35,0.3-0.35
	c0.066,0,0.283,0.033,0.65,0.1c0.4,0.1,0.617,0.167,0.65,0.2l1.6,0.05c1.6-0.233,2.917-1.1,3.95-2.6
	c0.833-1.233,1.25-2.417,1.25-3.55c0-0.7-0.316-1.5-0.95-2.4c-0.4-0.533-0.867-1.033-1.4-1.5c-0.434-0.333-0.65-0.517-0.65-0.55
	c0-0.6,0.6-0.367,1.8,0.7C234.55,117.3,235.15,118.533,235.15,119.9z"/>
<path fill-rule="evenodd" clip-rule="evenodd" fill="#333399" d="M233.8,124c0-0.2,0.15-0.3,0.45-0.3c0.533,0,1.117,0.683,1.75,2.05
	c0.567,1.2,0.85,2.017,0.85,2.45l-0.2,2.3c-0.066,0.233-0.283,0.617-0.65,1.15c-0.4,0.6-0.683,0.9-0.85,0.9
	c-0.133,0-0.217-0.05-0.25-0.15l-0.05-0.15c0-0.2,0.167-0.5,0.5-0.9c0.4-0.467,0.617-0.783,0.65-0.95
	c0.167-0.733,0.25-1.467,0.25-2.2c0-0.2-0.15-0.633-0.45-1.3c-0.267-0.633-0.417-0.983-0.45-1.05c-0.3-0.7-0.65-1.2-1.05-1.5
	C233.967,124.183,233.8,124.067,233.8,124z"/>
<path fill-rule="evenodd" clip-rule="evenodd" fill="#333399" d="M244.1,115.5c0-0.6,0.25-0.533,0.75,0.2
	c0.467,0.7,0.7,1.483,0.7,2.35c-0.333,1.9-0.767,2.85-1.3,2.85c-0.133,0-0.217-0.05-0.25-0.15l-0.05-0.15
	c0-0.067,0.167-0.417,0.5-1.05c0.3-0.633,0.45-1.2,0.45-1.7c0-0.6-0.133-1.167-0.4-1.7C244.233,115.75,244.1,115.533,244.1,115.5z"
	/>
<path fill-rule="evenodd" clip-rule="evenodd" fill="#333399" d="M239.4,123.25c-0.5,0-1.367-0.433-2.6-1.3
	c-1.233-0.867-1.85-1.417-1.85-1.65c0-0.5,0.283-0.517,0.85-0.05c0.333,0.233,0.833,0.65,1.5,1.25c0.067,0.067,0.5,0.3,1.3,0.7
	c0.767,0.4,1.15,0.65,1.15,0.75C239.75,123.15,239.633,123.25,239.4,123.25z"/>
<path fill-rule="evenodd" clip-rule="evenodd" fill="#333399" d="M234.7,115.5c-0.3,0.267-0.467,0.467-0.5,0.6
	c-0.167,0.333-0.25,0.533-0.25,0.6c0,0.333-0.083,0.5-0.25,0.5c-0.267,0-0.4-0.184-0.4-0.55c0-0.5,0.3-1.05,0.9-1.65
	c0.6-0.567,0.9-0.583,0.9-0.05C235.1,115.083,234.967,115.267,234.7,115.5z"/>
<path fill-rule="evenodd" clip-rule="evenodd" fill="#333399" d="M240.55,130.45c0,0.466,0.2,0.983,0.6,1.55l0.55,0.8
	c0,0.2-0.117,0.3-0.35,0.3c-0.4,0-0.75-0.4-1.05-1.2c-0.233-0.633-0.35-1.117-0.35-1.45c0-0.333,0.167-0.667,0.5-1
	c0.3-0.333,0.45-0.284,0.45,0.15L240.55,130.45z"/>
<path fill-rule="evenodd" clip-rule="evenodd" fill="#333399" d="M251.05,115.7c0-0.4,0.167-0.467,0.5-0.2
	c0.267,0.2,0.467,0.417,0.6,0.65c0.167,0.4,0.267,0.65,0.3,0.75c0,0.067,0,0.3,0,0.7c0,0.9-0.167,1.35-0.5,1.35
	c-0.133,0-0.217-0.05-0.25-0.15l-0.05-0.15c0.133-0.333,0.2-0.683,0.2-1.05c0-0.333-0.133-0.733-0.4-1.2
	C251.183,116,251.05,115.767,251.05,115.7z"/>
<path fill-rule="evenodd" clip-rule="evenodd" fill="#333399" d="M257.5,115.1c-0.167,0.233-0.333,0.483-0.5,0.75
	c-0.333,0.533-0.5,0.917-0.5,1.15c0,0.333,0.283,0.917,0.85,1.75c0,0.2-0.1,0.3-0.3,0.3c-0.233,0-0.5-0.3-0.8-0.9
	c-0.267-0.533-0.4-0.9-0.4-1.1c0-0.333,0.133-0.767,0.4-1.3c0.3-0.667,0.617-1,0.95-1C257.4,114.75,257.5,114.867,257.5,115.1z"/>
<path fill-rule="evenodd" clip-rule="evenodd" fill="#333399" d="M264.45,114.9c0.466,0.533,0.7,1.117,0.7,1.75
	c-0.1,1.934-0.517,2.9-1.25,2.9c-0.133,0-0.217-0.05-0.25-0.15l-0.05-0.15c0.167-0.267,0.333-0.55,0.5-0.85
	c0.3-0.633,0.45-1.217,0.45-1.75c0-0.3-0.133-0.683-0.4-1.15c-0.267-0.466-0.4-0.667-0.4-0.6
	C263.75,114.333,263.983,114.333,264.45,114.9z"/>
<path fill-rule="evenodd" clip-rule="evenodd" fill="#333399" d="M268.65,122.2c-0.2,0-0.333-0.184-0.4-0.55
	c-0.033-0.167-0.05-0.383-0.05-0.65c0-1.133,0.383-2.183,1.15-3.15c1-1.267,2.417-1.9,4.25-1.9c0.2,0,0.3,0.017,0.3,0.05
	c1.5,0.267,2.7,1.05,3.6,2.35c0.767,1.133,1.15,2.316,1.15,3.55c0,1-0.4,2-1.2,3c-1.033,1.267-2.45,1.9-4.25,1.9
	c-0.534,0-1.017-0.066-1.45-0.2c-0.5-0.167-0.75-0.367-0.75-0.6c0-0.2,0.117-0.3,0.35-0.3s0.75,0.167,1.55,0.5h0.75
	c2.9-0.667,4.35-2.15,4.35-4.45c0-0.833-0.333-1.8-1-2.9c-0.9-1.5-2.067-2.25-3.5-2.25c-1.567,0-2.783,0.55-3.65,1.65
	c-0.7,0.833-1.05,1.75-1.05,2.75c0,0.2,0.05,0.5,0.15,0.9C268.95,122.1,268.85,122.2,268.65,122.2z"/>
<path fill-rule="evenodd" clip-rule="evenodd" fill="#333399" d="M283.05,122.25c0.2,0,0.417,0.783,0.65,2.35
	c0,0.566-0.417,1.45-1.25,2.65c-0.967,1.1-2.3,1.65-4,1.65c-1.267,0-2.25-0.283-2.95-0.85c-0.6-0.466-0.9-1.017-0.9-1.65
	c0-0.2,0.1-0.3,0.3-0.3c0.167,0,0.4,0.367,0.7,1.1c0.534,0.733,1.467,1.1,2.801,1.1c1.399,0,2.566-0.45,3.5-1.35
	c0.8-0.767,1.199-1.55,1.199-2.35c-0.3-1.233-0.449-1.917-0.449-2.05C282.65,122.35,282.783,122.25,283.05,122.25z"/>
<path fill-rule="evenodd" clip-rule="evenodd" fill="#333399" d="M285.6,117c0,0.767-0.183,1.817-0.55,3.15
	c-0.333,1.1-0.833,1.8-1.5,2.1c-0.372,0.143-1.063,0.227-2.075,0.25H279.6c-0.767-0.067-1.183-0.1-1.25-0.1
	c-0.166-0.033-0.25-0.133-0.25-0.3c0-0.2,0.101-0.3,0.301-0.3l3.449,0.1c1.2,0.2,2.067-0.383,2.601-1.75
	c0.366-0.933,0.55-1.983,0.55-3.15c0-0.133-0.083-0.4-0.25-0.8c-0.167-0.434-0.3-0.7-0.4-0.8c-0.366-0.333-0.666-0.583-0.899-0.75
	c-0.434-0.3-0.816-0.45-1.15-0.45c-1.8,0-3.267,0.566-4.399,1.7c-0.801,1.1-1.233,1.65-1.301,1.65c-0.199,0-0.3-0.133-0.3-0.4
	c0-0.667,0.584-1.4,1.75-2.2c1.3-0.934,2.733-1.4,4.3-1.4c0.634,0,1.5,0.5,2.601,1.5C285.384,115.417,285.6,116.067,285.6,117z"/>
<path fill-rule="evenodd" clip-rule="evenodd" fill="#333399" d="M270.5,114.95c0,0.233,0.183,0.483,0.55,0.75
	c0.333,0.267,0.5,0.483,0.5,0.65c0,0.2-0.1,0.3-0.3,0.3c-0.433,0-0.783-0.25-1.05-0.75c-0.2-0.4-0.3-0.733-0.3-1
	c-0.033-0.167-0.033-0.283,0-0.35c0.033-0.133,0.15-0.2,0.35-0.2C270.55,114.35,270.633,114.55,270.5,114.95z"/>
<path fill-rule="evenodd" clip-rule="evenodd" fill="#333399" d="M279.15,114.7c-0.233,0-0.367-0.133-0.4-0.4
	c0-0.333-0.033-0.533-0.1-0.6c-0.267-0.233-0.45-0.4-0.551-0.5c-0.199-0.167-0.3-0.317-0.3-0.45c0-0.467,0.3-0.483,0.9-0.05
	c0.566,0.466,0.85,0.95,0.85,1.45C279.55,114.517,279.417,114.7,279.15,114.7z"/>
<path fill-rule="evenodd" clip-rule="evenodd" fill="#333399" d="M268.6,116.1c-1.033,0.566-1.934,0.85-2.7,0.85
	c-0.833,0-1.25-0.133-1.25-0.4c0-0.2,0.1-0.3,0.3-0.3l0.9,0.1c0.533,0,1.083-0.117,1.65-0.35c0.333-0.133,0.683-0.317,1.05-0.55
	c0.2-0.1,0.517-0.4,0.95-0.9c0.367-0.333,0.55-0.233,0.55,0.3C270.05,115.15,269.567,115.567,268.6,116.1z"/>
<path fill-rule="evenodd" clip-rule="evenodd" fill="#333399" d="M283.85,111.95c-0.233,0.433-0.35,0.716-0.35,0.85l0.1,0.95
	c0,0.3-0.1,0.45-0.3,0.45c-0.267,0-0.399-0.45-0.399-1.35c0-0.633,0.216-1.167,0.649-1.6c0.4-0.433,0.601-0.4,0.601,0.1
	C284.15,111.383,284.05,111.583,283.85,111.95z"/>
<path fill-rule="evenodd" clip-rule="evenodd" fill="#333399" d="M285.75,117.15c-0.233,0-0.384-0.05-0.45-0.15l-0.05-0.15
	c0-0.2,0.184-0.317,0.55-0.35c0.533-0.033,0.967-0.133,1.3-0.3c0.2-0.133,0.45-0.35,0.75-0.65c0.2-0.2,0.384-0.3,0.551-0.3
	c0.199,0,0.3,0.117,0.3,0.35c0,0.3-0.316,0.633-0.95,1C287.083,116.967,286.417,117.15,285.75,117.15z"/>
<path fill-rule="evenodd" clip-rule="evenodd" fill="#333399" d="M286.3,123.6c-0.333,0-0.816-0.35-1.45-1.05
	c-0.566-0.667-0.85-1.066-0.85-1.2c0-0.2,0.066-0.317,0.2-0.35c0.133-0.033,0.3,0.083,0.5,0.35c0.066,0.066,0.267,0.3,0.6,0.7
	c0.101,0.133,0.533,0.55,1.3,1.25C286.6,123.5,286.5,123.6,286.3,123.6z"/>
<path fill-rule="evenodd" clip-rule="evenodd" fill="#333399" d="M282.1,129.95c-0.199,0-0.3-0.117-0.3-0.35l0.101-0.8
	c0-0.267-0.051-0.5-0.15-0.7c-0.134-0.167-0.2-0.3-0.2-0.4c0-0.434,0.167-0.5,0.5-0.2c0.3,0.333,0.45,0.767,0.45,1.3
	C282.5,129.567,282.366,129.95,282.1,129.95z"/>
<path fill-rule="evenodd" clip-rule="evenodd" fill="#333399" d="M274.75,128.45c-0.8,0.4-1.3,0.833-1.5,1.3
	c-0.367,0.7-0.567,1.117-0.6,1.25v0.95c0,0.267-0.1,0.4-0.3,0.4c-0.267,0-0.4-0.267-0.4-0.8c0-1.233,0.65-2.316,1.95-3.25
	c1.267-0.9,1.9-1.05,1.9-0.45C275.8,127.883,275.45,128.083,274.75,128.45z"/>
<path fill-rule="evenodd" clip-rule="evenodd" fill="#333399" d="M279.75,130.65c-0.233,0-0.35-0.15-0.35-0.45
	c-0.034-0.367-0.051-0.567-0.051-0.6c-0.5-0.4-0.75-0.7-0.75-0.9c0-0.5,0.25-0.517,0.75-0.05c0.5,0.434,0.75,0.883,0.75,1.35
	C280.1,130.433,279.983,130.65,279.75,130.65z"/>
<path fill-rule="evenodd" clip-rule="evenodd" fill="#333399" d="M269.6,131.4c0.233,0.667,0.35,1.167,0.35,1.5
	c0,0.333-0.1,0.5-0.3,0.5c-0.167,0-0.316-0.25-0.45-0.75c-0.133-0.4-0.2-0.683-0.2-0.85c-0.1-0.333-0.267-0.65-0.5-0.95
	c-0.2-0.233-0.3-0.383-0.3-0.45c0-0.2,0.133-0.3,0.4-0.3C268.967,130.1,269.3,130.533,269.6,131.4z"/>
<path fill-rule="evenodd" clip-rule="evenodd" fill="#333399" d="M231.9,115.5c0,0.9-0.55,2-1.65,3.3c-1.3,1.534-2.75,2.3-4.35,2.3
	c-0.566,0-1.083-0.05-1.55-0.15c-0.5-0.133-0.75-0.267-0.75-0.4c0-0.2,0.15-0.3,0.45-0.3l1.1,0.15v0.05h1.05
	c1.133-0.133,2.283-0.8,3.45-2c1.1-1.133,1.65-2.117,1.65-2.95c-0.267-0.567-0.4-0.917-0.4-1.05c0-0.467,0.167-0.517,0.5-0.15
	C231.733,114.7,231.9,115.1,231.9,115.5z"/>
<path fill-rule="evenodd" clip-rule="evenodd" fill="#333399" d="M226.1,125.55c0.133,0.067,0.316,0.117,0.55,0.15
	c0.133,0.066,0.2,0.183,0.2,0.35c0,0.2-0.133,0.3-0.4,0.3c-0.3,0-0.65-0.167-1.05-0.5c-0.367-0.3-0.55-0.517-0.55-0.65
	c0-0.2,0.133-0.3,0.4-0.3C225.383,124.9,225.667,125.117,226.1,125.55z"/>
<path fill-rule="evenodd" clip-rule="evenodd" fill="#333399" d="M233.75,132c-0.1,0.4-0.2,0.6-0.3,0.6c-0.2,0-0.3-0.167-0.3-0.5
	l0.1-0.75c0-0.633-0.283-1.233-0.85-1.8c-0.633-0.6-1.367-0.933-2.2-1h-1.3c-0.233-0.1-0.583-0.05-1.05,0.15
	c-0.434,0.2-0.684,0.3-0.75,0.3c-0.133,0-0.217-0.05-0.25-0.15l-0.05-0.15c0-0.367,0.684-0.633,2.05-0.8h1.6
	c1.033,0.233,1.867,0.684,2.5,1.35c0.6,0.6,0.9,1.267,0.9,2C233.85,131.417,233.817,131.667,233.75,132z"/>
<path fill-rule="evenodd" clip-rule="evenodd" fill="#24246F" d="M239.3,127.35c-0.2-0.533-0.3-1-0.3-1.4c0-1,0.8-0.934,2.4,0.2
	c2.533,1.767,4.383,2.817,5.55,3.15c0.233,0.1,1,0.417,2.3,0.95c1,0.4,1.767,0.683,2.3,0.85c2.434,0.633,4.917,0.95,7.45,0.95
	c1.033,0,2.55-0.316,4.55-0.95c1-0.333,1.967-0.667,2.9-1c0.433,0,0.667,0.2,0.7,0.6c0,0.3-0.316,0.617-0.95,0.95
	c-0.267,0.133-0.883,0.4-1.85,0.8c-0.533,0.433-0.9,0.716-1.1,0.85c-0.333,0.267-1.25,0.3-2.75,0.1c-0.333,0.3-1.167,0.45-2.5,0.45
	c-1.067,0-2.083,0.05-3.05,0.15l-1.5,0.15c-0.333,0-1.133-0.15-2.4-0.45c-1.333-0.333-2.15-0.517-2.45-0.55
	c-0.533-0.066-1.367-0.4-2.5-1l-1.55-0.9c-0.267,0.2-0.466,0.3-0.6,0.3c-0.7,0-1.983-0.933-3.85-2.8
	C239.8,128.45,239.533,127.983,239.3,127.35z"/>
<path fill-rule="evenodd" clip-rule="evenodd" fill="#24246F" d="M213.35,131.9c0.233-0.2,0.35-0.066,0.35,0.4l-0.15,0.9
	c0,0.3,0.15,0.633,0.45,1c0.333,0.433,0.733,0.683,1.2,0.75c0.3-0.233,0.483-0.35,0.55-0.35c0.233,0,0.35,0.117,0.35,0.35
	c0,0.267-0.15,0.533-0.45,0.8c-0.333,0.267-0.75,0.4-1.25,0.4c-0.467,0-0.85-0.316-1.15-0.95c-0.267-0.5-0.4-0.934-0.4-1.3l0.1-1.25
	C212.983,132.35,213.117,132.1,213.35,131.9z"/>
<path fill-rule="evenodd" clip-rule="evenodd" fill="#24246F" d="M217.85,132.95c-0.867,0-1.3-0.217-1.3-0.65
	c0-0.433,0.284-0.55,0.85-0.35c0.567,0.233,0.85,0.466,0.85,0.7C218.25,132.85,218.117,132.95,217.85,132.95z"/>
<path fill-rule="evenodd" clip-rule="evenodd" fill="#24246F" d="M243.25,141c-0.2,0-0.3-0.117-0.3-0.35
	c0.1-0.233,0.15-0.483,0.15-0.75l-0.15-1.15c0-0.2,0.1-0.3,0.3-0.3s0.317,0.167,0.35,0.5l0.15,1.05
	C243.75,140.667,243.583,141,243.25,141z"/>
<path fill-rule="evenodd" clip-rule="evenodd" fill="#24246F" d="M242.45,142.35c0,0.133-0.083,0.283-0.25,0.45l0.45,0.85
	c1.233,0.067,1.75,0.033,1.55-0.1c0.233,0,0.35,0.1,0.35,0.3c0,0.167-0.35,0.4-1.05,0.7c-0.533,0-1.067-0.15-1.6-0.45
	c-0.533-0.3-0.8-0.6-0.8-0.9c0-0.167,0.1-0.383,0.3-0.65c0.2-0.333,0.45-0.5,0.75-0.5C242.35,142.05,242.45,142.15,242.45,142.35z"
	/>
<path fill-rule="evenodd" clip-rule="evenodd" fill="#24246F" d="M246.2,140.95c0,0.167-0.15,0.35-0.45,0.55
	c-0.267,0.167-0.467,0.25-0.6,0.25c-0.267,0-0.4-0.117-0.4-0.35c0-0.1,0.133-0.25,0.4-0.45c0.267-0.2,0.517-0.3,0.75-0.3
	C246.067,140.65,246.167,140.75,246.2,140.95z"/>
<path fill-rule="evenodd" clip-rule="evenodd" fill="#24246F" d="M269.05,140.35c0.5-0.033,0.75,0.083,0.75,0.35
	c0,0.167-0.05,0.267-0.15,0.3h-0.4c-1.233,0-1.85-0.367-1.85-1.1c0-0.5,0.167-0.917,0.5-1.25c0.333-0.333,0.5-0.283,0.5,0.15
	c0,0.1-0.083,0.267-0.25,0.5c0,0.067,0.133,0.25,0.4,0.55C268.783,140.083,268.95,140.25,269.05,140.35z"/>
<path fill-rule="evenodd" clip-rule="evenodd" fill="#24246F" d="M268.55,138.25c-0.233,0.533-0.417,0.8-0.55,0.8
	s-0.217-0.05-0.25-0.15l-0.05-0.15c0-0.2,0.2-0.667,0.6-1.4c0.367-0.7,0.55-0.717,0.55-0.05
	C268.85,137.433,268.75,137.75,268.55,138.25z"/>
<path fill-rule="evenodd" clip-rule="evenodd" fill="#24246F" d="M268.9,137.35c-0.033,0.233-0.183,0.35-0.45,0.35
	c-0.2,0-0.3-0.133-0.3-0.4c0-0.7,0.133-1.183,0.4-1.45c0.233-0.233,0.35,0.066,0.35,0.9V137.35z"/>
<path fill-rule="evenodd" clip-rule="evenodd" fill="#24246F" d="M271.35,142.05c0.5,0.6,1.083,0.983,1.75,1.15
	c0.467-0.034,0.7,0.083,0.7,0.35c0,0.267-0.267,0.4-0.8,0.4c-0.733,0-1.383-0.317-1.95-0.95c-0.5-0.533-0.75-1.017-0.75-1.45
	c0-0.267,0.117-0.4,0.35-0.4L271.35,142.05z"/>
<path fill-rule="evenodd" clip-rule="evenodd" fill="#24246F" d="M289.9,121.65c0.267,0.3,0.649,0.717,1.149,1.25
	c0.834,0.833,1.25,1.533,1.25,2.1c0,0.233-0.1,0.35-0.3,0.35s-0.366-0.15-0.5-0.45c-0.134-0.333-0.217-0.55-0.25-0.65l-0.8-1
	c-1.2-1.2-1.8-1.9-1.8-2.1c0-0.2,0.116-0.3,0.35-0.3C289.1,120.85,289.4,121.117,289.9,121.65z"/>
<path fill-rule="evenodd" clip-rule="evenodd" fill="#24246F" d="M292.15,126.55c0,0.167,0.166,0.317,0.5,0.45
	c0.3,0.133,0.449,0.267,0.449,0.4c0,0.233-0.149,0.35-0.449,0.35c-0.334,0-0.634-0.15-0.9-0.45c-0.2-0.233-0.3-0.45-0.3-0.65
	c0-0.4,0.133-0.7,0.399-0.9s0.4-0.117,0.4,0.25L292.15,126.55z"/>
<path fill-rule="evenodd" clip-rule="evenodd" fill="#24246F" d="M295.75,130.7c-0.5,0-0.917-0.3-1.25-0.9
	c-0.267-0.466-0.4-0.867-0.4-1.2c0-0.467,0.067-0.717,0.2-0.75c0.2-0.033,0.45,0.3,0.75,1c0.2,0.3,0.684,0.783,1.45,1.45
	C296.5,130.567,296.25,130.7,295.75,130.7z"/>
<path fill-rule="evenodd" clip-rule="evenodd" fill="#24246F" d="M296.8,130.05c0,0.467-0.3,0.7-0.899,0.7
	c-0.134,0-0.217-0.05-0.25-0.15l-0.051-0.15c0-0.1,0.117-0.25,0.351-0.45s0.416-0.3,0.55-0.3
	C296.7,129.7,296.8,129.817,296.8,130.05z"/>
<path fill-rule="evenodd" clip-rule="evenodd" fill="#24246F" d="M224,119.4c0.567,0,0.967,0.367,1.2,1.1l0.25,1.5
	c0.033,0.367,0.15,0.833,0.35,1.4c0.167,0.5,0.25,0.934,0.25,1.3l1.25,1.6c0.8,1.034,1.2,1.784,1.2,2.25
	c0,0.267,0.617,0.767,1.85,1.5c1.133,0.667,1.9,1.05,2.3,1.15c3.043,0.529,5.726,0.795,8.05,0.8c1.767,0.1,2.65,0.35,2.65,0.75
	c0,0.467-0.217,0.7-0.65,0.7c-0.445-0.06-1.312-0.093-2.6-0.1c-0.16,0-0.327,0-0.5,0c0.026,0,0.093,0.017,0.2,0.05
	c-0.676,0.001-2.56-0.232-5.65-0.7c-1.2-0.133-2.017-0.233-2.45-0.3c-0.633-0.1-1.15-0.3-1.55-0.6c-2.1-1.566-3.35-2.867-3.75-3.9
	c-0.167-0.367-0.533-1.083-1.1-2.15c-0.533-0.933-0.833-1.533-0.9-1.8c-0.733-1.867-1.1-3.167-1.1-3.9
	C223.3,119.617,223.533,119.4,224,119.4z"/>
<path fill-rule="evenodd" clip-rule="evenodd" fill="#24246F" d="M285.65,125.65c-1.233,1.934-2.034,3.083-2.4,3.45
	c-0.866,0.667-2.434,1.45-4.7,2.35c-3.533,1.4-6.917,2.1-10.15,2.1c-0.4,0-0.6-0.233-0.6-0.7c0-0.567,0.867-0.883,2.6-0.95
	c2.567-0.133,4.65-0.5,6.25-1.1c3.533-1.433,5.533-2.4,6-2.9c1-1.167,1.85-2.383,2.55-3.65l0.899-1.9
	c0.233-0.7,0.551-1.017,0.95-0.95c0.334,0.067,0.5,0.317,0.5,0.75C287.55,122.45,286.917,123.617,285.65,125.65z"/>
<path fill-rule="evenodd" clip-rule="evenodd" fill="#000033" d="M287.3,118.45c-0.3,0-0.483-0.117-0.55-0.35l-0.05-0.4
	c0-1.034,0.233-2.217,0.7-3.55c0-0.733,0.017-1.35,0.05-1.85c0.066-0.933,0.35-1.4,0.85-1.4c0.434,0,0.65,0.217,0.65,0.65
	C288.85,116.15,288.3,118.45,287.3,118.45z"/>
<path fill-rule="evenodd" clip-rule="evenodd" fill="#000033" d="M216.1,135.75c-0.467,0.7-0.983,1.05-1.55,1.05
	c-0.233,0-0.35-0.117-0.35-0.35l0.6-0.4c0.434-0.333,0.717-0.683,0.85-1.05c0.133-0.333,0.267-0.583,0.4-0.75
	c0.133-0.233,0.284-0.333,0.45-0.3c0.133,0,0.2,0.1,0.2,0.3C216.7,134.65,216.5,135.15,216.1,135.75z"/>
<path fill-rule="evenodd" clip-rule="evenodd" fill="#000033" d="M218.8,129.5c0,0.133-0.083,0.25-0.25,0.35
	c-0.2,0.1-0.3,0.2-0.3,0.3c0,0.067,0.133,0.367,0.4,0.9c0.233,0.534,0.35,0.983,0.35,1.35c0,0.4-0.017,0.65-0.05,0.75
	c-0.133,0.267-0.4,0.4-0.8,0.4c-0.2,0-0.45-0.05-0.75-0.15c-0.333-0.133-0.583-0.2-0.75-0.2c-0.233,0-0.35-0.15-0.35-0.45
	c0-0.2,0.117-0.3,0.35-0.3c0.167,0,0.383,0.05,0.65,0.15l0.7,0.3c0.167-0.367,0.25-0.6,0.25-0.7c0-0.267-0.1-0.633-0.3-1.1
	c-0.233-0.5-0.35-0.867-0.35-1.1c0-0.333,0.2-0.583,0.6-0.75C218.6,129.083,218.8,129.167,218.8,129.5z"/>
<path fill-rule="evenodd" clip-rule="evenodd" fill="#000033" d="M223.5,122.5c0.067,0.533,0.267,1.067,0.6,1.6
	c0.066,0.133,0.267,0.35,0.6,0.65c0.367,0.3,0.6,0.55,0.7,0.75c0.067,0.133,0.184,0.4,0.35,0.8c0.167,0.367,0.317,0.633,0.45,0.8
	l0.15,0.85c0,0.167,0.083,0.283,0.25,0.35c0.233,0.133,0.383,0.233,0.45,0.3c0.233,0.267,0.5,0.783,0.8,1.55
	c0.066,0.2,0.367,0.717,0.9,1.55c0.167,0.367,0.8,0.683,1.9,0.95c0.033-0.033,0.083-0.117,0.15-0.25c0.034-0.133,0.117-0.2,0.25-0.2
	c0.534,0,1.267,0.167,2.2,0.5c0.933,0.333,1.4,0.583,1.4,0.75c0,0.233-0.283,0.35-0.85,0.35c-0.8,0-1.783-0.133-2.95-0.4
	c-1.133-0.267-1.833-0.517-2.1-0.75c-1.133-0.933-1.7-1.75-1.7-2.45c-0.767-1.1-1.216-1.817-1.35-2.15l-0.4-1.25
	c-0.066-0.167-0.233-0.3-0.5-0.4c-0.333-0.1-0.533-0.183-0.6-0.25c-0.067-0.066-0.15-0.267-0.25-0.6
	c-0.1-0.333-0.167-0.517-0.2-0.55c-0.3,0-0.5-0.133-0.6-0.4c0-0.3-0.017-0.5-0.05-0.6c-0.033-0.067-0.117-0.417-0.25-1.05
	c-0.167-0.7-0.25-1.117-0.25-1.25c0-0.233,0.066-0.35,0.2-0.35c0.133-0.033,0.284,0.083,0.45,0.35L223.5,122.5z"/>
<path fill-rule="evenodd" clip-rule="evenodd" fill="#000033" d="M224.35,121.75c0.066,0.167,0.133,0.467,0.2,0.9
	c0.067,0.434,0.184,0.783,0.35,1.05c0.133,0.233,0.283,0.5,0.45,0.8c0.133,0.267,0.2,0.567,0.2,0.9c0,0.2-0.1,0.3-0.3,0.3
	s-0.517-0.5-0.95-1.5c-0.367-0.8-0.65-1.55-0.85-2.25c-0.233-0.034-0.45-0.434-0.65-1.2c-0.167-0.633-0.25-1.133-0.25-1.5
	c0-0.2,0.117-0.367,0.35-0.5c0.2-0.133,0.35-0.05,0.45,0.25L224.35,121.75z"/>
<path fill-rule="evenodd" clip-rule="evenodd" fill="#000033" d="M222.8,115.5c0.034,0.267,0.15,0.767,0.35,1.5
	c0,0.4-0.117,0.6-0.35,0.6c-0.2,0-0.333-0.217-0.4-0.65c-0.033-0.434-0.066-0.684-0.1-0.75c-0.066-0.1-0.15-0.367-0.25-0.8
	c-0.066-0.4-0.1-0.633-0.1-0.7c0-0.333,0.15-0.5,0.45-0.5c0.233,0,0.367,0.2,0.4,0.6C222.833,115,222.833,115.233,222.8,115.5z"/>
<path fill-rule="evenodd" clip-rule="evenodd" fill="#000033" d="M228.55,114.05c-3.333-0.367-5.55-0.683-6.65-0.95
	c-1.8-0.4-2.7-1.133-2.7-2.2c0-0.5,0.1-0.617,0.3-0.35c0.133,0.167,0.35,0.5,0.65,1c0.8,0.667,1.483,1.017,2.05,1.05
	c0.566,0.033,1.6,0.183,3.1,0.45l2.15,0.25c1.367,0,2.4,0.083,3.1,0.25c0.567,0.034,1.417,0.2,2.55,0.5
	c0.4,0.067,1.117,0.133,2.15,0.2c0.8,0.167,1.2,0.433,1.2,0.8c0,0.2-0.117,0.3-0.35,0.3c-3.333-0.434-5.8-0.65-7.4-0.65l-3.75-0.05
	c-0.067,0-0.85-0.066-2.35-0.2c-0.467-0.067-0.7-0.184-0.7-0.35c0-0.2,0.1-0.367,0.3-0.5c0.167-0.133,0.383-0.2,0.65-0.2l0.85,0.15
	c0.633,0.133,1.05,0.3,1.25,0.5h2.3v0.05L228.55,114.05z"/>
<path fill-rule="evenodd" clip-rule="evenodd" fill="#000033" d="M235.3,133.75c-0.367,0-1.117-0.2-2.25-0.6
	c-1.066-0.4-1.633-0.617-1.7-0.65c-0.633-0.2-1.217-0.533-1.75-1s-0.934-0.8-1.2-1c-0.667-0.3-1.1-0.55-1.3-0.75
	c-0.434-0.433-0.717-0.783-0.85-1.05c-0.8-1.3-1.2-2.117-1.2-2.45c0-0.1,0.083-0.2,0.25-0.3l-0.2-0.7c0-0.467,0.1-0.6,0.3-0.4
	c0.2,0.167,0.367,0.5,0.5,1c0.033,0.1,0.083,0.35,0.15,0.75c0.034,0.333,0.1,0.566,0.2,0.7c0.367,0.534,1.117,1.333,2.25,2.4
	c0.233,0.233,0.633,0.617,1.2,1.15c0.6,0.467,1.2,0.816,1.8,1.05c2.733,0.767,4.1,1.283,4.1,1.55
	C235.6,133.65,235.5,133.75,235.3,133.75z"/>
<path fill-rule="evenodd" clip-rule="evenodd" fill="#000033" d="M236.5,132.75l0.8,0.1v0.05h1.45l0.7,0.1
	c0.4,0,0.667,0.017,0.8,0.05l0.25-0.05h1.3c0.167,0,0.434-0.033,0.8-0.1c0.267-0.066,0.717-0.1,1.35-0.1c0.167,0,0.267,0.1,0.3,0.3
	c0.067,0.2,0.15,0.3,0.25,0.3c0.333,0.033,0.667,0.067,1,0.1c0.167,0.033,0.25,0.133,0.25,0.3c0,0.333-0.933,0.5-2.8,0.5
	c-0.4-0.1-0.65-0.15-0.75-0.15c-1.2,0.1-2.5,0.15-3.9,0.15c-2.966,0-4.45-0.233-4.45-0.7c0-0.2,0.1-0.3,0.3-0.3
	c0.5,0,1.15,0.1,1.95,0.3h3.15l-1.95-0.1c-0.167-0.033-0.483-0.083-0.95-0.15c-0.233,0-0.35-0.1-0.35-0.3
	c0-0.133,0.033-0.216,0.1-0.25C236.133,132.767,236.267,132.75,236.5,132.75z"/>
<path fill-rule="evenodd" clip-rule="evenodd" fill="#000033" d="M239.5,126c0,0.3,0.267,0.983,0.8,2.05
	c0.233,0.6,0.85,1.184,1.85,1.75l2.6,1.7c0.067,0.033,0.567,0.2,1.5,0.5c0.9,0.333,1.35,0.65,1.35,0.95c0,0.2-0.1,0.3-0.3,0.3
	c-0.433,0-1.483-0.417-3.15-1.25c-1.3-0.667-2.417-1.283-3.35-1.85c-1.033-0.633-1.716-1.183-2.05-1.65
	c-0.1-0.1-0.217-0.367-0.35-0.8c-0.167-0.467-0.25-0.85-0.25-1.15L239,125c0.533-0.867,0.8-0.917,0.8-0.15
	C239.8,125.117,239.7,125.5,239.5,126z"/>
<path fill-rule="evenodd" clip-rule="evenodd" fill="#000033" d="M241.05,142.3l-0.05-0.15c0-0.033,0.267-0.3,0.8-0.8
	c0.5-0.533,0.75-1,0.75-1.4c-0.1-0.767-0.15-1.317-0.15-1.65c0-0.433,0.1-0.566,0.3-0.4c0.2,0.167,0.316,0.417,0.35,0.75l0.1,1.3
	c-0.333,1.667-0.933,2.5-1.8,2.5C241.217,142.45,241.117,142.4,241.05,142.3z"/>
<path fill-rule="evenodd" clip-rule="evenodd" fill="#000033" d="M242.4,144.15c0.1,0,0.383,0.05,0.85,0.15v0.05h0.45
	c0.267-0.167,0.483-0.483,0.65-0.95c0.167-0.633,0.283-0.983,0.35-1.05c0.167-0.333,0.417-0.65,0.75-0.95
	c0.233-0.2,0.35-0.5,0.35-0.9l-0.6-1.85c0-0.2,0.117-0.3,0.35-0.3c0.2,0,0.55,0.8,1.05,2.4c0,0.367-0.2,0.7-0.6,1
	c-0.433,0.367-0.7,0.75-0.8,1.15c0,0.067-0.083,0.434-0.25,1.1c-0.3,0.633-0.8,0.95-1.5,0.95c-0.9,0-1.35-0.167-1.35-0.5
	C242.1,144.25,242.2,144.15,242.4,144.15z"/>
<path fill-rule="evenodd" clip-rule="evenodd" fill="#000033" d="M243.5,135.35c-0.2,0-0.35-0.167-0.45-0.5l-0.15-0.5
	c0-0.2,0.083-0.367,0.25-0.5c0.167-0.133,0.3-0.05,0.4,0.25c0,0.267,0.1,0.583,0.3,0.95C243.85,135.25,243.733,135.35,243.5,135.35z
	"/>
<path fill-rule="evenodd" clip-rule="evenodd" fill="#000033" d="M246.75,133.7v0.05c0.867-0.033,1.35-0.033,1.45,0h2.1
	c0.333-0.2,0.5-0.1,0.5,0.3c0,0.133-0.05,0.233-0.15,0.3h-4.05c-0.1-0.033-0.483-0.133-1.15-0.3c-0.233-0.033-0.35-0.133-0.35-0.3
	c0-0.267,0.15-0.367,0.45-0.3C246.117,133.617,246.517,133.7,246.75,133.7z"/>
<path fill-rule="evenodd" clip-rule="evenodd" fill="#000033" d="M229.5,131.6c0,0.2-0.117,0.3-0.35,0.3
	c-0.133,0-0.35-0.233-0.65-0.7c-0.3-0.467-0.45-0.733-0.45-0.8c0-0.2,0.117-0.3,0.35-0.3S229,130.6,229.5,131.6z"/>
<path fill-rule="evenodd" clip-rule="evenodd" fill="#000033" d="M240.6,122.2l-0.05-0.15c0-0.3,1.083-0.783,3.25-1.45
	c2-0.633,3.233-0.95,3.7-0.95c0.167,0,0.3,0.05,0.4,0.15c0.233,0,1.15-0.167,2.75-0.5c0.1,0,0.283-0.05,0.55-0.15
	c0.133-0.066,0.4-0.1,0.8-0.1l1-0.1c0.033-0.034,0.183-0.05,0.45-0.05l0.1-0.05h0.5c0.333,0,0.5,0.017,0.5,0.05
	c1.067,0,1.6,0.15,1.6,0.45c0,0.367-0.617,0.55-1.85,0.55l-1.8-0.25c-0.333,0-1.317,0.15-2.95,0.45c-1.6,0.3-2.5,0.483-2.7,0.55
	c-1.633,0.467-2.6,0.717-2.9,0.75c-2,0.633-3.017,0.95-3.05,0.95C240.767,122.35,240.667,122.3,240.6,122.2z"/>
<path fill-rule="evenodd" clip-rule="evenodd" fill="#000033" d="M263.6,120.25c-0.167,0-0.717-0.083-1.65-0.25
	c-0.9-0.2-2.367-0.3-4.4-0.3c-1.066,0-1.633-0.017-1.7-0.05c-0.033-0.1-0.1-0.25-0.2-0.45H253l-0.5-0.05
	c-1,0.033-1.5,0.017-1.5-0.05c-0.417,0.004-0.684,0.021-0.8,0.05c-0.167,0.033-0.3,0.05-0.4,0.05l0.1,0.25c0,0.2-0.1,0.3-0.3,0.3
	c-0.133,0-0.25-0.083-0.35-0.25s-0.15-0.3-0.15-0.4c0-0.3,0.183-0.483,0.55-0.55c0.191-0.055,0.575-0.088,1.15-0.1
	c0,0.066,0.6,0.083,1.8,0.05l0.55,0.1h1.5c0.267-0.133,0.75-0.117,1.45,0.05l0.75,0.05c0.4-0.034,0.783,0,1.15,0.1
	c0.9,0,1.5,0.083,1.8,0.25c0.4,0,0.8,0.05,1.2,0.15c0.433,0.1,0.733,0.15,0.9,0.15l0.9-0.25c0.4,0,1.017,0.167,1.85,0.5
	c0.867,0.333,1.3,0.617,1.3,0.85c0,0.2-0.1,0.3-0.3,0.3c-0.867-0.433-1.4-0.65-1.6-0.65C263.95,120.2,263.8,120.25,263.6,120.25z"/>
<path fill-rule="evenodd" clip-rule="evenodd" fill="#000033" d="M266.05,120.4c0.3,0,0.95,0.217,1.95,0.65
	c1.067,0.467,1.6,0.833,1.6,1.1c0,0.067-0.033,0.15-0.1,0.25c0,0.067,0.183,0.283,0.55,0.65c0.4,0.4,0.65,0.684,0.75,0.85
	c0.067,0.167,0.133,0.45,0.2,0.85c0.067,0.167,0.167,0.333,0.3,0.5c0.067,0.1,0.1,0.2,0.1,0.3c0,0.534-0.333,1.534-1,3
	c-0.033,0.067-0.217,0.25-0.55,0.55c-0.3,0.267-0.483,0.533-0.55,0.8c-0.066,0.167-0.267,0.4-0.6,0.7
	c-0.367,0.367-0.667,0.55-0.9,0.55c-0.233,0-0.35-0.217-0.35-0.65c0-0.067,0.667-0.65,2-1.75c0.1-0.133,0.3-0.483,0.6-1.05
	c0.3-0.567,0.45-0.9,0.45-1l-0.15-0.35c0.133-0.367,0.2-0.617,0.2-0.75c0-0.6-0.133-1.117-0.4-1.55c-0.2-0.267-0.6-0.7-1.2-1.3
	c-0.267-0.333-0.467-0.567-0.6-0.7c-0.2-0.2-0.55-0.333-1.05-0.4c-1.167-0.2-1.75-0.517-1.75-0.95c0-0.133,0.034-0.217,0.1-0.25
	C265.683,120.417,265.817,120.4,266.05,120.4z"/>
<path fill-rule="evenodd" clip-rule="evenodd" fill="#000033" d="M260,134.1l-0.05-0.15c0-0.2,0.316-0.4,0.95-0.6
	c0.567-0.167,0.967-0.25,1.2-0.25l2.4-1c0.133-0.067,0.617-0.483,1.45-1.25c0.867-0.7,1.466-1.05,1.8-1.05l0.6,0.25
	c0.167,0,0.433-0.233,0.8-0.7c0.367-0.5,0.717-0.75,1.05-0.75c0.2,0,0.3,0.133,0.3,0.4c0,0.733-1.317,1.8-3.95,3.2
	c-2.633,1.367-4.633,2.05-6,2.05C260.25,134.25,260.067,134.2,260,134.1z"/>
<path fill-rule="evenodd" clip-rule="evenodd" fill="#000033" d="M249.1,126.35c-0.733,0.1-1.3,0.217-1.7,0.35
	c-0.318,0.127-0.651,0.194-1,0.2l-0.15,0.45c1.267-0.467,2.25-0.8,2.95-1H249.1z M251.1,126c0,0.3-0.267,0.55-0.8,0.75
	c-0.733,0.167-1.267,0.3-1.6,0.4c-0.467,0.233-0.883,0.417-1.25,0.55c-0.667,0.233-1.317,0.35-1.95,0.35
	c-0.567,0-0.817-0.117-0.75-0.35l-0.25,0.1c-0.133,0-0.217-0.05-0.25-0.15l-0.05-0.15c0-0.467,0.716-0.9,2.15-1.3
	c1.4-0.4,2.816-0.6,4.25-0.6C250.867,125.6,251.033,125.733,251.1,126z"/>
<path fill-rule="evenodd" clip-rule="evenodd" fill="#000033" d="M253.65,128.4l0.65-0.05l1.3,0.2v0.05
	c0.967,0.066,1.533,0.117,1.7,0.15c0.333,0.067,0.5,0.217,0.5,0.45c0,0.3-0.3,0.583-0.9,0.85c-0.6,0.267-1.167,0.4-1.7,0.4
	c-0.6,0-0.9-0.15-0.9-0.45c0-0.2,0.1-0.3,0.3-0.3l0.35,0.15h0.55c0.2-0.133,0.617-0.283,1.25-0.45v-0.05
	c-1.167-0.133-1.917-0.25-2.25-0.35h-0.45l-0.05,0.05c0.167,0,0.25,0.1,0.25,0.3c0,0.2-0.1,0.3-0.3,0.3c-0.3,0-0.567-0.117-0.8-0.35
	c-0.2-0.2-0.3-0.35-0.3-0.45c0-0.133,0.183-0.267,0.55-0.4L253.65,128.4z"/>
<path fill-rule="evenodd" clip-rule="evenodd" fill="#000033" d="M258.95,125.85c0-0.3,0.316-0.45,0.95-0.45
	c0.867,0,1.85,0.367,2.95,1.1c1.033,0.7,1.55,1.267,1.55,1.7c0,0.233-0.133,0.35-0.4,0.35c-0.333-0.066-1.083-0.167-2.25-0.3
	c-0.267-0.033-0.5-0.133-0.7-0.3c-0.2-0.167-0.367-0.3-0.5-0.4c-0.167-0.133-0.45-0.4-0.85-0.8
	C259.2,126.25,258.95,125.95,258.95,125.85z M262.4,127.65c0.067,0,0.367-0.017,0.9-0.05c-0.733-0.467-1.2-0.767-1.4-0.9
	c-0.6-0.3-1.217-0.5-1.85-0.6l1.1,1.1C261.517,127.5,261.933,127.65,262.4,127.65z"/>
<path fill-rule="evenodd" clip-rule="evenodd" fill="#000033" d="M268.15,135.9c0,0.067,0.083,0.2,0.25,0.4
	c0,0.1-0.15,0.567-0.45,1.4c-0.333,0.8-0.5,1.3-0.5,1.5l0.25,1.15c0.1,0.167,0.45,0.367,1.05,0.6l0.4-0.05c0-0.2,0.133-0.3,0.4-0.3
	c0.6,0,1.017,0.617,1.25,1.85c0.133,0.367,0.483,0.733,1.05,1.1c0.5,0.3,0.75,0.467,0.75,0.5c0,0.2-0.117,0.3-0.35,0.3
	c-0.333,0-0.75-0.2-1.25-0.6c-0.4-0.3-0.633-0.517-0.7-0.65c-0.066-0.434-0.133-0.75-0.2-0.95c-0.1-0.367-0.35-0.55-0.75-0.55
	c-1.067,0-1.783-0.267-2.15-0.8c-0.233-0.333-0.35-0.85-0.35-1.55c0-0.6,0.133-1.467,0.4-2.6c0.033-0.2,0.15-0.617,0.35-1.25
	c0.033-0.4,0.15-0.633,0.35-0.7c0.2-0.067,0.3,0.066,0.3,0.4L268.15,135.9z"/>
<path fill-rule="evenodd" clip-rule="evenodd" fill="#000033" d="M284.05,128.95c0,0.2-0.066,0.4-0.2,0.6
	c-0.233,0.233-0.416,0.417-0.55,0.55l-1.8,0.6c-0.3,0-0.45-0.1-0.45-0.3c0-0.133,0.45-0.467,1.351-1
	c0.433-0.267,0.866-0.533,1.3-0.8C283.934,128.6,284.05,128.717,284.05,128.95z"/>
<path fill-rule="evenodd" clip-rule="evenodd" fill="#000033" d="M290.2,122.8c0.133,0.133,0.45,0.534,0.95,1.2
	c0.6,0.8,0.899,1.267,0.899,1.4s-0.05,0.283-0.149,0.45c-0.101,0.167-0.15,0.35-0.15,0.55c0,0.233,0.116,0.517,0.35,0.85
	c0.2,0.333,0.301,0.533,0.301,0.6c0,0.2-0.117,0.3-0.351,0.3c-0.3,0-0.533-0.267-0.7-0.8c-0.133-0.4-0.199-0.717-0.199-0.95
	c0.166-0.533,0.25-0.85,0.25-0.95c0-0.267-0.584-1.034-1.75-2.3c-1.167-1.267-1.75-1.983-1.75-2.15c0-0.467,0.3-0.383,0.899,0.25
	C289.134,121.583,289.6,122.1,290.2,122.8z"/>
<path fill-rule="evenodd" clip-rule="evenodd" fill="#000033" d="M294.7,130c0.3,0.467,0.666,0.7,1.1,0.7c0.667,0,1-0.65,1-1.95
	c0-0.267,0.101-0.4,0.3-0.4c0.267,0,0.4,0.267,0.4,0.8c0,0.434-0.1,0.867-0.3,1.3c-0.3,0.6-0.75,0.9-1.351,0.9
	c-1.1,0-1.783-0.6-2.05-1.8c-0.066-1.2-0.166-1.8-0.3-1.8s-0.283,0.083-0.45,0.25c-0.133,0.167-0.283,0.25-0.45,0.25
	c-0.133,0-0.216-0.05-0.25-0.15l-0.05-0.15c0-0.067,0.134-0.217,0.4-0.45c0.3-0.267,0.583-0.4,0.85-0.4
	c0.667,0,0.917,0.566,0.75,1.7C294.3,129.2,294.434,129.6,294.7,130z"/>
<path fill-rule="evenodd" clip-rule="evenodd" fill="#000033" d="M297.05,129.35c-0.2,0-0.3-0.117-0.3-0.35l0.1-1.05
	c0.301-0.267,0.483-0.333,0.551-0.2c0.033,0.033,0.05,0.2,0.05,0.5C297.45,128.983,297.316,129.35,297.05,129.35z"/>
<path fill-rule="evenodd" clip-rule="evenodd" fill="#000033" d="M287.95,110.2c-0.167-0.667-0.25-1.133-0.25-1.4
	c0-0.3,0.116-0.45,0.35-0.45c0.434,0,0.8,1.316,1.101,3.95c0,0.333-0.051,0.883-0.15,1.65c-0.1,0.7-0.15,1.233-0.15,1.6
	c0,0.3-0.183,0.784-0.55,1.45c-0.366,0.633-0.566,1.133-0.6,1.5c-0.066,1.133-0.134,2.6-0.2,4.4c-0.066,1.2-0.283,1.8-0.65,1.8
	c-0.199,0-0.3-0.184-0.3-0.55c0.233-1.6,0.351-2.566,0.351-2.9c-0.034-0.633-0.051-1.117-0.051-1.45c-0.033-0.6,0.017-1.1,0.15-1.5
	c0.066-0.667,0.116-1.167,0.15-1.5c0.066-0.667,0.267-1.066,0.6-1.2c0.134-0.067,0.217-0.25,0.25-0.55
	c0.033-0.367,0.1-0.617,0.2-0.75c0.133-0.233,0.2-0.7,0.2-1.4l-0.051-0.7c-0.133-0.034-0.267-0.184-0.399-0.45
	c-0.101-0.233-0.15-0.45-0.15-0.65C287.9,110.767,287.95,110.467,287.95,110.2z"/>
<path fill-rule="evenodd" clip-rule="evenodd" fill="#000033" d="M285.95,109.45c0.066,0.133,0.1,0.216,0.1,0.25
	c0,0.1-0.1,0.2-0.3,0.3c-0.233,0.1-0.384,0.283-0.45,0.55c-0.066,0.333-0.35,0.6-0.85,0.8c-0.5,0.2-0.9,0.367-1.2,0.5
	c-0.6,0.2-1.083,0.3-1.45,0.3l-0.35-0.15c-3.334,0.8-5.217,1.25-5.65,1.35c-3.833,0.7-6.066,1.05-6.7,1.05
	c-0.267,0-0.434-0.033-0.5-0.1c0-0.033,0-0.117,0-0.25c-0.6,0-0.9-0.133-0.9-0.4c0-0.3,0.216-0.383,0.65-0.25h1.4
	c1.3-0.066,2.283-0.25,2.95-0.55c0.833-0.367,1.583-0.6,2.25-0.7v0.05c1.5-0.067,3-0.284,4.5-0.65c0.833-0.2,1.883-0.483,3.149-0.85
	c0.4-0.133,1.384-0.7,2.95-1.7c1.233-0.833,1.851-1.067,1.851-0.7C287.4,108.467,286.917,108.85,285.95,109.45z"/>
<path fill-rule="evenodd" clip-rule="evenodd" fill="#000033" d="M271.15,113.85c0.4,0.1,0.6,0.25,0.6,0.45
	c0,0.233-1.033,0.45-3.1,0.65c-1.867,0.167-3.6,0.25-5.2,0.25c-0.367,0-0.6-0.05-0.7-0.15l-0.05-0.15c0-0.167,0.05-0.267,0.15-0.3
	l1.1-0.15l0.05-0.05c0-0.267,0-0.417,0-0.45c0.033,0,0.183,0,0.45,0c0.133,0,0.533-0.067,1.2-0.2c0.667-0.133,1.267-0.217,1.8-0.25
	h1.75C270.4,113.7,271.05,113.817,271.15,113.85z"/>
<path fill-rule="evenodd" clip-rule="evenodd" fill="#000033" d="M236.3,114.35c1.133,0,1.8,0.033,2,0.1l5.1,0.3
	c1-0.167,1.684-0.25,2.05-0.25c0.466,0,0.75,0.033,0.85,0.1c0.034,0.033,0.05,0.117,0.05,0.25s-0.067,0.233-0.2,0.3
	c0.434-0.033,0.65,0.083,0.65,0.35c0,0.233-0.517,0.333-1.55,0.3l-1.5-0.05l-1.05,0.1c-5.1-0.367-7.65-0.767-7.65-1.2
	c0-0.267,0.233-0.4,0.7-0.4L236.3,114.35z"/>
<path fill-rule="evenodd" clip-rule="evenodd" fill="#000033" d="M251.95,114.05c0.466,0,0.733,0.034,0.8,0.1h0.45
	c0.095-0.032,0.645-0.065,1.65-0.1c0,0.067,0.467,0.1,1.4,0.1c0.033,0,0.217,0,0.55,0c0.333,0.033,0.567,0.083,0.7,0.15h0.6l0.8-0.1
	l1.05,0.1c0.633-0.133,0.917-0.033,0.85,0.3c0,0.281-0.35,0.431-1.05,0.45h1.3c0.633,0,0.95,0.117,0.95,0.35s-0.15,0.35-0.45,0.35
	l-4.9-0.05l-0.5-0.05l-4.8,0.1c-0.533-0.1-0.967-0.233-1.3-0.4c-0.7,0.033-1.417-0.05-2.15-0.25c-0.7-0.233-1.05-0.434-1.05-0.6
	c0-0.2,0.117-0.3,0.35-0.3l1.15,0.2c0.4,0,1.033-0.066,1.9-0.2l1.3-0.15H251.95z M254.55,114.85l1.6-0.05
	c-0.7-0.066-1.1-0.1-1.2-0.1h-0.3l-0.05,0.1L254.55,114.85z"/>
<path fill-rule="evenodd" clip-rule="evenodd" fill="#000033" d="M219.15,107.3c0,0.534,0.133,1.333,0.4,2.4
	c0.034,0.267,0.233,1.017,0.6,2.25c0,0.2-0.117,0.3-0.35,0.3c-0.5,0-0.833-1-1-3c-0.167-0.733-0.25-1.233-0.25-1.5
	c-0.033-0.2-0.133-0.5-0.3-0.9c-0.2-0.367-0.3-0.567-0.3-0.6c0-0.233,0.216-0.35,0.65-0.35
	C219.067,105.9,219.25,106.367,219.15,107.3z"/>
<path fill-rule="evenodd" clip-rule="evenodd" fill="#000033" d="M218.55,105.05c0,0.067,0.083,0.617,0.25,1.65
	c0,0.267-0.1,0.4-0.3,0.4c-0.233,0-0.4-0.467-0.5-1.4c-0.067-0.534-0.1-1.05-0.1-1.55c0-0.867,0.133-1.283,0.4-1.25
	c0.233,0.033,0.35,0.4,0.35,1.1L218.55,105.05z"/>
<path fill-rule="evenodd" clip-rule="evenodd" fill="#000033" d="M237.15,105.8h0.1c2.734,0.068,4.151,0.168,4.25,0.3l0.55-0.05
	c0.633,0,1.267,0.067,1.9,0.2h1.65c0.2-0.033,0.3,0.067,0.3,0.3c0,0.133-0.05,0.233-0.15,0.3H243l-0.6,0.05c-0.3,0-0.467,0-0.5,0
	c0-0.066-0.017-0.133-0.05-0.2c-2.872-0.216-4.414-0.3-4.625-0.25H237.2c-0.905,0.007-1.872,0.107-2.9,0.3
	c-1.066,0.167-2,0.25-2.8,0.25c-1.933,0-3.067-0.083-3.4-0.25c-0.333-0.333-0.867-0.667-1.6-1c-1.133-0.567-1.7-1.167-1.7-1.8
	c0-0.2,0.167-0.333,0.5-0.4c0.333-0.066,0.5,0.034,0.5,0.3c0,0.167-0.083,0.267-0.25,0.3c0.3,0.6,1.15,1.1,2.55,1.5
	c0.367,0.1,1.033,0.233,2,0.4c1.167,0.2,2.066,0.3,2.7,0.3c0.133,0,0.583-0.083,1.35-0.25
	C235.091,105.905,236.091,105.805,237.15,105.8z"/>
<path fill-rule="evenodd" clip-rule="evenodd" fill="#000033" d="M256.95,105.1c0,0.467-1.034,0.767-3.1,0.9
	c-1.967,0.467-3.067,0.7-3.3,0.7c-0.2-0.1-0.333-0.15-0.4-0.15c-0.233,0-0.483,0.05-0.75,0.15c-0.333,0.133-0.566,0.216-0.7,0.25
	h-2.35c-0.2-0.034-0.883-0.083-2.05-0.15c-0.267,0-0.4-0.1-0.4-0.3s0.15-0.3,0.45-0.3c0.566,0,0.883,0.033,0.95,0.1h0.35
	c0.367-0.066,1.533-0.267,3.5-0.6c0.633-0.367,1.317-0.65,2.05-0.85c0.767-0.2,1.15-0.184,1.15,0.05c0,0.023-0.017,0.04-0.05,0.05
	c2.268-0.2,3.468-0.3,3.6-0.3C256.6,104.65,256.95,104.8,256.95,105.1z"/>
<path fill-rule="evenodd" clip-rule="evenodd" fill="#000033" d="M247.25,97.55c0.8-0.033,1.6,0.067,2.4,0.3L251.7,98
	c0.367,0.033,0.9,0.083,1.6,0.15c0.567,0.067,0.85,0.2,0.85,0.4c0,0.133-0.033,0.217-0.1,0.25c-0.1,0.034-0.383,0.05-0.85,0.05
	c-1.1,0-2.934-0.184-5.5-0.55c-0.9-0.133-2.25-0.2-4.05-0.2c-1.233,0-1.85-0.117-1.85-0.35c0-0.167,0.117-0.267,0.35-0.3
	c0.233-0.034,1.117-0.05,2.65-0.05l0.35-0.1h0.35C246.5,97.3,247.083,97.383,247.25,97.55z"/>
<path fill-rule="evenodd" clip-rule="evenodd" fill="#000033" d="M252.8,98.95c-0.133,0-0.216-0.05-0.25-0.15l-0.05-0.15
	c0-0.4,0.65-0.55,1.95-0.45l1.45-0.05c0.167,0,0.55,0.05,1.15,0.15l0.7,0.05c0.767,0,1.317,0.033,1.65,0.1h1.75l0.05-0.05h3.1
	l0.6-0.1h1.9c0.167,0.034,0.383,0.083,0.65,0.15c0.233,0.066,0.35,0.2,0.35,0.4c0,0.133-0.066,0.217-0.2,0.25
	c-0.1,0.033-0.5,0.083-1.2,0.15c-0.6,0.2-1.15,0.3-1.65,0.3c-0.267,0-0.4-0.1-0.4-0.3c0-0.033,0.033-0.117,0.1-0.25l-5.9,0.05
	c-0.433-0.033-1.233-0.1-2.4-0.2c-0.533-0.033-1.183-0.05-1.95-0.05c-0.6,0-0.967,0.034-1.1,0.1
	C252.967,98.933,252.867,98.95,252.8,98.95z"/>
<path fill-rule="evenodd" clip-rule="evenodd" fill="#000033" d="M278.25,101.95c0.467,0.433,0.7,0.767,0.7,1
	c0,0.767-0.25,1.417-0.75,1.95c-0.733,0.767-1.867,1.15-3.4,1.15c-1.4,0-2.1-0.167-2.1-0.5c0-0.233,0.117-0.35,0.35-0.35
	c0.2,0,0.534,0.066,1,0.2l1.75-0.3c0.334-0.133,0.7-0.333,1.101-0.6c0.233-0.2,0.533-0.45,0.899-0.75
	c0.233-0.267,0.351-0.533,0.351-0.8c0-0.3-0.65-0.8-1.95-1.5c-1.3-0.733-1.95-1.167-1.95-1.3c0-0.433,0.383-0.433,1.15,0
	c0.399,0.233,0.949,0.583,1.649,1.05C277.35,101.267,277.75,101.517,278.25,101.95z"/>
<path fill-rule="evenodd" clip-rule="evenodd" fill="#000033" d="M274.25,105.4c0.467,0,0.7,0.117,0.7,0.35
	c0,0.3-0.55,0.517-1.65,0.65c-0.466-0.1-0.966-0.15-1.5-0.15l-2.9,0.15c-1.833-0.133-3.267-0.217-4.3-0.25l-3.5-0.2l-1.8,0.1
	c-1.133,0-2.117-0.066-2.95-0.2c-0.8-0.133-1.2-0.283-1.2-0.45c0-0.2,0.15-0.3,0.45-0.3l0.65,0.1h0.25
	c-0.167-0.167-0.25-0.284-0.25-0.35c0-0.4,0.25-0.434,0.75-0.1l0.6,0.05c0.367,0.067,0.617,0.133,0.75,0.2l1.05,0.1l4.9-0.1v0.05
	l0.6,0.05c0.6,0,0.9,0.017,0.9,0.05l1.15,0.1c1.367,0,2.466,0.083,3.3,0.25H271c0.1-0.033,0.417-0.083,0.95-0.15
	c0.466-0.067,0.783-0.1,0.95-0.1c0.133,0,0.267,0.067,0.4,0.2l0.4,0.05L274.25,105.4z"/>
</svg>
