<?xml version="1.0" encoding="utf-8"?>
<!-- Generator: Adobe Illustrator 16.0.0, SVG Export Plug-In . SVG Version: 6.00 Build 0)  -->
<!DOCTYPE svg PUBLIC "-//W3C//DTD SVG 1.1//EN" "http://www.w3.org/Graphics/SVG/1.1/DTD/svg11.dtd">
<svg version="1.1" id="Selected_Items" xmlns="http://www.w3.org/2000/svg" xmlns:xlink="http://www.w3.org/1999/xlink" x="0px"
	 y="0px" width="550px" height="400px" viewBox="0 0 550 400" enable-background="new 0 0 550 400" xml:space="preserve">
<path fill-rule="evenodd" clip-rule="evenodd" fill="#482400" d="M268.25,155.3c0-0.5,0.55-0.6,1.65-0.3
	c1.067,0.267,2.25,0.833,3.55,1.7c3.467,2.233,5.2,4.683,5.2,7.35c0,1.3-0.534,2.383-1.601,3.25c-1.733,1.367-3.033,2.733-3.9,4.1
	c-0.2,0.3-0.533,1.617-1,3.95c-0.4,2.033-0.783,3.05-1.15,3.05c-0.533,0-0.85-0.316-0.95-0.95c-0.033-0.667-0.05-1.017-0.05-1.05
	c0-2.533,1.133-5.167,3.4-7.9c2.234-2.7,3.35-4.133,3.35-4.3c0-0.667-0.634-1.817-1.9-3.45c-1.4-1.833-2.684-2.867-3.85-3.1
	c-0.267,2.067-1.633,4.184-4.1,6.35c-2.767,2.4-6.517,4.483-11.25,6.25c-1.633,0.633-3.083,1.633-4.35,3
	c-1.066,1.2-1.783,2.4-2.15,3.6c-0.133,0.5-0.4,1.733-0.8,3.7c-0.367,1.733-0.7,2.6-1,2.6c-0.6,0-0.967-0.35-1.1-1.05
	c0-0.7,0-1.067,0-1.1c0-3.767,1.183-6.817,3.55-9.15c1.633-1.6,4.25-3.167,7.85-4.7c4.2-1.767,6.8-3,7.8-3.7
	c2.367-1.634,3.55-3.717,3.55-6.25c0-0.2-0.117-0.567-0.35-1.1C268.383,155.6,268.25,155.333,268.25,155.3z"/>
<path fill-rule="evenodd" clip-rule="evenodd" fill="#482400" d="M283.15,171c0,1.066-0.334,2.033-1,2.9
	c-0.7,0.867-1.917,1.867-3.65,3l-0.9-0.3c-0.066-0.067-0.1-0.317-0.1-0.75c0-0.467,0.634-1.2,1.9-2.2c1.233-1,1.85-1.9,1.85-2.7
	c0-1.067-0.75-2.3-2.25-3.7s-2.25-2.167-2.25-2.3c0-1.8,1.066-1.65,3.2,0.45C282.083,167.467,283.15,169.333,283.15,171z"/>
<path fill-rule="evenodd" clip-rule="evenodd" fill="#482400" d="M240.5,181.8c0-1.333,1.167-2.966,3.5-4.9
	c2.167-1.767,3.75-2.65,4.75-2.65c0.533,0,0.833,0.35,0.9,1.05c0,0.667-1.1,1.7-3.3,3.1c-2.3,1.467-3.533,2.55-3.7,3.25
	c0.733,0.133,1.617,0.2,2.65,0.2c1.133,0.133,2.75,0.566,4.85,1.3h10.1l0.5-0.15l13.75-0.1c5-0.066,8.983-0.717,11.95-1.95
	c2.366-0.967,3.55-1.967,3.55-3c0-0.733-1.583-1.384-4.75-1.95c-3.167-0.533-4.75-1.383-4.75-2.55c0-1.2,0.7-1.55,2.1-1.05
	c0.867,0.333,2.551,1,5.051,2c1.899,0.434,3.149,1,3.75,1.7c0.333,0.433,0.5,1.083,0.5,1.95c0,3.8-5.634,6.083-16.9,6.85
	c-2.3,0.033-4.617,0.05-6.95,0.05c-4.7,0.066-7.133,0.133-7.3,0.2h-11c-4.2-0.7-6.667-1.167-7.4-1.4
	C241.117,183.35,240.5,182.7,240.5,181.8z"/>
<path fill-rule="evenodd" clip-rule="evenodd" fill="#482400" d="M240.25,183.75c0-3.267,0.75-2.8,2.25,1.4
	c1.333,3.767,2.45,7.883,3.35,12.35c0.3,0.933,1.733,4.167,4.3,9.7c2.333,5,3.5,7.767,3.5,8.3c0,0.6-0.35,0.9-1.05,0.9
	c-0.467,0-1.667-2.167-3.6-6.5c-2.467-5.567-4-8.867-4.6-9.9c-0.433-0.833-1.2-3.283-2.3-7.35
	C240.867,188.183,240.25,185.217,240.25,183.75z"/>
<path fill-rule="evenodd" clip-rule="evenodd" fill="#482400" d="M283.15,212.5c0,1.033-1.834,2.283-5.5,3.75
	c-3.967,1.6-7.851,2.4-11.65,2.4c-5.367,0-9.283-0.5-11.75-1.5c-1.5-0.601-2.25-1.184-2.25-1.75c0-0.367,0.117-0.667,0.35-0.9
	c0.2-0.167,0.417-0.25,0.65-0.25c0.033,0,1.017,0.4,2.95,1.2c2.733,0.8,6.017,1.2,9.85,1.2c2.967,0,5.8-0.434,8.5-1.301
	c1.367-0.433,2.601-0.916,3.7-1.449c0.366-0.101,1.366-0.817,3-2.15C282.434,210.816,283.15,211.066,283.15,212.5z"/>
<path fill-rule="evenodd" clip-rule="evenodd" fill="#482400" d="M287.5,196.75c-0.467,1.967-1.15,5.4-2.05,10.3
	c-0.9,4.066-1.884,6.434-2.95,7.101l-0.9-0.301c-0.066-0.233-0.1-0.6-0.1-1.1c0-0.267,0.6-2.833,1.8-7.7
	c1.4-5.533,2.25-9.05,2.55-10.55c0.233-1.033,0.65-2.533,1.25-4.5c0.601-2.067,1.017-3.567,1.25-4.5
	c0.067-0.333,0.284-1.833,0.65-4.5c1.767-3.7,2.65-4.367,2.65-2C291.65,180.033,290.267,185.95,287.5,196.75z"/>
<path fill-rule="evenodd" clip-rule="evenodd" fill="#482400" d="M275.75,211.9c-0.934,0-1.617-0.45-2.05-1.351
	c-0.3-0.899-0.45-1.366-0.45-1.399c0-0.467,0.117-0.9,0.35-1.301c0.466-0.733,1.3-1.1,2.5-1.1c0.733,0,1.317,0.167,1.75,0.5
	c0.134-0.5,1.017-1.384,2.65-2.65c1.767-1.333,2.65-1.149,2.65,0.551C283.15,205.483,280.684,207.733,275.75,211.9z"/>
<path fill-rule="evenodd" clip-rule="evenodd" fill="#482400" d="M257.25,209.05c0.5-0.366,1.2-0.55,2.1-0.55
	c1.233,0,2.117,0.483,2.65,1.45c0.267,0.467,0.4,0.967,0.4,1.5c0,0.366-0.017,0.6-0.05,0.7c-0.1,0.366-0.383,0.616-0.85,0.75
	c-0.933,0.166-1.6,0.25-2,0.25c-0.5,0-1.667-0.417-3.5-1.25c-1.967-0.867-3.3-1.634-4-2.301c-0.1-0.1-0.3-0.733-0.6-1.899
	c-0.267-1.101-0.4-1.783-0.4-2.05c0-1.801,0.8-1.717,2.4,0.25c2.033,2.466,3.117,3.699,3.25,3.699
	C256.75,209.6,256.95,209.417,257.25,209.05z"/>
<path fill-rule="evenodd" clip-rule="evenodd" fill="#482400" d="M269.75,195h-6.25c-2.033-0.2-4.033,0.5-6,2.1
	c-1.667,1.333-2.5,2.383-2.5,3.15c0,0.634,0.35,1.417,1.05,2.35c0.7,0.934,1.567,1.7,2.6,2.301H269c3.633-0.301,6.1-0.851,7.4-1.65
	c0.899-0.566,1.35-1.4,1.35-2.5c0-1.1-0.384-2.2-1.15-3.3C275.2,195.55,272.917,194.733,269.75,195z M270,193
	c4.033,0.033,6.833,1.133,8.4,3.3c0.833,1.167,1.25,2.617,1.25,4.351c0,1.899-0.483,3.216-1.45,3.949
	c-2.267,1.7-7.167,2.551-14.7,2.551c-4.4,0-7.467-1.184-9.2-3.551c-0.566-0.733-0.95-1.55-1.15-2.449L253,200.05
	c0-1.167,0.833-2.5,2.5-4c2.1-1.933,4.683-2.9,7.75-2.9V193H270z"/>
<path fill-rule="evenodd" clip-rule="evenodd" fill="#482400" d="M264.5,201.4c-0.333,0.833-1.217,1.25-2.65,1.25
	c-1.434,0-2.383-0.601-2.85-1.801c-0.167-1.2-0.25-1.816-0.25-1.85c0-1.967,0.983-2.967,2.95-3c1.966-0.033,2.95,1.2,2.95,3.7
	C264.65,200.6,264.6,201.167,264.5,201.4z"/>
<path fill-rule="evenodd" clip-rule="evenodd" fill="#482400" d="M270.75,202.65c-1.133,0-2.017-0.667-2.65-2
	c-0.4-1.334-0.6-2.017-0.6-2.05c0-2.534,0.95-3.517,2.85-2.95c1.867,0.567,2.8,2.017,2.8,4.35
	C273.15,201.767,272.35,202.65,270.75,202.65z"/>
<path fill-rule="evenodd" clip-rule="evenodd" fill="#482400" d="M265.15,218.65c0,0.233-0.083,0.683-0.25,1.35
	c-0.167,0.667-0.25,1.1-0.25,1.3c0,1,0.167,1.983,0.5,2.95c0.333,1,0.5,1.767,0.5,2.3c0,0.733-0.517,1.517-1.55,2.351
	c-1.233,1-2.733,1.5-4.5,1.5c-0.434,0-0.833-0.233-1.2-0.7c-0.267-0.334-0.4-0.584-0.4-0.75c0-1.2,0.75-2.084,2.25-2.65
	c1.5-0.6,2.25-1.833,2.25-3.7c0-1.533,0.083-2.649,0.25-3.35c0.2-0.7,0.65-1.2,1.35-1.5C264.8,217.45,265.15,217.75,265.15,218.65z"
	/>
<path fill-rule="evenodd" clip-rule="evenodd" fill="#482400" d="M273.9,218.45c0,0.7-0.167,1.717-0.5,3.05v2
	c1.4,0.5,2.484,1.066,3.25,1.7c0.666,0.533,1,1.05,1,1.55c0,0.3-0.051,0.517-0.15,0.65c-0.134,0.199-0.384,0.366-0.75,0.5H274
	c-1.967-0.733-3.15-1.301-3.55-1.7c-0.3-0.267-0.45-0.783-0.45-1.55c0-0.5,0.183-1.233,0.55-2.2c0.434-1.101,0.7-1.95,0.8-2.55
	c0.267-1.4,0.75-2.384,1.45-2.95C273.533,216.316,273.9,216.816,273.9,218.45z"/>
<path fill-rule="evenodd" clip-rule="evenodd" fill="#4F0075" d="M247,188.4c-0.4,0-2.4-1.7-6-5.1c0-1.466,1.15-1.25,3.45,0.65
	c2.3,1.866,3.45,2.983,3.45,3.35C247.9,188.033,247.6,188.4,247,188.4z"/>
<path fill-rule="evenodd" clip-rule="evenodd" fill="#4F0075" d="M244.8,183.7c1.133,0.366,1.9,0.55,2.3,0.55
	c1.933,0.033,3.667,0.15,5.2,0.35c3.333,0,8.65-0.1,15.95-0.3c8.233-0.233,12.983-0.466,14.25-0.7c0.533-0.1,1.95-0.833,4.25-2.2
	c2-0.9,3-0.433,3,1.4c0,0.534-0.767,2.833-2.3,6.9c-1.601,4.2-2.584,6.3-2.95,6.3c-1.066,0-1.6-0.55-1.6-1.65
	c0-1,0.75-3.75,2.25-8.25c-1.467,0.566-3.65,0.883-6.551,0.95c-3.267,0.067-5.05,0.133-5.35,0.2h-6.5
	c-1.1-0.167-3.65-0.117-7.65,0.15c-0.7,0.733-2.083,1.033-4.15,0.9c-1.934-0.3-2.917-0.45-2.95-0.45c-1.5,0-2.25,0.267-2.25,0.8
	c0,0.5-0.35,0.934-1.05,1.3c-0.733,0.366-1.133,0.8-1.2,1.3c0,0.033,0,0.417,0,1.15c-0.2,0.733-0.7,1.1-1.5,1.1
	s-1.767-1.417-2.9-4.25c-0.967-2.8-1.45-4.217-1.45-4.25c0-1.233,0.533-1.85,1.6-1.85C243.283,183.15,243.8,183.333,244.8,183.7z"/>
<path fill-rule="evenodd" clip-rule="evenodd" fill="#4F0075" d="M252.35,194.5c0.2-0.067,0.417-0.1,0.65-0.1c1.1,0,1.6,0.667,1.5,2
	c0,0.2-0.083,0.6-0.25,1.2c-0.133,0.667-0.217,1.167-0.25,1.5c0,0.5,0.083,1.3,0.25,2.4c0,0.7-0.5,1.45-1.5,2.25
	c-1.067,0.833-2.15,1.25-3.25,1.25c-1.7,0-3.15-1.917-4.35-5.75c-0.833-3.8-1.25-5.717-1.25-5.75c0-0.434,0.333-1.117,1-2.05
	c0.767-1.1,1.55-1.717,2.35-1.85c1.133-2.934,2.283-3.15,3.45-0.65c1.1,2.333,1.533,4.216,1.3,5.65
	C252.067,194.6,252.183,194.566,252.35,194.5z"/>
<path fill-rule="evenodd" clip-rule="evenodd" fill="#4F0075" d="M251.65,195.85c0-0.9,1.867-2.167,5.6-3.8
	c4.2-1.8,8.033-2.517,11.5-2.15c1.133,0.4,3.417,0.967,6.85,1.7c3.034,0.9,4.95,2.2,5.75,3.9c0.267-0.133,0.75-0.8,1.45-2
	c0.601-1.067,1.334-1.6,2.2-1.6c0.9,0,1.4,0.533,1.5,1.6c0,0.467-0.4,1.5-1.2,3.1c-0.934,1.767-1.7,2.65-2.3,2.65
	c-1.066,0-2.1-0.317-3.1-0.95c-1.167-0.9-2.101-1.6-2.801-2.1c-2.833-2.067-6.417-3.1-10.75-3.1c-1.867,0-4.5,0.733-7.9,2.2
	c-3.367,1.467-5.1,2.2-5.2,2.2C252.183,197.5,251.65,196.95,251.65,195.85z"/>
<path fill-rule="evenodd" clip-rule="evenodd" fill="#4F0075" d="M261.85,185.5c0.5-0.167,2.583-0.25,6.25-0.25
	c0.3,0.133,0.65,0.417,1.05,0.85c0.367,0.333,0.583,0.5,0.65,0.5c1.567,0,2.967-0.117,4.2-0.35c1.2-0.233,2.233-0.35,3.1-0.35
	c0.233,0,0.717,0.083,1.45,0.25c0.767,0.167,1.25,0.25,1.45,0.25c0.233,0,0.684-0.2,1.35-0.6c0.667-0.433,1.301-0.65,1.9-0.65
	c1.4,0,2.267,0.4,2.6,1.2c0.101,0.233,0.15,0.8,0.15,1.7c0,0.267-0.667,1.817-2,4.65c-1.333,2.866-2.083,4.3-2.25,4.3
	c-0.9,0-1.35-0.5-1.35-1.5s-1.134-1.5-3.4-1.5c-0.934,0-1.55-0.233-1.85-0.7c-0.134-0.167-0.217-0.55-0.25-1.15V192
	c-1.2,0.167-2,0.25-2.4,0.25c-0.633,0-1.683-0.25-3.15-0.75c-1.3-0.5-1.967-0.75-2-0.75c-0.667,0.167-1.667,0.25-3,0.25
	c-0.5,0.333-2.383,1.117-5.65,2.35c-3.3,1.267-5.167,1.9-5.6,1.9c-1.934,0-3.083-0.583-3.45-1.75c0-0.033,0-0.833,0-2.4
	c0-1.434,0-2.184,0-2.25c0.233-1.133,0.883-1.7,1.95-1.7c0.9,0,1.533,0.25,1.9,0.75c2.533,0,4.433-0.333,5.7-1
	C259.9,186.566,260.783,186.1,261.85,185.5z"/>
<path fill-rule="evenodd" clip-rule="evenodd" fill="#4F0075" d="M279.1,194.3c0.601-0.833,1.317-0.633,2.15,0.6
	c0.267,0.4,0.45,1.017,0.55,1.85c0.101,1.066,0.2,1.767,0.3,2.1h0.15c0-0.967,0.083-1.817,0.25-2.55
	c0.333-1.433,1.033-2.15,2.1-2.15c1.034,0,1.584,0.533,1.65,1.6c0,1-0.366,2.667-1.1,5c-0.801,2.667-1.567,4-2.301,4
	c-1.633,0-2.866-1.333-3.699-4c-0.5-2.633-0.75-3.967-0.75-4C278.4,195.783,278.634,194.967,279.1,194.3z"/>
<path fill-rule="evenodd" clip-rule="evenodd" fill="#4F0075" d="M283.25,211.3c0,2.134-4.583,4.2-13.75,6.2h-7.75
	c-2.967-0.2-5.383-0.667-7.25-1.4c-2.067-0.8-3.1-1.816-3.1-3.05c0-0.434,0.15-0.8,0.45-1.1c0.3-0.367,0.683-0.55,1.15-0.55
	c0.033,0,1.2,0.433,3.5,1.3c2.6,0.899,4.6,1.45,6,1.649h6.5c0.833-0.199,2.183-0.483,4.05-0.85c1.7-0.366,3.101-0.866,4.2-1.5
	c2.566-1.434,3.95-2.2,4.15-2.3C282.634,209.3,283.25,209.833,283.25,211.3z"/>
<path fill-rule="evenodd" clip-rule="evenodd" fill="#4F0075" d="M273,209.7c0.066,0.333,0.083,0.8,0.05,1.399
	c0.134,0.434,0.717,0.65,1.75,0.65c0.2,0,1.884-1.25,5.05-3.75c2.434-1.9,3.65-1.733,3.65,0.5c0,0.934-1.2,2.35-3.6,4.25
	c-2.733,2.167-5.417,3.25-8.05,3.25c-0.6,0-1.55-0.167-2.85-0.5c-1.267-0.333-1.967-0.5-2.1-0.5c-0.367,0.267-0.783,0.517-1.25,0.75
	c-0.9,0.5-1.867,0.75-2.9,0.75c-1.1,0-1.817-0.25-2.15-0.75c-0.133-0.5-0.2-0.767-0.2-0.8c0-0.733,0.45-1.367,1.35-1.9
	c1-0.566,1.617-1.25,1.85-2.05c0.066-0.8,0.167-1.45,0.3-1.95c0.267-0.934,0.833-1.399,1.7-1.399
	C270.367,207.65,272.833,208.333,273,209.7z"/>
<path fill-rule="evenodd" clip-rule="evenodd" fill="#4F0075" d="M255.4,196.25c0,0.1,0.05,0.217,0.15,0.35
	c-0.867,0.933-1.45,1.4-1.75,1.4c-0.267,0-0.4-0.15-0.4-0.45c0-0.167,0.367-0.65,1.1-1.45c0.7-0.833,1.05-0.9,1.05-0.2L255.4,196.25
	z"/>
<path fill-rule="evenodd" clip-rule="evenodd" fill="#4F0075" d="M250.2,203.7c0.566,0,0.883,0.184,0.95,0.55
	c0.067,0.2,0.133,0.616,0.2,1.25c0.1,0.366,0.2,1.017,0.3,1.95l0.5,2c0.033,0.133,0.25,0.483,0.65,1.05c0.4,0.533,0.6,0.833,0.6,0.9
	c0,0.1-0.05,0.199-0.15,0.3c-0.1,0.133-0.25,0.166-0.45,0.1c-0.033,0.3-0.183,0.45-0.45,0.45c-0.233,0-1.717-2.583-4.45-7.75
	c0-0.3,0.15-0.45,0.45-0.45c0.133,0,0.283,0.084,0.45,0.25h0.05l-0.1-0.45c0-0.5,0.2-0.649,0.6-0.449l0.35,0.25
	C249.8,203.684,249.967,203.7,250.2,203.7z"/>
<path fill-rule="evenodd" clip-rule="evenodd" fill="#4F0075" d="M251.2,209.4c0-0.5,0.233-0.584,0.7-0.25
	c0.233,0.166,0.517,0.416,0.85,0.75l2.15,1.149c0.567,0.267,1.333,0.65,2.3,1.15c0.7,0.2,1.1,0.316,1.2,0.35
	c0.367,0.167,0.55,0.367,0.55,0.601c0,0.133-0.067,0.25-0.2,0.35c-0.1,0.066-0.183,0.1-0.25,0.1c-1.867-0.566-3-0.883-3.4-0.949
	c-0.434-0.067-0.934-0.233-1.5-0.5c-0.733-0.301-1.1-0.584-1.1-0.851c0-0.316,0.117-0.45,0.35-0.399
	c-0.196-0.059-0.512-0.275-0.95-0.65C251.433,209.816,251.2,209.533,251.2,209.4z"/>
<path fill-rule="evenodd" clip-rule="evenodd" fill="#4F0075" d="M253.6,206.8c-1.833-2.033-2.75-3.083-2.75-3.149
	c0-0.233,0.15-0.351,0.45-0.351c0.467,0,1.417,0.967,2.85,2.9c1.434,1.899,2.283,2.85,2.55,2.85c0.033,0,0.25-0.149,0.65-0.45
	c0.467-0.3,0.767-0.449,0.9-0.449h2.35c0.633,0.3,1.2,0.816,1.7,1.55c0.434,0.666,0.65,1.25,0.65,1.75c0,1.1-0.4,1.75-1.2,1.95
	c-1.133,0.066-2.083,0.166-2.85,0.3l-0.25,0.149c-0.167,0-0.283-0.083-0.35-0.25l-0.05-0.25c0-0.233,0.65-0.399,1.95-0.5
	c1.3-0.1,1.95-0.583,1.95-1.449c0-0.267-0.233-0.733-0.7-1.4c-0.5-0.667-0.867-1.017-1.1-1.05h-1.95
	c-0.167,0.066-0.45,0.267-0.85,0.6c-0.367,0.3-0.633,0.45-0.8,0.45c-0.533,0-1.167-0.483-1.9-1.45
	C254.15,207.55,253.733,206.967,253.6,206.8z"/>
<path fill-rule="evenodd" clip-rule="evenodd" fill="#4F0075" d="M263.25,208.15c-0.167-0.101-0.467-0.15-0.9-0.15l-1.25-0.15
	l-0.35,0.101c-0.233,0-0.567-0.05-1-0.15c-0.467-0.133-0.767-0.25-0.9-0.35c-0.7-0.533-1.133-0.8-1.3-0.8
	c-0.1,0.066-0.2,0.1-0.3,0.1c-0.2,0-0.433-0.116-0.7-0.35c-0.233-0.233-0.417-0.351-0.55-0.351c-0.1,0.066-0.183,0.101-0.25,0.101
	c-0.3,0-0.617-0.25-0.95-0.75c-0.033-0.067-0.183-0.184-0.45-0.351c-0.267-0.166-0.434-0.3-0.5-0.399
	c-0.133,0.133-0.25,0.199-0.35,0.199c-0.367,0-0.767-0.316-1.2-0.949c-0.4-0.534-0.6-0.867-0.6-1c0-0.301,0.133-0.45,0.4-0.45
	c0.2,0,0.4,0.217,0.6,0.649l0.35-1c0.067-0.199,0.317-0.199,0.75,0h0.3c0.2,0.034,0.316,0.117,0.35,0.25
	c0,0.034,0.183,0.351,0.55,0.95c0.333,0.566,0.5,0.967,0.5,1.2c0,0.2,0.533,0.55,1.6,1.05c0.967,0.467,1.517,0.7,1.65,0.7
	c0.1,0,0.25-0.066,0.45-0.2c0.3,0,0.783,0.167,1.45,0.5c0.133,0,0.267-0.05,0.4-0.149c0.233,0,0.9,0.183,2,0.55
	c0.333,0.1,0.767,0.2,1.3,0.3c0.367,0.1,0.55,0.267,0.55,0.5c0,0.134-0.333,0.983-1,2.55c-0.066,0.2-0.2,0.667-0.4,1.4
	c-0.2,0.633-0.367,0.95-0.5,0.95c-0.167,0-0.283-0.101-0.35-0.301c-0.033-0.1-0.05-0.216-0.05-0.35c0-0.333,0.2-1.083,0.6-2.25
	c0.333-0.967,0.566-1.566,0.7-1.8v-0.05c-0.133,0.033-0.233,0.083-0.3,0.149C263.533,208.116,263.417,208.15,263.25,208.15z"/>
<path fill-rule="evenodd" clip-rule="evenodd" fill="#4F0075" d="M263.8,206.85h4.55c0.2-0.066,1.167-0.166,2.9-0.3
	c0.467,0,0.717,0.117,0.75,0.351c0,0.399-0.45,0.666-1.35,0.8c-0.066,0-1.483,0.133-4.25,0.399h-1.9c-0.5,0.767-0.9,1.4-1.2,1.9
	l0.2,0.5c0,0.333-0.167,0.5-0.5,0.5c-0.467,0-0.783-0.25-0.95-0.75c-0.066-0.5-0.133-0.8-0.2-0.9c-0.067-0.267-0.133-0.433-0.2-0.5
	c-0.1-0.166-0.383-0.233-0.85-0.199c-0.733-0.167-1.316-0.267-1.75-0.301h-1.1c-0.333,0.733-0.667,1.101-1,1.101
	c-0.333,0-0.617-0.167-0.85-0.5c-0.3-0.367-0.467-0.566-0.5-0.601c-0.133-0.066-0.333-0.233-0.6-0.5c-0.333-0.3-0.5-0.517-0.5-0.649
	c0-0.134,0.05-0.233,0.15-0.3c-0.167-0.134-0.4-0.417-0.7-0.851c-0.267-0.366-0.483-0.6-0.65-0.7c-0.2-0.133-0.517-0.383-0.95-0.75
	c-0.467-0.433-0.7-0.699-0.7-0.8c0-0.467,0.184-0.583,0.55-0.35c0.2,0.133,0.466,0.3,0.8,0.5c0.167,0,0.283,0.083,0.35,0.25
	c0.033,0,0.133-0.033,0.3-0.101c0.167,0,0.317,0.067,0.45,0.2c0.133,0.167,0.267,0.25,0.4,0.25c0.167,0,0.4,0.15,0.7,0.45
	c0.066,0.066,0.316,0.2,0.75,0.4c0.4,0.166,0.65,0.35,0.75,0.55l3.75,1.6c-0.067-0.267,0.066-0.399,0.4-0.399
	c0.1,0,0.316,0.1,0.65,0.3c0.3,0.2,0.5,0.35,0.6,0.45c-0.067-0.233,0.066-0.351,0.4-0.351l0.4,0.15c0.133,0,0.3-0.134,0.5-0.4
	C263.6,207.033,263.733,206.884,263.8,206.85z"/>
<path fill-rule="evenodd" clip-rule="evenodd" fill="#4F0075" d="M250.55,208.95c0.333,0.133,0.467,0.416,0.4,0.85
	c0.5,0.101,1.033,0.917,1.6,2.45l-0.1,0.3l0.1,0.55c0,0.4-0.133,0.601-0.4,0.601c-0.3,0-0.467-0.167-0.5-0.5
	c0-0.334,0-0.533,0-0.601c-0.033-0.1-0.233-0.433-0.6-1c-0.633-0.899-0.95-1.633-0.95-2.199
	C250.1,208.967,250.25,208.816,250.55,208.95z"/>
<path fill-rule="evenodd" clip-rule="evenodd" fill="#4F0075" d="M259.7,214.75c-0.233,0-0.467-0.1-0.7-0.3
	c-0.2-0.167-0.3-0.3-0.3-0.4c0-0.133,0.117-0.316,0.35-0.55c0.233-0.267,0.434-0.366,0.6-0.3h2.2c0.233,0.233,0.433,0.383,0.6,0.45
	c-0.2,0.399-0.5,0.517-0.9,0.35c0,0.134-0.017,0.233-0.05,0.3c-0.067,0.101-0.283,0.15-0.65,0.15l-0.7-0.101
	C260.017,214.616,259.867,214.75,259.7,214.75z"/>
<path fill-rule="evenodd" clip-rule="evenodd" fill="#4F0075" d="M262.55,210.25c-0.133,0-0.75-0.634-1.85-1.9
	c0-0.6,0.383-0.6,1.15,0c0.733,0.601,1.1,1.067,1.1,1.4S262.817,210.25,262.55,210.25z"/>
<path fill-rule="evenodd" clip-rule="evenodd" fill="#4F0075" d="M269.65,208.05c-0.3,0.101-0.483,0.15-0.55,0.15
	c-0.3,0-0.483-0.066-0.55-0.2l-0.05-0.2c0-0.233,0.617-0.5,1.85-0.8c1.233-0.267,1.85-0.134,1.85,0.4c0,0.1-0.1,0.216-0.3,0.35
	c-0.3,0.167-0.5,0.3-0.6,0.4c-0.066,0.033-0.133,0.166-0.2,0.399c-0.067,0.167-0.184,0.25-0.35,0.25
	C270.017,208.8,269.65,208.55,269.65,208.05z"/>
<path fill-rule="evenodd" clip-rule="evenodd" fill="#4F0075" d="M280.4,201.6c0,0.4-0.434,1.134-1.301,2.2
	c-0.199,0.4-0.483,0.733-0.85,1l-1.1,0.851l0.35,0.399c0,0.233-0.267,0.417-0.8,0.55c-0.634,0.134-1.084,0.233-1.351,0.301
	c-1.166,0.133-1.816,0.233-1.95,0.3l-1.2,0.25c-0.367,0-0.684-0.084-0.95-0.25c-0.233-0.167-0.35-0.334-0.35-0.5
	c0-0.367,0.633-0.65,1.9-0.851c0.667-0.1,1.6-0.233,2.8-0.399c0.5-0.167,1.017-0.45,1.551-0.851c0.5-0.366,0.833-0.699,1-1
	l1.149-2.199c0-0.301,0.017-0.534,0.05-0.7c0.034-0.3,0.217-0.367,0.551-0.2c0.066,0.066,0.166,0.233,0.3,0.5
	C280.333,201.267,280.4,201.467,280.4,201.6z"/>
<path fill-rule="evenodd" clip-rule="evenodd" fill="#4F0075" d="M280.3,202.3c0.267,0,0.4,0.184,0.4,0.55
	c0,0.101-0.05,0.284-0.15,0.551l0.15,0.05c0.066,0,0.217-0.066,0.45-0.2c0.267,0,0.399,0.15,0.399,0.45
	c0,0.366-0.25,0.717-0.75,1.05c-0.7,0.467-1.1,0.75-1.2,0.85c-0.466,0.467-0.85,0.834-1.149,1.101c-0.533,0.5-0.851,0.75-0.95,0.75
	s-0.217-0.033-0.35-0.101c-0.134-0.1-0.384-0.149-0.75-0.149c-1.167,0-1.95,0.217-2.351,0.649c-0.267,0.267-0.4,0.65-0.4,1.15
	c0,1.066,0.333,1.866,1,2.4c0.333,0.233,0.667,0.466,1,0.699c0,0.267-0.167,0.4-0.5,0.4c-1.2,0-2.05-0.316-2.55-0.95
	c-0.333-0.399-0.5-0.866-0.5-1.399l0.1-0.9c-0.567-0.233-0.867-0.366-0.9-0.4c-0.1-0.1-0.15-0.25-0.15-0.449
	c0-0.233,0.117-0.534,0.35-0.9c0.267-0.467,0.6-0.7,1-0.7l0.4,0.101l0.25-0.2l0.75-0.05c0.067-0.034,0.317-0.184,0.75-0.45
	c0.2-0.101,0.417-0.233,0.65-0.4c0.267-0.1,0.851-0.149,1.75-0.149l1.8-1.801l-0.1-0.35c0-0.533,0.384-0.866,1.15-1
	C279.9,202.366,280.033,202.3,280.3,202.3z M273,210.6l-0.1-0.3l0.05,0.3H273z"/>
<path fill-rule="evenodd" clip-rule="evenodd" fill="#4F0075" d="M284.25,203.2c0.1,0.133,0.15,0.316,0.15,0.55
	c-0.767,5.033-1.384,7.55-1.851,7.55c-0.166,0-0.283-0.083-0.35-0.25l-0.05-0.25c0-0.267,0.1-0.75,0.3-1.45
	c0.166-0.666,0.25-1.017,0.25-1.05c0-0.066-0.033-0.083-0.101-0.05c-0.3-0.134-0.449-0.3-0.449-0.5c0.066-0.233,0.1-0.4,0.1-0.5
	v-0.1c-0.434,0.366-0.733,0.55-0.9,0.55c-0.199,0-0.316-0.066-0.35-0.2l-0.05-0.2c0-0.3,0.45-0.899,1.35-1.8
	c0.434-0.4,0.617-0.7,0.55-0.9c-0.033-0.3-0.017-0.483,0.051-0.55c0.033-0.066,0.199-0.1,0.5-0.1c0.1,0,0.216-0.217,0.35-0.65
	C283.983,203.033,284.15,203,284.25,203.2z"/>
<path fill-rule="evenodd" clip-rule="evenodd" fill="#4F0075" d="M287.05,191.25c-0.066,3.267-0.633,4.9-1.7,4.9
	c-0.366,0-0.6-0.15-0.699-0.45c-0.034-0.3-0.051-0.467-0.051-0.5c0-0.4,0.117-0.7,0.351-0.9H285c-0.4-0.1-0.65-0.267-0.75-0.5
	c-0.033-0.066-0.05-0.25-0.05-0.55c0.366-1,0.583-1.633,0.649-1.9c0-0.833,0.034-1.417,0.101-1.75c0.233-1.133,0.649-1.3,1.25-0.5
	C286.767,189.867,287.05,190.583,287.05,191.25z"/>
<path fill-rule="evenodd" clip-rule="evenodd" fill="#663300" d="M242.2,180.85c0-0.367,0.083-0.7,0.25-1
	c0.267-0.534,0.7-0.8,1.3-0.8c0.167,0,0.4,0.083,0.7,0.25c0.233-1.066,0.683-1.65,1.35-1.75c0.667-0.1,1,0.3,1,1.2
	c-0.133,2.533-0.6,3.8-1.4,3.8c-0.4,0-0.883-0.05-1.45-0.15c-0.8-0.133-1.3-0.3-1.5-0.5C242.283,181.767,242.2,181.417,242.2,180.85
	z"/>
<path fill-rule="evenodd" clip-rule="evenodd" fill="#663300" d="M245.35,180.95c-0.333,0.4-0.667,0.6-1,0.6
	c-0.4,0-0.667-0.167-0.8-0.5c-0.066-0.333-0.1-0.517-0.1-0.55c0-0.733,0.4-1.167,1.2-1.3c0.767-0.134,1.15,0.167,1.15,0.9
	C245.8,180.3,245.65,180.583,245.35,180.95z"/>
<path fill-rule="evenodd" clip-rule="evenodd" fill="#663300" d="M245.35,179.7c-0.567,0.566-0.934,0.85-1.1,0.85
	c-0.367,0-0.633-0.167-0.8-0.5c-0.1-0.333-0.15-0.517-0.15-0.55c0-0.667,0.483-1.217,1.45-1.65c0.967-0.4,1.45-0.15,1.45,0.75
	C246.2,178.767,245.917,179.133,245.35,179.7z"/>
<path fill-rule="evenodd" clip-rule="evenodd" fill="#663300" d="M254.55,182.7c0,0.667-0.466,1-1.4,1c-0.6,0-1.217-0.083-1.85-0.25
	c-0.667-0.167-1.733-0.25-3.2-0.25c-0.434,0-0.717-0.15-0.85-0.45c-0.033-0.1-0.05-0.317-0.05-0.65c0.566-2.3,0.9-3.817,1-4.55
	c0.133-1.1,0.667-2.017,1.6-2.75c0.934-0.7,1.4-0.517,1.4,0.55c0,0.267-0.284,0.833-0.85,1.7c0.6,0.333,1,0.833,1.2,1.5
	c0.1,0.333,0.233,0.833,0.4,1.5c0.066,0.1,0.533,0.534,1.4,1.3C254.15,182.05,254.55,182.5,254.55,182.7z"/>
<path fill-rule="evenodd" clip-rule="evenodd" fill="#663300" d="M275.05,160.15c0.434,0.733,0.967,1.367,1.601,1.9
	c0.366,0.3,0.55,0.784,0.55,1.45c0,0.867-0.367,1.733-1.101,2.6c-1.366,1.6-2.116,2.517-2.25,2.75
	c-0.633,0.833-1.217,1.617-1.75,2.35c-1.033,1.433-1.55,2.4-1.55,2.9c0,0.033,0.133,0.583,0.4,1.65c-0.067,2.633-0.5,3.95-1.3,3.95
	c-0.633,0-1.066-0.567-1.3-1.7c-0.1-1.1-0.15-1.667-0.15-1.7c0-2.1,0.716-4.1,2.15-6c0.433-0.6,1.383-1.816,2.85-3.65
	c1.066-1.367,1.6-2.1,1.6-2.2c0-0.8-0.2-1.517-0.6-2.15c-0.434-0.667-1.15-1.4-2.15-2.2l-0.2-0.05c-1.567,2-2.85,3.534-3.85,4.6
	c-1.767,1.833-3.817,3.15-6.15,3.95c-1.2,0.4-2.583,0.966-4.15,1.7c-1.233,0.6-2.167,1.083-2.8,1.45
	c-1.667,0.967-2.683,1.733-3.05,2.3c-0.267,0.4-0.4,1.15-0.4,2.25c0,0.767-0.317,1.15-0.95,1.15c-0.467,0-0.783-0.317-0.95-0.95
	l-0.1-0.95c0-2.233,2.133-4.367,6.4-6.4c6.333-3.033,9.667-4.683,10-4.95c0.433-0.333,0.967-0.917,1.6-1.75
	c0.733-0.934,1.267-1.55,1.6-1.85c0.367-0.367,0.6-0.983,0.7-1.85c0.1-0.8,0.383-1.333,0.85-1.6c0.5-0.333,0.95-0.283,1.35,0.15
	c0.233,0.233,0.566,0.583,1,1.05c0.1,0.066,0.483,0.383,1.15,0.95C274.633,159.7,274.95,159.983,275.05,160.15z"/>
<path fill-rule="evenodd" clip-rule="evenodd" fill="#663300" d="M271.7,159.05c0.6,0.367,1.333,0.917,2.2,1.65
	c0.2,0.2,0.55,0.8,1.05,1.8c0.5,0.967,0.75,1.517,0.75,1.65c0,0.6-0.717,1.767-2.15,3.5c-1.533,1.733-2.367,2.717-2.5,2.95
	c-0.233,0.333-0.617,1.267-1.15,2.8c-0.566,1.7-0.85,2.867-0.85,3.5c0,0.1,0.017,0.167,0.05,0.2c0.133-0.034,0.35-0.1,0.65-0.2
	c0.667,0,0.983,0.367,0.95,1.1c0,0.167-0.083,0.533-0.25,1.1c0,0.033,0.133,0.333,0.4,0.9c0.233,0.566,0.35,0.983,0.35,1.25
	c0,0.2-0.083,0.5-0.25,0.9c-0.233,0.5-0.517,0.8-0.85,0.9l-5.45,0.05c-1.167,0.066-1.816,0.133-1.95,0.2h-9.15
	c-0.767-0.667-1.3-1.267-1.6-1.8c-0.434-0.1-0.717-0.35-0.85-0.75c-0.033-0.133-0.05-0.434-0.05-0.9
	c-0.133,0.066-0.283,0.1-0.45,0.1c-0.567,0-0.867-0.35-0.9-1.05c0.066-0.7,0.1-1.066,0.1-1.1c-0.233-0.6-0.35-0.966-0.35-1.1
	c0-0.667,0.333-1.35,1-2.05c0.333-0.367,0.7-0.733,1.1-1.1c0.233-0.5,0.633-1.083,1.2-1.75c0.733-0.933,1.317-1.4,1.75-1.4
	s0.75,0.3,0.95,0.9c0.133-0.267,0.466-0.683,1-1.25c0.7-0.767,1.283-1.15,1.75-1.15c0.333,0,0.583,0.067,0.75,0.2l0.25,0.2
	c0.066,0,0.783-0.4,2.15-1.2c1.4-0.833,2.233-1.35,2.5-1.55c0.467-0.367,0.9-0.85,1.3-1.45c0.4-0.367,1.1-0.55,2.1-0.55
	c0.5,0,0.817-0.35,0.95-1.05c0.033-0.767,0.083-1.217,0.15-1.35c0.4-0.9,0.8-1.467,1.2-1.7c0.267-0.167,0.4-0.434,0.4-0.8
	C269.95,158.583,270.533,158.383,271.7,159.05z"/>
<path fill-rule="evenodd" clip-rule="evenodd" fill="#663300" d="M281.8,170.4c0,0.967-0.533,2-1.6,3.1
	c-1.101,1.133-1.684,1.95-1.75,2.45c-0.5,3.5-1.45,5.25-2.851,5.25c-0.433,0-0.933-0.3-1.5-0.9c-0.467-0.5-0.733-0.917-0.8-1.25
	c-0.233,0.267-0.4,0.45-0.5,0.55c-0.233,0.233-0.75,0.35-1.55,0.35c-0.9,0-1.583-0.267-2.05-0.8l-0.4-0.85
	c0-0.233,0.083-0.466,0.25-0.7c0.2-0.3,0.467-0.45,0.8-0.45c0.3,0,0.55,0.117,0.75,0.35c0.1,0.133,0.2,0.3,0.3,0.5
	c0.733-0.667,1.1-1.6,1.1-2.8l-0.2-1.15c0-0.933,0.467-2.083,1.4-3.45c0.833-1.233,1.833-2.367,3-3.4
	c0.033-0.034,0.217-0.317,0.55-0.85c0.233-0.367,0.5-0.583,0.8-0.65c0.367-0.1,0.767,0.017,1.2,0.35c0.233,0.2,0.6,0.5,1.1,0.9
	c0.9,0.9,1.45,1.533,1.65,1.9C281.7,169.183,281.8,169.7,281.8,170.4z"/>
<path fill-rule="evenodd" clip-rule="evenodd" fill="#663300" d="M275.35,179.45c0.034,0,0.784-0.25,2.25-0.75
	c-0.366-0.367-0.55-0.684-0.55-0.95c0-0.434,0.267-0.8,0.8-1.1c0.334-0.2,0.983-0.517,1.95-0.95c0.367-0.2,0.851-0.583,1.45-1.15
	c0.6-0.4,1.35-0.367,2.25,0.1c1.566,0.434,3.366,0.867,5.4,1.3c1.267,0.433,1.899,1.167,1.899,2.2c0,1.233-1.3,2.35-3.899,3.35
	c-0.767,0.3-3.134,0.983-7.101,2.05h-7.1c-2.267-0.066-3.4-0.767-3.4-2.1c0-0.534,0.284-1.15,0.85-1.85
	c0.767-0.967,1.733-1.45,2.9-1.45c0.9,0,1.5,0.217,1.8,0.65C275.15,179.233,275.316,179.45,275.35,179.45z"/>
<path fill-rule="evenodd" clip-rule="evenodd" fill="#663300" d="M258.05,200.5c0,0.967-0.5,1.45-1.5,1.45
	c-0.533,0-0.9-0.184-1.1-0.55l-0.15-0.601c0-0.3,0.133-0.616,0.4-0.95c0.333-0.434,0.767-0.65,1.3-0.65
	C257.733,199.2,258.083,199.633,258.05,200.5z"/>
<path fill-rule="evenodd" clip-rule="evenodd" fill="#663300" d="M275.1,197.3c0.634,0,1.051,0.583,1.25,1.75
	c0.101,0.567,0.134,1.15,0.101,1.75c0,0.8-0.017,1.3-0.05,1.5c-0.134,0.634-0.434,1.101-0.9,1.4c-2.8,1.066-4.7,1.6-5.7,1.6
	c-0.7,0-1.383-0.184-2.05-0.55c-0.533-0.366-0.833-0.55-0.9-0.55c-0.333,0.333-0.667,0.533-1,0.6l-4.7,0.15
	c-1.433,0-2.767-0.7-4-2.101c-0.967-1.133-1.45-1.949-1.45-2.449c0-0.634,0.333-0.95,1-0.95c0.267,0,0.833,0.6,1.7,1.8
	c0.833,1.2,1.783,1.8,2.85,1.8l4-0.2l0.2-1.1c0-0.434-0.083-1.15-0.25-2.15c-0.167-1-0.25-1.75-0.25-2.25
	c0-0.534,0.167-1.034,0.5-1.5c0.4-0.633,0.85-0.483,1.35,0.45c0.333,1.267,0.5,2.1,0.5,2.5c-0.066,1.566-0.083,2.45-0.05,2.65
	c0.233,1.3,1.083,1.95,2.55,1.95c3.167,0,4.75-0.867,4.75-2.601c0-0.5-0.05-0.983-0.15-1.45c-0.133-0.5-0.2-0.833-0.2-1
	c0-0.233,0.033-0.417,0.1-0.55C274.434,197.467,274.7,197.3,275.1,197.3z"/>
<path fill-rule="evenodd" clip-rule="evenodd" fill="#663300" d="M258,196.4c0.867-0.7,1.35-1.05,1.45-1.05
	c0.133,0,0.25,0.066,0.35,0.2c0.067,0.067,0.117,0.133,0.15,0.2c0.367-0.133,0.7-0.3,1-0.5c0.233-0.1,0.6-0.15,1.1-0.15
	c0.8,0,1.534,0.383,2.2,1.15c0.433,0.467,0.767,0.967,1,1.5v2.35l-0.05,0.2c0,0.2,0.083,0.45,0.25,0.75
	c0,0.134-0.117,0.434-0.35,0.9c0.133,0.133,0.2,0.25,0.2,0.35c0,0.4-0.233,0.667-0.7,0.8c-0.367,0.101-1.017,0.15-1.95,0.15
	c-0.066,0-0.183,0.083-0.35,0.25c-0.167,0.134-0.45,0.2-0.85,0.2c-0.534,0-1.167-0.3-1.9-0.9c-0.633-0.5-1.033-0.916-1.2-1.25
	c-0.167,0.167-0.317,0.25-0.45,0.25c-0.333,0-0.5-0.316-0.5-0.95c0-0.666-0.083-1-0.25-1c-0.333,0-0.617,0.066-0.85,0.2
	c0,0.601,0.567,1.434,1.7,2.5c0.7,0.7,1.133,1.117,1.3,1.25c0.267,0.233,0.65,0.417,1.15,0.55c0.267,0.067,0.4,0.233,0.4,0.5
	c0,0.301-0.184,0.45-0.55,0.45c-1.1,0-1.9-0.166-2.4-0.5c-0.133-0.1-0.717-0.684-1.75-1.75c-0.533-0.566-0.9-1.033-1.1-1.399
	c-0.167-0.334-0.25-0.75-0.25-1.25c0-0.5,0.117-0.934,0.35-1.3c0.2-0.333,0.617-0.784,1.25-1.35
	C256.667,197.483,257.2,197.033,258,196.4z M259.55,197.1c-0.4,0.566-0.6,1.05-0.6,1.45c0,0.333,0.1,1.034,0.3,2.101
	c0.033,0.366,0.25,0.767,0.65,1.199c0.4,0.434,0.75,0.65,1.05,0.65c0.1,0,0.367-0.017,0.8-0.05c0.433-0.066,0.917-0.101,1.45-0.101
	c0.867,0,1.233-1.133,1.1-3.399c0-0.7-0.083-1.184-0.25-1.45c-0.267-0.467-0.917-0.95-1.95-1.45l-1.5,0.55
	c-0.033,0-0.25,0.066-0.65,0.2C259.75,196.867,259.617,196.967,259.55,197.1z"/>
<path fill-rule="evenodd" clip-rule="evenodd" fill="#663300" d="M261.6,194.7h2l0.7,0.15l0.5-0.15c0.367-0.1,0.684-0.15,0.95-0.15
	s0.617,0.067,1.05,0.2c0.067,0,0.267-0.05,0.6-0.15l0.65,0.15c0.1,0,0.167-0.017,0.2-0.05c0.133-0.067,0.533-0.1,1.2-0.1
	c0.733,0,1.167,0.033,1.3,0.1c0.133,0.033,0.267,0.05,0.4,0.05c0.1,0,0.2-0.067,0.3-0.2c0.2-0.1,0.566-0.083,1.1,0.05
	c0.767,0.133,1.367,0.35,1.8,0.65c0.267,0.2,0.7,0.5,1.3,0.9c0.466,0.367,0.8,0.7,1,1c0.3,0.434,0.649,1.1,1.05,2
	c0,0.033,0.05,0.367,0.149,1c0.034,0.233,0.117,0.383,0.25,0.449c0.167,0.101,0.25,0.233,0.25,0.4c0,0.3-0.233,0.833-0.699,1.6
	c-0.567,0.9-1.134,1.351-1.7,1.351c-0.334,0-0.5-0.167-0.5-0.5c0-0.2,0.066-0.351,0.2-0.45c0.1-0.134,0.149-0.316,0.149-0.55
	c0-0.167,0.066-0.45,0.2-0.851c0.134-0.399,0.2-0.716,0.2-0.949c0-0.301-0.15-0.734-0.45-1.3c-0.366-0.7-0.566-1.117-0.6-1.25H275.1
	l-0.1,1.05l0.25,0.65c-0.633,2.667-1.333,4-2.1,4c-0.233,0-0.383-0.116-0.45-0.35c-0.2,0.2-0.384,0.3-0.55,0.3
	c-0.133,0-0.267-0.033-0.4-0.1c-0.1-0.101-0.133-0.2-0.1-0.301h-0.45c-0.034,0.101-0.067,0.184-0.1,0.25
	c-0.1,0.134-0.25,0.2-0.45,0.2c-0.333-0.133-0.566-0.217-0.7-0.25c-0.034,0.101-0.083,0.167-0.15,0.2
	c-0.133,0.1-0.383,0.167-0.75,0.2l-0.15,0.25c0.267,0.233,0.4,0.416,0.4,0.55c0,0.267-0.316,0.483-0.95,0.65
	c-0.8,0.133-1.383,0.233-1.75,0.3l-5.4,0.05c-0.567-0.167-0.9-0.283-1-0.35c-0.1-0.067-0.15-0.2-0.15-0.4
	c0-0.333,0.55-0.566,1.65-0.7c1.333-0.2,2.183-0.434,2.55-0.7c0.5-0.433,0.75-1.199,0.75-2.3l-0.1-2.4c0.033-0.2,0.184-0.3,0.45-0.3
	s0.417,0.1,0.45,0.3c0,0.1,0,0.25,0,0.45c0.167-0.067,0.35-0.034,0.55,0.1c0.2,0.133,0.316,0.2,0.35,0.2v-2.25l-0.45-0.2
	c-0.2,0.3-0.567,0.45-1.1,0.45c-0.233,0-0.617-0.283-1.15-0.85c-0.5-0.6-0.817-0.966-0.95-1.1l-1.35-0.05
	c-0.1,0-0.45,0.117-1.05,0.35c-0.167,0.033-0.3,0.133-0.4,0.3c-0.067,0.133-0.183,0.2-0.35,0.2c-0.333,0-0.5-0.2-0.5-0.6
	c0-0.3,0.184-0.533,0.55-0.7C260.15,195.1,260.7,194.933,261.6,194.7z M270.45,195.95l-0.55-0.05c-0.833,0.167-1.433,0.417-1.8,0.75
	s-0.55,0.817-0.55,1.45c0,0.066,0.067,0.216,0.2,0.45s0.2,0.483,0.2,0.75c0,0.233,0.083,0.6,0.25,1.101
	c0,0.166,0.216,0.517,0.65,1.05c0.5,0.633,0.967,0.95,1.4,0.95c0.9,0,1.467-0.051,1.7-0.15c0.3-0.167,0.55-0.583,0.75-1.25l0.1-1.75
	c0-0.533-0.216-1.133-0.65-1.8C271.683,196.783,271.117,196.283,270.45,195.95z M268,203.7l-0.95-1.55
	c-0.1-0.167-0.216-0.45-0.35-0.851c-0.1-0.267-0.267-0.517-0.5-0.75c-0.067,1.134-0.15,1.867-0.25,2.2c-0.3,0.8-0.9,1.467-1.8,2h1.4
	c0-0.366,0.333-0.616,1-0.75C266.917,203.9,267.4,203.8,268,203.7z"/>
<path fill-rule="evenodd" clip-rule="evenodd" fill="#663300" d="M270.4,204.2c-0.1-0.167-0.15-0.334-0.15-0.5
	c0-0.634,0.317-0.934,0.95-0.9s0.95,0.334,0.95,0.9c0,0.2-0.066,0.399-0.2,0.6c-0.2,0.233-0.45,0.351-0.75,0.351
	C270.833,204.65,270.567,204.5,270.4,204.2z"/>
<path fill-rule="evenodd" clip-rule="evenodd" fill="#35004F" d="M241.65,191.75c-1.233-4-1.85-6.5-1.85-7.5
	c0-1.033,0.133-1.8,0.4-2.3c0.333-0.567,0.716-0.65,1.15-0.25c0.367,0.367,0.566,0.8,0.6,1.3c0,0.567,0.15,1.367,0.45,2.4
	c0.367,1.1,0.55,1.9,0.55,2.4c0,1.2,0.316,2.767,0.95,4.7c0.934,2.733,1.45,4.317,1.55,4.75c0.267,1.2,0.933,2.767,2,4.7
	c1.3,2.366,2.117,3.95,2.45,4.75c0.067,0.2,0.317,0.983,0.75,2.35c0.333,1,0.684,1.816,1.05,2.45c0.233,0.4,0.683,1.15,1.35,2.25
	c0.534,0.967,0.8,1.75,0.8,2.35c0,0.801-0.317,1.2-0.95,1.2c-0.5,0-1.35-1.1-2.55-3.3c-0.833-1.533-1.65-3.184-2.45-4.95
	c-0.367-0.866-0.867-2.2-1.5-4c-0.6-1.866-1.117-3.283-1.55-4.25C243.917,198.7,242.85,195.683,241.65,191.75z"/>
<path fill-rule="evenodd" clip-rule="evenodd" fill="#35004F" d="M242,185.55c0.533-0.333,0.917-0.05,1.15,0.85
	c0.133,0.5,0.4,1.283,0.8,2.35c0.733,2.033,1.216,3.6,1.45,4.7c0,0.1,0.55,1.566,1.65,4.4c1.034,2.7,1.55,4.35,1.55,4.95
	c0,0.2-0.067,0.417-0.2,0.65c-0.2,0.3-0.45,0.45-0.75,0.45c-0.5,0-1.2-1.134-2.1-3.4c-0.667-1.667-1.25-3.383-1.75-5.15
	c-1.667-5.4-2.5-8.233-2.5-8.5C241.3,186.317,241.533,185.883,242,185.55z"/>
<path fill-rule="evenodd" clip-rule="evenodd" fill="#35004F" d="M292.35,178.8c0,0.534-0.883,3.85-2.649,9.95
	c-1.867,6.4-2.917,10.4-3.15,12c-1.133,6.733-1.733,10.384-1.8,10.95c-0.134,0.833-0.733,1.717-1.8,2.649
	c-1,0.867-2.233,1.65-3.7,2.351c-1.1,0.467-1.816,0.75-2.15,0.85c-0.899,0.2-2.566,0.367-5,0.5c-0.867,0.033-1.85,0.283-2.95,0.75
	c-1,0.4-2.483,0.601-4.45,0.601c-0.733,0-2.034-0.167-3.9-0.5c-1.833-0.334-3.233-0.65-4.2-0.95c-1.6-0.3-2.717-0.517-3.35-0.65
	c-1.033-0.233-1.55-0.649-1.55-1.25c0-0.767,0.483-1.149,1.45-1.149c0.1,0,1.783,0.433,5.05,1.3c3.3,0.833,5.466,1.25,6.5,1.25
	c1.5,0,2.833-0.2,4-0.601c1.3-0.433,2.833-0.699,4.6-0.8c1.5-0.1,2.75-0.333,3.75-0.7c0.566-0.166,1.3-0.449,2.2-0.85
	c1.634-0.566,2.7-1.384,3.2-2.45c0.333-1.267,0.583-2.217,0.75-2.85c0.333-1.3,0.649-3.134,0.95-5.5c0.333-2.8,0.583-4.65,0.75-5.55
	c0.233-1.267,0.767-3.117,1.6-5.55c0.9-2.567,1.467-4.434,1.7-5.6c0.1-0.733,0.333-1.65,0.7-2.75c0.433-1.233,0.733-2.167,0.899-2.8
	c0.434-1.8,0.65-2.733,0.65-2.8c0.166-1.1,0.533-1.5,1.1-1.2C292.083,177.75,292.35,178.2,292.35,178.8z"/>
<path fill-rule="evenodd" clip-rule="evenodd" fill="#35004F" d="M268.95,216.7c0.367,0.1,0.9,0.149,1.6,0.149
	c0.467,0,1.9-0.25,4.3-0.75c1.333-0.267,2-0.017,2,0.75c0,0.534-0.883,1.067-2.649,1.601c-1.934,0.467-3.117,0.75-3.55,0.85h-3.9
	c-0.633-0.166-0.95-0.5-0.95-1c0-0.2,0.2-0.533,0.6-1c0.434-0.533,0.833-0.8,1.2-0.8C268.133,216.5,268.583,216.566,268.95,216.7z"
	/>
<path fill-rule="evenodd" clip-rule="evenodd" fill="#35004F" d="M248.45,202.95c0.3,0,0.566,0.366,0.8,1.1
	c0.033,0.101,0.233,0.816,0.6,2.15c0.066,0.3,0.45,0.983,1.15,2.05c0.067,0.134,0.217,0.483,0.45,1.05
	c0.2,0.5,0.383,0.867,0.55,1.101c0.6,0.933,1.217,1.616,1.85,2.05c0.133,0.1,0.417,0.217,0.85,0.35c0.433,0.134,0.7,0.25,0.8,0.351
	l1.05,1.05c0.467,0.267,1.4,0.717,2.8,1.35c1.9,0.8,3.2,1.2,3.9,1.2l0.35-0.05h1.5c0.4,0,0.717-0.033,0.95-0.101
	c0.2-0.066,0.45-0.1,0.75-0.1c0.667,0,1.117,0.267,1.35,0.8c0,0.233-0.417,0.483-1.25,0.75h-3.4c-1.633-0.434-3.167-0.934-4.6-1.5
	c-1.066-0.166-1.717-0.25-1.95-0.25c-0.1,0-0.184-0.033-0.25-0.1c-0.067-0.101-0.133-0.15-0.2-0.15l-0.4,0.101
	c-0.367,0-0.8-0.134-1.3-0.4c-0.466-0.267-0.716-0.417-0.75-0.45c-0.5-0.233-0.816-0.383-0.95-0.45
	c-0.167-0.066-0.25-0.183-0.25-0.35c0-0.134,0.05-0.233,0.15-0.3c-0.267-0.334-0.4-0.517-0.4-0.55l0.15-0.351
	c-1.033-1.267-1.783-2.45-2.25-3.55c-0.4-0.434-0.633-0.733-0.7-0.9c-0.1-0.433-0.2-0.733-0.3-0.899
	c-0.1-0.167-0.233-0.483-0.4-0.95c-0.133-0.4-0.25-0.667-0.35-0.8c-0.467-0.167-0.7-0.934-0.7-2.3
	C248.05,203.267,248.183,202.95,248.45,202.95z"/>
<path fill-rule="evenodd" clip-rule="evenodd" fill="#663300" d="M261.4,211.75c-0.233,0.366-0.583,0.55-1.05,0.55
	s-1.117-0.149-1.95-0.45c-0.867-0.333-1.35-0.5-1.45-0.5l-1.8-0.949c-0.8-0.334-1.333-0.65-1.6-0.95
	c-0.133-0.134-0.383-0.517-0.75-1.15c-0.367-0.633-0.55-1-0.55-1.1c0-0.533,0.15-0.9,0.45-1.101c0.267-0.233,0.4,0.017,0.4,0.75
	c0.267,0.034,0.45,0.134,0.55,0.301c0.067,0.1,0.184,0.283,0.35,0.55c0.4,0.467,0.65,0.8,0.75,1c0.033,0.133,0.35,0.434,0.95,0.899
	c0.667,0.5,1.167,0.75,1.5,0.75c0.066,0,0.316-0.199,0.75-0.6c0.433-0.4,0.767-0.6,1-0.6c0.466,0,1.033,0.25,1.7,0.75
	c0.633,0.466,0.95,0.833,0.95,1.1S261.533,211.517,261.4,211.75z"/>
<path fill-rule="evenodd" clip-rule="evenodd" fill="#663300" d="M280.05,206.15c0.066-0.2,0.4-0.534,1-1c0.667-0.5,1-0.467,1,0.1
	c0,0.066-0.416,0.533-1.25,1.4c-0.767,0.8-1.283,1.316-1.55,1.55c-0.533,0.366-1.217,0.75-2.05,1.149l-0.65,0.7
	c-0.366,0.4-0.7,0.601-1,0.601c-0.434,0-0.75-0.217-0.95-0.65c-0.133-0.267-0.2-0.533-0.2-0.8c0-0.334,0.133-0.667,0.4-1
	c0.4-0.467,0.983-0.7,1.75-0.7c0.8,0,1.2,0.066,1.2,0.2c0.4,0,0.85-0.2,1.35-0.601C279.167,207.033,279.483,206.717,280.05,206.15z"
	/>
<path fill-rule="evenodd" clip-rule="evenodd" fill="#663300" d="M266.6,203.75h3.05c1.2,0.066,1.967,0.033,2.3-0.1
	c0.3,0,0.483,0.05,0.55,0.149c0.033,0.066,0.05,0.15,0.05,0.25h0.25l1.75-0.35c0.034,0,0.217-0.117,0.55-0.351
	c0.233-0.166,0.45-0.25,0.65-0.25c0.267,0,0.4,0.15,0.4,0.45c0,0.533-0.867,0.934-2.601,1.2c-2,0.233-3.283,0.417-3.85,0.55h-2.2
	c-0.267,0-0.45-0.083-0.55-0.25c-0.1-0.166-0.117-0.3-0.05-0.399c-0.4-0.233-0.6-0.4-0.6-0.5
	C266.3,203.95,266.4,203.816,266.6,203.75z"/>
<path fill-rule="evenodd" clip-rule="evenodd" fill="#663300" d="M267.75,193.85h2.15c0.267,0.1,0.733,0.217,1.4,0.35
	c0.534,0.2,0.8,0.417,0.8,0.65c0,0.3-0.3,0.45-0.9,0.45l-2.1-0.2c-0.367,0.033-0.617,0.066-0.75,0.1c-0.2,0-0.383-0.083-0.55-0.25
	h-2.1l-0.15-0.05h-1.6l-2.1,0.5c-0.3,0-0.45-0.15-0.45-0.45c0-0.534,1.333-0.883,4-1.05h2.2L267.75,193.85z"/>
<path fill-rule="evenodd" clip-rule="evenodd" fill="#663300" d="M258,203.8l1.05,0.601c0.733,0.399,1.217,0.616,1.45,0.649
	c0.433,0.066,0.967,0.184,1.6,0.351l1.05,0.199c0.167,0.067,0.25,0.184,0.25,0.351c0,0.267-0.233,0.399-0.7,0.399
	c-0.8,0-1.817-0.216-3.05-0.649c-1.4-0.5-2.1-1-2.1-1.5C257.55,203.934,257.7,203.8,258,203.8z"/>
<path fill-rule="evenodd" clip-rule="evenodd" fill="#663300" d="M275.25,203.8c0.167-0.033,0.5-0.233,1-0.6
	c0.4-0.233,0.6-0.134,0.6,0.3c0,0.733-1.366,1.333-4.1,1.8c-0.133,0-2.65,0.3-7.55,0.9h-1.9c-0.433-0.101-0.7-0.184-0.8-0.25
	c-0.1-0.033-0.15-0.134-0.15-0.3c0-0.233,0.167-0.351,0.5-0.351l0.6,0.101h1.65c1.133-0.101,3.833-0.434,8.1-1
	c0.367-0.067,0.733-0.167,1.1-0.301C274.633,203.934,274.95,203.833,275.25,203.8z"/>
<path fill-rule="evenodd" clip-rule="evenodd" fill="#663300" d="M264.7,219.8c0,0.134-0.067,0.334-0.2,0.601
	s-0.183,0.483-0.15,0.649v1.3c0,0.9,0.1,1.717,0.3,2.45c0.2,0.767,0.3,1.316,0.3,1.65c0,0.566-0.45,1.233-1.35,2
	c-1.033,0.866-2.117,1.3-3.25,1.3s-1.7-0.384-1.7-1.15c0-0.699,0.434-1.267,1.3-1.699c1.066-0.5,1.633-0.801,1.7-0.9
	c0.533-0.8,0.883-1.333,1.05-1.6c0.267-0.467,0.4-0.967,0.4-1.5c0-0.367-0.05-0.667-0.15-0.9c-0.133-0.267-0.2-0.517-0.2-0.75
	c0-0.134,0.033-0.384,0.1-0.75c0.1-0.4,0.167-0.616,0.2-0.65c0.267-0.699,0.617-0.966,1.05-0.8
	C264.5,219.217,264.7,219.467,264.7,219.8z"/>
<path fill-rule="evenodd" clip-rule="evenodd" fill="#663300" d="M273.55,218.9c0.067,0.1,0.1,0.166,0.1,0.199l-0.5,1.75l0.15,0.851
	c0,0.3-0.033,0.583-0.1,0.85c-0.1,0.267-0.15,0.483-0.15,0.65c0,0.366,0.684,0.883,2.05,1.55c1.334,0.667,2,1.2,2,1.6l0.101,0.45
	c0,0.5-0.217,0.75-0.65,0.75c-1.133,0-2.05-0.133-2.75-0.399c-0.9-0.301-1.417-0.467-1.55-0.5c-0.533-0.101-0.95-0.367-1.25-0.801
	c-0.233-0.333-0.35-0.699-0.35-1.1c0-0.267,0.1-0.85,0.3-1.75c0.2-0.767,0.333-1.267,0.4-1.5c0-0.1,0.066-0.2,0.2-0.3
	c0.1-0.134,0.167-0.283,0.2-0.45l0.05-0.75c0-0.5,0.017-0.816,0.05-0.95c0.1-0.233,0.566-0.35,1.4-0.35
	C273.35,218.7,273.45,218.767,273.55,218.9z"/>
<path fill-rule="evenodd" clip-rule="evenodd" fill="#824100" d="M265.05,219.7c-0.167,1.166-0.25,1.783-0.25,1.85l0.15,1.7
	c0,0.066,0.133,0.5,0.4,1.3c0.267,0.834,0.4,1.367,0.4,1.601c0,0.199-0.083,0.3-0.25,0.3c-0.133,0-0.3-0.101-0.5-0.3
	c-0.2-0.2-0.3-0.334-0.3-0.4l0.1-0.3c0-0.033-0.066-0.2-0.2-0.5c-0.167-0.3-0.25-0.634-0.25-1l-0.1-0.601
	c0.067-0.066,0.1-0.133,0.1-0.199l-0.15-1.25c0-0.667,0.033-1.15,0.1-1.45c0.067-0.4,0.2-0.733,0.4-1
	C264.933,219.184,265.05,219.267,265.05,219.7z"/>
<path fill-rule="evenodd" clip-rule="evenodd" fill="#824100" d="M274,219.15c0,0.533-0.117,1.3-0.35,2.3
	c0,0.033-0.017,0.483-0.05,1.35c0,0.566-0.117,0.851-0.35,0.851c-0.2,0-0.333-0.5-0.4-1.5c0-0.601,0.083-1.284,0.25-2.051
	c0.167-0.933,0.383-1.483,0.65-1.649L274,219.15z"/>
<path fill-rule="evenodd" clip-rule="evenodd" fill="#824100" d="M273.25,222.65l0.1,0.75c0.633,0.066,1.517,0.466,2.65,1.199
	c1.134,0.7,1.7,1.233,1.7,1.601c0,0.233-0.084,0.35-0.25,0.35c-0.101,0-0.283-0.149-0.55-0.45c-0.334-0.3-0.517-0.466-0.551-0.5
	c-0.8-0.399-1.35-0.649-1.649-0.75c-0.967-0.366-1.55-0.666-1.75-0.899c-0.1-0.134-0.15-0.417-0.15-0.851l-0.1-0.5
	c0-0.1,0.066-0.183,0.2-0.25C273.033,222.283,273.15,222.384,273.25,222.65z"/>
<path fill-rule="evenodd" clip-rule="evenodd" fill="#824100" d="M261.5,209.95c0.333,0.533,0.5,0.95,0.5,1.25
	c0,0.366-0.083,0.55-0.25,0.55c-0.433,0-0.817-0.483-1.15-1.45c-0.2-0.467-0.617-0.767-1.25-0.899c-0.6-0.134-0.9-0.217-0.9-0.25
	c0-0.167,0.083-0.25,0.25-0.25h1.3l0.55,0.05C260.817,209.017,261.133,209.35,261.5,209.95z"/>
<path fill-rule="evenodd" clip-rule="evenodd" fill="#824100" d="M256.4,209.65c0.467,0.3,0.7,0.533,0.7,0.699
	c0,0.167-0.1,0.25-0.3,0.25c-0.6,0-1.267-0.449-2-1.35c-0.6-0.934-0.917-1.417-0.95-1.45c-0.533-0.533-0.983-1-1.35-1.399
	c-0.7-0.767-1.05-1.25-1.05-1.45c0-0.566,0.517-0.3,1.55,0.8c1,1.066,1.5,1.75,1.5,2.05c0,0.066,0.333,0.483,1,1.25
	C255.533,209.116,255.833,209.316,256.4,209.65z"/>
<path fill-rule="evenodd" clip-rule="evenodd" fill="#824100" d="M278.25,207.95c-0.066,0.066-0.134,0.1-0.2,0.1
	c-0.5,0-0.967-0.083-1.399-0.25c-0.367-0.166-0.551-0.283-0.551-0.35c0-0.233,0.384-0.283,1.15-0.15c0.733,0.101,1.1,0.25,1.1,0.45
	C278.35,207.816,278.316,207.884,278.25,207.95z"/>
<path fill-rule="evenodd" clip-rule="evenodd" fill="#824100" d="M263.9,194.2c-0.566,0.133-0.917,0.2-1.05,0.2
	c-0.233,0-0.35-0.117-0.35-0.35c0-0.2,0.583-0.433,1.75-0.7c1.333-0.333,2.75-0.5,4.25-0.5c0.6,0,1.883,0.35,3.85,1.05
	c2,0.7,3,1.184,3,1.45c0,0.233-0.116,0.35-0.35,0.35c-0.933-0.467-1.5-0.733-1.7-0.8c-0.133-0.066-0.583-0.133-1.35-0.2
	c-0.633-0.034-1.067-0.05-1.3-0.05l-2.9-0.65C266.05,194,264.767,194.067,263.9,194.2z"/>
<path fill-rule="evenodd" clip-rule="evenodd" fill="#824100" d="M270.25,194.15c0.133,0,0.55,0.117,1.25,0.35l-0.05-0.2
	c0-0.2,0.167-0.3,0.5-0.3c0.5,0,1.333,0.217,2.5,0.65c1.133,0.4,1.85,0.717,2.149,0.95c0.334,0.233,0.75,0.55,1.25,0.95
	c0.667,0.6,1,1,1,1.2l-0.1,0.35c0,0.133,0.066,0.45,0.2,0.95c0.133,0.534,0.2,0.9,0.2,1.101c0,0.133-0.084,0.283-0.25,0.449
	c-0.2,0.167-0.417,0.25-0.65,0.25c-0.2,0-0.5-0.517-0.9-1.55c-0.5-1.167-0.866-1.85-1.1-2.05c-1-0.833-1.85-1.367-2.55-1.6
	c-0.034-0.033-0.767-0.217-2.2-0.55c-1.067-0.267-1.6-0.483-1.6-0.65C269.9,194.25,270.017,194.15,270.25,194.15z"/>
<path fill-rule="evenodd" clip-rule="evenodd" fill="#824100" d="M264,193.95c0,0.167-0.817,0.5-2.45,1
	c-0.133,0-0.216-0.067-0.25-0.2v-0.2c0-0.133,0.333-0.35,1-0.65c0.6-0.267,0.95-0.4,1.05-0.4C263.783,193.5,264,193.65,264,193.95z"
	/>
<path fill-rule="evenodd" clip-rule="evenodd" fill="#824100" d="M282.95,172.4l2.55,0.9c0.167,0.034,0.583,0.117,1.25,0.25
	c0.6,0.167,0.9,0.417,0.9,0.75c0.3,0.034,1,0.284,2.1,0.75c1.233,0.467,1.85,0.8,1.85,1c0,0.067-0.05,0.15-0.149,0.25
	c0.066,0.1,0.166,0.2,0.3,0.3c0.066,0.1,0.1,0.2,0.1,0.3c-0.6,1.033-0.933,1.55-1,1.55c-0.1,0-0.466-0.333-1.1-1
	c-0.667-0.7-1.384-1.15-2.15-1.35c-0.333-0.067-0.733-0.217-1.199-0.45c-0.467-0.2-0.884-0.35-1.25-0.45
	c-1.767-0.467-2.784-0.7-3.051-0.7l-0.3,0.1c-0.166,0-0.267-0.05-0.3-0.15v-0.15c0-0.1,0.2-0.433,0.6-1
	C282.5,172.7,282.783,172.4,282.95,172.4z"/>
<path fill-rule="evenodd" clip-rule="evenodd" fill="#824100" d="M281.3,166.55c0.167,0.434,0.316,0.733,0.45,0.9
	c1.033,1.1,1.55,2.183,1.55,3.25c0,0.233-0.083,0.45-0.25,0.65c-0.233,0.267-0.566,0.4-1,0.4c-0.3,0-0.517-0.15-0.649-0.45
	c-0.101-0.2-0.15-0.367-0.15-0.5s0.033-0.216,0.1-0.25c0.101-0.066,0.184-0.167,0.25-0.3l-0.05-0.55l0.101-0.35
	c0-0.033-0.217-0.283-0.65-0.75c-0.5-0.533-0.884-0.9-1.15-1.1l-0.949-0.95c-0.233-0.267-0.601-0.4-1.101-0.4
	c-0.366,0-0.55-0.1-0.55-0.3c0-0.167,0.2-0.467,0.6-0.9c0.434-0.467,0.784-0.7,1.051-0.7l1.899,1.55
	C280.967,165.933,281.134,166.183,281.3,166.55z"/>
<path fill-rule="evenodd" clip-rule="evenodd" fill="#824100" d="M277.6,160.5c0.867,1.4,1.301,2.283,1.301,2.65v0.3
	c-0.034,0.133-0.184,0.2-0.45,0.2c-0.834,0-1.65-0.467-2.45-1.4c-0.533-0.633-0.866-1.15-1-1.55c-0.133-0.4-0.617-0.934-1.45-1.6
	c-1.2-0.967-1.833-1.483-1.9-1.55c-0.1,0.067-0.167,0.117-0.2,0.15h-0.65c-1.066,0-1.65-0.117-1.75-0.35
	c0-0.333-0.017-0.567-0.05-0.7c-0.5-0.833-0.75-1.316-0.75-1.45c0-0.367,0.25-0.55,0.75-0.55c0.6,0,1.35,0.25,2.25,0.75
	c1.1,0.6,1.733,0.917,1.9,0.95c0.667,0.167,1.25,0.45,1.75,0.85c0.067,0.066,0.484,0.483,1.25,1.25
	C276.35,158.65,276.833,159.333,277.6,160.5z M275.25,159.85c0.767,1.367,1.6,2.367,2.5,3h0.3c-0.8-1.467-1.434-2.533-1.899-3.2
	c-0.567-0.767-1.2-1.417-1.9-1.95c-0.833-0.633-1.517-0.883-2.05-0.75c0.167,0.367,0.65,0.85,1.45,1.45
	C274.517,159.033,275.05,159.517,275.25,159.85z"/>
<path fill-rule="evenodd" clip-rule="evenodd" fill="#824100" d="M276.45,159.85c0.666,0.4,1.066,0.9,1.2,1.5
	c0.033,0.2,0.267,0.717,0.699,1.55c0,0.233-0.1,0.35-0.3,0.35c-0.133,0-0.25-0.067-0.35-0.2l-0.101-0.2l-0.25,0.05
	c-0.133,0-0.25-0.066-0.35-0.2c-0.1-0.167-0.167-0.25-0.2-0.25l-0.6-0.3l-0.3-0.45c-0.334-0.167-0.534-0.3-0.601-0.4
	c-0.166-0.267-0.316-0.6-0.45-1l-0.3-0.95c-0.2-0.1-0.667-0.417-1.4-0.95c-0.9-0.667-1.35-1.1-1.35-1.3c0-0.167,0.05-0.267,0.15-0.3
	h0.55l0.6,0.1l0.2-0.1c0.167,0,0.517,0.2,1.05,0.6c0.467,0.367,0.8,0.65,1,0.85c0.067,0.1,0.233,0.367,0.5,0.8
	C276.05,159.45,276.25,159.717,276.45,159.85z"/>
<path fill-rule="evenodd" clip-rule="evenodd" fill="#824100" d="M278.95,163.45c0.066,0.367-0.033,0.55-0.3,0.55
	c-0.134,0-0.267-0.133-0.4-0.4c-0.134-0.233-0.2-0.383-0.2-0.45l0.101-0.3c0-0.1-0.067-0.233-0.2-0.4
	c-0.134-0.167-0.2-0.284-0.2-0.35c0-0.2,0.134-0.3,0.4-0.3C278.583,161.8,278.85,162.35,278.95,163.45z"/>
<path fill-rule="evenodd" clip-rule="evenodd" fill="#824100" d="M278.35,163.15c0.367,0,0.551,0.167,0.551,0.5
	c0,0.9-0.2,1.35-0.601,1.35c-0.133,0-0.366-0.267-0.7-0.8c-0.333-0.5-0.5-0.784-0.5-0.85c0-0.2,0.067-0.317,0.2-0.35
	c0.2-0.033,0.417,0.1,0.65,0.4C278.116,163.233,278.25,163.15,278.35,163.15z"/>
<path fill-rule="evenodd" clip-rule="evenodd" fill="#482400" d="M243.25,179.25c0,0.233-0.083,0.55-0.25,0.95
	c-0.033,0.167-0.1,0.45-0.2,0.85c0,0.233,0.284,0.5,0.85,0.8c0.533,0.3,0.8,0.5,0.8,0.6c0,0.2-0.2,0.3-0.6,0.3
	c-0.467,0-0.883-0.183-1.25-0.55c-0.333-0.367-0.5-0.7-0.5-1c0.133-0.4,0.2-0.65,0.2-0.75l-0.1-0.3c0-0.367,0.183-0.733,0.55-1.1
	C243.083,178.65,243.25,178.717,243.25,179.25z"/>
<path fill-rule="evenodd" clip-rule="evenodd" fill="#482400" d="M246.8,181.7c0,0.066-0.35,0.466-1.05,1.2
	c-0.167,0-0.267-0.05-0.3-0.15v-0.15c0-0.133,0.117-0.35,0.35-0.65c0.267-0.367,0.5-0.55,0.7-0.55
	C246.667,181.4,246.767,181.5,246.8,181.7z"/>
<path fill-rule="evenodd" clip-rule="evenodd" fill="#482400" d="M242.7,180.1c0,0.1-0.067,0.316-0.2,0.65l0.1,0.45
	c0,0.066-0.033,0.133-0.1,0.2c-0.067,0.067-0.133,0.1-0.2,0.1c-0.367,0-0.5-0.217-0.4-0.65c0-0.7,0.167-1.05,0.5-1.05
	C242.567,179.8,242.667,179.9,242.7,180.1z"/>
<path fill-rule="evenodd" clip-rule="evenodd" fill="#482400" d="M248.1,179.55c0,0.333,0,0.517,0,0.55l0.2,0.9
	c0.067,0.233,0.367,0.5,0.9,0.8c0.267,0.267,0.65,0.45,1.15,0.55c0.3,0.066,0.816,0.183,1.55,0.35l1.5,0.05
	c0.267-0.033,0.7,0.033,1.3,0.2c0.667,0.2,1,0.417,1,0.65c0,0.033-0.067,0.133-0.2,0.3h-2.7l0.05,0.15c0,0.233-0.184,0.35-0.55,0.35
	c-0.3,0-0.667-0.117-1.1-0.35c-0.434-0.233-0.667-0.35-0.7-0.35c-0.1,0.133-0.217,0.2-0.35,0.2c-0.333-0.2-0.6-0.3-0.8-0.3
	c0,0.167-0.25,0.25-0.75,0.25c-0.867,0-1.4-0.317-1.6-0.95c-0.033-0.667-0.05-1.017-0.05-1.05l0.05-0.9c0-0.1,0.067-0.233,0.2-0.4
	c0.1-0.167,0.15-0.316,0.15-0.45c-0.067-0.233-0.1-0.4-0.1-0.5c0.033-0.133,0.2-0.25,0.5-0.35
	C247.983,179.25,248.1,179.35,248.1,179.55z"/>
<path fill-rule="evenodd" clip-rule="evenodd" fill="#482400" d="M289,180.25c0.333-0.5,0.634-0.75,0.9-0.75
	c0.166,0,0.267,0.1,0.3,0.3c0,0.1-0.184,0.367-0.55,0.8c0.199-0.033,0.3,0.066,0.3,0.3c0,0.333-0.767,0.7-2.3,1.1
	c-1.067,0.3-2.15,0.533-3.25,0.7c-0.867,0.1-1.834,0.283-2.9,0.55c-1.066,0.233-2.55,0.467-4.45,0.7h-2.5
	c-1.033-0.067-1.566-0.117-1.6-0.15l-1.45-0.05l-0.15-0.05h-2.3c-0.233,0.033-0.383,0.017-0.45-0.05v-0.2
	c0-0.233,0.15-0.367,0.45-0.4l7.95,0.25c2.2-0.2,3.816-0.417,4.85-0.65c0.667-0.167,1.733-0.467,3.2-0.9L289,180.25z"/>
<path fill-rule="evenodd" clip-rule="evenodd" fill="#482400" d="M254.4,199.75c0-0.6,0.1-0.85,0.3-0.75
	c0.2,0.1,0.333,0.533,0.4,1.3l0.4,1.101c0.167,0.433,0.383,0.767,0.65,1c1.833,1.566,4.117,2.583,6.85,3.05h1.35
	c1.333-0.066,2.033-0.101,2.1-0.101c0.8,0,1.3,0.051,1.5,0.15c0.033,0,0.05,0.066,0.05,0.2c0,0.166-0.1,0.267-0.3,0.3l-1.4,0.1
	c-0.233,0-0.7,0.067-1.4,0.2c-0.667,0.134-1.433,0.2-2.3,0.2c-1.033,0-2.083-0.217-3.15-0.65c-0.967-0.366-1.467-0.666-1.5-0.899
	c-1.3-0.934-2.217-1.8-2.75-2.601C254.667,201.583,254.4,200.717,254.4,199.75z"/>
<path fill-rule="evenodd" clip-rule="evenodd" fill="#482400" d="M263.15,219.55l-0.15,1.3v2.4c0,0.233-0.15,0.35-0.45,0.35
	l0.1,0.351c0,0.166-0.433,0.85-1.3,2.05c-0.267,0.233-0.783,0.483-1.55,0.75l-1.1,0.85c-0.2,0-0.3-0.066-0.3-0.199
	c0-0.233,0.483-0.634,1.45-1.2c1-0.601,1.566-1.084,1.7-1.45c0.333-0.934,0.534-1.483,0.6-1.65c0.067-0.199,0.1-0.583,0.1-1.149
	l0.05-1.8c0.067-0.101,0.1-0.25,0.1-0.45s0.017-0.351,0.05-0.45c0.133-0.333,0.283-0.4,0.45-0.2
	C263.067,219.217,263.15,219.384,263.15,219.55z"/>
<path fill-rule="evenodd" clip-rule="evenodd" fill="#482400" d="M259.55,228.5c0.5,0.5,1.1,0.8,1.8,0.9h0.4
	c0-0.134,0.1-0.2,0.3-0.2c0.2,0,0.317,0.083,0.35,0.25c0,0.166-0.15,0.399-0.45,0.7h-0.7c-0.767,0.033-1.483-0.15-2.15-0.551
	c-0.567-0.366-0.85-0.683-0.85-0.949c0-0.101,0.05-0.167,0.15-0.2c0.067-0.066,0.1-0.134,0.1-0.2l-0.1-0.35
	c0-0.4,0.167-0.45,0.5-0.15C259.067,227.917,259.283,228.167,259.55,228.5z"/>
<path fill-rule="evenodd" clip-rule="evenodd" fill="#482400" d="M270.5,221.6c0.267-0.866,0.45-1.399,0.55-1.6
	c0.633-1.434,0.95-1.667,0.95-0.7c0,0.334-0.117,0.816-0.35,1.45c-0.066,0.233-0.316,0.684-0.75,1.35
	c-0.059,0.179-0.159,0.57-0.3,1.176c0.081-0.117,0.181-0.176,0.3-0.176c0.133,0,0.25,0.301,0.35,0.9c0.133,0.7,0.25,1.134,0.35,1.3
	c0.333,0.533,0.783,0.934,1.35,1.2c0.367,0.2,0.55,0.467,0.55,0.8c0,0.233-0.083,0.351-0.25,0.351c-0.3,0-0.767-0.2-1.4-0.601
	c-0.7-0.434-1.067-0.649-1.1-0.649c-0.3-0.101-0.533-0.334-0.7-0.7c-0.167-0.3-0.25-0.584-0.25-0.851c0-0.3,0.1-0.883,0.3-1.75
	C270.267,222.267,270.4,221.767,270.5,221.6z M270.4,224.2c-0.066,0.328-0.1,0.544-0.1,0.649l0.1,0.351
	C270.4,224.736,270.4,224.403,270.4,224.2z"/>
<path fill-rule="evenodd" clip-rule="evenodd" fill="#482400" d="M273.25,227.35c0-0.166,0.083-0.25,0.25-0.25
	c0.033,0,0.317,0.084,0.85,0.25c0.533,0.167,1.1,0.25,1.7,0.25c0.5,0,0.834-0.1,1-0.3c0.066-0.066,0.134-0.217,0.2-0.45
	c0.033-0.333,0.116-0.466,0.25-0.399c0.167,0.1,0.25,0.25,0.25,0.45c0,0.233-0.1,0.466-0.3,0.699c-0.3,0.334-0.75,0.5-1.351,0.5
	c-0.866,0-1.583-0.1-2.149-0.3C273.483,227.634,273.25,227.483,273.25,227.35z"/>
<path fill-rule="evenodd" clip-rule="evenodd" fill="#482400" d="M277.3,227.6c-0.133,0-0.217-0.05-0.25-0.149L277,227.3l0.25-1.3
	c0-0.333,0.1-0.384,0.3-0.15c0.167,0.2,0.25,0.417,0.25,0.65C277.8,227.233,277.634,227.6,277.3,227.6z"/>
<path fill-rule="evenodd" clip-rule="evenodd" fill="#482400" d="M258.4,228.35c-0.066,0-0.133-0.05-0.2-0.149l-0.05-0.15
	c0-0.333,0.133-0.583,0.4-0.75c0.233-0.166,0.35-0.083,0.35,0.25C258.9,227.616,258.733,227.884,258.4,228.35z"/>
<path fill-rule="evenodd" clip-rule="evenodd" fill="#482400" d="M261.9,229.65l-0.25,0.199c-0.167,0-0.283-0.05-0.35-0.149
	l-0.05-0.15c0-0.267,0.333-0.434,1-0.5c0.633-0.066,0.95-0.017,0.95,0.15C263.2,229.5,262.767,229.65,261.9,229.65z"/>
<path fill-rule="evenodd" clip-rule="evenodd" fill="#482400" d="M257.15,210.6c-0.167,0-0.25-0.083-0.25-0.25
	c0-0.166,0.317-0.517,0.95-1.05c0.6-0.533,0.9-0.566,0.9-0.1C258.75,209.366,258.217,209.833,257.15,210.6z"/>
<path fill-rule="evenodd" clip-rule="evenodd" fill="#482400" d="M259.15,212.7c-0.133,0-0.217-0.084-0.25-0.25
	c0-0.134,0.083-0.2,0.25-0.2c0.167,0,0.25,0.066,0.25,0.2L259.15,212.7z"/>
<path fill-rule="evenodd" clip-rule="evenodd" fill="#482400" d="M279.9,208.4c-0.601,0.5-1.5,1.183-2.7,2.05
	c-1.134,0.767-1.733,1.149-1.8,1.149c-0.2,0-0.4-0.1-0.601-0.3c-0.167-0.166-0.25-0.283-0.25-0.35c0-0.2,0.083-0.3,0.25-0.3
	c0.067,0,0.167,0.066,0.3,0.199c0.134,0.134,0.25,0.2,0.351,0.2c2.033-1.3,3.434-2.333,4.2-3.1c0.699-0.934,1.283-1.667,1.75-2.2
	c0.866-1,1.3-1.233,1.3-0.7c0,0.167-0.517,0.733-1.55,1.7c-0.134,0.134-0.317,0.384-0.551,0.75
	C280.4,207.866,280.167,208.167,279.9,208.4z"/>
<path fill-rule="evenodd" clip-rule="evenodd" fill="#482400" d="M270.65,205.85c-0.833,0-1.316,0.034-1.45,0.101
	s-0.333,0.1-0.6,0.1c-0.434,0-0.783-0.066-1.05-0.2c-0.2-0.1-0.3-0.183-0.3-0.25c0-0.166,0.1-0.25,0.3-0.25l0.75,0.2h0.7
	c0.833-0.166,1.367-0.25,1.6-0.25s0.35,0.084,0.35,0.25C270.95,205.616,270.85,205.717,270.65,205.85z"/>
<path fill-rule="evenodd" clip-rule="evenodd" fill="#482400" d="M259.25,195.55c-0.2,0.133-0.5,0.2-0.9,0.2
	c-0.833,0.667-1.367,1.067-1.6,1.2c-0.8,0.367-1.317,0.75-1.55,1.15c-0.1,0.167-0.25,0.65-0.45,1.45c-0.2,0.767-0.3,1.217-0.3,1.351
	c0,0.199,0.066,0.533,0.2,1c0.1,0.433,0.184,0.716,0.25,0.85l0.25-0.05c0.267,0,0.483,0.116,0.65,0.35
	c0.067,0.134,0.117,0.283,0.15,0.45c0.1,0.2,0.3,0.467,0.6,0.8c0,0.3-0.167,0.45-0.5,0.45c-0.433,0-0.867-0.267-1.3-0.8
	c-0.367-0.4-0.6-0.783-0.7-1.15c-0.233-0.7-0.367-1.1-0.4-1.2c0-0.166,0-0.449,0-0.85c0-0.7,0.117-1.417,0.35-2.15
	c0.3-0.967,0.733-1.583,1.3-1.85c1.167-0.767,2.05-1.333,2.65-1.7c1.1-0.7,2.066-1.05,2.9-1.05c0.3,0,0.45,0.117,0.45,0.35
	c0,0.133-0.15,0.267-0.45,0.4c-0.367,0.167-0.65,0.283-0.85,0.35C259.867,195.167,259.617,195.317,259.25,195.55z"/>
<path fill-rule="evenodd" clip-rule="evenodd" fill="#482400" d="M265.1,206.2c0.167-0.101,0.3-0.084,0.4,0.05
	c0.067,0.134,0.1,0.25,0.1,0.35l-0.4,0.4h-2.25l-2.85-0.45c-1.133-0.166-1.7-0.45-1.7-0.85c0-0.367,0.15-0.483,0.45-0.351
	c0.6,0.233,1.033,0.351,1.3,0.351c1.167,0.1,2.117,0.267,2.85,0.5H265.1z"/>
<path fill-rule="evenodd" clip-rule="evenodd" fill="#482400" d="M271.3,205.95c-0.433,0.066-0.767,0.116-1,0.149h-1.55
	c-0.533-0.166-0.867-0.267-1-0.3c-0.167-0.066-0.25-0.166-0.25-0.3c0-0.233,0.133-0.35,0.4-0.35l1.65,0.149
	c0.233,0,0.817-0.066,1.75-0.2c0.367-0.066,0.55,0.051,0.55,0.351C271.85,205.684,271.667,205.85,271.3,205.95z"/>
<path fill-rule="evenodd" clip-rule="evenodd" fill="#482400" d="M274.4,205.8c-1.433,0.467-2.433,0.7-3,0.7
	c-0.533,0-0.8-0.15-0.8-0.45c0-0.233,0.117-0.35,0.35-0.35c0.566,0,1.017-0.05,1.35-0.15c0.133-0.066,0.684-0.217,1.65-0.45
	c0.4-0.199,0.917-0.383,1.55-0.55c0.7-0.366,1.05-0.3,1.05,0.2C276.55,204.983,275.833,205.333,274.4,205.8z"/>
<path fill-rule="evenodd" clip-rule="evenodd" fill="#482400" d="M276.8,203.25c0.867-0.634,1.3-0.684,1.3-0.15
	c0,0.467-0.85,1.067-2.55,1.801c-1.667,0.699-2.983,1.05-3.95,1.05c-0.233,0-0.4-0.066-0.5-0.2l-0.05-0.2c0-0.133,0.467-0.3,1.4-0.5
	c1.167-0.2,2.033-0.467,2.6-0.8C275.717,203.917,276.3,203.583,276.8,203.25z"/>
<path fill-rule="evenodd" clip-rule="evenodd" fill="#482400" d="M272.85,205.15c0,0.333-0.733,0.616-2.2,0.85h-2.85
	c-0.133-0.066-0.383-0.116-0.75-0.15c-0.2-0.033-0.3-0.149-0.3-0.35c0-0.3,0.367-0.4,1.1-0.3h2.75c0.133-0.101,0.433-0.2,0.9-0.3
	c0.433-0.101,0.733-0.15,0.9-0.15C272.7,204.75,272.85,204.884,272.85,205.15z"/>
<path fill-rule="evenodd" clip-rule="evenodd" fill="#482400" d="M279.4,201.15c-0.767,1.899-1.367,2.85-1.801,2.85
	c-0.1,0-0.25-0.1-0.449-0.3c-1.767,1.233-3.234,1.85-4.4,1.85c-0.533,0-0.85-0.066-0.95-0.2c-0.033-0.033-0.05-0.116-0.05-0.25
	c0-0.233,0.283-0.383,0.85-0.449c0.9-0.067,1.6-0.2,2.1-0.4c0.467-0.2,1.083-0.6,1.85-1.2c0.9-0.566,1.417-0.983,1.55-1.25
	c0.034-0.366,0.067-0.633,0.101-0.8c0.1-0.333,0.35-0.5,0.75-0.5C279.25,200.5,279.4,200.717,279.4,201.15z"/>
<path fill-rule="evenodd" clip-rule="evenodd" fill="#482400" d="M262.2,194.7c-0.733,0.267-1.317,0.4-1.75,0.4
	c-0.3,0-0.483-0.067-0.55-0.2l-0.05-0.2c0-0.3,0.583-0.6,1.75-0.9c1.133-0.333,1.7-0.267,1.7,0.2
	C263.3,194.2,262.933,194.433,262.2,194.7z"/>
<path fill-rule="evenodd" clip-rule="evenodd" fill="#482400" d="M259.65,196.75c0.667-0.7,1.55-1.05,2.65-1.05
	c0.733,0,1.3,0.316,1.7,0.95c0.267,0.434,0.4,0.817,0.4,1.15c0,0.067-0.033,0.167-0.1,0.3c-0.1,0.133-0.2,0.2-0.3,0.2
	c-0.233,0-0.4-0.117-0.5-0.35c-0.033-0.267-0.067-0.45-0.1-0.55c-0.133-0.3-0.433-0.6-0.9-0.9H262c-0.533,0.033-1.067,0.267-1.6,0.7
	c-0.467,0.4-0.7,0.75-0.7,1.05c0,0.4,0.05,0.8,0.15,1.2c0,0.566-0.133,0.85-0.4,0.85c-0.133,0-0.267-0.316-0.4-0.95
	c-0.1-0.5-0.15-0.85-0.15-1.05C258.9,197.8,259.15,197.283,259.65,196.75z"/>
<path fill-rule="evenodd" clip-rule="evenodd" fill="#482400" d="M260.15,200.8c0.2-0.033,0.45,0.101,0.75,0.4
	c0.1,0.1,0.217,0.267,0.35,0.5c0.167,0.2,0.467,0.3,0.9,0.3c0.4,0,0.7-0.134,0.9-0.4c0.233-0.3,0.434-0.449,0.6-0.449
	c0.267,0,0.4,0.133,0.4,0.399s-0.2,0.55-0.6,0.851c-0.434,0.267-0.867,0.399-1.3,0.399c-0.467,0-0.95-0.184-1.45-0.55
	c-0.534-0.4-0.8-0.767-0.8-1.1C259.9,200.95,259.983,200.833,260.15,200.8z"/>
<path fill-rule="evenodd" clip-rule="evenodd" fill="#482400" d="M267.65,198.85c-0.1-0.233-0.15-0.434-0.15-0.6
	c0-0.433,0.217-0.883,0.65-1.35c0.434-0.5,0.95-0.867,1.55-1.1h1.3c0.7,0.367,1.267,0.967,1.7,1.8c0.4,0.767,0.6,1.483,0.6,2.15
	c0,0.667-0.167,1.267-0.5,1.8c-0.5,0.767-1.3,1.15-2.4,1.15C268.567,202.7,267.65,201.417,267.65,198.85z M268.85,200.85
	c0.4,0.7,0.917,1.051,1.55,1.051c0.8,0,1.383-0.317,1.75-0.95c0.233-0.4,0.35-0.8,0.35-1.2c0-0.5-0.167-1.083-0.5-1.75
	s-0.683-1.1-1.05-1.3c-0.467-0.233-0.983-0.184-1.55,0.15c-0.533,0.3-0.8,0.617-0.8,0.95c0,0.467-0.067,1.017-0.2,1.65
	C268.4,199.85,268.55,200.316,268.85,200.85z"/>
<path fill-rule="evenodd" clip-rule="evenodd" fill="#482400" d="M263.45,196.95c0.733,0,1.183,0.883,1.35,2.65
	c0,0.4-0.117,0.966-0.35,1.7c-0.333,0.934-0.733,1.4-1.2,1.4c-0.2,0-0.317-0.066-0.35-0.2l-0.05-0.2c0-0.133,0.2-0.45,0.6-0.95
	c0.367-0.533,0.55-1.1,0.55-1.7c0-0.533-0.183-1.066-0.55-1.6c-0.367-0.433-0.55-0.683-0.55-0.75
	C262.9,197.067,263.083,196.95,263.45,196.95z"/>
<path fill-rule="evenodd" clip-rule="evenodd" fill="#482400" d="M247.7,181.5c-0.233,0-0.383-0.4-0.45-1.2c0-0.8,0-1.216,0-1.25
	c0-1.466,0.15-2.133,0.45-2c0.267,0.133,0.4,0.95,0.4,2.45C248.1,180.833,247.967,181.5,247.7,181.5z"/>
<path fill-rule="evenodd" clip-rule="evenodd" fill="#482400" d="M276.85,165.85c0.167,0.167,0.25,0.3,0.25,0.4
	s-0.75,0.983-2.25,2.65c-1.567,1.667-2.417,3.033-2.55,4.1l-0.35,1.75v0.8c-0.034,0.367-0.083,0.684-0.15,0.95
	c-0.167,0.5-0.5,1.133-1,1.9c-0.5,0.867-0.85,1.3-1.05,1.3c-0.267,0-0.4-0.15-0.4-0.45c0-0.067,0.2-0.517,0.6-1.35
	c0.367-0.867,0.55-1.45,0.55-1.75l-0.2-1.7l0.05-1.1c0-0.3,0.167-0.717,0.5-1.25c0.4-0.7,0.633-1.133,0.7-1.3
	c0.1-0.333,0.417-0.733,0.95-1.2c0.7-0.633,1.117-1.033,1.25-1.2c0.4-0.6,1.1-1.433,2.1-2.5c0.601-0.8,0.934-1.233,1-1.3
	c0.801-0.934,1.2-1.033,1.2-0.3C278.05,164.533,277.65,165.05,276.85,165.85z M271.35,173.2c-0.167,0.367-0.25,0.733-0.25,1.1v0.4
	l0.3-1.5H271.35z"/>
<path fill-rule="evenodd" clip-rule="evenodd" fill="#482400" d="M281.95,172.1c0,0.233-0.55,0.95-1.65,2.15
	c0.233-0.067,0.4,0.05,0.5,0.35c0,0.7-1.133,1.533-3.399,2.5c-0.267,0-0.4-0.15-0.4-0.45c0-0.2,0.417-0.717,1.25-1.55
	c0.4-0.4,0.816-0.8,1.25-1.2c0.167-0.3,0.566-0.75,1.2-1.35c0.233-0.367,0.5-0.617,0.8-0.75S281.95,171.767,281.95,172.1z"/>
<path fill-rule="evenodd" clip-rule="evenodd" fill="#482400" d="M248.55,176.85c-0.167,0-0.283-0.083-0.35-0.25l-0.05-0.25
	c0-0.367,0.25-0.934,0.75-1.7s0.75-0.767,0.75,0C249.083,176.117,248.717,176.85,248.55,176.85z"/>
<path fill-rule="evenodd" clip-rule="evenodd" fill="#A87E00" d="M266.8,193.05c-0.133,0-0.316-0.117-0.55-0.35l-0.05-5.5
	c0-0.667,0.15-1.217,0.45-1.65c0.3-0.466,0.45,0.034,0.45,1.5l0.1,3.5C267.2,192.217,267.067,193.05,266.8,193.05z"/>
<path fill-rule="evenodd" clip-rule="evenodd" fill="#A87E00" d="M267.6,213.65c0.333,2.333,0.5,3.983,0.5,4.949
	c0,0.634-0.133,0.95-0.4,0.95c-0.367,0-0.617-0.416-0.75-1.25c-0.034-0.233-0.1-1.333-0.2-3.3c-0.033-2.866-0.05-4.384-0.05-4.55
	l0.05-3.9c0.5,0,0.783,0.084,0.85,0.25V213.65z"/>
<path fill-rule="evenodd" clip-rule="evenodd" fill="#A87E00" d="M244.25,199.9c-0.767-1.733-1.717-4.45-2.85-8.15
	c-1.3-4.4-1.95-7.517-1.95-9.35c0-1.333,0.2-1.6,0.6-0.8c0.367,0.767,0.55,1.833,0.55,3.2c0.333,1.733,0.667,3.267,1,4.6
	c0.467,1.833,1.55,4.9,3.25,9.2c0.367,0.967,0.983,2.483,1.85,4.55c0.733,1.833,1.2,3.383,1.4,4.649c0.066,0.533,0.4,1.3,1,2.3
	c0.6,1.101,0.967,1.867,1.1,2.301c0.133,0.466,0.533,1.333,1.2,2.6c0.633,1.167,0.95,1.783,0.95,1.85
	c0,0.367-0.184,0.551-0.55,0.551c-0.566,0-1.367-1.167-2.4-3.5c-1.066-2.7-1.783-4.45-2.15-5.25c-0.233-0.5-0.417-1.217-0.55-2.15
	c-0.167-1.1-0.317-1.866-0.45-2.3C245.283,202.167,244.617,200.733,244.25,199.9z"/>
<path fill-rule="evenodd" clip-rule="evenodd" fill="#A87E00" d="M290.7,185.65c-1.634,5.367-2.584,8.667-2.851,9.9
	c-0.333,1.367-0.949,4.983-1.85,10.851c-0.7,4.433-1.217,6.649-1.55,6.649c-0.3,0-0.467-0.1-0.5-0.3c0-0.167,0-0.267,0-0.3
	c0-0.566,0.416-3.2,1.25-7.9c0.767-4.166,1.366-7.35,1.8-9.55c0.1-0.5,0.366-1.233,0.8-2.2c0.5-1.033,0.8-1.767,0.9-2.2
	c0.399-2.067,0.717-3.5,0.95-4.3c0.966-3.9,1.75-6.85,2.35-8.85c0.566-0.233,0.884-0.1,0.95,0.4
	C292.95,178.183,292.2,180.783,290.7,185.65z"/>
<path fill-rule="evenodd" clip-rule="evenodd" fill="#A87E00" d="M260.45,192.9c-0.467-2.7-0.7-4.517-0.7-5.45
	c-0.033-0.534-0.017-1,0.05-1.4c0.133-0.867,0.4-1.033,0.8-0.5c0.066,0.5,0.1,1.3,0.1,2.4c0,0.533,0.216,2.2,0.65,5v0.55
	c-0.033,0.267-0.184,0.4-0.45,0.4c-0.433,0-0.65-0.15-0.65-0.45C260.383,193.25,260.45,193.067,260.45,192.9z"/>
<path fill-rule="evenodd" clip-rule="evenodd" fill="#A87E00" d="M262.95,212.95c0.167,1.033,0.667,2.983,1.5,5.85
	c0,0.4-0.133,0.601-0.4,0.601c-0.733,0-1.833-4.167-3.3-12.5c0-0.467,0.167-0.7,0.5-0.7s0.5,0.267,0.5,0.8
	C261.75,207.333,262.15,209.316,262.95,212.95z"/>
<path fill-rule="evenodd" clip-rule="evenodd" fill="#A87E00" d="M272.6,208.35c-0.167,0.534-0.167,1.317,0,2.351v4.149
	c-0.133,0.334-0.333,1.2-0.6,2.601c-0.233,1.133-0.417,1.7-0.55,1.7c-0.3,0-0.467-0.134-0.5-0.4v-0.4
	c0.5-2.833,0.75-4.683,0.75-5.55l-0.2-3.05c0-0.533,0.067-1.15,0.2-1.85c0.167-0.934,0.267-1.584,0.3-1.95
	c0.433-0.101,0.7-0.066,0.8,0.1c0.034,0.033,0.05,0.2,0.05,0.5C272.85,207.017,272.767,207.616,272.6,208.35z"/>
<path fill-rule="evenodd" clip-rule="evenodd" fill="#A87E00" d="M272.7,194.55c-0.3,0-0.467-0.117-0.5-0.35c0-0.2,0-0.317,0-0.35
	s0.183-0.717,0.55-2.05v-6.3c0.467-1.033,0.767-0.8,0.9,0.7c0.067,0.767,0.083,1.633,0.05,2.6
	C273.9,192.633,273.567,194.55,272.7,194.55z"/>
<path fill-rule="evenodd" clip-rule="evenodd" fill="#A87E00" d="M277.3,196.15c-0.3,0-0.483-0.117-0.55-0.35c0-0.233,0-0.367,0-0.4
	c0-1,0.417-2.667,1.25-5c0.2-0.633,0.333-1.433,0.4-2.4c0.033-1.167,0.066-2.067,0.1-2.7c0.4-0.2,0.667-0.133,0.8,0.2
	c0.033,0.133,0.05,0.433,0.05,0.9C278.717,192.9,278.033,196.15,277.3,196.15z"/>
<path fill-rule="evenodd" clip-rule="evenodd" fill="#A87E00" d="M276.95,207.15c-0.3,0-0.467-0.117-0.5-0.351V206.4
	c0-1,0.166-1.584,0.5-1.75c0.333-0.167,0.5,0.133,0.5,0.899C277.45,206.616,277.283,207.15,276.95,207.15z"/>
<path fill-rule="evenodd" clip-rule="evenodd" fill="#A87E00" d="M275.55,218.3c-0.3,0-0.483-0.2-0.55-0.6c0-0.367,0-0.566,0-0.601
	c0-0.333,0.3-1.699,0.9-4.1l0.35-2.05c0.3-0.7,0.533-1.017,0.7-0.95c0.166,0.066,0.25,0.333,0.25,0.8
	C276.233,215.8,275.684,218.3,275.55,218.3z"/>
<path fill-rule="evenodd" clip-rule="evenodd" fill="#A87E00" d="M284.05,190.1c-0.5,2.633-0.866,4.367-1.1,5.2
	c-0.167,0.6-0.434,2.5-0.8,5.7c-0.301,2.533-0.617,3.8-0.95,3.8c-0.3,0-0.467-0.066-0.5-0.2c0-0.133,0-0.216,0-0.25
	c0-2.199,0.55-5.616,1.649-10.25c1.067-4.6,1.601-7.367,1.601-8.3c0-0.066-0.033-0.15-0.101-0.25c-0.1-0.1-0.149-0.2-0.149-0.3
	c0-0.467,0.2-0.633,0.6-0.5c0.367,0.133,0.55,0.4,0.55,0.8C284.85,185.917,284.583,187.433,284.05,190.1z"/>
<path fill-rule="evenodd" clip-rule="evenodd" fill="#A87E00" d="M280.2,215c-0.267,1.267-0.434,1.9-0.5,1.9
	c-0.3,0-0.467-0.184-0.5-0.551c0-0.366,0-0.566,0-0.6c0.6-3.167,0.916-4.8,0.95-4.9l0.3-2.449c0.133-0.934,0.333-1.417,0.6-1.45
	s0.4,0.233,0.4,0.8c0,0.4-0.25,1.967-0.75,4.7C280.634,212.75,280.467,213.6,280.2,215z"/>
<path fill-rule="evenodd" clip-rule="evenodd" fill="#A87E00" d="M255.3,197.05c-0.233,0-0.583-0.667-1.05-2
	c-0.433-1.3-0.7-2.4-0.8-3.3c-0.967-2.933-1.45-4.683-1.45-5.25c0-0.967,0.3-0.85,0.9,0.35c0.633,1.167,1.067,2.517,1.3,4.05
	c0.066,0.3,0.383,1.233,0.95,2.8c0.467,1.3,0.7,2.25,0.7,2.85C255.85,196.883,255.667,197.05,255.3,197.05z"/>
<path fill-rule="evenodd" clip-rule="evenodd" fill="#A87E00" d="M258,209.8c-0.267,0-0.7-1.2-1.3-3.6c0-1.3,0.3-1.3,0.9,0
	c0.566,1.3,0.85,2.316,0.85,3.05C258.45,209.616,258.3,209.8,258,209.8z"/>
<path fill-rule="evenodd" clip-rule="evenodd" fill="#A87E00" d="M259.95,218.65c-0.633,0-1.117-0.983-1.45-2.95
	c-0.2-1.967-0.3-2.967-0.3-3l0.05-0.5c0.633,0.133,0.983,0.517,1.05,1.149c0.067,0.367,0.117,0.884,0.15,1.551
	c-0.034,0.333,0.1,0.866,0.4,1.6c0.333,0.767,0.5,1.283,0.5,1.55C260.35,218.45,260.217,218.65,259.95,218.65z"/>
<path fill-rule="evenodd" clip-rule="evenodd" fill="#A87E00" d="M253.15,213.9c-0.933-2.367-1.4-3.667-1.4-3.9
	c0-0.667,0.25-0.783,0.75-0.35c0.333,0.3,0.617,0.666,0.85,1.1l0.55,2.15c0.067,0.466,0.417,1.283,1.05,2.449
	c0.6,1.134,0.9,1.784,0.9,1.95c0,0.4-0.133,0.601-0.4,0.601c-0.333,0-0.784-0.551-1.35-1.65
	C253.7,215.45,253.383,214.667,253.15,213.9z"/>
<path fill-rule="evenodd" clip-rule="evenodd" fill="#A87E00" d="M245,187.55c-0.333-1.533-0.5-2.417-0.5-2.65
	c0-0.433,0.133-0.583,0.4-0.45s0.533,0.45,0.8,0.95l0.4,1.55c0.2,1.633,0.4,2.7,0.6,3.2c0.267,0.6,0.483,1.667,0.65,3.2
	c0.1,1.433,0.35,2.5,0.75,3.2c0.467,0.833,0.867,1.883,1.2,3.15c0.167,0.7,0.434,1.767,0.8,3.2c0.033,0.133,0.483,1.133,1.35,3
	c0.667,1.533,1,2.633,1,3.3c0,0.399-0.15,0.6-0.45,0.6c-0.133,0-0.567-0.8-1.3-2.399c-0.767-1.667-1.25-2.95-1.45-3.851
	c-0.3-1.399-0.533-2.434-0.7-3.1c-0.267-1.2-0.633-2.217-1.1-3.05c-0.434-0.733-0.717-1.8-0.85-3.2c-0.167-1.5-0.367-2.534-0.6-3.1
	C245.733,190.433,245.4,189.25,245,187.55z"/>
<path fill-rule="evenodd" clip-rule="evenodd" fill="#A87E00" d="M244.95,185.4c-0.467,0-0.7-0.15-0.7-0.45
	c0-0.267,0.2-0.434,0.6-0.5c0.4-0.067,0.6,0.083,0.6,0.45C245.45,185.233,245.283,185.4,244.95,185.4z"/>
<path fill-rule="evenodd" clip-rule="evenodd" fill="#A87E00" d="M250.5,184.4c-1.067,1.167-1.65,1.75-1.75,1.75
	c-0.3,0-0.883-0.383-1.75-1.15c-0.9-0.867-1.433-1.367-1.6-1.5c0,0.067,0.033,0.383,0.1,0.95c0,0.566-0.183,0.85-0.55,0.85
	c-0.5,0-0.65-0.267-0.45-0.8l-0.25-1.55c-0.033-0.267-0.033-0.467,0-0.6c0.033-0.267,0.233-0.4,0.6-0.4s1.066,0.466,2.1,1.4
	c0.533,0.5,1.133,1.083,1.8,1.75c2.233-3,3.35-3.9,3.35-2.7C252.1,182.533,251.567,183.2,250.5,184.4z"/>
<path fill-rule="evenodd" clip-rule="evenodd" fill="#A87E00" d="M252.3,187.4c-0.333,0-0.617-1.433-0.85-4.3
	c0-0.633,0.133-1.067,0.4-1.3c0.233-0.233,0.4,0.25,0.5,1.45c0,0.8,0.066,1.367,0.2,1.7c0.1,0.333,0.15,0.733,0.15,1.2
	C252.7,186.983,252.567,187.4,252.3,187.4z"/>
<path fill-rule="evenodd" clip-rule="evenodd" fill="#A87E00" d="M258.9,182.55c1.133-1.233,1.7-1.3,1.7-0.2
	c0,0.233-0.05,1.367-0.15,3.4v0.45c-0.034,0.233-0.184,0.35-0.45,0.35c-0.667,0-0.833-1.017-0.5-3.05v-0.1
	c-1.633,1.767-2.567,2.65-2.8,2.65c-0.4,0-1.983-1.267-4.75-3.8c0-0.367,0.167-0.55,0.5-0.55c0.267,0,0.983,0.517,2.15,1.55
	c1.167,1.033,1.867,1.55,2.1,1.55C256.767,184.8,257.5,184.05,258.9,182.55z"/>
<path fill-rule="evenodd" clip-rule="evenodd" fill="#A87E00" d="M267.35,182.7l-0.25,1.85c0,0.1,0.017,0.417,0.05,0.95
	c0,0.533-0.167,0.8-0.5,0.8c-0.566,0-0.7-0.867-0.4-2.6v-0.05c-1.267,1.5-2.133,2.25-2.6,2.25c-0.533,0-1.767-1.3-3.7-3.9
	c0-0.7,0.6-0.45,1.8,0.75c0.6,0.6,1.217,1.267,1.85,2c0.267,0,0.833-0.467,1.7-1.4c0.833-0.967,1.317-1.45,1.45-1.45
	C267.283,181.9,267.483,182.167,267.35,182.7z"/>
<path fill-rule="evenodd" clip-rule="evenodd" fill="#A87E00" d="M273.55,185.8c-0.433,0-0.65-0.367-0.65-1.1
	c0.067-0.833,0.083-1.35,0.05-1.55v-0.1c-0.6,0.7-1.133,1.3-1.6,1.8c-0.9,0.967-1.517,1.45-1.85,1.45c-0.6,0-1.233-0.617-1.9-1.85
	c-0.567-1.233-0.85-1.867-0.85-1.9c0-0.4,0.167-0.6,0.5-0.6c0.1,0,0.8,1.033,2.1,3.1c2-2.133,3.316-3.167,3.95-3.1
	c0.434,0.033,0.65,0.783,0.65,2.25C274.017,185.267,273.883,185.8,273.55,185.8z"/>
<path fill-rule="evenodd" clip-rule="evenodd" fill="#A87E00" d="M279.7,182.5c0,2.367-0.217,3.55-0.65,3.55
	c-0.3,0-0.483-0.117-0.55-0.35v-0.4l0.2-1.45l-0.05-0.75c-1.301,1.8-2.184,2.7-2.65,2.7c-0.434,0-0.983-0.483-1.65-1.45
	c-0.6-0.867-0.9-1.4-0.9-1.6v-0.3c0.033-0.167,0.183-0.25,0.45-0.25c0.167,0,0.867,0.8,2.1,2.4c0.134-0.1,0.8-0.9,2-2.4
	C279.134,181.033,279.7,181.133,279.7,182.5z"/>
<path fill-rule="evenodd" clip-rule="evenodd" fill="#A87E00" d="M284,183.3v-0.05c-0.934,1.267-1.55,1.9-1.85,1.9
	c-0.534,0-1.25-0.533-2.15-1.6c-0.833-0.966-1.25-1.566-1.25-1.8c0-0.367,0.167-0.55,0.5-0.55c0.3,0,0.767,0.483,1.4,1.45
	c0.633,0.967,1.083,1.45,1.35,1.45c0.3,0,0.616-0.367,0.95-1.1c0.2-0.367,0.399-0.8,0.6-1.3c0.367-0.667,0.7-1.184,1-1.55
	c0.533-0.633,0.8-0.566,0.8,0.2c-0.333,3.633-0.649,5.45-0.949,5.45c-0.334,0-0.5-0.333-0.5-1
	C283.967,184.033,284,183.533,284,183.3z"/>
<path fill-rule="evenodd" clip-rule="evenodd" fill="#A87E00" d="M292.7,178.65c0,0.333-0.134,0.5-0.4,0.5
	c-0.366,0-0.566-0.133-0.6-0.4c0-0.267-0.017-0.433-0.05-0.5l-0.101-0.05c-0.434,0.667-1.184,1.783-2.25,3.35
	c-1.033,1.5-1.566,2.25-1.6,2.25c-0.566,0-1.267-0.466-2.101-1.4c-0.767-0.867-1.149-1.417-1.149-1.65l0.05-0.55l0.3-0.05
	c0.2,0,1.066,0.767,2.601,2.3c0.1-0.133,1.017-1.6,2.75-4.4C291.85,175.85,292.7,176.05,292.7,178.65z"/>
<path fill-rule="evenodd" clip-rule="evenodd" fill="#A87E00" d="M243.35,182.9c0.433-0.633,0.9-0.95,1.4-0.95
	c0.533,0,0.767,0.167,0.7,0.5c-1.934,2.066-2.934,3.1-3,3.1c-0.267,0-0.633-0.5-1.1-1.5c-0.467-1.1-0.783-1.767-0.95-2
	c-0.066,0.167-0.2,0.25-0.4,0.25c-0.5,0-0.683-0.367-0.55-1.1c0-0.6,0.1-0.934,0.3-1c0.267-0.067,0.75,0.367,1.45,1.3
	c0.4,0.467,0.867,1.333,1.4,2.6C242.867,183.6,243.117,183.2,243.35,182.9z"/>
<path fill-rule="evenodd" clip-rule="evenodd" fill="#A87E00" d="M269.8,218.15c2.3-0.334,4.233-0.75,5.8-1.25
	c0.634-0.233,1.867-0.75,3.7-1.551c0.334-0.133,0.917-0.383,1.75-0.75c0.767-0.366,1.3-0.683,1.601-0.949l1.199-1.351
	c0.601-0.533,0.9-0.333,0.9,0.601c0,1.199-1.884,2.583-5.65,4.149c-3.5,1.434-6.466,2.233-8.899,2.4h-3.55
	c-1.733-0.134-2.917-0.25-3.55-0.351l-2.6-0.05c-2.6-0.333-4.533-0.583-5.8-0.75c-2.233-0.366-3.35-0.833-3.35-1.399
	c0-0.467,0.25-0.7,0.75-0.7c0.333,0,3.2,0.533,8.6,1.6h2.7c0.167,0.066,0.617,0.134,1.35,0.2c0.933,0.066,1.633,0.134,2.1,0.2
	L269.8,218.15z"/>
<path fill-rule="evenodd" clip-rule="evenodd" fill="#4F0075" d="M246.2,184.35l-0.2,0.05c-0.2,0-0.467-0.267-0.8-0.8
	c0-0.367,0.183-0.4,0.55-0.1c0.333,0.267,0.5,0.467,0.5,0.6L246.2,184.35z"/>
<path fill-rule="evenodd" clip-rule="evenodd" fill="#4F0075" d="M245.95,184.45l0.1,0.35c0,0.233-0.066,0.35-0.2,0.35
	s-0.25-0.15-0.35-0.45l-0.1-0.5c0-0.3,0.133-0.434,0.4-0.4c0.267,0.067,0.4,0.184,0.4,0.35
	C246.2,184.217,246.117,184.317,245.95,184.45z"/>
<path fill-rule="evenodd" clip-rule="evenodd" fill="#4F0075" d="M251.6,184.9c-0.267,0-0.55-0.15-0.85-0.45
	c-0.033,0.267-0.15,0.4-0.35,0.4c-0.066,0-0.133-0.05-0.2-0.15l-0.05-0.15c0.3-0.533,0.6-0.95,0.9-1.25
	c0.567-0.566,0.85-0.15,0.85,1.25C251.9,184.783,251.8,184.9,251.6,184.9z"/>
<path fill-rule="evenodd" clip-rule="evenodd" fill="#4F0075" d="M252.75,185.05c-0.2,0-0.4-0.65-0.6-1.95
	c0-0.367,0.083-0.483,0.25-0.35c0.133,0.1,0.217,0.283,0.25,0.55c0,0.167,0.05,0.4,0.15,0.7c0.133,0.3,0.2,0.517,0.2,0.65
	C253,184.917,252.917,185.05,252.75,185.05z"/>
<path fill-rule="evenodd" clip-rule="evenodd" fill="#4F0075" d="M254.1,185c-0.233,0-0.4-0.05-0.5-0.15
	c-0.667,0.233-0.95-0.167-0.85-1.2c-0.433-0.4-0.65-0.667-0.65-0.8c0-0.434,0.417-0.25,1.25,0.55c0.8,0.767,1.2,1.217,1.2,1.35
	C254.55,184.917,254.4,185,254.1,185z"/>
<path fill-rule="evenodd" clip-rule="evenodd" fill="#4F0075" d="M259,184.95l-0.05-0.2c0-0.081,0.017-0.148,0.05-0.2
	c-0.336,0.333-0.52,0.5-0.55,0.5c-0.067,0-0.133-0.05-0.2-0.15l-0.05-0.15c0.267-0.433,0.517-0.8,0.75-1.1
	c0.5-0.6,0.75-0.566,0.75,0.1c0,0.833-0.167,1.25-0.5,1.25L259,184.95z"/>
<path fill-rule="evenodd" clip-rule="evenodd" fill="#4F0075" d="M261,183.7c0.033,0.233,0.033,0.583,0,1.05
	c0,0.067-0.033,0.133-0.1,0.2c-0.066,0.066-0.133,0.1-0.2,0.1c-0.133,0-0.217-0.25-0.25-0.75c-0.034-0.267-0.05-0.55-0.05-0.85
	c0-0.333,0.083-0.55,0.25-0.65C260.85,182.967,260.967,183.267,261,183.7z"/>
<path fill-rule="evenodd" clip-rule="evenodd" fill="#4F0075" d="M261.95,185c-0.1-0.167-0.233-0.25-0.4-0.25
	c-0.033,0.067-0.083,0.1-0.15,0.1c-0.267,0-0.6-0.567-1-1.7c0-0.566,0.3-0.483,0.9,0.25c0.3,0.367,0.6,0.783,0.9,1.25
	C262.2,184.883,262.117,185,261.95,185z"/>
<path fill-rule="evenodd" clip-rule="evenodd" fill="#4F0075" d="M266.7,183.8l-0.6,1.1l-0.3-0.05c-0.167,0-0.267-0.033-0.3-0.1
	v-0.15c0-0.033,0.317-0.4,0.95-1.1C266.483,183.567,266.567,183.667,266.7,183.8z"/>
<path fill-rule="evenodd" clip-rule="evenodd" fill="#4F0075" d="M267.75,185.15c-0.233,0-0.433-0.2-0.6-0.6l-0.15-0.6
	c0-0.6,0.167-0.633,0.5-0.1c0.167,0.267,0.333,0.583,0.5,0.95C268,185.033,267.917,185.15,267.75,185.15z"/>
<path fill-rule="evenodd" clip-rule="evenodd" fill="#4F0075" d="M272.4,184.75l-0.45-0.15c-0.133,0-0.217-0.033-0.25-0.1
	l-0.05-0.15c0-0.133,0.267-0.45,0.8-0.95c0.5-0.533,0.75-0.517,0.75,0.05C273.267,184.317,273,184.75,272.4,184.75z"/>
<path fill-rule="evenodd" clip-rule="evenodd" fill="#4F0075" d="M274.5,185.5c-0.167,0.4-0.283,0.6-0.35,0.6
	c-0.133,0-0.233-0.383-0.3-1.15l-0.1-1.1c0-0.5,0.167-0.5,0.5,0c0.3,0.467,0.45,0.767,0.45,0.9
	C274.7,184.85,274.633,185.1,274.5,185.5z"/>
<path fill-rule="evenodd" clip-rule="evenodd" fill="#4F0075" d="M278.3,184.65c-0.1,0-0.233-0.083-0.399-0.25
	c-0.167-0.167-0.25-0.283-0.25-0.35c0-0.3,0.216-0.617,0.649-0.95c0.434-0.333,0.65-0.033,0.65,0.9
	C278.816,184.433,278.6,184.65,278.3,184.65z"/>
<path fill-rule="evenodd" clip-rule="evenodd" fill="#4F0075" d="M280,183.9l0.1,0.5c0,0.267-0.083,0.4-0.25,0.4
	c-0.199,0-0.316-0.133-0.35-0.4c0-0.267,0-0.417,0-0.45c0-0.3,0.1-0.55,0.3-0.75c0.2-0.233,0.3-0.167,0.3,0.2L280,183.9z"/>
<path fill-rule="evenodd" clip-rule="evenodd" fill="#4F0075" d="M279.85,184l-0.25-0.45c0-0.367,0.217-0.367,0.65,0
	c0.4,0.4,0.6,0.65,0.6,0.75l-0.25,0.25C280.333,184.55,280.083,184.367,279.85,184z"/>
<path fill-rule="evenodd" clip-rule="evenodd" fill="#4F0075" d="M284.6,182.3c-0.166,2.733-0.5,4.1-1,4.1
	c-0.133,0-0.199-0.05-0.199-0.15v-0.15c0-0.167,0.1-0.483,0.3-0.95c0.166-0.467,0.25-0.8,0.25-1l-0.05-0.25
	c-0.101,0.1-0.167,0.15-0.2,0.15c-0.134,0-0.217-0.05-0.25-0.15v-0.2c0-0.167,0.2-0.617,0.6-1.35
	C284.417,181.65,284.6,181.633,284.6,182.3z"/>
<path fill-rule="evenodd" clip-rule="evenodd" fill="#4F0075" d="M283.9,185.75c-0.101,0.267-0.2,0.4-0.301,0.4
	c-0.133,0-0.199-0.05-0.199-0.15v-0.15c0-0.367,0.116-0.667,0.35-0.9c0.2-0.2,0.3-0.1,0.3,0.3
	C284.05,185.317,284,185.483,283.9,185.75z"/>
<path fill-rule="evenodd" clip-rule="evenodd" fill="#4F0075" d="M283.6,185.75c-0.133,0-0.199-0.05-0.199-0.15v-0.15
	c0-0.267,0.116-0.567,0.35-0.9c0.233-0.333,0.35-0.3,0.35,0.1C283.934,185.383,283.767,185.75,283.6,185.75z"/>
<path fill-rule="evenodd" clip-rule="evenodd" fill="#4F0075" d="M285.15,183.25c-0.134,0-0.2-0.117-0.2-0.35v-0.35
	c0-0.433,0.083-0.683,0.25-0.75c0.166-0.066,0.25,0.117,0.25,0.55C285.417,182.95,285.316,183.25,285.15,183.25z"/>
<path fill-rule="evenodd" clip-rule="evenodd" fill="#4F0075" d="M286.05,183.25c-0.066,0.067-0.116,0.1-0.149,0.1
	c-0.134,0-0.334-0.167-0.601-0.5c-0.233-0.3-0.35-0.483-0.35-0.55c0-0.367,0.2-0.367,0.6,0c0.4,0.4,0.601,0.65,0.601,0.75
	C286.15,183.083,286.116,183.15,286.05,183.25z"/>
<path fill-rule="evenodd" clip-rule="evenodd" fill="#4F0075" d="M285.8,183.25c-0.133,0-0.3-0.167-0.5-0.5l-0.25-0.5
	c0-0.4,0.167-0.417,0.5-0.05c0.334,0.333,0.5,0.583,0.5,0.75C286.05,183.15,285.967,183.25,285.8,183.25z"/>
<path fill-rule="evenodd" clip-rule="evenodd" fill="#4F0075" d="M289.15,183c-0.134,0-0.2-0.05-0.2-0.15v-0.15
	c0-0.2,0.116-0.417,0.35-0.65c-0.2,0.067-0.316,0.05-0.35-0.05v-0.2l0.7-1.1c0.466-0.633,0.699-0.684,0.699-0.15
	C289.783,182.183,289.384,183,289.15,183z"/>
<path fill-rule="evenodd" clip-rule="evenodd" fill="#482400" d="M243,182.4c0.1-0.133,0.2-0.2,0.3-0.2
	c0.167,0,0.267,0.083,0.3,0.25c-0.633,1.133-1.033,1.7-1.2,1.7c-0.167,0-0.483-0.683-0.95-2.05c0-0.267,0.083-0.35,0.25-0.25
	l0.4,0.25c0.1,0,0.183-0.033,0.25-0.1c0.133,0,0.283,0.2,0.45,0.6C242.8,182.567,242.867,182.5,243,182.4z"/>
<path fill-rule="evenodd" clip-rule="evenodd" fill="#482400" d="M249.15,184l0.1-0.05c0.167,0,0.267,0.083,0.3,0.25
	c0,0.133-0.1,0.316-0.3,0.55s-0.367,0.35-0.5,0.35c-0.067,0-0.45-0.333-1.15-1c0-0.267,0.083-0.35,0.25-0.25
	c0.3,0.167,0.467,0.25,0.5,0.25C248.45,184.1,248.717,184.067,249.15,184z"/>
<path fill-rule="evenodd" clip-rule="evenodd" fill="#482400" d="M256.95,184c0.133,0,0.216,0.1,0.25,0.3
	c-0.233,0.367-0.417,0.55-0.55,0.55c-0.233,0-0.417-0.117-0.55-0.35l-0.15-0.3c0-0.2,0.083-0.25,0.25-0.15
	c0.1,0.034,0.233,0.1,0.4,0.2C256.767,184.083,256.883,184,256.95,184z"/>
<path fill-rule="evenodd" clip-rule="evenodd" fill="#482400" d="M264.25,183.9c0.167,0,0.25,0.1,0.25,0.3
	c-0.367,0.433-0.65,0.65-0.85,0.65c-0.2,0-0.367-0.117-0.5-0.35c-0.1-0.167-0.15-0.3-0.15-0.4c0-0.2,0.1-0.267,0.3-0.2
	c0.2,0.067,0.333,0.2,0.4,0.4C263.767,184.267,263.95,184.133,264.25,183.9z"/>
<path fill-rule="evenodd" clip-rule="evenodd" fill="#482400" d="M269.85,184c0.2,0,0.316,0.083,0.35,0.25l-0.75,0.75
	c-0.133,0-0.333-0.167-0.6-0.5c-0.233-0.3-0.35-0.483-0.35-0.55c0-0.233,0.133-0.284,0.4-0.15c0.133,0.067,0.3,0.167,0.5,0.3
	L269.85,184z"/>
<path fill-rule="evenodd" clip-rule="evenodd" fill="#482400" d="M276.55,183.65c0.167,0,0.267,0.083,0.3,0.25
	c0,0.1-0.283,0.383-0.85,0.85c-0.134,0-0.3-0.133-0.5-0.4s-0.3-0.434-0.3-0.5c0-0.2,0.083-0.267,0.25-0.2
	c0.1,0,0.217,0.033,0.35,0.1L276.55,183.65z"/>
<path fill-rule="evenodd" clip-rule="evenodd" fill="#482400" d="M282.45,183.35c0.166,0,0.267,0.033,0.3,0.1
	c0,0.033,0.017,0.1,0.05,0.2c-0.533,0.434-0.866,0.65-1,0.65c-0.133,0-0.3-0.117-0.5-0.35l-0.25-0.35c0-0.167,0.084-0.233,0.25-0.2
	c0.066,0.033,0.167,0.067,0.3,0.1c0.101,0,0.317-0.033,0.65-0.1L282.45,183.35z"/>
<path fill-rule="evenodd" clip-rule="evenodd" fill="#482400" d="M286.95,181.65l0.2-0.05c0.066,0,0.166,0.066,0.3,0.2
	c0.133-0.1,0.267-0.167,0.399-0.2c0.167-0.033,0.25,0.033,0.25,0.2c0,0.067-0.083,0.2-0.25,0.4c-0.199,0.2-0.35,0.3-0.449,0.3
	c-0.101,0-0.2-0.067-0.301-0.2c-0.066-0.133-0.116-0.216-0.149-0.25V181.65z"/>
<path fill-rule="evenodd" clip-rule="evenodd" fill="#A87E00" d="M245.55,185.9c-0.6,0-1.017-0.883-1.25-2.65
	c0-0.467,0.133-0.617,0.4-0.45c0.267,0.133,0.483,0.417,0.65,0.85c0.133,0.467,0.367,1.05,0.7,1.75
	C246.05,185.733,245.883,185.9,245.55,185.9z"/>
<path fill-rule="evenodd" clip-rule="evenodd" fill="#A87E00" d="M252.4,185.65c-0.4,0-0.7-0.333-0.9-1
	c-0.167-0.733-0.317-1.217-0.45-1.45c-0.167,0.167-0.483,0.65-0.95,1.45c-0.533,0.767-1.1,1.15-1.7,1.15
	c-0.367,0-1.633-1.033-3.8-3.1c0-0.333,0.2-0.5,0.6-0.5c0.4,0,1.05,0.383,1.95,1.15c0.434,0.4,0.917,0.85,1.45,1.35
	c0.467-0.7,0.85-1.25,1.15-1.65c0.533-0.667,1.133-1.083,1.8-1.25c0.333,0.133,0.633,0.617,0.9,1.45
	c0.233,0.733,0.35,1.367,0.35,1.9C252.8,185.483,252.667,185.65,252.4,185.65z"/>
<path fill-rule="evenodd" clip-rule="evenodd" fill="#A87E00" d="M260,181.95l0.55,3.9c0,0.533-0.133,0.8-0.4,0.8
	c-0.367,0-0.617-0.4-0.75-1.2c-0.066-0.934-0.117-1.55-0.15-1.85c-1,1.3-1.7,1.95-2.1,1.95c-0.233,0-0.4-0.083-0.5-0.25l-0.05-0.2
	c0-0.133,0.25-0.483,0.75-1.05c0.467-0.533,0.75-0.833,0.85-0.9c0.367-0.566,0.617-0.95,0.75-1.15
	C259.25,181.667,259.6,181.65,260,181.95z"/>
<path fill-rule="evenodd" clip-rule="evenodd" fill="#A87E00" d="M266.65,181.95c0.467,0,0.65,0.233,0.55,0.7
	c-0.167,2.833-0.35,4.25-0.55,4.25c-0.433,0-0.65-0.383-0.65-1.15c0.067-0.9,0.1-1.467,0.1-1.7c-0.033,0-0.367,0.284-1,0.85
	c-0.467,0.434-0.983,0.65-1.55,0.65c-0.367,0-1.1-0.517-2.2-1.55c-1.033-1-1.55-1.55-1.55-1.65c0-0.567,0.6-0.367,1.8,0.6
	c0.6,0.466,1.217,1,1.85,1.6c0.4,0,1.1-0.5,2.1-1.5c0.2-0.133,0.367-0.383,0.5-0.75C266.15,182.067,266.35,181.95,266.65,181.95z"/>
<path fill-rule="evenodd" clip-rule="evenodd" fill="#A87E00" d="M273.4,186.4c-0.367,0-0.55-0.167-0.55-0.5l0.25-1.6v-0.85
	c-2,1.8-3.3,2.7-3.9,2.7c-0.467,0-1-0.55-1.6-1.65c-0.533-1.067-0.8-1.617-0.8-1.65c0-0.3,0.15-0.45,0.45-0.45
	c0.2,0,0.55,0.434,1.05,1.3c0.5,0.833,0.817,1.25,0.95,1.25c0.267,0,1.25-0.717,2.95-2.15c1.333-1.133,2-1.2,2-0.2
	C274.1,185.133,273.833,186.4,273.4,186.4z"/>
<path fill-rule="evenodd" clip-rule="evenodd" fill="#A87E00" d="M279.55,183.5c0.101,1.867-0.083,2.8-0.55,2.8
	c-0.333,0-0.5-0.233-0.5-0.7c-0.033-0.333,0-0.583,0.1-0.75v-2.15l-1.05,1.7c-0.566,0.934-1.066,1.4-1.5,1.4
	c-0.5,0-1.066-0.483-1.7-1.45c-0.533-0.967-0.8-1.467-0.8-1.5l0.05-0.4l0.35-0.05c0.3,0,0.7,0.35,1.2,1.05
	c0.233,0.367,0.5,0.783,0.8,1.25c1.767-2.3,2.833-3.467,3.2-3.5C279.417,181.167,279.55,181.933,279.55,183.5z"/>
<path fill-rule="evenodd" clip-rule="evenodd" fill="#A87E00" d="M285.05,183.05c0.066,2.833-0.2,4.25-0.8,4.25
	c-0.267,0-0.417-0.083-0.45-0.25c0-0.167,0-0.267,0-0.3c0-0.433,0.101-1.05,0.3-1.85v-1.5c-0.399,0.367-0.75,0.684-1.05,0.95
	c-0.566,0.467-0.967,0.7-1.2,0.7c-0.366,0-0.983-0.55-1.85-1.65c-0.8-1-1.2-1.566-1.2-1.7c0-0.333,0.167-0.5,0.5-0.5
	c0.601,0,1.434,0.933,2.5,2.8c0.634-0.3,1.134-0.75,1.5-1.35c0.2-0.333,0.467-0.85,0.8-1.55c0.467-0.833,0.767-0.75,0.9,0.25
	C285.066,181.817,285.083,182.383,285.05,183.05z"/>
<path fill-rule="evenodd" clip-rule="evenodd" fill="#A87E00" d="M292.7,178.35c0,0.2-0.084,0.533-0.25,1
	c-0.2,0.533-0.417,0.8-0.65,0.8c-0.333,0-0.5-0.15-0.5-0.45c0-0.133,0.066-0.317,0.2-0.55c0.134-0.267,0.233-0.517,0.3-0.75v-0.1
	c-0.467,0.467-1.35,1.65-2.649,3.55c-1.101,1.633-1.733,2.45-1.9,2.45c-0.467,0-1.05-0.517-1.75-1.55
	c-0.634-0.9-0.95-1.467-0.95-1.7c0-0.4,0.15-0.6,0.45-0.6c0.167,0,0.467,0.35,0.9,1.05c0.533,0.8,0.916,1.283,1.149,1.45
	c0.767-0.7,2-2.434,3.7-5.2C292.05,175.883,292.7,176.083,292.7,178.35z"/>
</svg>
