<?xml version="1.0" encoding="utf-8"?>
<!-- Generator: Adobe Illustrator 16.0.0, SVG Export Plug-In . SVG Version: 6.00 Build 0)  -->
<!DOCTYPE svg PUBLIC "-//W3C//DTD SVG 1.1//EN" "http://www.w3.org/Graphics/SVG/1.1/DTD/svg11.dtd">
<svg version="1.1" id="Selected_Items" xmlns="http://www.w3.org/2000/svg" xmlns:xlink="http://www.w3.org/1999/xlink" x="0px"
	 y="0px" width="550px" height="400px" viewBox="0 0 550 400" enable-background="new 0 0 550 400" xml:space="preserve">
<path fill-rule="evenodd" clip-rule="evenodd" fill="#0066CC" fill-opacity="0.9882" d="M83.75,75.25c0-0.2,0.017-0.317,0.05-0.35
	c0.133-0.167,0.434-0.2,0.9-0.1l4.65,0.05c0.3,0.066,0.45,0.233,0.45,0.5c0,0.167-0.15,0.316-0.45,0.45H84.2
	C83.9,75.733,83.75,75.55,83.75,75.25z"/>
<path fill-rule="evenodd" clip-rule="evenodd" fill="#0066CC" fill-opacity="0.9882" d="M85.3,80.8
	c-0.016-0.016-0.033-0.033-0.05-0.05h-0.625c-0.25-0.147-0.375-0.28-0.375-0.4c0-0.233,0.15-0.4,0.45-0.5h7.15
	c0.3,0.066,0.45,0.233,0.45,0.5c0,0.167-0.15,0.316-0.45,0.45H85.3z"/>
<path fill-rule="evenodd" clip-rule="evenodd" fill="#0066CC" fill-opacity="0.9882" d="M85.3,80.8
	c-0.019-0.019-0.036-0.036-0.05-0.05h-0.275c-0.08-0.041-0.138-0.108-0.175-0.2c-0.033-0.066-0.05-0.167-0.05-0.3
	c0.8-1.267,1.6-2.417,2.4-3.45c1.6-2.066,2.4-2.55,2.4-1.45c0,0.167-0.667,1.117-2,2.85C86.294,79.833,85.544,80.699,85.3,80.8z"/>
<path fill-rule="evenodd" clip-rule="evenodd" fill="#0066CC" fill-opacity="0.9882" d="M85.5,78.75l2.4-2.8
	c0.2-0.3,0.467-0.534,0.8-0.7c0.433-0.233,0.65-0.117,0.65,0.35c-2.467,3.333-3.967,5-4.5,5c-0.333,0-0.5-0.15-0.5-0.45
	C84.35,79.883,84.733,79.417,85.5,78.75z"/>
<path fill-rule="evenodd" clip-rule="evenodd" fill="#0066CC" fill-opacity="0.9882" d="M85.4,79.8c0-0.1,0.317-0.55,0.95-1.35
	c0.6-0.7,1.017-1.167,1.25-1.4l0.95-1.4c0.1-0.2,0.317-0.4,0.65-0.6c0.4-0.267,0.6-0.15,0.6,0.35c-2.066,3.267-3.367,4.9-3.9,4.9
	c-0.167,0-0.3-0.083-0.4-0.25L85.4,79.8z"/>
<path fill-rule="evenodd" clip-rule="evenodd" fill="#0066CC" fill-opacity="0.9882" d="M83.75,75.6c0-0.2,0.167-0.367,0.5-0.5h3.4
	c0.6-0.2,0.9-0.067,0.9,0.4c0,0.1-0.183,0.283-0.55,0.55h-3.85C83.883,75.883,83.75,75.733,83.75,75.6z"/>
<path fill-rule="evenodd" clip-rule="evenodd" fill="#0066CC" fill-opacity="0.9882" d="M86.3,80.1c-0.433,0-0.65-0.15-0.65-0.45
	c0-0.133,0.25-0.316,0.75-0.55h5.15c0.069,0,0.136,0,0.2,0h0.025c0.283,0.005,0.425,0.172,0.425,0.5c0,0.066-0.117,0.217-0.35,0.45
	H86.6L86.3,80.1z"/>
<path fill-rule="evenodd" clip-rule="evenodd" fill="#0066CC" fill-opacity="0.9882" d="M91.55,79.1c0.224,0,0.423,0,0.6,0
	c0.146,0.122,0.196,0.389,0.15,0.8c0,0.333,0,0.517,0,0.55c-0.066,0.233-0.233,0.35-0.5,0.35c-0.133,0-0.283-0.183-0.45-0.55
	L91.1,79.7c0-0.167,0.083-0.317,0.25-0.45C91.413,79.188,91.479,79.138,91.55,79.1z"/>
<path fill-rule="evenodd" clip-rule="evenodd" fill="#0066CC" fill-opacity="0.9882" d="M89.8,74.75c0.267,0,0.4,0.183,0.4,0.55
	c-2.233,2.9-3.434,4.35-3.6,4.35c-0.3,0-0.45-0.167-0.45-0.5c0-0.2,0.533-0.967,1.6-2.3C88.85,75.45,89.533,74.75,89.8,74.75z"/>
<path fill-rule="evenodd" clip-rule="evenodd" fill="#0066CC" fill-opacity="0.9882" d="M84.5,75.2c0-0.467,0.267-0.617,0.8-0.45
	h3.1c1.1-0.233,1.65-0.117,1.65,0.35c0,0.4-0.466,0.6-1.4,0.6h-3.6C84.683,75.5,84.5,75.333,84.5,75.2z"/>
<path fill-rule="evenodd" clip-rule="evenodd" fill="#0066CC" fill-opacity="0.9882" d="M97.75,73.95L91.8,74l-0.25,0.05
	c-0.267,0-0.45-0.083-0.55-0.25c-0.067-0.1-0.1-0.2-0.1-0.3v-0.25c0.067-0.067,0.217-0.15,0.45-0.25h6.4c0.3,0,0.45,0.167,0.45,0.5
	c0,0.067-0.034,0.15-0.1,0.25C98,73.883,97.883,73.95,97.75,73.95z"/>
<path fill-rule="evenodd" clip-rule="evenodd" fill="#0066CC" fill-opacity="0.9882" d="M101.95,80.7H93.5
	c-0.233-0.067-0.35-0.217-0.35-0.45V80c0.067-0.067,0.217-0.15,0.45-0.25h8.25c0.3,0,0.45,0.167,0.45,0.5
	C102.3,80.383,102.183,80.533,101.95,80.7z"/>
<path fill-rule="evenodd" clip-rule="evenodd" fill="#0066CC" fill-opacity="0.9882" d="M98.25,73.7c-2.633,4.6-4.2,6.9-4.7,6.9
	c-0.3,0-0.45-0.167-0.45-0.5c0-0.367,0.8-1.55,2.4-3.55c0.267-0.4,0.6-0.983,1-1.75c0.067-0.1,0.2-0.4,0.4-0.9
	c0.267-0.433,0.583-0.65,0.95-0.65C98.083,73.25,98.217,73.4,98.25,73.7z"/>
<path fill-rule="evenodd" clip-rule="evenodd" fill="#0066CC" fill-opacity="0.9882" d="M98.35,72.25c0.167,0.1,0.25,0.233,0.25,0.4
	c0,0.533-0.983,0.8-2.95,0.8c-0.5,0.033-0.9,0.05-1.2,0.05c-0.567,0-0.983-0.067-1.25-0.2l-1.3,0.05l0.05,0.25
	c0,0.3-0.167,0.45-0.5,0.45c-0.3,0-0.5-0.267-0.6-0.8l-0.1-0.8c0-0.3,0.167-0.45,0.5-0.45H96c0.067,0.033,0.4,0.033,1,0
	C97.567,71.967,98.017,72.05,98.35,72.25z"/>
<path fill-rule="evenodd" clip-rule="evenodd" fill="#0066CC" fill-opacity="0.9882" d="M100.925,72.325
	c-0.175,0.238-0.267,0.438-0.275,0.6c-2.715,4.784-4.282,7.175-4.7,7.175c-0.367,0-0.55-0.15-0.55-0.45
	c0-0.066,0.283-0.566,0.85-1.5c0.6-0.967,1.033-1.6,1.3-1.9c0.6-0.7,1.25-1.817,1.95-3.35h-2l-0.2,0.05
	c-0.433,0-0.65-0.167-0.65-0.5c0-0.434,0.233-0.6,0.7-0.5h3.25C100.718,72.009,100.826,72.134,100.925,72.325z"/>
<path fill-rule="evenodd" clip-rule="evenodd" fill="#0066CC" fill-opacity="0.9882" d="M98.55,72.25c0.7,0,1.05,0.2,1.05,0.6
	c0,0.233-0.283,0.867-0.85,1.9c-0.867,1.233-1.317,1.867-1.35,1.9c-0.3,0.434-0.65,1.05-1.05,1.85c-0.133,0.133-0.233,0.25-0.3,0.35
	c-0.133,0.133-0.2,0.316-0.2,0.55c0,0.133-0.117,0.283-0.35,0.45c-0.267,0.2-0.5,0.3-0.7,0.3c-0.367,0-0.55-0.15-0.55-0.45
	l3.15-4.85l-0.25-0.6c0-0.133,0.167-0.483,0.5-1.05C98.017,72.567,98.317,72.25,98.55,72.25z"/>
<path fill-rule="evenodd" clip-rule="evenodd" fill="#0066CC" fill-opacity="0.9882" d="M102.55,79.1c0,0.133-0.117,0.283-0.35,0.45
	h-6.25c-0.233-0.066-0.35-0.233-0.35-0.5c0-0.133,0-0.216,0-0.25c0.066-0.066,0.217-0.133,0.45-0.2h6.05
	C102.4,78.6,102.55,78.767,102.55,79.1z"/>
<path fill-rule="evenodd" clip-rule="evenodd" fill="#0066CC" fill-opacity="0.9882" d="M101.3,79.5c0.034,0,0.083-0.133,0.15-0.4
	c0.133-0.267,0.333-0.4,0.6-0.4c0.3,0,0.45,0.15,0.45,0.45c0,0.233-0.067,0.483-0.2,0.75c-0.2,0.367-0.483,0.55-0.85,0.55l-4.35-0.1
	c-0.133,0-0.2-0.017-0.2-0.05c-0.733,0-1.2-0.083-1.4-0.25c-0.067-0.033-0.1-0.133-0.1-0.3c0-0.333,0.167-0.5,0.5-0.5l1.35,0.15
	l3.6,0.05L101.3,79.5z"/>
<path fill-rule="evenodd" clip-rule="evenodd" fill="#0066CC" fill-opacity="0.9882" d="M110.85,69.65c0,0.2-0.117,0.35-0.35,0.45
	h-10.35c-0.1,0-0.2-0.067-0.3-0.2c-0.067-0.1-0.1-0.183-0.1-0.25l0.1-0.2c0.1-0.133,0.233-0.217,0.4-0.25h10.25
	C110.733,69.3,110.85,69.45,110.85,69.65z"/>
<path fill-rule="evenodd" clip-rule="evenodd" fill="#0066CC" fill-opacity="0.9882" d="M119.225,80.05
	c-0.175,0.224-0.3,0.44-0.375,0.65H104.7c-0.233-0.067-0.35-0.217-0.35-0.45V80c0.066-0.067,0.217-0.15,0.45-0.25h14
	C119.035,79.75,119.177,79.85,119.225,80.05z"/>
<path fill-rule="evenodd" clip-rule="evenodd" fill="#0066CC" fill-opacity="0.9882" d="M113.95,67.75
	c-0.367,0.433-0.733,0.883-1.1,1.35c-0.8,0.933-1.283,1.55-1.45,1.85c-1.033,1.433-1.733,2.5-2.1,3.2
	c-0.933,1.633-1.7,2.917-2.3,3.85c-1.033,1.733-1.65,2.6-1.85,2.6c-0.233,0-0.383-0.083-0.45-0.25c-0.034-0.067-0.05-0.167-0.05-0.3
	c0-0.533,0.55-1.633,1.65-3.3c0.534-0.833,1.133-1.7,1.8-2.6l3.25-5.9h-9.5c-0.1,0.2-0.35,0.533-0.75,1s-0.65,0.7-0.75,0.7
	c-0.333,0-0.5-0.15-0.5-0.45c0-0.133,0.233-0.5,0.7-1.1c0.5-0.733,0.934-1.117,1.3-1.15h11.65
	C113.8,67.25,113.95,67.417,113.95,67.75z"/>
<path fill-rule="evenodd" clip-rule="evenodd" fill="#0066CC" fill-opacity="0.9882" d="M114.05,67.95c0,0.3-1.35,2.4-4.05,6.3
	c-0.133,0.2-0.75,1.267-1.85,3.2c-0.3,0.433-0.767,1.033-1.4,1.8c-0.633,0.8-1,1.2-1.1,1.2c-0.333,0-0.5-0.15-0.5-0.45
	c0-0.333,0.35-0.933,1.05-1.8c0.367-0.434,0.767-0.9,1.2-1.4c0.033-0.066,0.317-0.6,0.85-1.6c0.333-0.633,0.633-1.133,0.9-1.5
	c0.5-0.767,1.283-1.817,2.35-3.15c0.067-0.066,0.333-0.6,0.8-1.6c0.534-0.967,0.983-1.45,1.35-1.45
	C113.917,67.5,114.05,67.65,114.05,67.95z"/>
<path fill-rule="evenodd" clip-rule="evenodd" fill="#0066CC" fill-opacity="0.9882" d="M112.7,68.7c0.2-0.534,0.433-0.8,0.7-0.8
	c0.233,0,0.35,0.184,0.35,0.55c0,0.767-1.033,2.767-3.1,6c-0.867,1.433-1.566,2.566-2.1,3.4c-0.966,1.566-1.633,2.35-2,2.35
	S106,80.05,106,79.75c0-0.267,1.35-2.35,4.05-6.25c0.467-0.733,1.1-1.817,1.9-3.25L112.7,68.7z"/>
<path fill-rule="evenodd" clip-rule="evenodd" fill="#0066CC" fill-opacity="0.9882" d="M115,67.75
	c-4.667,8.367-7.317,12.55-7.95,12.55c-0.2,0-0.333-0.083-0.4-0.25l-0.05-0.25c0-0.167,0.316-0.667,0.95-1.5
	c0.3-0.433,0.667-0.917,1.1-1.45c0.6-1.233,1.167-2.2,1.7-2.9c1.467-2.333,2.6-4.25,3.4-5.75c-0.567-0.042-0.85-0.208-0.85-0.5
	c0-0.2,0.05-0.317,0.15-0.35c0.167-0.1,0.583-0.15,1.25-0.15C114.767,67.2,115,67.383,115,67.75z"/>
<path fill-rule="evenodd" clip-rule="evenodd" fill="#0066CC" fill-opacity="0.9882" d="M111.8,68.9c0,0.2-0.117,0.35-0.35,0.45
	H101.2c-0.233,0-0.35-0.15-0.35-0.45c0-0.3,0.15-0.45,0.45-0.45h10.15C111.683,68.55,111.8,68.7,111.8,68.9z"/>
<path fill-rule="evenodd" clip-rule="evenodd" fill="#0066CC" fill-opacity="0.9882" d="M111.8,68.5c0,0.133-0.117,0.283-0.35,0.45
	h-9.9c-0.267-0.167-0.4-0.317-0.4-0.45c0-0.333,0.2-0.5,0.6-0.5h9.6C111.65,68,111.8,68.167,111.8,68.5z"/>
<path fill-rule="evenodd" clip-rule="evenodd" fill="#0066CC" fill-opacity="0.9882" d="M118.9,78.45h-10.5
	c-0.267-0.167-0.4-0.317-0.4-0.45c0-0.333,0.167-0.5,0.5-0.5h10.325c0.283,0.005,0.425,0.172,0.425,0.5
	C119.25,78.2,119.133,78.35,118.9,78.45z"/>
<path fill-rule="evenodd" clip-rule="evenodd" fill="#0066CC" fill-opacity="0.9882" d="M118.95,77.65
	c0.035-0.056,0.076-0.106,0.125-0.15h1.15c0.017,0.069,0.025,0.152,0.025,0.25c-0.8,1.967-1.35,2.95-1.65,2.95
	c-0.267,0-0.417-0.117-0.45-0.35V80c0-0.333,0.033-0.567,0.1-0.7c0.133-0.233,0.267-0.517,0.4-0.85
	C118.717,78.283,118.817,78.017,118.95,77.65z"/>
<path fill-rule="evenodd" clip-rule="evenodd" fill="#0066CC" fill-opacity="0.9882" d="M91.25,73.05v0.05
	c0.367-0.133,0.6,0.033,0.7,0.5c0,0.333-0.167,0.5-0.5,0.5c-0.1,0-0.15-0.017-0.15-0.05c-0.7,0.1-1.15,0.034-1.35-0.2l-0.1-0.35
	c0-0.127,0.108-0.318,0.325-0.575c0.063-0.087,0.137-0.179,0.225-0.275c0.367-0.433,0.617-0.65,0.75-0.65c0.267,0,0.4,0.15,0.4,0.45
	L91.25,73.05z"/>
<path fill-rule="evenodd" clip-rule="evenodd" fill="#0066CC" fill-opacity="0.9882" d="M118.3,79.85h-3.65l-0.05-0.05h-1.4
	c-0.367,0-1.083,0.067-2.15,0.2c-1.066,0.133-2,0.2-2.8,0.2c-0.767,0-1.15-0.267-1.15-0.8c0-0.6,0.183-0.9,0.55-0.9l0.25,0.1
	c-0.2-0.4-0.066-0.65,0.4-0.75h9.95c0.533-0.267,0.8-0.133,0.8,0.4C118.783,79.15,118.533,79.683,118.3,79.85z"/>
<path fill-rule="evenodd" clip-rule="evenodd" fill="#0066CC" fill-opacity="0.9882" d="M105.75,78.4c0.233,0,0.35,0.117,0.35,0.35
	c-0.833,1.3-1.317,1.95-1.45,1.95c-0.233,0-0.35-0.15-0.35-0.45c0-0.167,0.2-0.517,0.6-1.05C105.3,78.667,105.583,78.4,105.75,78.4z
	"/>
<path fill-rule="evenodd" clip-rule="evenodd" fill="#0066CC" fill-opacity="0.9882" d="M103.2,78.9c0,0.167-0.167,0.5-0.5,1
	c-0.333,0.5-0.567,0.75-0.7,0.75c-0.233,0-0.35-0.15-0.35-0.45c0-0.1,0.117-0.333,0.35-0.7c-0.167-0.133-0.267-0.217-0.3-0.25
	c0-0.033,0-0.117,0-0.25c0-0.3,0.383-0.45,1.15-0.45C103.083,78.55,103.2,78.667,103.2,78.9z"/>
<path fill-rule="evenodd" clip-rule="evenodd" fill="#0066CC" fill-opacity="0.9882" d="M83.75,76.1c-0.3,0-0.45-0.133-0.45-0.4
	c0-0.2,0.117-0.434,0.35-0.7s0.434-0.4,0.6-0.4c0.233,0,0.35,0.117,0.35,0.35l-0.2,0.35c0.2,0.1,0.3,0.217,0.3,0.35
	C84.7,75.95,84.383,76.1,83.75,76.1z"/>
<path fill-rule="evenodd" clip-rule="evenodd" fill="#0066CC" fill-opacity="0.9882" d="M92.35,79.1c0.367,0,0.55,0.117,0.55,0.35
	c0,0.167-0.117,0.4-0.35,0.7c-0.233,0.3-0.417,0.45-0.55,0.45c-0.233,0-0.35-0.133-0.35-0.4l0.1-0.3c-0.3,0-0.45-0.133-0.45-0.4
	c0-0.2,0.067-0.317,0.2-0.35C91.6,79.117,91.883,79.1,92.35,79.1z"/>
<path fill-rule="evenodd" clip-rule="evenodd" fill="#0066CC" fill-opacity="0.9882" d="M84.7,79.85l0.2,0.2
	c0,0.1-0.083,0.217-0.25,0.35l-0.05,0.05c0.333,0,0.5,0.083,0.5,0.25v0.05h-1L84,80.6C84,80.4,84.233,80.15,84.7,79.85z"/>
<path fill-rule="evenodd" clip-rule="evenodd" fill="#0066CC" fill-opacity="0.9882" d="M90.8,74.8c0,0.1-0.1,0.25-0.3,0.45
	s-0.367,0.3-0.5,0.3l-0.2-0.05l-0.05-0.15l0.15-0.2c-0.033-0.033-0.4-0.05-1.1-0.05c-0.066,0.066-0.117,0.1-0.15,0.1
	c-0.133,0-0.2-0.083-0.2-0.25c0-0.067,0.066-0.15,0.2-0.25l2.1-0.05C90.75,74.683,90.767,74.733,90.8,74.8z"/>
<path fill-rule="evenodd" clip-rule="evenodd" fill="#0066CC" fill-opacity="0.9882" d="M84.95,75.1h-0.6l-0.3-0.2
	c0.133-0.133,0.2-0.217,0.2-0.25c0.6,0,0.9,0.083,0.9,0.25L84.95,75.1z"/>
<path fill-rule="evenodd" clip-rule="evenodd" fill="#0066CC" fill-opacity="0.9882" d="M83,75.75c0-0.1,0.117-0.25,0.35-0.45
	c0.2-0.167,0.383-0.283,0.55-0.35l0.2,0.2c0,0.167-0.1,0.3-0.3,0.4c0.167,0,0.25,0.083,0.25,0.25c0,0.167-0.167,0.25-0.5,0.25
	C83.183,76.05,83,75.95,83,75.75z"/>
<path fill-rule="evenodd" clip-rule="evenodd" fill="#0066CC" fill-opacity="0.9882" d="M93.15,79.3c0,0.1-0.15,0.333-0.45,0.7
	c-0.3,0.333-0.5,0.533-0.6,0.6l-0.15-0.05L91.9,80.4c0-0.1,0.083-0.233,0.25-0.4c0.233-0.2,0.383-0.383,0.45-0.55
	c-0.1-0.034-0.367-0.05-0.8-0.05c-0.033,0-0.1-0.05-0.2-0.15l0.125-0.15c0.44-0.004,0.79-0.021,1.05-0.05
	C93.025,79.092,93.15,79.176,93.15,79.3z"/>
<path fill-rule="evenodd" clip-rule="evenodd" fill="#0066CC" fill-opacity="0.9882" d="M90.35,73.05l0.05,0.15
	c0,0.1-0.117,0.233-0.35,0.4h0.85l0.2,0.2c0,0.167-0.067,0.25-0.2,0.25C90.833,74.017,90.417,74,89.65,74l-0.125-0.125
	c0.109-0.094,0.217-0.219,0.325-0.375c0.098-0.147,0.182-0.281,0.25-0.4C90.198,73.049,90.281,73.033,90.35,73.05z"/>
<path fill-rule="evenodd" clip-rule="evenodd" fill="#0066CC" fill-opacity="0.9882" d="M103.2,78.55c0.133,0.1,0.2,0.184,0.2,0.25
	c-0.3,0.633-0.517,0.95-0.65,0.95c-0.067-0.033-0.117-0.05-0.15-0.05l-0.05-0.2c0-0.167,0.1-0.317,0.3-0.45v-0.1l-0.3-0.05
	l-0.05-0.15c0-0.067,0.033-0.117,0.1-0.15c0.033,0,0.066-0.017,0.1-0.05H103.2z"/>
<path fill-rule="evenodd" clip-rule="evenodd" fill="#0066CC" fill-opacity="0.9882" d="M93.4,80.1c-0.066,0.066-0.1,0.15-0.1,0.25
	h0.35l0.2,0.2l-0.15,0.2h-0.75c-0.133-0.1-0.2-0.183-0.2-0.25c0-0.1,0.067-0.233,0.2-0.4c0.167-0.233,0.333-0.333,0.5-0.3
	c0,0.034,0.017,0.083,0.05,0.15C93.5,79.983,93.467,80.033,93.4,80.1z"/>
<path fill-rule="evenodd" clip-rule="evenodd" fill="#0066CC" fill-opacity="0.9882" d="M100.25,72.4
	c-0.067-0.033-0.117-0.05-0.15-0.05l-0.05-0.2c0-0.133,0.2-0.183,0.6-0.15c0.2,0.018,0.342,0.052,0.425,0.1
	c-0.191,0.236-0.316,0.445-0.375,0.625c-0.018,0.005-0.035,0.014-0.05,0.025c-0.267,0-0.316-0.117-0.15-0.35H100.25z"/>
<path fill-rule="evenodd" clip-rule="evenodd" fill="#0066CC" fill-opacity="0.9882" d="M100.2,69.7c0.2,0.01,0.3,0.076,0.3,0.2
	c0,0.167-0.067,0.25-0.2,0.25l-0.65-0.05l-0.2-0.2c0-0.1,0.167-0.267,0.5-0.5c0.333-0.267,0.5-0.25,0.5,0.05
	C100.45,69.583,100.367,69.667,100.2,69.7z"/>
<path fill-rule="evenodd" clip-rule="evenodd" fill="#0066CC" fill-opacity="0.9882" d="M115.15,67.4c0,0.133-0.083,0.333-0.25,0.6
	c-0.2,0.233-0.333,0.35-0.4,0.35l-0.15-0.05l-0.05-0.2l0.35-0.5l-0.35-0.05l-0.05-0.15c0-0.066,0.033-0.117,0.1-0.15
	c0.033,0,0.066-0.017,0.1-0.05h0.5L115.15,67.4z"/>
<path fill-rule="evenodd" clip-rule="evenodd" fill="#0066CC" fill-opacity="0.9882" d="M104.55,80.25
	c0.034,0.067,0.15,0.067,0.35,0l0.2,0.2l-0.25,0.25h-0.5c-0.133-0.1-0.2-0.184-0.2-0.25c0-0.133,0.083-0.25,0.25-0.35
	C104.467,80.1,104.517,80.15,104.55,80.25z"/>
<line fill-rule="evenodd" clip-rule="evenodd" fill="none" stroke="#024282" stroke-width="0.5" stroke-linecap="round" stroke-linejoin="round" stroke-miterlimit="3" x1="83.1" y1="75.95" x2="87.9" y2="75.95"/>
<line fill-rule="evenodd" clip-rule="evenodd" fill="none" stroke="#024282" stroke-width="0.5" stroke-linecap="round" stroke-linejoin="round" stroke-miterlimit="3" x1="83.1" y1="75.95" x2="84.05" y2="74.9"/>
<line fill-rule="evenodd" clip-rule="evenodd" fill="none" stroke="#024282" stroke-width="0.5" stroke-linecap="round" stroke-linejoin="round" stroke-miterlimit="3" x1="84.05" y1="74.9" x2="90.75" y2="74.9"/>
<line fill-rule="evenodd" clip-rule="evenodd" fill="none" stroke="#024282" stroke-width="0.5" stroke-linecap="round" stroke-linejoin="round" stroke-miterlimit="3" x1="84" y1="80.6" x2="91.85" y2="80.6"/>
<line fill-rule="evenodd" clip-rule="evenodd" fill="none" stroke="#024282" stroke-width="0.5" stroke-linecap="round" stroke-linejoin="round" stroke-miterlimit="3" x1="93.05" y1="79.1" x2="91.85" y2="80.6"/>
<line fill-rule="evenodd" clip-rule="evenodd" fill="none" stroke="#024282" stroke-width="0.5" stroke-linecap="round" stroke-linejoin="round" stroke-miterlimit="3" x1="93.05" y1="79.1" x2="87.15" y2="79.1"/>
<line fill-rule="evenodd" clip-rule="evenodd" fill="none" stroke="#024282" stroke-width="0.5" stroke-linecap="round" stroke-linejoin="round" stroke-miterlimit="3" x1="90.75" y1="74.9" x2="87.15" y2="79.1"/>
<line fill-rule="evenodd" clip-rule="evenodd" fill="none" stroke="#024282" stroke-width="0.5" stroke-linecap="round" stroke-linejoin="round" stroke-miterlimit="3" x1="87.9" y1="75.95" x2="84" y2="80.6"/>
<line fill-rule="evenodd" clip-rule="evenodd" fill="none" stroke="#024282" stroke-width="0.5" stroke-linecap="round" stroke-linejoin="round" stroke-miterlimit="3" x1="91.25" y1="72" x2="101.1" y2="72"/>
<line fill-rule="evenodd" clip-rule="evenodd" fill="none" stroke="#024282" stroke-width="0.5" stroke-linecap="round" stroke-linejoin="round" stroke-miterlimit="3" x1="91.25" y1="72" x2="89.55" y2="73.9"/>
<line fill-rule="evenodd" clip-rule="evenodd" fill="none" stroke="#024282" stroke-width="0.5" stroke-linecap="round" stroke-linejoin="round" stroke-miterlimit="3" x1="89.55" y1="73.9" x2="97.15" y2="73.9"/>
<line fill-rule="evenodd" clip-rule="evenodd" fill="none" stroke="#024282" stroke-width="0.5" stroke-linecap="round" stroke-linejoin="round" stroke-miterlimit="3" x1="92.95" y1="80.75" x2="97.15" y2="73.9"/>
<line fill-rule="evenodd" clip-rule="evenodd" fill="none" stroke="#024282" stroke-width="0.5" stroke-linecap="round" stroke-linejoin="round" stroke-miterlimit="3" x1="101.1" y1="72" x2="97.3" y2="78.5"/>
<line fill-rule="evenodd" clip-rule="evenodd" fill="none" stroke="#024282" stroke-width="0.5" stroke-linecap="round" stroke-linejoin="round" stroke-miterlimit="3" x1="97.3" y1="78.5" x2="103.2" y2="78.5"/>
<line fill-rule="evenodd" clip-rule="evenodd" fill="none" stroke="#024282" stroke-width="0.5" stroke-linecap="round" stroke-linejoin="round" stroke-miterlimit="3" x1="103.2" y1="78.5" x2="101.95" y2="80.7"/>
<line fill-rule="evenodd" clip-rule="evenodd" fill="none" stroke="#024282" stroke-width="0.5" stroke-linecap="round" stroke-linejoin="round" stroke-miterlimit="3" x1="101.95" y1="80.7" x2="92.95" y2="80.7"/>
<line fill-rule="evenodd" clip-rule="evenodd" fill="none" stroke="#024282" stroke-width="0.5" stroke-linecap="round" stroke-linejoin="round" stroke-miterlimit="3" x1="101.85" y1="67.25" x2="115.15" y2="67.25"/>
<line fill-rule="evenodd" clip-rule="evenodd" fill="none" stroke="#024282" stroke-width="0.5" stroke-linecap="round" stroke-linejoin="round" stroke-miterlimit="3" x1="115.15" y1="67.25" x2="109.35" y2="77.35"/>
<line fill-rule="evenodd" clip-rule="evenodd" fill="none" stroke="#024282" stroke-width="0.5" stroke-linecap="round" stroke-linejoin="round" stroke-miterlimit="3" x1="109.35" y1="77.35" x2="120.25" y2="77.35"/>
<line fill-rule="evenodd" clip-rule="evenodd" fill="none" stroke="#024282" stroke-width="0.5" stroke-linecap="round" stroke-linejoin="round" stroke-miterlimit="3" x1="120.25" y1="77.35" x2="118.85" y2="80.7"/>
<line fill-rule="evenodd" clip-rule="evenodd" fill="none" stroke="#024282" stroke-width="0.5" stroke-linecap="round" stroke-linejoin="round" stroke-miterlimit="3" x1="118.85" y1="80.7" x2="104.35" y2="80.7"/>
<line fill-rule="evenodd" clip-rule="evenodd" fill="none" stroke="#024282" stroke-width="0.5" stroke-linecap="round" stroke-linejoin="round" stroke-miterlimit="3" x1="104.35" y1="80.7" x2="110.5" y2="70.1"/>
<line fill-rule="evenodd" clip-rule="evenodd" fill="none" stroke="#024282" stroke-width="0.5" stroke-linecap="round" stroke-linejoin="round" stroke-miterlimit="3" x1="110.5" y1="70.1" x2="99.65" y2="70.1"/>
<line fill-rule="evenodd" clip-rule="evenodd" fill="none" stroke="#024282" stroke-width="0.5" stroke-linecap="round" stroke-linejoin="round" stroke-miterlimit="3" x1="99.65" y1="70.1" x2="101.85" y2="67.25"/>
</svg>
