<?xml version="1.0" encoding="utf-8"?>
<!-- Generator: Adobe Illustrator 16.0.0, SVG Export Plug-In . SVG Version: 6.00 Build 0)  -->
<!DOCTYPE svg PUBLIC "-//W3C//DTD SVG 1.1//EN" "http://www.w3.org/Graphics/SVG/1.1/DTD/svg11.dtd">
<svg version="1.1" id="Layer_1" xmlns="http://www.w3.org/2000/svg" xmlns:xlink="http://www.w3.org/1999/xlink" x="0px" y="0px"
	 width="550px" height="400px" viewBox="0 0 550 400" enable-background="new 0 0 550 400" xml:space="preserve">
<path fill-rule="evenodd" clip-rule="evenodd" fill="#000033" d="M0,18.15c0-1.3,0.033-2.2,0.1-2.7
	c0.167-1.067,0.517-1.917,1.05-2.55c0.434-0.533,0.733-1.367,0.9-2.5c0.067-0.4,0.333-0.816,0.8-1.25c0.5-0.467,0.983-0.7,1.45-0.7
	c0.567,0,0.85,0.167,0.85,0.5l-1.55,3.5C2.533,14.917,2,16.467,2,17.1c0,0.467,0.217,1.367,0.65,2.7c0.4,1.3,0.6,2.133,0.6,2.5
	c0,0.467-0.167,0.7-0.5,0.7c-0.867,0-1.583-0.8-2.15-2.4C0.2,19,0,18.183,0,18.15z"/>
<path fill-rule="evenodd" clip-rule="evenodd" fill="#000033" d="M4.75,25.75c-0.133,0.233-0.3,0.35-0.5,0.35
	c-0.633,0-1.367-0.8-2.2-2.4L1,21.4c0-0.933,0.65-0.566,1.95,1.1c0.667,0.8,1.316,1.717,1.95,2.75
	C4.9,25.417,4.85,25.583,4.75,25.75z"/>
<path fill-rule="evenodd" clip-rule="evenodd" fill="#000033" d="M7.3,12.85c-0.3,0-0.7-0.517-1.2-1.55
	C5.5,10.067,5.133,9.383,5,9.25C4.533,8.717,3.733,8,2.6,7.1C1.567,6.3,1.05,5.883,1.05,5.85c0-0.9,1.117-0.4,3.35,1.5
	c2.233,1.933,3.35,3.566,3.35,4.9C7.75,12.65,7.6,12.85,7.3,12.85z"/>
<g>
	<path fill-rule="evenodd" clip-rule="evenodd" fill="#000033" d="M0.5,5.9c0-0.333,0.3-0.517,0.9-0.55S3.95,5.233,7.25,5.1
		c1.5-1.533,2.733-1.85,3.7-0.95C11.65,4.783,12,5.6,12,6.6c0,1.5-0.6,2.25-1.8,2.25c-1.733,0-2.717-0.883-2.95-2.65l-4.9,0.15
		C1.383,6.35,0.8,6.3,0.6,6.2C0.533,6.167,0.5,6.067,0.5,5.9z M8.15,5.75c0,1.4,0.667,2.1,2,2.1c0.6,0,0.9-0.383,0.9-1.15
		c0-1.133-0.483-1.784-1.45-1.95S8.15,4.917,8.15,5.75z"/>
	<path fill-rule="evenodd" clip-rule="evenodd" fill="#3333FF" d="M8.15,5.75c0-0.833,0.483-1.167,1.45-1s1.45,0.817,1.45,1.95
		c0,0.767-0.3,1.15-0.9,1.15C8.817,7.85,8.15,7.15,8.15,5.75z"/>
</g>
<path fill-rule="evenodd" clip-rule="evenodd" fill="#000033" d="M7.45,12.5c-0.267,0-0.417-0.1-0.45-0.3c0-0.167,0-0.267,0-0.3
	c0-0.667,0.4-1.6,1.2-2.8C9,7.933,9.4,7.783,9.4,8.65C9.4,8.883,8.75,10.167,7.45,12.5z"/>
<path fill-rule="evenodd" clip-rule="evenodd" fill="#000033" d="M9.95,4.5c-0.233,0-0.383-0.067-0.45-0.2V4.05
	c0-0.267,0.617-1.167,1.85-2.7c1.2-1.5,1.8-1.767,1.8-0.8C11.45,3.183,10.383,4.5,9.95,4.5z"/>
<path fill-rule="evenodd" clip-rule="evenodd" fill="#000033" d="M12.1,7c-0.533,0-0.8-0.15-0.8-0.45c0-0.3,0.3-0.5,0.9-0.6
	c0.267-0.034,1.767-0.167,4.5-0.4c0.066,0.067,0.1,0.017,0.1-0.15c0-0.5-0.8-1.35-2.4-2.55C12.8,1.683,12,1.033,12,0.9
	c0-0.767,0.983-0.417,2.95,1.05c1.966,1.466,2.95,2.883,2.95,4.25c0,0.367-0.183,0.55-0.55,0.55l-1-0.2
	c-0.9,0-1.617,0.083-2.15,0.25C13.667,6.933,12.967,7,12.1,7z"/>
<path fill-rule="evenodd" clip-rule="evenodd" fill="#000033" d="M14.8,28.2c0.667-0.167,1.184-0.25,1.55-0.25s0.583,0.2,0.65,0.6
	c0,0.434-0.367,0.65-1.1,0.65c-0.066,0.133-0.133,0.233-0.2,0.3c-0.1,0.067-0.25,0.1-0.45,0.1c-2.233,0-4.217-0.333-5.95-1
	c-1.333-0.667-2.083-1.033-2.25-1.1c-1.5-0.633-2.466-1.1-2.9-1.4c-0.566-0.367-0.85-0.817-0.85-1.35c0-0.633,0.617-0.567,1.85,0.2
	c0.667,0.4,1.417,0.917,2.25,1.55c0.067,0.033,0.85,0.35,2.35,0.95c1.6,0.633,2.65,0.95,3.15,0.95
	C13.533,28.4,14.167,28.333,14.8,28.2z"/>
<path fill-rule="evenodd" clip-rule="evenodd" fill="#000033" d="M14.6,29.3l-0.05-0.25c0-0.066,1.217-0.533,3.65-1.4
	c2.633-0.9,4.283-1.717,4.95-2.45c0.4-0.4,1.184-1.434,2.35-3.1c1-1.267,1.5-1.5,1.5-0.7c0,1.067-1.083,2.55-3.25,4.45
	c-2.4,2.066-4.617,3.1-6.65,3.1c-1.067,0.367-1.75,0.55-2.05,0.55C14.817,29.5,14.667,29.433,14.6,29.3z"/>
<path fill-rule="evenodd" clip-rule="evenodd" fill="#000033" d="M22,7c-0.4,0-0.85-0.283-1.35-0.85c-0.633-0.7-1-1.066-1.1-1.1
	c-0.833-0.233-1.483-0.417-1.95-0.55c-0.9-0.233-1.35-0.533-1.35-0.9c0-0.667,1.05-0.533,3.15,0.4c2.067,0.933,3.1,1.783,3.1,2.55
	C22.5,6.85,22.333,7,22,7z"/>
<path fill-rule="evenodd" clip-rule="evenodd" fill="#000033" d="M24.25,7.4c0.4,0.3,0.717,0.6,0.95,0.9
	c0.2,0.267,0.583,0.9,1.15,1.9c1.033,1.9,1.55,4.367,1.55,7.4c-0.233,2.833-0.7,4.25-1.4,4.25c-0.3,0-0.467-0.133-0.5-0.4
	c0-0.3,0-0.467,0-0.5c0.2-1.2,0.3-2.083,0.3-2.65c0-0.2-0.083-0.466-0.25-0.8c-0.167-0.367-0.25-0.733-0.25-1.1
	c0-0.3,0.083-0.566,0.25-0.8c0.167-0.2,0.25-0.417,0.25-0.65c-0.066-0.4-0.1-0.967-0.1-1.7c0-2.233-1.567-4.35-4.7-6.35l-4.75-3
	l0.05-0.4c1.034,0.267,2.117,0.717,3.25,1.35c1.967,1.133,3,1.717,3.1,1.75C23.383,6.8,23.75,7.067,24.25,7.4z"/>
<path fill-rule="evenodd" clip-rule="evenodd" fill="#000033" d="M9.3,22.55l-0.25-0.2c-0.2,0-0.5,0.217-0.9,0.65
	c-0.4,0.4-0.683,0.6-0.85,0.6c-0.267,0-0.5-0.1-0.7-0.3c-0.167-0.167-0.25-0.3-0.25-0.4c0-0.467,1.083-1.217,3.25-2.25
	c2.133-1.066,3.2-1.2,3.2-0.4c0,0.467-0.216,0.95-0.65,1.45c-0.566,0.667-1.283,1-2.15,1C9.767,22.7,9.533,22.65,9.3,22.55z"/>
<path fill-rule="evenodd" clip-rule="evenodd" fill="#000033" d="M23.7,17.25c0,0.2-0.233,0.417-0.7,0.65
	c-0.5,0.267-0.767,0.533-0.8,0.8c-0.133,0.533-0.233,0.85-0.3,0.95c-0.2,0.3-0.566,0.45-1.1,0.45c-0.233,0-0.466-0.083-0.7-0.25
	c-0.2-0.167-0.317-0.25-0.35-0.25c-0.633,0.4-1.133,0.6-1.5,0.6c-0.6,0-0.9-0.15-0.9-0.45c0-0.8,1.967-1.8,5.9-3
	C23.55,16.917,23.7,17.083,23.7,17.25z"/>
<path fill-rule="evenodd" clip-rule="evenodd" fill="#000033" d="M16.15,24.15c0.267-0.066,0.633-0.2,1.1-0.4
	c0.367-0.2,0.633-0.3,0.8-0.3c0.434,0,0.65,0.15,0.65,0.45c0,0.267-0.317,0.6-0.95,1c-0.733,0.467-1.467,0.7-2.2,0.7
	c-0.733,0-1.35-0.117-1.85-0.35c-0.4-0.167-0.6-0.333-0.6-0.5c0-0.3,0.267-0.45,0.8-0.45C14.867,24.333,15.617,24.283,16.15,24.15z"
	/>
<path fill-rule="evenodd" clip-rule="evenodd" fill="#000033" d="M4.55,8.1L4.8,8l1.6,2c-0.033,0.2-0.117,0.3-0.25,0.3L4.7,8.85
	c-0.233,0-0.5,0.2-0.8,0.6c-0.267,0.367-0.4,0.716-0.4,1.05c0,0.133-0.283,0.7-0.85,1.7C2.483,12.433,2.2,13,1.8,13.9
	c-0.4,0.867-0.6,1.333-0.6,1.4c0,0.434,0.083,1.284,0.25,2.55c0.133,1.233,0.233,1.917,0.3,2.05c0.167,0.5,0.683,1.3,1.55,2.4
	c0.8,0.967,1.2,1.617,1.2,1.95c0,0.2-0.083,0.3-0.25,0.3c-1.033,0-2.183-1.933-3.45-5.8c0.2-0.133,0.3-0.233,0.3-0.3
	c-0.133-0.5-0.2-0.883-0.2-1.15c0-0.3-0.05-0.55-0.15-0.75c-0.133-0.2-0.2-0.333-0.2-0.4c0-0.733,0.517-2.117,1.55-4.15
	c0.967-1.9,1.667-3.05,2.1-3.45c-0.567-0.667-0.85-1.033-0.85-1.1c0-0.3,0.2-0.284,0.6,0.05C4.15,7.667,4.35,7.867,4.55,8.1z"/>
<path fill-rule="evenodd" clip-rule="evenodd" fill="#000033" d="M8.35,9.95c-0.067,0-0.133-0.05-0.2-0.15L8.1,9.65
	c0-0.333,0.217-0.783,0.65-1.35C9.183,7.733,9.4,7.7,9.4,8.2L8.35,9.95z"/>
<path fill-rule="evenodd" clip-rule="evenodd" fill="#000033" d="M7,12.25c-0.067,0-0.133-0.033-0.2-0.1L6.75,12
	c0-0.267,0.267-0.667,0.8-1.2C8.183,9.867,8.5,9.683,8.5,10.25L7,12.25z"/>
<path fill-rule="evenodd" clip-rule="evenodd" fill="#000033" d="M16.9,3.4c0.533-0.1,1.283,0.267,2.25,1.1
	c0,0.2-0.083,0.3-0.25,0.3c-0.066,0-0.333-0.15-0.8-0.45c-0.434-0.267-0.867-0.417-1.3-0.45l-0.15-0.1h-0.5L15.9,3.55
	c0-0.167,0.283-0.25,0.85-0.25L16.9,3.4z"/>
<path fill-rule="evenodd" clip-rule="evenodd" fill="#000033" d="M25.6,9.4c0.566,0,1.083,1.2,1.55,3.6c0,0.267-0.083,0.4-0.25,0.4
	c-0.1,0-0.217-0.25-0.35-0.75c-0.167-0.667-0.316-1.1-0.45-1.3l-0.15-0.05l0.35,0.9c0,0.066-0.033,0.15-0.1,0.25
	c0,0.133,0.15,0.783,0.45,1.95l-0.25,2.3l0.45,1.25c0,0.367-0.1,0.7-0.3,1c-0.2,0.333-0.3,0.7-0.3,1.1c0,0.067,0.083,0.2,0.25,0.4
	c-0.733,2-1.233,3-1.5,3c-0.133,0-0.217-0.067-0.25-0.2V23l0.55-1.75c0.333-1.133,0.5-2.217,0.5-3.25l0.25-2l-0.15-0.55L26,14.9
	c0-0.8-0.133-1.517-0.4-2.15c-0.467-0.833-0.867-1.633-1.2-2.4c-0.2-0.467-0.85-1.333-1.95-2.6C21.35,6.483,20.8,5.9,20.8,6
	c0-0.3,0.233-0.267,0.7,0.1c1,0.833,1.533,1.267,1.6,1.3c1.267,1,2.017,1.717,2.25,2.15L25.6,9.4z"/>
<path fill-rule="evenodd" clip-rule="evenodd" fill="#000033" d="M3.7,24.1c-0.067-0.033-0.1-0.1-0.1-0.2
	c0-0.367,0.133-0.417,0.4-0.15c0.167,0.133,0.383,0.367,0.65,0.7c0.033,0.033,0.267,0.2,0.7,0.5c0.267,0.2,0.4,0.383,0.4,0.55
	L5.7,25.75L5.5,25.8c-0.267,0-0.9-0.483-1.9-1.45C3.667,24.283,3.7,24.2,3.7,24.1z"/>
<path fill-rule="evenodd" clip-rule="evenodd" fill="#000033" d="M15.6,29.5c-0.267,0-0.517-0.067-0.75-0.2
	c-0.2-0.133-0.3-0.233-0.3-0.3c0-0.133,0.284-0.25,0.85-0.35c0.3-0.066,0.633-0.133,1-0.2c0.3-0.233,0.667-0.317,1.1-0.25
	c0.4,0.066,0.6,0.216,0.6,0.45c0,0.167-0.233,0.35-0.7,0.55C16.867,29.4,16.267,29.5,15.6,29.5z"/>
<path fill-rule="evenodd" clip-rule="evenodd" fill="#333399" d="M4.55,12.3c-0.133,0.333-0.2,0.667-0.2,1
	c0,0.1,0.033,0.184,0.1,0.25c0.066,0.067,0.1,0.133,0.1,0.2c-0.7,2.067-1.267,3.1-1.7,3.1c-0.367,0-0.533-0.184-0.5-0.55
	c0-0.867,0.217-1.85,0.65-2.95c0.567-1.3,1-2.333,1.3-3.1c0.3-0.833,0.667-1.1,1.1-0.8c0.333,0.233,0.6,0.7,0.8,1.4
	c0.033,0.066,0.383,0.566,1.05,1.5c0.633,0.867,0.95,1.383,0.95,1.55c0,0.367-0.15,0.55-0.45,0.55c-0.333,0-0.817-0.483-1.45-1.45
	c-0.633-1.067-1.033-1.733-1.2-2C4.967,11.4,4.783,11.833,4.55,12.3z"/>
<path fill-rule="evenodd" clip-rule="evenodd" fill="#333399" d="M7.6,14.45c-0.267,0-0.434-0.1-0.5-0.3c0-0.2,0-0.316,0-0.35
	c0-0.267,0.183-0.833,0.55-1.7c0.333-0.733,0.55-1.184,0.65-1.35l0.55-1.5C8.95,8.65,9.133,8.4,9.4,8.5s0.4,0.333,0.4,0.7
	C8.7,12.7,7.967,14.45,7.6,14.45z"/>
<path fill-rule="evenodd" clip-rule="evenodd" fill="#333399" d="M18.55,6.6c0.167,0.066,0.25,0.217,0.25,0.45
	c0,0.367-0.15,0.55-0.45,0.55c-0.767-0.1-1.617-0.15-2.55-0.15c-1.933,0-3.083,0.367-3.45,1.1c-0.333,0.7-0.833,1.05-1.5,1.05
	c-1.333,0-2-0.233-2-0.7c0-0.367,0.35-0.517,1.05-0.45c0.867,0.1,1.517-0.15,1.95-0.75c-0.367-0.833,1-1.25,4.1-1.25
	C17.35,6.45,18.217,6.5,18.55,6.6z"/>
<path fill-rule="evenodd" clip-rule="evenodd" fill="#333399" d="M21.15,8.6c-0.3,0-1-0.55-2.1-1.65
	c0.034,0.2,0.017,0.383-0.05,0.55c-0.1,0.133-0.217,0.2-0.35,0.2c-0.3,0-0.65-0.55-1.05-1.65L17.1,4.4c0-1.533,1.533-0.3,4.6,3.7
	C21.7,8.433,21.517,8.6,21.15,8.6z"/>
<path fill-rule="evenodd" clip-rule="evenodd" fill="#333399" d="M5.95,11c0.9,0.867,1.35,1.7,1.35,2.5
	c0,0.333-0.083,0.733-0.25,1.2c-0.267,0.667-0.65,1-1.15,1c-0.167-0.133-0.333-0.2-0.5-0.2c-0.267,0-0.7,0.6-1.3,1.8
	c-0.6,1.2-1.033,1.8-1.3,1.8c-0.6,0-0.85-0.667-0.75-2c0-0.733,0.383-1.717,1.15-2.95c0.767-1.233,1.15-1.867,1.15-1.9
	C4.483,10.517,5.017,10.1,5.95,11z"/>
<path fill-rule="evenodd" clip-rule="evenodd" fill="#333399" d="M3.8,15.7c0,0.367-0.083,0.767-0.25,1.2
	C3.383,17.333,3.3,17.7,3.3,18l0.3,1.1c0.2,0.833,0.3,1.433,0.3,1.8c0,0.2,0.2,0.717,0.6,1.55c0.367,0.833,0.55,1.283,0.55,1.35
	c0,0.367-0.133,0.55-0.4,0.55c-0.733,0-1.6-1.783-2.6-5.35c0.133-0.167,0.2-0.333,0.2-0.5c0-0.2-0.067-0.45-0.2-0.75
	s-0.2-0.567-0.2-0.8c0-1.434,0.333-2.133,1-2.1C3.483,14.883,3.8,15.167,3.8,15.7z"/>
<path fill-rule="evenodd" clip-rule="evenodd" fill="#333399" d="M23.2,8.15c0.7,0.967,1.233,1.833,1.6,2.6
	c0.333,0.667,0.733,1.4,1.2,2.2c0.3,0.633,0.45,1.283,0.45,1.95L26.3,17c0,3.033-0.533,5.35-1.6,6.95
	c-1.733,2.667-5.067,4.183-10,4.55h-1.75c-0.067,0.233-0.35,0.35-0.85,0.35c-1.967,0-3.9-0.733-5.8-2.2
	c-1.667-1.3-2.5-2.367-2.5-3.2c0-0.3,0.167-0.45,0.5-0.45c0.333,0,0.817,0.367,1.45,1.1c0.367,0.4,0.833,0.967,1.4,1.7
	c0.267,0.3,0.934,0.633,2,1c0.6,0.2,1.367,0.434,2.3,0.7h3.4l0.3,0.15c2.467-0.467,4.5-1.2,6.1-2.2c1.5-0.967,2.483-2.083,2.95-3.35
	c0.3-0.867,0.566-2.083,0.8-3.65c0.2-1.4,0.3-2.517,0.3-3.35c0-0.467-0.233-1.05-0.7-1.75c-0.667-0.967-1-1.467-1-1.5
	c-0.367-0.9-0.667-1.583-0.9-2.05c-0.4-0.8-0.817-1.2-1.25-1.2c-0.233,0.167-0.434,0.25-0.6,0.25c-0.4,0-0.85-0.35-1.35-1.05
	l-0.65-1.05c0-0.433,0.233-0.6,0.7-0.5c0.1-0.867,0.35-1.1,0.75-0.7c0.667,0.633,1.067,0.95,1.2,0.95
	C21.833,6.5,22.4,7.05,23.2,8.15z"/>
<path fill-rule="evenodd" clip-rule="evenodd" fill="#333399" d="M13.65,8.15c0,0.467-0.25,1.133-0.75,2
	c-0.267,0.5-0.65,1.117-1.15,1.85c-0.133,0.2-0.633,0.817-1.5,1.85c-0.167,0.167-0.867,0.65-2.1,1.45c-0.233,0-0.4-0.1-0.5-0.3
	c-0.066-0.133-0.1-0.25-0.1-0.35c0-0.167,0.1-0.417,0.3-0.75c0.2-0.367,0.316-0.617,0.35-0.75c0-0.2,0.133-0.65,0.4-1.35
	c0.1-0.5,0.267-1.033,0.5-1.6c0.333-0.833,0.667-1.25,1-1.25c0.2,0,0.367,0.066,0.5,0.2c0.267-0.3,0.55-0.583,0.85-0.85
	c0.667-0.6,1.2-0.9,1.6-0.9C13.45,7.4,13.65,7.65,13.65,8.15z"/>
<path fill-rule="evenodd" clip-rule="evenodd" fill="#333399" d="M13.55,8.2c0,0.1-0.05,0.233-0.15,0.4c-0.133,0.2-0.3,0.3-0.5,0.3
	c-0.133,0-0.367-0.267-0.7-0.8c-0.333-0.5-0.5-0.783-0.5-0.85c0-0.4,0.233-0.6,0.7-0.6C12.967,6.65,13.35,7.167,13.55,8.2z"/>
<path fill-rule="evenodd" clip-rule="evenodd" fill="#333399" d="M5.9,10.95c0,0.466-0.2,0.7-0.6,0.7c-0.367,0-0.6-0.2-0.7-0.6
	c-0.033-0.433-0.05-0.667-0.05-0.7c-0.033-0.233-0.033-0.434,0-0.6c0.067-0.3,0.3-0.45,0.7-0.45S5.867,9.85,5.9,10.95z"/>
<path fill-rule="evenodd" clip-rule="evenodd" fill="#333399" d="M5.1,11.4c-0.633,0-0.867-0.433-0.7-1.3
	c0-0.867,0.217-1.25,0.65-1.15c0.434,0.1,0.65,0.7,0.65,1.8C5.7,11.183,5.5,11.4,5.1,11.4z"/>
<path fill-rule="evenodd" clip-rule="evenodd" fill="#333399" d="M26.25,13.65c0,0.6-0.267,1.1-0.8,1.5c-0.6,0.5-1.5,0.783-2.7,0.85
	c-1.267,0.067-2.617,0.367-4.05,0.9c-1.367,0.5-2.3,0.75-2.8,0.75c-0.133,0-0.316-0.066-0.55-0.2s-0.367-0.2-0.4-0.2
	c-1,0.167-1.7,0.25-2.1,0.25c-0.5,0-1.333,0.3-2.5,0.9c-0.6,0.333-1.4,0.767-2.4,1.3c-0.233,0.1-0.75,0.6-1.55,1.5
	c-0.667,0.8-1.25,1.2-1.75,1.2S3.8,22.2,3.6,21.8c-0.133-0.233-0.2-0.483-0.2-0.75c0.167-0.533,0.25-0.883,0.25-1.05
	C3.217,19.333,3,18.85,3,18.55c0-0.433,0.167-0.85,0.5-1.25c0.467-0.5,0.817-0.933,1.05-1.3c0.367-0.867,0.633-1.367,0.8-1.5
	c0.167-0.133,0.95-0.2,2.35-0.2c0.066,0,0.433-0.183,1.1-0.55c0.3-0.033,0.684,0.017,1.15,0.15c0.2,0,0.433-0.5,0.7-1.5
	c0.4-1.467,0.617-2.267,0.65-2.4c0.633-1.7,1.317-2.683,2.05-2.95c0.467-0.133,1.333-0.117,2.6,0.05c0.233,0,0.966-0.184,2.2-0.55
	c0.9-0.267,1.684-0.25,2.35,0.05c0.533,0.1,1.15,0.4,1.85,0.9c0.7,0.5,1.117,0.933,1.25,1.3c0.066,0.267,0.117,0.684,0.15,1.25
	c0.067,0.5,0.233,0.9,0.5,1.2c0.2,0.233,0.733,0.633,1.6,1.2C26.117,12.85,26.25,13.25,26.25,13.65z"/>
<path fill-rule="evenodd" clip-rule="evenodd" fill="#333399" d="M16.4,17.8c0.067,0.633,0.1,1.034,0.1,1.2
	c0,1.3-0.033,2.15-0.1,2.55c-0.267,1.4-0.933,2.1-2,2.1c-0.5,0-0.85-0.2-1.05-0.6c-0.133-0.233-0.2-0.483-0.2-0.75
	c0-0.466,0.133-1.267,0.4-2.4c0.233-1.1,0.35-1.95,0.35-2.55c0-0.567,0.3-1.017,0.9-1.35c0.633-0.367,1.1-0.2,1.4,0.5
	C16.267,16.633,16.333,17.067,16.4,17.8z"/>
<path fill-rule="evenodd" clip-rule="evenodd" fill="#333399" d="M10.5,22.75c1.167,0,1.85,0.4,2.05,1.2
	c0.1,0.433,0.083,0.867-0.05,1.3c1.267,0.133,1.9,0.65,1.9,1.55c0,0.333-0.1,0.633-0.3,0.9c-0.233,0.3-0.583,0.45-1.05,0.45
	C10.45,27.417,9,27.033,8.7,27c-1.167-0.2-1.95-0.417-2.35-0.65c-0.467-0.267-0.7-0.65-0.7-1.15c0-0.267,0.1-0.517,0.3-0.75
	C6.183,24.15,6.5,24,6.9,24l1.4,0.2c0.133-0.233,0.284-0.467,0.45-0.7C9.117,23,9.7,22.75,10.5,22.75z"/>
<path fill-rule="evenodd" clip-rule="evenodd" fill="#333399" d="M24.9,21.4c0,0.434-0.55,1.3-1.65,2.6c-1.2,1.433-2.2,2.15-3,2.15
	c-0.5,0-0.85-0.2-1.05-0.6c-0.133-0.233-0.2-0.483-0.2-0.75c0-0.367,0.183-0.867,0.55-1.5c0.467-0.767,0.733-1.267,0.8-1.5
	c0.333-1.1,0.717-1.7,1.15-1.8c0.3-0.033,0.983,0.017,2.05,0.15C24.383,20.15,24.833,20.567,24.9,21.4z"/>
<path fill-rule="evenodd" clip-rule="evenodd" fill="#333399" d="M24.25,21.75c0,0.367-0.3,1.083-0.9,2.15
	c-0.7,1.233-1.317,1.85-1.85,1.85c-0.467,0-0.817-0.2-1.05-0.6c-0.133-0.233-0.2-0.467-0.2-0.7c0-0.833,0.417-1.733,1.25-2.7
	c0.733-0.833,1.25-1.25,1.55-1.25C23.75,20.5,24.15,20.917,24.25,21.75z"/>
<path fill-rule="evenodd" clip-rule="evenodd" fill="#333399" d="M24.5,21.5c-0.567,0.933-1.067,1.4-1.5,1.4
	c-0.5,0-0.85-0.2-1.05-0.6c-0.133-0.267-0.2-0.517-0.2-0.75c0-1.066,0.583-1.966,1.75-2.7s1.75-0.417,1.75,0.95
	C25.25,20.1,25,20.667,24.5,21.5z"/>
<path fill-rule="evenodd" clip-rule="evenodd" fill="#333399" d="M25.95,18.4c-0.367,1.833-0.967,2.75-1.8,2.75
	c-0.5,0-0.85-0.2-1.05-0.6c-0.133-0.233-0.2-0.483-0.2-0.75c0-0.367,0.133-0.966,0.4-1.8c0.267-0.833,0.383-1.45,0.35-1.85
	c-0.066-1.2,0.35-1.867,1.25-2s1.35,0.3,1.35,1.3C26.25,15.55,26.15,16.533,25.95,18.4z"/>
<path fill-rule="evenodd" clip-rule="evenodd" fill="#333399" d="M4.75,23.1c-0.567,0-0.883-0.333-0.95-1
	c0-0.434,0.934-1.333,2.8-2.7c1.7-1.267,2.9-2.05,3.6-2.35c0.267-0.1,0.867-0.433,1.8-1c0.9-0.4,1.567-0.3,2,0.3
	c0.167,0.233,0.417,0.667,0.75,1.3c0.4,0.733,0.6,1.167,0.6,1.3c0,0.2-0.067,0.4-0.2,0.6c-0.2,0.267-0.483,0.4-0.85,0.4
	c-0.233,0-0.583-0.15-1.05-0.45c-0.5-0.333-1-0.5-1.5-0.5c-0.967,0-2.283,0.683-3.95,2.05C6.167,22.417,5.15,23.1,4.75,23.1z"/>
<path fill-rule="evenodd" clip-rule="evenodd" fill="#333399" d="M24,16.45c-0.4-0.133-0.683-0.2-0.85-0.2
	c-1.1,0-2.533,0.433-4.3,1.3c-1.567,0.867-2.434,1.3-2.6,1.3c-0.367,0-0.633-0.15-0.8-0.45l-0.15-0.5c0-0.9,1.633-1.9,4.9-3
	c3.267-1.1,4.9-0.933,4.9,0.5C24.967,16.1,24.6,16.45,24,16.45z"/>
<path fill-rule="evenodd" clip-rule="evenodd" fill="#333399" d="M22.1,21.5c0,0.233-0.1,0.55-0.3,0.95
	c-0.267,0.5-0.566,0.75-0.9,0.75c-0.233,0-0.717-0.117-1.45-0.35c-0.8-0.2-1.367-0.317-1.7-0.35c-1.467-0.1-2.2-0.467-2.2-1.1
	c0-0.566,0.317-0.867,0.95-0.9c0.5-0.033,1.883-0.017,4.15,0.05C21.617,20.55,22.1,20.867,22.1,21.5z"/>
<path fill-rule="evenodd" clip-rule="evenodd" fill="#333399" d="M21.2,22.8c0,3.434-2.3,5.15-6.9,5.15
	c-1.033,0-1.867-0.184-2.5-0.55c-0.5-0.3-0.75-0.617-0.75-0.95c0-0.667,0.317-1,0.95-1c0.2,0,0.483,0.1,0.85,0.3
	c0.4,0.167,0.883,0.25,1.45,0.25c2.1,0,3.534-0.383,4.3-1.15c0.4-0.4,0.6-0.983,0.6-1.75c0-0.1-0.034-0.15-0.1-0.15H19
	c-1.633,0.433-2.567,0.65-2.8,0.65c-0.667,0-1.15-0.15-1.45-0.45c-0.2-0.2-0.3-0.417-0.3-0.65c0-0.567,0.3-0.867,0.9-0.9
	c1.4-0.133,2.367-0.283,2.9-0.45c0.9-0.267,1.65-0.167,2.25,0.3C20.967,21.85,21.2,22.3,21.2,22.8z"/>
<path fill-rule="evenodd" clip-rule="evenodd" fill="#333399" d="M7.55,24c0.133,0,0.333-0.15,0.6-0.45
	c0.267-0.333,0.55-0.5,0.85-0.5c0.6,0,0.967,0.367,1.1,1.1c0,0.233-0.283,0.583-0.85,1.05c-0.633,0.5-1.2,0.75-1.7,0.75
	c-0.966,0-1.867-0.434-2.7-1.3c-0.767-0.8-1.15-1.517-1.15-2.15c0-0.433,0.216-0.733,0.65-0.9c0.467-0.2,0.933,0,1.4,0.6
	c0.1,0.1,0.3,0.433,0.6,1C6.683,23.733,7.083,24,7.55,24z"/>
<path fill-rule="evenodd" clip-rule="evenodd" fill="#333399" d="M14.6,20.85c0.333,0.367,0.5,0.8,0.5,1.3
	c0,0.4-0.317,0.867-0.95,1.4c-0.667,0.534-1.267,0.8-1.8,0.8c-0.233,0.167-0.434,0.25-0.6,0.25c-0.367,0-0.633-0.167-0.8-0.5
	l-0.15-0.5c0-0.567,0.217-1,0.65-1.3c0.867-0.566,1.383-0.95,1.55-1.15C13.633,20.45,14.167,20.35,14.6,20.85z"/>
<path fill-rule="evenodd" clip-rule="evenodd" fill="#333399" d="M9.25,19.8c0.333-0.133,0.617-0.2,0.85-0.2
	c0.2,0,0.316,0.1,0.35,0.3c0,0.133-0.65,0.583-1.95,1.35c-1.3,0.733-1.95,1.217-1.95,1.45c0,0.133,0.1,0.3,0.3,0.5
	c0.2,0.2,0.35,0.3,0.45,0.3c0.1,0,0.367-0.217,0.8-0.65c0.433-0.434,0.816-0.65,1.15-0.65c0.267,0,0.4,0.133,0.4,0.4
	c0,0.133-0.083,0.283-0.25,0.45C9.233,23.217,9.1,23.3,9,23.3l-0.35-0.1c-0.167,0-0.283,0.183-0.35,0.55
	c-0.1,0.333-0.333,0.5-0.7,0.5c-0.633,0-1.117-0.167-1.45-0.5c-0.267-0.267-0.4-0.55-0.4-0.85c0-0.133,0.1-0.333,0.3-0.6
	c0.167-0.267,0.25-0.45,0.25-0.55c0.067-0.1,0.1-0.183,0.1-0.25c-0.066-0.1-0.1-0.183-0.1-0.25c0-0.133,0.467-0.55,1.4-1.25
	c0.9-0.7,1.233-0.7,1,0L9.25,19.8z"/>
<path fill-rule="evenodd" clip-rule="evenodd" fill="#333399" d="M9.2,22.95c0-0.233,0.383-0.383,1.15-0.45
	c0.833-0.133,1.333-0.35,1.5-0.65c0.367-0.4,0.6-0.684,0.7-0.85c0.133-0.267,0.2-0.6,0.2-1c0-0.2,0.067-0.4,0.2-0.6
	c0.133-0.233,0.316-0.35,0.55-0.35c0.133,0,0.25,0.083,0.35,0.25c0.066,0.133,0.1,0.233,0.1,0.3c0,0.7-0.233,1.417-0.7,2.15
	c-0.4,0.567-0.783,0.933-1.15,1.1c-0.533,0.267-1.333,0.4-2.4,0.4C9.367,23.25,9.2,23.15,9.2,22.95z"/>
<path fill-rule="evenodd" clip-rule="evenodd" fill="#333399" d="M8.35,21.05L8.3,20.9c0-0.167,0.267-0.367,0.8-0.6
	c0.5-0.233,0.8-0.35,0.9-0.35c-0.133-0.133-0.2-0.25-0.2-0.35c0-0.167,0.3-0.35,0.9-0.55c0.533-0.2,0.983-0.3,1.35-0.3
	s0.733,0.117,1.1,0.35c0.3,0.167,0.45,0.3,0.45,0.4c0,0.067-0.05,0.2-0.15,0.4c-0.133,0.2-0.25,0.3-0.35,0.3
	c-0.233-0.133-0.517-0.2-0.85-0.2c-0.433,0-1.133,0.2-2.1,0.6c-1,0.4-1.517,0.6-1.55,0.6C8.467,21.2,8.383,21.15,8.35,21.05z"/>
<path fill-rule="evenodd" clip-rule="evenodd" fill="#333399" d="M20.8,17.25c0,0.133-0.25,0.367-0.75,0.7
	c-0.466,0.267-0.816,0.433-1.05,0.5c-0.367,0.066-0.7,0.267-1,0.6c-0.167,0.167-0.367,0.4-0.6,0.7c0.3,0.233,0.583,0.35,0.85,0.35
	l0.5-0.1c0.2,0,0.3,0.117,0.3,0.35c0,0.3-0.367,0.45-1.1,0.45c-0.167,0-0.333-0.05-0.5-0.15c-0.167-0.1-0.267-0.15-0.3-0.15
	c0,0.233-0.133,0.35-0.4,0.35s-0.417-0.117-0.45-0.35v-0.45l0.1-0.65c0-0.133-0.05-0.267-0.15-0.4c-0.1-0.1-0.15-0.183-0.15-0.25
	c0-0.133,0.267-0.383,0.8-0.75c0.5-0.367,0.867-0.55,1.1-0.55c0.1,0,0.2,0.05,0.3,0.15l2.2-0.65C20.7,16.95,20.8,17.05,20.8,17.25z"
	/>
<path fill-rule="evenodd" clip-rule="evenodd" fill="#333399" d="M24.3,16.55c0,0.4-0.716,0.667-2.15,0.8l-2.25,0.7
	c-0.267,0-0.367-0.117-0.3-0.35v-0.05c-0.4,0.167-0.6,0.083-0.6-0.25c0-0.3,0.467-0.617,1.4-0.95c0.9-0.333,1.684-0.5,2.35-0.5
	C23.783,15.95,24.3,16.15,24.3,16.55z"/>
<path fill-rule="evenodd" clip-rule="evenodd" fill="#333399" d="M24,17.75c0,0.033-0.2,0.15-0.6,0.35
	c-0.467,0.233-0.816,0.667-1.05,1.3c-0.533,0.9-1.033,1.35-1.5,1.35c-0.133-0.1-0.417-0.133-0.85-0.1
	c-1.067,0.033-1.6-0.083-1.6-0.35c0-0.133,0.217-0.283,0.65-0.45c0.1-0.033,0.184-0.117,0.25-0.25c0.133-0.067,0.317-0.1,0.55-0.1
	c0.3,0,0.483,0.05,0.55,0.15c0.1,0.1,0.233,0.15,0.4,0.15c0.534,0,0.85-0.133,0.95-0.4c0.067-0.4,0.183-0.75,0.35-1.05
	c0.133-0.233,0.483-0.467,1.05-0.7C23.717,17.417,24,17.45,24,17.75z"/>
<path fill-rule="evenodd" clip-rule="evenodd" fill="#333399" d="M23.65,18.15L23.5,18.7c0,0.033,0.05,0.167,0.15,0.4
	c0,0.2-0.05,0.3-0.15,0.3c-0.167-0.033-0.3-0.05-0.4-0.05c-0.5,0.667-0.867,1-1.1,1c-0.133,0-0.217-0.05-0.25-0.15l-0.05-0.15
	c0-0.167,0.333-0.7,1-1.6C23.333,17.55,23.65,17.45,23.65,18.15z"/>
<path fill-rule="evenodd" clip-rule="evenodd" fill="#333399" d="M13.2,24.65c0,0.2,0.233,0.4,0.7,0.6
	c0.4,0.167,0.717,0.25,0.95,0.25l0.5-0.1c0.233,0,0.367,0.067,0.4,0.2c0.433,0,1.017-0.217,1.75-0.65c0.7-0.434,1.05-0.75,1.05-0.95
	c0-0.633-0.55-0.65-1.65-0.05c-0.367,0.233-1.583,0.433-3.65,0.6L13.2,24.65z M13.3,23.95c1.067,0,2.217-0.233,3.45-0.7
	s2.017-0.7,2.35-0.7c0.267,0,0.4,0.117,0.4,0.35c0,0.133-0.05,0.233-0.15,0.3l0.15,0.35c0,0.567-0.45,1.15-1.35,1.75
	c-0.944,0.619-2.036,0.936-3.275,0.95H14.85c-1.8-0.207-2.7-0.707-2.7-1.5c0-0.6,0.133-0.9,0.4-0.9L13.3,23.95z"/>
<path fill-rule="evenodd" clip-rule="evenodd" fill="#333399" d="M16.35,23.35c0,0.2-0.383,0.383-1.15,0.55
	c-0.667,0.133-1.217,0.2-1.65,0.2c-0.233,0-0.383-0.05-0.45-0.15l-0.05-0.15c0-0.167,0.083-0.267,0.25-0.3
	c0.733-0.1,1.117-0.15,1.15-0.15l1.6-0.3C16.217,23.05,16.317,23.15,16.35,23.35z"/>
<path fill-rule="evenodd" clip-rule="evenodd" fill="#333399" d="M16.7,25.4c0.066,0.033,0.1,0.133,0.1,0.3c0,0.2-0.167,0.3-0.5,0.3
	c-0.466,0-0.7-0.117-0.7-0.35c0-0.2,0.217-0.3,0.65-0.3C16.483,25.35,16.633,25.367,16.7,25.4z"/>
<path fill-rule="evenodd" clip-rule="evenodd" fill="#3333FF" d="M7.25,6c0.2,0,0.333,0.2,0.4,0.6c0.033,0.2,0.067,0.433,0.1,0.7
	c0.067,0.233,0.233,0.45,0.5,0.65c0.267,0.167,0.4,0.35,0.4,0.55c-0.867,1.833-1.333,2.75-1.4,2.75c-0.3,0-0.65-0.4-1.05-1.2
	C5.8,9.217,5.55,8.733,5.45,8.6c-0.3-0.367-0.833-0.85-1.6-1.45c-0.667-0.533-1-0.816-1-0.85c0-0.267,0.233-0.4,0.7-0.4l1.5,0.25
	H5.8C5.8,6.05,6.283,6,7.25,6z"/>
<path fill-rule="evenodd" clip-rule="evenodd" fill="#3333FF" d="M16.35,4.25c0.4,0.433,0.6,0.817,0.6,1.15
	c0,0.167-0.1,0.267-0.3,0.3c-0.533,0.033-1.033,0.117-1.5,0.25c-0.533,0.133-1.367,0.2-2.5,0.2c-0.566,0-0.933-0.15-1.1-0.45
	c-0.066-0.333-0.133-0.534-0.2-0.6c-0.633-0.633-0.95-1-0.95-1.1c0-0.2,0.15-0.433,0.45-0.7c0.467-0.433,0.717-0.667,0.75-0.7
	c0.1-0.133,0.233-0.383,0.4-0.75c0.2-0.333,0.417-0.5,0.65-0.5l2.6,1.95C15.883,3.833,16.25,4.15,16.35,4.25z"/>
<path fill-rule="evenodd" clip-rule="evenodd" fill="#000033" d="M7.25,12.7c-0.133,0-0.217-0.05-0.25-0.15L6.95,12.4
	c0-0.1,0.167-0.483,0.5-1.15c0.333-0.667,0.517-1.1,0.55-1.3c0.033-0.2,0.25-0.633,0.65-1.3c0.1-0.4,0.2-0.633,0.3-0.7
	c0.3-0.267,0.5-0.184,0.6,0.25C8.183,11.2,7.417,12.7,7.25,12.7z"/>
<path fill-rule="evenodd" clip-rule="evenodd" fill="#000033" d="M5.95,10.8c-1-1.267-1.5-1.95-1.5-2.05c0-0.5,0.2-0.583,0.6-0.25
	c0.2,0.2,0.483,0.517,0.85,0.95c0.133,0.2,0.383,0.483,0.75,0.85c0.2,0.2,0.3,0.434,0.3,0.7l0.55,1.4c0,0.233-0.117,0.35-0.35,0.35
	c-0.133,0-0.35-0.283-0.65-0.85C6.2,11.3,6.017,10.933,5.95,10.8z"/>
<path fill-rule="evenodd" clip-rule="evenodd" fill="#000033" d="M12.4,6.9c0,0.333-0.133,0.733-0.4,1.2C11.667,8.7,11.233,9,10.7,9
	C9.533,9,8.95,8.85,8.95,8.55c0-0.2,0.117-0.3,0.35-0.3l1.1,0.15l0.5-0.05c0.133-0.1,0.333-0.467,0.6-1.1
	c0.267-0.567,0.467-0.85,0.6-0.85C12.3,6.4,12.4,6.567,12.4,6.9z"/>
<path fill-rule="evenodd" clip-rule="evenodd" fill="#000033" d="M17.45,6.4c0,0.167-0.083,0.267-0.25,0.3
	c-0.333,0.033-0.684,0.066-1.05,0.1c-1.733,0.167-2.7,0.25-2.9,0.25c-1.033,0-1.55-0.15-1.55-0.45c0-0.2,0.117-0.3,0.35-0.3
	c0.2,0,0.583,0.05,1.15,0.15c0.4,0,1.683-0.133,3.85-0.4C17.317,6.05,17.45,6.167,17.45,6.4z"/>
<path fill-rule="evenodd" clip-rule="evenodd" fill="#000033" d="M23.9,9.3C23.667,9,23.367,8.65,23,8.25
	c-0.667-0.8-1.417-1.433-2.25-1.9c-0.933-0.533-1.583-0.967-1.95-1.3c-1.466-0.7-2.2-1.167-2.2-1.4c0-0.533,0.433-0.5,1.3,0.1
	c1.767,1.167,2.833,1.85,3.2,2.05c2.1,1.4,3.15,2.467,3.15,3.2C24.25,9.2,24.133,9.3,23.9,9.3z"/>
<path fill-rule="evenodd" clip-rule="evenodd" fill="#000033" d="M16.5,3.95c0-0.767,0.317-0.65,0.95,0.35
	c0.6,1.034,0.9,1.784,0.9,2.25c0,0.267-0.45,0.4-1.35,0.4c-0.133,0-0.217-0.05-0.25-0.15L16.7,6.65c0-0.1,0.066-0.2,0.2-0.3
	c0.2-0.133,0.417-0.184,0.65-0.15c-0.066-0.233-0.267-0.667-0.6-1.3C16.65,4.3,16.5,3.983,16.5,3.95z"/>
<path fill-rule="evenodd" clip-rule="evenodd" fill="#000033" d="M14.3,2c-0.233,0-0.583-0.217-1.05-0.65
	c-0.467-0.434-0.7-0.733-0.7-0.9c0-0.534,0.35-0.517,1.05,0.05c0.667,0.533,1,0.917,1,1.15S14.5,2,14.3,2z"/>
<path fill-rule="evenodd" clip-rule="evenodd" fill="#000033" d="M3.1,7.65c-0.033,0-0.85-0.533-2.45-1.6c0-0.4,0.467-0.367,1.4,0.1
	c0.9,0.467,1.35,0.867,1.35,1.2C3.4,7.55,3.3,7.65,3.1,7.65z"/>
<path fill-rule="evenodd" clip-rule="evenodd" fill="#000033" d="M2,12.05c-0.067,0.133-0.2,0.483-0.4,1.05
	c-0.233,0.467-0.417,0.7-0.55,0.7c-0.2,0-0.3-0.133-0.3-0.4c0-0.433,0.383-1.267,1.15-2.5C2.633,9.633,3,9.4,3,10.2
	C3,10.533,2.667,11.15,2,12.05z"/>
<path fill-rule="evenodd" clip-rule="evenodd" fill="#000033" d="M2.75,13.5c0,0.167-0.1,0.567-0.3,1.2l0.1,0.4L2.1,16.95l0.25,2.4
	c0,0.233-0.117,0.35-0.35,0.35s-0.433-0.333-0.6-1c-0.133-0.5-0.2-0.9-0.2-1.2s0.066-0.717,0.2-1.25c0.2-0.7,0.317-1.117,0.35-1.25
	c0-0.3,0.1-0.7,0.3-1.2c0.067-0.3,0.2-0.5,0.4-0.6C2.65,13.1,2.75,13.2,2.75,13.5z"/>
<path fill-rule="evenodd" clip-rule="evenodd" fill="#000033" d="M6.35,27.1c-0.3,0-0.917-0.267-1.85-0.8
	c-0.933-0.533-1.4-0.883-1.4-1.05c0-0.4,0.6-0.267,1.8,0.4c1.167,0.667,1.75,1.05,1.75,1.15C6.65,27,6.55,27.1,6.35,27.1z"/>
<path fill-rule="evenodd" clip-rule="evenodd" fill="#000033" d="M13.6,28.8c0.133,0.034,0.2,0.133,0.2,0.3
	c0,0.233-0.117,0.35-0.35,0.35H12c-0.2-0.067-0.933-0.267-2.2-0.6c-0.966-0.233-1.767-0.533-2.4-0.9c-2.667-1.434-4-2.284-4-2.55
	c0-0.433,0.467-0.35,1.4,0.25c0.5,0.3,1.284,0.783,2.35,1.45c0.6,0.367,1.4,0.717,2.4,1.05c0.567,0.167,1.417,0.4,2.55,0.7
	C12.9,28.783,13.4,28.767,13.6,28.8z"/>
<path fill-rule="evenodd" clip-rule="evenodd" fill="#000033" d="M13.7,28.95c0,0.2-0.1,0.3-0.3,0.3c-1.233,0-2.917-0.4-5.05-1.2
	l-2.05-1c-0.4-0.133-0.733-0.267-1-0.4c-0.5-0.2-0.75-0.367-0.75-0.5c0-0.233,0.2-0.35,0.6-0.35c0.267,0,0.934,0.3,2,0.9
	c1.167,0.633,1.833,0.983,2,1.05c0.6,0.2,1.617,0.417,3.05,0.65C13.2,28.567,13.7,28.75,13.7,28.95z"/>
<path fill-rule="evenodd" clip-rule="evenodd" fill="#000033" d="M8.85,22.1c-0.767,0.533-1.25,0.8-1.45,0.8
	c-0.133,0-0.217-0.05-0.25-0.15L7.1,22.6c0-0.3,0.417-0.633,1.25-1c0.533-0.233,1-0.4,1.4-0.5c0.167-0.1,0.65-0.317,1.45-0.65
	c0.933-0.367,1.55-0.55,1.85-0.55c0.167,0,0.267,0.1,0.3,0.3c0,0.133-0.117,0.25-0.35,0.35c-0.267,0.133-0.417,0.25-0.45,0.35
	c-0.033,0.033-0.083,0.133-0.15,0.3c-0.066,0.167-0.167,0.316-0.3,0.45c-0.7,0.6-1.417,0.9-2.15,0.9
	C9.183,22.55,8.817,22.4,8.85,22.1z M9.5,21.9h0.8c0.534-0.2,1.017-0.483,1.45-0.85L11.8,21l-2.2,0.85L9.5,21.9z"/>
<path fill-rule="evenodd" clip-rule="evenodd" fill="#000033" d="M23.95,17.3c0,0.2-0.25,0.417-0.75,0.65
	c-0.567,0.267-0.934,0.533-1.1,0.8c-0.2,0.367-0.383,0.633-0.55,0.8c-0.267,0.333-0.583,0.5-0.95,0.5c-1.133,0-1.7-0.216-1.7-0.65
	c0-0.1,0.033-0.167,0.1-0.2v-0.05c-0.6,0.533-1,0.8-1.2,0.8c-0.133,0-0.216-0.05-0.25-0.15l-0.05-0.15c0-0.3,0.45-0.683,1.35-1.15
	c0.733-0.367,1.25-0.583,1.55-0.65c0.633-0.267,1.267-0.483,1.9-0.65C23.4,16.9,23.95,16.933,23.95,17.3z M20,19.2
	c0.967,0,1.517-0.35,1.65-1.05c-0.6,0.133-1.383,0.417-2.35,0.85l-0.1,0.05c0.2,0,0.333,0.034,0.4,0.1
	C19.7,19.183,19.833,19.2,20,19.2z"/>
<path fill-rule="evenodd" clip-rule="evenodd" fill="#24246F" d="M2.8,17.9l0.65,1.75c0.133,0.3,0.3,0.817,0.5,1.55
	c0.267,0.633,0.633,1.183,1.1,1.65c0.367,0.367,0.817,0.85,1.35,1.45c0.567,0.534,1.417,1.034,2.55,1.5
	c0.767,0.333,1.7,0.75,2.8,1.25c0.967,0.367,2.117,0.567,3.45,0.6v0.05h0.45c0.067-0.133,0.733-0.2,2-0.2
	c0.633,0,0.95,0.15,0.95,0.45c0,0.2-0.133,0.333-0.4,0.4c-0.333,0.066-1.017,0.083-2.05,0.05c-0.167,0.233-0.3,0.35-0.4,0.35
	l-2.35-0.1l-1.05-0.15l-0.4,0.1c-2.4-0.8-4.017-1.333-4.85-1.6c-0.867-0.3-1.567-0.717-2.1-1.25c-0.267-0.233-0.483-0.417-0.65-0.55
	c-0.267-0.267-0.434-0.517-0.5-0.75c-0.1-0.4-0.317-0.917-0.65-1.55c-0.333-0.667-0.567-1.2-0.7-1.6c-0.067-0.233-0.2-0.75-0.4-1.55
	C1.867,18.817,1.75,18.233,1.75,18c0-0.267,0.1-0.383,0.3-0.35L1.9,17c0-0.233,0.083-0.383,0.25-0.45c0.2-0.1,0.35,0.034,0.45,0.4
	C2.6,17.25,2.667,17.567,2.8,17.9z"/>
<path fill-rule="evenodd" clip-rule="evenodd" fill="#24246F" d="M2.5,17.55l0.4,1.3c0,0.2-0.117,0.3-0.35,0.3
	c-0.167,0-0.45-0.4-0.85-1.2l0.1-0.3l-0.1-0.6c0-0.566,0.167-0.883,0.5-0.95c0.3-0.067,0.45,0.15,0.45,0.65L2.5,17.55z"/>
<path fill-rule="evenodd" clip-rule="evenodd" fill="#24246F" d="M18.55,28.1c-0.3,0-0.5-0.05-0.6-0.15L17.9,27.8
	c0-0.133,0.083-0.216,0.25-0.25c0.133,0,0.417-0.05,0.85-0.15c0-0.033,0.167-0.1,0.5-0.2c0.367-0.1,0.617-0.15,0.75-0.15
	c0.2,0,0.3,0.1,0.3,0.3c0,0.133-0.267,0.3-0.8,0.5C19.217,28.017,18.817,28.1,18.55,28.1z"/>
<path fill-rule="evenodd" clip-rule="evenodd" fill="#24246F" d="M11.8,28.75c-0.233,0-0.867-0.183-1.9-0.55
	c-1.066-0.4-1.6-0.684-1.6-0.85c0-0.3,0.65-0.217,1.95,0.25c1.267,0.433,1.9,0.717,1.9,0.85C12.15,28.65,12.033,28.75,11.8,28.75z"
	/>
<path fill-rule="evenodd" clip-rule="evenodd" fill="#24246F" d="M9.45,9.2c0,0.233-0.333,0.966-1,2.2c-0.667,1.2-1.067,1.8-1.2,1.8
	c-0.1,0-1.033-1.317-2.8-3.95L4.5,9.1c0.033,0,0.083-0.017,0.15-0.05l1.5,1.75c0.233,0.233,0.434,0.534,0.6,0.9
	c0.2,0.433,0.367,0.75,0.5,0.95C8.217,10.983,8.7,10.067,8.7,9.9c0-0.066,0.183-0.417,0.55-1.05C9.383,8.883,9.45,9,9.45,9.2z"/>
<path fill-rule="evenodd" clip-rule="evenodd" fill="#24246F" d="M12.75,7.2c0,0.333-0.233,0.85-0.7,1.55
	c-0.533,0.733-1,1.1-1.4,1.1c-0.5,0-0.9-0.133-1.2-0.4C9.25,9.183,9.133,9.033,9.1,9c0.033-0.133,0.133-0.2,0.3-0.2
	c0.067,0,0.117-0.033,0.15-0.1c0.1,0,0.4,0.083,0.9,0.25c0.833,0,1.383-0.284,1.65-0.85c0.133-0.3,0.283-0.684,0.45-1.15
	C12.683,7.017,12.75,7.1,12.75,7.2z"/>
<path fill-rule="evenodd" clip-rule="evenodd" fill="#24246F" d="M12.7,7.25c0,0.2-0.1,0.483-0.3,0.85
	c-0.233,0.333-0.45,0.566-0.65,0.7L11.6,8.75L11.55,8.6c0-0.167,0.2-0.45,0.6-0.85c0.033-0.2,0.067-0.35,0.1-0.45
	c0.033-0.233,0.117-0.383,0.25-0.45C12.633,6.883,12.7,7.017,12.7,7.25z"/>
<path fill-rule="evenodd" clip-rule="evenodd" fill="#333399" d="M12.95,7.4l-0.4-0.2c0.167-0.2,1.067-0.35,2.7-0.45
	c1.067-0.067,1.917-0.1,2.55-0.1c0.2,0,0.417-0.033,0.65-0.1c0.133,0,0.2,0.117,0.2,0.35s-0.283,0.35-0.85,0.35l-0.85-0.1
	c-0.567,0-1.184,0.083-1.85,0.25H12.95z"/>
<path fill-rule="evenodd" clip-rule="evenodd" fill="#333399" d="M2.85,6.4c0-0.167,0.066-0.283,0.2-0.35l4,3.65H7.5l0.95-1.5
	c0.167,0,0.25,0.083,0.25,0.25c-0.767,1.9-1.25,2.85-1.45,2.85c-0.233,0-0.55-0.35-0.95-1.05C5.933,9.45,5.667,8.933,5.5,8.7
	C4.967,8.167,4.517,7.783,4.15,7.55C3.283,6.917,2.85,6.533,2.85,6.4z"/>
<path fill-rule="evenodd" clip-rule="evenodd" fill="#333399" d="M11,6.35c0.133,0,0.2,0.117,0.2,0.35c0,0.267-0.1,0.566-0.3,0.9
	c-0.267,0.4-0.6,0.6-1,0.6c-1.233,0-1.85-0.717-1.85-2.15c0-0.167,0.067-0.233,0.2-0.2L8.7,6.6c0.4,0.5,0.8,0.75,1.2,0.75
	c0.434,0,0.7-0.133,0.8-0.4C10.833,6.583,10.933,6.383,11,6.35z"/>
<path fill-rule="evenodd" clip-rule="evenodd" fill="#333399" d="M12.85,6.3c-0.567,0-1.033-0.2-1.4-0.6
	c-0.267-0.3-0.4-0.55-0.4-0.75c0-0.067-0.117-0.217-0.35-0.45c-0.267-0.233-0.4-0.4-0.4-0.5c0-0.433,0.434-0.133,1.3,0.9
	c0.133,0.167,0.583,0.333,1.35,0.5c0.667,0.167,1,0.367,1,0.6C13.95,6.2,13.583,6.3,12.85,6.3z"/>
<path fill-rule="evenodd" clip-rule="evenodd" fill="#333399" d="M16.25,6c-0.633,0.233-1.233,0.35-1.8,0.35
	c-0.8,0-1.2-0.083-1.2-0.25l0.4-0.4c0.9,0,1.8-0.1,2.7-0.3c0.5-0.1,0.75-0.066,0.75,0.1C17.1,5.6,16.817,5.767,16.25,6z"/>
</svg>
