<?xml version="1.0" encoding="utf-8"?>
<!-- Generator: Adobe Illustrator 16.0.0, SVG Export Plug-In . SVG Version: 6.00 Build 0)  -->
<!DOCTYPE svg PUBLIC "-//W3C//DTD SVG 1.1//EN" "http://www.w3.org/Graphics/SVG/1.1/DTD/svg11.dtd">
<svg version="1.1" id="Selected_Items" xmlns="http://www.w3.org/2000/svg" xmlns:xlink="http://www.w3.org/1999/xlink" x="0px"
	 y="0px" width="550px" height="400px" viewBox="0 0 550 400" enable-background="new 0 0 550 400" xml:space="preserve">
<path fill-rule="evenodd" clip-rule="evenodd" fill="#336600" d="M295.4,114.6c0,0.467-1.051,1.316-3.15,2.55
	c-2.333,1.367-4.384,2.05-6.15,2.05c-1.8,0-3.649-0.95-5.55-2.85c-1.566-1.567-2.35-2.567-2.35-3l2.25-2.4
	c1.866-1.467,3.717-1.883,5.55-1.25c0.634,0.333,1.583,1.233,2.85,2.7c0.667,0.8,2.384,1.2,5.15,1.2
	C294.934,113.6,295.4,113.933,295.4,114.6z"/>
<path fill-rule="evenodd" clip-rule="evenodd" fill="#336600" d="M279.6,113.95c-0.5,0.433-1.166,0.65-2,0.65
	c-1.866,0-2.983-0.184-3.35-0.55c-12.967,1.467-19.45,8.284-19.45,20.45c0,3.033,0.367,5.733,1.1,8.1s1.1,3.9,1.1,4.6
	c0,0.933-0.333,1.4-1,1.4c-0.833,0-1.684-1.717-2.55-5.15c-0.7-3.4-1.05-5.117-1.05-5.15l0.2-3.75c0-10.633,4.6-17.833,13.8-21.6
	c3.233-1.333,6.4-1.967,9.5-1.9c2.866,0.067,4.3,0.6,4.3,1.6C280.2,113.15,280,113.583,279.6,113.95z"/>
<path fill-rule="evenodd" clip-rule="evenodd" fill="#3D7900" d="M284.75,114c-0.3,0-0.634-0.067-1-0.2
	c-0.533-0.167-1.384-0.3-2.55-0.4c-1.434-0.167-2.15-0.367-2.15-0.6c0-0.3,0.483-0.367,1.45-0.2c1.7,0.267,2.566,0.4,2.6,0.4
	c1.334,0.367,2,0.617,2,0.75C285.1,113.917,284.983,114,284.75,114z"/>
<path fill-rule="evenodd" clip-rule="evenodd" fill="#3D7900" d="M291.1,115.2c0.467-0.133,1.834-0.633,4.101-1.5
	c0.2,0,0.3,0.1,0.3,0.3c0,0.3-1.45,0.867-4.35,1.7h-1.45c-0.533,0.066-1.533-0.15-3-0.65c-1.5-0.533-2.25-0.966-2.25-1.3
	c0-0.367,0.283-0.383,0.85-0.05c0.3,0.167,0.667,0.383,1.101,0.65c0.8,0.367,1.916,0.65,3.35,0.85H291.1z"/>
<path fill-rule="evenodd" clip-rule="evenodd" fill="#3D7900" d="M290.7,115.2c-0.101,0-0.167-0.034-0.2-0.1l-0.05-0.15
	c0-0.1,0.35-0.4,1.05-0.9c0.667-0.5,1-0.583,1-0.25C291.733,114.733,291.134,115.2,290.7,115.2z"/>
<path fill-rule="evenodd" clip-rule="evenodd" fill="#3D7900" d="M290.65,117.65c-0.2,0-0.601-0.383-1.2-1.15l-0.851-1.05
	c0-0.633,0.4-0.5,1.2,0.4c0.367,0.467,0.75,0.983,1.15,1.55C290.95,117.567,290.85,117.65,290.65,117.65z"/>
<path fill-rule="evenodd" clip-rule="evenodd" fill="#3D7900" d="M288.25,113.65c-0.9,0.5-1.566,0.75-2,0.75
	c-0.134,0-0.217-0.033-0.25-0.1l-0.05-0.15c0-0.133,0.316-0.333,0.95-0.6c0.433-0.167,0.8-0.283,1.1-0.35
	c0.167-0.1,0.483-0.367,0.95-0.8c0.399-0.267,0.6-0.183,0.6,0.25C289.55,112.817,289.116,113.15,288.25,113.65z"/>
<path fill-rule="evenodd" clip-rule="evenodd" fill="#3D7900" d="M285.1,111.1c0.467-0.367,0.7-0.367,0.7,0l-3.05,2.15
	c-0.066,0-0.134-0.033-0.2-0.1L282.5,113c0-0.2,0.517-0.617,1.55-1.25L285.1,111.1z"/>
<path fill-rule="evenodd" clip-rule="evenodd" fill="#3D7900" d="M285.7,118.45c0,0.167-0.101,0.25-0.3,0.25
	c-0.267,0-0.634-0.35-1.101-1.05c-0.467-0.833-0.783-1.383-0.95-1.65c-0.399-0.6-0.683-1.017-0.85-1.25
	c-0.233-0.433-0.35-0.85-0.35-1.25c0-0.567,0.199-0.5,0.6,0.2c0.233,0.4,0.55,1.017,0.95,1.85L285.7,118.45z"/>
<path fill-rule="evenodd" clip-rule="evenodd" fill="#3D7900" d="M288.55,117.95c0,0.167-0.1,0.25-0.3,0.25
	c-0.167,0-0.366-0.217-0.6-0.65c-0.301-0.6-0.483-0.933-0.551-1c-0.366-0.4-0.633-0.716-0.8-0.95c-0.333-0.4-0.5-0.7-0.5-0.9
	c0-0.5,0.184-0.517,0.55-0.05c0.2,0.267,0.534,0.717,1,1.35C288.15,116.967,288.55,117.617,288.55,117.95z"/>
<path fill-rule="evenodd" clip-rule="evenodd" fill="#112200" d="M252.55,137.65c0.167,0.267,0.25,0.633,0.25,1.1l0.3,1.45
	c0.1,0.466,0.25,1.066,0.45,1.8c0.1,0.3,0.15,0.733,0.15,1.3c0,0.267,0.3,1.133,0.9,2.6c0.566,1.5,0.85,2.367,0.85,2.6
	c0,0.167-0.067,0.25-0.2,0.25c-0.067,0-0.2-0.267-0.4-0.8c-0.3-0.7-0.5-1.134-0.6-1.3c-0.434-1.1-0.65-1.783-0.65-2.05
	c0-0.133-0.083-0.35-0.25-0.65c-0.167-0.3-0.25-0.517-0.25-0.65c0.066-0.066,0.1-0.15,0.1-0.25l-0.95-5.2
	C252.25,137.483,252.35,137.417,252.55,137.65z"/>
<path fill-rule="evenodd" clip-rule="evenodd" fill="#112200" d="M255.1,137.55c0,0.3,0.05,0.867,0.15,1.7
	c0,0.167,0.133,0.633,0.4,1.4c0.233,0.767,0.35,1.317,0.35,1.65c0.933,3.333,1.4,5.067,1.4,5.2c0,0.167-0.066,0.25-0.2,0.25
	c-0.167,0-0.35-0.367-0.55-1.1c-0.133-0.566-0.233-1.05-0.3-1.45c-0.567-1.567-0.85-2.4-0.85-2.5c0.066-0.067,0.1-0.134,0.1-0.2
	c-0.567-1.767-0.85-2.883-0.85-3.35c0.066-0.066,0.1-0.133,0.1-0.2l-0.15-1.25c0-0.467,0.066-0.767,0.2-0.9
	C255.033,136.7,255.1,136.95,255.1,137.55z"/>
<path fill-rule="evenodd" clip-rule="evenodd" fill="#112200" d="M254.25,125.6l-0.7,2.15c-0.1,0.267-0.15,1.1-0.15,2.5
	c-0.233,3.267-0.467,4.9-0.7,4.9c-0.134,0-0.2-0.066-0.2-0.2v-0.2c0-0.667,0.083-1.4,0.25-2.2v-2.4l0.2-0.75l-0.1-0.4
	c0.3-1.167,0.45-1.85,0.45-2.05c0-0.8,0.3-1.3,0.9-1.5L254.25,125.6z"/>
<path fill-rule="evenodd" clip-rule="evenodd" fill="#112200" d="M253,132.45c0,0.533-0.05,1.216-0.15,2.05l0.1,1.3
	c-0.034,1.267-0.134,1.9-0.3,1.9s-0.25-0.083-0.25-0.25l0.1-0.95l-0.1-1.75c0-0.333,0.017-0.684,0.05-1.05
	c0.033-0.767,0.15-1.267,0.35-1.5C252.933,132.267,253,132.35,253,132.45z"/>
<path fill-rule="evenodd" clip-rule="evenodd" fill="#112200" d="M252.55,138.55c-0.133,0-0.2-0.167-0.2-0.5v-1.35
	c0.233-0.1,0.383-0.1,0.45,0c0.034,0.033,0.05,0.15,0.05,0.35C252.85,138.05,252.75,138.55,252.55,138.55z"/>
<path fill-rule="evenodd" clip-rule="evenodd" fill="#112200" d="M255.65,129.85c0,0.867-0.1,1.966-0.3,3.3
	c-0.233,1.367-0.35,2.5-0.35,3.4c-0.067,0.633-0.15,0.95-0.25,0.95c-0.133,0-0.233-0.383-0.3-1.15c-0.067-0.567-0.1-0.983-0.1-1.25
	c0-0.3,0.083-0.45,0.25-0.45v-2c0.1-0.233,0.2-0.8,0.3-1.7c0.067-0.733,0.25-1.267,0.55-1.6
	C255.583,129.45,255.65,129.617,255.65,129.85z"/>
<path fill-rule="evenodd" clip-rule="evenodd" fill="#112200" d="M255.65,129.05c-0.233,0.6-0.35,1-0.35,1.2
	c-0.033,0.233-0.066,0.733-0.1,1.5c-0.034,0.633-0.134,0.95-0.3,0.95c-0.133,0-0.2-0.067-0.2-0.2v-0.2c0-0.667,0.133-1.6,0.4-2.8
	c0.267-1.267,0.5-1.917,0.7-1.95c0.133,0.067,0.2,0.15,0.2,0.25C256,128.066,255.883,128.483,255.65,129.05z"/>
<path fill-rule="evenodd" clip-rule="evenodd" fill="#112200" d="M256.6,125.35c0,0.167-0.3,1.05-0.9,2.65
	c-0.134,0.5-0.317,1.433-0.55,2.8c-0.133,0-0.2-0.117-0.2-0.35c0-0.233,0-0.367,0-0.4c0-0.667,0.167-1.583,0.5-2.75
	c0.333-1.167,0.65-1.883,0.95-2.15L256.6,125.35z"/>
<path fill-rule="evenodd" clip-rule="evenodd" fill="#112200" d="M256.1,126.4c0,0.167-0.034,0.633-0.1,1.4
	c-0.067,0.733-0.184,1.1-0.35,1.1l-0.15-0.05l-0.05-0.2c0-0.8,0.133-1.717,0.4-2.75c0.3-1,0.633-1.767,1-2.3l0.2,0.2
	c0,0.067-0.15,0.434-0.45,1.1C256.3,125.6,256.133,126.1,256.1,126.4z"/>
<path fill-rule="evenodd" clip-rule="evenodd" fill="#112200" d="M257.55,122.55c-0.633,2.233-1.133,3.633-1.5,4.2l-0.15-0.05
	l-0.05-0.15c0-0.233,0.183-0.883,0.55-1.95c0.4-1.167,0.717-1.934,0.95-2.3C257.483,122.4,257.55,122.483,257.55,122.55z"/>
<path fill-rule="evenodd" clip-rule="evenodd" fill="#112200" d="M257.35,123.65c-0.467,1.367-0.767,2.05-0.9,2.05
	c-0.134,0-0.2-0.083-0.2-0.25c0-0.3,0.4-1.15,1.2-2.55c0.767-1.4,1.15-1.8,1.15-1.2C258.6,121.8,258.183,122.45,257.35,123.65z"/>
<path fill-rule="evenodd" clip-rule="evenodd" fill="#112200" d="M257.15,120c0,0.2-0.35,0.933-1.05,2.2
	c-0.133,0.2-0.317,0.633-0.55,1.3c-0.2,0.533-0.333,0.8-0.4,0.8c-0.1-0.1-0.167-0.15-0.2-0.15l-1.4,3.25
	c-0.133,0-0.2-0.083-0.2-0.25c0.767-2.467,1.183-3.733,1.25-3.8l1.3-1.95c0.233-0.5,0.5-0.917,0.8-1.25
	C257,119.75,257.15,119.7,257.15,120z"/>
<path fill-rule="evenodd" clip-rule="evenodd" fill="#112200" d="M274.6,113.7l0.2,0.2c0,0.2-0.483,0.4-1.45,0.6
	c-1.067,0.2-1.717,0.317-1.95,0.35c-1.033,0.133-2.083,0.367-3.15,0.7c-1.9,0.6-3.434,1.284-4.6,2.05
	c-1.3,0.767-2.383,1.583-3.25,2.45c-0.133,0.1-0.533,0.6-1.2,1.5c-0.534,0.7-0.917,1.05-1.15,1.05c-0.133,0-0.2-0.083-0.2-0.25
	c0-0.567,0.2-1.017,0.6-1.35l0.2,0.2c1.267-1.633,2.067-2.45,2.4-2.45l2.15-1.4c1.633-1,2.9-1.633,3.8-1.9
	C268.133,115.083,270.667,114.5,274.6,113.7z"/>
<path fill-rule="evenodd" clip-rule="evenodd" fill="#112200" d="M274.15,110.95l0.2,0.2l-0.2,0.25c-0.9,0.2-2.083,0.517-3.55,0.95
	c-1.267,0.367-2.383,0.633-3.35,0.8c-0.633,0.1-1.333,0.383-2.1,0.85c-1.367,0.833-2.066,1.267-2.1,1.3
	c-0.9,0.434-1.933,1.233-3.1,2.4l-2.85,2.55c-0.034-0.067-0.1-0.1-0.2-0.1c-0.066,0.067-0.117,0.1-0.15,0.1l-0.15-0.05l-0.05-0.15
	c0-0.066,0.317-0.4,0.95-1c0.333-0.3,0.65-0.583,0.95-0.85c-0.067-0.034-0.1-0.083-0.1-0.15c0-0.167,0.667-0.767,2-1.8
	c1.333-1.033,2.083-1.55,2.25-1.55c0.167,0,0.883-0.4,2.15-1.2c0.2-0.133,1.1-0.45,2.7-0.95c1.3-0.466,2.3-0.767,3-0.9
	C270.65,111.583,271.883,111.35,274.15,110.95z"/>
<path fill-rule="evenodd" clip-rule="evenodd" fill="#112200" d="M259.3,120.85c0,0.167-0.2,0.367-0.6,0.6
	c-0.2,0.1-0.35,0.35-0.45,0.75c-0.467,0.867-0.817,1.3-1.05,1.3l-0.2-0.05l-0.05-0.2c0-0.067,0.316-0.483,0.95-1.25
	s1.033-1.233,1.2-1.4C259.233,120.7,259.3,120.783,259.3,120.85z"/>
<path fill-rule="evenodd" clip-rule="evenodd" fill="#112200" d="M279.6,114.95c0,0.133-0.083,0.2-0.25,0.2
	c-0.033,0-0.216-0.133-0.55-0.4c-0.333-0.233-0.616-0.333-0.85-0.3h-1.9c-0.399-0.067-0.866-0.117-1.4-0.15l-0.2-0.2l0.2-0.2h0.6
	l-0.1-0.1c0-0.167,0.083-0.25,0.25-0.25c0.033,0,0.3,0.1,0.8,0.3c0.467,0.167,0.95,0.217,1.45,0.15h0.75l-0.101-0.45
	c0-0.566,0.217-0.417,0.65,0.45C279.017,114.2,279.233,114.517,279.6,114.95z"/>
<path fill-rule="evenodd" clip-rule="evenodd" fill="#112200" d="M276.25,110.8c2.267,0.233,3.4,0.567,3.4,1
	c0,0.133-0.101,0.2-0.301,0.2l-2.399-0.55h-2.7c-0.133-0.1-0.2-0.184-0.2-0.25l0.05-0.05c-0.1-0.066-0.15-0.133-0.15-0.2
	c0-0.1,0.066-0.167,0.2-0.2c0.133-0.067,0.25-0.05,0.35,0.05H276.25z"/>
<path fill-rule="evenodd" clip-rule="evenodd" fill="#112200" d="M287.1,111.05c-0.166,0-0.433-0.183-0.8-0.55
	c-0.5-0.467-0.783-0.717-0.85-0.75h-0.8c-1,0.1-1.7,0.233-2.101,0.4c-0.2,0.1-0.517,0.333-0.95,0.7
	c-0.699,0.467-1.383,0.867-2.05,1.2l-0.2-0.05c-0.033,0-0.05-0.05-0.05-0.15s0.601-0.617,1.8-1.55
	c0.567-0.533,1.584-0.883,3.051-1.05c0.833-0.233,1.6-0.083,2.3,0.45c0.6,0.433,0.899,0.8,0.899,1.1
	C287.35,110.967,287.267,111.05,287.1,111.05z"/>
<path fill-rule="evenodd" clip-rule="evenodd" fill="#112200" d="M284.4,119.1c-0.601-0.233-0.95-0.35-1.051-0.35
	c-0.466,0-1.283-0.583-2.449-1.75c-1.134-1.133-1.7-1.817-1.7-2.05c0-0.067,0.05-0.133,0.149-0.2l-1-1.45
	c0-0.167,0.067-0.25,0.2-0.25c0.066,0.067,0.217,0.3,0.45,0.7c0.167,0.3,0.35,0.533,0.55,0.7c0.066,0.033,0.217,0.216,0.45,0.55
	c0.267,0.333,0.4,0.55,0.4,0.65c0,0.333,0.616,0.917,1.85,1.75c1.2,0.767,1.983,1.167,2.35,1.2h1.601
	c0.833,0.167,1.684,0.033,2.55-0.4c0.967-0.5,1.533-0.75,1.7-0.75c0.166,0,0.233,0.066,0.2,0.2c0,0.167-0.65,0.5-1.95,1
	c-1.3,0.467-2.134,0.7-2.5,0.7l-0.351-0.1l-0.05,0.1c-0.033,0.033-0.116,0.05-0.25,0.05C285.417,119.4,285.033,119.3,284.4,119.1z"
	/>
<path fill-rule="evenodd" clip-rule="evenodd" fill="#204000" d="M288.45,119.25l-0.351-0.2c0.067-0.167,0.167-0.25,0.301-0.25
	c0.166,0,0.267,0.1,0.3,0.3C288.667,119.2,288.583,119.25,288.45,119.25z"/>
<path fill-rule="evenodd" clip-rule="evenodd" fill="#112200" d="M288.05,110.8c0.2,0.2,0.517,0.567,0.95,1.1
	c0.8,0.3,2.1,0.867,3.9,1.7h1.3l0.1,0.05c0.533,0,0.917-0.066,1.15-0.2c0.267-0.133,0.5-0.2,0.7-0.2c0.199,0,0.283,0.1,0.25,0.3
	c0,0.067-0.334,0.55-1,1.45c0,0.067,0.033,0.117,0.1,0.15l-1.8,1.35c-0.9,0.6-1.533,1.017-1.9,1.25c-2.533,1.267-4.267,1.9-5.2,1.9
	c-0.3,0-0.399-0.1-0.3-0.3c-0.366,0.033-0.616-0.017-0.75-0.15l-0.149-0.15c0-0.066,0.066-0.133,0.199-0.2h1.301
	c4.5-1.4,7.199-2.767,8.1-4.1c-0.167,0-0.25-0.083-0.25-0.25c0-0.1,0.1-0.217,0.3-0.35c0.134-0.033,0.267-0.1,0.4-0.2l-2.75,0.15
	c-0.667-0.367-1.117-0.55-1.351-0.55l-0.5,0.2c-0.5,0-1.05-0.267-1.649-0.8c-0.5-0.5-0.767-0.767-0.8-0.8
	c-0.934-0.667-1.517-1.233-1.75-1.7C287.25,110.317,287.717,110.433,288.05,110.8z"/>
<path fill-rule="evenodd" clip-rule="evenodd" fill="#112200" d="M286.3,119.15c0.267,0.1,0.4,0.2,0.4,0.3
	c0,0.133-0.084,0.2-0.25,0.2c-0.233,0-0.4-0.033-0.5-0.1c-0.134-0.1-0.3-0.15-0.5-0.15l-0.05-0.15c0-0.067,0.033-0.117,0.1-0.15
	c0.033,0,0.066-0.017,0.1-0.05C285.767,119.017,286,119.05,286.3,119.15z"/>
<path fill-rule="evenodd" clip-rule="evenodd" fill="#660000" d="M242.1,156.85c0,0.767,0.783,2.783,2.35,6.05h0.05
	c0.033-0.966,0.233-1.9,0.6-2.8c0.733-1.8,2.017-2.7,3.85-2.7c1.2,0,2.316,1.667,3.35,5c0,1.233-0.15,2.217-0.45,2.95
	c-0.733,1.566-2.15,2.133-4.25,1.7c-0.167,0.333-0.267,0.517-0.3,0.55c-0.167,0.2-0.417,0.3-0.75,0.3c-1.566,0-3.2-2.017-4.9-6.05
	c-1.433-3.367-2.15-5.467-2.15-6.3c0-2.2,0.316-3.833,0.95-4.9c1.1-1.8,3.316-3.15,6.65-4.05h3.8c2.867,1,4.3,2.316,4.3,3.95
	c0,0.567-0.317,1.1-0.95,1.6c-0.733,0.567-1.65,0.85-2.75,0.85l-1.9-0.2c-0.534,0-1.2,0.233-2,0.7c-0.767,0.467-1.633,0.7-2.6,0.7
	c-1.3,0-2.017-0.35-2.15-1.05C242.35,154.083,242.1,155.317,242.1,156.85z M249.2,159.7c-0.167-0.367-0.583-0.317-1.25,0.15
	c-0.967,0.833-1.45,1.967-1.45,3.4c0,0.5,0.066,0.817,0.2,0.95c0.3,0.267,1.066,0.4,2.3,0.4c0.6,0,1-0.35,1.2-1.05
	c0.066-0.7,0.1-1.066,0.1-1.1c0-0.267-0.1-0.534-0.3-0.8c-0.267-0.367-0.467-0.683-0.6-0.95
	C249.367,160.233,249.3,159.9,249.2,159.7z"/>
<path fill-rule="evenodd" clip-rule="evenodd" fill="#660000" d="M240.9,152.05c0-1.533,0.317-2.667,0.95-3.4
	c0.966-1.133,2.95-1.967,5.95-2.5v-0.05h2.8c0.733-0.067,1.65,0.283,2.75,1.05s1.9,1.15,2.4,1.15c0.267,0,0.633-0.167,1.1-0.5
	c0.466-0.333,0.816-0.5,1.05-0.5c0.7,0,1.067,0.483,1.1,1.45c0,0.467-0.267,0.883-0.8,1.25c-0.233,0.133-1.067,0.533-2.5,1.2
	l0.1,0.65c0,1.233-0.183,2.517-0.55,3.85c-0.667,2.333-1.733,3.5-3.2,3.5c-0.867-0.2-1.4-0.3-1.6-0.3c-1.267-0.066-2.083-0.4-2.45-1
	c-0.833,0.5-1.317,0.883-1.45,1.15c-0.133,0.3-0.267,0.517-0.4,0.65c-0.2,0.3-0.483,0.483-0.85,0.55c0.6,1.367,0.9,2.267,0.9,2.7
	c0,0.7-0.333,1.05-1,1.05c-0.5,0-1.233-0.85-2.2-2.55c-0.867-1.534-1.3-2.434-1.3-2.7c0.167-0.367,0.25-0.633,0.25-0.8
	c-0.167-1.3-0.25-2.284-0.25-2.95c0-0.233-0.1-0.5-0.3-0.8c-0.233-0.367-0.367-0.6-0.4-0.7
	C240.933,153.3,240.9,152.817,240.9,152.05z M242.85,152.75h0.1c0.1,0,0.683-0.233,1.75-0.7c1.1-0.5,1.833-0.75,2.2-0.75
	c0.533,0,0.983,0.167,1.35,0.5c0.2,0.167,0.4,0.333,0.6,0.5c0.333,0,0.767-0.1,1.3-0.3s1.133-0.3,1.8-0.3
	c0.133-0.567,0.466-1.034,1-1.4c-0.134-0.133-0.55-0.483-1.25-1.05c-0.467-0.367-0.667-0.7-0.6-1c-0.534-0.066-1.5-0.1-2.9-0.1
	c-1.4,0.034-2.667,0.4-3.8,1.1c-1.1,0.7-1.6,1.4-1.5,2.1v1.35C242.867,152.7,242.85,152.717,242.85,152.75z"/>
<path fill-rule="evenodd" clip-rule="evenodd" fill="#660000" d="M266.45,144.45c3.3,0.833,5.35,1.7,6.15,2.6
	c0.4,0.434,0.6,1.434,0.6,3c0,0.067,0.083,0.35,0.25,0.85c0.167,0.5,0.25,0.867,0.25,1.1c0,0.733-0.333,1.1-1,1.1
	c-0.567,0-0.95-0.3-1.15-0.9c-0.066-0.633-0.117-0.983-0.15-1.05v-0.05c-0.066,0.267-0.167,0.467-0.3,0.6
	c-0.2,0.267-0.534,0.4-1,0.4c-0.4-0.133-0.684-0.2-0.85-0.2c-0.067,0-0.2,0.067-0.4,0.2c-0.2,0.133-0.4,0.2-0.6,0.2
	c-0.533,0-0.917-0.2-1.15-0.6c-0.1-0.4-0.184-0.617-0.25-0.65c-0.6,0.3-1.034,0.45-1.3,0.45s-0.517-0.083-0.75-0.25
	s-0.367-0.25-0.4-0.25c-0.8,0-1.517-0.033-2.15-0.1c-0.167-0.033-0.45-0.2-0.85-0.5c-0.333-0.267-0.633-0.4-0.9-0.4
	c-0.3,0-0.667,0.05-1.1,0.15c-0.433,0.1-0.767,0.15-1,0.15c-0.667,0-1.1-0.283-1.3-0.85c-0.067-0.567-0.1-0.867-0.1-0.9
	c0-1.066,0.95-2.15,2.85-3.25C262.017,144.033,264.217,143.75,266.45,144.45z"/>
<path fill-rule="evenodd" clip-rule="evenodd" fill="#660000" d="M274,152.95c-0.467,3.833-1.117,5.75-1.95,5.75
	c-1.233,0-1.917-0.4-2.05-1.2c0.1-0.833,0.133-1.333,0.1-1.5v-0.05c-0.5-0.034-0.833-0.05-1-0.05c-0.067,0-0.333,0.133-0.8,0.4
	c-0.466,0.267-0.883,0.4-1.25,0.4c-0.767,0-1.2-0.284-1.3-0.85c-0.033-0.167,0-0.517,0.1-1.05c-0.133,0-0.35-0.066-0.65-0.2
	c-0.267-0.133-0.434-0.25-0.5-0.35c-0.967,0.867-2.233,1.9-3.8,3.1c-1.867,1.433-2.95,2.15-3.25,2.15c-0.767,0-1.15-0.383-1.15-1.15
	c0-0.1-0.083-0.283-0.25-0.55c-0.167-0.3-0.25-0.533-0.25-0.7l-0.05-0.15c-1.067,0.7-1.767,1.05-2.1,1.05
	c-0.467,0-0.784-0.183-0.95-0.55l-0.1-0.55c0-0.4,0.267-0.883,0.8-1.45c0.533-0.534,0.8-1.017,0.8-1.45c0-0.4,0.25-0.85,0.75-1.35
	c-0.233-0.1-0.35-0.367-0.35-0.8c0-0.3,0.583-0.9,1.75-1.8c1.2-0.966,2.083-1.45,2.65-1.45c0.833,0,1.2,0.45,1.1,1.35
	c0.267-0.1,0.784-0.383,1.55-0.85c0.566-0.333,1.133-0.5,1.7-0.5c0.4,0,0.7,0.1,0.9,0.3c0.167,0.167,0.267,0.25,0.3,0.25
	c0.333,0,0.767-0.133,1.3-0.4c0.434-0.233,0.917-0.3,1.45-0.2c0.5,0.2,0.816,0.434,0.95,0.7c0.066,0.133,0.167,0.35,0.3,0.65
	c0.167,0,0.75-0.2,1.75-0.6c0.733,0,1.217,0.317,1.45,0.95c0.267,0.6,0.533,0.9,0.8,0.9c0.633-0.033,1.017,0.2,1.15,0.7
	C273.967,151.983,274,152.35,274,152.95z"/>
<path fill-rule="evenodd" clip-rule="evenodd" fill="#660000" d="M274.1,155c0,3.5-1.1,6.85-3.3,10.05
	c-2.833,4.067-6.883,6.55-12.15,7.45h-5.5c-2.867-0.233-5.533-1.667-8-4.3c-2.033-2.167-3.05-3.867-3.05-5.1c0-0.8,0.333-1.2,1-1.2
	c0.533,0,1.033,0.383,1.5,1.15c0.233,0.367,0.45,0.8,0.65,1.3c0.3,0.467,1.45,1.316,3.45,2.55c0.066-0.667,0.583-1.167,1.55-1.5
	c1.066-0.333,1.6-0.517,1.6-0.55c0.233-0.5,0.767-0.8,1.6-0.9c0.633-0.1,2.333-0.2,5.1-0.3c0.9-0.7,1.667-1.05,2.3-1.05
	c1.066,0,1.667,0.583,1.8,1.75c0.133,1.133,0.65,1.7,1.55,1.7c0.133,0,0.883-0.65,2.25-1.95l-0.45-0.95c0-0.267,0.1-0.517,0.3-0.75
	c0.4-0.466,0.65-0.783,0.75-0.95c-0.433-0.4-0.716-0.667-0.85-0.8c-0.2-0.233-0.3-0.466-0.3-0.7c0-0.3,0.083-0.567,0.25-0.8
	c0.233-0.367,0.583-0.55,1.05-0.55c0.6,0,1.017,0.267,1.25,0.8c0.267,0.7,0.417,1.05,0.45,1.05c0.067-0.934,0.15-1.667,0.25-2.2
	c0.2-0.967,0.65-1.45,1.35-1.45c0.167,0,0.383,0.067,0.65,0.2c0.434-2.433,0.65-3.717,0.65-3.85c0-0.2-0.083-0.566-0.25-1.1
	c-0.167-0.566-0.25-0.883-0.25-0.95c0.133-0.333,0.2-0.583,0.2-0.75c0-0.133-0.067-0.4-0.2-0.8c-0.133-0.4-0.2-0.716-0.2-0.95
	c0-1.267,0.417-1.6,1.25-1c0.8,0.633,1.217,1.333,1.25,2.1c0,1.2,0.033,1.966,0.1,2.3c0.066,0.333,0.1,0.833,0.1,1.5
	C273.8,153.633,273.9,154.133,274.1,155z M260.75,164.7c-0.2,0-0.383,0.1-0.55,0.3c-0.2,0.233-0.417,0.383-0.65,0.45
	c-0.667,0.367-1.466,0.517-2.4,0.45c-1-0.066-1.633-0.05-1.9,0.05c0.566,0.7,0.85,1.066,0.85,1.1h1.9
	c0.267-0.167,0.85-0.517,1.75-1.05C260.517,165.5,260.85,165.067,260.75,164.7z"/>
<path fill-rule="evenodd" clip-rule="evenodd" fill="#660000" d="M266,154.2v0.05c0.533-0.1,0.95,0.033,1.25,0.4
	c0.233,0.333,0.283,0.65,0.15,0.95c0.2,0.066,0.317,0.1,0.35,0.1c0.066,0,0.3-0.067,0.7-0.2c0.433-0.133,0.767-0.2,1-0.2
	c0.833,0,1.25,0.367,1.25,1.1c-0.767,2.833-1.35,4.55-1.75,5.15c-0.434,0.9-0.9,1.717-1.4,2.45c-0.966,1.4-2.017,2.1-3.15,2.1
	c-0.667,0-1.433-0.4-2.3-1.2c-0.6-0.6-1.067-1.183-1.4-1.75c-0.534,0.733-1.784,1.333-3.75,1.8c-1.5,0.367-2.75,0.55-3.75,0.55
	c-1.3,0-2.2-0.883-2.7-2.65c-0.267-1.767-0.4-2.667-0.4-2.7c0-0.4,0.083-0.8,0.25-1.2c0.267-0.633,0.7-0.95,1.3-0.95
	c0.2,0,0.5,0.133,0.9,0.4c0.233,0,0.534-0.35,0.9-1.05c0.333-0.7,0.8-1.05,1.4-1.05c0.3,0,0.55,0.083,0.75,0.25
	c0.2,0.167,0.316,0.25,0.35,0.25c0.3,0,0.517-0.066,0.65-0.2c0.167-0.133,0.383-0.2,0.65-0.2c0.5,0,0.933,0.233,1.3,0.7
	c0.4,0.467,0.633,0.7,0.7,0.7c0.066,0,0.55-0.417,1.45-1.25c0.866-0.833,1.433-1.25,1.7-1.25c0.2,0,0.4,0.067,0.6,0.2
	c0.1-0.133,0.517-0.767,1.25-1.9C264.983,152.767,265.566,152.967,266,154.2z M264.65,158.75c-1.433-0.033-2.15,0.667-2.15,2.1
	c0,0.733,0.066,1.25,0.2,1.55c0.3,0.667,0.933,1,1.9,1l0.9-0.05c0.133-0.1,0.333-0.283,0.6-0.55c0.333-0.333,0.5-0.566,0.5-0.7
	c-0.267-0.4-0.4-0.75-0.4-1.05l0.55-0.95C266.75,159.267,266.05,158.817,264.65,158.75z"/>
<path fill-rule="evenodd" clip-rule="evenodd" fill="#2F0000" d="M250.35,163.95c-0.333,0.533-0.983,0.8-1.95,0.8
	c-1.066,0-1.767-0.367-2.1-1.1l-0.15-1.1c0-2.167,0.733-3.267,2.2-3.3c1.466-0.066,2.2,1.133,2.2,3.6
	C250.55,163.35,250.483,163.717,250.35,163.95z"/>
<path fill-rule="evenodd" clip-rule="evenodd" fill="#2F0000" d="M248.55,163.45c-0.466,0-0.767-0.25-0.9-0.75
	c-0.066-0.5-0.1-0.767-0.1-0.8c0-0.6,0.317-0.883,0.95-0.85c0.633,0.034,0.95,0.45,0.95,1.25
	C249.45,163.067,249.15,163.45,248.55,163.45z"/>
<path fill-rule="evenodd" clip-rule="evenodd" fill="#2F0000" d="M266.6,163c-0.4,0.5-1.083,0.75-2.05,0.75
	c-1,0-1.65-0.367-1.95-1.1c-0.1-0.733-0.15-1.117-0.15-1.15c0-0.933,0.183-1.75,0.55-2.45c0.533-1.167,1.417-1.583,2.65-1.25
	c0.533,0.467,0.967,1.85,1.3,4.15C266.95,162.35,266.833,162.7,266.6,163z"/>
<path fill-rule="evenodd" clip-rule="evenodd" fill="#2F0000" d="M261.7,164.55c0,0.467-0.35,1-1.05,1.6
	c-0.9,0.767-2.033,1.15-3.4,1.15c-1.1,0-2.05-0.333-2.85-1c-0.6-0.5-0.9-0.9-0.9-1.2c0-0.333,0.183-0.5,0.55-0.5
	c0.1,0,0.45,0.15,1.05,0.45c0.633,0.267,1.133,0.4,1.5,0.4c0.4,0,1.483-0.383,3.25-1.15C261.083,163.733,261.7,163.817,261.7,164.55
	z"/>
<path fill-rule="evenodd" clip-rule="evenodd" fill="#2F0000" d="M264.1,159.85c-0.667,1.433-1.034,2.15-1.1,2.15
	c-0.333,0-0.533-0.25-0.6-0.75c0-0.5,0-0.767,0-0.8c0-0.934,0.283-1.367,0.85-1.3C263.816,159.184,264.1,159.417,264.1,159.85z"/>
<path fill-rule="evenodd" clip-rule="evenodd" fill="#660000" d="M264.7,165.7c0,0.133-0.15,0.333-0.45,0.6
	c-0.333,0.267-0.6,0.4-0.8,0.4c-0.267,0-0.434-0.1-0.5-0.3l-0.05-0.3c0-0.267,0.133-0.483,0.4-0.65c0.233-0.167,0.467-0.25,0.7-0.25
	C264.467,165.2,264.7,165.367,264.7,165.7z"/>
<path fill-rule="evenodd" clip-rule="evenodd" fill="#2F0000" d="M258.3,145.75c1.982-1.351,3.882-2.093,5.7-2.225V143.5
	c0-0.3,0.633-0.3,1.9,0c1.033,0.233,2.2,0.6,3.5,1.1c0.167,0.066,0.6,0.333,1.3,0.8c0.6,0.4,1,0.6,1.2,0.6c0.6,0,1.1,0.667,1.5,2
	c0.2,0.667,0.333,1.333,0.4,2c0,0.467-0.15,0.7-0.45,0.7c-0.333-1.034-0.883-2.05-1.65-3.05c-1.534-2.066-3.767-3.1-6.7-3.1
	c-1.2,0-2.017,0.15-2.45,0.45c-0.267,0.333-0.533,0.533-0.8,0.6c-0.133,0-0.517,0.117-1.15,0.35c-0.7,0.233-1.067,0.417-1.1,0.55
	c-0.233,0.467-0.917,1.267-2.05,2.4c-0.067,0-0.15-0.033-0.25-0.1c-0.1-0.1-0.2-0.15-0.3-0.15l-0.5,0.1
	c0.067,0.167,0.033,0.35-0.1,0.55c-0.1,0.2-0.25,0.3-0.45,0.3c-0.3,0-0.817-0.333-1.55-1c-0.667-0.633-1-0.983-1-1.05
	c0-0.366,0.167-0.55,0.5-0.55c0.067,0,0.35,0.167,0.85,0.5c0.467,0.333,0.75,0.5,0.85,0.5C255.566,148,256.5,147.25,258.3,145.75z"
	/>
<path fill-rule="evenodd" clip-rule="evenodd" fill="#2F0000" d="M274.15,157.95c-0.533,2.1-1.1,3.683-1.7,4.75
	c-0.067,0.1-0.45,0.9-1.15,2.4c-0.5,1-1.066,1.85-1.7,2.55c-0.833,0.9-2,1.867-3.5,2.9c-1.567,1.1-2.65,1.65-3.25,1.65
	c-0.367,0-0.55-0.167-0.55-0.5c0-0.067,0.883-0.684,2.65-1.85c1.933-1.267,3.116-2.1,3.55-2.5c0.633-0.6,1.183-1.333,1.65-2.2
	c0.267-0.533,0.617-1.283,1.05-2.25c0.5-0.966,0.866-1.7,1.1-2.2c0.367-0.833,0.567-1.567,0.6-2.2c0.033-0.6,0.184-1.367,0.45-2.3
	c0.267-0.867,0.4-1.583,0.4-2.15c-0.5-2.5-0.75-3.95-0.75-4.35c0-0.2,0.083-0.35,0.25-0.45c0.2-0.133,0.467,0,0.8,0.4
	c0.1,0.067,0.284,0.417,0.55,1.05c0.167,0.4,0.267,0.767,0.3,1.1v0.95C274.9,154.117,274.65,155.85,274.15,157.95z"/>
<path fill-rule="evenodd" clip-rule="evenodd" fill="#2F0000" d="M240.1,155.1c0,1.4,0.316,2.8,0.95,4.2
	c0.633,1.4,0.95,2.134,0.95,2.2c0,0.333-0.184,0.5-0.55,0.5c-0.4,0-1.05-1.133-1.95-3.4c-0.1-0.267-0.184-0.833-0.25-1.7
	c-0.1-0.8-0.15-1.417-0.15-1.85c0-2.4,0.283-4.1,0.85-5.1c1.167-2.1,3.716-3.534,7.65-4.3c2.033-0.2,3.7,0,5,0.6
	c0.933,0.467,1.4,0.917,1.4,1.35c0,0.4-0.167,0.6-0.5,0.6c-0.333-0.267-0.684-0.517-1.05-0.75c-0.733-0.534-1.95-0.8-3.65-0.8
	c-4.133,0-6.816,1.367-8.05,4.1C240.117,152.117,239.9,153.567,240.1,155.1z"/>
<path fill-rule="evenodd" clip-rule="evenodd" fill="#2F0000" d="M240.3,159.9c0-0.367,0.15-0.517,0.45-0.45
	c0.333,0.066,0.583,0.316,0.75,0.75l0.55,1.6c0.067,0.167,0.167,0.65,0.3,1.45c0.133,0.667,0.283,1.2,0.45,1.6
	c0.233,0.6,0.517,1.083,0.85,1.45c0.434,0.534,1.133,1.083,2.1,1.65c0.267,0.167,0.5,0.4,0.7,0.7c0.233,0.333,0.517,0.617,0.85,0.85
	c0.2,0.133,0.633,0.333,1.3,0.6c0.533,0.267,0.8,0.533,0.8,0.8c0,0.333-0.217,0.5-0.65,0.5c-1.1,0-2.533-0.816-4.3-2.45
	c-1.567-1.434-2.483-2.534-2.75-3.3C241.6,165.383,241.133,163.467,240.3,159.9z"/>
<path fill-rule="evenodd" clip-rule="evenodd" fill="#2F0000" d="M264.4,171.25c0,0.4-0.417,0.7-1.25,0.9
	c-1.5,0.267-2.883,0.55-4.15,0.85h-3.2c-2.4-0.233-3.75-0.35-4.05-0.35c0,0.034-0.2,0.05-0.6,0.05c-0.5,0-1.283-0.4-2.35-1.2
	c-0.933-0.7-1.4-1.033-1.4-1c0-0.433,0.117-0.733,0.35-0.9c0.333-0.233,0.816,0,1.45,0.7c1.4,0.733,2.466,1.184,3.2,1.35
	c0.7,0.167,1.9,0.267,3.6,0.3h2.9c0.267-0.034,1.133-0.267,2.6-0.7c1.3-0.367,2.1-0.55,2.4-0.55
	C264.233,170.7,264.4,170.883,264.4,171.25z"/>
<path fill-rule="evenodd" clip-rule="evenodd" fill="#460000" d="M240.05,154.45c0.267-0.3,0.483-0.1,0.65,0.6
	c0,0.3,0.167,0.867,0.5,1.7c0.066,0.267,0.233,0.817,0.5,1.65c0.2,0.767,0.3,1.333,0.3,1.7s-0.15,0.55-0.45,0.55
	c-0.6,0-1.216-1.75-1.85-5.25C239.7,155.033,239.817,154.717,240.05,154.45z"/>
<path fill-rule="evenodd" clip-rule="evenodd" fill="#460000" d="M240.4,156.85c0.267,0,0.5,0.217,0.7,0.65
	c0.033,0.167,0.25,0.633,0.65,1.4c0.533,1.2,1.017,2.184,1.45,2.95c0.5,0.9,1.233,1.983,2.2,3.25c1.167,1.566,1.983,2.35,2.45,2.35
	c0.367,0,1.2,0.566,2.5,1.7c1.9,1.1,4.483,1.65,7.75,1.65c2.133,0,4.467-0.65,7-1.95c1.267-0.667,2.433-1.333,3.5-2
	c0.333,0,0.5,0.183,0.5,0.55c0,0.533-1.333,1.467-4,2.8c-2.733,1.367-4.633,1.9-5.7,1.6c-0.033,0.3-0.283,0.45-0.75,0.45
	c-0.267,0-0.7-0.05-1.3-0.15c-0.567-0.133-1.117-0.2-1.65-0.2c-0.167,0-0.317,0.083-0.45,0.25c-0.133,0.133-0.25,0.2-0.35,0.2
	c-1.433-0.434-2.2-0.667-2.3-0.7c-1.333,0.1-2.167-0.183-2.5-0.85c-0.2,0.1-0.333,0.15-0.4,0.15c-0.367,0-1.617-0.883-3.75-2.65
	c-2.233-1.7-3.35-2.583-3.35-2.65c0-0.066,0.05-0.15,0.15-0.25c0.067-0.066,0.1-0.15,0.1-0.25l-0.35-1.4
	c-0.767-1.733-1.233-2.817-1.4-3.25c-0.3-0.667-0.533-1.183-0.7-1.55c-0.267-0.667-0.4-1.2-0.4-1.6
	C240,157.017,240.133,156.85,240.4,156.85z"/>
<path fill-rule="evenodd" clip-rule="evenodd" fill="#460000" d="M249.45,161.4c0.033,0.067-0.034,0.1-0.2,0.1l-1-1.1
	c0-0.333,0.167-0.383,0.5-0.15c0.233,0.167,0.467,0.4,0.7,0.7V161.4z"/>
<path fill-rule="evenodd" clip-rule="evenodd" fill="#460000" d="M265.85,160.2c0,0.066-0.083,0.1-0.25,0.1l-1.45-1.4l0.05-0.25
	c0.133,0,0.4,0.117,0.8,0.35c0.4,0.267,0.683,0.483,0.85,0.65V160.2z"/>
<path fill-rule="evenodd" clip-rule="evenodd" fill="#460000" d="M264.575,159.025c-0.176-0.101-0.235-0.226-0.175-0.375
	c0.033-0.033,0.083-0.05,0.15-0.05c0.7,0,1.25,0.867,1.65,2.6l-0.15,0.1c-0.1-0.233-0.383-0.583-0.85-1.05
	c-0.434-0.467-0.717-0.867-0.85-1.2l0.1-0.05C264.493,159,264.535,159.008,264.575,159.025z M264.85,159.15
	c0.084,0.051,0.167,0.117,0.25,0.2c0.2,0.2,0.3,0.367,0.3,0.5l0.35,0.35c0.033-0.2-0.133-0.483-0.5-0.85
	C265.224,159.324,265.09,159.257,264.85,159.15z"/>
<path fill-rule="evenodd" clip-rule="evenodd" fill="#460000" d="M250,162.65c0,0.267-0.067,0.483-0.2,0.65
	c-0.1-0.167-0.233-0.55-0.4-1.15c-0.167-0.566-0.25-0.9-0.25-1c0-0.167-0.183-0.333-0.55-0.5c-0.434-0.233-0.667-0.367-0.7-0.4v-0.1
	h0.15l0.4,0.2l0.05-0.2h0.1c0.4,0,0.75,0.35,1.05,1.05C249.883,161.767,250,162.25,250,162.65z"/>
<path fill-rule="evenodd" clip-rule="evenodd" fill="#460000" d="M266,161.1c0.067,0,0.1-0.05,0.1-0.15c0-0.2-0.067-0.45-0.2-0.75
	c-0.167-0.4-0.267-0.633-0.3-0.7h0.15c0.367,0,0.583,0.75,0.65,2.25c0,0.033-0.033,0.183-0.1,0.45c-0.033,0.167-0.017,0.3,0.05,0.4
	l-0.05,0.15l-0.1,0.05c-0.2-0.2-0.3-0.716-0.3-1.55C265.9,161.183,265.933,161.133,266,161.1z"/>
<path fill-rule="evenodd" clip-rule="evenodd" fill="#880000" d="M260.95,146.15c-0.434,0.2-0.7,0.3-0.8,0.3
	c-0.433,0-0.65-0.167-0.65-0.5c0-0.367,0.867-0.8,2.6-1.3c2-0.533,3.833-0.517,5.5,0.05c0.767,0.2,1.667,0.6,2.7,1.2
	c1,0.6,1.633,1.083,1.9,1.45c0.533,0.767,1.1,2.767,1.7,6c0,0.467-0.167,0.7-0.5,0.7c-0.267,0-0.55-0.3-0.85-0.9
	c-0.3-0.533-0.45-0.967-0.45-1.3c0-0.4-0.083-0.817-0.25-1.25c-0.2-0.533-0.434-0.9-0.7-1.1c-2-1.467-3.7-2.483-5.1-3.05
	c-1.1-0.434-2.25-0.65-3.45-0.65C261.933,145.8,261.383,145.917,260.95,146.15z"/>
<path fill-rule="evenodd" clip-rule="evenodd" fill="#880000" d="M254.75,149.55c-0.667,0-1.667-0.5-3-1.5
	c-0.033-0.033-1.083-0.2-3.15-0.5c-1.934-0.3-2.9-0.566-2.9-0.8s0.167-0.4,0.5-0.5l3-0.05c0.833-0.4,2.1-0.083,3.8,0.95
	c1.533,0.934,2.3,1.55,2.3,1.85C255.3,149.367,255.117,149.55,254.75,149.55z"/>
<path fill-rule="evenodd" clip-rule="evenodd" fill="#204000" d="M253.45,136.75l-0.1,1.1c0,0.233,0.1,1.017,0.3,2.35
	c0.2,1.333,0.35,2.2,0.45,2.6c0.133,0.8,0.35,1.55,0.65,2.25c0.033,0.1,0.233,0.467,0.6,1.1c0.267,0.533,0.4,0.917,0.4,1.15
	c0,0.467-0.117,0.7-0.35,0.7c-0.3,0-0.833-1.217-1.6-3.65c0.067-0.067,0.1-0.15,0.1-0.25c0-0.033-0.183-0.9-0.55-2.6
	c-0.4-1.7-0.6-2.9-0.6-3.6l0.1-1.25l-0.15-1.6c0-0.333,0.1-0.617,0.3-0.85c0.2-0.267,0.317-0.067,0.35,0.6L253.45,136.75z"/>
<path fill-rule="evenodd" clip-rule="evenodd" fill="#204000" d="M253.85,127.7l-0.05,0.4v3c-0.033,0.133-0.1,0.733-0.2,1.8
	c-0.1,1.067-0.15,1.767-0.15,2.1l0.1,1.2c0,0.3-0.083,0.45-0.25,0.45c-0.133,0-0.233-0.316-0.3-0.95
	c-0.067-0.467-0.1-0.817-0.1-1.05c0.233-1.6,0.35-2.7,0.35-3.3l-0.1-0.35c0-0.367,0.05-0.583,0.15-0.65v-2.4
	c0.067-0.467,0.184-0.733,0.35-0.8C253.783,127.083,253.85,127.267,253.85,127.7z"/>
<path fill-rule="evenodd" clip-rule="evenodd" fill="#204000" d="M253.7,137.2c0,0.2,0.066,0.733,0.2,1.6s0.2,1.517,0.2,1.95
	c0,0.533-0.083,0.8-0.25,0.8c-0.1,0-0.184-0.117-0.25-0.35c-0.067-0.2-0.1-0.35-0.1-0.45l0.1-0.4c0-0.3-0.083-0.917-0.25-1.85
	c-0.167-0.933-0.25-1.583-0.25-1.95c0-0.167,0.066-0.35,0.2-0.55c0.167-0.233,0.267-0.15,0.3,0.25
	C253.6,136.717,253.633,137.033,253.7,137.2z"/>
<path fill-rule="evenodd" clip-rule="evenodd" fill="#204000" d="M253.45,139.05c0.133,0.067,0.25,0.267,0.35,0.6
	c0.034,0.167,0.117,0.533,0.25,1.1c-0.033,0.433,0.184,1.183,0.65,2.25c0.2,1.167,0.4,1.883,0.6,2.15
	c0.1,0.167,0.267,0.517,0.5,1.05c0.233,0.533,0.35,0.833,0.35,0.9c0,0.2-0.1,0.3-0.3,0.3c-0.167,0-0.367-0.3-0.6-0.9
	c-0.3-0.767-0.467-1.167-0.5-1.2c-0.833-1.167-1.25-1.867-1.25-2.1l0.4-0.85c-0.233-0.8-0.35-1.3-0.35-1.5l-0.3-1.5
	C253.25,139.083,253.317,138.983,253.45,139.05z"/>
<path fill-rule="evenodd" clip-rule="evenodd" fill="#204000" d="M275.1,114.15c-1.066-0.013-1.6-0.163-1.6-0.45
	c0-0.367,0.667-0.5,2-0.4c0.634,0.034,1.283,0.1,1.95,0.2c0.7,0,1.05,0.133,1.05,0.4s-0.434,0.4-1.3,0.4
	c-0.233,0-0.45-0.05-0.65-0.15s-0.333-0.15-0.399-0.15l-0.15,0.15H275.1z"/>
<path fill-rule="evenodd" clip-rule="evenodd" fill="#204000" d="M294.35,115.2c0.2,0,0.301,0.083,0.301,0.25
	c0,0.433-1.15,1.117-3.45,2.05c-2.334,0.867-3.566,1.333-3.7,1.4h-1.3c-1.634-0.2-2.767-0.5-3.4-0.9
	c-0.6-0.533-1.149-0.983-1.649-1.35c-0.233-0.167-0.7-0.683-1.4-1.55c-0.767-0.934-1.15-1.5-1.15-1.7c0-0.333,0.351-0.167,1.051,0.5
	c1.066,1.067,1.649,1.633,1.75,1.7c0.833,1,1.666,1.683,2.5,2.05c0.633,0.267,1.466,0.4,2.5,0.4c0.433,0,0.916-0.083,1.449-0.25
	c0.567-0.2,1.051-0.3,1.45-0.3c0.334,0,1.25-0.333,2.75-1C292.45,116.3,293.217,115.867,294.35,115.2z"/>
<path fill-rule="evenodd" clip-rule="evenodd" fill="#112200" d="M291.65,117.75c-0.067,0-0.134-0.033-0.2-0.1l-0.05-0.15
	c0-0.2,0.366-0.517,1.1-0.95c0.366-0.2,0.767-0.433,1.2-0.7c0.366-0.3,0.816-0.7,1.35-1.2c0.4-0.3,0.601-0.25,0.601,0.15
	C293.583,116.767,292.25,117.75,291.65,117.75z"/>
<path fill-rule="evenodd" clip-rule="evenodd" fill="#112200" d="M278.4,113.8c0.166,0.1,0.25,0.2,0.25,0.3s-0.134,0.217-0.4,0.35
	c-0.366,0.133-0.866,0.2-1.5,0.2l-0.7-0.1h-2.1c-0.833,0.267-1.333,0.4-1.5,0.4c-0.133,0-0.217-0.034-0.25-0.1l-0.05-0.15
	c0-0.133,0.167-0.25,0.5-0.35c0.4-0.067,0.633-0.15,0.7-0.25c0.167-0.267,0.467-0.417,0.9-0.45c0.4-0.066,0.833-0.017,1.3,0.15
	H278.4z"/>
<path fill-rule="evenodd" clip-rule="evenodd" fill="#112200" d="M272.6,114.95c-0.267,0.066-0.533,0.133-0.8,0.2l-1.65,0.05
	c-0.667,0.2-1.05,0.3-1.15,0.3c-0.067,0-0.133-0.05-0.2-0.15l-0.05-0.15c0-0.167,0.117-0.284,0.35-0.35c0.066-0.033,0.4-0.1,1-0.2
	h1.6c0.233-0.033,0.5-0.1,0.8-0.2c0.233-0.034,0.35,0.033,0.35,0.2C272.85,114.783,272.767,114.883,272.6,114.95z"/>
</svg>
