<?xml version="1.0" encoding="utf-8"?>
<!-- Generator: Adobe Illustrator 16.0.0, SVG Export Plug-In . SVG Version: 6.00 Build 0)  -->
<!DOCTYPE svg PUBLIC "-//W3C//DTD SVG 1.1//EN" "http://www.w3.org/Graphics/SVG/1.1/DTD/svg11.dtd">
<svg version="1.1" id="Selected_Items" xmlns="http://www.w3.org/2000/svg" xmlns:xlink="http://www.w3.org/1999/xlink" x="0px"
	 y="0px" width="550px" height="400px" viewBox="0 0 550 400" enable-background="new 0 0 550 400" xml:space="preserve">
<path fill-rule="evenodd" clip-rule="evenodd" fill="#663300" d="M265,153.1c-0.8,0-1.667,0.117-2.6,0.35
	c-0.933,0.267-3.1,0.4-6.5,0.4c-1.167,0-1.75-0.434-1.75-1.3c0-0.733,0.517-1.15,1.55-1.25c0.8-0.1,3.033-0.283,6.7-0.55
	c3-0.3,5.867-0.633,8.6-1c1.233-0.033,1.85,0.483,1.85,1.55c0,0.534-0.284,0.917-0.85,1.15
	C270.867,152.95,268.533,153.167,265,153.1z"/>
<path fill-rule="evenodd" clip-rule="evenodd" fill="#663300" d="M268.7,154.55c-2.3,0.467-4.233,0.7-5.8,0.7
	c-4.066,0-6.566-0.167-7.5-0.5c-0.3-0.1-0.45-0.433-0.45-1c0-0.7,0.25-1.067,0.75-1.1c0.633-0.033,3.066-0.017,7.3,0.05
	c0.6,0,2.4-0.25,5.4-0.75c2.7-0.267,4.05,0.083,4.05,1.05C272.45,153.5,271.2,154.017,268.7,154.55z"/>
<path fill-rule="evenodd" clip-rule="evenodd" fill="#663300" d="M264.85,163.65c0,0.4-0.117,0.733-0.35,1s-0.533,0.4-0.9,0.4
	c-1,0-1.567-0.75-1.7-2.25c0.034-1.7,0.05-2.75,0.05-3.15c0-0.233-0.134-1.1-0.4-2.6c-0.267-1.466-0.4-2.4-0.4-2.8
	c0-0.733,0.333-1.167,1-1.3c0.7-0.133,1.233,0.267,1.6,1.2c0.133,0.367,0.316,1.417,0.55,3.15
	C264.667,159.633,264.85,161.75,264.85,163.65z"/>
<path fill-rule="evenodd" clip-rule="evenodd" fill="#663300" d="M258.9,159.6c-0.833,0.167-1.35,0.5-1.55,1
	c-0.167,0.233-0.3,0.633-0.4,1.2c-0.2,0.767-0.3,1.167-0.3,1.2v0.9l0.65,0.15c0.434,0,1.05-0.65,1.85-1.95
	c0.367-0.633,0.7-1.217,1-1.75C260.15,159.683,259.733,159.433,258.9,159.6z M261.85,157.75c0.933,0.6,1.4,1.55,1.4,2.85
	c0,0.6-0.65,1.7-1.95,3.3c-1.466,1.833-2.767,2.75-3.9,2.75c-1.6,0-2.617-0.5-3.05-1.5c-0.133-1.033-0.2-1.583-0.2-1.65
	c0-3.533,1.517-5.617,4.55-6.25C259.9,156.983,260.95,157.15,261.85,157.75z"/>
<path fill-rule="evenodd" clip-rule="evenodd" fill="#663300" d="M267.8,156.3c3.233-1.033,4.85,0.817,4.85,5.55
	c0,1.233-0.3,2.367-0.9,3.4c-1,1.733-2.65,2.6-4.95,2.6c-1.466,0-2.55-1-3.25-3l-0.6-3c0-1.033,0.5-2.117,1.5-3.25
	C265.45,157.5,266.566,156.733,267.8,156.3z M270.1,161.9c0-2.933-0.767-3.883-2.3-2.85c-1.533,1.034-2.3,1.967-2.3,2.8
	c0,0.267,0.133,0.867,0.4,1.8c0.3,1.067,0.583,1.6,0.85,1.6c1.267,0,2.2-0.533,2.8-1.6C269.917,163.017,270.1,162.433,270.1,161.9z"
	/>
<path fill-rule="evenodd" clip-rule="evenodd" fill="#663300" d="M250.55,169.35c0-0.934,0.417-1.4,1.25-1.4
	c0.333,0,0.7,0.216,1.1,0.65c0.4,0.433,0.65,0.65,0.75,0.65c0.434,0,1.067-0.35,1.9-1.05c0.434-0.367,0.884-0.784,1.35-1.25
	c0.1-0.067,0.733-0.284,1.9-0.65c0.9-0.267,1.417-0.65,1.55-1.15c0.267-0.967,0.833-1.816,1.7-2.55c0.934-0.8,1.4-0.467,1.4,1
	c-0.9,2.833-1.75,4.417-2.55,4.75c-0.566,0.233-1.667,0.95-3.3,2.15c-1.2,0.9-2.5,1.35-3.9,1.35c-1.167,0-2.034-0.4-2.6-1.2
	C250.733,170.15,250.55,169.717,250.55,169.35z"/>
<path fill-rule="evenodd" clip-rule="evenodd" fill="#663300" d="M259.2,148.1c3.2,0.433,7.466,0.6,12.8,0.5
	c2.434-0.067,3.65,0.533,3.65,1.8c0,2.333-0.167,4.467-0.5,6.4c-0.334,1.967-0.5,4.784-0.5,8.45c-0.233,6.133-0.95,9.2-2.15,9.2
	c-0.467,0-0.917-0.217-1.35-0.65c-0.4-0.466-0.683-0.75-0.85-0.85c-2.4,0.2-3.767,0.3-4.1,0.3c-0.733,0-2.35-0.767-4.85-2.3
	c-2.4-1.434-3.6-2.217-3.6-2.35c0-0.233,1-1.133,3-2.7c1.967-1.566,3.05-2.35,3.25-2.35c0.8,0,1.383,0.467,1.75,1.4
	c0.467,1.167,0.8,1.816,1,1.95c0.267-0.433,0.75-0.9,1.45-1.4c1.033-0.7,2.066-1.017,3.1-0.95c0.9-6.133,1.4-10.6,1.5-13.4v-0.05
	c-0.466,0.167-0.933,0.45-1.4,0.85c-0.367,0.333-0.7,0.5-1,0.5c-0.466,0-0.85-0.267-1.15-0.8c-0.233-0.433-0.783-0.5-1.65-0.2h-8.8
	c-0.533-0.167-2.017-0.383-4.45-0.65c-1.333-0.133-2-0.617-2-1.45c0-0.7,0.417-1.1,1.25-1.2L259.2,148.1z"/>
<path fill-rule="evenodd" clip-rule="evenodd" fill="#663300" d="M258.15,152.3c-0.667,0.534-1.85,0.6-3.55,0.2
	c-0.367,0.067-0.55,0.3-0.55,0.7c0,0.466,0.067,0.9,0.2,1.3v8.65c0.967,0.434,1.367,1.383,1.2,2.85v0.1
	c1.066-0.667,1.7-1.033,1.9-1.1c0.867-0.433,1.783-0.65,2.75-0.65c0.966,0,1.617,0.2,1.95,0.6c0.167,0.2,0.233,0.417,0.2,0.65
	c0,0.7-0.5,1.083-1.5,1.15c-1.4,0.067-2.55,0.5-3.45,1.3c-1.6,1.467-3.133,2.2-4.6,2.2c-0.733,0-1.184-0.65-1.35-1.95
	c0-1.333,0-2.017,0-2.05l0.4-6.3c0-0.3-0.1-0.8-0.3-1.5c-0.2-0.7-0.3-1.217-0.3-1.55c0.267-2.4,0.4-4.2,0.4-5.4
	c0.5-1.567,1.817-2.283,3.95-2.15c2.1,0.167,3.15,0.816,3.15,1.95C258.65,151.7,258.483,152.033,258.15,152.3z"/>
<path fill-rule="evenodd" clip-rule="evenodd" fill="#663300" d="M272.75,151.35c0.467,0.233,0.7,0.933,0.7,2.1
	c-0.6,6.533-1.284,9.8-2.05,9.8c-0.8,0-1.216-0.6-1.25-1.8c0.133-1.233,0.2-1.867,0.2-1.9c0-1.733-0.267-2.6-0.8-2.6
	c-1,0-2.183,0.45-3.55,1.35c-1.367,0.9-2.133,1.35-2.3,1.35c-0.1,0-1.75-0.683-4.95-2.05c-0.867,0-1.8,0.75-2.8,2.25
	c-1.034,1.467-1.75,2.2-2.15,2.2c-0.833,0-1.25-0.45-1.25-1.35c0-0.3,0.2-0.75,0.6-1.35c0.367-0.633,0.55-0.983,0.55-1.05
	c0-0.066-0.083-0.5-0.25-1.3c-0.2-0.8-0.3-1.567-0.3-2.3c-0.066-0.5-0.066-0.95,0-1.35c0.133-0.8,0.55-1.2,1.25-1.2
	c0.533,0,0.883,0.3,1.05,0.9c0.167,0.567,0.933,0.85,2.3,0.85c0.434,0,0.967-0.117,1.6-0.35c0.667-0.267,1.35-0.4,2.05-0.4
	c0.567,0,1.05,0.1,1.45,0.3c0.367,0.2,0.75,0.283,1.15,0.25l0.6-0.15h5.9C271.434,151.817,272.184,151.083,272.75,151.35z"/>
<path fill-rule="evenodd" clip-rule="evenodd" fill="#482400" d="M252,147.05c0.6-0.066,0.983,0.333,1.15,1.2
	c0.033,0.267,0.05,0.8,0.05,1.6c0,0.933-0.133,1.967-0.4,3.1v8.25c-0.133,0.8-0.183,2.6-0.15,5.4c-0.133,2.4-0.683,3.6-1.65,3.6
	c-0.533,0-0.867-0.35-1-1.05c0-0.7,0-1.066,0-1.1c0.4-3.733,0.6-6.033,0.6-6.9c-0.267-3.167-0.4-4.816-0.4-4.95
	c0-2.667,0.2-4.733,0.6-6.2c-0.066-0.8-0.066-1.383,0-1.75C250.867,147.55,251.267,147.15,252,147.05z"/>
<path fill-rule="evenodd" clip-rule="evenodd" fill="#482400" d="M273,147.4c2.4,0.167,3.6,0.65,3.6,1.45c0,0.9-0.933,1.35-2.8,1.35
	h-10.6c-6.134-0.7-9.684-1.117-10.65-1.25c-0.9-0.133-1.35-0.534-1.35-1.2c0-0.733,0.417-1.05,1.25-0.95
	c3.733,0.3,6.25,0.467,7.55,0.5L273,147.4z"/>
<path fill-rule="evenodd" clip-rule="evenodd" fill="#482400" d="M275.8,148.65c0.667-0.1,1,0.233,1,1c0,1.267-0.25,3.45-0.75,6.55
	c-0.6,3.667-0.916,5.667-0.95,6c-0.133,1.4-0.233,3.983-0.3,7.75c-0.167,3.1-0.7,4.65-1.6,4.65c-0.333,0-0.667-0.617-1-1.85
	c-0.267-1.2-0.4-1.817-0.4-1.85c0-0.5,0.233-2.367,0.7-5.6c0.566-3.966,0.867-6.05,0.9-6.25c0.534-2.566,0.8-4.517,0.8-5.85
	c0.1-1.333,0.216-2.333,0.35-3C274.717,149.267,275.134,148.75,275.8,148.65z"/>
<path fill-rule="evenodd" clip-rule="evenodd" fill="#482400" d="M260.6,162.9c-0.567,1.4-1.333,2.1-2.3,2.1c-1,0-1.75-0.667-2.25-2
	c-0.3-1.3-0.45-1.967-0.45-2c0-2.067,0.933-3.15,2.8-3.25s2.8,0.783,2.8,2.65C261.2,161.067,261,161.9,260.6,162.9z"/>
<path fill-rule="evenodd" clip-rule="evenodd" fill="#482400" d="M270,164.15c-0.5,1.233-1.4,1.85-2.7,1.85
	c-1.066,0-1.8-0.633-2.2-1.9c-0.2-1.267-0.3-1.917-0.3-1.95c0-2.333,0.934-3.85,2.8-4.55c1.867-0.733,2.8,0.7,2.8,4.3
	C270.4,162.733,270.267,163.483,270,164.15z"/>
<path fill-rule="evenodd" clip-rule="evenodd" fill="#482400" d="M261.6,160.75c0,0.7-0.167,1.5-0.5,2.4
	c-0.5,1.367-1.233,2.05-2.2,2.05c-0.867,0-1.333-0.233-1.4-0.7c0-0.1,0.066-0.45,0.2-1.05c-0.1,0.1-0.267,0.15-0.5,0.15
	c-0.6,0-0.983-0.467-1.15-1.4c-0.033-0.9-0.05-1.367-0.05-1.4c0-2.3,0.934-3.517,2.8-3.65
	C260.667,156.983,261.6,158.183,261.6,160.75z M258,160.7c0,0.066,0.033,0.45,0.1,1.15c0.033,0.566,0.033,0.983,0,1.25
	c0.4-0.167,0.767-0.567,1.1-1.2c0.267-0.533,0.4-0.933,0.4-1.2c0-0.133-0.067-0.383-0.2-0.75s-0.25-0.6-0.35-0.7
	c-0.566,0.233-0.9,0.467-1,0.7C258.017,160.017,258,160.267,258,160.7z"/>
<path fill-rule="evenodd" clip-rule="evenodd" fill="#824100" d="M263.15,153.25c-0.267,0.933-0.517,1.483-0.75,1.65
	c-0.333-0.1-0.5-0.316-0.5-0.65c0-0.567,0.267-1.483,0.8-2.75c0.533-1.3,0.8-1.317,0.8-0.05
	C263.5,151.817,263.383,152.417,263.15,153.25z"/>
<path fill-rule="evenodd" clip-rule="evenodd" fill="#824100" d="M262.6,155.7c-0.333-0.1-0.5-0.317-0.5-0.65
	c0-0.733,0.2-1.5,0.6-2.3c0.4-0.767,0.6-0.433,0.6,1C263.3,154.783,263.066,155.433,262.6,155.7z"/>
<path fill-rule="evenodd" clip-rule="evenodd" fill="#824100" d="M263.25,156.3l-0.45,0.2c-0.333-0.433-0.5-1.55-0.5-3.35
	c0-2.367,0.167-3.55,0.5-3.55c0.333,0,0.5,1.183,0.5,3.55L263.25,156.3z"/>
<path fill-rule="evenodd" clip-rule="evenodd" fill="#824100" d="M263.5,153.7v4.35l-0.5,0.25c-0.333-0.267-0.5-1.1-0.5-2.5
	c0-0.767,0.017-1.216,0.05-1.35c0.034-0.534,0.184-0.917,0.45-1.15C263.2,153.4,263.367,153.533,263.5,153.7z"/>
<path fill-rule="evenodd" clip-rule="evenodd" fill="#824100" d="M263.05,159.35l-0.45,0.15c-0.2-0.2-0.333-0.483-0.4-0.85
	c-0.067-0.267-0.1-0.467-0.1-0.6c0-1,0.167-1.483,0.5-1.45s0.5,0.517,0.5,1.45L263.05,159.35z"/>
<path fill-rule="evenodd" clip-rule="evenodd" fill="#824100" d="M263.05,160.1l-0.45,0.2c-0.333-0.333-0.55-0.966-0.65-1.9
	c-0.034-0.367-0.05-1.167-0.05-2.4c0-1.4,0.2-1.55,0.6-0.45c0.4,1.1,0.6,2.034,0.6,2.8L263.05,160.1z"/>
<path fill-rule="evenodd" clip-rule="evenodd" fill="#824100" d="M263.05,163.3l-0.45,0.2c-0.333-0.267-0.5-1.083-0.5-2.45
	c0-1.7,0.167-2.55,0.5-2.55s0.5,0.85,0.5,2.55L263.05,163.3z"/>
<path fill-rule="evenodd" clip-rule="evenodd" fill="#824100" d="M263.45,164.5c-0.1,0.533-0.384,0.933-0.85,1.2l-0.35-0.1
	c-0.1-0.067-0.15-0.217-0.15-0.45c0-0.566,0.233-1.467,0.7-2.7c0.467-1.267,0.7-1.067,0.7,0.6
	C263.5,163.85,263.483,164.333,263.45,164.5z"/>
<path fill-rule="evenodd" clip-rule="evenodd" fill="#824100" d="M263.7,162.9c0,0.1,0,0.333,0,0.7c0,0.033-0.134,1.383-0.4,4.05
	l-0.5,0.25c-0.333-0.333-0.5-0.717-0.5-1.15c0-2.533,0.3-4.017,0.9-4.45C263.467,162.467,263.633,162.667,263.7,162.9z"/>
<path fill-rule="evenodd" clip-rule="evenodd" fill="#824100" d="M263.5,165.15c0,0.067-0.066,0.667-0.2,1.8
	c-0.133,1.167-0.2,2.066-0.2,2.7l-0.5,0.25c-0.333-0.3-0.5-0.833-0.5-1.6c0-2.1,0.3-3.433,0.9-4
	C263.333,164.5,263.5,164.783,263.5,165.15z"/>
<path fill-rule="evenodd" clip-rule="evenodd" fill="#824100" d="M262.7,171l-0.3,0.1c-0.333-0.1-0.5-0.383-0.5-0.85
	c0-0.8,0.2-1.717,0.6-2.75s0.6-0.683,0.6,1.05C263.1,169.25,262.967,170.067,262.7,171z"/>
<path fill-rule="evenodd" clip-rule="evenodd" fill="#824100" d="M262.3,154.95c0,0.5-0.7,0.75-2.1,0.75
	c-1.134,0-2.017-0.133-2.65-0.4c-0.633-0.233-2.15-0.367-4.55-0.4c-0.333-0.1-0.5-0.316-0.5-0.65c0-0.633,0.483-0.9,1.45-0.8
	c0.867,0.066,3.616,0.45,8.25,1.15C262.2,154.7,262.233,154.817,262.3,154.95z"/>
<path fill-rule="evenodd" clip-rule="evenodd" fill="#824100" d="M274,155.35l0.05-0.1c0.034,0,0.05,0.1,0.05,0.3
	c0,0.267-0.1,0.434-0.3,0.5c-0.1,0.034-0.333,0.05-0.7,0.05c-2.9,0-5.05-0.083-6.45-0.25c-1.767-0.2-3.117-0.317-4.05-0.35
	c-0.333-0.1-0.5-0.333-0.5-0.7c0.367-0.267,0.933-0.383,1.7-0.35c0.067,0,0.684,0.05,1.85,0.15c0.2,0.033,1.717,0.066,4.55,0.1
	C272.3,154.7,273.566,154.917,274,155.35z"/>
<path fill-rule="evenodd" clip-rule="evenodd" fill="#824100" d="M256.85,159.65c0.033,0,0.05,0.1,0.05,0.3
	c0,0.267-0.1,0.433-0.3,0.5c-0.1,0.033-0.333,0.05-0.7,0.05c-1.033,0-1.867-0.2-2.5-0.6c-0.467-0.267-0.7-0.5-0.7-0.7
	c0-0.4,0.367-0.517,1.1-0.35c0.467,0.133,1.467,0.433,3,0.9L256.85,159.65z"/>
<path fill-rule="evenodd" clip-rule="evenodd" fill="#824100" d="M265.95,159.8c0.1,0.034,0.15,0.15,0.15,0.35
	c0,0.3-0.167,0.483-0.5,0.55h-3.2c-0.533,0-0.883-0.133-1.05-0.4c-0.034-0.267-0.05-0.417-0.05-0.45c0-0.333,0.2-0.483,0.6-0.45
	c1.633,0.167,2.867,0.267,3.7,0.3C265.7,159.733,265.816,159.767,265.95,159.8z"/>
<path fill-rule="evenodd" clip-rule="evenodd" fill="#824100" d="M273.75,160.6c0.1,0.033,0.15,0.15,0.15,0.35
	c0,0.3-0.167,0.483-0.5,0.55h-2c-0.6-0.2-0.95-0.35-1.05-0.45l-0.05-0.3c0.233-0.1,0.284-0.233,0.15-0.4
	c0.133-0.1,1.116-0.05,2.95,0.15C273.5,160.533,273.617,160.567,273.75,160.6z"/>
<path fill-rule="evenodd" clip-rule="evenodd" fill="#824100" d="M262.55,166.85l-1.05,0.05c-3.667,0-5.6,0-5.8,0
	c-2.067-0.2-3.267-0.767-3.6-1.7c0.367-0.233,2.183-0.167,5.45,0.2s4.983,0.684,5.15,0.95L262.55,166.85z"/>
<path fill-rule="evenodd" clip-rule="evenodd" fill="#824100" d="M272.1,167.75c0,0.3-0.167,0.483-0.5,0.55h-2.8l-2-0.3
	c-0.8-0.133-2.133-0.233-4-0.3c-0.466-0.4-0.7-0.633-0.7-0.7c0-0.333,0.483-0.483,1.45-0.45c0.833,0.067,3.517,0.317,8.05,0.75
	c0.1,0.034,0.216,0.067,0.35,0.1C272.05,167.433,272.1,167.55,272.1,167.75z"/>
<path fill-rule="evenodd" clip-rule="evenodd" fill="#482400" d="M257.4,159.7c0.333,0.3,0.5,0.517,0.5,0.65
	c0,0.2-0.066,0.4-0.2,0.6c-0.134,0.167-0.2,0.383-0.2,0.65c0,0.333-0.15,0.5-0.45,0.5c-0.267,0-0.583-0.3-0.95-0.9
	c-0.333-0.534-0.5-0.85-0.5-0.95c0-0.7,0.3-1.05,0.9-1.05C256.733,159.2,257.033,159.367,257.4,159.7z"/>
<path fill-rule="evenodd" clip-rule="evenodd" fill="#482400" d="M261.6,161.2c-0.067,0.267-0.233,0.4-0.5,0.4
	c-0.1,0-0.4-0.733-0.9-2.2c0-0.7,0.233-0.8,0.7-0.3c0.467,0.467,0.7,0.967,0.7,1.5C261.6,160.967,261.6,161.167,261.6,161.2z"/>
<path fill-rule="evenodd" clip-rule="evenodd" fill="#482400" d="M266.45,160.35c-0.267,0.267-0.417,0.45-0.45,0.55
	s-0.05,0.317-0.05,0.65c-0.034,0.3-0.217,0.45-0.55,0.45c-0.3,0-0.466-0.15-0.5-0.45c0-0.3,0-0.466,0-0.5
	c0-0.533,0.317-1.066,0.95-1.6c0.633-0.534,0.95-0.434,0.95,0.3C266.8,159.883,266.684,160.083,266.45,160.35z"/>
<path fill-rule="evenodd" clip-rule="evenodd" fill="#482400" d="M269.65,160.85l-0.35-1.25c0-0.733,0.233-0.833,0.7-0.3
	c0.467,0.534,0.7,1.1,0.7,1.7c0.1,0.733-0.067,1.1-0.5,1.1C270.066,162.1,269.883,161.683,269.65,160.85z"/>
<path fill-rule="evenodd" clip-rule="evenodd" fill="#4F0075" d="M269.8,172.5c0.967,0,1.534,0.5,1.7,1.5
	c0,0.333-0.184,0.5-0.55,0.5c-0.3,0-0.467-0.133-0.5-0.4c-0.034-0.267-1.267-0.4-3.7-0.4c-1.434,0-3-0.55-4.7-1.65
	c-1.667-1.133-2.683-1.7-3.05-1.7c-0.167,0-0.883,0.35-2.15,1.05c-1.233,0.667-2.25,1-3.05,1c-0.733,0-1.267-0.133-1.6-0.4
	c-0.333-0.267-0.717-0.4-1.15-0.4c-0.367,0-0.767-0.217-1.2-0.65c-0.1,0.233-0.184,0.433-0.25,0.6c-0.133,0.3-0.333,0.45-0.6,0.45
	c-0.3,0-0.533-0.367-0.7-1.1l-0.2-1.1c0-0.533,0.083-0.833,0.25-0.9c0.1-0.066,0.55-0.1,1.35-0.1l3.5,2.6
	c0.8,0.1,1.867-0.217,3.2-0.95c1.367-0.767,2.233-1.15,2.6-1.15c1,0,2.283,0.65,3.85,1.95c1,0.433,1.517,0.8,1.55,1.1
	C264.667,172.45,266.467,172.5,269.8,172.5z"/>
<path fill-rule="evenodd" clip-rule="evenodd" fill="#4F0075" d="M252.55,171.7c0.267,0.2,0.517,0.383,0.75,0.55
	c0.833,0,1.717-0.3,2.65-0.9c1.2-0.767,2.017-1.233,2.45-1.4c0.434-0.167,0.983,0.1,1.65,0.8c0.6,0.633,0.9,1.1,0.9,1.4
	c-1.367,1.667-2.284,2.5-2.75,2.5c-1.434,0-2.15-0.383-2.15-1.15l-0.9-0.15c-0.233,0-0.7,0.133-1.4,0.4
	c0.133,0.933,0.067,2.133-0.2,3.6c-0.4,2.033-0.617,3.233-0.65,3.6V181c0.9-0.1,2.633-0.333,5.2-0.7
	c2.633-0.333,5.216-0.517,7.75-0.55l4.1-0.05c0.466-0.1,0.7-0.25,0.7-0.45c0-0.167-0.117-0.733-0.35-1.7
	c-0.233-0.933-0.35-1.7-0.35-2.3c-0.034-0.3-0.034-0.567,0-0.8c0.066-0.467,0.333-0.7,0.8-0.7c0.6,0,1.066,1.767,1.4,5.3
	c0,0.667-0.033,1.083-0.1,1.25c-0.233,0.4-0.833,0.717-1.8,0.95h-4.8c-0.934,0-3.3,0.267-7.1,0.8c-3.8,0.534-6,0.8-6.6,0.8
	c-0.467,0-0.767-0.117-0.9-0.35c-0.067-0.233-0.1-0.367-0.1-0.4c0.533-1.2,0.817-1.917,0.85-2.15c0.033-0.233,0.05-0.95,0.05-2.15
	c0-1.933-0.566-3.1-1.7-3.5c-1.133-0.367-1.7-1.283-1.7-2.75c0-0.533,0.017-0.85,0.05-0.95c0.1-0.434,0.434-0.65,1-0.65
	c0.333,0,0.684,0.2,1.05,0.6c0.333,0.4,0.583,0.6,0.75,0.6C251.567,171.15,252.05,171.333,252.55,171.7z"/>
<path fill-rule="evenodd" clip-rule="evenodd" fill="#4F0075" d="M275.4,175.05c-0.7,0.967-1.067,1.467-1.101,1.5
	c-0.633,0.733-1.216,1.1-1.75,1.1c-0.333,0-0.566-0.117-0.7-0.35c-0.067-0.133-0.1-0.267-0.1-0.4c0-0.767,0.45-1.483,1.35-2.15
	c0.466-0.367,1-0.717,1.6-1.05c1.833-2.367,2.75-2.867,2.75-1.5C277.45,172.567,276.767,173.517,275.4,175.05z"/>
<path fill-rule="evenodd" clip-rule="evenodd" fill="#4F0075" d="M268.05,173.2c1.567,0.333,2.417,0.517,2.55,0.55
	c0.133,0.067,0.117,0.2-0.05,0.4c0,0.767,0.167,1.65,0.5,2.65c0.333,0.967,0.5,1.7,0.5,2.2c0,0.433-0.816,0.933-2.45,1.5
	s-3.017,0.85-4.15,0.85l-8.55-0.25c-1.167,0.233-2.133,0.35-2.9,0.35c-0.7,0-1.05-0.267-1.05-0.8c0-0.133,0.033-0.25,0.1-0.35
	c0.1-0.167,0.167-0.3,0.2-0.4c-0.4-0.1-0.6-0.6-0.6-1.5c0-1.467,0.283-3.05,0.85-4.75c0.133-0.433,0.917-0.8,2.35-1.1
	c0.767-0.167,1.716-0.367,2.85-0.6c0.4-0.167,0.783-0.617,1.15-1.35c0.2-0.4,0.867-0.383,2,0.05c1.167,0.4,2.566,1.017,4.2,1.85
	C266.117,172.7,266.95,172.933,268.05,173.2z"/>
<path fill-rule="evenodd" clip-rule="evenodd" fill="#4F0075" d="M251.05,178.05c0,0.267-0.017,0.434-0.05,0.5
	c-0.1,0.233-0.333,0.4-0.7,0.5h-3.2c-1.133-0.233-1.883-0.417-2.25-0.55c-0.133-0.033-0.383-0.05-0.75-0.05
	c-0.5,0-0.75-0.267-0.75-0.8c0-0.267,0.767-0.816,2.3-1.65c1.5-0.8,2.434-1.2,2.8-1.2c0.633-0.1,1.25,0.35,1.85,1.35
	C250.8,176.983,251.05,177.617,251.05,178.05z"/>
<path fill-rule="evenodd" clip-rule="evenodd" fill="#4F0075" d="M252.4,185.25c-0.967,0-1.583-0.117-1.85-0.35
	c-0.066-0.233-0.1-0.367-0.1-0.4c0-0.367,1.2-0.683,3.6-0.95l8.15-0.9h4.3c1.633-0.233,2.733-0.283,3.3-0.15
	c0.367,0.1,0.55,0.333,0.55,0.7c0,0.3-0.167,0.5-0.5,0.6c-0.434,0.133-1.517,0.25-3.25,0.35l-4.15,0.05
	C258.184,184.9,254.833,185.25,252.4,185.25z"/>
<path fill-rule="evenodd" clip-rule="evenodd" fill="#4F0075" d="M259.85,181.05c0-0.566,0.4-0.783,1.2-0.65
	c2.067,0.3,3.784,0.45,5.15,0.45c0.966,0,1.733-0.067,2.3-0.2l0.9-0.2c0.567,0,0.85,0.25,0.85,0.75c0,0.333-0.167,0.583-0.5,0.75
	c-0.367,0.133-1.083,0.267-2.15,0.4h-2.7c-2.133-0.2-3.466-0.333-4-0.4C260.2,181.85,259.85,181.55,259.85,181.05z"/>
<path fill-rule="evenodd" clip-rule="evenodd" fill="#4F0075" d="M251.75,184.65c2.167,0,3.617,0.1,4.35,0.3
	c0.5,0.133,0.75,0.383,0.75,0.75c0,0.5-0.4,0.833-1.2,1c-1.5,0.3-2.367,0.5-2.6,0.6l1.95,0.05c0.767,0,2.05-0.233,3.85-0.7
	c2-0.5,3.383-0.8,4.15-0.9h5.4c0.667,0,1.25-0.183,1.75-0.55c0.467-0.333,0.7-0.667,0.7-1c-0.967-0.2-1.583-0.333-1.85-0.4
	c-0.367-0.133-0.55-0.367-0.55-0.7c0-0.733,0.65-0.967,1.95-0.7c1.3,0.267,1.95,0.917,1.95,1.95c0,0.733-0.167,1.267-0.5,1.6
	c-0.534,0.633-1.617,1.066-3.25,1.3l-5.35,0.05c-1.3,0.1-2.733,0.333-4.3,0.7c-1.667,0.433-2.867,0.717-3.6,0.85h-3.8
	c-0.733-0.5-1.1-1.45-1.1-2.85c0-0.4,0.017-0.65,0.05-0.75C250.667,184.85,251.083,184.65,251.75,184.65z"/>
<path fill-rule="evenodd" clip-rule="evenodd" fill="#4F0075" d="M260.15,186.6c-0.433,0.4-0.833,0.717-1.2,0.95h-5.9
	c-0.6-0.167-0.9-0.45-0.9-0.85c-0.867,0.133-1.3-0.133-1.3-0.8c0-0.667,2.133-1.316,6.4-1.95c2.167-0.3,4.383-0.55,6.65-0.75
	c1.867,0.3,3.883,0.417,6.05,0.35c1,0,1.5,0.267,1.5,0.8c0,0.467-0.3,0.9-0.9,1.3c-0.966,0.6-2.383,0.75-4.25,0.45h-3.55
	C261.483,186.167,260.617,186.333,260.15,186.6z"/>
<path fill-rule="evenodd" clip-rule="evenodd" fill="#4F0075" d="M253.7,195l-2.55-4.2c0-0.466,0.3-0.7,0.9-0.7l1-0.45
	c0.867-0.3,1.767-0.483,2.7-0.55c1.1-0.1,2.633-0.3,4.6-0.6c1.3-0.133,2.7-0.383,4.2-0.75c1.6-0.367,2.9-0.617,3.9-0.75
	c0.233-0.033,0.75-0.233,1.55-0.6c0.633-0.3,1.083-0.383,1.35-0.25c0.3,0.167,0.45,0.434,0.45,0.8c0,0.2-0.017,0.5-0.05,0.9l0.1,3.5
	c0,3.033-0.6,5.267-1.8,6.7h-7c-3.8-0.033-6.333-0.367-7.6-1C254.95,196.783,254.367,196.1,253.7,195z"/>
<path fill-rule="evenodd" clip-rule="evenodd" fill="#35004F" d="M251.4,192.65l0.55,1.45c1,1.133,1.5,2,1.5,2.6
	c0,0.566-0.284,0.85-0.85,0.85c-0.767,0-1.583-0.183-2.45-0.55s-1.3-0.7-1.3-1c0-0.4,0.15-1.183,0.45-2.35
	c0.333-1.4,0.667-2.1,1-2.1C250.767,191.55,251.133,191.917,251.4,192.65z"/>
<path fill-rule="evenodd" clip-rule="evenodd" fill="#35004F" d="M250.4,169.1c0,0.333-0.183,0.5-0.55,0.5
	c-0.167,0-0.417-0.167-0.75-0.5c-0.167,0.1-0.333,0.367-0.5,0.8c-0.133,0.367-0.2,0.617-0.2,0.75c0,1.567,0.6,2.783,1.8,3.65
	c1.2,0.867,1.8,2.317,1.8,4.35c0,0.667-0.017,1.05-0.05,1.15c-0.267,0.9-0.417,1.434-0.45,1.6v1.1h0.45c0.3-0.2,1.15-0.3,2.55-0.3
	c0.533,0,0.8,0.167,0.8,0.5c0,0.1-0.617,0.333-1.85,0.7c-1.4,0.434-2.317,0.717-2.75,0.85c0.167,0.4,0.25,0.967,0.25,1.7
	c-0.034,0.4-0.067,0.966-0.1,1.7c0,0.167,0.083,0.383,0.25,0.65c2.933-0.167,4.933-0.45,6-0.85c1.167-0.434,2.533-0.717,4.1-0.85
	h2.6c1.733,0.267,4.35,0,7.85-0.8c0.367,0,0.55,0.167,0.55,0.5c0,1-3.767,1.717-11.3,2.15c-0.333,0-1.966,0.333-4.9,1
	c-2.867,0.633-4.717,0.95-5.55,0.95c-0.3,0-0.467-0.117-0.5-0.35c-0.034-0.133-0.017-0.267,0.05-0.4c-0.333-0.233-0.5-0.433-0.5-0.6
	l0.1-1.45c0.133-0.367,0.2-0.633,0.2-0.8l-0.5-1.85c0-0.7,0.1-1.25,0.3-1.65c0.2-0.367,0.3-0.716,0.3-1.05l0.9-4.05
	c0-1.467-0.483-2.383-1.45-2.75c-0.967-0.4-1.45-1.067-1.45-2c0-0.167-0.083-0.55-0.25-1.15c-0.167-0.633-0.25-1.017-0.25-1.15
	c0-1.933,0.5-2.967,1.5-3.1S250.4,168.267,250.4,169.1z"/>
<path fill-rule="evenodd" clip-rule="evenodd" fill="#35004F" d="M242.15,178.1c-0.233-0.467-0.35-0.733-0.35-0.8
	c0-0.333,0.434-0.716,1.3-1.15c0.8-0.4,1.717-0.683,2.75-0.85c0.167-0.033,0.717-0.433,1.65-1.2c0.867-0.567,1.3-0.483,1.3,0.25
	c0,0.467-0.667,1.066-2,1.8c-1.767,0.967-2.716,1.517-2.85,1.65l-0.15,0.1c0.2,0.033,1.017,0.2,2.45,0.5
	c1.467,0.3,2.417,0.45,2.85,0.45c0.433,0,0.867-0.067,1.3-0.2c0.434-0.167,0.7-0.25,0.8-0.25c0.4,0,0.6,0.167,0.6,0.5
	c0,0.434-0.3,0.783-0.9,1.05c-0.566,0.233-1.3,0.35-2.2,0.35c-0.8,0-1.817-0.117-3.05-0.35c-1.4-0.3-2.383-0.617-2.95-0.95
	C242.567,178.9,242.383,178.6,242.15,178.1z"/>
<path fill-rule="evenodd" clip-rule="evenodd" fill="#35004F" d="M278.6,171.45c0,0.767-0.933,2.15-2.8,4.15
	c-1.866,1.967-2.8,3.233-2.8,3.8l0.2,1.55c0,0.267-0.117,0.75-0.35,1.45c-0.2,0.667-0.284,1.2-0.25,1.6c0,0.233,0,0.8,0,1.7
	c-0.067,0.8-0.317,1.2-0.75,1.2c-0.267,0-0.434-0.1-0.5-0.3l-0.05-0.3c0-0.2,0.05-0.45,0.15-0.75c0.1-0.3,0.15-0.566,0.15-0.8
	c-0.167-0.267-0.2-0.883-0.1-1.85c-0.333-0.2-0.55-0.333-0.65-0.4c-0.2-0.1-0.417-0.15-0.65-0.15c-1.167,0.433-1.884,0.65-2.15,0.65
	c-0.366,0-0.55-0.167-0.55-0.5c0-0.133,0.75-0.567,2.25-1.3c1.5-0.733,2.25-1.483,2.25-2.25c0-0.233-0.1-0.6-0.3-1.1
	c-0.2-0.533-0.3-1.05-0.3-1.55c-0.533-0.167-0.783-0.566-0.75-1.2c0.1-0.7,0.117-1.184,0.05-1.45c-1.634,0.1-2.534,0.15-2.7,0.15
	c-1.467,0-2.883-0.466-4.25-1.4c-1.7-1.133-2.883-1.783-3.55-1.95h-0.95c-1.6,1.167-3.167,1.75-4.7,1.75
	c-1.566,0-2.95-0.567-4.15-1.7c-0.933-0.867-1.4-1.483-1.4-1.85c0-0.467,0.567-0.25,1.7,0.65c1.533,1.233,2.8,1.85,3.8,1.85
	c0.5,0,1.217-0.283,2.15-0.85c0.967-0.6,1.983-0.9,3.05-0.9c1.133,0,2.3,0.4,3.5,1.2c1.8,1.2,2.767,1.833,2.9,1.9
	c-0.034-0.333,0.233-0.5,0.8-0.5c2.633,0,4.2,0.35,4.7,1.05c0.167,0.2,0.35,0.617,0.55,1.25l-0.05,0.05h0.15l1.3-0.15
	c0.434,0,1.134-0.55,2.101-1.65c0.967-1.1,1.699-1.65,2.199-1.65C278.417,170.9,278.667,171.083,278.6,171.45z M275.15,174.85
	c-0.7,0.066-1.334,0.267-1.9,0.6c-0.566,0.333-0.85,0.667-0.85,1l0.15,0.85l0.15,0.05c0.233,0,1.05-0.817,2.45-2.45V174.85z"/>
<path fill-rule="evenodd" clip-rule="evenodd" fill="#35004F" d="M257.5,181.55v-0.05h4.9c0.367,0.1,0.767,0.217,1.2,0.35
	c0.533,0.1,1.517,0.15,2.95,0.15l1.95-0.2c0.934-0.066,1.684-0.1,2.25-0.1s0.9,0.033,1,0.1c0.066,0.034,0.1,0.1,0.1,0.2
	c0,0.033,0.017,0.1,0.05,0.2c0,0.267-0.15,0.433-0.45,0.5c-0.767,0.133-1.617,0.267-2.55,0.4h-4.4l-4.6,0.6h-5.1
	c-0.466-0.133-1.033-0.1-1.7,0.1c-0.8,0.267-1.217,0.4-1.25,0.4c-0.5,0-0.75-0.167-0.75-0.5c0-0.333,0.316-0.617,0.95-0.85
	c0.534-0.2,1.117-0.3,1.75-0.3c0.034,0,0.483-0.15,1.35-0.45C256.117,181.767,256.9,181.583,257.5,181.55z"/>
<path fill-rule="evenodd" clip-rule="evenodd" fill="#35004F" d="M249.6,190c0-0.567,0.283-0.733,0.85-0.5
	c0.533,0.233,0.95,0.633,1.25,1.2c0.267,0.433,0.683,1.183,1.25,2.25l1.55,2.25c0.167,0.267,0.65,0.65,1.45,1.15
	c0.7,0.467,1.05,0.75,1.05,0.85c0,0.333-0.2,0.5-0.6,0.5l-1-0.2c-0.066,0.4-0.25,0.6-0.55,0.6c-0.567,0-1.05-0.184-1.45-0.55
	c-0.333-0.3-0.5-0.517-0.5-0.65s0.117-0.283,0.35-0.45c-0.5-0.534-1.25-1.733-2.25-3.6C250.067,191.117,249.6,190.167,249.6,190z"/>
<path fill-rule="evenodd" clip-rule="evenodd" fill="#35004F" d="M251.3,193.1c-0.4,0-0.833-0.467-1.3-1.4l-0.6-1.35
	c0-1.267,0.4-1.283,1.2-0.05c0.4,0.633,0.8,1.4,1.2,2.3C251.8,192.933,251.633,193.1,251.3,193.1z"/>
<path fill-rule="evenodd" clip-rule="evenodd" fill="#35004F" d="M256,197l2.4,0.55l3.9,0.05c0.134,0.033,1.3,0.083,3.5,0.15
	c2.733,0,4.384-0.333,4.95-1c0.033-0.067,0.05-0.483,0.05-1.25c0.6-2.5,0.9-3.983,0.9-4.45c0-0.4-0.167-1.683-0.5-3.85
	c0-0.6,0.233-0.817,0.7-0.65c0.434,0.167,0.733,0.567,0.9,1.2c0,0.4,0.1,1.15,0.3,2.25c0,0.733-0.3,2.283-0.9,4.65l-0.4,2.3
	c0.067,0.333-0.133,0.65-0.6,0.95c-0.934,0.6-2.733,0.9-5.4,0.9c-2.267-0.066-3.466-0.117-3.6-0.15l-3.9-0.05
	c-1.267-0.233-2.033-0.383-2.3-0.45c-0.333-0.1-0.5-0.3-0.5-0.6C255.5,197.183,255.667,197,256,197z"/>
<path fill-rule="evenodd" clip-rule="evenodd" fill="#4F0075" d="M251.1,194.6l0.3,0.05c-0.2-0.1-0.3-0.133-0.3-0.1V194.6z
	 M250.1,193.65c-0.133-0.2-0.2-0.383-0.2-0.55c0-0.633,0.25-0.917,0.75-0.85s1.033,0.467,1.6,1.2c1.067,1.066,1.983,1.85,2.75,2.35
	c0,0.2-0.1,0.4-0.3,0.6c-0.267,0.267-0.633,0.4-1.1,0.4c-2.067,0-3.267-0.483-3.6-1.45C250.067,194.317,250.1,193.75,250.1,193.65z"
	/>
<path fill-rule="evenodd" clip-rule="evenodd" fill="#A87E00" d="M250.85,195.25l0.1-1.7c0.233-0.7,0.483-1,0.75-0.9
	c0.2,0.1,0.3,0.35,0.3,0.75c0,0.434-0.083,0.934-0.25,1.5c0.6,0.133,1.467,0.283,2.6,0.45c0.233,0.033,0.35,0.117,0.35,0.25
	c0,0.167-0.067,0.283-0.2,0.35c-0.133,0.033-0.433,0.05-0.9,0.05c-0.633,0-1.083-0.05-1.35-0.15c-0.333-0.1-0.683-0.15-1.05-0.15
	C250.967,195.6,250.85,195.45,250.85,195.25z"/>
<path fill-rule="evenodd" clip-rule="evenodd" fill="#A87E00" d="M249.7,175.55c0,0.233-0.617,0.784-1.85,1.65
	c1.7,0.267,2.566,0.4,2.6,0.4c0.367,0.066,0.55,0.2,0.55,0.4s-0.067,0.317-0.2,0.35c-0.1,0.033-0.383,0.05-0.85,0.05
	c-0.7,0-1.35-0.1-1.95-0.3c-0.567-0.167-1.2-0.233-1.9-0.2c-0.233-0.2-0.35-0.316-0.35-0.35c1.7-1.466,3-2.233,3.9-2.3L249.7,175.55
	z"/>
<path fill-rule="evenodd" clip-rule="evenodd" fill="#A87E00" d="M275.8,174.5c0,0.167-0.45,0.667-1.35,1.5
	c-0.9,0.8-1.434,1.2-1.6,1.2c-0.233,0-0.367-0.05-0.4-0.15v-0.2c0-0.133,0.066-0.283,0.2-0.45c0.233-0.2,0.417-0.4,0.55-0.6l0.1-0.1
	c-0.367,0.033-0.6,0-0.7-0.1c-0.033-0.033-0.05-0.117-0.05-0.25c0-0.3,0.383-0.533,1.15-0.7c0.433-0.066,1.117-0.2,2.05-0.4
	L275.8,174.5z"/>
<path fill-rule="evenodd" clip-rule="evenodd" fill="#35004F" d="M262.45,189.45c-0.567,0-1.483,1.35-2.75,4.05
	c-1.233,2.667-1.9,4-2,4c-0.167-0.1-0.284-0.167-0.35-0.2c-0.033,0.034-0.1,0.217-0.2,0.55c-0.066,0.1-0.183,0.15-0.35,0.15
	c-0.2,0-0.316-0.1-0.35-0.3c0-0.2,0-0.317,0-0.35c0-1.567,0.85-3.483,2.55-5.75c1.567-2.067,2.667-3.083,3.3-3.05
	c1.867,0.1,3.983,1.517,6.35,4.25c2.033,2.333,3.05,3.767,3.05,4.3c0,0.066-0.034,0.167-0.1,0.3c-0.1,0.133-0.2,0.2-0.3,0.2
	c-1.4-1.367-2.816-2.717-4.25-4.05C264.183,190.817,262.65,189.45,262.45,189.45z"/>
<path fill-rule="evenodd" clip-rule="evenodd" fill="#35004F" d="M253.15,194.15c-0.8-0.9-1.367-1.533-1.7-1.9
	c-0.534-0.6-0.8-1.183-0.8-1.75c0-0.833,0.333-0.633,1,0.6c0.633,1.1,1.15,1.65,1.55,1.65l4.7,4.55c0,0.267-0.15,0.4-0.45,0.4
	c-0.467,0-1.284-0.55-2.45-1.65C254.067,195.183,253.45,194.55,253.15,194.15z"/>
<path fill-rule="evenodd" clip-rule="evenodd" fill="#35004F" d="M250.05,176.05c-0.733-0.633-1.2-1.15-1.4-1.55v-0.55
	c0.667-0.1,1.383,0.417,2.15,1.55c0.733,1.033,1.1,1.867,1.1,2.5c-0.467,1.4-0.833,2.1-1.1,2.1c-0.033,0-0.15-0.05-0.35-0.15v-0.5
	c0.333-1,0.5-1.684,0.5-2.05C250.95,177,250.65,176.55,250.05,176.05z"/>
<path fill-rule="evenodd" clip-rule="evenodd" fill="#A87E00" d="M262.8,191.9c-1.933,4.067-3.05,6.1-3.35,6.1
	c-0.233,0-0.367-0.05-0.4-0.15v-0.2c0-0.167,0.483-1.217,1.45-3.15c0.233-0.8,0.433-1.383,0.6-1.75
	c0.333-0.667,0.883-1.067,1.65-1.2L262.8,191.9z"/>
<path fill-rule="evenodd" clip-rule="evenodd" fill="#A87E00" d="M263.65,193.1c-0.867-0.6-1.433-1.184-1.7-1.75
	c0.933-0.033,1.8,0.3,2.6,1c1.2,1,1.883,1.55,2.05,1.65c0.333,0.3,0.867,0.883,1.6,1.75c0.867,0.967,1.3,1.55,1.3,1.75
	c0,0.1-0.067,0.2-0.2,0.3c-0.1,0.067-0.183,0.1-0.25,0.1c-0.233,0-0.716-0.467-1.45-1.4c-0.867-1.1-1.417-1.733-1.65-1.9
	C264.917,193.967,264.15,193.467,263.65,193.1z"/>
<path fill-rule="evenodd" clip-rule="evenodd" fill="#A87E00" d="M266.05,196.55c0.434,0,0.65,0.284,0.65,0.85
	c0,0.533-0.317,0.8-0.95,0.8c-0.767,0-1.217-0.267-1.35-0.8s-0.417-0.8-0.85-0.8c-0.667,0-1.083,0.217-1.25,0.65
	c-0.167,0.433-0.4,0.65-0.7,0.65c-0.033,0-0.15-0.05-0.35-0.15v-0.5c0.7-1.133,1.417-1.783,2.15-1.95c0.833-0.2,1.45,0.367,1.85,1.7
	C265.55,196.7,265.817,196.55,266.05,196.55z"/>
<path fill-rule="evenodd" clip-rule="evenodd" fill="#A87E00" d="M267,197.55c-0.233,0.3-0.433,0.45-0.6,0.45
	c-0.233,0-0.35-0.15-0.35-0.45c0-0.059,0.008-0.117,0.025-0.175c-0.205,0.217-0.413,0.325-0.625,0.325c-0.233,0-0.367-0.05-0.4-0.15
	v-0.2c0-0.4,0.383-0.75,1.15-1.05c0.733-0.3,1.1-0.066,1.1,0.7C267.3,197.1,267.2,197.283,267,197.55z"/>
<path fill-rule="evenodd" clip-rule="evenodd" fill="#A87E00" d="M265.7,196.25c0,0.2-0.067,0.483-0.2,0.85
	c-0.167,0.4-0.317,0.6-0.45,0.6c-0.3,0-0.433-0.133-0.4-0.4c0.067-0.233,0.1-0.367,0.1-0.4c0-0.7-0.5-1.05-1.5-1.05
	c-1.1,1.367-1.683,2.05-1.75,2.05c-0.2,0-0.317-0.066-0.35-0.2c0-0.133,0-0.217,0-0.25c0-1.3,0.767-2.2,2.3-2.7
	C264.95,194.283,265.7,194.783,265.7,196.25z"/>
</svg>
