<?xml version="1.0" encoding="utf-8"?>
<!-- Generator: Adobe Illustrator 16.0.0, SVG Export Plug-In . SVG Version: 6.00 Build 0)  -->
<!DOCTYPE svg PUBLIC "-//W3C//DTD SVG 1.1//EN" "http://www.w3.org/Graphics/SVG/1.1/DTD/svg11.dtd">
<svg version="1.1" id="Selected_Items" xmlns="http://www.w3.org/2000/svg" xmlns:xlink="http://www.w3.org/1999/xlink" x="0px"
	 y="0px" width="550px" height="400px" viewBox="0 0 550 400" enable-background="new 0 0 550 400" xml:space="preserve">
<path fill-rule="evenodd" clip-rule="evenodd" fill="#332200" d="M225.7,208.95c-1.467-0.767-2.2-1.351-2.2-1.75
	c0-0.4,0.483-0.65,1.45-0.75c1.033-0.101,2.117,0.017,3.25,0.35c3.133,0.934,4.7,2.851,4.7,5.75c0,0.767-0.066,1.334-0.2,1.7
	c-0.267,0.767-0.833,1.15-1.7,1.15c-1.467,0-2.433-0.834-2.9-2.5c-0.167-1.7-0.25-2.567-0.25-2.601
	C227.85,210.134,227.133,209.684,225.7,208.95z"/>
<path fill-rule="evenodd" clip-rule="evenodd" fill="#332200" d="M244.85,208.75c0.533,0.566,0.867,1.116,1,1.65
	c0.033,0.166,0.05,0.6,0.05,1.3c0,0.767-0.233,1.483-0.7,2.149c-0.767,1.034-1.917,1.551-3.45,1.551c-1,0-1.633-0.584-1.9-1.75
	c-0.067-1.2-0.1-1.817-0.1-1.851c0-2.166,1.45-4.184,4.35-6.05c2.867-1.9,4.3-1.983,4.3-0.25
	C248.4,205.733,247.217,206.816,244.85,208.75z"/>
<path fill-rule="evenodd" clip-rule="evenodd" fill="#332200" d="M230.15,193.7c-0.6-1-0.9-1.6-0.9-1.8
	c0-1.633,0.617-1.617,1.85,0.05c1.2,1.7,1.8,3.25,1.8,4.65s-0.167,2.5-0.5,3.3c-0.333,0.8-0.5,1.633-0.5,2.5
	c0,0.699,0.467,1.916,1.4,3.649c0.9,1.7,1.35,3.684,1.35,5.95c0,0.4-0.167,2.116-0.5,5.15c0,0.399,0.167,1.8,0.5,4.199
	c-0.767,4.7-1.316,7.051-1.65,7.051c-0.667,0-1.067-0.317-1.2-0.95c-0.033-0.667-0.05-1.017-0.05-1.05c0-0.534,0.167-1.367,0.5-2.5
	c0.333-1.167,0.5-2.017,0.5-2.551c-0.333-2.533-0.5-4-0.5-4.399c0.333-2.934,0.5-4.601,0.5-5c0-2.5-0.45-4.334-1.35-5.5
	c-0.933-1.134-1.4-2.483-1.4-4.05c0-1.034,0.167-2.034,0.5-3c0.333-0.967,0.5-1.867,0.5-2.7
	C231,195.667,230.717,194.667,230.15,193.7z"/>
<path fill-rule="evenodd" clip-rule="evenodd" fill="#332200" d="M240.15,191.25c-0.667,0.867-1,1.55-1,2.05
	c0,0.6,0.333,1.383,1,2.35c0.667,1,1,1.833,1,2.5c0,0.767-0.417,2.367-1.25,4.8c-0.833,2.434-1.25,3.717-1.25,3.85
	c0,0.267,0.25,1.367,0.75,3.3c0.5,1.934,0.75,3.4,0.75,4.4c0,0.566-0.117,1.6-0.35,3.1c-0.267,1.534-0.4,2.467-0.4,2.801
	c0,1.267,0.25,2.716,0.75,4.35s0.75,2.566,0.75,2.8c0,0.733-0.3,1.101-0.9,1.101c-0.833,0-1.5-1.351-2-4.051
	c-0.333-2.699-0.5-4.083-0.5-4.149l0.75-6c0-0.3-0.25-1.467-0.75-3.5s-0.75-3.351-0.75-3.95c0-0.767,0.417-2.384,1.25-4.85
	c0.833-2.434,1.25-3.8,1.25-4.101c0-0.1-0.333-0.7-1-1.8s-1-2.133-1-3.1c0-1.333,0.65-2.566,1.95-3.7c1.3-1.133,1.95-1.034,1.95,0.3
	C241.15,189.85,240.817,190.35,240.15,191.25z"/>
<path fill-rule="evenodd" clip-rule="evenodd" fill="#332200" d="M239.95,179.5c2.2,1.067,3.767,2.183,4.7,3.35
	c0.333,0.333,1.45,1.217,3.35,2.65c1.8,1.333,2.85,2.2,3.15,2.6c0.4,0.5,0.65,1.333,0.75,2.5c0.1,1.533,0.184,2.45,0.25,2.75
	c0.233,0.8,0.583,1.8,1.05,3c0.133,0.3,0.2,0.983,0.2,2.05c0,0.467-0.333,2.45-1,5.95c-0.867,4.667-1.867,8.934-3,12.801
	c-3.533,12.333-7.55,18.5-12.05,18.5c-1.967,0-4.383-1.301-7.25-3.9c-0.7-0.634-2.317-2.35-4.85-5.15
	c-1.133-1.233-1.917-2.633-2.35-4.199c-0.4-2.034-0.75-3.7-1.05-5c-0.833-3.801-1.367-7.017-1.6-9.65
	c-0.167-1.9-0.25-4.866-0.25-8.9c0-2.033,0.267-3.417,0.8-4.15c1-1.333,1.9-3.4,2.7-6.2c1.133-3.9,4.517-7.2,10.15-9.9
	C235.183,177.9,237.283,178.2,239.95,179.5z M232.95,181.65l-0.45,0.75c-0.167,0-0.383-0.1-0.65-0.3c-0.2-0.2-0.317-0.317-0.35-0.35
	c-1.833,1.9-3.183,3.433-4.05,4.6c-1.1,1.433-1.867,2.816-2.3,4.15c-0.7,2.333-1.5,4.05-2.4,5.15c-0.567,0.667-0.85,1.783-0.85,3.35
	c0,3.267,0.133,6.033,0.4,8.3c0.2,1.601,0.65,4.667,1.35,9.2c0.1,0.566,0.417,1.333,0.95,2.3c0.566,1.066,0.9,1.8,1,2.2
	s0.183,1.066,0.25,2c0.167,0.9,0.517,1.684,1.05,2.35c1.467,1.667,3.133,3.317,5,4.95c2.533,2.233,4.3,3.351,5.3,3.351
	c3,0,5.55-2.7,7.65-8.101c1.6-5.666,2.483-8.767,2.65-9.3c0.667-2.066,1.517-5.5,2.55-10.3c0.967-4.434,1.45-6.917,1.45-7.45
	c-1.133-5.8-2.217-9.267-3.25-10.4c-0.8-0.867-1.95-1.867-3.45-3c-1.533-1.1-2.55-1.85-3.05-2.25c-2.967-2.4-5.4-3.2-7.3-2.4
	C233.883,180.717,233.383,181.117,232.95,181.65z"/>
<path fill-rule="evenodd" clip-rule="evenodd" fill="#332200" d="M218.25,221.05c0,0.934,1.2,1.584,3.6,1.95
	c2.367,0.333,3.55,0.8,3.55,1.4c0,0.466-0.167,0.75-0.5,0.85c-0.182,0.055-0.565,0.097-1.15,0.125
	c-0.078-0.215-0.928-0.307-2.55-0.275c-1.833,0-2.767,0-2.8,0c-0.2-0.1-0.417-0.3-0.65-0.6c-0.533-0.366-0.867-0.733-1-1.1
	c-0.133-0.267-0.417-0.551-0.85-0.851c-0.533-0.366-0.917-0.684-1.15-0.95c-0.833-0.966-1.25-2.316-1.25-4.05
	c0-1.066,0.483-2.017,1.45-2.85c1.133-0.9,2.183-0.3,3.15,1.8c0.133,0.634,0.2,1.5,0.2,2.6
	C218.3,219.7,218.283,220.35,218.25,221.05z"/>
<path fill-rule="evenodd" clip-rule="evenodd" fill="#332200" d="M246.85,222.15c-0.067-0.101-0.1-0.284-0.1-0.551
	c0-0.633,0.6-1.033,1.8-1.199c1.633-0.267,2.917-0.817,3.85-1.65c0.5-0.434,0.95-0.983,1.35-1.65c0.5-0.767,0.75-1.416,0.75-1.949
	c-0.033-3.101,0.867-4.101,2.7-3c1.8,1.1,2.7,2.383,2.7,3.85c0,1.434-0.8,2.45-2.4,3.05c-3.1,1.167-5.517,2.367-7.25,3.601h-2.5
	C247.283,222.55,246.983,222.384,246.85,222.15z"/>
<path fill-rule="evenodd" clip-rule="evenodd" fill="#644300" d="M223.55,208.3c0.133,0.367,0.217,0.967,0.25,1.8
	c0.034,0.934,0.1,1.584,0.2,1.95c0.033,0.066,0.25,0.684,0.65,1.851c0.267,0.8,0.383,1.416,0.35,1.85
	c0.9,0.366,1.417,0.583,1.55,0.65c0.067-0.267,0.267-0.4,0.6-0.4c0.4,0,0.7,0.3,0.9,0.9c0.067,0.066,0.217,0.199,0.45,0.399
	c0.167,0.134,0.25,0.233,0.25,0.3c-0.067,0.4-0.3,0.634-0.7,0.7l0.05,0.5c0,0.367-0.25,0.8-0.75,1.3c-0.533,0.5-0.8,0.817-0.8,0.95
	c0,0.033,0.133,0.467,0.4,1.3c0.267,0.9,0.4,1.45,0.4,1.65c0,0.134-0.05,0.283-0.15,0.45c-0.133,0.2-0.3,0.3-0.5,0.3
	c-0.3,0-0.85-0.783-1.65-2.35c-0.833-1.634-1.267-2.867-1.3-3.7c-0.067-1.467-0.233-2.684-0.5-3.65
	c-0.233-0.833-0.35-1.633-0.35-2.399c-0.367-0.934-0.55-1.601-0.55-2c0.133-0.301,0.2-0.534,0.2-0.7c0-0.334-0.267-1.184-0.8-2.55
	c0-0.5,0.433-0.717,1.3-0.65c0.934,0.066,1.717,0.417,2.35,1.05c0.667,0.267,1.267,0.65,1.8,1.15c0.5,0.434,0.85,0.85,1.05,1.25
	c0.167,0.366,0.333,1.3,0.5,2.8c0.233,1.366,0.7,2.05,1.4,2.05c0.434,0,0.917-0.149,1.45-0.45c0.533-0.333,0.85-0.5,0.95-0.5
	c0.434,0,0.667,0.2,0.7,0.601c0,0.434-0.283,0.816-0.85,1.149c-0.6,0.334-1.333,0.5-2.2,0.5c-1.4,0-2.284-0.6-2.65-1.8
	c-0.1-1.3-0.167-2.066-0.2-2.3c-0.2-1.233-0.833-2.217-1.9-2.95C225.35,209.233,224.717,208.9,223.55,208.3z"/>
<path fill-rule="evenodd" clip-rule="evenodd" fill="#644300" d="M232.95,209.4c-0.1,0.066-0.15,0.133-0.15,0.199
	c0,0.034,0.083,0.4,0.25,1.101c0.167,0.767,0.25,1.383,0.25,1.85c0,0.9-0.033,1.533-0.1,1.9c-0.167,0.899-0.55,1.35-1.15,1.35
	l-0.35-0.1l-0.05-0.55c0.333-1.5,0.5-2.483,0.5-2.95c0-0.934-0.15-1.684-0.45-2.25c-0.333-0.601-0.5-1.367-0.5-2.3
	c0-0.101-0.133-0.233-0.4-0.4c-0.267-0.167-0.4-0.316-0.4-0.45l0.05-0.35c0.267-0.2,0.767,0.116,1.5,0.95
	c0.733,0.8,1.1,1.383,1.1,1.75C233.05,209.25,233.017,209.333,232.95,209.4z"/>
<path fill-rule="evenodd" clip-rule="evenodd" fill="#644300" d="M240.35,208.4c0.2-0.4,0.383-0.601,0.55-0.601
	c0.167,0,0.267,0.033,0.3,0.101c0,0.033,0.033,0.116,0.1,0.25l-1.25,3.25c0,1,0.317,1.883,0.95,2.649
	c0.333,0.4,0.65,0.717,0.95,0.95c0,0.066-0.1,0.167-0.3,0.3c0.033,0.066,0.133,0.233,0.3,0.5c-0.2,0.5-0.45,0.75-0.75,0.75
	c-0.233-0.1-0.483-0.149-0.75-0.149l-0.05-0.7c-0.066-0.033-0.1-0.084-0.1-0.15c-0.066,0.134-0.183,0.267-0.35,0.4
	c-0.567-1.5-0.833-2.8-0.8-3.9c0.033-0.666-0.05-1.399-0.25-2.2c-0.167-0.8-0.25-1.383-0.25-1.75l0.05-0.399
	c0.167-0.033,0.533,0,1.1,0.1C240.133,207.8,240.317,208,240.35,208.4z"/>
<path fill-rule="evenodd" clip-rule="evenodd" fill="#644300" d="M223.55,195.5c0.967,0,1.467,0.467,1.5,1.4
	c0.034,0.533,0.017,1.367-0.05,2.5c0.133,0.8,0.167,2.083,0.1,3.85c0,0.767-0.15,1.5-0.45,2.2c0.5,0,1.184-0.033,2.05-0.101
	c1,0,1.683,0.117,2.05,0.351c0.233,0.133,0.517,0.316,0.85,0.55c-0.033-0.134-0.217-0.434-0.55-0.9
	c-0.3-0.399-0.45-0.716-0.45-0.949c0-0.167,0.15-0.367,0.45-0.601c0.3-0.233,0.45-0.7,0.45-1.399c0-0.334,0.117-1.084,0.35-2.25
	c0.167-1.967,0.25-3.434,0.25-4.4c0-0.133-0.45-0.917-1.35-2.35c-0.933-1.4-1.4-2.133-1.4-2.2c0-1.3,0.667-1.05,2,0.75
	c1.333,1.767,2,3.033,2,3.8c0,0.7-0.1,2-0.3,3.9c-0.2,1.9-0.3,3.067-0.3,3.5c0,1.033,0.333,2.066,1,3.1s1,1.583,1,1.65
	c0,0.3-0.067,0.583-0.2,0.85c-0.167,0.333-0.383,0.5-0.65,0.5c-0.233,0-0.95-0.434-2.15-1.3c-1.2-0.867-2.233-1.3-3.1-1.3
	l-2.95,0.199c-0.034,0.034-0.15,0.233-0.35,0.601c-0.167,0.267-0.4,0.399-0.7,0.399c-0.533,0-0.8-0.466-0.8-1.399
	c0.1-1.101,0.15-1.851,0.15-2.25c-0.333-2.134-0.5-3.351-0.5-3.65c0-0.9,0.083-1.767,0.25-2.6
	C222.083,196.317,222.683,195.5,223.55,195.5z"/>
<path fill-rule="evenodd" clip-rule="evenodd" fill="#644300" d="M222.5,196.05c0-0.433,0.283-1.133,0.85-2.1
	c0.7-1.167,1.083-1.833,1.15-2c0.5-1.5,1.367-2.067,2.6-1.7c1.167,0.333,1.75,0.8,1.75,1.4c0,0.133-0.067,0.267-0.2,0.4
	s-0.3,0.2-0.5,0.2c-0.167,0-0.4-0.083-0.7-0.25l-0.45-0.3c0,0.667-0.35,1.85-1.05,3.55c-0.7,1.667-1.167,2.5-1.4,2.5
	c-0.433,0-0.667-0.1-0.7-0.3c0-0.267,0-0.434,0-0.5v-0.1c-0.233,0.1-0.434,0.15-0.6,0.15c-0.4,0-0.65-0.15-0.75-0.45V196.05z"/>
<path fill-rule="evenodd" clip-rule="evenodd" fill="#644300" d="M225.8,193.15c-0.1-2.333,0.65-2.733,2.25-1.2
	c1.6,1.566,2.4,2.733,2.4,3.5c0,0.966-0.25,3.267-0.75,6.899c0,0.834,0.117,1.867,0.35,3.101c0,0.267-0.1,0.517-0.3,0.75
	c-0.233,0.233-0.533,0.35-0.9,0.35c-0.934,0-2-0.166-3.2-0.5c-1.4-0.434-2.1-0.899-2.1-1.399c0-0.101,0.083-0.25,0.25-0.45
	c0.2-0.233,0.317-0.517,0.35-0.851l-0.1-3.649c0-0.9,0.267-1.917,0.8-3.05C225.417,195.45,225.733,194.283,225.8,193.15z"/>
<path fill-rule="evenodd" clip-rule="evenodd" fill="#644300" d="M243.5,206.6c-2.067,1.434-3.133,2.15-3.2,2.15
	c-0.533,0-0.85-0.083-0.95-0.25c0-0.2-0.017-0.35-0.05-0.45l-0.6,0.3c-0.3,0-0.483-0.133-0.55-0.399
	c-0.033-0.267-0.05-0.417-0.05-0.45c0-0.267,0.316-1.217,0.95-2.85c0.534-1.434,0.9-2.351,1.1-2.75
	c0.267-0.733,0.483-1.667,0.65-2.8c0.067-0.567,0.383-1.117,0.95-1.65c0.567-0.6,0.85-0.417,0.85,0.55c0,0.4-0.217,1.633-0.65,3.7
	c-0.4,1.6-0.6,2.816-0.6,3.649c0,0.167,0.083,0.4,0.25,0.7c0.566-0.3,1.517-0.916,2.85-1.85c1.3-0.8,2.5-1.2,3.6-1.2
	c0.967,0,1.367,0.566,1.2,1.7c0,0.666-0.267,1.333-0.8,2c-0.467,0.6-1.25,1.333-2.35,2.2c0.367,0.699,0.566,1.133,0.6,1.3
	c0.033,0.1,0.05,0.434,0.05,1c0,1.6-0.567,2.883-1.7,3.85c-0.267,0.134-0.5,0.267-0.7,0.4c-0.4,0.233-0.6,0.399-0.6,0.5l-0.05,0.95
	c-0.367,1.066-0.8,1.6-1.3,1.6c-0.433,0-0.7-0.267-0.8-0.8c0-0.033,0-0.384,0-1.05l-0.15-0.15c-0.633,1.634-0.95,3.167-0.95,4.6
	c0,0.601,0.15,1.25,0.45,1.95c0.267,0.7,0.4,1.134,0.4,1.3c0,0.5-0.233,0.75-0.7,0.75c-0.533,0-0.917-0.666-1.15-2l-0.25-2
	l0.3-2.399l-0.2-1.05c0-0.301,0.117-0.834,0.35-1.601c0.3-0.967,0.617-1.45,0.95-1.45c0.1,0,0.283,0.101,0.55,0.301
	c1.833,0,3.1-0.567,3.8-1.7c0.333-0.566,0.5-1.217,0.5-1.95c0-0.434-0.167-0.884-0.5-1.35c-0.333-0.5-0.5-0.851-0.5-1.051
	c0-0.133,0.45-0.666,1.35-1.6c1.133-1.167,1.85-1.934,2.15-2.3v-0.5l-0.3-0.05C247.067,204.4,245.667,205.134,243.5,206.6z"/>
<path fill-rule="evenodd" clip-rule="evenodd" fill="#644300" d="M246,223.45c-1.433,4.2-2.5,6.3-3.2,6.3
	c-0.333,0-0.85-0.366-1.55-1.1c-0.633-0.667-1-1.2-1.1-1.601c-0.066-0.1-0.15-0.5-0.25-1.2c-0.1-0.699-0.15-1.199-0.15-1.5
	c0-0.233,0.017-0.383,0.05-0.449c0.067-0.134,0.267-0.25,0.6-0.351c-0.1-0.233-0.15-0.6-0.15-1.1c0.067-1.3,0.183-2.55,0.35-3.75
	c0.333-2.4,0.733-3.601,1.2-3.601c0.367,0,0.617,0.117,0.75,0.351c0.1,0.1,0.233,0.3,0.4,0.6c0.333-0.934,0.517-1.416,0.55-1.45
	c0.4-0.699,0.967-0.983,1.7-0.85c0.867-2,1.6-2.616,2.2-1.85c0.467,0.566,0.7,1.433,0.7,2.6C248.1,216.3,247.4,219.283,246,223.45z"
	/>
<path fill-rule="evenodd" clip-rule="evenodd" fill="#644300" d="M245.75,208.95c0-0.566,0.467-1.134,1.4-1.7
	c0.967-0.566,1.483-1.417,1.55-2.55c0-0.601,0.2-1.384,0.6-2.351c0.3-0.933,0.684-1.267,1.15-1c0.433,0.301,0.65,0.717,0.65,1.25
	c-0.867,8.167-1.85,12.25-2.95,12.25c-0.3,0-0.633-0.366-1-1.1s-0.55-1.384-0.55-1.95s-0.133-1.083-0.4-1.55
	C245.9,209.783,245.75,209.35,245.75,208.95z"/>
<path fill-rule="evenodd" clip-rule="evenodd" fill="#644300" d="M224.55,208.75c0,0.267,0.25,0.55,0.75,0.85
	c0.467,0.267,0.7,0.534,0.7,0.801s-0.1,0.483-0.3,0.649c-0.167,0.134-0.35,0.2-0.55,0.2c-0.367,0-0.816-0.434-1.35-1.3
	c-0.466-0.733-0.7-1.167-0.7-1.3c0-0.567,0.283-0.934,0.85-1.101c0.533-0.166,0.8,0.033,0.8,0.601
	C224.75,208.316,224.683,208.517,224.55,208.75z"/>
<path fill-rule="evenodd" clip-rule="evenodd" fill="#644300" d="M225,207.95c1.333,0,2.267,1.083,2.8,3.25
	c0.233,1.066,0.35,2.267,0.35,3.6c0.367-0.1,0.85,0.017,1.45,0.351c0.667,0.366,1.066,0.55,1.2,0.55c0.034,0,0.2-0.084,0.5-0.25
	c0.333-0.167,0.583-0.25,0.75-0.25c0.7,0,1.034,0.35,1,1.05c0,0.233-0.083,0.533-0.25,0.9c-0.167,0.399-0.25,0.649-0.25,0.75
	c0,0.533,0.15,1.133,0.45,1.8c0.267,0.7,0.4,1.399,0.4,2.1c0,0.634-0.117,1.384-0.35,2.25c-0.267,0.9-0.4,2.033-0.4,3.4
	c0,0.467-0.316,0.866-0.95,1.2c-0.534,0.267-0.95,0.399-1.25,0.399c-0.567,0-1.167-0.399-1.8-1.2c-0.566-0.833-0.933-1.333-1.1-1.5
	c-0.333-0.333-0.683-0.75-1.05-1.25c-0.533-0.699-0.8-1.183-0.8-1.449c0-0.233,0.017-0.384,0.05-0.45
	c0.1-0.167,0.383-0.351,0.85-0.55c-0.267-0.267-0.4-0.884-0.4-1.851c0-0.267,0.167-0.934,0.5-2l0.45-1.5
	c-0.333,0.033-0.733-0.1-1.2-0.399c-0.9-0.601-1.617-1.784-2.15-3.551c-0.1-0.333-0.267-1.017-0.5-2.05
	c-0.233-1.1-0.35-1.75-0.35-1.95C222.95,208.417,223.633,207.95,225,207.95z"/>
<path fill-rule="evenodd" clip-rule="evenodd" fill="#644300" d="M238.85,180.45c0.867,0.433,1.816,1.083,2.85,1.95
	c0.733,0.4,1.55,1.017,2.45,1.85c1.267,1.133,2.017,1.783,2.25,1.95c1.667,1.3,2.8,2.583,3.4,3.85c0.333,0.733,0.667,2.067,1,4
	c0.1,0.367,0.4,1.067,0.9,2.1c0.4,0.867,0.6,1.5,0.6,1.9c-0.7,3.334-1.4,5-2.1,5c-0.6,0-0.9-0.35-0.9-1.05
	c0.167-0.833,0.25-1.45,0.25-1.85c0-0.867-0.283-2.601-0.85-5.2c-0.5-2.467-0.85-3.883-1.05-4.25c-0.367-0.667-1.75-2.233-4.15-4.7
	c-0.367-0.367-2.667-1.85-6.9-4.45c-1.7,0-3.4,0.767-5.1,2.3c-1.167,1.066-2.067,2.183-2.7,3.35c-0.233,0.4-0.433,0.883-0.6,1.45
	c-0.167,0.6-0.367,1.117-0.6,1.55c-0.133,0.267-0.5,0.75-1.1,1.45c-0.7,0.833-1.183,1.25-1.45,1.25c-0.667,0-1-0.333-1-1
	c0-0.467,0.733-1.883,2.2-4.25c1.367-2.267,2.183-3.517,2.45-3.75c1.667-1.8,3.45-3.05,5.35-3.75
	C235.617,179.517,237.217,179.617,238.85,180.45z"/>
<path fill-rule="evenodd" clip-rule="evenodd" fill="#644300" d="M242.85,185.2c0.133,0,0.316-0.184,0.55-0.55
	c0.3-0.2,0.783,0.1,1.45,0.9c0.333,0.267,0.767,0.85,1.3,1.75c0.967,1.267,1.633,2.434,2,3.5c0.7,2.133,1.083,4.434,1.15,6.9
	c0.9,0.066,1.317,0.933,1.25,2.6l-0.35,2.101c0,0.166,0.066,0.35,0.2,0.55c0,0.767-0.483,1.149-1.45,1.149
	c-1.667,0.034-2.8,0.167-3.4,0.4c-0.4,0.134-1.233,0.5-2.5,1.1c-1.066,0.534-1.7,0.801-1.9,0.801c-0.5,0-0.833-0.15-1-0.45
	c-0.066-0.3-0.1-0.467-0.1-0.5c0-0.267,0.067-0.467,0.2-0.601c0.2-0.199,0.35-0.466,0.45-0.8c0-0.033,0.1-0.467,0.3-1.3
	c0.233-1.134,0.45-2.033,0.65-2.7c-0.667-0.3-1.017-0.8-1.05-1.5c-0.067-1.033-0.167-1.683-0.3-1.95c-0.633-1.1-1-1.767-1.1-2
	c-0.1-0.233-0.15-0.717-0.15-1.45c0-0.767,0.117-1.283,0.35-1.55c0.5-0.567,0.95-1.283,1.35-2.15c-0.433-0.3-0.683-0.567-0.75-0.8
	c-0.033-0.066-0.05-0.316-0.05-0.75c0-0.566,0.1-1.1,0.3-1.6c0.333-0.9,0.883-1.35,1.65-1.35
	C242.067,184.95,242.383,185.033,242.85,185.2z"/>
<path fill-rule="evenodd" clip-rule="evenodd" fill="#644300" d="M229.8,192.05c0,0.733-0.316,1.1-0.95,1.1
	c-0.467,0-0.883-0.433-1.25-1.3c-0.267-0.667-0.4-1.15-0.4-1.45c0-0.433,0.083-0.7,0.25-0.8c0.167-0.133,0.55-0.2,1.15-0.2
	c0.033,0,0.15-0.066,0.35-0.2c0.233-0.167,0.583-0.25,1.05-0.25c0.833,0,2.35,1.566,4.55,4.7c0,0.667-0.316,1-0.95,1
	c-0.667,0-1.883-1.25-3.65-3.75C229.85,191,229.8,191.383,229.8,192.05z"/>
<path fill-rule="evenodd" clip-rule="evenodd" fill="#644300" d="M238.9,182.1c1.333,0.5,2.167,0.85,2.5,1.05
	c0.934,0.5,1.4,1.25,1.4,2.25c0,0.533-0.233,1-0.7,1.4c-0.733,0.6-1.283,1.2-1.65,1.8c-0.2,0.3-0.617,0.833-1.25,1.6
	c-0.534,0.633-0.883,1.133-1.05,1.5c-0.767,1.466-1.133,2.533-1.1,3.2c0,0.533-0.083,1.067-0.25,1.6c-0.3,0.867-0.75,1.3-1.35,1.3
	c-0.833,0-1.55-1.466-2.15-4.4c-0.133-0.633-0.533-1.35-1.2-2.15c-1-1.167-1.6-1.917-1.8-2.25c-0.7,1.433-1.35,2.15-1.95,2.15
	c-0.5,0-0.8-0.316-0.9-0.95c0-0.633,0-0.967,0-1c0-2.133,1.367-4.067,4.1-5.8c2.2-1.4,3.95-2.1,5.25-2.1
	C236.9,181.3,237.6,181.567,238.9,182.1z"/>
<path fill-rule="evenodd" clip-rule="evenodd" fill="#644300" d="M232.45,196.75c0.1-0.4,0.15-0.717,0.15-0.95
	c0-0.2-0.1-0.517-0.3-0.95c-0.233-0.434-0.35-0.917-0.35-1.45c0-1.3,0.517-1.95,1.55-1.95c0.733,0,1.083,0.3,1.05,0.9
	c0,0.133-0.05,0.3-0.15,0.5c-0.133,0.267-0.3,0.417-0.5,0.45c0.6,0.467,1,1.083,1.2,1.85c0.133,0.434,0.283,1.067,0.45,1.9
	c0.367-0.333,0.517-1.15,0.45-2.45c-0.033-1.1,0.283-1.65,0.95-1.65c1.033,0,1.933,1.816,2.7,5.45c0,0.7-0.383,2.05-1.15,4.05
	c-0.367,1.066-0.817,2.217-1.35,3.45c-0.467,1.1-0.8,2.733-1,4.899c-0.167,1.5-0.517,2.25-1.05,2.25
	c-0.633,0-1.017-0.383-1.15-1.149c0.033-0.834,0.033-1.317,0-1.45c-0.034-0.267-0.184-0.717-0.45-1.351
	c-0.267-0.633-0.433-1.1-0.5-1.399c-0.267-1.3-0.6-2.334-1-3.101c-0.3-0.533-0.45-1.283-0.45-2.25c0-0.733,0.133-1.416,0.4-2.05
	c0.233-0.667,0.35-1.533,0.35-2.6C232.3,197.467,232.35,197.15,232.45,196.75z"/>
<path fill-rule="evenodd" clip-rule="evenodd" fill="#644300" d="M237.2,206.9l0.75,3.25c0.167,0.666,0.4,1.283,0.7,1.85
	c0.167,0.366,0.25,0.833,0.25,1.4c0,0.533-0.133,1.35-0.4,2.449c-0.3,1.101-0.45,1.9-0.45,2.4c0,1.566,0.117,3.283,0.35,5.15
	c0.033,1.399,0.083,2.233,0.15,2.5c0.2,0.966,0.75,1.8,1.65,2.5c0.066-0.067,0.183-0.284,0.35-0.65c0.233-0.333,0.534-0.5,0.9-0.5
	c0.3,0,0.917,0.684,1.85,2.05c0,0.5-0.667,1.4-2,2.7c-1.5,1.434-2.85,2.15-4.05,2.15c-1.933,0-3.833-0.9-5.7-2.7
	c-1.566-1.5-2.35-2.584-2.35-3.25c0-0.8,0.316-1.2,0.95-1.2c0.233,0,0.434,0.134,0.6,0.4c0.167,0.199,0.267,0.383,0.3,0.55
	c0.4-0.134,0.65-0.2,0.75-0.2c0.167,0,0.534,0.083,1.1,0.25c0.267-1.066,0.467-1.934,0.6-2.6c0.3-1.267,0.45-2.2,0.45-2.801
	c-0.267-2.066-0.4-3.166-0.4-3.3c0-0.2,0.1-0.684,0.3-1.45c0.167-0.733,0.283-1.133,0.35-1.199v-4.601c0.1-0.2,0.3-0.45,0.6-0.75
	c0.267-0.2,0.4-0.45,0.4-0.75c0-0.7,0.033-1.233,0.1-1.6c-0.066-0.733-0.05-1.3,0.05-1.7C235.55,206.55,236.167,206.434,237.2,206.9
	z"/>
<path fill-rule="evenodd" clip-rule="evenodd" fill="#8A5E00" d="M235.35,181.25c-1-0.6-1.5-0.983-1.5-1.15
	c0-0.467,0.45-0.75,1.35-0.85c1.066-0.067,2.483,0.2,4.25,0.8c0.466,0.067,0.733,0.233,0.8,0.5c0.1,0.4,0.167,0.617,0.2,0.65
	c0.566,0.566,0.883,0.85,0.95,0.85c0.067,0,0.317-0.066,0.75-0.2c0.233,0,1.133,0.75,2.7,2.25c0.833,0.833,2.017,1.983,3.55,3.45
	c1.133,1.034,1.934,2,2.4,2.9c0.467,0.833,0.7,1.733,0.7,2.7c0,0.033,0.15,0.5,0.45,1.4c0.267,0.934,0.4,1.85,0.4,2.75
	c-0.067,2.133-0.383,3.2-0.95,3.2c-0.566,0-0.883-0.683-0.95-2.05c-0.1-1.8-0.233-2.85-0.4-3.15c-0.533-1.167-0.966-2.05-1.3-2.65
	c-0.567-1.066-1.15-1.933-1.75-2.6c-0.533-0.6-1.55-1.4-3.05-2.4c-1.7-1.167-2.967-2.117-3.8-2.85
	C238.517,183.333,236.917,182.15,235.35,181.25z"/>
<path fill-rule="evenodd" clip-rule="evenodd" fill="#8A5E00" d="M231.3,197.6c-0.367,0-0.8-0.717-1.3-2.15l-0.65-2.1
	c0-1.267,0.483-1.283,1.45-0.05c0.967,1.2,1.45,2.284,1.45,3.25C232.25,197.25,231.933,197.6,231.3,197.6z"/>
<path fill-rule="evenodd" clip-rule="evenodd" fill="#8A5E00" d="M233.7,211.95c-0.133,0.2-0.3,0.3-0.5,0.3
	c-0.367,0-0.667-0.434-0.9-1.3c-0.167-0.967-0.3-1.584-0.4-1.851c-0.867-1.833-1.3-2.866-1.3-3.1c0-1.333,0.55-1.116,1.65,0.65
	c1.067,1.733,1.6,3.35,1.6,4.85C233.85,211.634,233.8,211.783,233.7,211.95z"/>
<path fill-rule="evenodd" clip-rule="evenodd" fill="#8A5E00" d="M233.45,222.5c-0.3,0-0.567-0.517-0.8-1.55l-0.3-1.45
	c0-0.4,0.2-0.8,0.6-1.2c0.433-0.399,0.683-0.116,0.75,0.851c0,0.199,0.066,0.533,0.2,1c0.133,0.5,0.2,0.883,0.2,1.149
	C234.233,222.1,234.017,222.5,233.45,222.5z"/>
<path fill-rule="evenodd" clip-rule="evenodd" fill="#644300" d="M247.75,222c-0.133,0-0.25-0.083-0.35-0.25
	c-0.1-0.134-0.15-0.233-0.15-0.3c0-0.134,0.517-0.316,1.55-0.55c0.567-0.134,1.233-0.284,2-0.45c0.633-0.233,1.417-0.717,2.35-1.45
	c0.633-0.434,1.083-0.983,1.35-1.65c0.267-0.767,0.45-1.333,0.55-1.699l0.15-2.301c0.066-0.933,0.566-1.216,1.5-0.85
	c0.367,0.2,0.683,0.45,0.95,0.75c0.167,0.2,0.4,0.483,0.7,0.85c0.066,0.101,0.35,0.4,0.85,0.9c0.167,0.167,0.25,0.4,0.25,0.7
	c0,0.967-0.567,1.767-1.7,2.399c-1.267,0.601-2.083,1-2.45,1.2c-1.667,0.667-2.783,1.167-3.35,1.5
	C250.45,221.6,249.05,222,247.75,222z"/>
<path fill-rule="evenodd" clip-rule="evenodd" fill="#644300" d="M215.95,215.1c0.966,0,1.6,1.084,1.9,3.25
	c0,0.134-0.1,0.5-0.3,1.101c0,1.1,0.217,1.934,0.65,2.5c0.733,0.934,2.1,1.467,4.1,1.6l1.7,0.05c0.133,0,0.217,0.034,0.25,0.101
	c0,0.033,0.017,0.083,0.05,0.149c0.4-0.033,0.6,0.084,0.6,0.351c-0.033,0.366-0.167,0.55-0.4,0.55
	c-0.333-0.134-0.65-0.184-0.95-0.15h-0.4c-0.133,0.101-0.233,0.15-0.3,0.15c-2.467-0.134-3.95-0.35-4.45-0.65
	c-0.233-0.133-0.433-0.333-0.6-0.6c-0.2-0.3-0.367-0.55-0.5-0.75c-0.267-0.366-0.833-0.833-1.7-1.4c-0.667-0.466-1-0.866-1-1.199
	l0.2-0.5c-0.4-0.767-0.6-1.317-0.6-1.65c0-0.8,0.05-1.316,0.15-1.55c0.066-0.2,0.3-0.467,0.7-0.8
	C215.45,215.283,215.75,215.1,215.95,215.1z"/>
<path fill-rule="evenodd" clip-rule="evenodd" fill="#8A5E00" d="M216.15,214.95c0.833,0,1.4,0.517,1.7,1.55
	c0.133,0.467,0.2,1.033,0.2,1.7c0,0.434-0.117,0.649-0.35,0.649c-0.167,0-0.317-0.25-0.45-0.75c-0.2-0.6-0.317-0.933-0.35-1
	c-0.133-0.199-0.4-0.5-0.8-0.899c-0.033-0.033-0.233-0.184-0.6-0.45c-0.1-0.1-0.15-0.217-0.15-0.35c0-0.267,0.133-0.417,0.4-0.45
	C215.883,214.917,216.017,214.917,216.15,214.95z"/>
<path fill-rule="evenodd" clip-rule="evenodd" fill="#8A5E00" d="M224.2,224.1c-1.633,0-3.133-0.25-4.5-0.75
	c-1.333-0.5-2-1.017-2-1.55c0-0.366,0.183-0.434,0.55-0.2c0.2,0.134,0.4,0.301,0.6,0.5c0.2,0.2,0.717,0.4,1.55,0.601
	c0.667,0.166,1.65,0.35,2.95,0.55c1,0.2,1.5,0.384,1.5,0.55C224.85,224,224.633,224.1,224.2,224.1z"/>
<path fill-rule="evenodd" clip-rule="evenodd" fill="#8A5E00" d="M250.1,220.65c0,0.1-0.4,0.283-1.2,0.55
	c-0.767,0.233-1.25,0.35-1.45,0.35c-0.2,0-0.317-0.05-0.35-0.149v-0.15c0-0.134,0.35-0.316,1.05-0.55
	c0.667-0.233,1.2-0.351,1.6-0.351C249.95,220.35,250.067,220.45,250.1,220.65z"/>
<path fill-rule="evenodd" clip-rule="evenodd" fill="#8A5E00" d="M259.55,215.35c0,0.334-0.1,0.5-0.3,0.5
	c-0.167,0-0.4-0.283-0.7-0.85c-0.1-0.134-0.5-0.434-1.2-0.9c-0.333-0.399-0.633-0.683-0.9-0.85c-0.2-0.167-0.45-0.3-0.75-0.4
	c-0.133-0.066-0.2-0.166-0.2-0.3c0-0.399,0.333-0.6,1-0.6c0.467,0,0.817,0.2,1.05,0.6c0.434,0.667,0.684,1.033,0.75,1.101
	C259.133,214.417,259.55,214.983,259.55,215.35z"/>
<path fill-rule="evenodd" clip-rule="evenodd" fill="#422D00" d="M218.4,224.2c-0.767-0.434-1.15-0.8-1.15-1.101
	c0-0.366,0.183-0.433,0.55-0.199c0.2,0.133,0.4,0.316,0.6,0.55c0.3,0.267,1.067,0.517,2.3,0.75l3.2,0.149
	c0.3,0,0.45,0.101,0.45,0.301c0,0.267-0.267,0.399-0.8,0.399l-2.95-0.2C219.933,224.884,219.2,224.667,218.4,224.2z"/>
<path fill-rule="evenodd" clip-rule="evenodd" fill="#422D00" d="M214.7,220.7c-0.333-0.5-0.5-0.867-0.5-1.101
	c0-0.533,0.183-0.566,0.55-0.1c0.233,0.3,0.6,0.8,1.1,1.5c0.167,0.167,0.566,0.517,1.2,1.05c0.567,0.5,0.85,0.851,0.85,1.05
	c0,0.301-0.117,0.45-0.35,0.45l-1.35-0.95c-0.267-0.166-0.467-0.316-0.6-0.449c-0.2-0.167-0.267-0.367-0.2-0.601
	C215.233,221.483,215,221.2,214.7,220.7z"/>
<path fill-rule="evenodd" clip-rule="evenodd" fill="#422D00" d="M250.8,221.65c-1.3,0.366-2.3,0.55-3,0.55
	c-0.233,0-0.35-0.101-0.35-0.3c0-0.2,0.3-0.351,0.9-0.45c0.367-0.066,0.917-0.167,1.65-0.3c0.267-0.067,0.85-0.301,1.75-0.7
	c0.733-0.233,1.1-0.167,1.1,0.2C252.85,220.917,252.167,221.25,250.8,221.65z"/>
<path fill-rule="evenodd" clip-rule="evenodd" fill="#422D00" d="M258.35,218.25c-0.8,0.5-1.283,0.8-1.45,0.9
	c-2.1,1.133-3.517,1.699-4.25,1.699c-0.3,0-0.45-0.166-0.45-0.5c0-0.166,0.6-0.517,1.8-1.05c0.9-0.399,1.567-0.666,2-0.8
	c0.033,0,0.4-0.15,1.1-0.45c0.433-0.166,0.783-0.35,1.05-0.55c0.233-0.233,0.467-0.417,0.7-0.55c0.4-0.2,0.6-0.117,0.6,0.25
	C259.45,217.434,259.083,217.783,258.35,218.25z"/>
<path fill-rule="evenodd" clip-rule="evenodd" fill="#422D00" d="M239.25,196.05l0.15,0.9c0,0.066,0.083,0.316,0.25,0.75
	c0.133,0.433,0.2,0.816,0.2,1.15c0,0.133-0.05,0.383-0.15,0.75c-0.1,0.4-0.2,0.6-0.3,0.6c-0.133,0-0.25-0.084-0.35-0.25l-0.1-0.25
	l0.1-1c0-0.534-0.316-1.534-0.95-3c-0.667-1.434-1-2.184-1-2.25c0-0.233,0.15-0.35,0.45-0.35c0.367,0,0.7,0.45,1,1.35
	c0.567,0.767,0.85,1.2,0.85,1.3S239.35,195.95,239.25,196.05z"/>
<path fill-rule="evenodd" clip-rule="evenodd" fill="#422D00" d="M237.8,208.3c0.133,0.634,0.217,0.983,0.25,1.05
	c0.034,0.233,0.25,1,0.65,2.301c0,0.3-0.083,0.449-0.25,0.449c-0.633,0-1.133-1.649-1.5-4.949c0-0.5,0.1-0.767,0.3-0.801
	c0.2-0.066,0.3,0.167,0.3,0.7C237.55,207.184,237.633,207.6,237.8,208.3z"/>
<path fill-rule="evenodd" clip-rule="evenodd" fill="#422D00" d="M237.35,193.7c0.233,0.066,0.433,0.367,0.6,0.9
	c0.133,0.267,0.316,0.8,0.55,1.6c0.033,0.066,0.2,0.566,0.5,1.5c0.333,0.966,0.5,1.55,0.5,1.75c0,0.066-0.033,0.167-0.1,0.3
	c-0.1,0.133-0.2,0.2-0.3,0.2c-0.233,0-0.417-0.2-0.55-0.6c-0.133-0.3-0.2-0.583-0.2-0.85c-0.2-0.633-0.35-1.117-0.45-1.45
	c-0.6-1.8-0.9-2.767-0.9-2.9C237,193.783,237.117,193.633,237.35,193.7z"/>
<path fill-rule="evenodd" clip-rule="evenodd" fill="#422D00" d="M237,206.65c0.3,0.1,0.517,0.483,0.65,1.149l0.5,1.95
	c0.067,0.233,0.267,0.866,0.6,1.9c0.2,0.666,0.3,1.3,0.3,1.899v0.7c-0.066,0.333-0.267,0.5-0.6,0.5c-0.233,0-0.367-0.083-0.4-0.25
	v-0.25c-0.566-2.1-0.867-3.283-0.9-3.55c-0.433-1.934-0.65-3.084-0.65-3.45C236.5,206.75,236.667,206.55,237,206.65z"/>
<path fill-rule="evenodd" clip-rule="evenodd" fill="#422D00" d="M237.7,225.85l-0.2-3.149c0-0.434,0.1-0.851,0.3-1.25
	c0.233-0.434,0.45-0.351,0.65,0.25c0,0.5,0.1,1.25,0.3,2.25c0,0.5,0.133,1.25,0.4,2.25c0.033,0.133,0.217,0.483,0.55,1.05
	c0.3,0.5,0.45,0.85,0.45,1.05c0,0.434-0.2,0.65-0.6,0.65c-0.433,0-0.867-0.483-1.3-1.45C237.883,226.667,237.7,226.116,237.7,225.85
	z"/>
<path fill-rule="evenodd" clip-rule="evenodd" fill="#422D00" d="M221.85,209.2c0-0.434,0.167-0.816,0.5-1.15
	c0.367-0.366,0.683-0.05,0.95,0.95c0.034,0.167,0.05,0.566,0.05,1.2c0.033,0.533,0.083,0.967,0.15,1.3
	c0.267,1.066,0.583,2.733,0.95,5c0.066,0.4,0.333,1.25,0.8,2.55c0,0.033,0.1,0.434,0.3,1.2c0.133,0.5,0.3,0.934,0.5,1.3
	c0.5,1,0.867,1.834,1.1,2.5l0.45,1.25c0.033,0.134,0.183,0.351,0.45,0.65c0.267,0.267,0.4,0.434,0.4,0.5
	c0,0.1-0.083,0.233-0.25,0.399c-0.167,0.134-0.3,0.2-0.4,0.2c-0.267,0-0.716-0.649-1.35-1.95c-0.833-1.699-1.267-2.566-1.3-2.6
	c-0.433-0.6-0.816-1.366-1.15-2.3c-0.433-1.3-0.65-2.066-0.65-2.3c0.1-0.233,0.15-0.384,0.15-0.45c0-0.3-0.267-1.467-0.8-3.5
	C222.133,211.95,221.85,210.366,221.85,209.2z"/>
<path fill-rule="evenodd" clip-rule="evenodd" fill="#422D00" d="M224.7,220.05c0-0.7,0.233-0.816,0.7-0.35
	c0.4,0.399,0.65,0.733,0.75,1c0.033,0.166,0.2,0.467,0.5,0.899c0.267,0.4,0.434,0.7,0.5,0.9c0.067,0.267,0.4,0.917,1,1.95
	c0.6,1.1,0.967,1.717,1.1,1.85c0.4,0.334,1.083,1.033,2.05,2.101c0.833,0.899,1.417,1.433,1.75,1.6c0.867,0.4,1.617,1.033,2.25,1.9
	c0.167,0.233,0.6,0.517,1.3,0.85c0.733,0.366,1.25,0.55,1.55,0.55c0.467,0,1.1-0.25,1.9-0.75c0.833-0.5,1.267-0.75,1.3-0.75
	c0.1,0,0.2,0.066,0.3,0.2c0.067,0.1,0.1,0.184,0.1,0.25c0,0.434-0.5,0.884-1.5,1.35c-1.033,0.5-2.05,0.75-3.05,0.75
	c-0.567-0.133-0.917-0.199-1.05-0.199s-0.217,0.033-0.25,0.1c-0.066,0.066-0.15,0.1-0.25,0.1c-0.533,0-1.3-0.267-2.3-0.8
	c-1.1-0.6-1.7-1.149-1.8-1.649c-0.066-0.233-0.267-0.517-0.6-0.851l-0.7-0.75c-0.667-0.666-1.117-1.184-1.35-1.55
	c-0.8-1.134-1.5-2.167-2.1-3.1c-1.233-1.834-1.85-2.9-1.85-3.2s0.133-0.45,0.4-0.45l0.3,0.1c-0.233-0.399-0.417-0.733-0.55-1
	C224.833,220.634,224.7,220.283,224.7,220.05z M225.825,222.475c0.022,0.062,0.047,0.203,0.075,0.426c0,0.166,0.133,0.283,0.4,0.35
	L225.825,222.475z"/>
<path fill-rule="evenodd" clip-rule="evenodd" fill="#422D00" d="M222.25,205.65c0,0.033,0.167,0.483,0.5,1.35
	c0.2,0.533,0.3,0.967,0.3,1.3c0,0.066-0.05,0.15-0.15,0.25c-0.133,0.101-0.2,0.267-0.2,0.5c0,0.066,0,0.217,0,0.45
	c-0.034,0.233-0.167,0.35-0.4,0.35c-0.3,0-0.5-0.35-0.6-1.05c-0.067-0.767-0.133-1.233-0.2-1.399c-0.267-0.733-0.4-1.2-0.4-1.4
	c0.033-0.233,0.05-0.566,0.05-1l-0.15-0.8c0-0.267,0.1-0.417,0.3-0.45c0.233-0.033,0.434,0.15,0.6,0.55
	C221.9,204.5,222.017,204.95,222.25,205.65z"/>
<path fill-rule="evenodd" clip-rule="evenodd" fill="#332200" d="M230.9,208.75c0.434,0.3,0.717,0.533,0.85,0.7
	c0.1,0.133,0.15,0.35,0.15,0.649c0,0.467-0.183,0.7-0.55,0.7c-0.233,0-0.417-0.116-0.55-0.35c-0.033-0.233-0.066-0.367-0.1-0.4
	c-0.133-0.133-0.333-0.233-0.6-0.3c-0.3-0.033-0.5-0.083-0.6-0.15l-0.25,0.25c0.033,0.101,0.15,0.25,0.35,0.45
	c0.167,0.2,0.25,0.351,0.25,0.45l-0.15,0.65c0,0.166,0.066,0.316,0.2,0.449c0.1,0.167,0.167,0.384,0.2,0.65
	c0.533-0.033,1,0.167,1.4,0.6c0.367,0.4,0.55,0.75,0.55,1.051c0,0.699-0.55,1.05-1.65,1.05c-0.933,0-1.566-0.417-1.9-1.25
	c-0.167-0.867-0.25-1.334-0.25-1.4l0.1-0.649c0-0.834-0.467-1.733-1.4-2.7c-0.967-0.967-1.45-1.467-1.45-1.5
	c0-0.367,0.217-0.55,0.65-0.55c0.267,0,0.8,0.25,1.6,0.75l0.6-0.15c0.267,0,0.717,0.134,1.35,0.4
	C230.267,208.384,230.667,208.583,230.9,208.75z"/>
<path fill-rule="evenodd" clip-rule="evenodd" fill="#332200" d="M243.95,211.55l-0.05-0.05c-0.133,0.4-0.3,0.667-0.5,0.8
	c-0.4,0.233-0.85,0.384-1.35,0.45c-0.466,0.1-0.7,0.1-0.7,0v-0.025c-0.462-0.046-0.779-0.255-0.95-0.625
	c-0.1-0.199-0.15-0.449-0.15-0.75c0-0.466,0.083-1.05,0.25-1.75c0.267-1.1,0.633-1.649,1.1-1.649c0.367,0,0.55,0.233,0.55,0.7
	c0,0.1-0.083,0.316-0.25,0.649c-0.2,0.334-0.3,0.566-0.3,0.7l-0.05,1.4l0.05,0.25c0.633-0.034,1.017-0.167,1.15-0.4
	c0.033-0.3,0.05-0.517,0.05-0.65c-0.033-0.233-0.05-0.433-0.05-0.6c0.067-0.333,0.3-0.5,0.7-0.5c0.867,0,1.4,0.8,1.6,2.4
	c0,1.899-0.933,2.85-2.8,2.85c-1,0-1.5-0.267-1.5-0.8c0-0.367,0.183-0.55,0.55-0.55c0.1,0,0.367,0.083,0.8,0.25
	c0.8,0,1.417-0.5,1.85-1.5V211.55z"/>
<path fill-rule="evenodd" clip-rule="evenodd" fill="#332200" d="M214.15,217.15c-0.1,0.3-0.15,0.6-0.15,0.899
	c0,0.767,0.083,1.351,0.25,1.75c0.2,0.5,0.667,1.15,1.4,1.95c1,1.066,1.583,1.65,1.75,1.75c0.8,0.634,1.85,1.083,3.15,1.35h3.55
	c0-0.1,0.083-0.149,0.25-0.149c0.3,0,0.45,0.166,0.45,0.5c0,0.333-0.2,0.5-0.6,0.5l-0.25-0.05h-3.75c-0.934-0.101-1.934-0.567-3-1.4
	c-0.4-0.3-1.15-0.983-2.25-2.05c-0.8-0.767-1.317-1.467-1.55-2.101c-0.133-0.399-0.2-1.066-0.2-2l0.1-1.399
	c0.067-0.334,0.25-0.566,0.55-0.7c0.267-0.134,0.4-0.017,0.4,0.35C214.25,216.583,214.217,216.85,214.15,217.15z"/>
<path fill-rule="evenodd" clip-rule="evenodd" fill="#332200" d="M217.45,214.65c0.667,0.833,1.1,1.466,1.3,1.899
	c0.167,0.4,0.25,0.967,0.25,1.7l-0.2,1.7c0,1.366,1.034,2.233,3.1,2.6c2.033,0.334,3.05,0.601,3.05,0.8c0,0.267-0.133,0.4-0.4,0.4
	c-1.5,0-2.966-0.283-4.4-0.85c-1.467-0.567-2.2-1.167-2.2-1.801c0.133-0.133,0.2-0.25,0.2-0.35L218,219.9
	c0.133-0.801,0.2-1.351,0.2-1.65c0-0.667-0.1-1.167-0.3-1.5c-0.133-0.3-0.583-0.866-1.35-1.7c-0.7,0.033-1.2,0.15-1.5,0.351
	c-0.133,0.066-0.316,0.283-0.55,0.649c-0.033,0.033-0.133,0.267-0.3,0.7c-0.133,0.366-0.284,0.55-0.45,0.55
	c-0.267,0-0.4-0.149-0.4-0.45c0-0.633,0.333-1.267,1-1.899C215.217,214.083,216.25,213.983,217.45,214.65z"/>
<path fill-rule="evenodd" clip-rule="evenodd" fill="#332200" d="M257.95,213.15c-0.5-0.567-0.934-0.851-1.3-0.851
	c-0.733,0-1.15,0.25-1.25,0.75v2.4c-0.2,0.399-0.467,0.95-0.8,1.649c-0.4,0.634-1.033,1.167-1.9,1.601c-0.267,0.1-0.6,0.316-1,0.649
	c-0.567,0.4-0.967,0.684-1.2,0.851c-1,0.5-1.933,0.75-2.8,0.75c-0.3,0-0.45-0.15-0.45-0.45c0-0.167,0.333-0.333,1-0.5
	c0.333-0.1,0.817-0.217,1.45-0.35c0.5-0.2,0.95-0.434,1.35-0.7c0.367-0.334,0.667-0.584,0.9-0.75c0.367-0.3,1.017-0.783,1.95-1.45
	c0.3-0.8,0.533-1.35,0.7-1.65v-2.149c0.066-0.267,0.233-0.533,0.5-0.8c0.3-0.301,0.667-0.5,1.1-0.601c0.667-0.166,1.2-0.066,1.6,0.3
	c0.233,0.2,0.534,0.534,0.9,1c0.966,0.934,1.45,2.084,1.45,3.45c0,1.8-1.7,3.15-5.1,4.05c-0.533,0.134-1.2,0.45-2,0.95
	c-0.433,0.267-0.983,0.634-1.65,1.101c-0.4,0.233-1.167,0.483-2.3,0.75c-0.934,0.199-1.533,0.3-1.8,0.3c-0.267,0-0.4-0.15-0.4-0.45
	c0-0.2,0.6-0.45,1.8-0.75c0.633-0.134,1.283-0.267,1.95-0.4l1.55-1c0.6-0.399,1.183-0.716,1.75-0.949c0.733-0.301,1.9-0.767,3.5-1.4
	c1.267-0.667,1.9-1.4,1.9-2.2c0-0.166-0.067-0.517-0.2-1.05c-0.133-0.566-0.25-0.9-0.35-1
	C258.5,213.816,258.217,213.45,257.95,213.15z"/>
<path fill-rule="evenodd" clip-rule="evenodd" fill="#332200" d="M236.6,235.15c-0.4,0-0.983-0.134-1.75-0.4
	c-0.733-0.267-1.2-0.5-1.4-0.7c-1.467-0.967-2.2-1.6-2.2-1.899c0-0.601,0.35-0.634,1.05-0.101c0.367,0.267,0.883,0.684,1.55,1.25
	c0.566,0.4,1.117,0.667,1.65,0.8c0.3,0.101,0.667,0.167,1.1,0.2c0.3,0.033,0.45,0.167,0.45,0.4
	C237.05,235,236.9,235.15,236.6,235.15z"/>
<path fill-rule="evenodd" clip-rule="evenodd" fill="#332200" d="M241.7,233.65c-0.9,1.166-1.7,1.75-2.4,1.75
	c-0.267,0-0.4-0.15-0.4-0.45c0-0.334,0.283-0.75,0.85-1.25c0.633-0.5,1.05-0.851,1.25-1.05c0.367-0.367,0.667-0.733,0.9-1.101
	c0.1-0.233,0.3-0.399,0.6-0.5c0.267-0.066,0.4,0.05,0.4,0.351C242.9,231.833,242.5,232.583,241.7,233.65z"/>
<path fill-rule="evenodd" clip-rule="evenodd" fill="#332200" d="M233.7,215.5c0.066-0.267,0.216-0.4,0.45-0.4
	c0.267,0,0.4,0.134,0.4,0.4c0,0.233-0.083,0.566-0.25,1c-0.2,0.467-0.3,0.9-0.3,1.3c0,0.467,0.083,0.9,0.25,1.3
	c0.167,0.367,0.25,0.767,0.25,1.2c0,1.566-0.25,2.867-0.75,3.9l-0.45,2.25c-0.233,1-0.483,1.5-0.75,1.5
	c-0.167,0-0.283-0.084-0.35-0.25l-0.05-0.25c0-0.4,0.233-1.434,0.7-3.101c0.433-1.666,0.65-2.6,0.65-2.8
	c0-0.267-0.083-0.767-0.25-1.5c-0.167-0.7-0.25-1.2-0.25-1.5l0.4-2.05C233.533,216.066,233.633,215.733,233.7,215.5z"/>
<path fill-rule="evenodd" clip-rule="evenodd" fill="#332200" d="M231.6,203.65c0.4,0,0.75,0.816,1.05,2.449
	c0,0.167,0.267,0.767,0.8,1.801c0.5,1.267,0.75,2.55,0.75,3.85c0,1.5-0.2,2.25-0.6,2.25c-0.2,0-0.317-0.066-0.35-0.2l-0.05-0.2
	l0.2-1.3l-0.15-1.1l0.1-0.5c0-0.3-0.367-1.367-1.1-3.2c-0.733-1.8-1.1-2.967-1.1-3.5C231.15,203.767,231.3,203.65,231.6,203.65z"/>
<path fill-rule="evenodd" clip-rule="evenodd" fill="#332200" d="M230.05,191.65c0.167,0,0.483,0.333,0.95,1
	c0.433,0.6,0.717,1.067,0.85,1.4c0.133,0.367,0.35,0.833,0.65,1.4c0.1,0.167,0.15,0.483,0.15,0.95c0,1.367-0.3,2.05-0.9,2.05
	c-0.167,0-0.283-0.083-0.35-0.25l-0.05-0.25c0.2-1.3,0.3-2.05,0.3-2.25c0-0.333-0.333-1.017-1-2.05c-0.7-1.033-1.05-1.583-1.05-1.65
	C229.6,191.767,229.75,191.65,230.05,191.65z"/>
<path fill-rule="evenodd" clip-rule="evenodd" fill="#332200" d="M239.75,196.15c0.367,0.9,0.55,1.5,0.55,1.8
	c-0.133,2.666-0.6,4-1.4,4c-0.267,0-0.4-0.15-0.4-0.45c0.133-0.267,0.283-0.533,0.45-0.8c0.267-0.566,0.4-1.15,0.4-1.75
	c0-0.967-0.2-1.784-0.6-2.45c-0.433-0.633-0.65-1.1-0.65-1.4l0.1-0.3c-0.367-1.033-0.55-1.716-0.55-2.05c0-0.7,0.217-0.833,0.65-0.4
	c0.1,0.1,0.184,0.367,0.25,0.8c0.133,0.267,0.333,0.8,0.6,1.6C239.317,195.083,239.517,195.55,239.75,196.15z"/>
<path fill-rule="evenodd" clip-rule="evenodd" fill="#332200" d="M238.15,205.15c0.233,0,0.367,0.116,0.4,0.35
	c0,0.1-0.1,0.45-0.3,1.05v0.9c0,0.899,0.217,1.899,0.65,3c0.4,1.1,0.6,1.883,0.6,2.35l-0.1,0.75l0.4,0.9
	c-0.133,2.1-0.483,3.149-1.05,3.149c-0.167,0-0.283-0.083-0.35-0.25c-0.033-0.1-0.05-0.199-0.05-0.3l0.05-0.2v-2.55
	c0.2-0.8,0.3-1.283,0.3-1.45c0-0.267-0.2-0.983-0.6-2.149c-0.434-1.167-0.65-2.25-0.65-3.25c-0.034-0.434-0.034-0.834,0-1.2
	C237.517,205.517,237.75,205.15,238.15,205.15z"/>
<path fill-rule="evenodd" clip-rule="evenodd" fill="#332200" d="M238.65,208.95c0.1,0.233,0.15,0.434,0.15,0.6
	c0,0.367-0.133,0.55-0.4,0.55c-0.233,0-0.4-0.35-0.5-1.05c-0.033-0.733-0.05-1.116-0.05-1.149v-1.051
	c0.066-0.267,0.267-0.399,0.6-0.399c0.333-0.033,0.4,0.1,0.2,0.399V208.95z"/>
<path fill-rule="evenodd" clip-rule="evenodd" fill="#332200" d="M238.5,220.35c0.3,0,0.45,0.134,0.45,0.4
	c0,0.033-0.05,0.217-0.15,0.55c0,0.467,0.117,1.384,0.35,2.75l-0.1,0.8c0,0.034,0.2,0.567,0.6,1.601c0.4,1.066,0.6,1.75,0.6,2.05
	c0,0.4-0.133,0.6-0.4,0.6c-0.233,0-0.417-0.267-0.55-0.8c-0.167-0.8-0.267-1.233-0.3-1.3c-0.5-0.934-0.75-1.634-0.75-2.1l0.1-0.75
	c-0.233-1.567-0.35-2.534-0.35-2.9c-0.033-0.2-0.033-0.366,0-0.5C238.033,220.483,238.2,220.35,238.5,220.35z"/>
<path fill-rule="evenodd" clip-rule="evenodd" fill="#332200" d="M241.75,181.15c0,0.267-0.15,0.4-0.45,0.4
	c-1.233-0.6-1.983-0.933-2.25-1c-0.333-0.1-0.767-0.183-1.3-0.25c-0.6-0.1-1.083-0.2-1.45-0.3h-1.55
	c-0.733,0.167-1.133,0.25-1.2,0.25c-0.566,0-0.85-0.183-0.85-0.55c0-0.3,0.133-0.45,0.4-0.45c0.233,0,0.383,0.067,0.45,0.2
	c0.034,0,0.133-0.034,0.3-0.1c0.167-0.067,0.4-0.117,0.7-0.15h2.05c1.633,0.267,2.6,0.45,2.9,0.55
	C241,180.117,241.75,180.583,241.75,181.15z"/>
<path fill-rule="evenodd" clip-rule="evenodd" fill="#332200" d="M246.65,185.25l2.55,2.15c1.167,1,1.75,1.8,1.75,2.4
	c0,0.3-0.133,0.45-0.4,0.45c-1.1-1.367-1.867-2.217-2.3-2.55c-1.333-1.067-2.183-1.867-2.55-2.4c-0.467-0.633-1.684-1.566-3.65-2.8
	c-1.767-1.133-2.65-1.783-2.65-1.95c0-0.267,0.167-0.4,0.5-0.4c0.3,0,0.617,0.133,0.95,0.4c0.333,0.233,0.617,0.35,0.85,0.35
	c0.033,0,0.983,0.7,2.85,2.1C244.85,183.2,245.55,183.95,246.65,185.25z"/>
<path fill-rule="evenodd" clip-rule="evenodd" fill="#332200" d="M250.95,188.75c0.1,0,0.367,0.467,0.8,1.4
	c0.433,0.967,0.7,1.733,0.8,2.3c0.034,0.233,0.167,0.85,0.4,1.85c0.2,0.8,0.3,1.45,0.3,1.95c0,0.367-0.133,0.55-0.4,0.55
	c-0.1,0-0.217-0.066-0.35-0.2c0,0.267,0.05,0.483,0.15,0.65c0,0.633-0.05,1.583-0.15,2.85c0,1.367-0.283,2.051-0.85,2.051
	c-0.167,0-0.283-0.084-0.35-0.25c-0.033-0.101-0.05-0.2-0.05-0.301c0.233-1.466,0.35-2.399,0.35-2.8c0-0.7-0.1-1.583-0.3-2.65
	c-0.333-1.733-0.5-2.617-0.5-2.65c-0.1-0.6-0.417-1.65-0.95-3.15l-0.75-2.05c0-0.2,0.083-0.35,0.25-0.45
	c0.167-0.133,0.333-0.05,0.5,0.25c0,0.133,0.066,0.283,0.2,0.45c0.133,0.2,0.333,0.3,0.6,0.3
	C250.717,188.85,250.817,188.817,250.95,188.75z"/>
</svg>
