<?xml version="1.0" encoding="utf-8"?>
<!-- Generator: Adobe Illustrator 16.0.0, SVG Export Plug-In . SVG Version: 6.00 Build 0)  -->
<!DOCTYPE svg PUBLIC "-//W3C//DTD SVG 1.1//EN" "http://www.w3.org/Graphics/SVG/1.1/DTD/svg11.dtd">
<svg version="1.1" id="Selected_Items" xmlns="http://www.w3.org/2000/svg" xmlns:xlink="http://www.w3.org/1999/xlink" x="0px"
	 y="0px" width="550px" height="400px" viewBox="0 0 550 400" enable-background="new 0 0 550 400" xml:space="preserve">
<path fill-rule="evenodd" clip-rule="evenodd" fill="#EAEAEA" d="M216.5,126.35c-0.633,0.833-1.583,1.25-2.85,1.25
	c-0.7,0-1.3-0.3-1.8-0.9l-0.55-0.9c0-1.933,0.967-3,2.9-3.2c1.933-0.2,2.9,0.517,2.9,2.15C217.1,125.283,216.9,125.817,216.5,126.35
	z"/>
<path fill-rule="evenodd" clip-rule="evenodd" fill="#EAEAEA" d="M209.4,134.05c0,0.367-0.167,0.55-0.5,0.55s-0.533-0.217-0.6-0.65
	v-0.7c0-1.267,0.767-2.983,2.3-5.15c1.533-2.2,2.3-2.6,2.3-1.2c-0.566,0.767-1.15,1.583-1.75,2.45
	C209.983,131.05,209.4,132.617,209.4,134.05z"/>
<path fill-rule="evenodd" clip-rule="evenodd" fill="#EAEAEA" d="M211.25,125.3c-0.7-0.167-1.133-0.25-1.3-0.25
	c-0.333,0-0.75,0.067-1.25,0.2c-0.4,0.1-0.617,0.15-0.65,0.15c-0.433,0-0.65-0.167-0.65-0.5c0-0.467,0.7-0.75,2.1-0.85
	c1.6,0.067,2.4,0.317,2.4,0.75C211.9,125.133,211.683,125.3,211.25,125.3z"/>
<path fill-rule="evenodd" clip-rule="evenodd" fill="#EAEAEA" d="M214.55,122.9c-0.267,0-0.433-0.1-0.5-0.3
	c-0.033-0.1-0.05-0.217-0.05-0.35c0.133-0.933,0.2-1.683,0.2-2.25c0.033-0.8,0.216-0.983,0.55-0.55c0.3,0.4,0.45,0.816,0.45,1.25
	C215.2,122.167,214.983,122.9,214.55,122.9z"/>
<path fill-rule="evenodd" clip-rule="evenodd" fill="#EAEAEA" d="M220.1,121.35c-1,0.3-1.65,0.533-1.95,0.7
	c-0.167,0.067-0.5,0.35-1,0.85c-0.467,0.467-0.717,0.7-0.75,0.7c-0.233,0-0.383-0.1-0.45-0.3l-0.05-0.3c0-0.7,0.817-1.45,2.45-2.25
	s2.45-0.85,2.45-0.15C220.8,120.933,220.566,121.183,220.1,121.35z"/>
<path fill-rule="evenodd" clip-rule="evenodd" fill="#EAEAEA" d="M216.5,126.9c0.933,1.033,1.633,2.333,2.1,3.9
	c0,0.567,0.066,1.45,0.2,2.65c0.133,1.2,0.2,2.066,0.2,2.6c0,0.567-0.15,0.85-0.45,0.85c-0.4,0-0.65-0.667-0.75-2
	c0-1.533-0.033-2.533-0.1-3c-0.134-1.167-0.617-2.283-1.45-3.35l-1.15-1.6C215.1,125.917,215.566,125.9,216.5,126.9z"/>
<path fill-rule="evenodd" clip-rule="evenodd" fill="#EAEAEA" d="M218.7,125.9c-1.534-0.4-2.3-0.633-2.3-0.7
	c0-0.9,1.55-0.784,4.65,0.35c3.1,1.133,4.65,2.333,4.65,3.6c0,0.434-0.15,0.65-0.45,0.65c-1.333-1.466-2.184-2.3-2.55-2.5
	C221.833,126.8,220.5,126.333,218.7,125.9z"/>
<path fill-rule="evenodd" clip-rule="evenodd" fill="#EAEAEA" d="M216.2,126.75c0-0.733,0.25-1.267,0.75-1.6
	c0.767-0.533,1.95-0.267,3.55,0.8c1.967,1.033,3.017,1.583,3.15,1.65c1.3,0.733,1.95,1.267,1.95,1.6c-2.067,5-4.217,7.5-6.45,7.5
	c-0.5,0-0.75-0.167-0.75-0.5c0.2-0.367,0.3-0.583,0.3-0.65c0-0.233-0.034-0.883-0.1-1.95c-0.1-1.267-0.2-2.117-0.3-2.55l-0.65-2.25
	c-0.233-0.6-0.55-1-0.95-1.2C216.367,127.467,216.2,127.183,216.2,126.75z"/>
<path fill-rule="evenodd" clip-rule="evenodd" fill="#EAEAEA" d="M225.4,128.85c0.333,0,0.5,0.316,0.5,0.95
	c0,2.567-2.5,5.267-7.5,8.1c-0.3,0-0.483-0.083-0.55-0.25c-0.034-0.066-0.05-0.167-0.05-0.3c0-0.233,0.067-0.617,0.2-1.15
	c0.167-0.733,0.367-1.1,0.6-1.1c0.367,0,0.566,0.133,0.6,0.4c0,0.167-0.034,0.4-0.1,0.7c0.566-0.4,1.55-1.1,2.95-2.1
	c1.2-0.867,1.917-1.567,2.15-2.1c0.433-1.2,0.667-1.933,0.7-2.2c-0.033-0.233-0.05-0.433-0.05-0.6
	C224.883,128.933,225.066,128.817,225.4,128.85z"/>
<path fill-rule="evenodd" clip-rule="evenodd" fill="#EAEAEA" d="M207.05,125.2c0.267-0.367,0.717-0.567,1.35-0.6
	c1.3-0.133,2.317,0.066,3.05,0.6c0.5,0.367,0.75,0.7,0.75,1c0,0.033-0.583,1.117-1.75,3.25c-1.2,2.167-1.8,3.55-1.8,4.15
	c0,0.066,0.15,0.283,0.45,0.65c0,0.367-0.15,0.55-0.45,0.55c-0.967,0-1.733-0.833-2.3-2.5c-0.367-1.7-0.55-2.566-0.55-2.6
	c0-0.9,0.017-1.417,0.05-1.55c0.066-0.3,0.333-0.967,0.8-2C206.85,125.617,206.983,125.3,207.05,125.2z"/>
<path fill-rule="evenodd" clip-rule="evenodd" fill="#EAEAEA" d="M215.15,120.05c-0.5-0.033-0.75-0.216-0.75-0.55
	c0-0.6,1.017-0.783,3.05-0.55c2.033,0.233,3.05,0.75,3.05,1.55c0,0.3-0.434,0.6-1.3,0.9c-1.067,0.333-1.717,0.617-1.95,0.85
	c-1.033,1.167-1.733,1.75-2.1,1.75c-0.3,0-0.483-0.233-0.55-0.7c0-0.433,0-0.667,0-0.7c0-0.633,0.017-1.017,0.05-1.15
	C214.683,121.15,214.85,120.683,215.15,120.05z"/>
<path fill-rule="evenodd" clip-rule="evenodd" fill="#C60000" d="M214.2,122.35c0,0.133-0.184,0.2-0.55,0.2
	c-0.5,0-0.983,0.284-1.45,0.85c-0.367,0.733-0.65,1.1-0.85,1.1c-0.233,0-0.35-0.133-0.35-0.4c0-0.4,0.2-0.817,0.6-1.25
	c0.566-0.567,1.333-0.817,2.3-0.75L214.2,122.35z"/>
<path fill-rule="evenodd" clip-rule="evenodd" fill="#C60000" d="M214.3,121.9c-0.033,0.767-0.65,1.233-1.85,1.4l-0.3-0.05
	l-0.05-0.3c0-0.067,0.283-0.217,0.85-0.45c0.566-0.4,0.85-1.117,0.85-2.15c0-1.133,0.1-1.617,0.3-1.45c0.2,0.167,0.3,0.583,0.3,1.25
	L214.3,121.9z"/>
<path fill-rule="evenodd" clip-rule="evenodd" fill="#C60000" d="M214.2,118.95c-0.767,0.5-1.617,1.1-2.55,1.8
	c-1.867,1.4-3.217,2.717-4.05,3.95l-0.25-0.1l-0.05-0.25c0-0.767,0.983-1.9,2.95-3.4c1.867-1.4,3.167-2.133,3.9-2.2
	C214.15,118.817,214.167,118.883,214.2,118.95z"/>
<path fill-rule="evenodd" clip-rule="evenodd" fill="#C60000" d="M207.25,124.55l-0.05-0.3c0-0.133,0.216-0.267,0.65-0.4
	c0.3-0.067,0.883-0.217,1.75-0.45c1.2,0.033,1.8,0.184,1.8,0.45c0,0.133-0.083,0.2-0.25,0.2c-0.6,0.034-1.367,0.067-2.3,0.1
	c-0.367,0-0.667,0.083-0.9,0.25c-0.233,0.133-0.367,0.2-0.4,0.2L207.25,124.55z"/>
<path fill-rule="evenodd" clip-rule="evenodd" fill="#C60000" d="M214.1,120.2c0,1.3-0.25,2.066-0.75,2.3
	c-0.4,0.167-0.934,0.517-1.6,1.05l-0.9,0.75c-0.2-0.033-0.784-0.066-1.75-0.1c-0.2-0.167-0.3-0.317-0.3-0.45
	c-0.033,0.067-0.183,0.067-0.45,0l-0.05-0.3c0-0.2,0.517-0.733,1.55-1.6c0.867-0.767,1.45-1.25,1.75-1.45
	c1.167-0.867,1.833-1.316,2-1.35C213.933,118.917,214.1,119.3,214.1,120.2z"/>
<path fill-rule="evenodd" clip-rule="evenodd" fill="#0000A8" d="M215,127.8c-0.367,0.167-0.733,0.25-1.1,0.25
	c-0.566-0.1-1.05-0.15-1.45-0.15c-0.1,0-0.167-0.033-0.2-0.1l-0.05-0.15c0-0.066,0.05-0.15,0.15-0.25s0.183-0.15,0.25-0.15
	c0.133,0,0.4,0.1,0.8,0.3h1c0.267-0.233,0.533-0.35,0.8-0.35c0.2,0,0.3,0.083,0.3,0.25C215.5,127.517,215.333,127.633,215,127.8z"/>
<path fill-rule="evenodd" clip-rule="evenodd" fill="#0000A8" d="M212,127.9c0.566-0.667,0.85-0.8,0.85-0.4l-1.5,2.9
	c-0.3,0.434-0.583,0.85-0.85,1.25c-0.467,0.767-0.7,1.3-0.7,1.6l0.1,0.35c0,0.133-0.066,0.5-0.2,1.1c-0.167,0.6-0.267,0.9-0.3,0.9
	c-0.2,0-0.3-0.15-0.3-0.45c0.033-0.333,0.05-0.517,0.05-0.55l-0.1-0.6c0-0.267,0.25-0.95,0.75-2.05c0.434-1,0.684-1.534,0.75-1.6
	C210.917,129.383,211.4,128.567,212,127.9z"/>
<path fill-rule="evenodd" clip-rule="evenodd" fill="#0000A8" d="M217.75,137.55c0-0.066,0.033-0.1,0.1-0.1
	c0.2,0,0.316,0.1,0.35,0.3c0,0.133-0.05,0.233-0.15,0.3H216c-1.033-0.2-2.4-0.6-4.1-1.2c-2.233-0.8-3.35-1.45-3.35-1.95
	c0-0.1,0.167-0.367,0.5-0.8c0.3-0.434,0.45-0.417,0.45,0.05l-0.25,0.8c0,0.533,2.316,1.4,6.95,2.6H217.75z"/>
<path fill-rule="evenodd" clip-rule="evenodd" fill="#0000A8" d="M216.15,127.85c0.667,0.733,1.15,1.483,1.45,2.25
	c0.033,0.1,0.05,0.383,0.05,0.85c0.033,0.4,0.083,0.7,0.15,0.9c0.167,0.533,0.25,1.1,0.25,1.7l-0.1,1.75l0.1,1.3
	c0,0.8-0.117,1.2-0.35,1.2c-0.134,0-0.217-0.05-0.25-0.15l-0.05-0.15l0.15-0.95l-0.1-1.3l0.1-1.7c0-1.1-0.117-2.133-0.35-3.1
	c-0.167-0.667-0.55-1.333-1.15-2c-0.6-0.567-0.9-0.883-0.9-0.95C215.15,126.933,215.483,127.05,216.15,127.85z"/>
<path fill-rule="evenodd" clip-rule="evenodd" fill="#0000A8" d="M214.55,127.75c0.4-0.167,0.733-0.167,1,0
	c0.034,0.033,0.233,0.233,0.6,0.6c0.5,0.5,0.75,0.85,0.75,1.05c0,0.167-0.1,0.25-0.3,0.25c-0.1,0-0.4-0.15-0.9-0.45
	c-0.5-0.3-0.917-0.45-1.25-0.45c-0.267,0-0.767,0.65-1.5,1.95c-0.733,1.3-1.2,1.95-1.4,1.95c-0.167,0-0.25-0.117-0.25-0.35
	c0-0.133,0.117-0.5,0.35-1.1c0.267-0.667,0.467-1,0.6-1c0.233,0,0.316,0.117,0.25,0.35c0.2-0.267,0.4-0.667,0.6-1.2
	c0.233-0.434,0.55-0.783,0.95-1.05h-1.35c-0.1,0.467-0.333,0.983-0.7,1.55c-0.633,0.967-0.95,1.467-0.95,1.5l0.1,0.2
	c0,0.1-0.083,0.3-0.25,0.6l0.1,0.45c0,0.2-0.067,0.433-0.2,0.7c-0.2,0.333-0.316,0.6-0.35,0.8c0.1-0.133,0.383-0.583,0.85-1.35
	c0.233,0,0.333,0.117,0.3,0.35l-0.1,0.45v0.7c0.767-1.033,1.267-1.55,1.5-1.55c0.2,0,0.316,0.267,0.35,0.8
	c0.033,0.6,0.083,0.95,0.15,1.05c0.1,0.167,0.45,0.5,1.05,1c0.567,0.467,0.883,0.7,0.95,0.7c0.033,0,0.1-0.05,0.2-0.15
	c0.133-0.1,0.3-0.15,0.5-0.15c0.3,0,0.45,0.133,0.45,0.4c0,0.333-0.2,0.566-0.6,0.7l0.25,0.15h0.65c0-0.034,0.083-0.333,0.25-0.9
	c0.1-0.433,0.233-0.65,0.4-0.65c0.167,0,0.25,0.167,0.25,0.5c0,1.167-0.35,1.75-1.05,1.75c-0.633,0-2.033-0.4-4.2-1.2
	c-2.3-0.833-3.45-1.45-3.45-1.85c0-0.2,0.067-0.3,0.2-0.3c0.167,0,0.267,0.05,0.3,0.15l0.1,0.25l0.05-0.55l-0.1-0.45l0.1-0.5
	c0-0.1-0.066-0.2-0.2-0.3s-0.2-0.167-0.2-0.2c0-0.133,0.383-0.9,1.15-2.3c0.833-1.467,1.467-2.433,1.9-2.9H214.55z M214.75,128.25
	c0.333,0.033,0.65,0.167,0.95,0.4c-0.034-0.133-0.134-0.25-0.3-0.35c-0.167-0.133-0.316-0.167-0.45-0.1L214.75,128.25z M210.1,135.2
	c0.5,0.167,1.417,0.517,2.75,1.05c1.033,0.367,1.883,0.65,2.55,0.85c-0.133-0.2-0.75-0.8-1.85-1.8c-0.8-0.667-1.05-1.267-0.75-1.8
	c-0.633,0.967-1.133,1.45-1.5,1.45c-0.167,0-0.267-0.1-0.3-0.3c0-0.2,0-0.316,0-0.35v-0.05l-0.8,0.9L210.1,135.2z"/>
<path fill-rule="evenodd" clip-rule="evenodd" fill="#0000A8" d="M215.95,129.3c0-0.267,0.15-0.4,0.45-0.4
	c0.567,0,1.05,1.283,1.45,3.85l-0.2,0.65c0,0.5,0.067,1.267,0.2,2.3c0,1.233-0.417,1.85-1.25,1.85c-0.534,0-1.034-0.117-1.5-0.35
	l-0.9-0.5c-0.6-0.1-1.184-0.233-1.75-0.4c-0.733-0.433-1.35-0.667-1.85-0.7c-0.534-0.033-0.883-0.117-1.05-0.25
	c-0.1-0.1-0.15-0.3-0.15-0.6c0-0.6,0.184-0.9,0.55-0.9h0.15c0.106,0.026,0.156,0.06,0.15,0.1l0.1-0.35l-0.1-0.55
	c0-0.233,0.066-0.466,0.2-0.7c0.167-0.333,0.267-0.567,0.3-0.7c0-0.333,0.017-0.566,0.05-0.7c0.067-0.267,0.3-0.45,0.7-0.55
	c0-0.267,0.1-0.517,0.3-0.75c0.2-0.2,0.4-0.3,0.6-0.3c0.267,0,0.4,0.15,0.4,0.45c0,0.2-0.667,1.867-2,5
	c0.967,0.233,1.95,0.534,2.95,0.9c0.566,0.233,1.417,0.583,2.55,1.05h0.55c0.133-0.333,0.2-0.683,0.2-1.05
	c-0.2-2.067-0.3-3.184-0.3-3.35C216.217,130.517,215.95,129.5,215.95,129.3z"/>
<path fill-rule="evenodd" clip-rule="evenodd" fill="#0000A8" d="M216.15,128.95c0,0.167-0.05,0.3-0.15,0.4
	c0.267,0.333,0.566,1.066,0.9,2.2c0.333,1.034,0.5,1.684,0.5,1.95c0,0.067-0.083,0.2-0.25,0.4c0,0.5,0.067,1.2,0.2,2.1
	c0,0.733-0.117,1.1-0.35,1.1c-0.2,0-0.434-0.117-0.7-0.35s-0.417-0.35-0.45-0.35c-0.034,0.033-0.1,0.133-0.2,0.3
	c-0.066,0.066-0.167,0.1-0.3,0.1c-0.167,0-0.284-0.066-0.35-0.2c-0.067-0.133-0.133-0.233-0.2-0.3l-0.4,0.15
	c-0.2,0-0.35-0.067-0.45-0.2c-0.067-0.167-0.117-0.283-0.15-0.35c-0.2,0.267-0.4,0.4-0.6,0.4c-0.267,0-0.434-0.1-0.5-0.3
	c0-0.033,0-0.217,0-0.55c-0.467,0.233-0.767,0.35-0.9,0.35c-0.367,0-0.566-0.15-0.6-0.45c0.033-0.367,0.05-0.6,0.05-0.7
	c-0.033,0.067-0.067,0.217-0.1,0.45c-0.1,0.2-0.25,0.3-0.45,0.3c-0.233,0-0.367-0.1-0.4-0.3c0-0.233,0-0.367,0-0.4
	c0-0.6,0.233-1.333,0.7-2.2c0.267-0.467,0.667-1.167,1.2-2.1c-0.2-0.1-0.3-0.267-0.3-0.5c0-0.933,0.317-1.517,0.95-1.75
	c0.267-0.1,0.95-0.15,2.05-0.15c0.4,0,0.733,0.15,1,0.45C216.066,128.65,216.15,128.817,216.15,128.95z"/>
<path fill-rule="evenodd" clip-rule="evenodd" fill="#E8E800" d="M220.4,121.85c-0.733,0.233-1.25,0.417-1.55,0.55
	c-1.1,0.967-1.7,1.45-1.8,1.45c-0.3,0-0.45-0.15-0.45-0.45c0-0.433,0.783-1.066,2.35-1.9c1.533-0.833,2.3-0.983,2.3-0.45
	C221.25,121.35,220.967,121.617,220.4,121.85z"/>
<path fill-rule="evenodd" clip-rule="evenodd" fill="#E8E800" d="M219.7,125.7c-1.2-0.367-2.1-0.583-2.7-0.65
	c-0.333-0.667-0.5-1.167-0.5-1.5c0-0.333,0.25-0.5,0.75-0.5c0.1,0,0.217,0.067,0.35,0.2c0.3-0.367,0.816-0.7,1.55-1
	c0.767-0.4,1.4-0.667,1.9-0.8c-0.433-0.233-0.65-0.434-0.65-0.6c0-0.267,0.15-0.4,0.45-0.4c1.633,0,3.316,2.667,5.05,8
	c0,0.433-0.117,0.65-0.35,0.65c-0.267,0-0.45-0.133-0.55-0.4l-0.25-0.55l-1.5-0.85c-0.633-0.4-1.167-0.733-1.6-1
	c-0.8-0.466-1.333-0.7-1.6-0.7L219.7,125.7z"/>
<path fill-rule="evenodd" clip-rule="evenodd" fill="#EAEAEA" d="M214.55,119.55c-0.133,0-0.233-0.1-0.3-0.3
	c-0.067-0.133-0.1-0.25-0.1-0.35c0-0.467,1-0.55,3-0.25c2,0.333,3,0.8,3,1.4c-0.033,0.2-0.117,0.3-0.25,0.3
	c-0.566-0.434-0.933-0.684-1.1-0.75c-0.533-0.267-1.583-0.45-3.15-0.55h-0.75C214.9,119.383,214.783,119.55,214.55,119.55z"/>
<path fill-rule="evenodd" clip-rule="evenodd" fill="#EAEAEA" d="M207.8,124.85c0,0.3-0.25,0.883-0.75,1.75
	c-0.066,0.1-0.2,0.4-0.4,0.9c-0.133,0.333-0.283,0.5-0.45,0.5c-0.167,0-0.25-0.117-0.25-0.35c0-0.267,0.15-0.816,0.45-1.65
	c0.333-1,0.667-1.5,1-1.5C207.667,124.5,207.8,124.617,207.8,124.85z"/>
<path fill-rule="evenodd" clip-rule="evenodd" fill="#EAEAEA" d="M208.65,134.7c-0.1,0.2-0.2,0.3-0.3,0.3
	c-0.167,0-0.317-0.083-0.45-0.25c-0.1-0.133-0.15-0.233-0.15-0.3c0-0.2,0.083-0.3,0.25-0.3l0.2,0.15c0.066-0.133,0.183-0.2,0.35-0.2
	c0.167-0.033,0.25,0.033,0.25,0.2C208.8,134.367,208.75,134.5,208.65,134.7z"/>
<path fill-rule="evenodd" clip-rule="evenodd" fill="#CCCCCC" d="M211.85,124.6c0,0.3,0.033,0.517,0.1,0.65
	c0.066,0.167,0.116,0.483,0.15,0.95c0,0.2,0.117,0.4,0.35,0.6c0.333,0.333,0.866,0.5,1.6,0.5s1.383-0.367,1.95-1.1
	c0.433-0.567,0.65-1,0.65-1.3c0-0.467-0.1-0.816-0.3-1.05c-0.367-0.367-1.083-0.667-2.15-0.9c-1,0.267-1.65,0.517-1.95,0.75
	C211.983,123.867,211.85,124.167,211.85,124.6z M211.6,126.4c-0.167-1-0.25-1.6-0.25-1.8c0-1.367,0.966-2.067,2.9-2.1
	c1.933,0,2.9,0.8,2.9,2.4c0,0.434-0.25,0.983-0.75,1.65c-0.667,0.833-1.45,1.25-2.35,1.25C212.517,127.8,211.7,127.333,211.6,126.4z
	"/>
<path fill-rule="evenodd" clip-rule="evenodd" fill="#CCCCCC" d="M206.95,125.85c-0.434,0.9-0.65,1.783-0.65,2.65
	c0,1.6,0.184,2.75,0.55,3.45l0.65,1.5c0.133,0.367,0.517,0.867,1.15,1.5c0,0.2-0.1,0.3-0.3,0.3c-0.233,0-0.633-0.4-1.2-1.2
	c-0.533-0.733-0.8-1.15-0.8-1.25l0.15-0.35c0-0.1-0.1-0.4-0.3-0.9c-0.2-0.466-0.3-0.816-0.3-1.05l-0.1-2.05
	c0-1.067,0.3-2.15,0.9-3.25c0.566-1.1,0.85-1.3,0.85-0.6C207.55,124.7,207.35,125.117,206.95,125.85z"/>
<path fill-rule="evenodd" clip-rule="evenodd" fill="#CCCCCC" d="M207,125.5c-0.333,0.633-0.517,1.033-0.55,1.2
	c-0.134,0.367-0.2,1.15-0.2,2.35c0,1.167,0.25,2.4,0.75,3.7c0,0.233-0.083,0.35-0.25,0.35c-0.333,0-0.6-0.684-0.8-2.05l-0.2-2.05
	c0-1.433,0.3-2.7,0.9-3.8c0.567-1.133,0.85-1.35,0.85-0.65C207.5,124.617,207.333,124.933,207,125.5z"/>
<path fill-rule="evenodd" clip-rule="evenodd" fill="#EAEAEA" d="M215.4,120.75c-0.1,0.4-0.2,0.6-0.3,0.6
	c-0.133,0-0.217-0.15-0.25-0.45l-0.05-0.45c0-0.2,0.117-0.45,0.35-0.75c0.233-0.267,0.35-0.167,0.35,0.3
	C215.5,120.167,215.467,120.417,215.4,120.75z"/>
<path fill-rule="evenodd" clip-rule="evenodd" fill="#CCCCCC" d="M209.4,123.95h1.4c0.2,0.1,0.4,0.183,0.6,0.25
	c0.1,0.066,0.15,0.133,0.15,0.2c0,0.2-0.083,0.3-0.25,0.3c-0.066,0-0.167-0.034-0.3-0.1c-0.1-0.067-0.417-0.1-0.95-0.1
	c-0.767,0-1.383,0.05-1.85,0.15c-0.434,0.1-0.717,0.15-0.85,0.15c-0.1,0-0.167-0.033-0.2-0.1l-0.05-0.15
	c0-0.167,0.133-0.267,0.4-0.3C208.566,124.083,209.2,123.983,209.4,123.95z"/>
<path fill-rule="evenodd" clip-rule="evenodd" fill="#CCCCCC" d="M214.9,120.7c0,0.2-0.083,0.583-0.25,1.15
	c-0.2,0.6-0.35,0.9-0.45,0.9c-0.067,0-0.134-0.05-0.2-0.15l-0.05-0.15c0.3-0.8,0.45-1.383,0.45-1.75c0-0.267-0.167-0.917-0.5-1.95
	c0-0.167,0.067-0.25,0.2-0.25s0.267,0.083,0.4,0.25l0.25,0.65L214.9,120.7z"/>
<path fill-rule="evenodd" clip-rule="evenodd" fill="#CCCCCC" d="M214.15,119c-0.1,0-0.167-0.033-0.2-0.1l-0.05-0.15
	c0-0.1,0.133-0.233,0.4-0.4c0.233-0.133,0.434-0.217,0.6-0.25h1.35c1.1,0.133,2.15,0.417,3.15,0.85
	c1.033,0.466,1.55,0.917,1.55,1.35c0,0.3-0.867,0.833-2.6,1.6c-0.3,0.233-0.684,0.583-1.15,1.05c-0.4,0.4-0.617,0.6-0.65,0.6
	c-0.066,0-0.133-0.05-0.2-0.15l-0.05-0.15c0-0.433,0.55-1.05,1.65-1.85c1-0.7,1.75-1.117,2.25-1.25l0.1-0.05
	c-0.4-0.3-0.85-0.567-1.35-0.8c-1.034-0.433-2.15-0.65-3.35-0.65c-0.6,0-0.967,0.067-1.1,0.2C214.4,118.95,214.283,119,214.15,119z"
	/>
<path fill-rule="evenodd" clip-rule="evenodd" fill="#CCCCCC" d="M212.6,127.15c0,0.067-0.417,0.783-1.25,2.15
	c-0.1,0.167-0.35,0.534-0.75,1.1c-0.233,0.3-0.35,0.667-0.35,1.1l-0.8,1.95c-0.4,1.233-0.717,1.85-0.95,1.85
	c-0.167,0-0.25-0.117-0.25-0.35c0-0.667,0.183-1.383,0.55-2.15c0.467-0.9,0.8-1.617,1-2.15c0.133-0.367,0.35-0.733,0.65-1.1
	c0.4-0.533,0.616-0.833,0.65-0.9c0.333-0.633,0.65-1.133,0.95-1.5C212.417,126.717,212.6,126.717,212.6,127.15z"/>
<path fill-rule="evenodd" clip-rule="evenodd" fill="#CCCCCC" d="M216.4,127.55c0.633,0.467,1,0.85,1.1,1.15
	c0.2,1,0.3,1.716,0.3,2.15l0.5,1.45v2.4c0.067,0.3,0.1,0.816,0.1,1.55c0,1.233-0.133,1.85-0.4,1.85c-0.067,0-0.133-0.05-0.2-0.15
	l-0.05-0.15l0.15-1.55c0-0.6-0.033-1.05-0.1-1.35v-2.4c-0.3-0.633-0.45-1.367-0.45-2.2c0-0.7-0.317-1.367-0.95-2l-0.95-0.95
	C215.45,127.017,215.767,127.083,216.4,127.55z"/>
<path fill-rule="evenodd" clip-rule="evenodd" fill="#CCCCCC" d="M218.4,124.85c0.467,0.133,1.033,0.333,1.7,0.6
	c0.466,0.066,0.917,0.216,1.35,0.45c0.233,0.167,0.566,0.4,1,0.7c0.733,0.433,1.616,0.867,2.65,1.3c0.633,0.367,0.95,0.8,0.95,1.3
	c-0.033,0.2-0.117,0.3-0.25,0.3l-2.2-1.35c-0.467-0.2-0.817-0.367-1.05-0.5c-0.466-0.233-0.7-0.45-0.7-0.65
	c-0.034-0.233-0.284-0.467-0.75-0.7c-0.467-0.2-0.934-0.333-1.4-0.4c-0.3-0.033-0.8-0.167-1.5-0.4c-0.8-0.233-1.2-0.417-1.2-0.55
	C217,124.583,217.467,124.55,218.4,124.85z"/>
<path fill-rule="evenodd" clip-rule="evenodd" fill="#CCCCCC" d="M222.4,127.15c-0.1,0.1-0.2,0.15-0.3,0.15
	c-0.8-0.333-1.284-0.633-1.45-0.9c-0.033-0.033-0.3-0.117-0.8-0.25c-0.434-0.133-0.65-0.283-0.65-0.45c0-0.2,0.183-0.267,0.55-0.2
	c0.4,0.033,0.85,0.2,1.35,0.5c0.933,0.567,1.4,0.883,1.4,0.95C222.5,126.983,222.467,127.05,222.4,127.15z"/>
<path fill-rule="evenodd" clip-rule="evenodd" fill="#CCCCCC" d="M226.2,129.15c0,0.733-0.217,1.617-0.65,2.65
	c-0.433,1-0.9,1.733-1.4,2.2c-0.133,0.1-0.45,0.417-0.95,0.95c-0.434,0.466-0.884,0.85-1.35,1.15c-2.267,1.3-3.5,1.95-3.7,1.95
	c-0.1,0-0.167-0.033-0.2-0.1l-0.05-0.15c0-0.066,0.533-0.383,1.6-0.95c1.133-0.6,1.8-0.983,2-1.15c0.167-0.167,0.633-0.517,1.4-1.05
	c0.1-0.2,0.417-0.55,0.95-1.05c0.2-0.267,0.466-0.633,0.8-1.1c0.267-0.433,0.467-0.867,0.6-1.3c0.167-0.534,0.3-0.967,0.4-1.3
	c0-0.4,0.1-0.733,0.3-1C226.117,128.633,226.2,128.717,226.2,129.15z"/>
<path fill-rule="evenodd" clip-rule="evenodd" fill="#CCCCCC" d="M217.75,137.7c0.167,0.1,0.25,0.183,0.25,0.25
	c0,0.066-0.05,0.15-0.15,0.25h-1.95c-5-1.067-7.5-2.05-7.5-2.95c0-0.233,0.367-0.15,1.1,0.25c1.066,0.567,1.683,0.883,1.85,0.95
	c0.3,0.2,1.017,0.433,2.15,0.7c0.633,0.133,1.5,0.317,2.6,0.55H217.75z"/>
<path fill-rule="evenodd" clip-rule="evenodd" fill="#CCCCCC" d="M214.15,118.85c0,0.1-0.367,0.316-1.1,0.65
	c-0.767,0.333-1.183,0.533-1.25,0.6c-0.7,0.6-1.283,1.066-1.75,1.4c-0.566,0.367-1.15,0.967-1.75,1.8
	c-0.533,0.733-0.85,1.1-0.95,1.1c-0.067,0-0.133-0.05-0.2-0.15l-0.05-0.15c0-0.367,0.433-0.967,1.3-1.8
	c0.7-0.733,1.167-1.15,1.4-1.25c1-0.833,1.633-1.316,1.9-1.45c0.267-0.2,0.7-0.434,1.3-0.7
	C213.767,118.567,214.15,118.55,214.15,118.85z"/>
<path fill-rule="evenodd" clip-rule="evenodd" fill="#CCCCCC" d="M222.85,122.55c-0.2-0.4-0.417-0.75-0.65-1.05
	c-0.034-0.033-0.483-0.383-1.35-1.05c0-0.467,0.3-0.483,0.9-0.05c0.566,0.467,1.017,1,1.35,1.6c0.3,0.467,0.767,1.183,1.4,2.15
	c0.233,0.434,0.533,1.117,0.9,2.05c0.5,1.267,0.75,2.15,0.75,2.65c0,0.167-0.1,0.25-0.3,0.25c-0.067,0-0.184-0.3-0.35-0.9l-1.35-3.6
	C224.017,124.333,223.583,123.65,222.85,122.55z"/>
<path fill-rule="evenodd" clip-rule="evenodd" fill="#CCCCCC" d="M212.75,119.55c-0.1,0-0.167-0.033-0.2-0.1l-0.05-0.15
	c0-0.2,0.433-0.5,1.3-0.9c0.833-0.367,1.25-0.367,1.25,0L212.75,119.55z"/>
<path fill-rule="evenodd" clip-rule="evenodd" fill="#CCCCCC" d="M207,125.35c-0.033,0.133-0.083,0.417-0.15,0.85
	c-0.1,0.333-0.217,0.5-0.35,0.5c-0.167,0-0.25-0.117-0.25-0.35c0-0.667,0.233-1.367,0.7-2.1c0.466-0.733,0.7-0.817,0.7-0.25
	C207.65,124.133,207.433,124.583,207,125.35z"/>
<path fill-rule="evenodd" clip-rule="evenodd" fill="#CCCCCC" d="M209.3,136.25c-0.533,0-1.066-0.583-1.6-1.75
	c0-0.567,0.316-0.383,0.95,0.55c0.033,0.067,0.2,0.217,0.5,0.45c0.267,0.2,0.4,0.35,0.4,0.45
	C209.517,136.15,209.433,136.25,209.3,136.25z"/>
<path fill-rule="evenodd" clip-rule="evenodd" fill="#CCCCCC" d="M218.75,137.9c-0.4,0.2-0.833,0.3-1.3,0.3c-0.333,0-0.517,0-0.55,0
	c0.033-0.034,0.033-0.083,0-0.15c-0.033-0.033-0.05-0.066-0.05-0.1c0-0.167,0.083-0.25,0.25-0.25c0.333-0.034,0.85-0.167,1.55-0.4
	c0.4-0.133,0.6-0.083,0.6,0.15C219.25,137.55,219.083,137.7,218.75,137.9z"/>
<path fill-rule="evenodd" clip-rule="evenodd" fill="#CCCCCC" d="M218.65,137.95c-0.133,0-0.233-0.034-0.3-0.1l-0.05-0.15
	c0-0.067,0.417-0.333,1.25-0.8c1.1-0.667,1.867-1.15,2.3-1.45l1.5-1.2c0.133-0.133,0.367-0.433,0.7-0.9
	c0.3-0.333,0.45-0.283,0.45,0.15C224.5,134.333,222.55,135.817,218.65,137.95z"/>
<path fill-rule="evenodd" clip-rule="evenodd" fill="#CCCCCC" d="M221.8,121.1c-0.1,0-0.8-0.55-2.1-1.65c0-0.7,0.783-0.25,2.35,1.35
	C222.05,121,221.967,121.1,221.8,121.1z"/>
<path fill-rule="evenodd" clip-rule="evenodd" fill="#0000A8" d="M215.1,136.8c0,0.167-0.233,0.25-0.7,0.25h-0.6
	c0-0.033-0.017-0.083-0.05-0.15l-0.05-0.15c0-0.233,0.383-0.3,1.15-0.2C215.017,136.65,215.1,136.733,215.1,136.8z"/>
</svg>
