<?xml version="1.0" encoding="utf-8"?>
<!-- Generator: Adobe Illustrator 16.0.0, SVG Export Plug-In . SVG Version: 6.00 Build 0)  -->
<!DOCTYPE svg PUBLIC "-//W3C//DTD SVG 1.1//EN" "http://www.w3.org/Graphics/SVG/1.1/DTD/svg11.dtd">
<svg version="1.1" id="Selected_Items" xmlns="http://www.w3.org/2000/svg" xmlns:xlink="http://www.w3.org/1999/xlink" x="0px"
	 y="0px" width="550px" height="400px" viewBox="0 0 550 400" enable-background="new 0 0 550 400" xml:space="preserve">
<path fill-rule="evenodd" clip-rule="evenodd" fill="#462300" d="M249.9,123.95c-0.3,0-0.483-0.667-0.55-2v-2.05
	c-0.1-1.1-0.167-1.933-0.2-2.5c-0.033-0.966,0.2-1.466,0.7-1.5c0.466-0.033,0.683,0.483,0.65,1.55c0,0.566-0.05,1.367-0.15,2.4
	C250.417,122.583,250.267,123.95,249.9,123.95z"/>
<path fill-rule="evenodd" clip-rule="evenodd" fill="#462300" d="M269.35,115.95c0.333,0.066,0.5,0.233,0.5,0.5
	c0,0.133-0.167,0.3-0.5,0.5h-19.5c-0.333-0.233-0.5-0.4-0.5-0.5c0-0.233,0.167-0.4,0.5-0.5H269.35z"/>
<path fill-rule="evenodd" clip-rule="evenodd" fill="#462300" d="M268.85,119.95c-0.133-1.1-0.233-1.917-0.3-2.45
	c-0.066-0.967,0.2-1.467,0.8-1.5c0.566-0.033,0.8,0.45,0.7,1.45c-0.133,1.566-0.2,2.383-0.2,2.45v4.1
	c0.066,5.367-0.083,8.05-0.45,8.05c-0.3,0-0.483-1.333-0.55-4c0-2.667,0-4.017,0-4.05C268.783,122.2,268.783,120.85,268.85,119.95z"
	/>
<path fill-rule="evenodd" clip-rule="evenodd" fill="#462300" d="M269.4,133c-0.133,0-0.25-0.4-0.35-1.2
	c-0.066-0.8-0.1-1.216-0.1-1.25l0.15-2.35c0-0.233,0.066-0.417,0.2-0.55c0.167-0.167,0.3-0.083,0.4,0.25l0.1,2.8
	C269.767,132.233,269.633,133,269.4,133z"/>
<path fill-rule="evenodd" clip-rule="evenodd" fill="#462300" d="M257.1,141.9c-0.434,0-0.65-0.3-0.65-0.9
	c0-1.1,0.167-1.633,0.5-1.6c0.3,0.067,0.45,0.534,0.45,1.4C257.467,141.533,257.367,141.9,257.1,141.9z"/>
<path fill-rule="evenodd" clip-rule="evenodd" fill="#462300" d="M240.5,138.75c0.333,0,0.5,0.733,0.5,2.2c0,0.3,0,0.466,0,0.5
	c-0.066,0.167-0.267,0.25-0.6,0.25c-0.433,0-0.65-0.184-0.65-0.55c0.033-0.4,0.05-0.633,0.05-0.7l-0.1-1.35
	c0-0.133,0.033-0.25,0.1-0.35c0.134-0.133,0.3-0.1,0.5,0.1L240.5,138.75z"/>
<path fill-rule="evenodd" clip-rule="evenodd" fill="#462300" d="M257.45,139.8c0.267,0,0.4,0.417,0.4,1.25
	c0,0.367-0.017,0.583-0.05,0.65c-0.167,0.2-0.6,0.3-1.3,0.3c-0.233,0-0.367-0.2-0.4-0.6c0-0.4,0-0.617,0-0.65c0-1.1,0.2-1.433,0.6-1
	v1.6h0.55l-0.1-0.8C257.15,140.05,257.25,139.8,257.45,139.8z"/>
<path fill-rule="evenodd" clip-rule="evenodd" fill="#462300" d="M269.65,132.05c0,0.233-0.066,0.5-0.2,0.8
	c-0.167,0.367-0.4,0.55-0.7,0.55c-0.167,0-0.267-0.083-0.3-0.25l0.05-1.4c0-0.767,0.217-0.8,0.65-0.1
	C269.483,131.517,269.65,131.65,269.65,132.05z"/>
<path fill-rule="evenodd" clip-rule="evenodd" fill="#462300" d="M251.45,123.5c-0.067,0-0.167-0.066-0.3-0.2v-6.25l-0.05-0.25
	c0-0.267,0.1-0.433,0.3-0.5c0.2-0.066,0.317,0.083,0.35,0.45v3.15C251.816,122.3,251.717,123.5,251.45,123.5z"/>
<path fill-rule="evenodd" clip-rule="evenodd" fill="#462300" d="M253.35,120.65c-0.167,0-0.267-0.333-0.3-1c0-0.667,0-1.017,0-1.05
	c0-1.467,0.1-2.15,0.3-2.05c0.2-0.1,0.3,0.583,0.3,2.05C253.717,119.967,253.617,120.65,253.35,120.65z"/>
<path fill-rule="evenodd" clip-rule="evenodd" fill="#462300" d="M255.3,120.65c-0.167,0-0.267-0.35-0.3-1.05v-1.05
	c0-1.5,0.1-2.183,0.3-2.05c0.2-0.133,0.3,0.55,0.3,2.05C255.6,119.95,255.5,120.65,255.3,120.65z"/>
<path fill-rule="evenodd" clip-rule="evenodd" fill="#462300" d="M257.5,117.3v3.1c0,0.133-0.1,0.2-0.3,0.2
	c-0.167,0-0.267-0.333-0.3-1c0-0.667,0-1.017,0-1.05v-1.4c0.133-0.533,0.284-0.767,0.45-0.7c0.133,0.033,0.2,0.2,0.2,0.5
	L257.5,117.3z"/>
<path fill-rule="evenodd" clip-rule="evenodd" fill="#462300" d="M259.4,120.75c-0.167,0-0.267-0.35-0.3-1.05c0-0.7,0-1.067,0-1.1
	c0-1.5,0.1-2.2,0.3-2.1c0.2-0.133,0.3,0.567,0.3,2.1C259.767,120.033,259.667,120.75,259.4,120.75z"/>
<path fill-rule="evenodd" clip-rule="evenodd" fill="#462300" d="M261.55,120.95c-0.167,0-0.267-0.367-0.3-1.1v-1.1
	c0-1.566,0.1-2.3,0.3-2.2c0.233-0.033,0.35,0.083,0.35,0.35c0,0.133-0.017,0.367-0.05,0.7v1.15
	C261.917,120.217,261.816,120.95,261.55,120.95z"/>
<path fill-rule="evenodd" clip-rule="evenodd" fill="#462300" d="M263.75,120.55c-0.167,0-0.267-0.35-0.3-1.05v-1.05
	c0-1.567,0.1-2.267,0.3-2.1c0.2-0.1,0.3,0.6,0.3,2.1C264.117,119.85,264.017,120.55,263.75,120.55z"/>
<path fill-rule="evenodd" clip-rule="evenodd" fill="#462300" d="M265.9,120.3v-2.5c-0.033-0.3-0.05-0.533-0.05-0.7
	c0-0.3,0.117-0.467,0.35-0.5c0.233,0.066,0.35,0.233,0.35,0.5c0,0.133-0.017,0.367-0.05,0.7c0.033,0.267,0.033,0.684,0,1.25
	c0,1.667-0.1,2.5-0.3,2.5C266.033,121.55,265.934,121.133,265.9,120.3z"/>
<path fill-rule="evenodd" clip-rule="evenodd" fill="#462300" d="M266.45,125.8c-0.167,0-0.267-0.283-0.3-0.85v-0.85
	c0-1.233,0.1-1.85,0.3-1.85c0.2,0,0.3,0.617,0.3,1.85C266.816,125.233,266.717,125.8,266.45,125.8z"/>
<path fill-rule="evenodd" clip-rule="evenodd" fill="#462300" d="M268,118.65c0.033,0.5,0.033,1.25,0,2.25
	c0.066,2.934-0.033,4.4-0.3,4.4c-0.167,0-0.267-0.7-0.3-2.1c0-1.434,0-2.2,0-2.3c-0.033-1-0.033-1.75,0-2.25
	c-0.033-0.5-0.05-0.883-0.05-1.15c0-0.433,0.117-0.767,0.35-1c0.233,0.233,0.35,0.567,0.35,1
	C268.05,117.767,268.033,118.15,268,118.65z"/>
<path fill-rule="evenodd" clip-rule="evenodd" fill="#462300" d="M264.95,121.2c-0.067,0-0.167-0.067-0.3-0.2v-3.7l-0.05-0.25
	c0-0.366,0.117-0.5,0.35-0.4c0.267,0.1,0.366,0.35,0.3,0.75v1.5C265.316,120.434,265.217,121.2,264.95,121.2z"/>
<path fill-rule="evenodd" clip-rule="evenodd" fill="#462300" d="M262.75,120.25c-0.2,0-0.3-0.633-0.3-1.9
	c0-0.967,0.1-1.583,0.3-1.85c0.2,0.233,0.3,0.85,0.3,1.85C263.05,119.617,262.95,120.25,262.75,120.25z"/>
<path fill-rule="evenodd" clip-rule="evenodd" fill="#462300" d="M260.5,120.4c-0.167,0-0.267-0.35-0.3-1.05v-1.05
	c0-1.5,0.1-2.183,0.3-2.05c0.2-0.1,0.3,0.583,0.3,2.05C260.8,119.7,260.7,120.4,260.5,120.4z"/>
<path fill-rule="evenodd" clip-rule="evenodd" fill="#462300" d="M258.3,120.5c-0.167,0-0.267-0.35-0.3-1.05c0-0.7,0-1.067,0-1.1
	c0-1.5,0.1-2.2,0.3-2.1c0.2-0.133,0.3,0.567,0.3,2.1C258.667,119.783,258.566,120.5,258.3,120.5z"/>
<path fill-rule="evenodd" clip-rule="evenodd" fill="#462300" d="M256.2,120.55c-0.167,0-0.267-0.35-0.3-1.05v-1.05
	c0-1.567,0.1-2.267,0.3-2.1c0.2-0.1,0.3,0.6,0.3,2.1C256.566,119.85,256.467,120.55,256.2,120.55z"/>
<path fill-rule="evenodd" clip-rule="evenodd" fill="#462300" d="M254.3,117.25c-0.267,0-0.4-0.117-0.4-0.35
	c0-0.333,0.15-0.45,0.45-0.35c0.267,0.134,0.4,0.267,0.4,0.4C254.75,117.15,254.6,117.25,254.3,117.25z"/>
<path fill-rule="evenodd" clip-rule="evenodd" fill="#462300" d="M254.25,120.3c-0.167,0-0.267-0.316-0.3-0.95c0-0.633,0-0.967,0-1
	c0-1.033,0.1-1.667,0.3-1.9c0.2-0.1,0.3,0.533,0.3,1.9C254.617,119.65,254.517,120.3,254.25,120.3z"/>
<path fill-rule="evenodd" clip-rule="evenodd" fill="#462300" d="M252.65,121.9c0,0.133-0.1,0.2-0.3,0.2
	c-0.167,0-0.267-0.467-0.3-1.4v-3.95c0.134-0.233,0.284-0.3,0.45-0.2c0.133,0.067,0.2,0.2,0.2,0.4l-0.05,0.25V121.9z"/>
<path fill-rule="evenodd" clip-rule="evenodd" fill="#00375B" d="M251.75,123.05c0.2,0.067,0.3,0.167,0.3,0.3
	c0,0.233-0.1,0.35-0.3,0.35l-1.75,0.05c-1.066,0.533-2.117,1.25-3.15,2.15c-1.633,1.4-2.55,2.167-2.75,2.3
	c-0.3,0.2-1.184,1.05-2.65,2.55c-1.3,1.333-2.067,2-2.3,2c-0.2,0-0.3-0.117-0.3-0.35c0-0.1,0.633-0.783,1.9-2.05
	c1.3-1.267,2.283-2.15,2.95-2.65c1.833-1.467,2.833-2.25,3-2.35c0.4-0.267,0.85-0.684,1.35-1.25c0.5-0.467,1.233-0.817,2.2-1.05
	H251.75z"/>
<path fill-rule="evenodd" clip-rule="evenodd" fill="#00375B" d="M253.35,134c-1.6-0.1-3.067-0.233-4.4-0.4
	c-1.267-0.167-2.217-0.283-2.85-0.35c-1.067-0.133-2.75-0.267-5.05-0.4c-1.366-0.067-2.05-0.217-2.05-0.45
	c0-0.3,2.184-0.25,6.55,0.15c2.233,0.233,4.867,0.517,7.9,0.85h2.35l0.1-0.05h1.35l0.3,0.3c0,0.133-0.1,0.233-0.3,0.3L253.35,134z"
	/>
<path fill-rule="evenodd" clip-rule="evenodd" fill="#00375B" d="M266.25,125.3c-0.767-0.167-1.15-0.333-1.15-0.5
	c0-0.3,0.483-0.333,1.45-0.1c0.967,0.233,1.45,0.6,1.45,1.1c0,0.434-0.35,0.833-1.05,1.2c-0.467,0.233-0.983,0.583-1.55,1.05
	c-1.033,1-1.816,1.684-2.35,2.05c-0.133,0.1-1.167,0.967-3.1,2.6c-1.1,0.933-2.1,1.4-3,1.4c-0.634,0-0.95-0.15-0.95-0.45
	c0-0.2,0.1-0.3,0.3-0.3l0.35,0.05v0.1h0.7c0.933-0.433,1.883-1.033,2.85-1.8c1.533-1.267,2.333-1.934,2.4-2
	c0.667-0.5,1.417-1.167,2.25-2c1.7-1.133,2.55-1.767,2.55-1.9C267.4,125.667,267.017,125.5,266.25,125.3z"/>
<path fill-rule="evenodd" clip-rule="evenodd" fill="#00375B" d="M252.7,123.75c-0.167,0.067-0.534,0.1-1.1,0.1
	c-0.133,0-0.217-0.05-0.25-0.15l-0.05-0.15c0-0.366,0.25-0.533,0.75-0.5c0.5,0.034,0.75,0.184,0.75,0.45
	C252.8,123.633,252.767,123.717,252.7,123.75z"/>
<path fill-rule="evenodd" clip-rule="evenodd" fill="#00375B" d="M239.85,132.55l0.05,1.3c0.034,0.533,0.034,1.367,0,2.5l0.1,0.95
	c0,0.2-0.1,0.3-0.3,0.3c-0.233,0-0.367-0.45-0.4-1.35c0.034-0.933,0.05-1.417,0.05-1.45l-0.1-1.75c0-0.267,0.083-0.533,0.25-0.8
	C239.7,131.983,239.816,132.083,239.85,132.55z"/>
<path fill-rule="evenodd" clip-rule="evenodd" fill="#00375B" d="M256.6,139.5l-10.1-0.25l-0.4,0.05h-2.65
	c-2.067-0.167-3.317-0.383-3.75-0.65c-0.167-0.1-0.25-0.45-0.25-1.05c0-0.467,0.1-0.783,0.3-0.95c0.2-0.2,0.3,0.034,0.3,0.7
	c0,0.066-0.017,0.217-0.05,0.45c0,0.233,0.1,0.384,0.3,0.45c0.5,0.133,1.583,0.283,3.25,0.45H246l0.6-0.1h4.25l0.75,0.1h1.55
	l0.8,0.1h1.9c0.066,0.034,0.333,0.034,0.8,0c0.267,0,0.4,0.134,0.4,0.4C257.05,139.4,256.9,139.5,256.6,139.5z"/>
<path fill-rule="evenodd" clip-rule="evenodd" fill="#00375B" d="M268.3,132.2c-0.5,0.667-0.9,1.15-1.2,1.45
	c-0.333,0.3-0.833,0.65-1.5,1.05c-1.034,0.633-1.6,0.983-1.7,1.05c-1.6,1.133-2.783,1.967-3.55,2.5
	c-1.333,0.9-2.383,1.417-3.15,1.55h-2.65c-1.7-0.167-2.816-0.3-3.35-0.4c-0.567-0.1-0.85-0.25-0.85-0.45c0-0.2,0.1-0.3,0.3-0.3
	c0.1,0,0.517,0.083,1.25,0.25c0.934,0.167,1.867,0.267,2.8,0.3h2.35c1.367-0.534,2.667-1.217,3.9-2.05c0.7-0.466,1.7-1.183,3-2.15
	c1.966-1.367,3-2.1,3.1-2.2c0.333-0.333,0.8-0.866,1.4-1.6c0.4-0.467,0.6-0.467,0.6,0C269.05,131.233,268.8,131.567,268.3,132.2z"/>
<path fill-rule="evenodd" clip-rule="evenodd" fill="#00375B" d="M267.75,125.55c0.167-0.1,0.3-0.033,0.4,0.2l0.2,0.7
	c0.2,0.6,0.316,1.066,0.35,1.4c0.1,1,0.15,1.517,0.15,1.55c0,0.1,0.05,0.3,0.15,0.6c0.133,0.3,0.2,0.55,0.2,0.75
	s-0.284,0.567-0.85,1.1c-0.534,0.533-0.867,0.8-1,0.8c-0.2,0-0.3-0.117-0.3-0.35c0-0.033,0.2-0.3,0.6-0.8
	c0.4-0.533,0.6-1.133,0.6-1.8c0-0.733-0.117-1.55-0.35-2.45c-0.233-0.767-0.35-1.217-0.35-1.35
	C267.55,125.733,267.617,125.617,267.75,125.55z"/>
<path fill-rule="evenodd" clip-rule="evenodd" fill="#00375B" d="M267.35,125.4c-0.367-0.167-0.55-0.283-0.55-0.35
	c0-0.4,0.367-0.45,1.1-0.15c0.733,0.3,1.1,0.833,1.1,1.6c0,2.567-0.133,3.85-0.4,3.85c-0.2,0-0.3-0.317-0.3-0.95
	c0.034-0.633,0.05-0.966,0.05-1l-0.25-1.85C268,125.95,267.75,125.567,267.35,125.4z"/>
<path fill-rule="evenodd" clip-rule="evenodd" fill="#00375B" d="M257.25,137.35c0,1.467-0.133,2.2-0.4,2.2
	c-0.167,0-0.3-0.267-0.4-0.8c-0.067-0.533-0.1-0.816-0.1-0.85c0.1-0.966,0.183-1.783,0.25-2.45c0.033-0.833,0.167-1.35,0.4-1.55
	c0.2-0.167,0.3,0.05,0.3,0.65l0.15,0.4C257.45,135.55,257.383,136.35,257.25,137.35z"/>
<path fill-rule="evenodd" clip-rule="evenodd" fill="#005288" d="M247.85,126.2l0.1,0.3c0,0.2-0.2,0.45-0.6,0.75
	c-0.5,0.367-0.784,0.617-0.85,0.75c-0.233,0.333-0.417,0.617-0.55,0.85c-0.3,0.4-0.534,0.6-0.7,0.6c-0.3,0-0.45-0.15-0.45-0.45
	l0.1-0.3v-0.05c-1.6,1.3-2.617,2.184-3.05,2.65c0.6-0.033,0.983,0,1.15,0.1l0.2,0.3c1.167,0.066,2.433,0.233,3.8,0.5h1.4
	c3.133,0.3,4.934,0.533,5.4,0.7h1.95c0.066,0.067,0.367,0.1,0.9,0.1c0.333,0,0.8-0.2,1.4-0.6c0.6-0.433,0.934-0.65,1-0.65
	c0.333,0,0.5,0.133,0.5,0.4c0,0.167-0.366,0.483-1.1,0.95c-0.767,0.467-1.367,0.7-1.8,0.7c-0.267,0-0.4-0.017-0.4-0.05l-2.7-0.05
	c-0.167-0.067-0.417-0.15-0.75-0.25c-0.366-0.1-0.616-0.133-0.75-0.1v-0.05c-0.6,0-0.9-0.017-0.9-0.05
	c-0.667,0-1.083-0.017-1.25-0.05c-0.066-0.034-0.15-0.05-0.25-0.05l-5.45-0.6v-0.05h-2.4c-0.333-0.167-0.633-0.25-0.9-0.25l-0.6,0.2
	c-0.3,0-0.45-0.15-0.45-0.45c0-0.133,0.3-0.467,0.9-1c0.533-0.5,0.883-0.8,1.05-0.9c0.167-0.133,0.45-0.434,0.85-0.9
	c0.333-0.367,0.667-0.667,1-0.9c1.467-1.133,2.25-1.733,2.35-1.8c0.167-0.1,0.566-0.417,1.2-0.95c0.6-0.4,0.9-0.333,0.9,0.2
	C248.1,125.95,248.017,126.1,247.85,126.2z"/>
<path fill-rule="evenodd" clip-rule="evenodd" fill="#005288" d="M245.45,128.75c0.2,0.167,0.3,0.3,0.3,0.4
	c0,0.3-0.35,0.883-1.05,1.75c-0.167,0.233-0.483,0.434-0.95,0.6c-0.467,0.2-0.85,0.3-1.15,0.3c-0.167,0.1-0.284,0.15-0.35,0.15
	c-0.2,0-0.316-0.034-0.35-0.1c-0.033-0.033-0.066-0.15-0.1-0.35c-0.333,0-0.5-0.133-0.5-0.4c0-0.1,0.417-0.55,1.25-1.35
	c0.833-0.8,1.317-1.2,1.45-1.2c0.167,0,0.283,0.083,0.35,0.25l0.05,0.05c0.2-0.267,0.367-0.4,0.5-0.4S245.217,128.55,245.45,128.75z
	"/>
<path fill-rule="evenodd" clip-rule="evenodd" fill="#005288" d="M247.55,124.95c0.134-0.067,0.45-0.217,0.95-0.45
	c0.1-0.066,0.367-0.25,0.8-0.55c0.434-0.3,0.767-0.45,1-0.45c0.1,0,0.25,0.067,0.45,0.2l0.45-0.1c0.033-0.033,0.333-0.05,0.9-0.05
	c0.433,0,0.633,0.15,0.6,0.45c0,0.367-0.184,0.8-0.55,1.3s-0.55,0.767-0.55,0.8c0,0.2,0.1,0.417,0.3,0.65
	c0.233,0.267,0.5,0.4,0.8,0.4c0.167,0,0.3-0.033,0.4-0.1c0.133-0.066,0.417-0.1,0.85-0.1c1,0,1.616,0.05,1.85,0.15
	c0.4,0,1.95-0.133,4.65-0.4H263c0.8-0.034,1.4-0.3,1.8-0.8c0-0.033,0.083-0.283,0.25-0.75c0.067-0.233,0.25-0.35,0.55-0.35l1.2,0.45
	c0.333,0.033,0.534,0.1,0.6,0.2c0.034,0,0.05,0.1,0.05,0.3c0,0.267-0.35,0.617-1.05,1.05c-0.833,0.534-1.267,0.817-1.3,0.85
	l-1.75,1.8c-0.167,0.167-0.583,0.45-1.25,0.85c-0.667,0.434-1.1,0.75-1.3,0.95c-0.866,1.133-1.55,1.7-2.05,1.7
	c-0.333,0-0.5-0.133-0.5-0.4c0-0.033,0.417-0.433,1.25-1.2c0.867-0.8,1.467-1.283,1.8-1.45c0.767-0.433,1.75-1.283,2.95-2.55
	c-0.2,0.066-0.533,0.117-1,0.15h-2.65v0.05l-2.75,0.2c-0.333,0-0.5,0.017-0.5,0.05c-0.934,0.067-1.45,0.1-1.55,0.1
	c-0.767,0-1.233-0.05-1.4-0.15h-0.85v0.05c-0.433,0.134-0.7,0.2-0.8,0.2c-0.6,0-1.1-0.267-1.5-0.8c-0.3-0.434-0.45-0.8-0.45-1.1
	c0-0.333,0.083-0.6,0.25-0.8c0.333-0.366,0.567-0.667,0.7-0.9c-1.133,0.1-1.883,0.284-2.25,0.55c-1.033,0.6-1.633,0.9-1.8,0.9
	c-0.367,0-0.55-0.133-0.55-0.4C247.15,125.217,247.283,125.05,247.55,124.95z M265.775,126.075l0.275-0.175l-0.2-0.05
	L265.775,126.075z"/>
<path fill-rule="evenodd" clip-rule="evenodd" fill="#005288" d="M266.4,126.05c-0.533,0.767-0.933,1.15-1.2,1.15
	c-0.3,0-0.45-0.133-0.45-0.4c0-0.1,0.167-0.316,0.5-0.65c0.333-0.333,0.583-0.5,0.75-0.5C266.267,125.65,266.4,125.783,266.4,126.05
	z"/>
<path fill-rule="evenodd" clip-rule="evenodd" fill="#005288" d="M250.25,123.9c0.167,0,0.283,0.067,0.35,0.2
	c0.033,0.133,0.033,0.25,0,0.35v0.05c0.233-0.1,0.583-0.283,1.05-0.55c0.367-0.167,0.55-0.067,0.55,0.3c0,0.2-0.35,0.6-1.05,1.2
	l0.1,0.5l-0.1,0.55c0,0.2,0.067,0.3,0.2,0.3c0.767,0,1.667-0.116,2.7-0.35c1-0.233,1.833-0.35,2.5-0.35c0.6,0,1.184,0.1,1.75,0.3
	c0.534,0.2,0.917,0.3,1.15,0.3c0.1,0,0.7-0.067,1.8-0.2c1.133-0.167,2.033-0.25,2.7-0.25c0.333,0,0.517,0.1,0.55,0.3
	c0.033,0.1,0.033,0.233,0,0.4c0.367,0,0.55,0.167,0.55,0.5c0,0.2-0.116,0.333-0.35,0.4c-0.3,0.1-0.534,0.25-0.7,0.45
	c-0.033,0.034-0.417,0.284-1.15,0.75c-0.3,0.167-0.95,0.7-1.95,1.6c-0.733,0.667-1.383,1.2-1.95,1.6
	c-1.067,0.7-2.184,1.05-3.35,1.05l-0.65-0.05c-0.934-0.167-1.5-0.25-1.7-0.25c-0.167,0.1-0.3,0.15-0.4,0.15s-0.25-0.05-0.45-0.15
	c-0.2-0.133-0.367-0.2-0.5-0.2c-0.2,0.134-0.483,0.2-0.85,0.2c-0.466,0-0.85-0.066-1.15-0.2l-0.9-0.4
	c-0.033,0.067-0.066,0.133-0.1,0.2c-0.066,0.1-0.167,0.15-0.3,0.15c-0.3-0.1-0.55-0.15-0.75-0.15c-0.167,0-0.367-0.117-0.6-0.35
	c-0.167,0.133-0.3,0.2-0.4,0.2c-0.233,0-0.417-0.067-0.55-0.2l-0.15,0.25c-0.066,0.067-0.183,0.1-0.35,0.1
	c-0.167,0-0.4-0.15-0.7-0.45c-0.133,0.1-0.317,0.15-0.55,0.15l-0.5,0.05c-0.667,0-1.066-0.033-1.2-0.1
	c-0.1-0.066-0.15-0.217-0.15-0.45c0-0.1,0.333-0.45,1-1.05c0.333-0.3,0.667-0.583,1-0.85l-0.15-0.4c0-0.2,0.05-0.316,0.15-0.35
	c0.066-0.033,0.25-0.05,0.55-0.05c0.1,0,0.483-0.417,1.15-1.25c0.333-0.267,0.5-0.684,0.5-1.25c0-0.2,0.517-0.7,1.55-1.5
	C249.45,124.3,250.05,123.9,250.25,123.9z M254.9,127.1l-0.05,0.05l0.05,0.05h0.35l-0.05-0.15L254.9,127.1z M253.75,128.55
	l-0.45,0.05h0.4L253.75,128.55z M254.45,128.5l-0.4,0.05h0.35L254.45,128.5z"/>
<path fill-rule="evenodd" clip-rule="evenodd" fill="#005288" d="M258.35,131.9c-0.3,0-0.45-0.133-0.45-0.4
	c0-0.2,0.067-0.333,0.2-0.4c-0.233-0.1-0.35-0.233-0.35-0.4c0-0.233,0.133-0.367,0.4-0.4c0.367-0.033,0.667-0.183,0.9-0.45
	c0.267-0.367,0.5-0.5,0.7-0.4c0.167,0.066,0.25,0.2,0.25,0.4C259.033,131.217,258.483,131.9,258.35,131.9z"/>
<path fill-rule="evenodd" clip-rule="evenodd" fill="#005288" d="M255.85,128.6c0,0.267-0.434,0.4-1.3,0.4l-1.5,0.35
	c-0.3,0-0.45-0.133-0.45-0.4c0-0.534,0.9-0.8,2.7-0.8C255.667,128.15,255.85,128.3,255.85,128.6z"/>
<path fill-rule="evenodd" clip-rule="evenodd" fill="#005288" d="M244.3,138.3c0,0.3-0.167,0.45-0.5,0.45l-0.25-0.05
	c-0.966-0.034-1.583-0.067-1.85-0.1c-0.3-0.1-0.534-0.15-0.7-0.15c-0.7-0.034-1.083-0.217-1.15-0.55c0.033-0.4,0-0.683-0.1-0.85v-2
	c0.133-0.267,0.167-0.583,0.1-0.95c-0.1-0.633-0.15-0.967-0.15-1c0-0.367,0.133-0.533,0.4-0.5s0.417,0.267,0.45,0.7l0.05,1.45
	c-0.1,1.467-0.05,2.434,0.15,2.9c0.6,0.1,1.533,0.167,2.8,0.2C244.05,137.85,244.3,138,244.3,138.3z"/>
<path fill-rule="evenodd" clip-rule="evenodd" fill="#005288" d="M245.4,133c0.6,0.167,0.9,0.333,0.9,0.5c0,0.2-0.1,0.317-0.3,0.35
	c-0.133,0.066-0.617,0.133-1.45,0.2l-2.05,0.1c0.1,0.167,0.133,0.4,0.1,0.7c0,0.167-0.017,0.417-0.05,0.75
	c0,0.167,0.067,0.283,0.2,0.35c0.133,0.1,0.2,0.25,0.2,0.45c-0.3,1.367-0.55,2.05-0.75,2.05c-0.2,0-0.333-0.117-0.4-0.35
	c-0.066-0.133-0.2-0.2-0.4-0.2c-0.133,0.2-0.25,0.3-0.35,0.3c-0.5,0-0.833-0.184-1-0.55c-0.066-0.167-0.1-0.466-0.1-0.9
	c0-1.333,0.2-2.4,0.6-3.2c-0.066-0.066-0.183-0.167-0.35-0.3c-0.1-0.066-0.15-0.133-0.15-0.2c0-0.267,0.167-0.4,0.5-0.4
	c0.067,0,0.217,0.034,0.45,0.1c0.233,0.067,0.517,0.1,0.85,0.1l1.6-0.1C244.15,132.75,244.8,132.833,245.4,133z"/>
<path fill-rule="evenodd" clip-rule="evenodd" fill="#005288" d="M256.3,134.75l-2.55,0.05c-0.333,0-0.65-0.066-0.95-0.2l-0.55-0.05
	h-2.15c-0.6-0.1-1.133-0.216-1.6-0.35c-0.867,0-1.3-0.017-1.3-0.05c-1.134-0.066-1.7-0.3-1.7-0.7c0-0.267,0.167-0.4,0.5-0.4
	c0.066,0,0.184,0.05,0.35,0.15c0.167,0.066,0.316,0.1,0.45,0.1l2.1,0.15l1.5,0.3h2.1l1.25,0.2c0.1,0,0.267-0.034,0.5-0.1
	c0.2-0.1,0.467-0.15,0.8-0.15c0.634,0,1.167,0.1,1.6,0.3c0.333,0.167,0.5,0.3,0.5,0.4c0,0.3-0.133,0.45-0.4,0.45l-0.45-0.05V134.75z
	"/>
<path fill-rule="evenodd" clip-rule="evenodd" fill="#005288" d="M256.65,134.35c0.2,0.167,0.3,0.35,0.3,0.55
	c0,0.034-0.067,0.383-0.2,1.05c-0.167,0.633-0.25,1.183-0.25,1.65l0.15,1.05c0,0.3-0.167,0.45-0.5,0.45l-1.05-0.15h-2.8l-0.7-0.15
	h-6.2v0.05c-0.966,0.1-1.517,0.15-1.65,0.15l-0.2,0.1c-0.3,0-0.45-0.15-0.45-0.45c0-0.2,0.267-0.35,0.8-0.45
	c0.767-0.133,2.3-0.2,4.6-0.2h3.3l0.5,0.05c0.034,0,0.117,0.034,0.25,0.1h2.75l0.35,0.1c0.1-1.433,0.167-2.2,0.2-2.3l0.3-1.15
	C256.25,134.333,256.417,134.184,256.65,134.35z"/>
<path fill-rule="evenodd" clip-rule="evenodd" fill="#005288" d="M256.5,135.85c-0.233,0.467-0.367,0.8-0.4,1
	c0,1.1-0.317,1.65-0.95,1.65c-0.633-0.1-0.983-0.15-1.05-0.15c-0.2,0.133-0.35,0.183-0.45,0.15h-1.35c-0.1,0-0.15-0.017-0.15-0.05
	c-0.767-0.067-1.183-0.1-1.25-0.1h-1.7v0.05c-0.367,0-0.65,0.034-0.85,0.1l-3.85,0.05c0.033,0.134,0.017,0.233-0.05,0.3
	c-0.1,0.1-0.434,0.15-1,0.15c-0.733,0-1.2-0.133-1.4-0.4c-0.066-0.1-0.1-0.283-0.1-0.55c0.133-0.5,0.2-0.9,0.2-1.2l-0.1-0.85
	c0-0.5,0.083-0.95,0.25-1.35c0.267-0.667,0.684-1,1.25-1l1.4,0.25l0.5-0.1c0.033-0.033,0.366-0.017,1,0.05
	c0.033,0,0.1-0.033,0.2-0.1c0.1-0.1,0.217-0.15,0.35-0.15c0.033,0,0.483,0.1,1.35,0.3c0.933,0.2,1.617,0.3,2.05,0.3l0.5-0.15
	c0.233,0,0.55,0.05,0.95,0.15c0.466,0.1,1.133,0.183,2,0.25H256c0.167,0.167,0.333,0.233,0.5,0.2c0.133-0.066,0.233-0.05,0.3,0.05
	l0.05,0.25C256.85,135.117,256.733,135.417,256.5,135.85z"/>
<path fill-rule="evenodd" clip-rule="evenodd" fill="#005288" d="M257.65,135.95c-0.3,0-0.483-0.133-0.55-0.4c0-0.3,0-0.5,0-0.6
	c0-0.3,0.066-0.583,0.2-0.85c0.167-0.367,0.367-0.333,0.6,0.1v0.7c-0.033,0.167,0.017,0.383,0.15,0.65
	C258.05,135.817,257.917,135.95,257.65,135.95z"/>
<path fill-rule="evenodd" clip-rule="evenodd" fill="#005288" d="M268.55,130.15c0,0.434-0.216,0.934-0.65,1.5
	c-0.466,0.934-1.316,1.833-2.55,2.7c-0.067,0.033-1.267,0.917-3.6,2.65c-0.467,0.3-1.267,0.75-2.4,1.35c-1.2,0.6-1.867,0.9-2,0.9
	c-0.3,0-0.45-0.15-0.45-0.45l0.2-0.65l-0.1-0.85l0.1-1.1l-0.1-0.6c0-0.3,0.15-0.45,0.45-0.45c0.3,0,0.45,0.35,0.45,1.05l-0.1,1.1
	l0.1,0.7c0.633-0.1,1.3-0.417,2-0.95c0.967-0.767,1.55-1.2,1.75-1.3c1.6-0.933,2.717-1.65,3.35-2.15c1.3-1.133,2.117-2.05,2.45-2.75
	c0.233-0.467,0.35-1.3,0.35-2.5c0-0.333-0.05-0.617-0.15-0.85c-0.133,0.2-0.333,0.417-0.6,0.65c-0.333,0.3-0.633,0.467-0.9,0.5
	c-0.167,0-0.466,0.15-0.9,0.45l-0.6,0.4c-0.3,0-0.45-0.167-0.45-0.5c0-0.267,0.583-0.75,1.75-1.45c1.2-0.966,1.883-1.45,2.05-1.45
	c0.233,0,0.434,0.75,0.6,2.25L268.55,130.15z"/>
<path fill-rule="evenodd" clip-rule="evenodd" fill="#005288" d="M265.4,128.7c0,0.066-0.5,0.55-1.5,1.45
	c-0.9,0.833-1.55,1.4-1.95,1.7c-0.867,0.767-1.534,1.35-2,1.75c-0.867,0.767-1.6,1.15-2.2,1.15c-0.467,0-0.7-0.167-0.7-0.5
	c0-0.267,0.267-0.45,0.8-0.55c0.667-0.133,1.167-0.4,1.5-0.8c0.267-0.333,0.933-0.883,2-1.65c0.3-0.267,0.933-0.783,1.9-1.55
	c0.7-0.934,1.283-1.4,1.75-1.4C265.267,128.3,265.4,128.434,265.4,128.7z"/>
<path fill-rule="evenodd" clip-rule="evenodd" fill="#005288" d="M267.25,128.55c-1.733,1.167-3.5,2.583-5.3,4.25
	c-1.2,0.8-2.067,1.467-2.6,2c-0.333,0.3-0.55,0.667-0.65,1.1c-0.034,0.233-0.117,0.684-0.25,1.35v0.05
	c0.2-0.133,0.616-0.517,1.25-1.15c0.533-0.566,1.066-0.966,1.6-1.2l3.25-1.8c0.967-0.566,1.717-1.3,2.25-2.2
	C267.3,130.05,267.45,129.25,267.25,128.55z M267.35,132c0,0.2-0.733,0.767-2.2,1.7c-1.667,1.033-2.517,1.566-2.55,1.6
	c-2.7,2-4.184,3-4.45,3c-0.367,0-0.566-0.183-0.6-0.55c0.034-0.4,0.05-0.633,0.05-0.7c0-0.066-0.05-0.15-0.15-0.25
	c-0.134-0.066-0.2-0.15-0.2-0.25c0-0.966,0.233-1.6,0.7-1.9c1.767-1.2,2.733-1.883,2.9-2.05l2.25-1.95
	c0.133-0.133,0.417-0.483,0.85-1.05c0.466-0.5,0.966-0.75,1.5-0.75l1-0.75c0.633-0.5,1.033-0.75,1.2-0.75
	c0.3,0,0.45,0.717,0.45,2.15c0,0.567-0.133,1.083-0.4,1.55l-0.45,0.7C267.25,131.817,267.283,131.9,267.35,132z"/>
<path fill-rule="evenodd" clip-rule="evenodd" fill="#005288" d="M263.2,132.4c-3.134,2.5-4.75,3.75-4.85,3.75
	c-0.3,0-0.45-0.133-0.45-0.4s1.65-1.633,4.95-4.1c0.5-0.4,1.5-1.267,3-2.6c1.233-0.966,1.85-1.133,1.85-0.5
	C267.7,128.783,266.2,130.067,263.2,132.4z"/>
<path fill-rule="evenodd" clip-rule="evenodd" fill="#005288" d="M265.25,130.95c-0.4,0.2-0.783,0.5-1.15,0.9
	c-0.534,0.566-0.883,0.917-1.05,1.05c-1.167,0.967-2.116,1.733-2.85,2.3c-1.367,1.1-2.117,1.65-2.25,1.65
	c-0.267,0-0.4-0.133-0.4-0.4c0-0.2,0.717-0.867,2.15-2c0.767-0.6,1.716-1.317,2.85-2.15c0.6-0.5,1.684-1.45,3.25-2.85
	c1.267-1.034,1.9-1.233,1.9-0.6C267.7,129.15,266.883,129.85,265.25,130.95z"/>
<path fill-rule="evenodd" clip-rule="evenodd" fill="#005288" d="M267.7,129.5c0,0.2-0.083,0.434-0.25,0.7
	c-0.233,0.3-0.4,0.533-0.5,0.7l0.3,0.45c0,0.467-1.35,1.467-4.05,3c-0.534,0.267-1.35,0.816-2.45,1.65l-1.5,1.15L258.9,137
	c-0.233,0.3-0.433,0.45-0.6,0.45c-0.3,0-0.45-0.15-0.45-0.45c0-0.367,0.733-1.1,2.2-2.2c0.733-0.566,1.583-1.167,2.55-1.8
	c0.367-0.3,1.233-1.066,2.6-2.3c1.233-1.067,1.933-1.6,2.1-1.6C267.566,129.1,267.7,129.233,267.7,129.5z"/>
<path fill-rule="evenodd" clip-rule="evenodd" fill="#00375B" d="M239,132.2c0.167-0.067,0.267,0.05,0.3,0.35l0.15,1
	c0.033,0.4,0.116,1.067,0.25,2c0,0.4,0.05,1.067,0.15,2c-0.1,0.667,0.15,1.05,0.75,1.15c0.6,0.066,0.9,0.183,0.9,0.35
	c0,0.2-0.083,0.3-0.25,0.3c-1.133,0-1.783-0.317-1.95-0.95c0.034-0.7,0.05-1.133,0.05-1.3c0-0.4-0.083-1.167-0.25-2.3
	c-0.2-1.167-0.3-1.9-0.3-2.2C238.8,132.367,238.867,132.233,239,132.2z"/>
<path fill-rule="evenodd" clip-rule="evenodd" fill="#00375B" d="M257.3,134l-0.25,0.3l-2.1-0.05
	c-3.333-0.267-6.217-0.517-8.65-0.75c-4.733-0.467-7.1-0.867-7.1-1.2c0-0.366,0.75-0.433,2.25-0.2c0.8,0.133,1.933,0.367,3.4,0.7
	c4.566,0.3,7.95,0.617,10.15,0.95h2.05C257.217,133.85,257.3,133.934,257.3,134z"/>
<path fill-rule="evenodd" clip-rule="evenodd" fill="#00375B" d="M257.1,136.7v2.5c-0.167,0.167-0.267,0.25-0.3,0.25
	c-0.066,0-0.133-0.05-0.2-0.15l-0.05-0.15l0.05-0.15v-2.4l0.25-1.85c0.033-0.867,0.117-1.2,0.25-1c0.167,0.2,0.25,0.5,0.25,0.9
	C257.35,135.317,257.267,136,257.1,136.7z"/>
<path fill-rule="evenodd" clip-rule="evenodd" fill="#00375B" d="M256.15,139.8l-15.3-0.6c-0.333-0.034-0.5-0.167-0.5-0.4
	c0-0.366,0.183-0.4,0.55-0.1h1.55c0.366,0.167,0.833,0.216,1.4,0.15h1.75c1.1-0.033,2.117,0.033,3.05,0.2h1.45l0.1,0.05h2.05
	l0.1,0.05h2.6c0.2,0.034,0.517,0.05,0.95,0.05c0.333,0.033,0.5,0.15,0.5,0.35C256.4,139.717,256.316,139.8,256.15,139.8z"/>
<path fill-rule="evenodd" clip-rule="evenodd" fill="#00375B" d="M267.3,133.1c-1.2,1.066-2.233,1.867-3.1,2.4
	c-3.767,2.9-5.767,4.35-6,4.35c-0.067,0-0.134-0.05-0.2-0.15l-0.05-0.15c0-0.2,0.5-0.616,1.5-1.25c0.966-0.6,1.483-0.9,1.55-0.9
	c1.367-1.2,2.3-1.95,2.8-2.25c1.3-0.867,2.284-1.633,2.95-2.3c1.6-1.867,2.4-2.45,2.4-1.75C269.15,131.333,268.533,132,267.3,133.1z
	"/>
<path fill-rule="evenodd" clip-rule="evenodd" fill="#00375B" d="M257.3,139.85c-0.267,0-0.4-0.083-0.4-0.25
	c0-0.1,0.284-0.233,0.85-0.4c0.533-0.2,0.8-0.15,0.8,0.15C258.55,139.684,258.133,139.85,257.3,139.85z"/>
<path fill-rule="evenodd" clip-rule="evenodd" fill="#00375B" d="M265.75,127.5c1.7-1.6,2.55-2.133,2.55-1.6
	c0,0.233-0.816,0.967-2.45,2.2c-1.767,1.333-2.667,2.017-2.7,2.05c-0.833,0.733-1.85,1.517-3.05,2.35
	c-1.534,1.1-2.517,1.65-2.95,1.65c-0.167,0-0.283-0.033-0.35-0.1l-0.05-0.15l2.1-1.25c1.633-1.033,2.966-2.017,4-2.95
	c0.3-0.267,0.767-0.617,1.4-1.05C264.917,128.217,265.417,127.833,265.75,127.5z"/>
<path fill-rule="evenodd" clip-rule="evenodd" fill="#66CCFF" d="M259.6,120.35c0.333,0.1,0.8,0.183,1.4,0.25
	c0.3,0.033,0.45,0.133,0.45,0.3c0,0.233-0.233,0.35-0.7,0.35c-0.3,0-0.583-0.033-0.85-0.1c-0.233-0.066-0.8-0.083-1.7-0.05h-1.3
	l-0.55-0.1l-0.8-0.05c-0.133,0-0.3,0.1-0.5,0.3c-0.267,0.2-0.55,0.317-0.85,0.35l0.05,0.45c0,0.6-0.233,0.9-0.7,0.9
	c-0.5,0-0.75-0.317-0.75-0.95c0-1.2,0.667-1.8,2-1.8c0.2,0,0.75,0.05,1.65,0.15c0.833,0.1,1.383,0.1,1.65,0H259.6z"/>
<path fill-rule="evenodd" clip-rule="evenodd" fill="#66CCFF" d="M260.8,120.1c0.233,0,0.467,0.05,0.7,0.15
	c0.1,0.067,0.217,0.133,0.35,0.2c0.3,0.1,0.566,0.183,0.8,0.25c0.1,0.033,0.15,0.1,0.15,0.2c0,0.233-0.133,0.35-0.4,0.35
	c-0.333,0-0.7-0.066-1.1-0.2c-0.333-0.167-0.517-0.25-0.55-0.25l-0.8,0.1h-0.35c-0.2-0.1-0.3-0.216-0.3-0.35
	c0-0.167,0.1-0.283,0.3-0.35C259.8,120.133,260.2,120.1,260.8,120.1z"/>
<path fill-rule="evenodd" clip-rule="evenodd" fill="#66CCFF" d="M261.75,120.95c-0.467,0-0.7-0.117-0.7-0.35
	c0-0.167,0.05-0.267,0.15-0.3c0.033-0.033,0.3-0.05,0.8-0.05c0.066,0,0.4-0.066,1-0.2c0.367,0,0.733,0.1,1.1,0.3
	c0.333,0.167,0.5,0.333,0.5,0.5c0,0.233-0.117,0.35-0.35,0.35c-0.7-0.3-1.133-0.45-1.3-0.45c-0.167,0-0.317,0.033-0.45,0.1
	C262.4,120.917,262.15,120.95,261.75,120.95z"/>
<path fill-rule="evenodd" clip-rule="evenodd" fill="#66CCFF" d="M252.65,126.1H253c0.333-0.033,0.934-0.15,1.8-0.35
	c0.833-0.167,1.55-0.25,2.15-0.25c0.566,0,1,0.083,1.3,0.25c0.267,0.167,0.55,0.25,0.85,0.25l0.8-0.1h1.95
	c0.533-0.1,1.133-0.167,1.8-0.2c0.367-0.067,0.55-0.217,0.55-0.45l-0.1-0.55c0-0.267,0.033-0.483,0.1-0.65
	c0.1-0.267,0.167-0.533,0.2-0.8c0.1-0.7,0.15-1.167,0.15-1.4c0-0.667-0.3-1-0.9-1c-0.267,0-0.4-0.117-0.4-0.35
	c0-0.267,0.184-0.4,0.55-0.4c0.767,0,1.233,0.45,1.4,1.35c0.033,0.367,0.116,0.833,0.25,1.4l-0.05,1.1c0,0.2-0.05,0.4-0.15,0.6
	c-0.133,0.267-0.233,0.534-0.3,0.8c-0.1,0.333-0.184,0.55-0.25,0.65c-0.167,0.233-0.55,0.383-1.15,0.45l-3.5,0.15v0.05l-0.95,0.05
	c-0.467,0-0.85-0.083-1.15-0.25c-0.333-0.167-0.684-0.25-1.05-0.25l-3.05,0.55l-1.7,0.05c-0.466-0.1-0.7-0.366-0.7-0.8
	c0-0.167,0.133-0.35,0.4-0.55c0.267-0.233,0.4-0.567,0.4-1c0.133-0.3,0.2-0.517,0.2-0.65c-0.134-0.4-0.2-0.816-0.2-1.25
	c0-0.167,0.117-0.466,0.35-0.9c0.267-0.5,0.5-0.75,0.7-0.75c0.233,0,0.35,0.133,0.35,0.4c0,0.034-0.033,0.083-0.1,0.15
	c-0.066,0.1-0.1,0.2-0.1,0.3c0.267-0.267,0.466-0.4,0.6-0.4c0.233,0,0.35,0.167,0.35,0.5c0,1.167-0.583,2.566-1.75,4.2V126.1z"/>
<path fill-rule="evenodd" clip-rule="evenodd" fill="#66CCFF" d="M252.6,125c0.267-0.267,0.55-0.55,0.85-0.85
	c-0.167-0.1-0.25-0.267-0.25-0.5c0-0.167,0.1-0.466,0.3-0.9c0.2-0.433,0.35-0.717,0.45-0.85c0.3-0.5,0.466-0.767,0.5-0.8
	c0.3-0.267,0.816-0.4,1.55-0.4c0.033,0,0.133,0.017,0.3,0.05c0.134,0.067,0.6,0.083,1.4,0.05l0.45,0.1c0.1,0,0.25-0.033,0.45-0.1
	c0.367-0.1,0.95-0.15,1.75-0.15l1.2,0.1c0.067,0,0.184-0.033,0.35-0.1c0.2-0.066,0.467-0.1,0.8-0.1c0.633,0,1.183,0.184,1.65,0.55
	c0.433,0.333,0.65,0.7,0.65,1.1c0,0.367-0.2,1.117-0.6,2.25c0.267,0,0.4,0.183,0.4,0.55c0,0.5-0.316,0.8-0.95,0.9l-1.4,0.05
	c-0.6,0.133-1.4,0.2-2.4,0.2l-0.75-0.05c-0.533,0-0.8-0.017-0.8-0.05c-0.5,0-0.867-0.033-1.1-0.1c-0.2-0.067-0.4-0.1-0.6-0.1v-0.05
	h-1v0.05c-1.933,0.4-3.083,0.6-3.45,0.6c-0.333,0-0.5-0.133-0.5-0.4C251.85,125.883,252.1,125.533,252.6,125z"/>
<path fill-rule="evenodd" clip-rule="evenodd" fill="#462300" d="M266.8,119.85l-0.15,1.5l0.15,1c0,0.3-0.05,0.7-0.15,1.2
	c-0.133,0.667-0.3,1-0.5,1c-0.133,0-0.2-0.316-0.2-0.95v-1c0.133-0.967,0.167-1.617,0.1-1.95l0.1-1.95l-0.1-1.35
	c0-0.2,0.05-0.367,0.15-0.5c0.133-0.167,0.25-0.067,0.35,0.3l0.05,0.95C266.6,118.367,266.667,118.95,266.8,119.85z"/>
<path fill-rule="evenodd" clip-rule="evenodd" fill="#04ADFF" d="M252.2,125.05l0.05,0.15c0,0.167-0.233,0.533-0.7,1.1
	c0,0.067,0.05,0.117,0.15,0.15h1.1c1.134-0.034,1.934-0.15,2.4-0.35c0.466-0.2,0.917-0.3,1.35-0.3c0.434,0,0.784,0.05,1.05,0.15
	c0.133,0.033,0.3,0.1,0.5,0.2c0.2,0.067,0.3,0.15,0.3,0.25c0.167,0.034,0.967,0.067,2.4,0.1h1.4c1.366-0.167,2.066-0.25,2.1-0.25
	l0.2,0.05l0.05,0.15c0,0.167-0.183,0.267-0.55,0.3c-0.633,0.067-1.217,0.117-1.75,0.15h-1.55c-1.2,0.034-2.1-0.066-2.7-0.3
	c-0.633-0.233-1.117-0.35-1.45-0.35c-0.466,0-0.917,0.1-1.35,0.3c-0.434,0.2-1.417,0.3-2.95,0.3c-0.566,0-0.917-0.083-1.05-0.25
	c-0.034-0.033-0.05-0.15-0.05-0.35c0-0.133,0.117-0.367,0.35-0.7C251.733,125.184,251.967,125.017,252.2,125.05z"/>
<path fill-rule="evenodd" clip-rule="evenodd" fill="#04ADFF" d="M255.95,126c0.2-0.1,0.483-0.133,0.85-0.1
	c0.333,0.034,0.5,0.117,0.5,0.25c0,0.067-0.866,0.3-2.6,0.7c-0.167,0-0.25-0.083-0.25-0.25
	C254.45,126.467,254.95,126.267,255.95,126z"/>
<path fill-rule="evenodd" clip-rule="evenodd" fill="#04ADFF" d="M251.9,125.5c-0.133,0-0.2-0.083-0.2-0.25
	c0-0.133,0.083-0.316,0.25-0.55c0.133-0.233,0.2-0.45,0.2-0.65l0.1-1.15c0-0.667,0.2-1.25,0.6-1.75c0.367-0.5,0.55-0.55,0.55-0.15
	c0,0.067-0.117,0.283-0.35,0.65s-0.35,0.684-0.35,0.95l0.1,0.85c0,0.2-0.1,0.583-0.3,1.15C252.267,125.2,252.066,125.5,251.9,125.5z
	"/>
<path fill-rule="evenodd" clip-rule="evenodd" fill="#04ADFF" d="M260.5,120l0.05,0.15c0,0.133-0.333,0.284-1,0.45
	c-0.7,0.167-1.316,0.25-1.85,0.25c-1.2,0-1.983-0.05-2.35-0.15c-0.367-0.133-0.617-0.2-0.75-0.2c-0.5,0-0.9,0.167-1.2,0.5
	c-0.2,0.333-0.333,0.5-0.4,0.5c-0.133,0-0.2-0.083-0.2-0.25c0-0.2,0.167-0.433,0.5-0.7c0.367-0.333,0.8-0.5,1.3-0.5
	c0.133,0,0.417,0.067,0.85,0.2c0.433,0.133,1.183,0.2,2.25,0.2c0.533,0,1.15-0.117,1.85-0.35
	C260.05,119.9,260.367,119.867,260.5,120z"/>
<path fill-rule="evenodd" clip-rule="evenodd" fill="#04ADFF" d="M262.25,120.1c0.267,0,0.5-0.05,0.7-0.15
	c0.167-0.1,0.4-0.15,0.7-0.15c1,0,1.617,0.417,1.85,1.25c0.066,0.267,0.1,1.017,0.1,2.25c-0.567,2.434-1.067,3.65-1.5,3.65
	c-0.133,0-0.2-0.083-0.2-0.25c0.534-0.567,0.8-1.15,0.8-1.75c0.033-0.167,0.133-0.434,0.3-0.8c0.133-0.333,0.2-0.633,0.2-0.9
	c-0.1-0.733-0.134-1.283-0.1-1.65c0-0.667-0.367-1.133-1.1-1.4c-0.566,0.033-0.917,0.1-1.05,0.2c-0.134,0.067-0.367,0.1-0.7,0.1
	c-0.367,0-0.667-0.033-0.9-0.1c-0.2-0.1-0.45-0.15-0.75-0.15c-0.567,0-1,0.083-1.3,0.25c-0.3,0.133-0.716,0.2-1.25,0.2
	c-1,0-1.8-0.067-2.4-0.2c-0.466-0.133-0.7-0.25-0.7-0.35s0.1-0.15,0.3-0.15c0.1,0,0.367,0.05,0.8,0.15c0.4,0.1,1.067,0.15,2,0.15
	c0.534,0,0.934-0.066,1.2-0.2c0.3-0.133,0.5-0.2,0.6-0.2c0.633-0.066,1.117-0.05,1.45,0.05C261.7,120.05,262.017,120.1,262.25,120.1
	z"/>
<path fill-rule="evenodd" clip-rule="evenodd" fill="#04ADFF" d="M255.85,125.5c0,0.167-0.167,0.4-0.5,0.7
	c-0.367,0.3-0.717,0.45-1.05,0.45c-0.133,0-0.2-0.083-0.2-0.25l0.9-0.8C255.566,125.167,255.85,125.133,255.85,125.5z"/>
<path fill-rule="evenodd" clip-rule="evenodd" fill="#04ADFF" d="M260.7,120.25c0,0.167-0.4,0.4-1.2,0.7l-1.1,0.7
	c-0.133,0-0.2-0.083-0.2-0.25c0-0.1,0.1-0.2,0.3-0.3c0.167-0.067,0.217-0.184,0.15-0.35c0.3-0.267,0.467-0.417,0.5-0.45
	c0.034,0,0.184,0,0.45,0c0.1,0,0.316-0.066,0.65-0.2C260.55,120,260.7,120.05,260.7,120.25z"/>
<path fill-rule="evenodd" clip-rule="evenodd" fill="#04ADFF" d="M252.55,126.05c0.1,0.1,0.217,0.15,0.35,0.15
	c0.767,0,1.517-0.267,2.25-0.8c0.167,0,0.25,0.083,0.25,0.25c0,0.233-0.283,0.483-0.85,0.75c-0.566,0.267-1.083,0.4-1.55,0.4
	c-0.8,0-1.283-0.017-1.45-0.05c-0.133-0.033-0.2-0.117-0.2-0.25c0-0.167,0.133-0.433,0.4-0.8c0.3-0.4,0.483-0.867,0.55-1.4
	c0.1-0.933,0.25-1.333,0.45-1.2c0.167,0.167,0.25,0.517,0.25,1.05l-0.6,1.65C252.4,125.867,252.45,125.95,252.55,126.05z"/>
<path fill-rule="evenodd" clip-rule="evenodd" fill="#04ADFF" d="M256,126.6c-0.267,0-0.45-0.083-0.55-0.25
	c-0.067-0.1-0.1-0.2-0.1-0.3c0-0.533,0.2-0.683,0.6-0.45c0.167,0.1,0.35,0.25,0.55,0.45L256,126.6z"/>
<path fill-rule="evenodd" clip-rule="evenodd" fill="#04ADFF" d="M258,126.3c0-0.267,0.217-0.316,0.65-0.15
	c0.4,0.2,0.6,0.35,0.6,0.45c0,0.133-0.083,0.2-0.25,0.2c-0.233,0-0.467-0.066-0.7-0.2C258.1,126.467,258,126.367,258,126.3z"/>
<path fill-rule="evenodd" clip-rule="evenodd" fill="#04ADFF" d="M258.6,121.75c-0.1,0-0.167-0.033-0.2-0.1l-0.05-0.15l1.2-1
	c0.767-0.6,1.15-0.7,1.15-0.3C259.467,121.233,258.767,121.75,258.6,121.75z"/>
<path fill-rule="evenodd" clip-rule="evenodd" fill="#04ADFF" d="M253.15,122.15c-0.333,0.8-0.55,1.2-0.65,1.2
	c-0.133,0-0.2-0.083-0.2-0.25c0.167-0.5,0.25-0.85,0.25-1.05c0-0.167,0.184-0.483,0.55-0.95c0.1-0.233,0.3-0.434,0.6-0.6
	c0.299-0.166,0.449-0.066,0.45,0.3c-0.002-0.098-0.135,0.002-0.4,0.3C253.45,121.4,253.25,121.75,253.15,122.15z"/>
</svg>
