<?xml version="1.0" encoding="utf-8"?>
<!-- Generator: Adobe Illustrator 16.0.0, SVG Export Plug-In . SVG Version: 6.00 Build 0)  -->
<!DOCTYPE svg PUBLIC "-//W3C//DTD SVG 1.1//EN" "http://www.w3.org/Graphics/SVG/1.1/DTD/svg11.dtd">
<svg version="1.1" id="Selected_Items" xmlns="http://www.w3.org/2000/svg" xmlns:xlink="http://www.w3.org/1999/xlink" x="0px"
	 y="0px" width="550px" height="400px" viewBox="0 0 550 400" enable-background="new 0 0 550 400" xml:space="preserve">
<path fill-rule="evenodd" clip-rule="evenodd" fill="#FFFF33" d="M301.45,116.025c0.034-0.01,0.068-0.019,0.1-0.025
	c0.366,0.033,0.933,0.05,1.7,0.05c1.233,0,2.092-0.058,2.575-0.175c0.323,0.011,0.665,0.019,1.024,0.025
	c0.099,0.02,0.198,0.037,0.301,0.05h0.649c0.786,0.033,1.652,0.075,2.601,0.125c0.165,0.099,0.398,0.224,0.699,0.375
	c0.462,0.23,0.778,0.373,0.95,0.425c0.293,0.232,0.51,0.407,0.65,0.525c0.005,0.214,0.021,0.431,0.05,0.65
	c-0.537,0.533-1.403,1.333-2.6,2.4c-1.867,1.633-3.217,2.783-4.051,3.45l-4.3,3.3c-1.7,1.367-4.066,2.133-7.1,2.3
	c-3.334-0.1-5.634-0.167-6.9-0.2c-0.233,1-0.45,1.85-0.649,2.55c-0.101,0.4-0.15,1.083-0.15,2.05c0,0.7,0.083,1.167,0.25,1.4
	c0.566,0.7,1.884,1,3.95,0.9h6.1c0.334-0.333,0.667-0.5,1-0.5c0.867,0,1.3,0.483,1.3,1.45c0,0.6-0.333,0.983-1,1.15H291
	c-2.934,0.267-4.8-0.3-5.6-1.7c-0.267-0.434-0.4-1.3-0.4-2.6c0-1.833,0.333-3.617,1-5.35c0.934-2.4,2.35-4.066,4.25-5
	c1.434-0.7,3.934-2.4,7.5-5.1C298.837,117.726,300.07,116.885,301.45,116.025z M302.75,117.75c-0.233,0.167-2.55,1.7-6.95,4.6
	c-3.166,2.1-5.35,3.733-6.55,4.9l0.4,0.1c0.466,0.033,1.233,0.05,2.3,0.05c3.133,0.934,6.7-0.15,10.7-3.25
	c2.066-1.6,4.366-3.6,6.899-6C307.917,118.117,305.65,117.983,302.75,117.75z"/>
<path fill-rule="evenodd" clip-rule="evenodd" fill="#FFFF33" d="M298.6,128.75v7.8c0.134,0.2,0.2,0.417,0.2,0.65
	c0,0.733-0.333,1.1-1,1.1c-0.666,0-1.066-0.867-1.2-2.6c0-1.767,0-2.667,0-2.7c-0.066-1.367-0.033-2.567,0.101-3.6
	C297,127.4,297.634,127.183,298.6,128.75z"/>
<path fill-rule="evenodd" clip-rule="evenodd" fill="#FFFF33" d="M311.675,116.725c0.18,0.078,0.313,0.128,0.4,0.15
	c0.279,0.229,0.488,0.404,0.625,0.525c0.016,0.693,0.133,1.443,0.35,2.25v2.25c0.033,0.434,0.066,1.434,0.101,3
	c0.025,0.357,0.05,0.674,0.074,0.95c-0.021,0.072-0.047,0.155-0.074,0.25c-0.2,0.5-0.534,0.983-1,1.45
	c-0.087,0.065-0.178,0.156-0.275,0.275c-1.347,0.977-2.788,2.084-4.325,3.325c-1.3,1.367-2.533,2.6-3.7,3.7
	c-2.267,2.167-3.783,3.25-4.55,3.25c-0.5,0-0.833-0.184-1-0.55c-0.066-0.367-0.1-0.566-0.1-0.6c0-0.034,2.267-2.067,6.8-6.1
	s6.8-6.35,6.8-6.95s-0.1-1.55-0.3-2.85c-0.2-1.3-0.3-2.216-0.3-2.75C311.2,117.443,311.358,116.918,311.675,116.725z"/>
<path fill-rule="evenodd" clip-rule="evenodd" fill="#FFFF33" d="M296.4,137.1c-0.301,0-0.601-0.167-0.9-0.5
	c-0.233-0.367-0.366-0.567-0.4-0.6c-0.8,0.733-1.333,1.1-1.6,1.1c-0.366,0-0.816-0.083-1.35-0.25c-0.601-0.2-1.034-0.434-1.301-0.7
	c-0.033,0.767-0.383,1.15-1.05,1.15c-0.533,0-0.85-0.183-0.95-0.55c-0.033-0.067-0.05-0.317-0.05-0.75l-0.05-0.25
	c-0.434,0.5-0.783,0.75-1.05,0.75c-0.733,0-1.167-0.533-1.3-1.6c0-1.066,0-1.617,0-1.65c0-3.167,0.733-4.75,2.199-4.75
	c0.634,0,1.301,0.217,2,0.65c0.301,0,0.601-0.1,0.9-0.3c0.3-0.233,0.733-0.35,1.3-0.35c0.733,0,1.217,0.1,1.45,0.3
	c0.233,0.2,0.55,0.3,0.95,0.3c0.166,0,0.333-0.067,0.5-0.2c0.166-0.133,0.333-0.2,0.5-0.2c0.767,0,1.233,0.667,1.399,2
	c0.067,0.667,0.067,1.35,0,2.05c0,0.167,0,0.95,0,2.35C297.467,136.433,297.066,137.1,296.4,137.1z M293.6,131.7v2.85l0.051,0.05
	c0.233-0.367,0.35-0.9,0.35-1.6s-0.1-1.2-0.3-1.5v0.05L293.6,131.7z"/>
<path fill-rule="evenodd" clip-rule="evenodd" fill="#FFFF33" d="M304.5,117.7c3.4-0.133,5.1,0.367,5.1,1.5
	c0,0.251-0.024,0.459-0.074,0.625c0.452-0.483,0.977-0.725,1.574-0.725c0.834,0,1.4,0.45,1.7,1.35c0.167,0.466,0.233,0.95,0.2,1.45
	c0,1.167-0.467,2.5-1.4,4c-1.1,1.733-2.5,3-4.199,3.8c-0.233,0.1-1.601,1.45-4.101,4.05c-2.267,2.367-3.934,3.55-5,3.55
	c-1.434,0-2.684-0.167-3.75-0.5c-1.033-0.333-1.55-0.7-1.55-1.1c0-0.367,0.233-0.817,0.7-1.35c-0.601-0.067-1.066-0.1-1.4-0.1
	l-2.399,1.05c-0.733,0-1.167-0.35-1.301-1.05c0-0.7,0-1.067,0-1.1c0-1.267,0.417-2.733,1.25-4.4l0.051-0.25
	c-0.867-0.033-1.301-0.417-1.301-1.15c0-0.967,1.801-2.417,5.4-4.35c3.6-1.9,5.4-3,5.4-3.3C299.4,118.5,301.1,117.833,304.5,117.7z
	 M306.6,122.35c-0.233,0.2-0.35,0.316-0.35,0.35l-0.05,0.1l1-0.9C307.066,121.967,306.866,122.117,306.6,122.35z M299.15,128.35
	l0.05,0.1c0.066,0,0.533-0.45,1.399-1.35C299.8,127.633,299.316,128.05,299.15,128.35z M297.2,125.5c0.333-0.133,0.55-0.3,0.649-0.5
	v-0.05c-0.066,0-0.267,0.167-0.6,0.5L297.2,125.5z M293.65,130.15c-0.034-0.033-0.084-0.033-0.15,0c-0.9,0.533-1.533,0.917-1.9,1.15
	c-0.6,0.434-0.933,0.9-1,1.4v0.15c0.4-0.2,0.967-0.617,1.7-1.25C292.9,131,293.35,130.517,293.65,130.15z"/>
<path fill-rule="evenodd" clip-rule="evenodd" fill="#EAEA00" d="M299.5,116.7c0.304-0.106,0.787-0.273,1.45-0.5
	c0.199-0.074,0.408-0.141,0.625-0.2c0.361,0.033,0.92,0.05,1.675,0.05c1.445,0,2.378-0.083,2.8-0.25
	c0.244,0.037,0.61,0.086,1.101,0.15l3.199,0.075c0.161,0.113,0.411,0.255,0.75,0.425c0.042,0.021,0.083,0.037,0.125,0.05
	c-0.472-0.014-0.747-0.031-0.824-0.05l-2.801-0.05l-0.199-0.05l-3.5-0.05c-1.834,0.034-3.084,0.317-3.75,0.85
	c-1.034,0.833-1.584,1.267-1.65,1.3c-1.9,1.333-2.967,2.15-3.2,2.45c-0.6,0.7-1.6,1.5-3,2.4c-0.033,0.034-1.399,0.85-4.1,2.45
	l0.3,0.1h3.4c0.566-0.033,1.6-0.15,3.1-0.35h3.5c1.3,0.467,1.934,1.15,1.9,2.05c-0.034,1.4,0,2.184,0.1,2.35v5.95
	c0.5-0.333,1.7-1.067,3.6-2.2c1.767-1.1,2.9-1.967,3.4-2.6c0.6-0.833,1.684-1.917,3.25-3.25c1.366-1.167,2.05-1.767,2.05-1.8
	c0-0.233-0.083-0.7-0.25-1.4c-0.166-0.7-0.25-1.383-0.25-2.05c0-1.233,0.066-1.95,0.2-2.15v-3.15c0.079,0.062,0.146,0.121,0.2,0.175
	c0.017,0.681,0.134,1.422,0.35,2.225v2.25c0.033,0.434,0.066,1.434,0.101,3c0.025,0.358,0.05,0.667,0.074,0.925
	c-0.021,0.088-0.047,0.179-0.074,0.275c-0.2,0.5-0.534,0.983-1,1.45c-0.267,0.2-0.617,0.65-1.051,1.35
	c-0.565,0.565-0.924,0.957-1.074,1.175c-1.271,1.17-2.013,1.862-2.226,2.075c-0.366,0.333-1.066,0.8-2.1,1.4
	c-1.167,0.667-1.967,1.167-2.4,1.5c-0.434,0.3-1.066,0.817-1.899,1.55c-0.801,0.767-1.334,1.233-1.601,1.4l-4.3,0.05
	c-0.566,0.133-1.384,0.267-2.45,0.4l-1.75,0.25h-2.6c-1.967-0.267-3.134-0.75-3.5-1.45c0-0.833-0.033-1.433-0.101-1.8
	c-0.066-0.467-0.1-1.15-0.1-2.05c0-0.867,0-1.35,0-1.45c0-2.867,0.184-4.633,0.55-5.3c0.5-0.9,2.101-2.017,4.8-3.35
	c0.867-0.433,1.851-1.117,2.95-2.05c1.601-1.333,2.5-2.083,2.7-2.25c1.3-1.033,2.316-1.717,3.05-2.05
	C299.216,116.877,299.366,116.794,299.5,116.7z M299.35,128.1c-0.066-0.667-0.383-1.184-0.949-1.55l-11.95,0.2
	c-0.3,0.833-0.45,2.533-0.45,5.1c0,2.9,0.033,4.433,0.1,4.6c0.334,0.8,1.634,1.2,3.9,1.2c1.3,0,3.1-0.217,5.4-0.65l4-0.05
	c0.066-0.733,0.1-1.9,0.1-3.5c0.066-1.6,0.033-2.784-0.1-3.55C299.4,129.067,299.384,128.467,299.35,128.1z"/>
<path fill-rule="evenodd" clip-rule="evenodd" fill="#EAEA00" d="M311.35,116.575c0.332,0.16,0.565,0.26,0.7,0.3
	c0.119,0.094,0.228,0.177,0.325,0.25c-0.414,0.396-1.022,0.937-1.825,1.625c-1.633,1.433-2.883,2.45-3.75,3.05
	c-4.6,3.467-6.916,5.2-6.95,5.2c-0.267,0-0.433-0.083-0.5-0.25c-0.033-0.067-0.05-0.167-0.05-0.3c0-0.3,1.101-1.267,3.3-2.9
	c1.634-1.2,2.934-2.117,3.9-2.75c0.767-0.533,2.134-1.733,4.1-3.6C310.873,116.961,311.123,116.753,311.35,116.575z"/>
<path fill-rule="evenodd" clip-rule="evenodd" fill="#FFFF33" d="M287.1,128.7c0.034,0.733-0.116,1.1-0.449,1.1
	c-0.301,0-0.483-0.2-0.551-0.6c0-0.4,0-0.617,0-0.65c0-1.3,0.434-2.017,1.301-2.15c0.866-0.1,1.3,0.133,1.3,0.7
	c0,0.267-0.084,0.417-0.25,0.45h-0.8C287.25,127.55,287.066,127.933,287.1,128.7z"/>
<path fill-rule="evenodd" clip-rule="evenodd" fill="#FFFF33" d="M287.05,129.35c0.033,0.433-0.133,0.65-0.5,0.65
	c-0.366,0-0.583-0.233-0.649-0.7v-0.7c0-1.067,0.3-1.767,0.899-2.1c0.601-0.333,0.9-0.2,0.9,0.4c0,0.067-0.134,0.217-0.4,0.45
	c-0.267,0.267-0.399,0.667-0.399,1.2C286.9,128.65,286.95,128.917,287.05,129.35z"/>
<path fill-rule="evenodd" clip-rule="evenodd" fill="#FFFF33" d="M287.6,135.85c0-0.1,0.067-0.25,0.2-0.45
	c0.134-0.2,0.2-0.333,0.2-0.4c0-0.7,0.316-0.767,0.95-0.2c0.633,0.567,0.95,1.05,0.95,1.45c0,0.5-0.317,0.75-0.95,0.75
	c-0.467,0-0.834-0.183-1.101-0.55C287.684,136.217,287.6,136.017,287.6,135.85z"/>
<path fill-rule="evenodd" clip-rule="evenodd" fill="#FFFF33" d="M310.2,117.35c-1.367,2.233-2.55,3.35-3.55,3.35
	c-0.267,0-0.434-0.083-0.5-0.25c-0.034-0.067-0.051-0.167-0.051-0.3l2.051-2.25C309.517,116.6,310.2,116.417,310.2,117.35z"/>
<path fill-rule="evenodd" clip-rule="evenodd" fill="#FFFF33" d="M310.7,120.9c0,0.133-0.667,0.934-2,2.4
	c-1.334,1.467-2.05,2.2-2.15,2.2c-0.366,0-0.55-0.167-0.55-0.5l2.35-2.95C309.917,120.283,310.7,119.9,310.7,120.9z"/>
<path fill-rule="evenodd" clip-rule="evenodd" fill="#FFFF33" d="M297.55,125.5c-0.366,0-0.733-0.083-1.1-0.25L296,125
	c0-0.167,0.134-0.233,0.4-0.2c0.833,0.1,1.483,0.15,1.949,0.15c0.167,0.1,0.25,0.2,0.25,0.3s-0.033,0.167-0.1,0.2
	C298.366,125.483,298.05,125.5,297.55,125.5z"/>
<path fill-rule="evenodd" clip-rule="evenodd" fill="#EAEA00" d="M285.95,130.8c-0.134,0-0.217-0.216-0.25-0.65
	c0-0.433,0-0.667,0-0.7l0.05-1.35c0-0.267,0.1-0.517,0.3-0.75s0.3-0.15,0.3,0.25l-0.149,0.75v2.1
	C286.267,130.683,286.184,130.8,285.95,130.8z"/>
<path fill-rule="evenodd" clip-rule="evenodd" fill="#EAEA00" d="M285.85,130.6l-0.05-1.25l0.05-0.1v-1.95
	c0.334-0.833,0.5-0.283,0.5,1.65c0.067,1.9-0.033,2.85-0.3,2.85c-0.2,0-0.3-0.2-0.3-0.6C285.75,130.8,285.783,130.6,285.85,130.6z"
	/>
<path fill-rule="evenodd" clip-rule="evenodd" fill="#EAEA00" d="M286.35,132.45c0.101,0.1,0.15,0.4,0.15,0.9
	c0,0.233-0.1,0.35-0.3,0.35s-0.316-0.184-0.351-0.55c0-0.4,0-0.617,0-0.65v-3.15l-0.05-0.3c0-0.233,0.066-0.367,0.2-0.4
	s0.25,0.167,0.35,0.6V132.45z"/>
<path fill-rule="evenodd" clip-rule="evenodd" fill="#EAEA00" d="M285.95,130.65c0-0.267,0.066-0.4,0.2-0.4
	c0.133,0,0.25,0.183,0.35,0.55v2.1c0.1,0.333,0.15,0.817,0.15,1.45c0,0.2-0.101,0.3-0.301,0.3c-0.199,0-0.316-0.25-0.35-0.75
	c0-0.533,0-0.833,0-0.9v-2.1L285.95,130.65z"/>
<path fill-rule="evenodd" clip-rule="evenodd" fill="#EAEA00" d="M286.55,132.5l0.2,2c0,0.2-0.1,0.3-0.3,0.3
	c-0.134,0-0.25-0.533-0.351-1.6c-0.066-1.067-0.1-1.617-0.1-1.65c0-0.667,0.1-0.833,0.3-0.5
	C286.467,131.417,286.55,131.9,286.55,132.5z"/>
<path fill-rule="evenodd" clip-rule="evenodd" fill="#EAEA00" d="M297.1,136.9c0,0.133-0.1,0.217-0.3,0.25
	c-0.633,0.067-1.35,0.15-2.149,0.25l-1.4,0.05c-0.4,0-0.717,0.05-0.95,0.15c-0.2,0.1-0.85,0.133-1.95,0.1l-0.649,0.15
	c-1.267-0.167-2.033-0.35-2.3-0.55c0,0.267-0.117,0.4-0.351,0.4c-0.2,0-0.45-0.184-0.75-0.55c-0.267-0.333-0.399-0.55-0.399-0.65
	l0.1-0.3l-0.15-1.95c0-0.233,0-0.367,0-0.4c0.034-0.1,0.167-0.133,0.4-0.1l-0.15-1.7c0-0.6,0.084-0.75,0.25-0.45
	c0.167,0.267,0.284,0.65,0.351,1.15c0.1,1,0.184,1.567,0.25,1.7c0.333,0.7,0.684,1.233,1.05,1.6c0.8,0.733,1.884,1.1,3.25,1.1
	c0.7,0,1.1,0,1.2,0c0.166-0.033,0.416-0.117,0.75-0.25h1.399c0.334-0.2,1.067-0.3,2.2-0.3C296.967,136.6,297.066,136.7,297.1,136.9z
	"/>
<path fill-rule="evenodd" clip-rule="evenodd" fill="#EAEA00" d="M296.4,137c0-0.267,0.5-0.317,1.5-0.15
	c1.066,0.033,1.633,0.05,1.699,0.05c0.134,0.033,0.2,0.1,0.2,0.2c0,0.2-0.267,0.3-0.8,0.3c-1.366,0-2.184-0.033-2.45-0.1
	C296.45,137.267,296.4,137.167,296.4,137z"/>
<path fill-rule="evenodd" clip-rule="evenodd" fill="#EAEA00" d="M304,134.2c0.566-0.434,0.85-0.467,0.85-0.1l-2.25,1.9
	c0.034,0.067,0.117,0.167,0.25,0.3c-1.5,1.034-2.483,1.55-2.949,1.55c-0.134,0-0.217-0.033-0.25-0.1l-0.051-0.15
	c0-0.434,0.917-1.117,2.75-2.05C302.684,135.317,303.233,134.867,304,134.2z"/>
<path fill-rule="evenodd" clip-rule="evenodd" fill="#EAEA00" d="M299.8,138.2c0,0.066-0.05,0.15-0.149,0.25l-6.101,0.05
	c-0.233,0-0.366,0-0.399,0c0-0.033-0.017-0.083-0.051-0.15c-0.033-0.033-0.05-0.067-0.05-0.1c0-0.233,0.5-0.35,1.5-0.35
	c0,0.067,0.351,0.083,1.05,0.05h3.95C299.717,138.05,299.8,138.133,299.8,138.2z"/>
<path fill-rule="evenodd" clip-rule="evenodd" fill="#EAEA00" d="M299.15,138.35l-0.051-0.15l0.9-0.75c0.6-0.4,0.9-0.4,0.9,0
	c0,0.066-0.217,0.267-0.65,0.6c-0.467,0.3-0.767,0.45-0.9,0.45C299.283,138.5,299.217,138.45,299.15,138.35z"/>
<path fill-rule="evenodd" clip-rule="evenodd" fill="#EAEA00" d="M293.6,138.25l-0.75,0.05c-0.267,0-0.399-0.083-0.399-0.25
	c0-0.133,0.05-0.2,0.149-0.2c0.167-0.067,0.584-0.1,1.25-0.1c0.167,0.1,0.25,0.2,0.25,0.3c0,0.2-0.1,0.3-0.3,0.3
	C293.733,138.35,293.667,138.317,293.6,138.25z"/>
<path fill-rule="evenodd" clip-rule="evenodd" fill="#EAEA00" d="M287.1,136.95c0-0.333,0.217-0.367,0.65-0.1
	c0.4,0.3,0.6,0.517,0.6,0.65c0,0.167-0.1,0.25-0.3,0.25c-0.1,0-0.283-0.117-0.55-0.35S287.1,137.017,287.1,136.95z"/>
<path fill-rule="evenodd" clip-rule="evenodd" fill="#EAEA00" d="M286.85,137.05c0-0.333,0.217-0.383,0.65-0.15
	c0.434,0.267,0.65,0.45,0.65,0.55c0,0.2-0.084,0.3-0.25,0.3c-0.233,0-0.467-0.1-0.7-0.3
	C286.967,137.25,286.85,137.117,286.85,137.05z"/>
<path fill-rule="evenodd" clip-rule="evenodd" fill="#EAEA00" d="M312.9,120.95c0-0.414,0.05-0.847,0.149-1.3v2.25
	c0.033,0.434,0.066,1.434,0.101,3c0.025,0.357,0.05,0.666,0.074,0.925c-0.005,0.034-0.014,0.067-0.024,0.1
	c-0.3-0.25-0.45-0.824-0.45-1.725c0.134-0.733,0.2-1.284,0.2-1.65L312.9,120.95z"/>
<path fill-rule="evenodd" clip-rule="evenodd" fill="#EAEA00" d="M308.8,130.55l0.4-0.3c0.233-0.167,0.35-0.1,0.35,0.2
	c0,0.2-0.45,0.716-1.35,1.55c-0.967,0.9-1.55,1.433-1.75,1.6c-1,0.633-1.767,1.15-2.3,1.55c-1,0.967-1.584,1.45-1.75,1.45
	c-0.101,0-0.167-0.05-0.2-0.15l-0.05-0.15c0-0.133,0.466-0.6,1.399-1.4c0.767-0.667,1.4-1.2,1.9-1.6
	c0.166-0.133,0.684-0.65,1.55-1.55C307.833,130.95,308.434,130.55,308.8,130.55z"/>
<path fill-rule="evenodd" clip-rule="evenodd" fill="#EAEA00" d="M288.15,126.2c0.633-0.267,0.949-0.217,0.949,0.15
	c0,0.233-0.283,0.35-0.85,0.35l-1.4,0.05c-0.199,0.033-0.366,0.217-0.5,0.55c-0.166,0.333-0.3,0.5-0.399,0.5
	c-0.066,0-0.134-0.05-0.2-0.15l-0.05-0.15c0-0.833,0.35-1.267,1.05-1.3H288.15z"/>
<path fill-rule="evenodd" clip-rule="evenodd" fill="#EAEA00" d="M308.55,119.25c0.033-0.033,0.55-0.467,1.55-1.3
	c0.5-0.434,0.75-0.434,0.75,0c-2.566,2.333-3.949,3.5-4.149,3.5c-0.101,0-0.167-0.05-0.2-0.15l-0.05-0.15c0-0.133,0.3-0.467,0.899-1
	C307.917,119.683,308.316,119.383,308.55,119.25z"/>
<path fill-rule="evenodd" clip-rule="evenodd" fill="#FFFF33" d="M302.75,117.85l-0.05-0.1c0-0.167,0.083-0.25,0.25-0.25
	c0.166,0,0.25,0.083,0.25,0.25s-0.084,0.25-0.25,0.25C302.884,118,302.816,117.95,302.75,117.85z"/>
<path fill-rule="evenodd" clip-rule="evenodd" fill="#FFFF66" d="M311.1,116.45c0.099,0.049,0.19,0.09,0.275,0.125
	c-0.633,0.096-1.241,0.187-1.825,0.275h-1.45c-1.1-0.133-2.283-0.217-3.55-0.25h-2.85c-0.434,0-0.65-0.1-0.65-0.3
	c0-0.063,0.042-0.122,0.125-0.175c0.132-0.045,0.265-0.087,0.4-0.125c0.365,0.033,0.924,0.05,1.675,0.05
	c1.286,0,2.169-0.066,2.65-0.2h0.5c0.207,0.028,0.457,0.062,0.75,0.1h2.125c0.16,0.015,0.352,0.032,0.574,0.05l0.476,0.025
	C310.489,116.132,310.748,116.274,311.1,116.45z"/>
<path fill-rule="evenodd" clip-rule="evenodd" fill="#FFFF66" d="M312.05,116.875c0.293,0.232,0.51,0.407,0.65,0.525
	c0.017,0.695,0.133,1.445,0.35,2.25v2.25c0.029,0.378,0.063,1.187,0.101,2.425c-0.05,1.117-0.2,1.675-0.45,1.675
	c-0.233,0-0.367-0.267-0.4-0.8c0.033-0.534,0.033-0.85,0-0.95c-0.033-0.067-0.05-0.367-0.05-0.9c-0.033-0.233-0.1-0.4-0.2-0.5
	c-0.066-0.1-0.1-0.2-0.1-0.3l0.149-1.3l-0.149-0.8c0-0.367,0.066-0.75,0.2-1.15c0.1-0.433,0.149-0.667,0.149-0.7l-0.149-1.35
	c-0.046-0.158-0.171-0.317-0.375-0.475C311.888,116.823,311.979,116.856,312.05,116.875z"/>
<path fill-rule="evenodd" clip-rule="evenodd" fill="#FFFF66" d="M311.1,116.45c0.461,0.23,0.777,0.372,0.95,0.425
	c0.164,0.134,0.306,0.251,0.425,0.35c-0.06,0.06-0.135,0.135-0.225,0.225c0.233,0.333,0.366,0.55,0.4,0.65
	c0.033,0.066,0.05,0.25,0.05,0.55v0.4c-0.033,0.133-0.134,0.2-0.3,0.2c-0.301,0-0.534-0.167-0.7-0.5
	c-0.101-0.4-0.184-0.633-0.25-0.7c-6.834,5.7-10.55,8.55-11.15,8.55l-0.5-0.75c0-0.1,0.667-0.7,2-1.8
	c1.834-1.533,2.816-2.35,2.95-2.45c0.6-0.567,1.45-1.3,2.55-2.2c1.233-1.4,2.117-2.1,2.65-2.1c0.1,0,0.2,0.05,0.3,0.15l0.15-0.1
	l0.05-0.1c-0.634-0.3-0.95-0.533-0.95-0.7c0-0.2,0.1-0.3,0.3-0.3c0.134,0,0.566,0.117,1.3,0.35
	C311.094,116.543,311.094,116.493,311.1,116.45z"/>
<path fill-rule="evenodd" clip-rule="evenodd" fill="#FFFF66" d="M312.85,118.8c0.057,0.28,0.123,0.563,0.2,0.85v2.25
	c0.033,0.434,0.066,1.434,0.101,3c0.025,0.359,0.05,0.667,0.074,0.925c-0.021,0.088-0.047,0.18-0.074,0.275
	c-0.103,0.254-0.235,0.504-0.4,0.75c-0.045-0.094-0.078-0.21-0.1-0.35c0-0.467,0-0.717,0-0.75c0-0.467,0.066-0.867,0.199-1.2
	c0.101-0.333,0.15-0.55,0.15-0.65c-0.1-0.733-0.15-1.3-0.15-1.7l0.15-1.7c-0.134-0.333-0.2-0.617-0.2-0.85l0.101-0.35L312.85,118.8z
	"/>
<path fill-rule="evenodd" clip-rule="evenodd" fill="#FFFF66" d="M312.4,117.2c-0.024-0.034-0.05-0.067-0.075-0.1
	c0.157,0.125,0.282,0.225,0.375,0.3c0,0.069,0,0.136,0,0.2L312.4,117.2z M310.35,116.025c0.06,0.042,0.135,0.092,0.226,0.15
	c-0.123-0.017-0.248-0.025-0.375-0.025c-0.533,0-0.9,0.017-1.101,0.05c-0.366,0.033-0.85,0.066-1.449,0.1h-2.301
	c-0.343-0.114-0.685-0.206-1.024-0.275c0.84-0.029,1.415-0.104,1.725-0.225c0.245,0.037,0.611,0.086,1.101,0.15L310.35,116.025z
	 M301.8,116.2c-0.066,0-0.133-0.05-0.2-0.15l-0.024-0.05c0.217,0.02,0.5,0.037,0.85,0.05L301.8,116.2z"/>
<path fill-rule="evenodd" clip-rule="evenodd" fill="#FFFF66" d="M301.575,116c0.1,0.009,0.217,0.018,0.35,0.025
	c0.084,0.044,0.125,0.119,0.125,0.225c0,0.333-0.267,0.5-0.8,0.5c-0.366,0-0.55-0.117-0.55-0.35c0-0.046,0.008-0.087,0.024-0.125
	c0.077-0.025,0.152-0.05,0.226-0.075C301.146,116.127,301.355,116.06,301.575,116z"/>
<path fill-rule="evenodd" clip-rule="evenodd" fill="#EAEA00" d="M306.6,115.65h3.65l0.2,0.2c0,0.1-0.066,0.167-0.2,0.2l-8.6,0.2
	c-0.801,0.267-1.217,0.4-1.25,0.4c-0.134,0-0.2-0.083-0.2-0.25c0-0.066,0.2-0.183,0.6-0.35c0.3-0.133,0.533-0.216,0.7-0.25h2.5
	l0.1-0.05h1.65C306.316,115.717,306.6,115.683,306.6,115.65z"/>
<path fill-rule="evenodd" clip-rule="evenodd" fill="#EAEA00" d="M313.2,118.65V121c0.033,0.667,0.116,1.95,0.25,3.85l-0.15,1.45
	c-0.066,0.2-0.233,0.45-0.5,0.75c-0.233,0.3-0.416,0.45-0.55,0.45s-0.2-0.05-0.2-0.15v-0.15c0-0.034,0.167-0.267,0.5-0.7
	c0.334-0.4,0.5-0.933,0.5-1.6c-0.133-1.7-0.217-2.933-0.25-3.7v-2.4c0-1.033-0.767-1.917-2.3-2.65H310
	c-0.134-0.1-0.2-0.183-0.2-0.25c0-0.2,0.217-0.25,0.65-0.15s0.767,0.25,1,0.45c0.166,0.066,0.517,0.316,1.05,0.75
	c0.267,0.167,0.434,0.433,0.5,0.8C313.066,117.95,313.134,118.25,313.2,118.65z"/>
<path fill-rule="evenodd" clip-rule="evenodd" fill="#EAEA00" d="M299.9,117.15c-0.134,0-0.2-0.083-0.2-0.25
	c0-0.267,0.2-0.5,0.6-0.7c0.4-0.2,0.601-0.167,0.601,0.1L299.9,117.15z"/>
<path fill-rule="evenodd" clip-rule="evenodd" fill="#EAEA00" d="M302.4,116.35c-0.101-0.033-0.184-0.05-0.25-0.05
	c-0.434,0-0.784,0.117-1.051,0.35S300.6,117,300.4,117c-0.134,0-0.2-0.083-0.2-0.25c1.533-0.967,2.3-1.183,2.3-0.65
	C302.5,116.233,302.467,116.317,302.4,116.35z"/>
<path fill-rule="evenodd" clip-rule="evenodd" fill="#EAEA00" d="M312.6,126.8c-0.033,0.1-0.1,0.15-0.199,0.15
	c-0.134,0-0.2-0.083-0.2-0.25c0-0.133,0.1-0.317,0.3-0.55c0.1-0.133,0.233-0.316,0.4-0.55l0.05-0.65c0.3-0.4,0.45-0.417,0.45-0.05
	l-0.051,1.05c-0.199,0.133-0.383,0.3-0.55,0.5C312.7,126.55,312.634,126.667,312.6,126.8z"/>
<path fill-rule="evenodd" clip-rule="evenodd" fill="#EAEA00" d="M298.95,126c0,0.067-0.066,0.133-0.2,0.2
	c-0.066,0-0.116-0.017-0.15-0.05l-0.05-0.25l0.351-0.05L298.95,126z"/>
<path fill-rule="evenodd" clip-rule="evenodd" fill="#EAEA00" d="M299.65,126.35c-0.233-0.233-0.384-0.35-0.45-0.35l-0.851-0.1
	l-0.05-0.2c0-0.2,0.267-0.233,0.8-0.1c0.5,0.167,0.75,0.333,0.75,0.5C299.85,126.267,299.783,126.35,299.65,126.35z"/>
<path fill-rule="evenodd" clip-rule="evenodd" fill="#EAEA00" d="M300.25,128.1c-0.134,0-0.2-0.167-0.2-0.5
	c0-0.4-0.033-0.65-0.1-0.75c-0.533-0.667-0.8-1.033-0.8-1.1c0-0.3,0.216-0.233,0.649,0.2c0.434,0.433,0.65,0.933,0.65,1.5
	C300.45,127.883,300.384,128.1,300.25,128.1z"/>
<path fill-rule="evenodd" clip-rule="evenodd" fill="#EAEA00" d="M311.55,118.05c0,0.2-0.883,0.983-2.649,2.35
	c-0.301,0.2-0.717,0.583-1.25,1.15c-0.534,0.534-0.983,0.917-1.351,1.15c-1.233,0.933-2.3,1.716-3.2,2.35
	c-1.699,1.233-2.716,1.85-3.05,1.85c-0.166,0-0.25-0.083-0.25-0.25c0-0.167,0.834-0.816,2.5-1.95c2.367-1.567,3.634-2.417,3.8-2.55
	c0.101-0.066,0.551-0.467,1.351-1.2c0.6-0.5,1.066-0.867,1.399-1.1c0.267-0.2,0.817-0.667,1.65-1.4
	C311.2,117.883,311.55,117.75,311.55,118.05z"/>
</svg>
