<?xml version="1.0" encoding="utf-8"?>
<!-- Generator: Adobe Illustrator 16.0.0, SVG Export Plug-In . SVG Version: 6.00 Build 0)  -->
<!DOCTYPE svg PUBLIC "-//W3C//DTD SVG 1.1//EN" "http://www.w3.org/Graphics/SVG/1.1/DTD/svg11.dtd">
<svg version="1.1" id="Selected_Items" xmlns="http://www.w3.org/2000/svg" xmlns:xlink="http://www.w3.org/1999/xlink" x="0px"
	 y="0px" width="550px" height="400px" viewBox="0 0 550 400" enable-background="new 0 0 550 400" xml:space="preserve">
<path fill-rule="evenodd" clip-rule="evenodd" fill="#003991" d="M350.6,128.75l2.7-0.05c1.3-0.134,2.283-0.384,2.95-0.75
	c0.5-0.3,0.75-0.617,0.75-0.95c0-0.633-0.8-1.25-2.4-1.85c-1.899-0.733-4.399-1.15-7.5-1.25h-3.55
	c-1.467,0.233-2.75,0.617-3.85,1.15c-1.134,0.567-1.7,1.1-1.7,1.6c0,0.467,0.533,0.967,1.6,1.5c1.301,0.633,2.934,0.95,4.9,0.95
	l5.9-0.3L350.6,128.75z M347.8,129.7c-1.1,0.233-2.533,0.35-4.3,0.35c-2,0-3.634-0.5-4.9-1.5c-0.933-0.733-1.399-1.367-1.399-1.9
	c0-0.767,0.467-1.417,1.399-1.95c0.934-0.534,2.533-1.083,4.801-1.65h3.8c3.8,0.167,6.633,0.7,8.5,1.6
	c1.399,0.667,2.1,1.45,2.1,2.35c0,1.4-1.5,2.25-4.5,2.55l-2.6,0.05l-0.2,0.05L347.8,129.7z"/>
<path fill-rule="evenodd" clip-rule="evenodd" fill="#003991" d="M337.45,131.85c-0.3-1.167-0.45-2.45-0.45-3.85
	c0-0.333,0.133-0.75,0.4-1.25c0.267-0.5,0.399-0.35,0.399,0.45l0.101,2.4c0.033,1.167,0.433,2.75,1.199,4.75
	c0.334,0.9,0.817,2.667,1.45,5.3c0.566,2.434,0.851,3.8,0.851,4.1c0,0.333-0.134,0.5-0.4,0.5c-0.333,0-0.717-1.067-1.15-3.2
	c-0.666-3.133-1.017-4.75-1.05-4.85C337.934,133.4,337.483,131.95,337.45,131.85z"/>
<path fill-rule="evenodd" clip-rule="evenodd" fill="#003991" d="M358.5,126.8c-1.767,11.434-3.15,17.15-4.15,17.15
	c-0.066,0-0.199-0.034-0.399-0.1l-0.05-0.5c0.3-0.8,0.616-1.717,0.949-2.75c0.667-2.034,1.117-3.85,1.351-5.45
	c0.133-1.4,0.399-2.883,0.8-4.45c0.333-1.333,0.5-2.583,0.5-3.75c0-0.534-0.55-1.017-1.65-1.45c-1.1-0.433-1.649-0.75-1.649-0.95
	c0-0.466,0.717-0.45,2.149,0.05C357.783,125.1,358.5,125.833,358.5,126.8z"/>
<path fill-rule="evenodd" clip-rule="evenodd" fill="#003991" d="M341.7,145.4c-0.8-0.533-1.2-0.983-1.2-1.35
	c0-0.333,0.133-0.5,0.4-0.5c0.232,0,0.566,0.333,1,1c0.767,0.633,2.066,0.95,3.899,0.95c1.667,0,3.75-0.533,6.25-1.6
	c1.967-0.867,2.95-1.183,2.95-0.95c0,0.333-1.117,0.966-3.35,1.9c-2.101,0.867-3.584,1.367-4.45,1.5h-2.7
	C343.5,146.317,342.566,146,341.7,145.4z"/>
<path fill-rule="evenodd" clip-rule="evenodd" fill="#003991" d="M334.1,127.85c0,0.1,0.033,0.55,0.101,1.35
	c0.033,0.866,0.033,1.517,0,1.95c-0.033,0.4,0.1,0.934,0.399,1.6c0.2,0.367,0.467,0.9,0.801,1.6c0.433,1.167,1.533,2.3,3.3,3.4
	c1.533,0.933,2.3,1.9,2.3,2.9l-0.05,0.6c-0.033,0.066-0.134,0.1-0.3,0.1c-0.233,0-1.801-1.284-4.7-3.85
	c-1.5-1.367-2.384-2.667-2.65-3.9c-0.066-0.2-0.2-1.383-0.399-3.55c-0.2-2.233-0.301-3.633-0.301-4.2c0-1.367,1.051-2.017,3.15-1.95
	c2.1,0.067,3.15,0.483,3.15,1.25c0,0.267-0.15,0.4-0.45,0.4c-0.367-0.133-0.617-0.216-0.75-0.25c0,0.434-0.084,1.133-0.25,2.1
	c0,0.067,0.149,0.25,0.45,0.55c0,0.1-0.051,0.216-0.15,0.35c-0.134,0.167-0.283,0.25-0.45,0.25c-1.533-1.333-2.5-2.1-2.899-2.3
	C334.2,126.35,334.1,126.883,334.1,127.85z"/>
<path fill-rule="evenodd" clip-rule="evenodd" fill="#003991" d="M335.8,127.35v4.5c0.667,1.466,1.601,2.7,2.8,3.7
	c0.867,0.667,1.301,1.583,1.301,2.75c0,0.3-0.117,0.45-0.351,0.45s-0.467-0.167-0.7-0.5c-0.199-0.333-0.433-0.5-0.699-0.5
	c-0.268,0-0.817-0.5-1.65-1.5c-0.867-1-1.483-1.883-1.85-2.65c-0.567-1.133-0.851-2.55-0.851-4.25c0-1.133,0.101-2,0.3-2.6
	C334.434,125.717,335,125.917,335.8,127.35z"/>
<path fill-rule="evenodd" clip-rule="evenodd" fill="#003991" d="M341.4,145.05c0-0.333,0.133-0.5,0.399-0.5
	c0.066,0,0.316,0.217,0.75,0.65c0.601,0.4,1.316,0.566,2.15,0.5h2.7c2.3-0.467,3.85-0.9,4.649-1.3c0.066-0.033,0.566-0.316,1.5-0.85
	c0.9-0.433,1.351-0.4,1.351,0.1c0,0.434-0.884,1.017-2.65,1.75c-1.833,0.767-3.384,1.15-4.65,1.15h-3c-1.233,0-2.116-0.2-2.649-0.6
	C341.583,145.683,341.4,145.383,341.4,145.05z"/>
<path fill-rule="evenodd" clip-rule="evenodd" fill="#004DBF" d="M336.2,124.15c1.5,0.3,2.25,0.583,2.25,0.85
	c0,0.1-0.3,0.483-0.9,1.15c-0.066,0.8-0.267,1.2-0.6,1.2c-0.167,0-0.5-0.2-1-0.6c-0.467-0.367-0.733-0.567-0.8-0.6
	c-0.367-0.1-0.733-0.267-1.101-0.5c-0.399-0.267-0.6-0.5-0.6-0.7c0-0.233,0.083-0.383,0.25-0.45c0.066-0.067,0.399-0.183,1-0.35
	H336.2z M337.6,125c-0.133,0-0.316-0.05-0.55-0.15c-0.267-0.133-0.566-0.217-0.899-0.25l-1.4-0.05c-0.467,0.233-0.75,0.35-0.85,0.35
	c0.399,0.467,1.283,1.017,2.649,1.65c0.134-0.633,0.467-1.133,1-1.5L337.6,125z"/>
<path fill-rule="evenodd" clip-rule="evenodd" fill="#004DBF" d="M336.9,124.5c0.066,0.067,0.133,0.167,0.199,0.3
	c0.067,0.034,0.217,0.067,0.45,0.1c0.101,0.033,0.15,0.117,0.15,0.25c0,0.033-0.167,0.233-0.5,0.6c-0.367,0.333-0.55,0.533-0.55,0.6
	l0.199,0.3c0,0.167-0.066,0.25-0.199,0.25c-1.634-0.967-2.567-1.633-2.801-2c0.033,0,0.15-0.167,0.351-0.5
	c0.1-0.133,0.517-0.133,1.25,0C336.283,124.367,336.767,124.4,336.9,124.5z"/>
<path fill-rule="evenodd" clip-rule="evenodd" fill="#004DBF" d="M333.65,126.45v0.25c0.033,0.466,0.216,2.417,0.55,5.85
	c0,0.167-0.067,0.25-0.2,0.25c-0.267,0-0.417-0.45-0.45-1.35l-0.3-5.05c0-0.533,0.35-0.583,1.05-0.15
	c0.333,0.233,0.667,0.517,1,0.85c0,0.167-0.083,0.25-0.25,0.25s-0.417-0.133-0.75-0.4C333.9,126.617,333.684,126.45,333.65,126.45z"
	/>
<path fill-rule="evenodd" clip-rule="evenodd" fill="#004DBF" d="M333.7,126.35c0.166,0,0.383,0.117,0.649,0.35
	c0.267,0.333,0.4,0.583,0.4,0.75c0.033-0.034,0.066-0.1,0.1-0.2c0.033-0.067,0.084-0.1,0.15-0.1c0.2,0,0.316,0.833,0.35,2.5
	l-0.05,3.2l-0.2,0.1c-0.333,0-0.517-0.483-0.55-1.45c0.033-1,0.05-1.533,0.05-1.6c-0.733-1.633-1.1-2.733-1.1-3.3
	C333.5,126.433,333.566,126.35,333.7,126.35z"/>
<path fill-rule="evenodd" clip-rule="evenodd" fill="#004DBF" d="M333.95,132.65c0.033-0.867,0.033-1.433,0-1.7
	c-0.134-1.2-0.2-2.15-0.2-2.85c0-0.733,0.233-1.184,0.7-1.35c0.467-0.2,0.7,0.1,0.7,0.9c0,0.434-0.051,1.217-0.15,2.35
	c-0.134,1.133-0.2,1.95-0.2,2.45l0.101,0.85c0,0.034-0.051,0.117-0.15,0.25s-0.2,0.2-0.3,0.2
	C334.15,133.75,333.983,133.383,333.95,132.65z"/>
<path fill-rule="evenodd" clip-rule="evenodd" fill="#004DBF" d="M334.05,132.05c0.333,0,0.483,0.434,0.45,1.3
	c0.066-0.133,0.184-0.233,0.35-0.3c-0.1-0.367-0.149-0.617-0.149-0.75l-0.2-0.9c0-0.367,0.1-0.467,0.3-0.3
	c0.134,0.133,0.283,0.367,0.45,0.7c0.333,0.733,0.5,1.117,0.5,1.15c0.667,1.133,1.25,1.866,1.75,2.2c0.434,0.3,0.75,0.667,0.95,1.1
	c0.133,0.233,0.3,0.633,0.5,1.2c0.566,1.133,0.85,1.866,0.85,2.2c0,0.2-0.116,0.3-0.35,0.3c-0.067,0-0.634-0.45-1.7-1.35
	c-1.1-0.9-1.85-1.567-2.25-2c-1.134-1.233-1.7-2.583-1.7-4.05C333.8,132.217,333.883,132.05,334.05,132.05z"/>
<path fill-rule="evenodd" clip-rule="evenodd" fill="#004DBF" d="M341.55,139.6c0.2,0.133,0.816,0.283,1.851,0.45h1.75l0.1-0.05h2.8
	c2.434-0.733,4.167-1.3,5.2-1.7c1.133-0.533,1.783-0.917,1.95-1.15c0.666-1.167,1-1.383,1-0.65c0,0.033-0.134,0.433-0.4,1.2
	c-0.267,0.767-0.417,1.283-0.45,1.55c-0.1,0.533-0.316,1.45-0.649,2.75c-0.167,0.867-0.967,1.6-2.4,2.2
	c-1.033,0.433-2.85,0.95-5.45,1.55H344.2c-1-0.2-1.867-0.55-2.601-1.05c-0.267-0.2-0.433-0.467-0.5-0.8
	c-0.033-0.367-0.066-0.633-0.1-0.8c-0.1-0.333-0.217-0.934-0.35-1.8c-0.167-0.867-0.25-1.367-0.25-1.5c0.066-0.1,0.1-0.183,0.1-0.25
	l-0.1-0.3c0-0.2,0.1-0.3,0.3-0.3C340.833,138.95,341.116,139.167,341.55,139.6z M341.25,141.45l0.45,2.05
	c0.066,0.367,0.383,0.683,0.95,0.95c0.333,0.167,0.899,0.4,1.699,0.7h2.351c2.366-0.566,3.933-0.983,4.7-1.25
	c1.333-0.467,2.083-1,2.25-1.6c0.6-1.833,1.033-3.216,1.3-4.15c-0.667,0.434-1.733,0.867-3.2,1.3c-2.333,0.733-3.55,1.116-3.65,1.15
	l-4.85,0.05l-1.35-0.25c0.1,0.1,0.267,0.217,0.5,0.35c0.1,0.066,0.149,0.167,0.149,0.3c0,0.267-0.1,0.4-0.3,0.4
	c-0.467-0.367-0.8-0.6-1-0.7V141.45z"/>
<path fill-rule="evenodd" clip-rule="evenodd" fill="#004DBF" d="M338.7,131.25c0.066,0.3,0.25,1.066,0.55,2.3
	c0,0.267-0.117,0.4-0.35,0.4c-0.301,0-0.601-0.817-0.9-2.45c-0.233-1.3-0.35-2.167-0.35-2.6c0-0.8,0.1-1.2,0.3-1.2
	s0.3,0.417,0.3,1.25C338.25,129.45,338.4,130.217,338.7,131.25z"/>
<path fill-rule="evenodd" clip-rule="evenodd" fill="#004DBF" d="M350.45,133.45c0.399-0.034,0.899-0.067,1.5-0.1l1.85-0.65
	c0.434-0.2,1.066-0.45,1.9-0.75c0.033,0,0.25-0.15,0.649-0.45c0.4-0.2,0.601-0.117,0.601,0.25c0,0.6-1.017,1.217-3.05,1.85
	c-1.634,0.5-3.518,0.9-5.65,1.2h-5.05c-1.101-0.066-2.117-0.2-3.05-0.4c-0.967-0.233-1.45-0.467-1.45-0.7c0-0.2,0.1-0.3,0.3-0.3
	c0.066,0,0.6,0.117,1.6,0.35c1.134,0.233,2.033,0.383,2.7,0.45h4.8l1.25-0.1C349.383,133.733,349.75,133.517,350.45,133.45z"/>
<path fill-rule="evenodd" clip-rule="evenodd" fill="#004DBF" d="M356.6,131.85c-0.133,0-0.217-0.05-0.25-0.15l-0.05-0.15
	c0-0.533,0.15-1.25,0.45-2.15l0.3-1.15c0.033-0.467,0.134-0.633,0.3-0.5c0.2,0.133,0.301,0.333,0.301,0.6
	C357.15,130.683,356.8,131.85,356.6,131.85z"/>
<path fill-rule="evenodd" clip-rule="evenodd" fill="#004DBF" d="M347.85,131h-1.899c-1.834,0.167-3.717-0.167-5.65-1
	c-1.667-0.7-2.5-1.267-2.5-1.7c0-0.4,0.283-0.417,0.851-0.05c0.3,0.167,0.666,0.433,1.1,0.8c0.2,0.2,0.684,0.367,1.45,0.5
	c1.467,0.267,2.25,0.417,2.35,0.45h1.3c0.267-0.067,1.617-0.2,4.051-0.4h1.3c1.2-0.034,2-0.083,2.399-0.15
	c0.233-0.034,0.551-0.1,0.95-0.2l1.65-0.4c0.1-0.034,0.75-0.317,1.95-0.85c0.267,0,0.399,0.1,0.399,0.3
	c0,0.467-1.3,1.017-3.899,1.65C351.55,130.45,349.616,130.8,347.85,131z"/>
<path fill-rule="evenodd" clip-rule="evenodd" fill="#004DBF" d="M348.9,134.55h-4c-3.134-0.2-5.101-0.533-5.9-1
	c-0.267-0.167-0.467-0.617-0.6-1.35l-0.5-2.75c0-0.3,0.116-0.517,0.35-0.65c0.267-0.167,0.583,0.034,0.95,0.6l0.399-0.05
	c0.233,0,0.851,0.233,1.851,0.7c1.3,0.434,2.767,0.65,4.399,0.65c1.467,0,3.65-0.333,6.551-1c0.633-0.1,2.083-0.417,4.35-0.95
	c0.467,0,0.684,0.217,0.65,0.65c0,0.2-0.101,0.467-0.301,0.8c-0.267,0.366-0.416,0.633-0.449,0.8c-0.067,0.233-0.084,0.5-0.051,0.8
	c-0.033,0.267-0.316,0.517-0.85,0.75c-0.467,0.2-1.467,0.5-3,0.9C350.85,133.983,349.566,134.35,348.9,134.55z"/>
<path fill-rule="evenodd" clip-rule="evenodd" fill="#004DBF" d="M344.5,140.4c2.033,0,3.467-0.083,4.3-0.25
	c0.5-0.066,1.783-0.45,3.851-1.15c0.6-0.2,1.3-0.5,2.1-0.9c0.5-0.167,0.75,0.017,0.75,0.55c0,0.233-0.6,1.5-1.8,3.8
	c-0.334,0.633-1.134,1.2-2.4,1.7c-1.8,0.733-4.149,1.1-7.05,1.1c-1.6,0-2.566-0.3-2.9-0.9c-0.066-0.633-0.133-1.034-0.199-1.2
	c-0.034-0.1-0.051-0.45-0.051-1.05c0-0.1-0.066-0.267-0.199-0.5c-0.134-0.233-0.2-0.417-0.2-0.55c0-0.167,0.149-0.35,0.45-0.55
	c0.333-0.233,0.699-0.35,1.1-0.35L344.5,140.4z"/>
<path fill-rule="evenodd" clip-rule="evenodd" fill="#004DBF" d="M341.1,138.9l1,0.5c0.967,0.3,2.15,0.45,3.551,0.45
	c1.466,0,2.732-0.167,3.8-0.5l2.95-0.45c0.232,0,0.366,0.1,0.399,0.3c0,0.767-2.316,1.45-6.95,2.05h-1.35
	c-0.2-0.067-0.583-0.15-1.15-0.25c-0.3-0.033-0.449-0.15-0.449-0.35c0-0.2,0.133-0.3,0.399-0.3c0.434,0,0.833,0.1,1.2,0.3h1.4
	c0.437-0.065,0.962-0.157,1.574-0.275c-0.585,0.05-1.21,0.075-1.875,0.075c-0.666,0-1.583-0.117-2.75-0.35
	c-1-0.233-1.633-0.417-1.899-0.55c0,0.034,0.017,0.184,0.05,0.45c0,0.233-0.117,0.35-0.35,0.35c-0.2,0-0.384-0.3-0.551-0.9
	c-0.133-0.467-0.199-0.817-0.199-1.05c0-0.533,0.149-0.65,0.449-0.35C340.517,138.217,340.767,138.5,341.1,138.9z M350.4,139.9
	l0.05-0.05c-0.122,0.028-0.239,0.053-0.351,0.075C350.196,139.918,350.297,139.91,350.4,139.9z"/>
<path fill-rule="evenodd" clip-rule="evenodd" fill="#00C1C1" d="M356.95,132.25c0,0.467-1,1.033-3,1.7
	c-2.3,0.767-4.75,1.15-7.351,1.15c-1.267,0-2.8-0.133-4.6-0.4c-2.434-0.4-3.65-0.884-3.65-1.45c0-0.2,0.084-0.3,0.25-0.3
	c0.067,0,0.7,0.267,1.9,0.8c1.7,0.5,3.733,0.75,6.1,0.75c1.5,0,3.084-0.184,4.75-0.55c0.9-0.2,1.801-0.434,2.7-0.7
	c0.233-0.067,0.8-0.383,1.7-0.95C356.55,131.867,356.95,131.85,356.95,132.25z"/>
<path fill-rule="evenodd" clip-rule="evenodd" fill="#00C1C1" d="M356.3,136.25c0,0.7-0.866,1.35-2.6,1.95
	c-2.233,0.633-3.867,1.1-4.9,1.4h-2.85c-1.101,0.1-2.434-0.133-4-0.7c-1.434-0.533-2.15-0.917-2.15-1.15c0-0.2,0.117-0.3,0.351-0.3
	c0.3,0,0.933,0.283,1.899,0.85c0.434,0.133,1.783,0.367,4.05,0.7h2.551c1.1-0.333,2.8-0.817,5.1-1.45c0.9-0.4,1.434-0.7,1.6-0.9
	c0.2-0.333,0.384-0.566,0.551-0.7C356.167,135.75,356.3,135.85,356.3,136.25z"/>
<path fill-rule="evenodd" clip-rule="evenodd" fill="#00C1C1" d="M356,136.6c-0.134,0-0.217-0.05-0.25-0.15l-0.05-0.15
	c0.366-2.1,0.55-3.333,0.55-3.7c0-0.2,0.116-0.317,0.35-0.35c0.2-0.033,0.301,0.117,0.301,0.45
	C356.633,135.3,356.333,136.6,356,136.6z"/>
<path fill-rule="evenodd" clip-rule="evenodd" fill="#00C1C1" d="M338.4,133.45c0-0.167,0.05-0.317,0.149-0.45
	c0.134-0.167,0.283-0.117,0.45,0.15c0,0.233,0.05,0.45,0.15,0.65l0.55,1.15c0.133,0.466,0.2,0.933,0.2,1.4
	c0,0.133,0.149,0.533,0.449,1.2c0,0.2-0.116,0.3-0.35,0.3c-0.3,0-0.517-0.317-0.65-0.95c-0.066-0.7-0.116-1.117-0.149-1.25
	C338.667,134.45,338.4,133.717,338.4,133.45z"/>
<path fill-rule="evenodd" clip-rule="evenodd" fill="#00C1C1" d="M346.75,134.9c-0.036,0.001-0.136,0.035-0.3,0.1
	c-0.031,0.01-0.057,0.01-0.075,0c0.245,0.173,1.137,0.19,2.675,0.05c2.066-0.2,3.8-0.7,5.2-1.5c1.2-0.7,1.934-1,2.2-0.9
	c0.1,0.033,0.149,0.283,0.149,0.75c0,0.2-0.183,0.833-0.55,1.9c-0.333,1.067-0.55,1.667-0.649,1.8c-0.167,0.233-0.7,0.466-1.601,0.7
	c-1.066,0.267-1.85,0.483-2.35,0.65c-0.367,0.267-0.783,0.483-1.25,0.65c-0.867,0.3-2.184,0.45-3.95,0.45c-1.9,0-3.5-0.333-4.8-1
	c-1.033-0.533-1.55-0.983-1.55-1.35c0-0.3-0.101-0.817-0.301-1.55c-0.199-0.7-0.3-1.133-0.3-1.3c0-0.467,0.2-0.7,0.601-0.7
	c0.232,0,0.416,0.1,0.55,0.3c0.133,0.2,0.25,0.3,0.35,0.3c0.033,0,0.167-0.05,0.4-0.15s0.517-0.15,0.85-0.15
	c0.533,0,1.101,0.167,1.7,0.5c0.505,0.268,1.355,0.417,2.55,0.45C346.444,134.9,346.595,134.9,346.75,134.9z"/>
<path fill-rule="evenodd" clip-rule="evenodd" fill="#00C1C1" d="M345.85,134.65c0.134-0.033,0.667-0.05,1.601-0.05l3.95-0.1
	c1.267-0.5,1.899-0.35,1.899,0.45c0,0.167-0.1,0.3-0.3,0.4l-1.5,0.4l-4,0.1c-0.967,0-1.566-0.117-1.8-0.35l-0.101-0.35
	C345.6,134.85,345.684,134.683,345.85,134.65z"/>
<path fill-rule="evenodd" clip-rule="evenodd" fill="#004DBF" d="M340.55,139.35c-0.167,0-0.316-0.1-0.45-0.3
	c-0.1-0.167-0.149-0.3-0.149-0.4c0-0.233,0.133-0.35,0.399-0.35l5.301,1.3H347c0.566-0.133,1.65-0.367,3.25-0.7
	c1.066-0.2,1.767-0.383,2.1-0.55c0.134-0.1,0.884-0.284,2.25-0.55c0.2-0.066,0.483-0.2,0.851-0.4c0.267-0.1,0.399-0.033,0.399,0.2
	c0,0.367-1.166,0.883-3.5,1.55c-0.8,0.267-1.449,0.467-1.949,0.6c-0.867,0.267-2.483,0.483-4.851,0.65l-1.7,0.05l-0.649-0.15
	c-0.233-0.066-0.55-0.1-0.95-0.1c-0.267,0.066-0.467,0.1-0.6,0.1c-0.167,0-0.268-0.066-0.301-0.2v-0.2c0-0.133,0.067-0.25,0.2-0.35
	c-0.167-0.2-0.383-0.35-0.649-0.45C340.733,139.267,340.616,139.35,340.55,139.35z"/>
<path fill-rule="evenodd" clip-rule="evenodd" fill="#004DBF" d="M339.9,133.3c-0.367,0-0.733-0.1-1.101-0.3
	c-0.333-0.167-0.5-0.317-0.5-0.45c0-0.333,0.316-0.383,0.95-0.15c0.633,0.267,0.95,0.45,0.95,0.55
	C340.2,133.183,340.1,133.3,339.9,133.3z"/>
<path fill-rule="evenodd" clip-rule="evenodd" fill="#004DBF" d="M344.2,134.45c-1.134,0-2-0.117-2.601-0.35
	c-0.433-0.167-0.649-0.333-0.649-0.5c0-0.2,0.083-0.3,0.25-0.3c0.133,0,0.416,0.1,0.85,0.3c0.934,0.2,1.733,0.3,2.4,0.3
	c0.233,0.033,0.35,0.117,0.35,0.25C344.8,134.35,344.6,134.45,344.2,134.45z"/>
<path fill-rule="evenodd" clip-rule="evenodd" fill="#663300" d="M349.25,124.6c0,0.333-0.116,0.5-0.35,0.5
	c-0.134,0-0.267-0.067-0.4-0.2c-1.3-0.233-2.2-0.383-2.7-0.45h-1.75v0.05l-0.55,0.05c-0.1-0.033-0.333,0-0.7,0.1
	c-0.366,0.1-0.55,0.2-0.55,0.3c0,0.133,0.1,0.3,0.3,0.5c0.934-0.133,1.4,0.05,1.4,0.55c0,0.233-0.3,0.55-0.9,0.95
	c-0.633,0.4-1.149,0.6-1.55,0.6c-0.833,0-1.25-0.2-1.25-0.6c0-0.267-0.066-0.45-0.2-0.55c-0.133-0.066-0.2-0.2-0.2-0.4
	c0-1.1,1.367-1.883,4.101-2.35H346c0.4,0.1,1.2,0.233,2.4,0.4C348.967,124.117,349.25,124.3,349.25,124.6z"/>
<path fill-rule="evenodd" clip-rule="evenodd" fill="#663300" d="M356.3,126.8c0-0.5-1.3-1-3.899-1.5
	c-0.667-0.066-1.7-0.25-3.101-0.55c-1.2-0.067-1.95-0.133-2.25-0.2c-0.399-0.066-0.6-0.25-0.6-0.55c0-0.267,0.149-0.4,0.45-0.4
	c0.199,0,0.517,0.083,0.949,0.25c0.167,0,0.351-0.05,0.551-0.15c1.267,0,2.949,0.3,5.05,0.9c2.434,0.7,3.649,1.433,3.649,2.2
	c0,0.4-0.233,0.767-0.699,1.1c-0.534,0.434-1.233,0.65-2.101,0.65c-0.267,0-0.533,0.05-0.8,0.15c-0.3,0.133-0.667,0.2-1.1,0.2
	c-0.767,0-1.15-0.183-1.15-0.55c0-0.267,0.15-0.4,0.45-0.4c0.233,0,0.35,0.05,0.35,0.15h0.601c0.1-0.033,0.883-0.184,2.35-0.45
	C355.866,127.483,356.3,127.2,356.3,126.8z"/>
<path fill-rule="evenodd" clip-rule="evenodd" fill="#663300" d="M353.25,128.8c-0.2,0.067-0.6,0.117-1.2,0.15
	c-0.033,0-0.3,0.017-0.8,0.05c-0.4,0-0.866,0.067-1.4,0.2c-0.6,0.133-1.066,0.216-1.399,0.25c-0.033,0-0.334,0.017-0.9,0.05H343.9
	v-0.05c-1.101-0.1-2.317-0.367-3.65-0.8c-1.6-0.533-2.4-1.05-2.4-1.55c0-0.7,0.534-1.4,1.601-2.1c0.934-0.633,1.649-0.95,2.149-0.95
	c0.267,0,0.4,0.133,0.4,0.4c0,0.167-0.55,0.517-1.65,1.05c-1.1,0.533-1.649,1-1.649,1.4c0,0.434,1.8,1.033,5.399,1.8h3.2l2.4-0.3
	c0.166-0.033,0.283-0.133,0.35-0.3c0.033-0.133,0.15-0.2,0.351-0.2c0.166,0,0.533,0.05,1.1,0.15c0.934,0,1.65-0.066,2.15-0.2
	s0.8-0.2,0.899-0.2c0.334,0,0.5,0.133,0.5,0.4C355.05,128.517,354.45,128.767,353.25,128.8z"/>
<path fill-rule="evenodd" clip-rule="evenodd" fill="#663300" d="M356.15,125.95c0.3,0.133,0.449,0.367,0.449,0.7
	c0,0.367-0.133,0.617-0.399,0.75c-0.3,0.167-0.95,0.317-1.95,0.45c-0.5,0.2-1.884,0.367-4.15,0.5c-0.066,0.1-0.133,0.167-0.199,0.2
	c-0.101,0.1-0.284,0.184-0.551,0.25l-1.05,0.2H347c-0.1,0-0.15-0.017-0.15-0.05h-3.5c-1.066-0.567-1.733-0.85-2-0.85
	c-0.166,0.1-0.383,0.15-0.649,0.15c-0.4,0-0.634-0.067-0.7-0.2c-0.1-0.1-0.184-0.15-0.25-0.15c-0.467,0-0.75-0.033-0.85-0.1
	c-0.233-0.233-0.351-0.583-0.351-1.05c0-0.167,0.167-0.417,0.5-0.75c0.334-0.367,0.634-0.55,0.9-0.55c0.333,0,0.5,0.133,0.5,0.4
	l-0.101,0.25c0.134,0.133,0.301,0.233,0.5,0.3l0.601,0.15c0.1,0,0.366-0.083,0.8-0.25c-0.233-0.4-0.35-0.683-0.35-0.85
	c0-0.567,0.216-0.917,0.649-1.05c0.4-0.167,1.367-0.25,2.9-0.25c1.233,0,2,0.067,2.3,0.2c0.3,0.1,0.816,0.15,1.55,0.15
	c0.533,0,1.167,0.117,1.9,0.35c0.066,0,0.35-0.067,0.85-0.2c0.667,0,1.55,0.25,2.65,0.75
	C355.167,125.567,355.65,125.75,356.15,125.95z M343.85,125.75l0.101-0.05l-0.351,0.05H343.85z"/>
<path fill-rule="evenodd" clip-rule="evenodd" fill="#003991" d="M333.4,128.1c-0.2,0-0.301-0.15-0.301-0.45l0.051-1.1
	c0-0.367,0.116-0.533,0.35-0.5c0.2,0,0.3,0.117,0.3,0.35C333.8,127.533,333.667,128.1,333.4,128.1z"/>
<path fill-rule="evenodd" clip-rule="evenodd" fill="#003991" d="M333.2,126.65l-0.101-0.55c0-0.333,0.084-0.467,0.25-0.4
	c0.167,0.1,0.317,0.367,0.45,0.8v2.45l0.101,0.5c0,0.267-0.101,0.4-0.301,0.4c-0.233,0-0.35-0.117-0.35-0.35s-0.017-0.367-0.05-0.4
	V126.65z"/>
<path fill-rule="evenodd" clip-rule="evenodd" fill="#003991" d="M333.6,131.5c-0.333,0-0.517-1.117-0.55-3.35
	c0-0.7,0.101-0.983,0.3-0.85c0.167,0.1,0.267,0.567,0.301,1.4c0.033,0.333,0.116,1.117,0.25,2.35
	C333.9,131.35,333.8,131.5,333.6,131.5z"/>
<path fill-rule="evenodd" clip-rule="evenodd" fill="#003991" d="M333.4,126.15c0.166,0.133,0.3,0.333,0.399,0.6v3l0.25,2.15
	c0,0.233-0.1,0.35-0.3,0.35c-0.3,0-0.483-0.35-0.55-1.05c0.033-0.767,0.033-1.217,0-1.35v-3l-0.101-0.45
	C333.1,126.067,333.2,125.983,333.4,126.15z"/>
<path fill-rule="evenodd" clip-rule="evenodd" fill="#003991" d="M334,133.65c-0.267,0-0.467-1.15-0.6-3.45
	c0-0.267,0.066-0.417,0.199-0.45c0.167-0.067,0.301,0.067,0.4,0.4l0.3,3.05C334.3,133.5,334.2,133.65,334,133.65z"/>
<path fill-rule="evenodd" clip-rule="evenodd" fill="#003991" d="M334.2,134.05c-0.367,0-0.601-1.133-0.7-3.4
	c0-0.233,0.1-0.35,0.3-0.35s0.316,0.15,0.351,0.45l0.1,1c0,0.533,0.1,1.2,0.3,2C334.55,133.95,334.434,134.05,334.2,134.05z"/>
<path fill-rule="evenodd" clip-rule="evenodd" fill="#003991" d="M334.8,135.1c-0.5,0-0.916-1.133-1.25-3.4
	c0-0.233,0.101-0.417,0.3-0.55c0.167-0.1,0.267,0.067,0.301,0.5c-0.034,0.133,0.033,0.517,0.199,1.15
	c0.067,0.3,0.217,0.684,0.45,1.15c0.2,0.4,0.3,0.683,0.3,0.85C335.1,135,335,135.1,334.8,135.1z"/>
<path fill-rule="evenodd" clip-rule="evenodd" fill="#003991" d="M335,135.65c-0.267,0-0.634-0.967-1.1-2.9
	c0-0.2,0.066-0.317,0.199-0.35c0.167-0.033,0.301,0.083,0.4,0.35l0.8,2.55C335.3,135.533,335.2,135.65,335,135.65z"/>
<path fill-rule="evenodd" clip-rule="evenodd" fill="#003991" d="M335.1,136.1c-0.399,0-0.85-0.883-1.35-2.65
	c0-0.133,0.083-0.25,0.25-0.35c0.167-0.133,0.283-0.067,0.35,0.2l0.2,0.8c0.066,0.2,0.351,0.767,0.851,1.7
	C335.4,136,335.3,136.1,335.1,136.1z"/>
<path fill-rule="evenodd" clip-rule="evenodd" fill="#003991" d="M336.45,137.35c-0.3,0-0.967-0.9-2-2.7
	c0-0.2,0.083-0.283,0.25-0.25c0.133,0,0.283,0.1,0.45,0.3c0.033,0.1,0.216,0.4,0.55,0.9c0.166,0.267,0.533,0.75,1.1,1.45
	C336.8,137.25,336.684,137.35,336.45,137.35z"/>
<path fill-rule="evenodd" clip-rule="evenodd" fill="#003991" d="M336.6,137.5c-0.466,0-1.166-0.683-2.1-2.05
	c0-0.434,0.116-0.55,0.35-0.35c0.134,0.133,0.4,0.433,0.801,0.9c0.066,0.067,0.316,0.267,0.75,0.6c0.366,0.333,0.55,0.533,0.55,0.6
	C336.95,137.4,336.833,137.5,336.6,137.5z"/>
<path fill-rule="evenodd" clip-rule="evenodd" fill="#003991" d="M337.45,138.4c-0.467,0-1.4-0.883-2.8-2.65
	c0-0.433,0.183-0.5,0.55-0.2c0.2,0.2,0.517,0.55,0.95,1.05c0.033,0.033,0.316,0.25,0.85,0.65c0.533,0.433,0.8,0.717,0.8,0.85
	C337.8,138.3,337.684,138.4,337.45,138.4z"/>
<path fill-rule="evenodd" clip-rule="evenodd" fill="#003991" d="M338.35,138.95c-0.267,0-1.133-0.767-2.6-2.3
	c0-0.4,0.167-0.483,0.5-0.25c0.2,0.167,0.533,0.467,1,0.9c0.066,0.067,0.333,0.267,0.8,0.6c0.4,0.333,0.601,0.567,0.601,0.7
	C338.65,138.833,338.55,138.95,338.35,138.95z"/>
<path fill-rule="evenodd" clip-rule="evenodd" fill="#003991" d="M339.15,139.75l-2.5-2.4c0-0.467,0.466-0.283,1.399,0.55
	c0.934,0.833,1.4,1.35,1.4,1.55C339.45,139.65,339.35,139.75,339.15,139.75z"/>
<path fill-rule="evenodd" clip-rule="evenodd" fill="#003991" d="M339.55,140.15c-0.133,0-0.35-0.183-0.649-0.55
	c-0.233-0.367-0.367-0.567-0.4-0.6c-0.634-0.633-0.95-1-0.95-1.1c0-0.566,0.384-0.433,1.15,0.4c0.767,0.833,1.149,1.333,1.149,1.5
	C339.85,140.033,339.75,140.15,339.55,140.15z"/>
<path fill-rule="evenodd" clip-rule="evenodd" fill="#003991" d="M339.55,140.15c-0.366,0-0.783-0.3-1.25-0.9
	c-0.399-0.533-0.6-0.867-0.6-1c0-0.6,0.366-0.533,1.1,0.2c0.733,0.733,1.101,1.183,1.101,1.35
	C339.9,140.033,339.783,140.15,339.55,140.15z"/>
<path fill-rule="evenodd" clip-rule="evenodd" fill="#003991" d="M338.35,129.9c0.134,0.567,0.2,0.983,0.2,1.25
	c0,0.533-0.133,0.8-0.399,0.8c-0.2,0-0.301-0.117-0.301-0.35l0.101-0.45c-0.267-1.2-0.4-2.033-0.4-2.5s0.101-0.717,0.3-0.75
	c0.2-0.066,0.301,0.184,0.301,0.75C338.15,128.917,338.217,129.333,338.35,129.9z"/>
<path fill-rule="evenodd" clip-rule="evenodd" fill="#003991" d="M338.55,134.5c-0.366,0-0.55-0.867-0.55-2.6
	c-0.366-1.333-0.55-2.183-0.55-2.55c0-0.1,0.066-0.2,0.2-0.3c0.166-0.133,0.316-0.05,0.449,0.25c0,0.267,0.034,0.483,0.101,0.65
	l0.35,1.35c0.2,1.2,0.3,2.15,0.3,2.85C338.85,134.383,338.75,134.5,338.55,134.5z"/>
<path fill-rule="evenodd" clip-rule="evenodd" fill="#003991" d="M339,135.8c-0.134,0-0.583-1.417-1.35-4.25
	c0-0.5,0.1-0.633,0.3-0.4c0.2,0.2,0.333,0.45,0.399,0.75l0.351,1.15c0.166,0.4,0.366,1.167,0.6,2.3
	C339.3,135.65,339.2,135.8,339,135.8z"/>
<path fill-rule="evenodd" clip-rule="evenodd" fill="#003991" d="M338.75,135.1c-0.4-1.5-0.6-2.35-0.6-2.55
	c0-0.133,0.066-0.233,0.199-0.3c0.167-0.067,0.301,0.017,0.4,0.25l0.5,1.95c0,0.066,0.167,1,0.5,2.8c0,0.233-0.1,0.35-0.3,0.35
	c-0.267,0-0.45-0.367-0.55-1.1C338.833,135.733,338.783,135.267,338.75,135.1z"/>
<path fill-rule="evenodd" clip-rule="evenodd" fill="#003991" d="M340.05,138.9c-0.333,0-0.783-1.35-1.35-4.05
	c0-0.533,0.133-0.6,0.399-0.2c0.267,0.367,0.467,0.934,0.601,1.7c0.033,0.2,0.149,0.583,0.35,1.15s0.3,0.917,0.3,1.05
	C340.35,138.783,340.25,138.9,340.05,138.9z"/>
<path fill-rule="evenodd" clip-rule="evenodd" fill="#003991" d="M340.5,140.25c-0.2,0-0.366-0.25-0.5-0.75
	c-0.1-0.667-0.184-1.133-0.25-1.4c-0.467-1.4-0.7-2.167-0.7-2.3c0-0.433,0.134-0.5,0.4-0.2c0.233,0.333,0.5,0.917,0.8,1.75
	c0,0.167,0.184,1,0.55,2.5C340.8,140.117,340.7,140.25,340.5,140.25z"/>
<path fill-rule="evenodd" clip-rule="evenodd" fill="#003991" d="M341.1,142.1c-0.333,0-0.75-1.5-1.25-4.5
	c0-0.4,0.101-0.517,0.301-0.35c0.133,0.167,0.267,0.417,0.399,0.75l0.45,2.6c0.033,0.233,0.167,0.633,0.4,1.2
	C341.4,142,341.3,142.1,341.1,142.1z"/>
<path fill-rule="evenodd" clip-rule="evenodd" fill="#003991" d="M340.4,140.85c0.033,0.2,0.166,0.633,0.399,1.3
	c0.167,0.533,0.267,0.95,0.3,1.25c0.067,0.8,0.334,1.417,0.801,1.85c0.199,0.233,0.399,0.417,0.6,0.55c0,0.2-0.134,0.3-0.4,0.3
	c-0.333,0-0.699-0.317-1.1-0.95c-0.333-0.533-0.517-0.95-0.55-1.25c-0.367-1.1-0.566-1.867-0.601-2.3
	c-0.699-2.833-1.05-4.45-1.05-4.85c0-0.333,0.066-0.517,0.2-0.55c0.167-0.067,0.3,0.15,0.4,0.65c0,0.667,0.149,1.1,0.449,1.3
	c0.2,0.133,0.301,0.583,0.301,1.35C340.217,139.767,340.3,140.217,340.4,140.85z"/>
<path fill-rule="evenodd" clip-rule="evenodd" fill="#003991" d="M340.95,140.85c0.2,0.267,0.366,0.583,0.5,0.95
	c0.066,0.1,0.184,0.35,0.35,0.75c0.134,0.3,0.283,0.534,0.45,0.7c0.134,0.167,0.267,0.433,0.4,0.8
	c0.166,0.333,0.483,0.583,0.949,0.75c0.134,0.067,0.601,0.167,1.4,0.3c0.733,0.2,1.1,0.433,1.1,0.7c0,0.133-0.033,0.217-0.1,0.25
	c-0.1,0.034-0.3,0.05-0.6,0.05l-2.45-0.35c-0.167-0.033-0.55-0.217-1.15-0.55c-0.1-0.067-0.3-0.35-0.6-0.85
	c-0.3-0.533-0.45-0.867-0.45-1c0.134-0.133,0.2-0.25,0.2-0.35c-0.3-1-0.45-1.617-0.45-1.85
	C340.5,140.55,340.65,140.45,340.95,140.85z"/>
<path fill-rule="evenodd" clip-rule="evenodd" fill="#003991" d="M353.65,143.55c0,0.133-0.367,0.4-1.101,0.8
	c-0.566,0.333-0.983,0.55-1.25,0.65c-1.267,0.567-2.25,0.917-2.95,1.05l-2.899,0.05c-0.3,0-0.483-0.083-0.55-0.25
	c-0.067-0.233-0.233-0.383-0.5-0.45l-1.45-0.6c-0.533-0.367-0.867-0.6-1-0.7c-0.267-0.233-0.4-0.483-0.4-0.75
	c0-0.467,0.167-0.55,0.5-0.25c0.2,0.167,0.566,0.533,1.101,1.1c0.366,0.233,0.883,0.466,1.55,0.7c0.7,0.267,1.267,0.4,1.7,0.4
	c1.133,0,2.199-0.133,3.199-0.4c0.534-0.133,1.034-0.3,1.5-0.5c0.334-0.133,1.084-0.517,2.25-1.15
	C353.517,143.25,353.616,143.35,353.65,143.55z"/>
<path fill-rule="evenodd" clip-rule="evenodd" fill="#003991" d="M352.85,144.35c-0.199,0-0.3-0.117-0.3-0.35
	c0-0.2,0.417-0.533,1.25-1c0.834-0.433,1.25-0.467,1.25-0.1C355.05,143.033,354.316,143.517,352.85,144.35z"/>
<path fill-rule="evenodd" clip-rule="evenodd" fill="#003991" d="M336.15,127.3c-0.534-0.466-0.851-0.733-0.95-0.8
	c-0.601-0.367-1.017-0.617-1.25-0.75c-0.334-0.2-0.5-0.45-0.5-0.75c0-0.333,0.149-0.583,0.45-0.75c0.267-0.167,0.399-0.1,0.399,0.2
	c0,0.1-0.066,0.283-0.2,0.55c2.434,1.633,3.65,2.5,3.65,2.6c0,0.2-0.116,0.3-0.35,0.3C337.1,127.9,336.684,127.7,336.15,127.3z"/>
<path fill-rule="evenodd" clip-rule="evenodd" fill="#003991" d="M341.4,123.75c0,0.067-0.567,0.467-1.7,1.2
	c-1.134,0.767-1.7,1.316-1.7,1.65c0,0.5,0.417,1,1.25,1.5c0.8,0.5,1.2,0.8,1.2,0.9c0,0.167-0.101,0.25-0.3,0.25
	c-0.4-0.167-0.684-0.25-0.851-0.25c-0.1,0.067-0.184,0.1-0.25,0.1c-0.566-0.233-0.95-0.35-1.149-0.35c-0.601,0-0.851-0.35-0.75-1.05
	c0-1.2,0.716-2.3,2.149-3.3C340.7,123.4,341.4,123.183,341.4,123.75z"/>
<path fill-rule="evenodd" clip-rule="evenodd" fill="#003991" d="M357.85,127.45c0,0.633-0.949,1.2-2.85,1.7
	c-2,0.533-4.667,0.867-8,1h-1.9c-4-0.6-6-1.1-6-1.5c0-0.167,0.084-0.25,0.25-0.25l2.25,0.65c0.034,0,0.417,0.1,1.15,0.3
	c0.566,0.133,1.4,0.233,2.5,0.3h1.55c1.167-0.167,3.084-0.417,5.75-0.75c1.667-0.2,2.634-0.35,2.9-0.45
	c0.066-0.034,0.366-0.15,0.899-0.35c0.367-0.133,0.601-0.267,0.7-0.4c0.101-0.2,0.25-0.367,0.45-0.5
	C357.733,127.067,357.85,127.15,357.85,127.45z"/>
<path fill-rule="evenodd" clip-rule="evenodd" fill="#008484" d="M338.35,133.2c0-0.167,0.101-0.284,0.301-0.35
	c0.166-0.033,0.3,0.083,0.399,0.35l0.2,0.65c0,0.333,0.05,0.6,0.15,0.8c0.1,0.2,0.149,0.4,0.149,0.6l1.15,2.75
	c0,0.2-0.101,0.3-0.3,0.3c-0.4,0-0.717-0.417-0.95-1.25c-0.167-0.566-0.25-1-0.25-1.3c-0.167-0.3-0.351-0.8-0.55-1.5
	C338.45,133.617,338.35,133.267,338.35,133.2z"/>
<path fill-rule="evenodd" clip-rule="evenodd" fill="#008484" d="M338.5,133c0.167,0.2,0.283,0.45,0.35,0.75l0.301,1.5
	c0,0.267,0.1,0.75,0.3,1.45c0.033,0.1,0.1,0.367,0.2,0.8c0.1,0.167,0.267,0.267,0.5,0.3c0.199,0.034,0.3,0.1,0.3,0.2
	c0,0.167-0.101,0.25-0.3,0.25c-0.634,0-1.067-0.367-1.301-1.1c-0.066-0.767-0.1-1.183-0.1-1.25l-0.55-2.65
	C338.2,132.783,338.3,132.7,338.5,133z"/>
<path fill-rule="evenodd" clip-rule="evenodd" fill="#008484" d="M338.55,133.6c0.601,2.4,0.9,3.683,0.9,3.85
	c0,0.2-0.084,0.3-0.25,0.3c-0.267,0-0.467-0.367-0.601-1.1c-0.066-0.833-0.116-1.316-0.149-1.45c-0.533-1.467-0.8-2.317-0.8-2.55
	c0-0.267,0.216-0.316,0.649-0.15s0.65,0.433,0.65,0.8C338.95,133.533,338.816,133.633,338.55,133.6z"/>
<path fill-rule="evenodd" clip-rule="evenodd" fill="#0066FF" d="M338.2,125.1c-0.467,0-0.867-0.083-1.2-0.25
	c-0.366-0.2-1.1-0.3-2.2-0.3c-0.366,0-0.55-0.1-0.55-0.3c0-0.3,0.717-0.367,2.15-0.2c1.399,0.2,2.1,0.483,2.1,0.85
	C338.5,125.033,338.4,125.1,338.2,125.1z"/>
<path fill-rule="evenodd" clip-rule="evenodd" fill="#0066FF" d="M335.2,128.5c-0.134,0-0.2-0.083-0.2-0.25l0.05-1.05
	c0.267-0.367,0.4-0.184,0.4,0.55C335.483,128.25,335.4,128.5,335.2,128.5z"/>
<path fill-rule="evenodd" clip-rule="evenodd" fill="#0066FF" d="M335.25,130c-0.1,0-0.167-0.5-0.2-1.5
	c-0.066-1.567,0.066-1.95,0.4-1.15l0.05,1.9C335.5,129.75,335.417,130,335.25,130z"/>
<path fill-rule="evenodd" clip-rule="evenodd" fill="#0066FF" d="M335.35,132.1c-0.3,0-0.466-1.633-0.5-4.9
	c0-0.267,0.084-0.417,0.25-0.45c0.134-0.067,0.217,0.117,0.25,0.55c-0.033,0.3,0.017,0.684,0.15,1.15l0.1,2.35
	C335.6,131.667,335.517,132.1,335.35,132.1z"/>
<path fill-rule="evenodd" clip-rule="evenodd" fill="#0066FF" d="M337.05,134.85c-0.267,0-0.75-0.533-1.45-1.6
	c-0.1-0.133-0.216-0.417-0.35-0.85c-0.134-0.433-0.2-0.767-0.2-1c0-0.566,0.134-0.617,0.4-0.15c0.233,0.4,0.399,0.9,0.5,1.5
	c0.233,0.4,0.684,1.017,1.35,1.85C337.3,134.767,337.217,134.85,337.05,134.85z"/>
<path fill-rule="evenodd" clip-rule="evenodd" fill="#0066FF" d="M338.4,136.6c-0.134,0-0.417-0.217-0.851-0.65
	c-0.434-0.434-0.717-0.767-0.85-1c-0.8-1.067-1.2-1.667-1.2-1.8c0-0.667,0.25-0.5,0.75,0.5c0.1,0.1,0.366,0.417,0.8,0.95
	c0.4,0.167,0.717,0.433,0.95,0.8c0.033,0.033,0.233,0.35,0.6,0.95C338.6,136.517,338.533,136.6,338.4,136.6z"/>
<path fill-rule="evenodd" clip-rule="evenodd" fill="#0066FF" d="M357.9,127c-0.167,0-0.317-0.183-0.45-0.55
	c-0.167-0.434-0.3-0.667-0.4-0.7c-1.033-0.5-1.55-0.817-1.55-0.95c0-0.4,0.434-0.316,1.3,0.25c0.867,0.567,1.3,1.117,1.3,1.65
	C358.1,126.9,358.033,127,357.9,127z"/>
<path fill-rule="evenodd" clip-rule="evenodd" fill="#0066FF" d="M354.25,124.65c-0.134,0-0.566-0.133-1.3-0.4l-1.05-0.4
	c0-0.3,0.449-0.3,1.35,0c0.467,0.167,0.917,0.35,1.35,0.55C354.6,124.567,354.483,124.65,354.25,124.65z"/>
<path fill-rule="evenodd" clip-rule="evenodd" fill="#0066FF" d="M352.2,124.05c-0.167,0-0.334-0.05-0.5-0.15
	c-0.134-0.1-0.2-0.183-0.2-0.25c0-0.4,0.3-0.35,0.9,0.15C352.4,123.967,352.333,124.05,352.2,124.05z"/>
<path fill-rule="evenodd" clip-rule="evenodd" fill="#0066FF" d="M350.75,123.9c-0.5,0-0.95-0.066-1.35-0.2
	c-0.334-0.133-0.5-0.25-0.5-0.35c0-0.167,0.35-0.184,1.05-0.05c0.666,0.1,1,0.233,1,0.4C350.884,123.833,350.816,123.9,350.75,123.9
	z"/>
<path fill-rule="evenodd" clip-rule="evenodd" fill="#0066FF" d="M357.8,127.55c-0.233,0.333-0.467,0.5-0.7,0.5
	c-0.133,0-0.199-0.083-0.199-0.25c0-0.033,0.1-0.15,0.3-0.35c0.166-0.2,0.25-0.417,0.25-0.65c0.399-0.733,0.6-0.733,0.6,0
	C358.05,127,357.967,127.25,357.8,127.55z"/>
<path fill-rule="evenodd" clip-rule="evenodd" fill="#0066FF" d="M358.45,127c0,0.2-0.084,0.567-0.25,1.1
	c-0.2,0.6-0.367,0.9-0.5,0.9c-0.134,0-0.2-0.083-0.2-0.25c0-0.333,0.116-0.683,0.35-1.05c0.034-0.233,0.051-0.417,0.051-0.55
	c0.066-0.233,0.233-0.333,0.5-0.3L358.45,127z"/>
<path fill-rule="evenodd" clip-rule="evenodd" fill="#0066FF" d="M357.35,133.35c-0.133,0-0.199-0.083-0.199-0.25
	c0-0.333,0.066-0.85,0.199-1.55c0.101-0.667,0.15-1.2,0.15-1.6l0.3-1.6c0.033-0.567,0.117-0.867,0.25-0.9
	c0.134-0.034,0.2,0.133,0.2,0.5C357.816,131.55,357.517,133.35,357.35,133.35z"/>
<path fill-rule="evenodd" clip-rule="evenodd" fill="#0066FF" d="M357.65,131.75c-0.101,0.433-0.134,0.767-0.101,1
	c0,1.333-0.1,2-0.3,2c-0.134,0-0.2-0.083-0.2-0.25v-0.25c0.066-1.3,0.134-2.083,0.2-2.35c0.066-0.6,0.134-0.95,0.2-1.05
	c0-0.333,0.066-0.517,0.2-0.55c0.133-0.066,0.199,0.067,0.199,0.4C357.85,130.9,357.783,131.25,357.65,131.75z"/>
<path fill-rule="evenodd" clip-rule="evenodd" fill="#0066FF" d="M356.85,136.55c-0.133,0-0.199-0.066-0.199-0.2v-0.2
	c0-0.467,0.133-1.233,0.399-2.3c0.033-0.467,0.117-0.85,0.25-1.15c0-0.3,0.066-0.483,0.2-0.55c0.134-0.033,0.2,0.083,0.2,0.35
	C357.267,135.2,356.983,136.55,356.85,136.55z"/>
<path fill-rule="evenodd" clip-rule="evenodd" fill="#0066FF" d="M357.1,136.35c-0.466,1.633-0.733,2.45-0.8,2.45
	c-0.133,0-0.2-0.05-0.2-0.15v-0.15c0-0.3,0.067-0.7,0.2-1.2c0.167-0.733,0.417-1.1,0.75-1.1L357.1,136.35z"/>
<path fill-rule="evenodd" clip-rule="evenodd" fill="#0066FF" d="M356.95,137.15c0,0.367-0.367,1.583-1.101,3.65
	c-0.133,0-0.199-0.05-0.199-0.15v-0.15c0.3-1.1,0.449-1.7,0.449-1.8c0.067-0.467,0.134-0.817,0.2-1.05
	c0.101-0.367,0.3-0.583,0.601-0.65L356.95,137.15z"/>
<path fill-rule="evenodd" clip-rule="evenodd" fill="#0066FF" d="M355.6,142.3c-0.133,0-0.199-0.05-0.199-0.15V142
	c0-0.5,0.216-1.383,0.649-2.65s0.65-1.567,0.65-0.9C356.7,138.583,356.333,139.867,355.6,142.3z"/>
<path fill-rule="evenodd" clip-rule="evenodd" fill="#0066FF" d="M354.85,144.05c-0.133,0-0.199-0.083-0.199-0.25
	c0-0.333,0.283-1.133,0.85-2.4c0.566-1.3,0.85-1.65,0.85-1.05C355.783,142.817,355.283,144.05,354.85,144.05z"/>
<path fill-rule="evenodd" clip-rule="evenodd" fill="#482400" d="M342,124.45c-0.134,0-0.2-0.083-0.2-0.25
	c0-0.2,0.417-0.383,1.25-0.55c0.8-0.167,1.2-0.133,1.2,0.1C344.25,123.717,343.5,123.95,342,124.45z"/>
<path fill-rule="evenodd" clip-rule="evenodd" fill="#482400" d="M346.8,123.4c0.233,0.1,0.45,0.167,0.65,0.2
	c0.1,0,0.149,0.066,0.149,0.2s-0.083,0.2-0.25,0.2c-0.399-0.1-0.666-0.15-0.8-0.15c-0.899-0.033-1.35-0.133-1.35-0.3
	c0-0.066,0.066-0.117,0.2-0.15H346.8z"/>
<path fill-rule="evenodd" clip-rule="evenodd" fill="#482400" d="M350.5,124.3c-0.233,0-0.65-0.083-1.25-0.25
	c-0.6-0.2-0.9-0.333-0.9-0.4c0-0.167,0.434-0.15,1.301,0.05c0.267,0.1,0.566,0.133,0.899,0.1c0.167,0,0.25,0.083,0.25,0.25
	C350.8,124.217,350.7,124.3,350.5,124.3z"/>
<path fill-rule="evenodd" clip-rule="evenodd" fill="#482400" d="M349.25,124.1c-0.533,0-0.8-0.117-0.8-0.35
	c0-0.167,0.2-0.217,0.6-0.15c0.367,0.066,0.55,0.167,0.55,0.3S349.483,124.1,349.25,124.1z"/>
<path fill-rule="evenodd" clip-rule="evenodd" fill="#482400" d="M354.4,125.35c-0.101,0-0.317-0.083-0.65-0.25
	c-0.333-0.167-0.55-0.267-0.65-0.3c-0.366-0.066-0.633-0.133-0.8-0.2c-0.267-0.067-0.399-0.167-0.399-0.3
	c0-0.2,0.466-0.183,1.399,0.05c0.9,0.233,1.351,0.483,1.351,0.75C354.65,125.267,354.566,125.35,354.4,125.35z"/>
<path fill-rule="evenodd" clip-rule="evenodd" fill="#482400" d="M357.05,126.7c0,0.5-0.133,0.75-0.399,0.75
	c-0.167,0-0.25-0.083-0.25-0.25l0.149-0.5c0-0.2-0.217-0.483-0.649-0.85c-0.467-0.333-0.7-0.517-0.7-0.55c0-0.2,0.25-0.15,0.75,0.15
	c0.233,0.133,0.5,0.3,0.8,0.5C356.95,125.95,357.05,126.2,357.05,126.7z"/>
<path fill-rule="evenodd" clip-rule="evenodd" fill="#482400" d="M345.75,123.45l0.2,0.2c0,0.1-0.033,0.167-0.101,0.2h-2.25
	c-0.066-0.067-0.1-0.15-0.1-0.25c0-0.067,0.066-0.117,0.2-0.15H345.75z"/>
<path fill-rule="evenodd" clip-rule="evenodd" fill="#482400" d="M349.1,124c0,0.133-0.083,0.2-0.25,0.2
	c-1.366,0-2.05-0.133-2.05-0.4c0-0.133,0.101-0.2,0.3-0.2c0.2,0,0.801,0.05,1.801,0.15C349.033,123.85,349.1,123.933,349.1,124z"/>
<path fill-rule="evenodd" clip-rule="evenodd" fill="#482400" d="M352.55,124.7c-0.5,0-1.017-0.1-1.55-0.3
	c-0.5-0.2-0.75-0.35-0.75-0.45c0-0.167,0.434-0.15,1.3,0.05c0.834,0.233,1.25,0.4,1.25,0.5
	C352.8,124.633,352.717,124.7,352.55,124.7z"/>
<path fill-rule="evenodd" clip-rule="evenodd" fill="#482400" d="M354.85,124.8l1.4,0.9c0,0.133-0.083,0.2-0.25,0.2l-0.35-0.05
	c-0.233,0-0.567-0.133-1-0.4c-0.4-0.267-0.601-0.45-0.601-0.55c0-0.167,0.066-0.217,0.2-0.15c0.233,0.1,0.366,0.15,0.4,0.15
	C354.717,124.9,354.783,124.867,354.85,124.8z"/>
<path fill-rule="evenodd" clip-rule="evenodd" fill="#482400" d="M356.3,126.05c0.4,0.267,0.601,0.65,0.601,1.15
	c0,0.3-0.084,0.45-0.25,0.45c-0.167,0-0.25-0.1-0.25-0.3c0.033-0.2,0.05-0.317,0.05-0.35c0-0.3-0.283-0.567-0.851-0.8
	c-0.733-0.267-1.283-0.5-1.649-0.7c-0.601-0.367-1.101-0.617-1.5-0.75c-0.601-0.2-1.7-0.367-3.3-0.5l-5.5-0.25
	c-0.067,0.1-0.184,0.15-0.351,0.15c-0.133,0-0.2-0.083-0.2-0.25c0-0.133,0.051-0.217,0.15-0.25c0.2-0.066,0.65-0.083,1.35-0.05
	h1.301c0.199-0.033,0.833,0.033,1.899,0.2h1.45c1.566,0.2,2.733,0.45,3.5,0.75c0.434,0.167,1.033,0.417,1.8,0.75
	C355.45,125.6,356.033,125.85,356.3,126.05z"/>
<path fill-rule="evenodd" clip-rule="evenodd" fill="#482400" d="M353.1,125.5c-2.267-0.533-4.517-0.867-6.75-1h-3.25
	c-0.166,0.033-0.3-0.017-0.399-0.15l-0.101-0.15c0-0.167,0.084-0.25,0.25-0.25h3.45c1.134,0.033,2.017,0.1,2.65,0.2
	c0.333,0.067,0.684,0.133,1.05,0.2c0-0.267,0.066-0.4,0.2-0.4l1.899,0.6c0.867,0.233,1.301,0.467,1.301,0.7
	C353.4,125.417,353.3,125.5,353.1,125.5z"/>
<path fill-rule="evenodd" clip-rule="evenodd" fill="#482400" d="M356.4,127.25c-0.101-0.267-0.167-0.433-0.2-0.5
	c-0.134-0.233-0.584-0.467-1.351-0.7c-2.033-0.5-3.05-0.8-3.05-0.9c0-0.2,0.084-0.3,0.25-0.3c0.101-0.033,0.316-0.033,0.65,0
	c0.666,0,1.6,0.283,2.8,0.85c1,0.233,1.5,0.716,1.5,1.45c0,0.3-0.083,0.45-0.25,0.45C356.616,127.6,356.5,127.483,356.4,127.25z"/>
<path fill-rule="evenodd" clip-rule="evenodd" fill="#482400" d="M342.25,124.45l-0.8-0.1l-0.05-0.15l0.149-0.15
	c0.2,0,0.601-0.017,1.2-0.05c0.2,0,0.333,0.033,0.4,0.1C342.983,124.333,342.684,124.45,342.25,124.45z"/>
<path fill-rule="evenodd" clip-rule="evenodd" fill="#482400" d="M357.05,126.5c0.134,0,0.2,0.083,0.2,0.25
	c0,0.333-0.233,0.717-0.7,1.15h-0.3l-0.05-0.15l0.1-0.3c0-0.333-0.3-0.7-0.899-1.1c-0.634-0.4-0.95-0.633-0.95-0.7
	c0-0.333,0.467-0.183,1.399,0.45c0.4,0.6,0.65,0.95,0.75,1.05C356.767,126.817,356.917,126.6,357.05,126.5z"/>
<path fill-rule="evenodd" clip-rule="evenodd" fill="#0066FF" d="M352.35,123.75l-0.05,0.15h-0.45c-0.233-0.033-0.566-0.083-1-0.15
	c-0.199-0.033-0.333-0.083-0.399-0.15c0.1-0.2,0.333-0.267,0.7-0.2c0.666,0.133,1.05,0.2,1.149,0.2L352.35,123.75z"/>
<path fill-rule="evenodd" clip-rule="evenodd" fill="#0066FF" d="M356.1,124.8l-0.05,0.25h-0.25c-0.733-0.233-1.3-0.367-1.7-0.4
	l-0.05-0.15l0.15-0.15C354.8,124.417,355.434,124.567,356.1,124.8z"/>
<path fill-rule="evenodd" clip-rule="evenodd" fill="#9B4E00" d="M340.25,124.7c-0.267,0.233-0.55,0.5-0.85,0.8
	c-0.567,0.6-0.851,1.05-0.851,1.35l0.15,0.75l-0.2,0.05c-0.3,0-0.45-0.35-0.45-1.05c0-0.333,0.267-0.717,0.8-1.15
	c0.467-0.434,0.917-0.717,1.351-0.85L340.25,124.7z"/>
<path fill-rule="evenodd" clip-rule="evenodd" fill="#9B4E00" d="M341.4,124.2c0,0.033-0.434,0.367-1.301,1
	c-0.866,0.633-1.3,1.283-1.3,1.95c0,0.067,0.066,0.233,0.2,0.5l-0.05,0.2c-0.134-0.033-0.267-0.15-0.4-0.35
	c-0.133-0.2-0.2-0.367-0.2-0.5c0-0.1,0.051-0.25,0.15-0.45c0.1-0.233,0.184-0.35,0.25-0.35c0.134,0,0.15-0.067,0.05-0.2
	c0-0.367,0.367-0.783,1.101-1.25c0.666-0.467,1.149-0.683,1.449-0.65L341.4,124.2z"/>
<path fill-rule="evenodd" clip-rule="evenodd" fill="#9B4E00" d="M338.8,127.8c-0.333-0.066-0.583-0.3-0.75-0.7
	c0-0.3,0.134-0.317,0.4-0.05c0.267,0.3,0.399,0.483,0.399,0.55L338.8,127.8z"/>
<path fill-rule="evenodd" clip-rule="evenodd" fill="#003991" d="M336.5,132.7c0.167,0.2,0.566,0.617,1.2,1.25
	c0.6,0.667,0.899,1.2,0.899,1.6c0,0.133-0.083,0.2-0.25,0.2l-2-2.4c-0.666-0.767-1-1.6-1-2.5l0.051-0.4v-2.7
	c0.267-1.5,0.399-0.95,0.399,1.65C335.8,131.033,336.033,132.133,336.5,132.7z"/>
<path fill-rule="evenodd" clip-rule="evenodd" fill="#003991" d="M333.3,125.65c0-0.333,0.3-0.333,0.9,0
	c0.6,0.333,0.983,0.65,1.149,0.95c0.034,0.066,0.384,0.283,1.051,0.65c0.566,0.333,0.85,0.6,0.85,0.8c0,0.133-0.083,0.2-0.25,0.2
	s-0.517-0.167-1.05-0.5c-0.5-0.3-0.851-0.55-1.05-0.75c-0.233-0.4-0.434-0.65-0.601-0.75c-0.233-0.167-0.5-0.267-0.8-0.3
	C333.366,125.95,333.3,125.85,333.3,125.65z"/>
<path fill-rule="evenodd" clip-rule="evenodd" fill="#003991" d="M335.4,127.55c-0.101,0-0.351-0.3-0.75-0.9
	c-0.733-0.4-1.101-0.683-1.101-0.85c0-0.3,0.351-0.2,1.05,0.3c0.667,0.533,1,0.933,1,1.2C335.6,127.467,335.533,127.55,335.4,127.55
	z"/>
<path fill-rule="evenodd" clip-rule="evenodd" fill="#003991" d="M338.65,125c-0.534-0.3-0.884-0.467-1.051-0.5
	c-0.933-0.233-1.683-0.35-2.25-0.35c-0.633,0-1.133,0.083-1.5,0.25c-0.166,0-0.25-0.083-0.25-0.25c0-0.5,0.884-0.617,2.65-0.35
	c1.767,0.233,2.65,0.55,2.65,0.95C338.9,124.917,338.816,125,338.65,125z"/>
<path fill-rule="evenodd" clip-rule="evenodd" fill="#003991" d="M334,124.3c-0.3,0.1-0.5,0.233-0.6,0.4
	c-0.167,0.466-0.317,0.7-0.45,0.7c-0.2,0-0.267-0.1-0.2-0.3c0-0.367,0.283-0.733,0.85-1.1c0.534-0.333,0.801-0.317,0.801,0.05
	C334.4,124.117,334.267,124.2,334,124.3z"/>
<path fill-rule="evenodd" clip-rule="evenodd" fill="#003991" d="M345.55,122.8c1.033,0.1,2,0.184,2.9,0.25
	c0.366,0.034,0.55,0.117,0.55,0.25c0,0.067-0.066,0.133-0.2,0.2l-5.35,0.05c-0.967,0.133-1.95,0.333-2.95,0.6
	c-1.1,0.5-1.667,0.75-1.7,0.75c-0.133,0-0.2-0.083-0.2-0.25c0-0.267,0.684-0.633,2.051-1.1c0.899-0.333,1.733-0.583,2.5-0.75H345.55
	z"/>
<path fill-rule="evenodd" clip-rule="evenodd" fill="#003991" d="M341.8,129.65c-1.066,0-1.916-0.117-2.55-0.35
	c-0.5-0.2-0.767-0.433-0.8-0.7c0.133-0.133,0.316-0.15,0.55-0.05c0.467,0.233,0.767,0.367,0.9,0.4c0.566,0.133,1.216,0.2,1.949,0.2
	c0.334,0.033,0.5,0.133,0.5,0.3C342.35,129.583,342.167,129.65,341.8,129.65z"/>
<path fill-rule="evenodd" clip-rule="evenodd" fill="#003991" d="M355.65,124.6c-0.534,0-1.017-0.117-1.45-0.35
	c-0.5-0.267-0.867-0.417-1.101-0.45c-1.399-0.233-2.85-0.4-4.35-0.5c-0.934-0.033-1.4-0.117-1.4-0.25c0-0.2,2.051-0.066,6.15,0.4
	c1.6,0.466,2.4,0.783,2.4,0.95C355.9,124.533,355.816,124.6,355.65,124.6z"/>
<path fill-rule="evenodd" clip-rule="evenodd" fill="#003991" d="M347.35,122.8l0.101,0.05h1.7c3.166,0.333,4.75,0.65,4.75,0.95
	c0,0.133-0.084,0.2-0.25,0.2l-4.601-0.7l-3.2-0.1c-0.633,0.033-0.949-0.034-0.949-0.2c0-0.233,0.35-0.3,1.05-0.2H347.35z"/>
<path fill-rule="evenodd" clip-rule="evenodd" fill="#003991" d="M356.4,124.8c-1.034-0.3-1.551-0.533-1.551-0.7
	c0-0.333,0.534-0.25,1.601,0.25c1.033,0.467,1.55,0.833,1.55,1.1c0,0.167-0.066,0.25-0.2,0.25
	C357.033,125.167,356.566,124.867,356.4,124.8z"/>
<path fill-rule="evenodd" clip-rule="evenodd" fill="#CCCCCC" d="M341.3,109.4c0,0.1-0.3,0.55-0.899,1.35
	c-0.601,0.8-0.9,1.567-0.9,2.3c0,0.733,0.55,1.617,1.65,2.65c1.1,1.066,1.649,1.95,1.649,2.65c0,0.867-0.467,1.883-1.399,3.05
	c-0.934,1.133-1.4,1.983-1.4,2.55c0,0.566,0.083,0.983,0.25,1.25c0.134,0.2,0.517,0.7,1.15,1.5v0.15
	c-0.067,0.066-0.167,0.1-0.301,0.1c-0.466,0-0.85-0.483-1.149-1.45c-0.233-0.967-0.351-1.467-0.351-1.5
	c0-0.633,0.467-1.583,1.4-2.85s1.4-2.217,1.4-2.85c0-0.533-0.551-1.316-1.65-2.35c-1.1-1-1.65-2-1.65-3
	c0-0.733,0.15-1.317,0.45-1.75c0.233-0.333,0.75-1.017,1.55-2.05C341.233,109.183,341.3,109.267,341.3,109.4z"/>
<path fill-rule="evenodd" clip-rule="evenodd" fill="#CCCCCC" d="M345.9,109.1c0,0.167-0.384,0.6-1.15,1.3
	c-0.767,0.7-1.15,1.35-1.15,1.95c0,0.733,0.434,1.566,1.301,2.5c0.866,0.933,1.3,1.9,1.3,2.9c0,0.7-0.334,1.533-1,2.5
	c-0.667,1-1,1.867-1,2.6c0,0.6,0.25,1.333,0.75,2.2c0.767,1.333,1.217,2.133,1.35,2.4c0.033,0.066-0.033,0.1-0.2,0.1
	c-0.633,0-1.199-0.783-1.699-2.35c-0.267-0.767-0.467-1.55-0.601-2.35c0-0.8,0.334-1.7,1-2.7c0.667-1.033,1-1.833,1-2.4
	c0-0.9-0.434-1.783-1.3-2.65s-1.3-1.767-1.3-2.7c0-0.7,0.2-1.233,0.6-1.6c1.033-1,1.667-1.65,1.9-1.95
	C345.833,108.883,345.9,108.967,345.9,109.1z"/>
<path fill-rule="evenodd" clip-rule="evenodd" fill="#CCCCCC" d="M349.4,109c-1.134,1.3-1.7,2.25-1.7,2.85
	c0,0.633,0.383,1.467,1.149,2.5s1.15,1.9,1.15,2.6c0,0.733-0.333,1.533-1,2.4s-1,1.85-1,2.95c0,0.867,0.316,1.784,0.95,2.75
	l0.95,1.45c0,0.129-0.009,0.196-0.025,0.2c0.071,0.033,0.029,0.05-0.125,0.05c-0.134,0-0.417-0.333-0.85-1
	c-0.467-0.733-0.75-1.167-0.851-1.3c-0.3-0.4-0.45-1.133-0.45-2.2c0-1.167,0.334-2.167,1-3c0.667-0.833,1-1.617,1-2.35
	c0-0.6-0.383-1.383-1.149-2.35c-0.767-1-1.15-1.9-1.15-2.7c0-1.033,0.634-2.067,1.9-3.1C349.333,108.783,349.4,108.867,349.4,109z"
	/>
<path fill-rule="evenodd" clip-rule="evenodd" fill="#CCCCCC" d="M352.7,108.55c0.133,0.034,0.2,0.117,0.2,0.25
	c0,0.067-0.217,0.383-0.65,0.95c-0.434,0.6-0.65,1.117-0.65,1.55c0,0.6,0.4,1.534,1.2,2.8s1.2,2.183,1.2,2.75
	c0,0.467-0.3,1.183-0.9,2.15c-0.6,1-0.899,2.017-0.899,3.05c0,0.967,0.1,1.65,0.3,2.05c0.033,0.066,0.6,0.883,1.7,2.45l-0.05,0.15
	c0.1,0.033,0.066,0.05-0.101,0.05c-0.333,0-0.95-0.783-1.85-2.35c-0.267-0.4-0.4-1.2-0.4-2.4c0-1.133,0.3-2.183,0.9-3.15
	c0.6-0.967,0.899-1.65,0.899-2.05c0-0.5-0.399-1.35-1.199-2.55c-0.801-1.2-1.2-2.167-1.2-2.9c0-0.567,0.083-1.017,0.25-1.35
	C351.65,109.567,352.066,109.083,352.7,108.55z"/>
</svg>
