<?xml version="1.0" encoding="utf-8"?>
<!-- Generator: Adobe Illustrator 16.0.0, SVG Export Plug-In . SVG Version: 6.00 Build 0)  -->
<!DOCTYPE svg PUBLIC "-//W3C//DTD SVG 1.1//EN" "http://www.w3.org/Graphics/SVG/1.1/DTD/svg11.dtd">
<svg version="1.1" id="Selected_Items" xmlns="http://www.w3.org/2000/svg" xmlns:xlink="http://www.w3.org/1999/xlink" x="0px"
	 y="0px" width="550px" height="400px" viewBox="0 0 550 400" enable-background="new 0 0 550 400" xml:space="preserve">
<path fill-rule="evenodd" clip-rule="evenodd" fill="#C56B12" d="M422.75,111.65c0,0.567-0.95,2.4-2.85,5.5
	c-0.4,0.767-0.617,1.667-0.65,2.7c0,0.6,0.017,1.55,0.05,2.85c-0.033,0.167-0.217,0.25-0.55,0.25c-0.2,0-0.333-0.017-0.4-0.05
	c-0.033-0.066-0.1-0.133-0.199-0.2c-0.134-2.833-0.2-4.417-0.2-4.75c0-0.634,0.8-2.317,2.399-5.05
	C421.95,110.133,422.75,109.717,422.75,111.65z"/>
<path fill-rule="evenodd" clip-rule="evenodd" fill="#C56B12" d="M430.45,110.85c4.899,0,7.467-0.034,7.7-0.1h7.399
	c0.533,0.4,0.8,1.05,0.8,1.95c0,1.733-1,3.066-3,4c-2,0.9-3,1.95-3,3.15c0.4,0.4,0.601,0.633,0.601,0.7c0,0.6-0.117,1.233-0.351,1.9
	c-0.267,0.733-0.616,1.233-1.05,1.5c-0.399-0.267-0.6-1.034-0.6-2.3c0-1.2,0.033-1.917,0.1-2.15c0.134-0.5,0.617-1.3,1.45-2.4
	c0.267-0.367,1.083-0.917,2.45-1.65c1.233-0.667,1.967-1.3,2.2-1.9v-1.5l-14.801,0.1c-0.3-0.1-2.683-0.267-7.149-0.5
	c-1.101-0.066-1.65-0.283-1.65-0.65c0-0.4,0.334-0.6,1-0.6L430.45,110.85z"/>
<path fill-rule="evenodd" clip-rule="evenodd" fill="#98530E" d="M423.45,120.65c0.899-1.4,2.6-2.1,5.1-2.1
	c2.767,0,4.75,0.617,5.95,1.85c0.634,0.633,1.116,1.4,1.45,2.3c1.467,0.066,2.633,0.183,3.5,0.35c0.733,0.133,1.184,0.2,1.35,0.2
	c2.033,0,4.934-1.4,8.7-4.2c0-1.066-0.717-2.3-2.15-3.7c-1.466-1.4-2.199-2.5-2.199-3.3c0-1.033,0.933-0.483,2.8,1.65
	c1.866,2.1,2.8,3.9,2.8,5.4c0,0.466-1.25,1.466-3.75,3c-2.667,1.633-4.717,2.45-6.15,2.45c-3.966,0-6.35-0.783-7.149-2.35
	c-0.467-0.9-0.816-1.434-1.05-1.6c-0.601-0.5-1.684-0.75-3.25-0.75c-1.834,0-3.301,0.617-4.4,1.85c-1.167,1.233-2.25,1.85-3.25,1.85
	h-2.6c-0.534-0.167-0.801-0.45-0.801-0.85c0-0.1,0.034-0.25,0.101-0.45C420.917,122.483,422.583,121.95,423.45,120.65z"/>
<path fill-rule="evenodd" clip-rule="evenodd" fill="#98530E" d="M428.75,110.55l7.4-0.05l0.199-0.05l3.601-0.05l0.2-0.05h3.8
	c1.267,0.466,2,0.767,2.2,0.9c0.333,0.167,0.5,0.417,0.5,0.75c0,1-0.567,1.933-1.7,2.8c-1.634,1.233-2.767,2.3-3.4,3.2
	c-0.6,0.867-0.967,2.167-1.1,3.9c-0.101,1.367-0.351,2.05-0.75,2.05c-0.367,0-0.584-0.483-0.65-1.45c0-0.967,0-1.467,0-1.5
	c0-1.2,0.033-1.934,0.101-2.2c0.166-0.7,0.633-1.466,1.399-2.3c0.2-0.2,1.084-0.85,2.65-1.95c1.3-0.9,2.083-1.7,2.35-2.4
	c-0.733-0.433-1.3-0.683-1.7-0.75h-3.699l-0.2,0.05l-3.601,0.05l-0.199,0.05l-12.7,0.2c-0.601-0.167-0.983-0.25-1.15-0.25
	c-0.1,0-0.316,0.483-0.649,1.45c-0.434,1.3-0.717,2.1-0.851,2.4c-0.267,0.6-0.7,1.316-1.3,2.15c-0.3,0.4-0.45,0.933-0.45,1.6
	l0.5,3.3c0,0.367-0.2,0.55-0.6,0.55c-0.467,0-0.767-0.567-0.9-1.7c-0.066-1.133-0.1-1.717-0.1-1.75c0-1.133,0.1-1.934,0.3-2.4
	c0.033-0.1,0.55-1.034,1.55-2.8l1.25-2.65c0.2-0.6,0.4-1.017,0.601-1.25c0.267-0.333,0.55-0.4,0.85-0.2c0.5,0.3,0.85,0.466,1.05,0.5
	h2.9C426.583,110.667,427.35,110.617,428.75,110.55z"/>
<path fill-rule="evenodd" clip-rule="evenodd" fill="#98530E" d="M420.9,114.95c-0.233,0-0.4-0.117-0.5-0.35l-0.051-0.35
	c0-0.3,0.4-1.167,1.2-2.6c0.8-1.4,1.2-1.533,1.2-0.4C421.717,113.717,421.1,114.95,420.9,114.95z"/>
<path fill-rule="evenodd" clip-rule="evenodd" fill="#98530E" d="M419.45,117.2c0-0.267,0.133-0.384,0.399-0.35
	c0.233,0.033,0.934,0.15,2.101,0.35l5.5,0.05c0.5,0.033,2.35,0.1,5.55,0.2c2.134,0.1,3.417,0.2,3.85,0.3
	c0.5,0.133,1.034,0.25,1.601,0.35c0.333,0.1,0.5,0.25,0.5,0.45c0,0.267-0.217,0.4-0.65,0.4c-0.233,0-0.899-0.15-2-0.45
	c-1-0.267-2.517-0.35-4.55-0.25l-9.9-0.2C420.25,117.65,419.45,117.367,419.45,117.2z"/>
<path fill-rule="evenodd" clip-rule="evenodd" fill="#C56B12" d="M429.1,113.25H424.9l-1.351-0.2c-0.2,0.534-0.383,1-0.55,1.4
	c-0.3,0.8-0.684,1.2-1.15,1.2c-0.333,0-0.566-0.133-0.699-0.4l-0.101-0.45c0-0.267,0.233-0.9,0.7-1.9c0.5-1.1,0.9-1.65,1.2-1.65
	c0.633,0,1.416,0.133,2.35,0.4h3.45l1.4-0.2l8.35,0.3c1.267,0,2.55-0.184,3.85-0.55c1.434,0,2.351,0.1,2.75,0.3
	c0.233,0.133,0.351,0.4,0.351,0.8c0,0.6-0.566,1.4-1.7,2.4l-1.6,1.05c-0.9,0.6-1.567,0.9-2,0.9c-0.334,0-0.567-0.133-0.7-0.4
	l-0.101-0.45c0-0.4,0.4-0.917,1.2-1.55c0.467-0.333,1.134-0.8,2-1.4v-0.05c-0.666,0.167-1.184,0.284-1.55,0.35
	c-0.634,0.133-1.467,0.2-2.5,0.2c-1.3,0-2.783-0.083-4.45-0.25H430.4L429.1,113.25z"/>
<path fill-rule="evenodd" clip-rule="evenodd" fill="#C56B12" d="M422.05,116.2c-0.566,0.566-1.017,0.85-1.35,0.85
	c-0.566,0-0.851-0.267-0.851-0.8c0-0.333,0.5-0.9,1.5-1.7c1-0.767,1.5-0.633,1.5,0.4C422.85,115.217,422.583,115.633,422.05,116.2z"
	/>
<path fill-rule="evenodd" clip-rule="evenodd" fill="#C56B12" d="M420.7,117.25c-0.167-0.167-0.25-0.35-0.25-0.55
	c0-0.3,0.116-0.534,0.35-0.7c0.3-0.2,0.65-0.05,1.05,0.45l10.5,0.05l0.2-0.05h2.9c0.833,0.3,1.95,0.566,3.35,0.8
	c0.566,0.1,0.851,0.383,0.851,0.85c-0.601,2.167-1.067,3.25-1.4,3.25c-0.3,0-0.483-0.117-0.55-0.35c-0.033-0.2-0.05-0.317-0.05-0.35
	c0.366-1.433,0.566-2.167,0.6-2.2c-0.9-0.333-1.866-0.583-2.9-0.75H432.7l-0.25,0.05h-9.101c-1.066-0.267-1.816-0.4-2.25-0.4
	C420.934,117.383,420.8,117.35,420.7,117.25z"/>
<path fill-rule="evenodd" clip-rule="evenodd" fill="#C56B12" d="M439,118.45c-0.3,0-0.5-0.1-0.6-0.3l-0.051-0.3
	c0-0.367,0.517-1.083,1.551-2.15c1.033-1.067,1.55-1.034,1.55,0.1C440.217,117.566,439.4,118.45,439,118.45z"/>
<path fill-rule="evenodd" clip-rule="evenodd" fill="#C56B12" d="M420.55,117.75c0,0.1-0.1,0.35-0.3,0.75s-0.3,0.683-0.3,0.85
	c0,0.267,0.1,0.917,0.3,1.95v0.05c0.167-0.067,0.717-0.367,1.65-0.9c0.966-0.534,1.616-0.8,1.949-0.8
	c0.434,0,0.634,0.217,0.601,0.65c0,0.333-0.55,0.833-1.65,1.5c-1.166,0.7-2.116,1.05-2.85,1.05c-0.467,0-0.8-0.567-1-1.7
	c-0.134-1.133-0.2-1.717-0.2-1.75c0-0.733,0.3-1.383,0.9-1.95C420.25,116.917,420.55,117.017,420.55,117.75z"/>
<path fill-rule="evenodd" clip-rule="evenodd" fill="#C56B12" d="M424.2,121.6c-0.667,0.633-1.566,0.95-2.7,0.95
	c-0.767,0-1.15-0.2-1.15-0.6c0-0.333,0.317-0.517,0.95-0.55c0.867-0.1,1.584-0.383,2.15-0.85c1-0.833,1.5-0.9,1.5-0.2
	C424.95,120.717,424.7,121.133,424.2,121.6z"/>
<path fill-rule="evenodd" clip-rule="evenodd" fill="#C56B12" d="M422.45,119c-0.233,0.1-0.733,0.15-1.5,0.15l-0.2-0.05
	c0,0.167,0.033,0.633,0.1,1.4c-0.033,0.7-0.25,1.05-0.649,1.05c-0.3,0-0.517-0.466-0.65-1.4l-0.1-1.4c0-0.5,0.1-0.8,0.3-0.9
	c0.6-0.333,2.083-0.284,4.45,0.15h3.05c0.667-0.167,1.4-0.25,2.2-0.25c1.267-0.067,2.217-0.017,2.85,0.15
	c0.167,0,0.417-0.083,0.75-0.25c2.834,0,4.717,0.55,5.65,1.65c0.434,0.5,0.649,1.2,0.649,2.1v1c-0.166,0.567-0.633,0.85-1.399,0.85
	c-1.101,0-2.217-0.7-3.351-2.1c-1.166-1.433-2.55-2.15-4.149-2.15l-6.4,0.25L422.45,119z"/>
<path fill-rule="evenodd" clip-rule="evenodd" fill="#C56B12" d="M424.95,118.55c0.399-0.033,0.6,0.167,0.6,0.6
	c0,0.467-0.483,0.917-1.45,1.35c-1.199,0.667-2.083,1-2.649,1c-0.467,0.233-0.75,0.35-0.851,0.35c-0.399,0-0.649-0.267-0.75-0.8
	c0-0.5,0-0.767,0-0.8c0-0.567,0.017-0.867,0.051-0.9c0.199-0.367,0.816-0.55,1.85-0.55C422.316,118.8,423.384,118.717,424.95,118.55
	z"/>
<path fill-rule="evenodd" clip-rule="evenodd" fill="#C56B12" d="M436.65,121.95c0,0.133,0.133,0.366,0.399,0.7
	c0,0.4-0.2,0.6-0.6,0.6c-0.467,0-0.767-0.217-0.9-0.65l-0.1-0.65c0-0.567,0.233-0.967,0.7-1.2c0.466-0.233,0.699-0.067,0.699,0.5
	C436.85,121.417,436.783,121.65,436.65,121.95z"/>
<path fill-rule="evenodd" clip-rule="evenodd" fill="#C56B12" d="M436.15,122.85c-0.334,0-0.667-0.317-1-0.95l-0.4-0.9
	c0-0.867,0.333-0.967,1-0.3c0.667,0.7,1,1.2,1,1.5C436.75,122.633,436.55,122.85,436.15,122.85z"/>
<path fill-rule="evenodd" clip-rule="evenodd" fill="#C56B12" d="M428.35,112.85h2.7l1.7-0.2h7.1c2.2-0.4,3.301-0.233,3.301,0.5
	c0,0.633-0.601,1.45-1.801,2.45c-1.233,1.033-2.333,1.65-3.3,1.85h-3.2l-0.3-0.05l-9.3-0.05c-1.967-0.233-3.116-0.383-3.45-0.45
	c-0.566-0.167-0.85-0.467-0.85-0.9c0-0.767,0.649-1.4,1.95-1.9c-0.167-0.167-0.25-0.367-0.25-0.6c0-0.567,0.283-0.85,0.85-0.85
	c0.4,0,0.7,0.1,0.9,0.3h3.649L428.35,112.85z"/>
<path fill-rule="evenodd" clip-rule="evenodd" fill="#C56B12" d="M440.9,123.75c-0.4,0-0.65-0.184-0.75-0.55c0-0.367,0-0.567,0-0.6
	c0-0.833,0.3-2.083,0.899-3.75c0.267-0.833,0.834-1.6,1.7-2.3c0.467-0.367,0.967-0.75,1.5-1.15c0.6-0.933,1.116-1.533,1.55-1.8
	c0.5-0.367,0.967-0.317,1.4,0.15c0.133,0.2,0.35,0.617,0.649,1.25c0.167,0.533,0.534,1.2,1.101,2c0.467,0.667,0.7,1.25,0.7,1.75
	s-1.134,1.45-3.4,2.85C443.884,123.033,442.1,123.75,440.9,123.75z"/>
<path fill-rule="evenodd" clip-rule="evenodd" fill="#C56B12" d="M426.55,125c0-1.4,0.8-2.3,2.4-2.7c1.6-0.4,2.399,0.317,2.399,2.15
	c-0.1,1.8-1.033,2.7-2.8,2.7c-0.833,0-1.416-0.333-1.75-1C426.634,125.816,426.55,125.433,426.55,125z"/>
<path fill-rule="evenodd" clip-rule="evenodd" fill="#C56B12" d="M451.05,142.2c0,0.633-0.184,0.95-0.55,0.95
	c-0.467,0-0.733-0.25-0.8-0.75c0.033-0.533,0.033-0.85,0-0.95l-0.101-0.1c-3.533,2.066-6.449,3.433-8.75,4.1l-5.149,0.05
	c-3,0.233-4.95,0.417-5.851,0.55l-3.25,0.05l-0.25,0.05h-3.699c-1.134-0.3-1.884-0.517-2.25-0.65c-0.5-0.167-0.75-0.417-0.75-0.75
	c0-0.4,0.216-0.6,0.649-0.6c0.367,0,1.233,0.25,2.601,0.75h3.35l0.2-0.05l3.3-0.05c1.733-0.233,3.7-0.417,5.9-0.55l5-0.05
	c2.366-0.6,5.199-1.95,8.5-4.05c0.767-0.5,1.267-0.65,1.5-0.45C450.917,139.933,451.05,140.767,451.05,142.2z"/>
<path fill-rule="evenodd" clip-rule="evenodd" fill="#C56B12" d="M450.25,140.95c0.4-0.034,0.6,0.233,0.6,0.8
	c0,0.967-1.166,2.117-3.5,3.45c-3.033,1.533-5.233,2.65-6.6,3.35l-3.35,0.05l-5.5,0.65c-6,0-9.801-0.533-11.4-1.6
	c-0.5-0.333-0.75-1.017-0.75-2.05c0-0.567,0.2-0.85,0.6-0.85c0.301,0,0.5,0.2,0.601,0.6l0.35,1.15c0.533,1.1,1.967,1.433,4.3,1
	h3.051c1.333-0.167,3.55-0.35,6.649-0.55c2.634-0.233,4.3-0.65,5-1.25c0.533-0.467,1.15-0.85,1.851-1.15
	c0.233-0.133,0.899-0.383,2-0.75c0.5-0.2,1.216-0.483,2.149-0.85c0.767-0.3,1.351-0.583,1.75-0.85
	C449.083,141.367,449.816,140.983,450.25,140.95z"/>
<path fill-rule="evenodd" clip-rule="evenodd" fill="#C56B12" d="M442.35,145.3c0,0.267-0.149,0.467-0.449,0.6
	c-0.334,0.1-1.2,0.267-2.601,0.5c0.101,0.567-0.483,0.95-1.75,1.15c-2,0.2-3.7,0.4-5.1,0.6h-6.9c-1.733-0.1-2.85-0.233-3.35-0.4
	l-0.65-0.55c-0.267-0.267-0.566-0.467-0.899-0.6c-0.2-0.067-0.301-0.2-0.301-0.4c0-0.434,0.2-0.65,0.601-0.65l2.149,0.25l5.25-0.2
	c0.733,0,3.75-0.267,9.051-0.8C440.7,144.5,442.35,144.667,442.35,145.3z"/>
<path fill-rule="evenodd" clip-rule="evenodd" fill="#98530E" d="M439.15,117.95c0,0.367-0.167,0.55-0.5,0.55
	c-0.301,0-0.634-0.067-1-0.2c-0.534-0.2-0.834-0.316-0.9-0.35h-3.6l-0.2,0.05l-9,0.2c-3.2-0.2-4.8-0.583-4.8-1.15
	c0-0.4,0.316-0.517,0.949-0.35c1.567,0.367,2.884,0.583,3.95,0.65l8.7-0.2l0.2-0.05h4c0.866,0.2,1.467,0.3,1.8,0.3
	C439.116,117.4,439.25,117.583,439.15,117.95z"/>
<path fill-rule="evenodd" clip-rule="evenodd" fill="#98530E" d="M419.35,120.35c0,0.533,0.284,0.983,0.851,1.35
	c0.566,0.4,1.283,0.6,2.149,0.6c0.267,0,0.4,0.167,0.4,0.5c0,0.233-0.033,0.367-0.1,0.4c-0.167,0.066-0.634,0.1-1.4,0.1
	c-1.233,0-2.1-0.583-2.6-1.75c-0.267-0.633-0.4-1.3-0.4-2c0-0.433,0.217-0.917,0.65-1.45c0.433-0.533,0.649-0.367,0.649,0.5
	L419.35,120.35z"/>
<path fill-rule="evenodd" clip-rule="evenodd" fill="#98530E" d="M440.8,121c0,0.2,0.334,0.65,1,1.35c0.634,0.7,0.95,1.066,0.95,1.1
	c0,0.5-0.583,0.75-1.75,0.75c-0.566,0-0.983-0.317-1.25-0.95l-0.2-1c0-0.4,0.134-0.617,0.4-0.65c-0.3-1.067-0.2-1.75,0.3-2.05
	c0.533-0.333,0.8-0.15,0.8,0.55C441.05,120.267,440.967,120.567,440.8,121z"/>
<path fill-rule="evenodd" clip-rule="evenodd" fill="#98530E" d="M421.8,113.5c-0.399,0.833-0.7,1.417-0.899,1.75
	c-0.233,0.367-0.5,0.9-0.801,1.6c-0.333,0.733-0.616,1.283-0.85,1.65l-0.35-0.1l-0.051-0.65c2.334-5.767,3.5-7.7,3.5-5.8
	C422.35,112.117,422.167,112.633,421.8,113.5z"/>
<path fill-rule="evenodd" clip-rule="evenodd" fill="#98530E" d="M420.7,146.6c0.3,0.367,0.583,0.633,0.85,0.8
	c0.167,0.1,3,0.45,8.5,1.05h3c1.2-0.3,3.867-0.517,8-0.65c0.334,0,0.5,0.133,0.5,0.4c0,0.3-0.35,0.483-1.05,0.55
	c-2.066,0.133-4.517,0.317-7.35,0.55h-3.2c-4.7,0.2-7.851-0.35-9.45-1.65c-0.767-0.6-1.15-1.467-1.15-2.6
	c0-0.466,0.017-0.75,0.051-0.85c0.1-0.434,0.35-0.434,0.75,0c0,0.867,0.033,1.417,0.1,1.65
	C420.283,146.017,420.434,146.267,420.7,146.6z"/>
<path fill-rule="evenodd" clip-rule="evenodd" fill="#98530E" d="M421.85,147.7c-1,0-1.699-0.5-2.1-1.5c-0.2-0.5-0.3-1.067-0.3-1.7
	s0.1-0.933,0.3-0.9c0.233,0,0.467,0.45,0.7,1.35c0.434,0.633,0.866,1.216,1.3,1.75c0.333,0.367,0.5,0.566,0.5,0.6
	C422.25,147.567,422.116,147.7,421.85,147.7z"/>
<path fill-rule="evenodd" clip-rule="evenodd" fill="#98530E" d="M422.75,144.25l4.7,0.1c0.733,0,3.5-0.217,8.3-0.65l3.3-0.05
	c1.7-0.233,3.101-0.65,4.2-1.25c1.7-0.867,2.616-1.333,2.75-1.4c0.467-0.3,1.35-0.717,2.65-1.25c1.666-0.7,2.5-0.817,2.5-0.35
	c0,0.5-1.684,1.45-5.051,2.85c-1.133,0.533-2,0.917-2.6,1.15c-1.066,0.434-2.517,0.8-4.35,1.1l-13,0.7l-0.2-0.05l-3.3-0.05
	c-0.801-0.133-1.551-0.333-2.25-0.6c-0.7-0.3-1.051-0.55-1.051-0.75c0-0.233,0.167-0.35,0.5-0.35
	C420.184,143.4,421.15,143.683,422.75,144.25z"/>
<path fill-rule="evenodd" clip-rule="evenodd" fill="#98530E" d="M451.25,142.05c-0.3,1.034-0.866,1.833-1.7,2.4
	c-1.5,0.8-2.8,1.5-3.899,2.1c-2.334,1.434-3.75,2.15-4.25,2.15c-0.367,0-0.551-0.15-0.551-0.45s1.351-1.133,4.051-2.5
	c2.899-1.5,4.383-2.267,4.449-2.3c0.534-0.467,0.851-0.95,0.95-1.45c0.066-0.5,0.15-0.867,0.25-1.1c0-0.833,0.184-1.483,0.55-1.95
	c0.367-0.467,0.551-0.267,0.551,0.6C451.65,140.083,451.517,140.917,451.25,142.05z"/>
<path fill-rule="evenodd" clip-rule="evenodd" fill="#98530E" d="M443.6,146.3c0.301,0,0.45,0.133,0.45,0.4
	c0,0.2-0.133,0.4-0.399,0.6c-0.434,0.3-1.067,0.4-1.9,0.3c0.167,0.8,0,1.2-0.5,1.2c-0.6,0-0.9-0.2-0.9-0.6
	c0.267-0.633,0.4-1.2,0.4-1.7c-0.2-1.5-0.3-2.267-0.3-2.3c0-0.967,0.399-0.867,1.2,0.3c0.399,0.567,0.8,1.233,1.199,2
	C443.017,146.5,443.267,146.433,443.6,146.3z"/>
<path fill-rule="evenodd" clip-rule="evenodd" fill="#98530E" d="M425.55,148.7c-2.2-0.567-3.6-1.067-4.2-1.5
	c-0.633-0.434-1-0.8-1.1-1.1c-0.066-0.133-0.1-0.45-0.1-0.95c0-0.8,0.133-1.167,0.399-1.1c0.3,0.1,0.684,0.667,1.15,1.7
	c0.2,0.233,1,0.667,2.399,1.3c1.233,0.534,1.851,0.95,1.851,1.25C425.95,148.567,425.816,148.7,425.55,148.7z"/>
<path fill-rule="evenodd" clip-rule="evenodd" fill="#98530E" d="M427.05,119.4c-0.566,0.567-1.133,1.184-1.7,1.85
	c-1.133,1.3-1.699,2.333-1.699,3.1c0,0.8,0.35,1.816,1.05,3.05c1.066,1.9,2.583,2.85,4.55,2.85c2.5,0,4.184-0.833,5.05-2.5
	c0.434-0.833,0.617-1.717,0.55-2.65c-0.199-1.333-0.3-2.017-0.3-2.05c0-0.3,0.15-0.45,0.45-0.45c0.566,0,0.783,0.816,0.65,2.45
	c0,1.333-0.217,2.417-0.65,3.25c-0.967,1.867-2.866,2.8-5.7,2.8c-2.166,0-3.85-0.833-5.05-2.5c-0.934-1.3-1.4-2.7-1.4-4.2
	c0-1.333,0.7-2.7,2.101-4.1C426.35,118.9,427.05,118.6,427.05,119.4z"/>
<path fill-rule="evenodd" clip-rule="evenodd" fill="#333333" d="M427.9,126.6c1.1-0.033,1.916-0.35,2.449-0.95
	c0.334-0.367,0.5-0.75,0.5-1.15c0-0.167-0.083-0.483-0.25-0.95c-0.199-0.533-0.416-0.867-0.649-1c-0.9-0.267-1.634,0.017-2.2,0.85
	c-0.4,0.6-0.6,1.133-0.6,1.6C427.15,125.667,427.4,126.2,427.9,126.6z M426.35,124.95c0-1.967,0.884-3.083,2.65-3.35
	c1.767-0.3,2.65,0.65,2.65,2.85c0,0.533-0.167,1.066-0.5,1.6c-0.567,0.9-1.45,1.35-2.65,1.35c-0.967,0-1.616-0.4-1.95-1.2
	C426.417,125.4,426.35,124.983,426.35,124.95z"/>
<path fill-rule="evenodd" clip-rule="evenodd" fill="#333333" d="M419.15,122.6v8c0.166,1.1,0.3,2.683,0.399,4.75v5.3
	c0.2,0.333,0.3,1.017,0.3,2.05c0,0.933-0.116,1.4-0.35,1.4c-0.066,0-0.2-0.033-0.4-0.1c-0.066-1.3-0.183-2.333-0.35-3.1v-5.25
	c-0.233-3.1-0.366-4.783-0.4-5.05c0-0.2,0-1.5,0-3.9C418.35,122.9,418.616,121.533,419.15,122.6z"/>
<path fill-rule="evenodd" clip-rule="evenodd" fill="#333333" d="M441.55,129.35l0.5,12.75c0,0.633,0,0.983,0,1.05
	c-0.066,0.5-0.25,0.75-0.55,0.75c-0.066,0-0.2-0.033-0.4-0.1l-0.05-0.4l0.2-1.25c0-0.4-0.066-1.617-0.2-3.65
	c-0.133-1.933-0.233-3.15-0.3-3.65l-0.2-9c0-0.667,0.134-1.283,0.4-1.85c0.267-0.6,0.399-0.117,0.399,1.45
	C441.35,126.317,441.417,127.617,441.55,129.35z"/>
<path fill-rule="evenodd" clip-rule="evenodd" fill="#333333" d="M450.05,121.15c0.033-0.767,0.184-1.5,0.45-2.2
	c0.3-0.7,0.45-0.4,0.45,0.9c0,1.133-0.101,2.783-0.3,4.95l0.6,13.4c0,0.5-0.134,0.833-0.4,1l-0.35-0.1
	c-0.267-4.033-0.417-6.133-0.45-6.3V121.15z"/>
<path fill-rule="evenodd" clip-rule="evenodd" fill="#333333" d="M425.85,133.25c0.301-0.1,1.2-0.1,2.7,0
	c0.3-0.3,0.684-0.45,1.15-0.45c0.3,0,0.583,0.133,0.85,0.4c0.267,0.267,0.483,0.4,0.65,0.4c0.066,0,0.267-0.117,0.6-0.35
	c0.434-0.233,0.917-0.35,1.45-0.35c0.167,0,0.417,0.067,0.75,0.2c0.4,0,0.667-0.067,0.8-0.2c0.134-0.133,0.434-0.2,0.9-0.2
	c0.833,0,1.316,0.4,1.45,1.2c0,0.267-0.134,0.4-0.4,0.4c-0.167,0-0.316-0.117-0.45-0.35c-0.133-0.267-0.35-0.4-0.649-0.4l-2.45,0.2
	c-0.566,0-0.983,0.117-1.25,0.35c-0.233,0.2-0.45,0.3-0.65,0.3c-0.3,0-0.649-0.117-1.05-0.35l-0.6-0.4c-0.101,0-0.25,0.1-0.45,0.3
	c-0.2,0.167-0.75,0.216-1.65,0.15c-0.7-0.067-1.267-0.05-1.7,0.05c-0.5,0.1-0.916,0.15-1.25,0.15c-1.033,0-1.649-0.4-1.85-1.2
	c0-0.467,0.217-0.55,0.65-0.25c0.233,0.167,0.5,0.383,0.8,0.65C424.667,133.467,425.217,133.383,425.85,133.25z"/>
<path fill-rule="evenodd" clip-rule="evenodd" fill="#333333" d="M433.85,138.25c-0.267,0.1-0.533,0.15-0.8,0.15
	c-0.399,0-0.75-0.066-1.05-0.2c-0.333-0.167-0.717-0.25-1.15-0.25c-0.666,0-1.133,0.133-1.399,0.4c-0.233,0.233-0.55,0.35-0.95,0.35
	c-0.434,0-0.866-0.15-1.3-0.45c-0.334-0.267-1.084-0.317-2.25-0.15h-2.4c-0.267-0.1-0.399-0.25-0.399-0.45
	c0-0.167,0.133-0.283,0.399-0.35l2.5-0.05c0.834-0.267,1.533-0.25,2.101,0.05c0.733,0.367,1.183,0.55,1.35,0.55
	c0.066,0,0.366-0.117,0.9-0.35c0.533-0.267,1.017-0.4,1.449-0.4c0.667,0,1.101,0.083,1.301,0.25c0.166,0.167,0.35,0.25,0.55,0.25
	c0.633,0,1.033-0.067,1.2-0.2c0.166-0.133,0.466-0.2,0.899-0.2c0.3,0,0.584,0.066,0.851,0.2c0.3,0.1,0.733,0.167,1.3,0.2
	c0.267,0.066,0.399,0.2,0.399,0.4c0,0.267-0.25,0.4-0.75,0.4c-0.366,0-0.716-0.05-1.05-0.15c-0.3-0.133-0.566-0.2-0.8-0.2
	C434.417,138.05,434.116,138.117,433.85,138.25z"/>
<path fill-rule="evenodd" clip-rule="evenodd" fill="#333333" d="M434.85,140.8c0.167,0.2,0.284,0.3,0.351,0.3
	c0.133,0,0.35-0.083,0.649-0.25c0.301-0.167,0.601-0.25,0.9-0.25c0.7,0,1.267,0.267,1.7,0.8c0,0.267-0.167,0.4-0.5,0.4
	c-0.267,0-0.434-0.033-0.5-0.1c-0.134-0.133-0.233-0.217-0.3-0.25h-0.801c-0.233,0.3-0.583,0.45-1.05,0.45
	c-0.366,0-0.616-0.066-0.75-0.2c-0.233-0.2-0.366-0.317-0.399-0.35h-0.7c-0.334,0.167-0.617,0.316-0.851,0.45
	c-0.433,0.2-0.85,0.3-1.25,0.3c-0.767,0-1.333-0.117-1.699-0.35c-0.367-0.267-0.834-0.4-1.4-0.4c-0.767,0-1.35,0.1-1.75,0.3
	c-0.4,0.167-0.9,0.25-1.5,0.25c-1.467,0-2.583-0.583-3.35-1.75c0-0.4,0.316-0.4,0.949,0c0.934,0.6,1.733,0.9,2.4,0.9
	c0.733,0,1.333-0.083,1.8-0.25c0.467-0.2,0.95-0.3,1.45-0.3c0.6,0,1.134,0.133,1.6,0.4c0.467,0.233,0.934,0.35,1.4,0.35
	c0.366,0,0.833-0.117,1.4-0.35c0.566-0.267,0.966-0.4,1.199-0.4C434.384,140.5,434.717,140.6,434.85,140.8z"/>
<path fill-rule="evenodd" clip-rule="evenodd" fill="#333333" d="M432.15,144.15c1-0.1,3.033-0.45,6.1-1.05
	c2.533-0.4,3.8-0.417,3.8-0.05c0,0.267-1.217,0.6-3.649,1c-3,0.434-5.051,0.75-6.15,0.95h-2.9c-4.366-0.267-7.1-0.483-8.199-0.65
	c-1.067-0.167-1.601-0.434-1.601-0.8c0-0.3,0.134-0.45,0.4-0.45l2.6,0.55L432.15,144.15z"/>
<path fill-rule="evenodd" clip-rule="evenodd" fill="#333333" d="M446.6,141c-0.1,0.033-0.883,0.5-2.35,1.4
	c-1.333,0.8-2.116,1.2-2.35,1.2c-0.367,0-0.551-0.15-0.551-0.45c0-0.1,0.617-0.533,1.851-1.3c1.1-0.633,2.066-1.167,2.899-1.6
	c0.5-0.333,1.367-0.767,2.601-1.3c1.566-0.667,2.35-0.784,2.35-0.35C451.05,139.133,449.566,139.933,446.6,141z"/>
<path fill-rule="evenodd" clip-rule="evenodd" fill="#333333" d="M447.4,122.45c-2.4,1.566-4.483,2.35-6.25,2.35
	c-0.334,0-0.5-0.15-0.5-0.45c0-0.1,2.033-0.95,6.1-2.55c0.3-0.133,1.066-0.767,2.3-1.9c1.066-0.867,1.601-0.983,1.601-0.35
	C450.65,120.05,449.566,121.017,447.4,122.45z"/>
<path fill-rule="evenodd" clip-rule="evenodd" fill="#333333" d="M441.05,123.6c0.267,0.066,0.4,0.2,0.4,0.4
	c0,0.1-0.084,0.233-0.25,0.4l-5.75-0.1c-0.267-0.1-0.4-0.25-0.4-0.45c0-0.167,0.101-0.267,0.3-0.3c0.2-0.033,0.7-0.033,1.5,0
	L441.05,123.6z"/>
<path fill-rule="evenodd" clip-rule="evenodd" fill="#333333" d="M423.15,124.65c0,1.067,0.316,2.117,0.949,3.15
	c1.134,1.833,3,2.75,5.601,2.75c3.233,0,5.033-1.183,5.399-3.55c0.034-0.1,0.084-0.933,0.15-2.5c0.033-0.733,0.233-1.1,0.6-1.1
	c0.334,0,0.467,0.283,0.4,0.85c0,1.8-0.184,3.117-0.55,3.95c-0.967,2.133-2.983,3.2-6.05,3.2c-2.301,0-4.217-0.883-5.75-2.65
	c-1.5-1.733-2.017-3.433-1.551-5.1l-0.699-0.1l-2.601-0.05c-0.267-0.1-0.399-0.25-0.399-0.45c0.1-0.167,0.233-0.283,0.399-0.35h2.8
	l1,0.1c0.467,0.333,0.667,0.617,0.601,0.85C423.25,124.283,423.15,124.617,423.15,124.65z"/>
<path fill-rule="evenodd" clip-rule="evenodd" fill="#333333" d="M430.1,119.05c-2.5,0-4.35,0.717-5.55,2.15
	c-0.6,0.7-1.166,1.4-1.7,2.1c-0.333,0-0.5-0.15-0.5-0.45c0-0.667,0.851-1.7,2.551-3.1c2.133-1.767,4.416-2.217,6.85-1.35
	c1.233,0.434,2.333,1.283,3.3,2.55c0.8,1.1,1.2,1.95,1.2,2.55c0,0.267-0.134,0.4-0.4,0.4c-0.433-0.8-0.933-1.6-1.5-2.4
	C433.184,119.867,431.767,119.05,430.1,119.05z"/>
<path fill-rule="evenodd" clip-rule="evenodd" fill="#98530E" d="M435.05,122.95c0.367,0,0.55,0.483,0.55,1.45
	c0,2.5-0.383,3.75-1.149,3.75c-0.167,0-0.25-0.083-0.25-0.25c0.3-0.3,0.45-0.566,0.45-0.8c0.1-0.467,0.149-0.833,0.149-1.1
	c0-0.333,0.066-0.55,0.2-0.65c0.134-0.133,0.2-0.317,0.2-0.55l-0.05-0.65l-0.2,0.1l-0.9-1.7c0-0.4,0.101-0.466,0.3-0.2
	c0.101,0.133,0.267,0.4,0.5,0.8C434.85,123.017,434.917,122.95,435.05,122.95z"/>
<path fill-rule="evenodd" clip-rule="evenodd" fill="#98530E" d="M423.75,122.8l-0.3,1.5l0.1,0.95c-0.066,0.133-0.133,0.2-0.2,0.2
	c-0.166,0-0.267-0.2-0.3-0.6c0-0.4,0-0.617,0-0.65c0-0.367,0.017-0.65,0.05-0.85c0.067-0.5,0.2-0.75,0.4-0.75
	C423.667,122.6,423.75,122.667,423.75,122.8z"/>
<path fill-rule="evenodd" clip-rule="evenodd" fill="#333333" d="M433.15,109.75l0.199-0.05h2.601l0.2,0.05l3.199,0.05
	c0.267,0.067,1.617,0.15,4.051,0.25c2.399,0.267,3.85,0.817,4.35,1.65l1.4,2.2c0.433,0.667,0.933,1.417,1.5,2.25
	c0.333,0.633,0.5,1.333,0.5,2.1c-0.101,0.833-0.25,1.25-0.45,1.25c-0.601,0-1.367-1.517-2.3-4.55c-0.167-0.6-0.634-1.367-1.4-2.3
	c-0.634-0.767-0.983-1.167-1.05-1.2c-0.9-0.367-3.134-0.633-6.7-0.8l-3.2-0.05c-0.1-0.033-0.55-0.05-1.35-0.05
	s-1.25,0.017-1.351,0.05h-7.899l-2.601-0.25h-1c-0.566,1.2-1.133,2.433-1.699,3.7c-1.134,2.5-1.7,3.983-1.7,4.45
	c0,0.7,0.233,2.283,0.7,4.75c0,0.833-0.134,1.25-0.4,1.25c-0.467,0-0.833-2-1.1-6c0-1,0.083-1.667,0.25-2
	c0.533-1.033,0.933-1.95,1.199-2.75c0.233-0.767,0.601-1.567,1.101-2.4c0.633-1.067,1.25-1.65,1.85-1.75
	c0.267-0.067,1.467-0.017,3.601,0.15H433.15z"/>
<path fill-rule="evenodd" clip-rule="evenodd" fill="#333333" d="M419.25,143.9c0.033-0.467,0.2-0.7,0.5-0.7
	c0.434,0,0.533,0.483,0.3,1.45c0,1.033,0.316,1.833,0.95,2.4c1,0.9,2.95,1.467,5.85,1.7h6.5c4.667-0.233,7.684-0.65,9.051-1.25
	c0.8-0.333,1.983-0.9,3.55-1.7c0.333-0.1,1.35-0.8,3.05-2.1c1.3-0.967,1.95-1.133,1.95-0.5c0,0.6-1.684,1.783-5.05,3.55
	c-1.434,0.767-2.551,1.317-3.351,1.65c-1.434,0.6-4.467,1-9.1,1.2h-6.601c-3.233-0.133-5.449-0.817-6.649-2.05
	c-0.634-0.7-0.95-1.65-0.95-2.85C419.217,144.4,419.217,144.133,419.25,143.9z"/>
<path fill-rule="evenodd" clip-rule="evenodd" fill="#333333" d="M451.35,124.3v8.7c0.067,0.4,0.184,1.55,0.351,3.45
	c0.166,1.833,0.25,2.933,0.25,3.3c-0.467,2.9-1.117,4.35-1.95,4.35c-0.066,0-0.2-0.033-0.4-0.1l-0.05-0.35
	c0-0.267,0.167-0.633,0.5-1.1c0.367-0.5,0.566-1.367,0.601-2.6c0.199-1.633,0.3-2.833,0.3-3.6c0-0.733-0.017-1.167-0.05-1.3
	c-0.067-0.4-0.184-1-0.351-1.8v-8.7c-0.333-2.1-0.5-3.75-0.5-4.95c0-0.3,0.084-0.5,0.25-0.6c0.167-0.1,0.384,0.15,0.65,0.75
	L451.35,124.3z"/>
<path fill-rule="evenodd" clip-rule="evenodd" fill="#333333" d="M428.7,110.65c0,0.167-0.084,0.25-0.25,0.25
	c-0.101,0-0.15-0.033-0.15-0.1h-2.85c-0.9-0.233-1.934-0.35-3.101-0.35l-0.899,0.4c-0.134,0-0.2-0.083-0.2-0.25
	c0-0.1,0.233-0.25,0.7-0.45c0.533-0.2,0.983-0.283,1.35-0.25c0.434,0.2,1.2,0.367,2.3,0.5h2.9
	C428.634,110.5,428.7,110.583,428.7,110.65z"/>
<path fill-rule="evenodd" clip-rule="evenodd" fill="#333333" d="M448.5,114.1c-0.634-0.7-1.083-1.133-1.35-1.3
	c-0.767-0.6-1.15-1.066-1.15-1.4c0-0.333,0.167-0.316,0.5,0.05c0.167,0.2,0.417,0.5,0.75,0.9c0.033,0.033,0.283,0.233,0.75,0.6
	c0.467,0.4,0.7,0.7,0.7,0.9C448.7,114.017,448.634,114.1,448.5,114.1z"/>
<path fill-rule="evenodd" clip-rule="evenodd" fill="#FCECDC" d="M429.6,120.95c-1.6-0.133-2.399,0.1-2.399,0.7
	c0,0.233-0.367,0.65-1.101,1.25c-0.733,0.567-1.1,1.25-1.1,2.05l1.1,2.2c0.334,0.633,0.617,1.033,0.851,1.2
	c0.5,0.4,1.366,0.6,2.6,0.6c2.867,0,4.3-1.167,4.3-3.5c0-1.333-0.383-2.467-1.149-3.4C432.233,121.45,431.2,121.083,429.6,120.95z
	 M423.65,124.3c0-0.8,0.466-1.716,1.399-2.75c1.2-1.367,2.684-2.05,4.45-2.05c3.733,0,5.6,2,5.6,6c0,2.3-1.149,3.75-3.449,4.35
	c-1.167,0.333-2.334,0.433-3.5,0.3c-1.392-0.268-2.525-1.168-3.4-2.7C424.017,126.183,423.65,125.133,423.65,124.3z"/>
<path fill-rule="evenodd" clip-rule="evenodd" fill="#FCECDC" d="M432.2,122c0.2,0.433,0.267,0.9,0.2,1.4l0.199,1.5
	c0,0.633-0.316,1.333-0.949,2.1c-0.867,1.033-2.084,1.55-3.65,1.55c-0.934,0-2.083-0.9-3.45-2.7c0-1.5,0.634-2.767,1.9-3.8
	c1.1-0.9,2.217-1.35,3.35-1.35C431,120.7,431.8,121.133,432.2,122z M427.05,126.7c0.2,0.3,0.384,0.483,0.55,0.55h0.9
	c1.267-0.567,2.017-0.933,2.25-1.1c0.4-0.3,0.6-0.717,0.6-1.25c0-2.467-0.767-3.45-2.3-2.95c-1.533,0.466-2.3,1.85-2.3,4.15
	C426.75,126.233,426.85,126.433,427.05,126.7z"/>
<path fill-rule="evenodd" clip-rule="evenodd" fill="#FCECDC" d="M432.25,121.05c0.767,0.367,1.233,0.833,1.4,1.4
	c0.1,0.4,0.149,0.883,0.149,1.45c0,0.233,0.101,0.467,0.3,0.7c0.2,0.2,0.301,0.4,0.301,0.6c0,0.833-0.45,1.733-1.351,2.7
	c-1.2,1.233-2.767,1.85-4.7,1.85c-0.333,0-0.75-0.317-1.25-0.95c-0.433-0.566-0.649-0.9-0.649-1c0-0.4,0.217-0.6,0.649-0.6l2.65,0.4
	c0.667,0,1.517-0.7,2.55-2.1c-0.066-0.4-0.066-0.833,0-1.3c0.101-0.6,0.15-0.967,0.15-1.1c0-0.4-0.367-0.75-1.101-1.05
	c-0.633-0.267-1.233-0.4-1.8-0.4c-0.866,0-1.5,0.184-1.899,0.55c-0.4,0.367-0.667,0.55-0.801,0.55c-0.3,0-0.483-0.1-0.55-0.3
	c-0.033-0.067-0.05-0.184-0.05-0.35c0-0.233,0.233-0.55,0.7-0.95c0.6-0.5,1.283-0.75,2.05-0.75
	C430.267,120.4,431.35,120.617,432.25,121.05z"/>
<path fill-rule="evenodd" clip-rule="evenodd" fill="#FCECDC" d="M429.75,128.25c0.033-0.1,0.167-0.233,0.4-0.4
	c0.333-0.3,0.716-0.383,1.149-0.25c0.434,0.1,0.834,0.017,1.2-0.25c0.934-0.767,1.4-0.7,1.4,0.2c0,0.3-0.351,0.667-1.051,1.1
	c-0.8,0.467-1.633,0.7-2.5,0.7c-0.3,0-0.483-0.117-0.55-0.35l-0.05-0.4V128.25z"/>
<path fill-rule="evenodd" clip-rule="evenodd" fill="#FCECDC" d="M421.9,123.25c0.366,0,0.55,0.2,0.55,0.6
	c0,0.133-0.05,0.367-0.15,0.7c-0.133,0.3-0.2,0.534-0.2,0.7c0,0.133,0.117,0.4,0.351,0.8c0.233,0.434,0.35,0.75,0.35,0.95
	c0,0.4-0.184,0.6-0.55,0.6c-0.2,0-0.45-0.367-0.75-1.1c-0.267-0.667-0.4-1.1-0.4-1.3c0-0.434,0.051-0.7,0.15-0.8l-1.2,0.05
	c-0.899,0-1.35-0.217-1.35-0.65c0-0.367,0.184-0.55,0.55-0.55l0.4,0.2h0.899C421.083,123.417,421.533,123.35,421.9,123.25z"/>
<path fill-rule="evenodd" clip-rule="evenodd" fill="#FCECDC" d="M422.5,128.4c-0.467,0-0.9-1.25-1.3-3.75
	c0-0.233,0.1-0.383,0.3-0.45c0.233-0.1,0.467-0.017,0.7,0.25l0.25,1.2c0.066,0.5,0.25,1.25,0.55,2.25
	C423,128.233,422.833,128.4,422.5,128.4z"/>
<path fill-rule="evenodd" clip-rule="evenodd" fill="#FCECDC" d="M419.9,126c0.166,0.8,0,1.2-0.5,1.2c-0.301,0-0.467-0.184-0.5-0.55
	c0-0.4,0-0.65,0-0.75l0.1-1.5c0.3-0.5,0.55-0.667,0.75-0.5c0.167,0.1,0.25,0.317,0.25,0.65L419.9,126z"/>
<path fill-rule="evenodd" clip-rule="evenodd" fill="#FCECDC" d="M419.6,127.65c-0.399,0-0.649-1.017-0.75-3.05
	c0-0.7,0.15-1.05,0.45-1.05c0.367-0.033,0.566,0.1,0.601,0.4c0.033,0.167,0.017,0.4-0.051,0.7c0,0.4,0.084,1.233,0.25,2.5
	C420.1,127.483,419.934,127.65,419.6,127.65z"/>
<path fill-rule="evenodd" clip-rule="evenodd" fill="#FCECDC" d="M420.05,128.2c0.167,1.367-0.033,2.05-0.6,2.05
	c-0.334,0-0.5-0.217-0.5-0.65c0.1-1.267,0.149-2.184,0.149-2.75c-0.066-0.6-0.033-1.05,0.101-1.35c0.166-0.467,0.366-0.6,0.6-0.4
	c0.233,0.2,0.351,0.45,0.351,0.75L420.05,128.2z"/>
<path fill-rule="evenodd" clip-rule="evenodd" fill="#FCECDC" d="M420.05,130.15c-0.066,0.9-0.267,1.35-0.6,1.35
	c-0.334,0-0.5-0.2-0.5-0.6l0.1-0.45v-3.85c0.5-0.7,0.816-0.617,0.95,0.25c0.033,0.267,0.05,0.833,0.05,1.7
	C420.05,128.65,420.05,129.183,420.05,130.15z"/>
<path fill-rule="evenodd" clip-rule="evenodd" fill="#FCECDC" d="M419.9,134.5c-0.467,0-0.7-0.783-0.7-2.35
	c-0.134-1.1-0.2-1.933-0.2-2.5c0-0.267,0.134-0.483,0.4-0.65c0.3-0.167,0.5,0,0.6,0.5l0.1,1.35c0.034,0.3,0.101,0.8,0.2,1.5
	c0.066,0.4,0.101,0.833,0.101,1.3C420.4,134.217,420.233,134.5,419.9,134.5z"/>
<path fill-rule="evenodd" clip-rule="evenodd" fill="#FCECDC" d="M420.15,138c-0.4,0-0.617-0.233-0.65-0.7
	c0.066-0.466,0.1-0.75,0.1-0.85l-0.1-1.7c0-0.6,0.017-0.967,0.05-1.1c0.134-0.433,0.45-0.433,0.95,0l0.2,3.85
	C420.7,137.833,420.517,138,420.15,138z"/>
<path fill-rule="evenodd" clip-rule="evenodd" fill="#FCECDC" d="M420.45,137.7c-0.066,0.7-0.233,1.05-0.5,1.05
	c-0.467,0-0.634-0.783-0.5-2.35c-0.101-1.333,0.05-2.117,0.45-2.35c0.366-0.233,0.566,0.067,0.6,0.9
	c0.033,0.433,0.017,0.917-0.05,1.45C420.45,137.2,420.45,137.633,420.45,137.7z"/>
<path fill-rule="evenodd" clip-rule="evenodd" fill="#FCECDC" d="M420.95,123.8c0.399,0,0.649,0.284,0.75,0.85
	c0.033,0.267,0.05,0.55,0.05,0.85c0.233,0.433,0.6,0.983,1.1,1.65c0.101,0.133,0.517,0.733,1.25,1.8c0.733,1,1.101,1.566,1.101,1.7
	c0,0.367-0.184,0.55-0.55,0.55c-0.233,0-0.567-0.317-1-0.95c-0.4-0.667-0.617-1.017-0.65-1.05c-0.066,0.267-0.233,0.4-0.5,0.4
	c-0.066,0-0.167-0.033-0.3-0.1c-0.101,0.333-0.184,0.5-0.25,0.5c-0.167-0.033-0.351-0.05-0.55-0.05c-0.134,0-0.267,0.033-0.4,0.1
	c-0.134,0.067-0.233,0.1-0.3,0.1c-0.5,0-0.75-0.983-0.75-2.95l-0.101-0.75C419.85,124.683,420.217,123.8,420.95,123.8z"/>
<path fill-rule="evenodd" clip-rule="evenodd" fill="#FCECDC" d="M424.95,129.3c0.733,0.767,1.116,1.167,1.149,1.2
	c0.067,0.033,0.717,0.183,1.95,0.45c1,0.233,1.5,0.483,1.5,0.75c0,0.367-0.2,0.55-0.6,0.55c-0.467,0-1.233-0.183-2.3-0.55
	c-0.967-0.333-1.517-0.567-1.65-0.7l-2.05-2.25c0-0.1,0.05-0.2,0.149-0.3c0.101-0.133,0.233-0.2,0.4-0.2
	C423.866,128.25,424.35,128.6,424.95,129.3z"/>
<path fill-rule="evenodd" clip-rule="evenodd" fill="#FCECDC" d="M422.8,131.65c0.2-0.133,0.45-0.05,0.75,0.25
	c0.066,0.133,0.233,0.3,0.5,0.5c0.334,0.2,0.601,0.3,0.8,0.3c0.233,0,0.534-0.067,0.9-0.2c0.4-0.033,0.884-0.083,1.45-0.15
	c0.366-0.033,0.816-0.117,1.35-0.25c0.434-0.1,0.816-0.15,1.15-0.15c0.267,0,0.6,0.117,1,0.35c0.399,0.2,0.616,0.3,0.649,0.3
	c0.134,0,0.417-0.133,0.851-0.4h1.899c0.233-0.067,0.483-0.167,0.75-0.3c0.2-0.066,0.5-0.1,0.9-0.1c0.3,0,0.684,0.117,1.15,0.35
	c0.433,0.233,0.733,0.45,0.899,0.65c0.334,0.333,0.5,0.733,0.5,1.2c0,0.4-0.166,0.6-0.5,0.6c-0.166,0-0.483-0.3-0.95-0.9
	c-0.466-0.6-0.833-0.9-1.1-0.9c-0.033,0-0.5,0.133-1.4,0.4h-1.899c-0.566,0.367-0.967,0.55-1.2,0.55c-0.1,0-0.333-0.133-0.7-0.4
	c-0.366-0.267-0.666-0.4-0.899-0.4c-1.101,0.233-1.867,0.367-2.301,0.4c-0.666,0.033-1.166,0.1-1.5,0.2c-0.3,0.1-0.633,0.15-1,0.15
	c-0.633,0-1.183-0.2-1.649-0.6c-0.4-0.333-0.601-0.65-0.601-0.95C422.6,131.917,422.667,131.75,422.8,131.65z"/>
<path fill-rule="evenodd" clip-rule="evenodd" fill="#FCECDC" d="M422.65,129c0.033,0,0.583,0.4,1.649,1.2
	c0.2,0.133,0.566,0.283,1.101,0.45c0.366,0.167,0.517,0.367,0.449,0.6c0.233,0.1,0.784,0.217,1.65,0.35
	c0.733,0.167,1.1,0.45,1.1,0.85c0,0.367-0.233,0.55-0.699,0.55l-0.75-0.05c-0.934,0-1.434,0-1.5,0c-0.534,0-1.017-0.067-1.45-0.2
	c-0.533-0.2-0.667-0.433-0.4-0.7c-0.133-0.1-0.3-0.15-0.5-0.15c-0.066,0-0.166,0.15-0.3,0.45c-0.134,0.267-0.2,0.433-0.2,0.5
	c0,0.267,0.233,0.533,0.7,0.8c0.5,0.3,1.05,0.45,1.65,0.45c0.399,0,0.833-0.05,1.3-0.15h1.45c0.166,0.033,0.767-0.083,1.8-0.35
	c0.267,0,0.467,0.1,0.6,0.3c0.134,0.167,0.4,0.25,0.8,0.25c0.2,0,0.351-0.05,0.45-0.15c0.167-0.133,0.316-0.217,0.45-0.25
	c0.134-0.067,0.5-0.117,1.1-0.15l2.351-0.05c0.6,0,0.95,0.083,1.05,0.25c0.134,0.167,0.283,0.25,0.45,0.25
	c0.133,0,0.399-0.066,0.8-0.2c0.366,0,0.55,0.167,0.55,0.5c0,0.2-0.149,0.367-0.45,0.5c-0.3,0.133-0.616,0.2-0.949,0.2
	c-0.4,0-0.65-0.083-0.75-0.25c-0.134-0.167-0.534-0.25-1.2-0.25l-0.2,0.05h-1.45c-0.566,0.033-0.95,0.117-1.149,0.25
	c-0.4,0.2-0.733,0.3-1,0.3c-0.667,0-1.15-0.15-1.45-0.45c-0.601,0.2-0.934,0.3-1,0.3c-0.167-0.033-0.684-0.05-1.55-0.05
	c-0.5,0-0.884,0.033-1.15,0.1c-0.233,0.034-0.517,0.05-0.85,0.05c-0.967,0-1.617-0.117-1.95-0.35c-0.334-0.267-0.7-0.4-1.101-0.4
	c-0.199,0.167-0.366,0.25-0.5,0.25c-0.333,0-0.5-0.233-0.5-0.7c0-0.333,0.233-0.816,0.7-1.45c0-0.4,0.05-0.667,0.15-0.8
	c0.434-0.4,0.649-0.65,0.649-0.75c0-0.033-0.083-0.2-0.25-0.5c-0.166-0.3-0.25-0.6-0.25-0.9C422.1,129.167,422.283,129,422.65,129z"
	/>
<path fill-rule="evenodd" clip-rule="evenodd" fill="#FCECDC" d="M424.1,131.55c0.101,0.167,0.301,0.25,0.601,0.25l0.399-0.1
	c0.334,0,0.5,0.167,0.5,0.5c0,0.133-0.066,0.267-0.199,0.4c-0.167,0.133-0.367,0.2-0.601,0.2c-0.566,0-1.05-0.1-1.45-0.3
	c-0.399-0.2-0.6-0.45-0.6-0.75c0-0.333,0.2-0.5,0.6-0.5C423.717,131.25,423.967,131.35,424.1,131.55z"/>
<path fill-rule="evenodd" clip-rule="evenodd" fill="#FCECDC" d="M429.4,132.65c0,0.233-0.117,0.4-0.351,0.5
	c-0.3,0.1-0.85,0.15-1.649,0.15c-0.467,0-0.7-0.167-0.7-0.5c0-0.433,0.733-0.65,2.2-0.65C429.233,132.15,429.4,132.317,429.4,132.65
	z"/>
<path fill-rule="evenodd" clip-rule="evenodd" fill="#FCECDC" d="M421.35,128.65c0.134,0.067,0.334,0.167,0.601,0.3
	c0.1,0.1,0.184,0.233,0.25,0.4c0.066,0.2,0.184,0.383,0.35,0.55c0.233,0.233,0.367,0.434,0.4,0.6c0,0.033,0,0.217,0,0.55
	c0,0.3-0.017,0.483-0.05,0.55c-0.067,0.1-0.284,0.217-0.65,0.35c0,0.333-0.2,1.466-0.6,3.4c-0.034,0.233-0.134,0.833-0.301,1.8
	c-0.166,0.867-0.399,1.3-0.699,1.3c-0.367,0-0.551-0.25-0.551-0.75c0.2-1.267,0.301-2.217,0.301-2.85c0-1.067-0.15-1.75-0.45-2.05
	c-0.3-0.3-0.45-0.95-0.45-1.95c0-0.633,0.033-1.017,0.1-1.15l-0.05-4.5c0-0.6,0.084-1.017,0.25-1.25
	c0.233-0.3,0.517-0.067,0.851,0.7c0.3,0.633,0.416,1.383,0.35,2.25c-0.066,0.434-0.066,0.85,0,1.25
	C421.033,128.383,421.15,128.55,421.35,128.65z"/>
<path fill-rule="evenodd" clip-rule="evenodd" fill="#FCECDC" d="M420.1,137.6c0.467,0,0.717,0.25,0.75,0.75
	c0,0.133-0.066,0.3-0.199,0.5c-0.167,0.2-0.25,0.383-0.25,0.55l0.149,3.05c0.4,0.066,1.117,0.2,2.15,0.4h2.3
	c0.267,0.267,0.4,0.433,0.4,0.5c0,0.066-0.117,0.233-0.351,0.5h-2.6c-0.3-0.067-0.75-0.15-1.351-0.25l-0.949-0.2
	c-0.4-0.1-0.634-0.3-0.7-0.6c0.066-0.333,0.083-0.566,0.05-0.7c-0.066-1.833-0.1-2.783-0.1-2.85
	C419.4,138.15,419.634,137.6,420.1,137.6z"/>
<path fill-rule="evenodd" clip-rule="evenodd" fill="#FCECDC" d="M429.75,141.75c0.2,0.033,0.384,0.117,0.55,0.25
	c0.167,0.133,0.25,0.267,0.25,0.4c0,0.333-0.184,0.5-0.55,0.5c-0.2,0-0.517-0.117-0.95-0.35c-0.434-0.233-0.767-0.35-1-0.35
	c-0.467,0-0.916,0.083-1.35,0.25c-0.467,0.167-0.95,0.25-1.45,0.25c-1.167,0-2.3-0.417-3.4-1.25
	c-0.966-0.733-1.449-1.284-1.449-1.65c0-0.667,0.283-0.767,0.85-0.3c0.3,0.233,0.616,0.55,0.95,0.95c0.2,0.1,0.583,0.35,1.149,0.75
	c0.601,0.333,1.233,0.5,1.9,0.5c0.4,0,0.833-0.083,1.3-0.25c0.434-0.167,0.95-0.25,1.55-0.25
	C428.566,141.2,429.116,141.383,429.75,141.75z"/>
<path fill-rule="evenodd" clip-rule="evenodd" fill="#FCECDC" d="M434.85,140.05c0,0.233-0.149,0.383-0.449,0.45
	c-0.5,0.1-0.934,0.2-1.301,0.3c-0.933,0.4-1.633,0.6-2.1,0.6s-1.05-0.133-1.75-0.4c-0.733-0.3-1.116-0.45-1.15-0.45
	c-0.166,0-0.566,0.117-1.199,0.35c-0.667,0.2-1.167,0.3-1.5,0.3c-0.534,0-1.517-0.3-2.95-0.9c-1.5-0.633-2.25-1.1-2.25-1.4
	c0-0.633,0.333-0.783,1-0.45c0.333,0.167,0.75,0.433,1.25,0.8c0.1,0.033,0.55,0.217,1.35,0.55c0.634,0.267,1.167,0.4,1.601,0.4
	c0.199,0,0.633-0.1,1.3-0.3c0.7-0.233,1.184-0.35,1.45-0.35c0.199,0,0.649,0.15,1.35,0.45c0.733,0.267,1.233,0.4,1.5,0.4
	c0.134,0,0.6-0.133,1.4-0.4c0.8-0.3,1.383-0.45,1.75-0.45C434.616,139.55,434.85,139.717,434.85,140.05z"/>
<path fill-rule="evenodd" clip-rule="evenodd" fill="#FCECDC" d="M435.2,139.9c0.366,0.367,0.55,0.617,0.55,0.75
	c0,0.333-0.184,0.5-0.55,0.5c-0.334,0-0.667-0.183-1-0.55c-0.3-0.333-0.45-0.567-0.45-0.7c0-0.4,0.184-0.6,0.55-0.6
	C434.5,139.3,434.8,139.5,435.2,139.9z"/>
<path fill-rule="evenodd" clip-rule="evenodd" fill="#FCECDC" d="M437,139.75c0.833,0,1.483,0.2,1.95,0.6
	c0.3,0.267,0.45,0.533,0.45,0.8c0,0.367-0.184,0.55-0.551,0.55c-0.033,0-0.3-0.15-0.8-0.45c-0.5-0.333-0.967-0.5-1.399-0.5
	c-0.134,0-0.367,0.067-0.7,0.2c-0.334,0.133-0.533,0.2-0.601,0.2c-0.166,0-0.3-0.083-0.399-0.25c-0.066-0.133-0.101-0.233-0.101-0.3
	c0-0.2,0.167-0.383,0.5-0.55C435.75,139.85,436.3,139.75,437,139.75z"/>
<path fill-rule="evenodd" clip-rule="evenodd" fill="#FCECDC" d="M432.1,141.55c0.601-0.3,1.184-0.45,1.75-0.45
	c0.2,0,0.45,0.083,0.75,0.25c0.334,0.133,0.534,0.2,0.601,0.2c0.133,0,0.283-0.05,0.45-0.15c0.199-0.1,0.483-0.15,0.85-0.15
	s0.7,0.067,1,0.2c0.267,0.133,0.45,0.2,0.55,0.2c0.066,0,0.184-0.066,0.351-0.2c0.166-0.133,0.316-0.2,0.449-0.2
	c0.334,0,0.5,0.167,0.5,0.5c0,0.167-0.116,0.35-0.35,0.55c-0.3,0.233-0.616,0.35-0.95,0.35c-0.333,0-0.6-0.066-0.8-0.2
	c-0.233-0.133-0.4-0.2-0.5-0.2c-0.4,0-0.684,0.05-0.85,0.15c-0.2,0.1-0.434,0.15-0.7,0.15c-0.334,0-0.617-0.066-0.851-0.2
	c-0.199-0.167-0.383-0.25-0.55-0.25c-0.267,0-0.733,0.15-1.399,0.45c-0.667,0.3-1.233,0.45-1.7,0.45c-0.9,0-1.351-0.233-1.351-0.7
	c0-0.367,0.167-0.55,0.5-0.55c0.034,0,0.317,0.083,0.851,0.25C431.033,142,431.5,141.85,432.1,141.55z"/>
<path fill-rule="evenodd" clip-rule="evenodd" fill="#FCECDC" d="M437.8,137.85c0.4-0.267,0.667-0.4,0.8-0.4
	c0.334,0,0.5,0.167,0.5,0.5c0,0.2-0.25,0.45-0.75,0.75c-0.6,0.333-1.233,0.5-1.899,0.5c-0.566,0-0.967-0.05-1.2-0.15
	c-0.233-0.1-0.55-0.15-0.95-0.15c-0.6,0.133-1.217,0.2-1.85,0.2c-0.367,0-0.634-0.05-0.8-0.15c-0.167-0.133-0.467-0.2-0.9-0.2
	c-0.167,0-0.517,0.117-1.05,0.35c-0.566,0.233-0.967,0.35-1.2,0.35c-0.4,0-0.9-0.1-1.5-0.3c-0.866-0.267-1.35-0.417-1.45-0.45h-2.3
	c-0.233,0.1-0.566,0.15-1,0.15c-1.1,0-1.65-0.233-1.65-0.7c0-0.333,0.184-0.5,0.551-0.5l1.1,0.2c0.134,0,0.4-0.05,0.8-0.15h2.8
	c0.034,0,0.434,0.117,1.2,0.35c0.7,0.233,1.167,0.35,1.4,0.35l0.95-0.3c0.666-0.233,1.183-0.35,1.55-0.35
	c0.333,0,0.633,0.067,0.899,0.2c0.233,0.1,0.434,0.15,0.601,0.15c0.166,0,0.399-0.033,0.7-0.1c0.333-0.067,0.716-0.1,1.149-0.1
	c0.5,0,0.884,0.05,1.15,0.15c0.233,0.1,0.566,0.15,1,0.15C436.95,138.2,437.4,138.083,437.8,137.85z"/>
<path fill-rule="evenodd" clip-rule="evenodd" fill="#FCECDC" d="M434.05,137.6c-0.333,0.1-0.666,0.15-1,0.15
	c-0.2,0-0.583-0.1-1.149-0.3l-0.75-0.35c-0.367,0-0.817,0.133-1.351,0.4c-0.533,0.233-0.95,0.35-1.25,0.35
	c-0.5,0-0.916-0.117-1.25-0.35c-0.3-0.233-0.616-0.35-0.95-0.35c-0.233,0-0.733,0.083-1.5,0.25h-2.199
	c-0.2,0.033-0.334,0.217-0.4,0.55c-0.033,0.333-0.217,0.5-0.55,0.5c-0.2,0-0.4-0.217-0.601-0.65c-0.166-0.367-0.25-0.633-0.25-0.8
	c0-0.1,0.051-0.2,0.15-0.3c0.1-0.133,0.233-0.2,0.4-0.2l0.35,0.15c0.033,0,0.267-0.083,0.7-0.25h2.149
	c0.233-0.033,0.467-0.083,0.7-0.15s0.584-0.1,1.05-0.1c0.601,0,1.051,0.117,1.351,0.35c0.267,0.233,0.55,0.35,0.85,0.35
	c0.066,0,0.417-0.117,1.05-0.35c0.634-0.267,1.167-0.4,1.601-0.4c0.233,0,0.85,0.217,1.85,0.65c0.066,0,0.334-0.067,0.8-0.2
	c0.467-0.167,0.867-0.25,1.2-0.25c0.367,0,1.15,0.2,2.351,0.6c0.267,0.1,0.616,0.184,1.05,0.25c0.267,0.067,0.399,0.233,0.399,0.5
	c0,0.333-0.216,0.5-0.649,0.5c-0.134,0-0.584-0.1-1.351-0.3c-0.866-0.2-1.416-0.383-1.649-0.55h-0.351L434.05,137.6z"/>
<path fill-rule="evenodd" clip-rule="evenodd" fill="#FCECDC" d="M420,139.65c0.1-0.1,0.167-0.2,0.2-0.3
	c-0.101-0.3-0.05-0.517,0.149-0.65c0.467-0.467,0.767-0.184,0.9,0.85c0.033,0.333,0.15,0.8,0.35,1.4
	c0.167,0.466,0.25,0.883,0.25,1.25c0,0.4-0.183,0.6-0.55,0.6c-0.3,0-0.616-0.433-0.95-1.3c-0.3-0.767-0.449-1.283-0.449-1.55
	C419.9,139.85,419.934,139.75,420,139.65z"/>
<path fill-rule="evenodd" clip-rule="evenodd" fill="#FCECDC" d="M431.55,143.15h2.15c3.333-0.767,5.517-1.15,6.55-1.15
	c0.4,0,0.6,0.167,0.6,0.5c0,0.367-0.316,0.55-0.949,0.55c-0.9,0-2.884,0.367-5.95,1.1h-2.2l-0.4,0.1h-5.55
	c-1.1-0.2-1.649-0.517-1.649-0.95c0-0.1,0.05-0.2,0.149-0.3c0.101-0.133,0.217-0.2,0.351-0.2l1.35,0.45h5.1L431.55,143.15z"/>
<path fill-rule="evenodd" clip-rule="evenodd" fill="#FCECDC" d="M428.95,143.45c-0.934,0-1.483-0.034-1.65-0.1
	c0-0.1-0.066-0.167-0.2-0.2c0,0.3-0.216,0.45-0.649,0.45c-0.3,0-0.7-0.083-1.2-0.25c-0.5-0.2-0.816-0.3-0.95-0.3
	c-0.2,0.1-0.399,0.15-0.6,0.15c-0.267,0-0.617-0.05-1.05-0.15c-0.434-0.133-0.75-0.2-0.95-0.2c-0.867-0.033-1.4-0.117-1.601-0.25
	c-0.1-0.067-0.149-0.25-0.149-0.55c0-0.533,0.267-0.8,0.8-0.8c0.033-0.067,0.083-0.133,0.15-0.2c0.066-0.133,0.216-0.2,0.449-0.2
	c0.267,0,0.534,0.233,0.801,0.7c0.566,0.434,1.716,0.65,3.449,0.65l1.15-0.05c0.1-0.167,0.25-0.25,0.45-0.25
	c0.366,0,1.616,0.25,3.75,0.75c0.333,0,0.7-0.133,1.1-0.4c0.4-0.3,1.15-0.45,2.25-0.45c0.367,0,0.767,0.05,1.2,0.15l0.55-0.1h1.65
	c0.333,0,0.5,0.167,0.5,0.5c0,0.3-0.167,0.467-0.5,0.5h-1.55c-0.767,0.233-1.467,0.35-2.101,0.35c-0.333-0.067-0.566-0.1-0.7-0.1
	c-0.633,0-0.983,0.133-1.05,0.4s-0.25,0.4-0.55,0.4C430.816,143.6,429.884,143.45,428.95,143.45z"/>
<path fill-rule="evenodd" clip-rule="evenodd" fill="#FCECDC" d="M433.4,138.8c0.033,0.067,0.083,0.1,0.149,0.1s0.15-0.033,0.25-0.1
	c0.134-0.066,0.316-0.1,0.55-0.1c1.101,0,2.167,0.133,3.2,0.4c1.101,0.267,1.65,0.566,1.65,0.9s-0.184,0.5-0.55,0.5
	c-0.434-0.167-0.684-0.25-0.75-0.25c-0.067,0-0.15,0.033-0.25,0.1c-0.101,0.033-0.517,0.05-1.25,0.05l-0.551,0.1
	c-0.133,0-0.316-0.1-0.55-0.3c-0.3-0.267-0.467-0.4-0.5-0.4l-0.75,0.05c-0.1,0.133-0.333,0.233-0.7,0.3
	c-0.5,0.067-0.916,0.117-1.25,0.15c-0.066,0.267-0.25,0.4-0.55,0.4c-0.2,0-0.7-0.117-1.5-0.35c-0.833-0.267-1.366-0.4-1.6-0.4
	c-1.4,0.4-2.25,0.6-2.55,0.6c-0.567,0-1.417-0.25-2.551-0.75c-0.333-0.167-0.866-0.3-1.6-0.4c-0.366-0.066-0.55-0.233-0.55-0.5
	c0-0.333,0.267-0.5,0.8-0.5c0.3,0,0.533,0.05,0.7,0.15c0.2,0.1,0.333,0.15,0.399,0.15c0.034,0,0.101-0.067,0.2-0.2
	c0.066-0.133,0.233-0.2,0.5-0.2c0.233,0,0.483,0.05,0.75,0.15c0.267,0.1,0.483,0.15,0.65,0.15c0.033,0,0.233-0.05,0.6-0.15
	c0.667,0,1.316,0.2,1.95,0.6l1.95-0.05c0-0.333,0.3-0.533,0.899-0.6h2.15c0.066,0.033,0.25,0.1,0.55,0.2L433.4,138.8z"/>
<path fill-rule="evenodd" clip-rule="evenodd" fill="#FCECDC" d="M423.1,134.2c0.134,0,0.317,0.1,0.551,0.3s0.399,0.3,0.5,0.3
	l1-0.15c0.466,0,0.833,0.05,1.1,0.15c0.1,0,0.167-0.05,0.2-0.15c0.066-0.133,0.233-0.2,0.5-0.2c0.166,0,0.45,0.133,0.85,0.4
	c0.033,0,0.2-0.067,0.5-0.2h1.55c0.067,0,0.534,0.117,1.4,0.35c0.2,0,0.384-0.1,0.55-0.3c0.167-0.2,0.816-0.3,1.95-0.3l0.4,0.1
	c0.033,0,0.1-0.05,0.199-0.15c0.067-0.133,0.233-0.2,0.5-0.2c0.467,0,1.15,0.3,2.051,0.9l-0.051-0.25c0-0.1,0.051-0.2,0.15-0.3
	c0.1-0.133,0.217-0.2,0.35-0.2c0.634,0,1.134,0.483,1.5,1.45c0.267,0.7,0.4,1.3,0.4,1.8c0,0.367-0.167,0.55-0.5,0.55
	c-0.2,0-0.483-0.167-0.85-0.5c-0.301-0.3-0.483-0.5-0.551-0.6c-0.333,0.267-0.566,0.4-0.699,0.4c-0.101,0-0.384-0.133-0.851-0.4
	c-0.5-0.3-0.833-0.45-1-0.45c-0.267,0-0.45,0.083-0.55,0.25c-0.1,0.133-0.5,0.2-1.2,0.2c-0.767,0-1.166-0.117-1.2-0.35
	c-0.033-0.267-0.199-0.4-0.5-0.4c-0.533,0.233-0.949,0.4-1.25,0.5c-0.533,0-0.833,0.017-0.899,0.05
	c-0.101,0.167-0.384,0.25-0.851,0.25c-0.466,0-0.75-0.066-0.85-0.2c-0.134-0.167-0.283-0.267-0.45-0.3
	c-0.467-0.267-0.967-0.4-1.5-0.4c-0.066,0-0.166,0.067-0.3,0.2c-0.167,0.133-0.316,0.217-0.45,0.25l-1.55,0.15l-0.5-0.15
	c-0.066,0-0.2,0.1-0.4,0.3c-0.199,0.2-0.416,0.3-0.649,0.3c-0.601,0-0.9-0.3-0.9-0.9c0-0.233,0.101-0.65,0.3-1.25
	c0.101-0.5,0.15-0.767,0.15-0.8c0.134-0.133,0.483-0.2,1.05-0.2C422.5,134.05,422.767,134.1,423.1,134.2z"/>
<path fill-rule="evenodd" clip-rule="evenodd" fill="#FCECDC" d="M438.8,137.1c0,0.6-0.184,0.9-0.55,0.9c-0.3,0-0.467-0.133-0.5-0.4
	c0.033-0.3,0.05-0.467,0.05-0.5c0-0.3-0.066-0.684-0.2-1.15c-0.133-0.467-0.199-0.717-0.199-0.75c0-0.367,0.183-0.55,0.55-0.55
	C438.417,134.65,438.7,135.467,438.8,137.1z"/>
<path fill-rule="evenodd" clip-rule="evenodd" fill="#FCECDC" d="M438,138.35c0.033-0.033,0.184-0.184,0.45-0.45
	c0.166-0.2,0.366-0.3,0.6-0.3c0.167,0,0.283,0.066,0.351,0.2c0.066,0.067,0.133,0.167,0.199,0.3v2.25
	c0.101,0.167,0.167,0.433,0.2,0.8c0.101,0.267,0.316,0.434,0.65,0.5c-0.134-0.767-0.184-1.283-0.15-1.55l-0.05-0.8
	c-0.233-0.2-0.35-0.417-0.35-0.65c0-0.133,0.05-0.267,0.149-0.4c0.134-0.167,0.283-0.25,0.45-0.25c0.566,0,0.884,1.2,0.95,3.6
	c0,0.9-0.217,1.35-0.65,1.35c-0.267,0-0.767-0.184-1.5-0.55c-0.233-0.1-0.366-0.25-0.399-0.45c0-0.233,0-0.4,0-0.5
	c-0.034-0.133-0.184-0.467-0.45-1c-0.233-0.4-0.334-0.75-0.3-1.05l-0.75,0.1c-0.4,0-0.601-0.167-0.601-0.5
	c0-0.233,0.117-0.367,0.351-0.4L438,138.35z"/>
<path fill-rule="evenodd" clip-rule="evenodd" fill="#FCECDC" d="M440.45,138.6l0.35,1.75c0,1.233-0.25,1.85-0.75,1.85
	c-0.267,0-0.434-0.133-0.5-0.4l-0.1-0.55c-0.267-0.3-0.4-0.633-0.4-1c0-0.4,0.134-1,0.4-1.8c0.1-0.633,0.316-0.983,0.649-1.05
	c0.334-0.1,0.5,0.083,0.5,0.55C440.6,138.183,440.55,138.4,440.45,138.6z"/>
<path fill-rule="evenodd" clip-rule="evenodd" fill="#FCECDC" d="M436.4,127.05c0.333,0,0.5,0.167,0.5,0.5
	c0,0.267-0.25,0.8-0.75,1.6c-0.467,0.767-0.801,1.233-1,1.4c-0.267,0.2-0.601,0.383-1,0.55l-1.15,0.55
	c-0.733,0.3-2.017,0.45-3.85,0.45c0,0.027,0.074,0.043,0.225,0.05c-0.495-0.007-0.82-0.057-0.975-0.15
	c-0.101-0.067-0.15-0.2-0.15-0.4c0-0.3,0.217-0.434,0.65-0.4c0.966,0.033,1.983-0.05,3.05-0.25c0.434-0.1,1.25-0.467,2.45-1.1
	c0.466-0.267,0.85-0.767,1.149-1.5c0.066-0.267,0.134-0.5,0.2-0.7C435.884,127.25,436.1,127.05,436.4,127.05z"/>
<path fill-rule="evenodd" clip-rule="evenodd" fill="#FCECDC" d="M436.35,128c-0.166,0-0.3-0.083-0.399-0.25
	c-0.066-0.133-0.101-0.233-0.101-0.3c0.2-0.867,0.301-1.5,0.301-1.9l-0.101-0.95c0-0.233,0.117-0.434,0.351-0.6
	c0.267-0.167,0.483-0.033,0.649,0.4l0.101,1.25C437.05,127.217,436.783,128,436.35,128z"/>
<path fill-rule="evenodd" clip-rule="evenodd" fill="#FCECDC" d="M441,124.8c0,0.2-0.066,0.333-0.2,0.4
	c-0.267,0.1-0.934,0.15-2,0.15c-0.566,0-1.116-0.083-1.649-0.25c-0.567-0.2-0.851-0.417-0.851-0.65c0-0.1,0.05-0.2,0.15-0.3
	c0.1-0.133,0.233-0.2,0.399-0.2l0.551,0.15l0.699-0.1c0.733,0,1.4,0.083,2,0.25C440.7,124.417,441,124.6,441,124.8z"/>
<path fill-rule="evenodd" clip-rule="evenodd" fill="#FCECDC" d="M440.8,127.5c0,0.433,0.05,0.95,0.15,1.55l-0.15,1.7L440.9,134
	l-0.051,0.2c0,0.9,0.084,1.6,0.25,2.1v1.95l0.101,0.7c0,0.5-0.184,0.75-0.55,0.75c-0.2,0-0.351-0.083-0.45-0.25
	c-0.066-0.1-0.101-0.2-0.101-0.3c0.067-0.133,0.101-0.233,0.101-0.3l-0.101-0.3v-1.95c-0.033-0.067-0.083-0.934-0.149-2.6
	c-0.101-1.7-0.15-2.8-0.15-3.3c0.101-0.767,0.15-1.3,0.15-1.6c-0.134-1.867-0.2-3.184-0.2-3.95c0-0.5,0.217-0.667,0.65-0.5
	c0.399,0.133,0.55,0.45,0.449,0.95L440.8,127.5z"/>
<path fill-rule="evenodd" clip-rule="evenodd" fill="#FCECDC" d="M440.9,140.35c-0.2,0-0.384-0.317-0.551-0.95
	c-0.133-0.633-0.199-0.967-0.199-1c0-0.333,0.133-0.517,0.399-0.55s0.483,0.167,0.65,0.6c0,0.3,0.066,0.7,0.2,1.2
	C441.4,140.117,441.233,140.35,440.9,140.35z"/>
<path fill-rule="evenodd" clip-rule="evenodd" fill="#FCECDC" d="M439.4,132.75c0.333,0,0.566,0.3,0.699,0.9
	c0.034,0.133,0.15,0.267,0.351,0.4c0.133,0.1,0.217,0.267,0.25,0.5l0.1,2.75c-0.066,0.267-0.267,0.4-0.6,0.4l-0.05,0.65
	c-0.034,0.3-0.217,0.45-0.551,0.45c-0.433,0-0.733-0.883-0.899-2.65c-0.066-0.367-0.267-0.917-0.601-1.65
	c-0.3-0.667-0.449-1.017-0.449-1.05c0-0.367,0.166-0.55,0.5-0.55c0.166,0,0.3,0.05,0.399,0.15c0.066,0.067,0.134,0.167,0.2,0.3
	C438.684,132.95,438.9,132.75,439.4,132.75z"/>
<path fill-rule="evenodd" clip-rule="evenodd" fill="#FCECDC" d="M438.9,125.05c0.3-0.167,0.517-0.25,0.649-0.25
	c0.3,0,0.483,0.117,0.55,0.35c0,0.1-0.017,0.233-0.05,0.4l0.101,1.15l-0.101,2.9c0,0.1,0.033,0.167,0.101,0.2
	c0.1,0.1,0.199,0.25,0.3,0.45v0.65c0,0.533-0.05,1.1-0.15,1.7c-0.166,0.9-0.416,1.35-0.75,1.35l-1.95-0.85
	c-0.267-0.167-0.533-0.317-0.8-0.45c-0.533-0.267-0.95-0.4-1.25-0.4c-0.967,0-1.75,0.1-2.35,0.3c-0.601,0.167-1.2,0.25-1.8,0.25
	c-0.834,0-1.25-0.183-1.25-0.55s0.333-0.55,1-0.55c0.966,0.033,1.649-0.05,2.05-0.25l-0.15-0.35c0-0.267,0.15-0.417,0.45-0.45
	c0.5-0.033,0.917-0.183,1.25-0.45c0.566-0.667,0.934-1.083,1.1-1.25l0.75-1.15c0-0.367,0.051-0.667,0.15-0.9
	c0.066-0.2,0.1-0.35,0.1-0.45l-0.1-0.75c0-0.7,0.233-1.05,0.7-1.05c0.133,0,0.5,0.217,1.1,0.65L438.9,125.05z"/>
<path fill-rule="evenodd" clip-rule="evenodd" fill="#FCECDC" d="M442.15,126.1v2.5c-0.067,0.433-0.25,0.65-0.551,0.65
	c-0.333,0-0.5-0.217-0.5-0.65l0.051-0.2v-2.6c0.066-0.6,0.149-0.983,0.25-1.15c0.199-0.333,0.416-0.45,0.649-0.35
	c0.233,0.1,0.351,0.284,0.351,0.55L442.15,126.1z"/>
<path fill-rule="evenodd" clip-rule="evenodd" fill="#FCECDC" d="M442.35,130.35c0,0.3,0.084,0.733,0.25,1.3
	c0,0.333-0.183,0.5-0.55,0.5c-0.3,0-0.5-0.283-0.6-0.85c-0.066-0.3-0.101-0.617-0.101-0.95c0-0.467,0.084-0.967,0.25-1.5
	c0.2-0.6,0.417-0.833,0.65-0.7c0.233,0.1,0.35,0.333,0.35,0.7C442.6,129.017,442.517,129.517,442.35,130.35z"/>
<path fill-rule="evenodd" clip-rule="evenodd" fill="#FCECDC" d="M442.15,132.5c-0.301,0-0.517-0.583-0.65-1.75
	c-0.066-1.2-0.1-1.833-0.1-1.9c0-0.233,0.1-0.4,0.3-0.5c0.233-0.1,0.467,0,0.7,0.3l0.1,1.15c0,0.467,0.05,1.184,0.15,2.15
	C442.65,132.317,442.483,132.5,442.15,132.5z"/>
<path fill-rule="evenodd" clip-rule="evenodd" fill="#FCECDC" d="M442.6,132.3v3.6l0.15,0.5v1.9c0.134,0.667,0.2,1.284,0.2,1.85
	l-0.101,1.05c4.567-2.333,6.851-3.6,6.851-3.8l-0.15-1.7c-0.166-0.833-0.25-1.383-0.25-1.65c0-0.1,0.05-0.2,0.15-0.3
	c0.1-0.133,0.233-0.2,0.399-0.2c0.534,0,0.767,0.7,0.7,2.1c0.134,1,0.2,1.75,0.2,2.25c0,0.267-0.033,0.45-0.1,0.55
	c-0.101,0.1-0.301,0.15-0.601,0.15c-0.2,0-1.583,0.733-4.149,2.2c-0.9,0.4-1.584,0.767-2.051,1.1
	c-0.566,0.267-0.866,0.45-0.899,0.55c-0.334,0.333-0.566,0.5-0.7,0.5c-0.3,0-0.467-0.15-0.5-0.45c0-0.333,0-0.533,0-0.6
	c0.134-0.7,0.2-1.283,0.2-1.75c0-1.533-0.117-2.883-0.351-4.05v-3.6c-0.1-0.2-0.149-0.55-0.149-1.05c0-0.2,0.1-0.35,0.3-0.45
	c0.233-0.133,0.45-0.05,0.65,0.25C442.5,131.45,442.566,131.8,442.6,132.3z"/>
<path fill-rule="evenodd" clip-rule="evenodd" fill="#FCECDC" d="M447.35,123.45c0,0.267-0.25,0.483-0.75,0.65
	c-0.633,0.167-1.1,0.3-1.399,0.4c-1.533,0.5-2.4,0.75-2.601,0.75c-0.199,0-0.35-0.083-0.449-0.25c-0.067-0.1-0.101-0.2-0.101-0.3
	c0-0.267,0.217-0.467,0.65-0.6c0.233-0.067,0.733-0.184,1.5-0.35c1.333-0.533,2.217-0.8,2.649-0.8
	C447.184,122.95,447.35,123.117,447.35,123.45z"/>
<path fill-rule="evenodd" clip-rule="evenodd" fill="#FCECDC" d="M443.15,125.7c0,0.2,0.1,0.433,0.3,0.7v2.3
	c0,0.633-0.066,1.833-0.2,3.6c0,0.6,0.066,1.067,0.2,1.4c0.033,0.1,0.066,0.316,0.1,0.65l0.45,0.7c0.003-0.405,0.02-0.638,0.05-0.7
	c0.066-0.333,0.267-0.5,0.601-0.5l0.35,0.1l0.55-0.3c0.3,0,0.467,0.15,0.5,0.45c0.167-0.467,0.384-0.7,0.65-0.7l0.35,0.1
	c0.066-0.233,0.117-0.367,0.15-0.4c0.066-0.067,0.2-0.1,0.399-0.1c0.2,0,0.351,0.1,0.45,0.3c0.033,0.1,0.066,0.217,0.101,0.35
	l0.199-0.4c0.067-0.067,0.2-0.1,0.4-0.1c0.533,0,0.884,0.317,1.05,0.95c0.033,0.167,0.05,0.533,0.05,1.1
	c0,0.667-0.033,1.167-0.1,1.5c0.3,0,0.45,0.167,0.45,0.5c0,0.4-0.101,0.7-0.3,0.9c-0.167,0.133-0.7,0.417-1.601,0.85
	c-1.5,0.933-2.35,1.4-2.55,1.4l-0.5-0.3c-0.5,0-0.95,0.284-1.35,0.85c-0.4,0.533-0.667,0.8-0.801,0.8c-0.3,0-0.466-0.233-0.5-0.7
	c0.034-0.5,0.051-0.783,0.051-0.85c0-0.4-0.034-0.75-0.101-1.05c-0.1-0.333-0.149-0.633-0.149-0.9c0-0.367,0.083-0.617,0.25-0.75
	v-1.75c-0.267-0.034-0.417-0.167-0.45-0.4c-0.033-0.033-0.05-0.216-0.05-0.55l0.1-1.05v-2.05l0.05-0.55l-0.149-1.8
	c0-1.167,0-1.783,0-1.85c0-0.934,0.017-1.5,0.05-1.7C442.333,124.983,442.65,124.967,443.15,125.7z"/>
<path fill-rule="evenodd" clip-rule="evenodd" fill="#FCECDC" d="M444.05,127.75c0.033,0.167,0.117,0.567,0.25,1.2
	c0.101,0.5,0.15,0.917,0.15,1.25l0.35-0.05c-0.033-0.3-0.05-0.533-0.05-0.7c0.033-0.367,0.233-0.55,0.6-0.55
	c0.101,0,0.2,0.033,0.301,0.1l0.649-0.25c0.066,0,0.217-0.067,0.45-0.2l0.45,0.25c0.233-0.267,0.566-0.466,1-0.6l0.45,0.3h0.05
	c-0.033-0.2-0.017-0.4,0.05-0.6c0.066-0.367,0.267-0.55,0.6-0.55c0.334,0,0.551,0.433,0.65,1.3c0.066,0.467,0.1,1.067,0.1,1.8
	l0.2,3.2c0,0.467,0,0.717,0,0.75c-0.066,0.333-0.233,0.5-0.5,0.5c-0.166,0-0.3-0.066-0.399-0.2c-0.101-0.167-0.184-0.25-0.25-0.25
	c-0.067,0.2-0.25,0.466-0.551,0.8c-0.333,0.333-0.566,0.5-0.699,0.5c-0.134,0-0.267-0.067-0.4-0.2c-0.233,0.167-0.4,0.25-0.5,0.25
	l-0.45-0.2l-0.35,0.1c-0.101,0-0.267-0.067-0.5-0.2c-0.3-0.133-0.483-0.267-0.55-0.4H445.1c-0.033,0.1-0.1,0.316-0.199,0.65
	c-0.101,0.267-0.301,0.4-0.601,0.4s-0.483-0.133-0.55-0.4c-0.033-0.233-0.017-0.383,0.05-0.45v-0.25l-0.35,0.1
	c-0.367,0-0.55-0.316-0.55-0.95c0.199-2.367,0.3-4.034,0.3-5c-0.267-1.6-0.4-2.483-0.4-2.65c0-0.3,0.134-0.45,0.4-0.45
	c0.267-0.033,0.483,0.1,0.649,0.4C443.917,126.7,443.983,127.117,444.05,127.75z"/>
<path fill-rule="evenodd" clip-rule="evenodd" fill="#FCECDC" d="M449.55,120.5c0.101-0.133,0.217-0.217,0.351-0.25
	c0.433-0.133,0.649,0.033,0.649,0.5c0,0.3-0.149,1.467-0.45,3.5v5.35c-0.166,0.467-0.35,0.8-0.55,1
	c-0.333,0.367-0.967,0.55-1.899,0.55c-0.434,0-0.65-0.283-0.65-0.85l0.1-0.65v-0.45c-0.199,0.033-0.35,0.15-0.449,0.35
	c-0.067,0.133-0.217,0.2-0.45,0.2c-0.233-0.1-0.367-0.15-0.4-0.15c-0.333,0-0.566,0.133-0.7,0.4c-0.1,0.267-0.25,0.4-0.449,0.4
	c-0.233,0-0.384-0.1-0.45-0.3c-0.101-0.2-0.117-0.333-0.05-0.4c-0.4,0.233-0.617,0.35-0.65,0.35c-0.2,0-0.333-0.083-0.4-0.25
	c-0.066-0.1-0.1-0.2-0.1-0.3c0-0.3,0.2-0.733,0.6-1.3l0.051-0.05c-0.233-0.066-0.384-0.267-0.45-0.6c-0.467,0-0.7-0.183-0.7-0.55
	c0-0.133,0.184-0.45,0.55-0.95c-0.333-0.033-0.5-0.216-0.5-0.55c0-0.167,0.2-0.367,0.601-0.6c0.466-0.3,0.983-0.45,1.55-0.45
	l0.5,0.1c0.399-0.8,0.666-1.3,0.8-1.5c0.366-0.466,0.917-0.85,1.65-1.15l1.649-1.05L449.55,120.5z M448.75,129.55
	c-0.066,0.1-0.316,0.284-0.75,0.55h0.5c0.3-0.233,0.483-0.467,0.55-0.7c0.033-0.133,0.05-0.367,0.05-0.7
	C449.033,128.8,448.917,129.083,448.75,129.55z"/>
</svg>
