<?xml version="1.0" encoding="utf-8"?>
<!-- Generator: Adobe Illustrator 16.0.0, SVG Export Plug-In . SVG Version: 6.00 Build 0)  -->
<!DOCTYPE svg PUBLIC "-//W3C//DTD SVG 1.1//EN" "http://www.w3.org/Graphics/SVG/1.1/DTD/svg11.dtd">
<svg version="1.1" id="Selected_Items" xmlns="http://www.w3.org/2000/svg" xmlns:xlink="http://www.w3.org/1999/xlink" x="0px"
	 y="0px" width="550px" height="400px" viewBox="0 0 550 400" enable-background="new 0 0 550 400" xml:space="preserve">
<path fill-rule="evenodd" clip-rule="evenodd" fill="#DFFFFF" fill-opacity="0.4863" d="M171.9,176.05
	c1.533-0.333,2.5-0.617,2.9-0.85c0.4-0.4,0.75-0.75,1.05-1.05c0.259-0.259,0.484-0.459,0.675-0.6
	c-0.012,0.063-0.021,0.129-0.025,0.2c-0.033,0.3-0.033,0.683,0,1.15l-0.1,0.85c-0.227,0.22-0.477,0.453-0.75,0.7
	c-0.733,0.866-1.867,1.417-3.4,1.65c-0.6,0.066-1.983,0.1-4.15,0.1c-2.434,0-3.867-0.05-4.3-0.15c-0.233-0.2-0.633-0.4-1.2-0.6
	c-0.934-0.333-1.583-0.684-1.95-1.05c-0.566-0.533-0.85-1.283-0.85-2.25c-0.066-2.133-0.233-3.633-0.5-4.5v-4.3l-0.3-1.525
	c0.333-1.152,0.5-1.744,0.5-1.775c-0.6-0.333-0.917-0.5-0.95-0.5l-0.15-0.75c0-0.3,0.167-0.5,0.5-0.6c0.367-0.1,0.633,0.1,0.8,0.6
	l0.25,1.35c0.033,0.333,0.216,1.233,0.55,2.7v4.35c0.367,0.466,0.517,1.1,0.45,1.9c-0.1,1.333-0.15,2.017-0.15,2.05
	c0.133,1.6,1.883,2.767,5.25,3.5h2.85C169.267,176.583,170.267,176.383,171.9,176.05z"/>
<path fill-rule="evenodd" clip-rule="evenodd" fill="#CCFFFF" d="M174.4,176.1c-0.667,0.4-1.283,0.6-1.85,0.6
	c-0.566,0-0.85-0.2-0.85-0.6c0-0.233,0.6-0.6,1.8-1.1s1.8-0.4,1.8,0.3C175.3,175.467,175,175.733,174.4,176.1z"/>
<path fill-rule="evenodd" clip-rule="evenodd" fill="#DFFFFF" fill-opacity="0.4863" d="M174.65,176.2
	c-0.367,0.2-0.717,0.3-1.05,0.3c-0.733,0-1.1-0.2-1.1-0.6c0-0.367,0.45-0.7,1.35-1c0.9-0.267,1.35-0.05,1.35,0.65
	C175.2,175.783,175.017,176,174.65,176.2z"/>
<path fill-rule="evenodd" clip-rule="evenodd" fill="#DFFFFF" fill-opacity="0.4863" d="M170.5,156.85
	c-2.733,0.1-4.967,0.316-6.7,0.65c-1.433,0.333-2.433,0.55-3,0.65c0.1,0.233,0.2,0.434,0.3,0.6c0,0.2-0.167,0.467-0.5,0.8
	c-0.333,0.333-0.5,0.55-0.5,0.65c0,0.333,0.117,0.583,0.35,0.75c0.5,0.366,1.466,0.566,2.9,0.6l2.85,0.05l0.25,0.05h7.15
	c1.4-0.3,2.316-0.6,2.75-0.9c0.3-0.2,0.45-0.517,0.45-0.95c0-1.533-1.1-2.517-3.3-2.95H170.5z M173.6,155.6
	c1.687,0.288,2.887,0.871,3.6,1.75c0,0.046,0,0.097,0,0.15c0,0.167,0.05,0.4,0.15,0.7c0.1,0.3,0.15,0.533,0.15,0.7l-0.05,1.25
	c-0.034,0.033-0.184,0.233-0.45,0.6c-0.2,0.267-0.3,0.467-0.3,0.6c0,0.084,0.05,0.276,0.15,0.575
	c-0.712,0.379-1.796,0.704-3.25,0.975h-7.2l-0.2-0.05l-4.8-0.25c-0.233,0.533-0.367,0.85-0.4,0.95c-0.033,0.1-0.033,0.233,0,0.4
	c-0.267,0.7-0.567,1.05-0.9,1.05c-0.063,0-0.362-0.633-0.9-1.9c0.2-0.676,0.3-1.026,0.3-1.05c-0.508-0.282-0.816-0.449-0.925-0.5
	c-0.172-0.436-0.364-0.919-0.575-1.45c0-1.267,0.483-2.167,1.45-2.7c1.7-0.933,5.283-1.533,10.75-1.8H173.6z"/>
<path fill-rule="evenodd" clip-rule="evenodd" fill="#DFFFFF" fill-opacity="0.4863" d="M171.65,156.7
	c0.167,0,0.617-0.083,1.35-0.25c1.8,0.1,3.133,0.533,4,1.3c0.116,0.11,0.225,0.227,0.325,0.35c0.004,0.029,0.012,0.063,0.025,0.1
	c0.1,0.3,0.15,0.533,0.15,0.7l-0.05,1.25c-0.034,0.033-0.184,0.233-0.45,0.6c-0.2,0.267-0.3,0.467-0.3,0.6
	c0,0.1,0.066,0.35,0.2,0.75c0.029,0.093,0.054,0.177,0.075,0.25c-0.086,0.443-0.111,1.009-0.075,1.7l-0.1,1.75
	c-0.066,0.667-0.1,1.7-0.1,3.1c0,0.033,0,0.467,0,1.3c0.025,0.627,0.092,1.02,0.2,1.175c-0.074,0.72-0.174,1.262-0.3,1.625
	c-0.833,2.233-2.767,3.35-5.8,3.35c-0.566,0-1.25,0.066-2.05,0.2c-0.767,0.1-1.367,0.15-1.8,0.15c-1.4,0-2.267-0.067-2.6-0.2
	c-0.333-0.133-0.684-0.2-1.05-0.2c-0.3,0-0.583-0.15-0.85-0.45c-0.367-0.4-0.567-0.617-0.6-0.65c-0.067-0.034-0.333-0.134-0.8-0.3
	c-0.367-0.133-0.55-0.283-0.55-0.45c-0.2-1.034-0.3-1.833-0.3-2.4l0.3-1.5c0-0.333-0.067-0.633-0.2-0.9v-4.35
	c-0.066-0.2-0.1-0.517-0.1-0.95l0.25-2.25c0-0.1-0.15-0.517-0.45-1.25c-0.333-0.7-0.5-1.167-0.5-1.4c0-0.4,0.25-0.733,0.75-1
	c0.533-0.2,0.833-0.35,0.9-0.45c0.1-0.3,0.3-0.567,0.6-0.8c0.533-0.467,1.283-0.7,2.25-0.7l1.75,0.2l4.2-0.2L171.65,156.7z
	 M169.2,162.05l-0.3,0.1v0.2l0.05,0.05C169.217,162.267,169.3,162.15,169.2,162.05z M163.2,162.1c0.033,0,0.167-0.034,0.4-0.1
	c0.267-0.033,0.5-0.017,0.7,0.05l0.15-0.1l0.05-0.1c-0.967-0.133-1.517-0.184-1.65-0.15c0.033,0.033,0.066,0.1,0.1,0.2
	C163.05,162.033,163.133,162.1,163.2,162.1z"/>
<path fill-rule="evenodd" clip-rule="evenodd" fill="#DFFFFF" fill-opacity="0.4863" d="M169.3,178c-0.933,0-1.833-0.233-2.7-0.7
	c-0.733-0.4-1.1-0.7-1.1-0.9c0-0.4,0.233-0.683,0.7-0.85c0.533-0.2,1.216-0.017,2.05,0.55l1.35,0.05c0.2,0,0.433-0.05,0.7-0.15
	c0.267-0.133,0.467-0.2,0.6-0.2c0.6,0,0.9,0.267,0.9,0.8c0,0.267-0.216,0.55-0.65,0.85C170.617,177.816,170,178,169.3,178z"/>
<path fill-rule="evenodd" clip-rule="evenodd" fill="#84FFFF" fill-opacity="0.498" d="M177.05,160.675
	c-0.014,0.023-0.03,0.048-0.05,0.075c-0.026,0.035-0.051,0.068-0.075,0.1c-0.387,0.404-1.429,0.837-3.125,1.3
	c-0.9,0.233-2.5,0.583-4.8,1.05h-3.9c-3.115-0.645-5.198-1.145-6.25-1.5c-0.183-0.1-0.283-0.15-0.3-0.15h-0.075
	c-0.091-0.035-0.166-0.069-0.225-0.1c-0.367-0.233-0.55-0.833-0.55-1.8v-1.25c0.133-0.367,0.333-0.566,0.6-0.6
	c0.267-0.033,0.4,0.1,0.4,0.4l-0.2,1.4c0,0.733,0.283,1.216,0.85,1.45c0.667,0.3,2.617,0.733,5.85,1.3h3.7l4.8-1.05l2.9-1.2
	c0.333,0,0.5,0.133,0.5,0.4C177.1,160.557,177.083,160.615,177.05,160.675z"/>
<path fill-rule="evenodd" clip-rule="evenodd" fill="#84FFFF" fill-opacity="0.498" d="M176.1,157.35c0-0.767-1.983-1.184-5.95-1.25
	c-4.233-0.034-7.933,0.517-11.1,1.65c0.333,0.167,0.867,0.483,1.6,0.95c0.967,0.433,2.417,0.75,4.35,0.95l4.05,0.1
	c2.5,0,4.4-0.333,5.7-1C175.65,158.283,176.1,157.816,176.1,157.35z M167.5,160.55l-2.6-0.05c-1.433-0.033-2.967-0.35-4.6-0.95
	c-1.533-0.6-2.3-1.083-2.3-1.45c0-1.633,3.15-2.617,9.45-2.95c6.3-0.3,9.45,0.45,9.45,2.25c0,0.767-0.367,1.367-1.1,1.8
	c-0.933,0.533-2.733,1-5.4,1.4h-2.7L167.5,160.55z"/>
<path fill-rule="evenodd" clip-rule="evenodd" fill="#84FFFF" fill-opacity="0.498" d="M176.4,157.3c0-0.833,0.217-0.867,0.65-0.1
	c0.054,0.1,0.104,0.2,0.15,0.3c0,0.167,0.05,0.4,0.15,0.7c0.1,0.3,0.15,0.533,0.15,0.7l-0.05,1.25
	c-0.034,0.033-0.184,0.233-0.45,0.6c-0.15,0.201-0.242,0.367-0.275,0.5c-0.146,0.033-0.304,0.05-0.475,0.05
	c-0.067,0-0.2-0.033-0.4-0.1l-0.05-0.35c0-0.233,0.184-0.45,0.55-0.65c0.367-0.233,0.55-0.517,0.55-0.85
	C176.566,158.05,176.4,157.367,176.4,157.3z"/>
<path fill-rule="evenodd" clip-rule="evenodd" fill="#84FFFF" fill-opacity="0.498" d="M159.5,162.05
	c-0.023-0.013-0.049-0.03-0.075-0.05l0.025-0.05c0.366-1.167,0.55-1.067,0.55,0.3l-0.3,3.75c0,1.566,0.1,2.6,0.3,3.1v4.1l0.6,2.3
	l-0.05,0.4c-0.033,0.067-0.133,0.1-0.3,0.1c-0.367,0-0.633-0.317-0.8-0.95c-0.1-0.767-0.184-1.267-0.25-1.5v-4.2
	c-0.2-0.633-0.3-1.733-0.3-3.3c0-0.892,0.059-1.717,0.175-2.475C159.358,162.587,159.5,162.079,159.5,162.05z"/>
<path fill-rule="evenodd" clip-rule="evenodd" fill="#84FFFF" fill-opacity="0.498" d="M176.725,161.225
	c-0.017,0.048-0.025,0.089-0.025,0.125c0,0.08,0.042,0.255,0.125,0.525c0.05,0.414,0.075,0.888,0.075,1.425
	c0,0.733-0.1,2.15-0.3,4.25l0.1,1.575c0,0.211,0,0.569,0,1.075c0.015,0.375,0.04,0.667,0.075,0.875
	c-0.023,0.777-0.057,1.469-0.1,2.075c-0.101,0.139-0.16,0.338-0.175,0.6c-0.033,0.3-0.033,0.683,0,1.15l-0.125,1.025
	c-0.071,0.25-0.146,0.375-0.225,0.375c-0.066,0-0.2-0.033-0.4-0.1l-0.05-0.4c0.2-2.367,0.3-4.083,0.3-5.15l-0.2-3.1
	c0-1.066,0.1-2.667,0.3-4.8c0.167-1.833,0.35-2.434,0.55-1.8C176.676,161.038,176.701,161.13,176.725,161.225z"/>
<path fill-rule="evenodd" clip-rule="evenodd" fill="#84FFFF" fill-opacity="0.498" d="M175.9,177.15
	c-0.172,0.137-0.372,0.287-0.6,0.45c-1.066,0.8-2.133,1.167-3.2,1.1h-4.3c-2.367-0.1-4.333-0.5-5.9-1.2c-1.4-0.6-2.1-1.217-2.1-1.85
	s0.267-0.717,0.8-0.25c0.3,0.267,0.65,0.633,1.05,1.1c0.667,0.5,2.783,0.95,6.35,1.35h3.9c0.867-0.167,1.817-0.583,2.85-1.25
	c0.967-0.667,1.483-1,1.55-1c0.039,0,0.072,0,0.1,0l-0.05,0.45c-0.034,0.233-0.117,0.434-0.25,0.6S175.9,176.983,175.9,177.15z"/>
<path fill-rule="evenodd" clip-rule="evenodd" fill="#84FFFF" fill-opacity="0.498" d="M166.55,162.55c-0.433,0-1.2-0.183-2.3-0.55
	s-1.867-0.684-2.3-0.95c-0.8-0.466-1.384-0.816-1.75-1.05c-0.7-0.4-1.05-0.684-1.05-0.85c0-0.3,0.417-0.167,1.25,0.4l1.95,1.35
	c0.9,0.233,2.367,0.7,4.4,1.4C166.75,162.467,166.683,162.55,166.55,162.55z"/>
<path fill-rule="evenodd" clip-rule="evenodd" fill="#84FFFF" fill-opacity="0.498" d="M172.2,161.3l0.6-0.15h0.25l0.05,0.15
	c0,0.133-0.25,0.233-0.75,0.3h-2.2c-2.1-0.2-3.566-0.4-4.4-0.6c-0.3-0.1-0.783-0.317-1.45-0.65c0.167-0.1,0.633-0.017,1.4,0.25
	c1.167,0.367,2.683,0.6,4.55,0.7H172.2z"/>
<path fill-rule="evenodd" clip-rule="evenodd" fill="#84FFFF" fill-opacity="0.498" d="M176.55,160.55l-0.3,0.2l-2.65-0.05
	c-0.7-0.067-1.167-0.217-1.4-0.45v-0.15c0.133-0.034,0.283-0.017,0.45,0.05c0.233,0.133,0.567,0.217,1,0.25h2.75
	C176.5,160.467,176.55,160.517,176.55,160.55z"/>
<path fill-rule="evenodd" clip-rule="evenodd" fill="#84FFFF" fill-opacity="0.498" d="M171.95,157.45
	c2.333,0.333,3.683,0.667,4.05,1v0.15l-0.15,0.05L172,157.8h-2.75c-2.6,0.233-4.367,0.4-5.3,0.5c-1.534,0.133-2.417,0.3-2.65,0.5
	h-0.25l-0.05-0.15c0-0.2,0.8-0.4,2.4-0.6c0.967-0.1,2.95-0.3,5.95-0.6H171.95z"/>
<path fill-rule="evenodd" clip-rule="evenodd" fill="#84FFFF" fill-opacity="0.498" d="M166.25,156.45
	c-0.467,0.167-1.017,0.366-1.65,0.6c-1.267,0.434-2.25,0.883-2.95,1.35h-0.25l-0.05-0.15c0-0.233,0.633-0.567,1.9-1
	c1.1-0.4,2.083-0.7,2.95-0.9L166.25,156.45z"/>
<path fill-rule="evenodd" clip-rule="evenodd" fill="#84FFFF" fill-opacity="0.498" d="M172.15,156.05l0.05,0.1
	c-2.6,0.867-4.517,1.467-5.75,1.8l-0.05-0.15c0-0.167,0.867-0.5,2.6-1C170.566,156.367,171.617,156.117,172.15,156.05z"/>
<path fill-rule="evenodd" clip-rule="evenodd" fill="#84FFFF" fill-opacity="0.498" d="M174.1,157.2l-1.65,0.45h-0.35l-0.05-0.15
	c0-0.1,0.3-0.233,0.9-0.4c0.3-0.067,0.667-0.15,1.1-0.25h1.65c0.233,0.033,0.417,0.1,0.55,0.2c-0.1,0.233-0.3,0.284-0.6,0.15H174.1z
	"/>
<path fill-rule="evenodd" clip-rule="evenodd" fill="#84FFFF" fill-opacity="0.498" d="M164.55,173.35
	c-0.6,0.066-1.133,0.25-1.6,0.55c-1.4,0.733-2.1,1.383-2.1,1.95c0,0.066,0.117,0.216,0.35,0.45c0,0.133-0.083,0.2-0.25,0.2
	c-0.267,0-0.4-0.2-0.4-0.6c0-0.8,0.784-1.566,2.35-2.3c1.467-0.667,2.8-0.967,4-0.9c-0.066,0.167-0.417,0.316-1.05,0.45
	C165.15,173.25,164.717,173.316,164.55,173.35z"/>
<path fill-rule="evenodd" clip-rule="evenodd" fill="#84FFFF" fill-opacity="0.498" d="M175.9,175.5c0,0.167-0.066,0.367-0.2,0.6
	c-0.167,0.267-0.333,0.383-0.5,0.35l-0.05-0.2c0-0.067,0.083-0.184,0.25-0.35c0.133-0.167,0.2-0.316,0.2-0.45
	c0-0.567-0.35-1.117-1.05-1.65c-0.833-0.6-1.966-0.95-3.4-1.05l-4.6,0.2l-0.05-0.15c0-0.1,0.133-0.167,0.4-0.2
	c0.267-0.034,1.033-0.1,2.3-0.2h1.8c1.5,0.1,2.717,0.467,3.65,1.1C175.483,174.1,175.9,174.767,175.9,175.5z"/>
<path fill-rule="evenodd" clip-rule="evenodd" fill="#84FFFF" fill-opacity="0.498" d="M159.4,163.55
	c-0.1,0.733-0.15,1.333-0.15,1.8L159,165.4l-0.1-0.75v-3.1c0.434,0,0.65,0.117,0.65,0.35C159.55,162.233,159.5,162.783,159.4,163.55
	z"/>
<path fill-rule="evenodd" clip-rule="evenodd" fill="#84FFFF" fill-opacity="0.498" d="M176.6,163.7h-0.2l-0.05-0.2
	c0.1-0.767,0.15-1.383,0.15-1.85l0.1-0.9c0.267-0.333,0.4-0.183,0.4,0.45C177,161.8,176.867,162.633,176.6,163.7z"/>
<path fill-rule="evenodd" clip-rule="evenodd" fill="#84FFFF" fill-opacity="0.498" d="M160.75,158.95l-0.05-0.15
	c0-0.066,0.066-0.15,0.2-0.25c0.133-0.133,0.3-0.15,0.5-0.05c0,0.1-0.083,0.2-0.25,0.3
	C161.017,158.933,160.883,158.983,160.75,158.95z"/>
<path fill-rule="evenodd" clip-rule="evenodd" fill="#DFFFFF" d="M173.1,164.2l0.2,0.05c0.1,0.5,0.15,1.25,0.15,2.25
	c0,1.267-0.117,2.1-0.35,2.5h-0.25l-0.05-0.95c-0.167-0.1-0.25-0.35-0.25-0.75c0.1-1.033,0.15-1.683,0.15-1.95v-1.15
	c0.2-0.034,0.3,0,0.3,0.1C173.067,164.3,173.1,164.267,173.1,164.2z"/>
<path fill-rule="evenodd" clip-rule="evenodd" fill="#DFFFFF" fill-opacity="0.498" d="M173,164.85c0-0.533,0.083-0.85,0.25-0.95
	c0.267,0.267,0.4,0.867,0.4,1.8l-0.05,4.85c-0.067,0.067-0.117,0.184-0.15,0.35c0,0.167-0.05,0.283-0.15,0.35h-0.15l-0.1-0.65
	l-0.2,0.7h-0.2l-0.05-0.3l0.2-1.7c0-2.066-0.066-3.466-0.2-4.2v-0.25H173z"/>
</svg>
