<?xml version="1.0" encoding="utf-8"?>
<!-- Generator: Adobe Illustrator 16.0.0, SVG Export Plug-In . SVG Version: 6.00 Build 0)  -->
<!DOCTYPE svg PUBLIC "-//W3C//DTD SVG 1.1//EN" "http://www.w3.org/Graphics/SVG/1.1/DTD/svg11.dtd">
<svg version="1.1" id="Selected_Items" xmlns="http://www.w3.org/2000/svg" xmlns:xlink="http://www.w3.org/1999/xlink" x="0px"
	 y="0px" width="550px" height="400px" viewBox="0 0 550 400" enable-background="new 0 0 550 400" xml:space="preserve">
<path fill-rule="evenodd" clip-rule="evenodd" fill="#666666" d="M205,169.65c0.133-0.167,0.233-0.4,0.3-0.7
	c0.2-0.133,0.7-0.284,1.5-0.45c0.833-0.2,1.35-0.35,1.55-0.45c0.367-0.233,1.2-0.716,2.5-1.45c0.967-0.567,1.633-1.017,2-1.35
	c0.4-0.367,1.65-1.267,3.75-2.7c1.867-1.433,2.8-2.5,2.8-3.2c0-0.667-0.55-1.133-1.65-1.4c-1.367-0.3-2.917,0.167-4.65,1.4
	c-0.6,0.3-2.467,1.417-5.6,3.35c-0.8,0.466-2.317,1.617-4.55,3.45c-2.333,1.867-3.5,2.917-3.5,3.15c0,0.434,0.417,0.75,1.25,0.95
	h2.8C204.2,170.217,204.7,170.017,205,169.65z M198.5,169.3c0-0.6,1.35-1.966,4.05-4.1c1.767-1.4,3.4-2.617,4.9-3.65
	c2.767-1.966,5.417-3.35,7.95-4.15c3.3-1,4.95-0.333,4.95,2c0,0.767-0.6,1.65-1.8,2.65c-1.6,1.233-2.833,2.167-3.7,2.8
	c-0.167,0.1-0.667,0.533-1.5,1.3c-0.667,0.633-1.333,1.117-2,1.45l-4.4,2.35c0,0.433-1.1,0.867-3.3,1.3h-3.2
	c-0.7-0.1-1.217-0.383-1.55-0.85C198.633,170.067,198.5,169.7,198.5,169.3z"/>
<path fill-rule="evenodd" clip-rule="evenodd" fill="#666666" d="M199,170.35l0.05-0.4c0.067,0,0.167-0.034,0.3-0.1
	c0.267,0,1.5,1.1,3.7,3.3h2.7c2.967-0.467,6.417-2.017,10.35-4.65c3.933-2.633,5.9-4.7,5.9-6.2c0-0.533-0.917-1.783-2.75-3.75
	c0-1.3,0.617-1.167,1.85,0.4c1.233,1.6,1.85,2.733,1.85,3.4c0,1.767-1.967,4.017-5.9,6.75c-3.9,2.733-7.617,4.417-11.15,5.05h-3.2
	C200.233,171.983,199,170.717,199,170.35z"/>
<path fill-rule="evenodd" clip-rule="evenodd" fill="#999999" d="M222.2,162c0,0.367-0.133,0.55-0.4,0.55
	c-0.4,0-0.716-0.216-0.95-0.65c-0.167-0.467-0.283-0.733-0.35-0.8c-0.067,0.566-0.8,1.433-2.2,2.6c-2.1,1.7-3.3,2.7-3.6,3
	c0.333,0.167,0.5,0.333,0.5,0.5c0,0.133-0.65,0.533-1.95,1.2c-1.3,0.667-2.083,1-2.35,1c-0.3,0-0.5-0.083-0.6-0.25
	c-0.066-0.1-0.1-0.2-0.1-0.3c0-0.267,0.133-0.45,0.4-0.55c0.4-0.167,0.767-0.466,1.1-0.9c0.1-0.133,0.367-0.4,0.8-0.8
	c0.4-0.333,0.65-0.6,0.75-0.8c0.167-0.367,0.967-0.9,2.4-1.6c0.233-0.133,0.483-0.4,0.75-0.8c0.2-0.367,0.533-0.617,1-0.75
	c0.7-0.233,1.267-0.7,1.7-1.4c0.167-0.267,0.417-0.783,0.75-1.55C220.317,158.633,221.1,159.4,222.2,162z"/>
<path fill-rule="evenodd" clip-rule="evenodd" fill="#999999" d="M212.6,167.7c0,0.7-1.517,1.566-4.55,2.6
	c-0.7,0.233-2.517,0.767-5.45,1.6c0.033,0.033,0.15,0.2,0.35,0.5c0.167,0.2,0.283,0.3,0.35,0.3c0.367,0,0.717-0.083,1.05-0.25
	c0.333-0.167,0.55-0.25,0.65-0.25c0.3,0,0.45,0.183,0.45,0.55c0,0.6-0.684,0.9-2.05,0.9c-0.6,0-1.583-0.867-2.95-2.6
	c0-0.267,0.233-0.4,0.7-0.4c0.167,0,0.434,0.067,0.8,0.2c2.133,0,4.216-0.6,6.25-1.8c0.133-0.066,0.917-0.517,2.35-1.35
	C211.917,167.033,212.6,167.033,212.6,167.7z"/>
<path fill-rule="evenodd" clip-rule="evenodd" fill="#999999" d="M221.1,165c-0.867,1.267-1.684,1.9-2.45,1.9
	c-0.433,0-0.65-0.15-0.65-0.45c0-0.1,0.367-0.483,1.1-1.15c0.833-0.7,1.3-1.133,1.4-1.3c1.133-2.133,1.7-2.567,1.7-1.3
	C222.2,163.133,221.833,163.9,221.1,165z"/>
<path fill-rule="evenodd" clip-rule="evenodd" fill="#999999" d="M217.8,167.55c-1.566,1.167-2.483,1.75-2.75,1.75
	c-0.267,0-0.433-0.083-0.5-0.25c-0.033-0.066-0.05-0.167-0.05-0.3c0.933-0.8,1.867-1.55,2.8-2.25c1.867-1.367,2.8-1.717,2.8-1.05
	C220.1,165.683,219.333,166.383,217.8,167.55z"/>
<path fill-rule="evenodd" clip-rule="evenodd" fill="#999999" d="M211.15,172.05c-2.9,1.167-4.883,1.75-5.95,1.75
	c-0.467,0-0.767-0.05-0.9-0.15c-0.066-0.033-0.1-0.133-0.1-0.3c0-0.2,0.7-0.5,2.1-0.9c2.1-0.567,3.5-0.983,4.2-1.25
	c0.367-0.133,1.383-0.833,3.05-2.1c1.534-1.033,2.3-1.167,2.3-0.4C215.85,169.067,214.283,170.183,211.15,172.05z"/>
<path fill-rule="evenodd" clip-rule="evenodd" fill="#999999" d="M214.8,169.8c-0.833,0.567-1.367,0.85-1.6,0.85
	c-0.467,0-0.7-0.15-0.7-0.45c2.4-2.267,3.6-2.8,3.6-1.6C216.1,168.8,215.667,169.2,214.8,169.8z"/>
<path fill-rule="evenodd" clip-rule="evenodd" fill="#999999" d="M221.6,161.7c0,1-0.133,1.733-0.4,2.2
	c-0.2,0.333-0.733,0.833-1.6,1.5c-0.867,0.667-1.684,1.267-2.45,1.8c-1.467,1.033-2.433,1.55-2.9,1.55
	c-1.2,0.767-2.483,1.55-3.85,2.35c-2.7,1.533-4.533,2.3-5.5,2.3c-0.3,0-0.767-0.167-1.4-0.5c-0.667-0.333-1-0.6-1-0.8
	c0-0.3,1.033-0.817,3.1-1.55c0.767-0.267,1.933-0.633,3.5-1.1c1.066-0.434,2.15-0.967,3.25-1.6c1.233-0.733,2.066-1.333,2.5-1.8
	c1.1-1.3,2.6-2.517,4.5-3.65c0.4-0.267,0.583-0.6,0.55-1c0-0.4,0.033-0.633,0.1-0.7C220.467,160.167,221,160.5,221.6,161.7z"/>
<path fill-rule="evenodd" clip-rule="evenodd" fill="#999999" d="M208.6,171.75c0-0.3,0.783-0.767,2.35-1.4
	c0.167-0.067,0.4-0.167,0.7-0.3c0.233-0.133,0.383-0.267,0.45-0.4c0.2-0.4,0.483-0.566,0.85-0.5c0.333,0.067,0.5,0.217,0.5,0.45
	s-0.267,0.467-0.8,0.7c-0.8,0.333-1.233,0.517-1.3,0.55l-2.45,1.2c-0.167,0-0.267-0.05-0.3-0.15V171.75z"/>
<path fill-rule="evenodd" clip-rule="evenodd" fill="#999999" d="M201.7,166.85c2-1.867,3-2.434,3-1.7c0,0.067-0.85,0.767-2.55,2.1
	c-1.2,0.967-1.883,1.667-2.05,2.1c0.467,0.233,1.45,0.35,2.95,0.35c0.467,0,0.817-0.133,1.05-0.4c0.233-0.267,0.417-0.4,0.55-0.4
	c0.2-0.033,0.65-0.183,1.35-0.45c0.633-0.2,1.033-0.3,1.2-0.3c0.2,0,0.316,0.1,0.35,0.3c0,0.133-0.283,0.316-0.85,0.55
	c-0.667,0.267-1.083,0.467-1.25,0.6c-0.233,0.2-0.5,0.35-0.8,0.45c-0.5,0.2-1.316,0.3-2.45,0.3c-1.233,0-2.05-0.133-2.45-0.4
	c-0.2-0.133-0.3-0.367-0.3-0.7c0-0.4,0.216-0.783,0.65-1.15C200.767,167.633,201.3,167.217,201.7,166.85z"/>
<path fill-rule="evenodd" clip-rule="evenodd" fill="#999999" d="M214.8,159c0,0.167-0.733,0.65-2.2,1.45
	c-1.867,1-3.117,1.733-3.75,2.2c-1.4,1.033-2.267,1.65-2.6,1.85c-0.167,0.1-0.683,0.45-1.55,1.05c-0.667,0.5-1.083,0.75-1.25,0.75
	c-0.167,0-0.267-0.05-0.3-0.15V166c0-0.4,0.733-1.083,2.2-2.05c0.733-0.5,1.65-1.083,2.75-1.75c0.533-0.434,1.566-1.083,3.1-1.95
	c1.733-1.033,2.833-1.55,3.3-1.55C214.7,158.7,214.8,158.8,214.8,159z"/>
<path fill-rule="evenodd" clip-rule="evenodd" fill="#999999" d="M219.3,158.95c0,0.566-0.233,0.85-0.7,0.85
	c-0.2,0-0.35-0.1-0.45-0.3c-0.066-0.233-0.117-0.367-0.15-0.4c-0.4-0.3-0.667-0.517-0.8-0.65c-1.5,0.633-2.617,0.95-3.35,0.95
	c-0.233,0-0.35-0.117-0.35-0.35c0-0.233,0.467-0.517,1.4-0.85c0.934-0.367,1.717-0.55,2.35-0.55l0.9,0.05
	c0.3,0,0.583,0.167,0.85,0.5C219.2,158.467,219.3,158.717,219.3,158.95z"/>
<path fill-rule="evenodd" clip-rule="evenodd" fill="#999999" d="M219.55,159.3c0,0.534-0.233,0.8-0.7,0.8
	c-0.233,0-0.35-0.15-0.35-0.45c0-0.1,0.067-0.267,0.2-0.5c0.167-0.3,0.316-0.45,0.45-0.45C219.483,158.7,219.617,158.9,219.55,159.3
	z"/>
<path fill-rule="evenodd" clip-rule="evenodd" fill="#999999" d="M217.8,161.25c-0.267,0-0.4-0.1-0.4-0.3
	c0-0.067,0.15-0.233,0.45-0.5c0.167-0.133,0.367-0.3,0.6-0.5c0.267-0.4,0.45-0.633,0.55-0.7c0.233-0.2,0.35-0.067,0.35,0.4
	C218.883,160.717,218.367,161.25,217.8,161.25z"/>
<path fill-rule="evenodd" clip-rule="evenodd" fill="#999999" d="M217.4,161.55c-0.2,0-0.3-0.05-0.3-0.15v-0.15
	c1.333-1.667,2-2.033,2-1.1C218.3,161.083,217.733,161.55,217.4,161.55z"/>
<path fill-rule="evenodd" clip-rule="evenodd" fill="#999999" d="M215.6,163.1c-0.2,0-0.317-0.05-0.35-0.15v-0.15
	c0-0.066,0.233-0.3,0.7-0.7c0.533-0.5,0.983-0.833,1.35-1c0.167-0.067,0.517-0.417,1.05-1.05c0.5-0.433,0.75-0.4,0.75,0.1
	C217.3,162.117,216.133,163.1,215.6,163.1z"/>
<path fill-rule="evenodd" clip-rule="evenodd" fill="#999999" d="M218.7,160.8c0,0.467-1.717,1.883-5.15,4.25
	c-0.9,0.7-1.8,1.35-2.7,1.95c-1.8,1.2-3.133,1.8-4,1.8c-0.3,0-0.45-0.1-0.45-0.3c0-0.033,0.467-0.267,1.4-0.7
	c1.067-0.5,1.733-0.85,2-1.05c0.733-0.533,1.75-1.217,3.05-2.05c1.5-1.067,2.533-1.75,3.1-2.05c0.066-0.033,0.433-0.417,1.1-1.15
	c0.667-0.667,1.117-1,1.35-1C218.6,160.5,218.7,160.6,218.7,160.8z"/>
<path fill-rule="evenodd" clip-rule="evenodd" fill="#999999" d="M202.8,167.75c-0.2,0.167-0.383,0.25-0.55,0.25
	c-0.133,0-0.217-0.05-0.25-0.15v-0.15c0-0.167,0.183-0.35,0.55-0.55c0.333-0.233,0.5-0.167,0.5,0.2
	C203.05,167.45,202.967,167.583,202.8,167.75z"/>
<path fill-rule="evenodd" clip-rule="evenodd" fill="#999999" d="M218.55,159.5c0,0.5-0.283,0.983-0.85,1.45
	c-0.9,0.767-1.483,1.333-1.75,1.7c-0.4,0.467-1.617,1.45-3.65,2.95l-4.6,3c-0.367,0.233-1.217,0.517-2.55,0.85
	c-1.566,0.4-2.383,0.617-2.45,0.65h-1.9c-0.767-0.1-1.15-0.483-1.15-1.15c0-0.3,0.117-0.534,0.35-0.7c0.4-0.2,0.75-0.417,1.05-0.65
	c0.667-0.533,1.383-1.017,2.15-1.45l4.3-2.7c0.967-0.6,2.383-1.534,4.25-2.8c1.7-1.066,3.3-1.833,4.8-2.3h0.4
	C217.983,158.35,218.517,158.733,218.55,159.5z"/>
<path fill-rule="evenodd" clip-rule="evenodd" fill="#666666" d="M220.55,158.9c0,0.6-0.233,1.184-0.7,1.75l-1.8,2
	c-0.8,1-2.183,2.117-4.15,3.35c-2.233,1.267-4,2.217-5.3,2.85c-2.1,1-4.05,1.683-5.85,2.05h-2.45c-0.433-0.2-0.65-0.35-0.65-0.45
	c0-0.333,0.25-0.45,0.75-0.35h2.25c0.9-0.3,2.017-0.65,3.35-1.05c1.1-0.367,2.117-0.85,3.05-1.45c0.534-0.367,1.567-0.833,3.1-1.4
	c0.633-0.367,1.567-0.983,2.8-1.85c0.867-0.5,1.583-1.117,2.15-1.85c0.367-0.4,0.883-1.083,1.55-2.05c0.367-0.5,0.667-1.167,0.9-2
	c0-0.767,0.25-0.967,0.75-0.6c0.2,0.2,0.3,0.383,0.3,0.55C220.6,158.467,220.583,158.633,220.55,158.9z"/>
<path fill-rule="evenodd" clip-rule="evenodd" fill="#666666" d="M223.05,162.4l-0.5,1.75c-0.3,0.733-0.733,1.333-1.3,1.8
	l-4.45,3.15c-1.133,0.533-2.05,1-2.75,1.4c-1.367,0.933-2.216,1.467-2.55,1.6c-1.267,0.6-2.167,1.033-2.7,1.3
	c-0.867,0.4-2.316,0.667-4.35,0.8h-1.55l-0.4-0.45c0-0.3,0.133-0.417,0.4-0.35h1.45c1.767-0.133,2.75-0.233,2.95-0.3
	c0.5-0.233,0.967-0.467,1.4-0.7c1.833-0.8,2.783-1.217,2.85-1.25c0.333-0.2,0.733-0.483,1.2-0.85c0.467-0.267,0.917-0.5,1.35-0.7
	c0.933-0.4,1.783-0.867,2.55-1.4c0.133-0.1,0.5-0.383,1.1-0.85c0.367-0.333,0.75-0.6,1.15-0.8c1-0.633,1.717-1.167,2.15-1.6
	c0.267-0.3,0.567-0.9,0.9-1.8c0.066-0.367,0.267-0.717,0.6-1.05C222.883,161.7,223.05,161.8,223.05,162.4z"/>
<path fill-rule="evenodd" clip-rule="evenodd" fill="#666666" d="M219.05,160.65l-1-0.1c-1.466,0-3.316,0.684-5.55,2.05
	c-2.133,1.5-3.433,2.383-3.9,2.65c-1.934,1.133-3.217,2.017-3.85,2.65c-0.267,0.233-0.75,0.783-1.45,1.65
	c-0.633,0.733-0.983,1.1-1.05,1.1c-0.167,0-0.25-0.117-0.25-0.35c0-0.233,0.367-0.783,1.1-1.65c0.667-0.767,1.117-1.217,1.35-1.35
	c0.466-0.367,1.833-1.316,4.1-2.85c1.034-0.767,2.434-1.65,4.2-2.65c0.633-0.466,1.4-0.867,2.3-1.2c0.367-0.2,0.784-0.333,1.25-0.4
	l1.3-0.3h0.5c0.9,0,1.35,0.15,1.35,0.45C219.45,160.55,219.317,160.65,219.05,160.65z"/>
<path fill-rule="evenodd" clip-rule="evenodd" fill="#666666" d="M206.15,165.9c-1.1,0.434-1.983,0.867-2.65,1.3l-1.95,1.05
	c-1.1,0.733-1.683,1.1-1.75,1.1l-0.25-0.05l-0.05-0.2c5.367-3.5,8.05-4.767,8.05-3.8C207.55,165.333,207.083,165.533,206.15,165.9z"
	/>
<path fill-rule="evenodd" clip-rule="evenodd" fill="#666666" d="M212.25,162.4c0,0.133-0.45,0.317-1.35,0.55
	c-1.1,0.3-1.8,0.533-2.1,0.7c-1.767,0.767-2.966,1.15-3.6,1.15c-0.133,0-0.217-0.033-0.25-0.1l-0.05-0.15c0-0.133,0.9-0.5,2.7-1.1
	c1.767-0.633,3.233-1.083,4.4-1.35C212.133,162.2,212.217,162.3,212.25,162.4z"/>
<path fill-rule="evenodd" clip-rule="evenodd" fill="#666666" d="M218.9,160.1c-0.066,0.066-0.117,0.1-0.15,0.1
	c-0.5-0.333-0.933-0.5-1.3-0.5l-0.2,0.05l-1.05,0.1l-0.15,0.1l-0.5,0.05c-0.667,0.033-1.383,0.133-2.15,0.3
	c-0.733,0.133-1.117,0.2-1.15,0.2c-0.233,0-0.383-0.033-0.45-0.1v-0.15c0-0.067,0.567-0.217,1.7-0.45
	c1.133-0.2,1.967-0.316,2.5-0.35l0.15-0.1c1-0.434,1.95-0.25,2.85,0.55C219,159.933,218.967,160,218.9,160.1z"/>
</svg>
