<?xml version="1.0" encoding="utf-8"?>
<!-- Generator: Adobe Illustrator 16.0.0, SVG Export Plug-In . SVG Version: 6.00 Build 0)  -->
<!DOCTYPE svg PUBLIC "-//W3C//DTD SVG 1.1//EN" "http://www.w3.org/Graphics/SVG/1.1/DTD/svg11.dtd">
<svg version="1.1" id="Selected_Items" xmlns="http://www.w3.org/2000/svg" xmlns:xlink="http://www.w3.org/1999/xlink" x="0px"
	 y="0px" width="550px" height="400px" viewBox="0 0 550 400" enable-background="new 0 0 550 400" xml:space="preserve">
<path fill-rule="evenodd" clip-rule="evenodd" fill="#480000" d="M303.2,163.55c0.233-0.933,0.45-1.4,0.649-1.4
	c0.301,0,0.551,0.783,0.75,2.35c0,0.433-0.316,0.833-0.949,1.2c-0.867,0.5-2.117,0.75-3.75,0.75c-1.034,0-1.767-0.467-2.2-1.4
	l-0.351-1.4c0-0.4,0.15-0.867,0.45-1.4c0.334-0.567,0.517-0.433,0.55,0.4c0,0.434,0.184,0.867,0.551,1.3c0.566,0.667,1.483,1,2.75,1
	C302.417,164.95,302.934,164.483,303.2,163.55z"/>
<path fill-rule="evenodd" clip-rule="evenodd" fill="#480000" d="M299,162.5c-0.167,0.3-0.25,0.533-0.25,0.7
	c0,0.1,0.167,0.283,0.5,0.55s0.5,0.467,0.5,0.6c0,0.3-0.167,0.45-0.5,0.45c-0.5,0-0.884-0.267-1.15-0.8
	c-0.166-0.533-0.25-0.817-0.25-0.85c0-0.733,0.233-1.316,0.7-1.75c0.467-0.4,0.7-0.283,0.7,0.35
	C299.25,161.95,299.167,162.2,299,162.5z"/>
<path fill-rule="evenodd" clip-rule="evenodd" fill="#480000" d="M304.5,163.35c-0.066,0.233-0.25,0.35-0.55,0.35
	c-0.4,0-0.584-0.133-0.55-0.4l0.149-0.45c0-0.1-0.2-0.3-0.6-0.6c-0.4-0.3-0.601-0.533-0.601-0.7c0-0.533,0.367-0.566,1.101-0.1
	c0.7,0.433,1.05,0.883,1.05,1.35C304.5,163.133,304.5,163.317,304.5,163.35z"/>
<path fill-rule="evenodd" clip-rule="evenodd" fill="#480000" d="M301.35,167.45c0,0.533-0.199,1.1-0.6,1.7
	c-0.6,0.867-1.417,1.3-2.45,1.3c-1.467,0-2.434-0.65-2.899-1.95l-0.301-1.95c0-1.1,0.551-1.85,1.65-2.25c1.066-0.4,1.6-0.3,1.6,0.3
	c0,0.066-0.383,0.316-1.149,0.75c-0.8,0.433-1.2,0.816-1.2,1.15c0,1.567,0.616,2.55,1.85,2.95h0.801c1-0.7,1.517-1.067,1.55-1.1
	c0.133-0.133,0.2-0.434,0.2-0.9c-0.167-0.633-0.25-1.034-0.25-1.2c0-0.4,0.166-0.6,0.5-0.6
	C301.083,165.65,301.316,166.25,301.35,167.45z"/>
<path fill-rule="evenodd" clip-rule="evenodd" fill="#480000" d="M298.55,160.4c0.033,0.033,0.05,0.133,0.05,0.3
	c0,0.4-0.133,0.6-0.399,0.6c-0.167,0-0.316-0.066-0.45-0.2c-0.6-0.1-1.066,0.05-1.4,0.45l-0.35,0.7c0,0.233,0.217,0.617,0.65,1.15
	c0.399,0.5,0.6,0.783,0.6,0.85c0,0.3-0.217,0.45-0.65,0.45c-0.566,0-0.983-0.4-1.25-1.2l-0.25-1.2c0-0.367,0.117-0.75,0.351-1.15
	c0.399-0.667,1.066-1,2-1C298.05,160.15,298.417,160.233,298.55,160.4z"/>
<path fill-rule="evenodd" clip-rule="evenodd" fill="#480000" d="M289.35,159.1c0-1.367,0.667-2.267,2-2.7c1.334-0.433,2-0.3,2,0.4
	c0,0.5-0.583,0.65-1.75,0.45c-0.233,0.067-0.517,0.333-0.85,0.8c-0.333,0.467-0.5,0.8-0.5,1c0,0.867,0.667,1.667,2,2.4h2.15
	c0.066-0.034,0.267-0.25,0.6-0.65c0.3-0.367,0.566-0.55,0.8-0.55c0.3,0,0.45,0.167,0.45,0.5c0,0.267-0.2,0.583-0.6,0.95
	c-0.567,0.5-1.317,0.75-2.25,0.75c-1.634,0-2.801-0.55-3.5-1.65L289.35,159.1z"/>
<path fill-rule="evenodd" clip-rule="evenodd" fill="#480000" d="M291.05,164.95c0.566,0.5,1.4,0.75,2.5,0.75l1.351-0.2
	c0.3,0,0.449,0.167,0.449,0.5c0,0.233-0.083,0.4-0.25,0.5c-0.267,0.133-0.783,0.2-1.55,0.2c-1.666,0-2.816-0.417-3.45-1.25
	c-0.333-0.434-0.5-0.917-0.5-1.45c0-0.733,0.417-1.483,1.25-2.25c0.834-0.8,1.25-0.8,1.25,0c0-0.033-0.267,0.3-0.8,1
	c-0.533,0.733-0.8,1.167-0.8,1.3C290.5,164.317,290.684,164.617,291.05,164.95z"/>
<path fill-rule="evenodd" clip-rule="evenodd" fill="#480000" d="M298.45,169.4c0.333-0.167,0.85,0.2,1.55,1.1
	c0.333,0.333,0.5,0.85,0.5,1.55c0,1.767-0.7,2.65-2.1,2.65c-1.2,0-2.017-0.383-2.45-1.15c-0.2-0.767-0.3-1.167-0.3-1.2
	c0-0.5,0.116-1,0.35-1.5c0.333-0.733,0.833-1.1,1.5-1.1c0.167,0,0.35,0.067,0.55,0.2C298.083,169.95,298.217,169.767,298.45,169.4z
	 M297,173.2c0.333,0.333,0.667,0.5,1,0.5h0.85c0.134-0.133,0.284-0.383,0.45-0.75c0.2-0.4,0.3-0.7,0.3-0.9
	c0-0.2-0.166-0.45-0.5-0.75c-0.433-0.367-0.767-0.667-1-0.9c-0.6,0.567-0.949,0.917-1.05,1.05c-0.3,0.333-0.45,0.65-0.45,0.95
	C296.6,172.6,296.733,172.867,297,173.2z"/>
<path fill-rule="evenodd" clip-rule="evenodd" fill="#480000" d="M303,166.85c1.566,0.867,2.35,1.767,2.35,2.7
	c0,0.467-0.166,0.95-0.5,1.45c-0.6,0.867-1.583,1.3-2.949,1.3c-0.9,0-1.483-0.05-1.75-0.15c-0.167-0.066-0.25-0.2-0.25-0.4
	c0-0.267,0.083-0.417,0.25-0.45h1.6c1.033,0,1.783-0.283,2.25-0.85c0.267-0.333,0.4-0.65,0.4-0.95c0-0.6-0.634-1.217-1.9-1.85
	c-1.267-0.6-1.9-0.917-1.9-0.95C300.6,165.967,301.4,166.017,303,166.85z"/>
<path fill-rule="evenodd" clip-rule="evenodd" fill="#480000" d="M307.1,160.55c0,0.5-0.149,1.017-0.449,1.55
	c-0.434,0.733-1.017,1.1-1.75,1.1c-0.301,0-0.483-0.067-0.551-0.2v-0.25c0-0.2,0.317-0.483,0.95-0.85
	c0.601-0.367,0.884-0.816,0.851-1.35C306.783,159.217,307.1,159.217,307.1,160.55z"/>
<path fill-rule="evenodd" clip-rule="evenodd" fill="#480000" d="M310.1,159.05c-0.666-0.5-1-0.833-1-1
	c0-0.767,0.483-0.733,1.45,0.1c0.967,0.833,1.45,1.6,1.45,2.3c0,0.533-0.15,1.083-0.45,1.65c-0.533,0.967-1.383,1.45-2.55,1.45
	c-0.967,0-1.717-0.2-2.25-0.6c-0.4-0.3-0.6-0.55-0.6-0.75c0-0.3,0.183-0.45,0.55-0.45c0.133,0,0.366,0.133,0.7,0.4
	c0.366,0.267,0.899,0.4,1.6,0.4s1.267-0.35,1.7-1.05c0.2-0.333,0.333-0.683,0.399-1.05C311.1,160.017,310.767,159.55,310.1,159.05z"
	/>
<path fill-rule="evenodd" clip-rule="evenodd" fill="#480000" d="M302.75,167.15c-0.267-0.433-0.4-0.883-0.4-1.35v-0.45
	c0.034-0.233,0.184-0.35,0.45-0.35c0.033,0,0.283,0.35,0.75,1.05c0.5,0.733,0.816,1.15,0.95,1.25h0.85
	c1.034-0.367,1.684-0.783,1.95-1.25c0.134-0.2,0.25-0.683,0.351-1.45c0.133-0.967,0.35-1.5,0.649-1.6s0.45,0.183,0.45,0.85
	c0,0.066-0.2,0.833-0.6,2.3c-0.667,1.434-1.717,2.15-3.15,2.15C303.934,168.3,303.184,167.917,302.75,167.15z"/>
<path fill-rule="evenodd" clip-rule="evenodd" fill="#480000" d="M312.35,161.15c0.834,0.767,1.25,1.533,1.25,2.3
	c0,1.733-1.066,2.6-3.199,2.6c-1.067,0-1.767-0.167-2.101-0.5c-0.133-0.333-0.2-0.517-0.2-0.55c0-0.333,0.15-0.5,0.45-0.5
	c0.101,0,0.25,0.1,0.45,0.3c0.233,0.167,0.684,0.25,1.35,0.25c1.601,0,2.367-0.55,2.301-1.65c0-0.4-0.25-0.833-0.75-1.3
	c-0.534-0.467-0.801-0.75-0.801-0.85C311.1,160.417,311.517,160.383,312.35,161.15z"/>
<path fill-rule="evenodd" clip-rule="evenodd" fill="#480000" d="M312.5,166.1c0,0.933-0.083,1.617-0.25,2.05
	c-0.434,1.033-1.3,1.55-2.6,1.55c-0.934,0-1.65-0.284-2.15-0.85c-0.4-0.467-0.6-1.017-0.6-1.65c0-0.367,0.166-0.55,0.5-0.55
	c0.267,0,0.483,0.35,0.649,1.05c0.134,0.667,0.65,1,1.55,1c1.134,0,1.75-0.317,1.851-0.95c-0.066-0.7-0.066-1.15,0-1.35
	c0.3-0.867,0.55-1.267,0.75-1.2C312.4,165.267,312.5,165.567,312.5,166.1z"/>
<path fill-rule="evenodd" clip-rule="evenodd" fill="#480000" d="M307.75,168.8l-0.25,1.25c0,0.3,0.184,0.617,0.55,0.95
	c0.4,0.367,0.867,0.55,1.4,0.55c0.633,0,1.05-0.5,1.25-1.5c0.2-1.033,0.416-1.55,0.649-1.55c0.434,0,0.601,0.35,0.5,1.05
	c0,0.534-0.133,1.083-0.399,1.65c-0.434,0.9-1.101,1.35-2,1.35c-0.867,0-1.566-0.283-2.101-0.85c-0.5-0.5-0.75-1.05-0.75-1.65
	c0-0.2,0.101-0.816,0.301-1.85c0.433-0.1,0.699-0.067,0.8,0.1C307.733,168.333,307.75,168.5,307.75,168.8z"/>
<path fill-rule="evenodd" clip-rule="evenodd" fill="#480000" d="M302.65,173.4c-0.5-0.767-0.75-1.167-0.75-1.2
	c0-0.5,0.399-0.45,1.199,0.15c1.034,0.8,1.7,1.2,2,1.2c0.601,0,1.101-0.316,1.5-0.95c0.367-0.633,0.617-0.95,0.75-0.95
	c0.434,0,0.601,0.184,0.5,0.55c0,0.367-0.216,0.816-0.649,1.35c-0.566,0.667-1.267,1-2.101,1
	C304.167,174.55,303.35,174.167,302.65,173.4z"/>
<path fill-rule="evenodd" clip-rule="evenodd" fill="#480000" d="M304.6,170.25c0-0.333,0.45-0.517,1.351-0.55
	c0.866-0.034,1.3,0.15,1.3,0.55c0,0.2-0.083,0.333-0.25,0.4c-0.134,0.033-0.5,0.05-1.1,0.05c-0.733,0-1.167-0.083-1.301-0.25V170.25
	z"/>
<path fill-rule="evenodd" clip-rule="evenodd" fill="#480000" d="M309.55,172.05c0.3-0.1,0.533,0.1,0.7,0.6
	c0.066,0.3,0.1,0.817,0.1,1.55c0,0.066-0.033,0.566-0.1,1.5c-0.333,0.9-1.1,1.35-2.3,1.35c-1.033,0-1.767-0.383-2.2-1.15
	c-0.233-0.8-0.35-1.217-0.35-1.25c0-0.433,0.166-0.65,0.5-0.65c0.166,0,0.366,0.35,0.6,1.05c0.267,0.7,0.566,1.05,0.9,1.05
	c1.033,0,1.683-0.317,1.949-0.95c0.034-0.633,0.051-0.967,0.051-1c0-0.167-0.084-0.683-0.25-1.55
	C309.15,172.3,309.283,172.117,309.55,172.05z"/>
<path fill-rule="evenodd" clip-rule="evenodd" fill="#480000" d="M304.1,174.95c-0.566,0.566-1.216,0.85-1.949,0.85
	c-0.9,0-1.667-0.283-2.301-0.85c-0.466-0.434-0.699-0.75-0.699-0.95c0-0.333,0.166-0.5,0.5-0.5c0.033,0,0.316,0.217,0.85,0.65
	c0.533,0.434,1.05,0.65,1.55,0.65c0.267,0,0.851-0.333,1.75-1c0.634-0.5,0.95-0.466,0.95,0.1
	C304.75,174.133,304.533,174.483,304.1,174.95z"/>
<path fill-rule="evenodd" clip-rule="evenodd" fill="#480000" d="M302.15,176.65c-0.367-0.4-0.551-0.75-0.551-1.05
	c0-0.6,0.301-0.65,0.9-0.15c0.9,0.733,1.55,1.1,1.95,1.1c0.8,0,1.267-0.167,1.399-0.5c0.134-0.367,0.334-0.55,0.601-0.55
	c0.467,0,0.649,0.183,0.55,0.55c0,0.267-0.2,0.567-0.6,0.9c-0.5,0.4-1.101,0.6-1.801,0.6
	C303.533,177.55,302.717,177.25,302.15,176.65z"/>
<path fill-rule="evenodd" clip-rule="evenodd" fill="#480000" d="M303.1,177.2c0.134-0.367,0.284-0.55,0.45-0.55
	c0.467,0,0.65,0.184,0.55,0.55c0,0.3-0.116,0.6-0.35,0.9c-0.333,0.4-0.767,0.6-1.3,0.6c-1.566,0-2.584-0.333-3.05-1
	c-0.167-0.7-0.25-1.067-0.25-1.1c0-0.533,0.199-1.033,0.6-1.5c0.4-0.434,0.6-0.333,0.6,0.3c0,0.167-0.083,0.567-0.25,1.2
	c0,0.733,0.784,1.1,2.351,1.1C302.717,177.7,302.934,177.533,303.1,177.2z"/>
<path fill-rule="evenodd" clip-rule="evenodd" fill="#480000" d="M295.8,169.8c-1.899,0-3.2-0.517-3.899-1.55
	c-0.367-0.5-0.551-1.067-0.551-1.7c0-0.167,0.134-0.316,0.4-0.45c0.267-0.167,0.467-0.05,0.6,0.35l0.351,1.05
	c0.5,0.833,1.267,1.283,2.3,1.35c0.9,0.1,1.35,0.233,1.35,0.4C296.217,169.617,296.033,169.8,295.8,169.8z"/>
<path fill-rule="evenodd" clip-rule="evenodd" fill="#480000" d="M291.45,166.15c0.399,0,0.583,0.167,0.55,0.5
	c0,0.367-0.167,0.8-0.5,1.3c-0.434,0.667-1,1-1.7,1c-1.166,0-1.967-0.5-2.399-1.5c-0.2-0.967-0.301-1.467-0.301-1.5
	c0-0.9,0.483-1.567,1.45-2c0.967-0.467,1.45-0.3,1.45,0.5c0,0.4-0.134,0.6-0.4,0.6l-0.5-0.35c-0.5,0-0.833,0.2-1,0.6
	c-0.066,0.167-0.1,0.383-0.1,0.65c0,0.833,0.467,1.5,1.4,2h0.699c0.034-0.034,0.233-0.367,0.601-1
	C290.967,166.417,291.217,166.15,291.45,166.15z"/>
<path fill-rule="evenodd" clip-rule="evenodd" fill="#480000" d="M289.9,168.7c0.466-0.4,0.699-0.3,0.699,0.3
	c0,0.1-0.083,0.25-0.25,0.45c-0.166,0.2-0.25,0.333-0.25,0.4c0,0.167,0.117,0.433,0.351,0.8c0.3,0.467,0.616,0.7,0.95,0.7l1.6-0.05
	c0.167-0.1,0.434-0.45,0.8-1.05c0.334-0.567,0.617-0.85,0.851-0.85c0.3,0,0.449,0.167,0.449,0.5c0,0.367-0.183,0.8-0.55,1.3
	c-0.566,0.733-1.35,1.1-2.35,1.1c-1.3,0-2.2-0.4-2.7-1.2c-0.233-0.8-0.35-1.217-0.35-1.25C289.15,169.45,289.4,169.067,289.9,168.7z
	"/>
<path fill-rule="evenodd" clip-rule="evenodd" fill="#480000" d="M296,172.75c0,0.433-0.15,0.867-0.45,1.3c-0.5,0.667-1.233,1-2.2,1
	c-1.199,0-2.1-0.433-2.699-1.3c-0.367-0.9-0.551-1.367-0.551-1.4c0-0.7,0.15-1.05,0.45-1.05s0.45,0.333,0.45,1
	c0,0.233,0.217,0.567,0.65,1c0.533,0.5,1.1,0.75,1.699,0.75c0.834,0,1.367-0.333,1.601-1c0.233-0.7,0.434-1.05,0.6-1.05
	C295.95,172,296.1,172.25,296,172.75z"/>
<path fill-rule="evenodd" clip-rule="evenodd" fill="#480000" d="M295.4,172.8c-0.334,0-0.517-0.133-0.551-0.4
	c-0.066-0.367-0.116-0.566-0.149-0.6c-0.134-0.133-0.367-0.233-0.7-0.3c-0.233-0.033-0.35-0.15-0.35-0.35
	c0-0.566,0.366-0.683,1.1-0.35c0.733,0.333,1.1,0.75,1.1,1.25C295.95,172.55,295.8,172.8,295.4,172.8z"/>
<path fill-rule="evenodd" clip-rule="evenodd" fill="#480000" d="M297.2,175.1c-0.4,0.3-0.601,0.566-0.601,0.8
	c0,0.267,0.084,0.55,0.25,0.85c0.267,0.467,0.667,0.7,1.2,0.7c0.4,0,0.65-0.05,0.75-0.15c0.134-0.1,0.217-0.15,0.25-0.15
	c0.367,0,0.55,0.167,0.55,0.5c0,0.2-0.149,0.383-0.449,0.55c-0.301,0.167-0.65,0.25-1.051,0.25c-1.1,0-1.833-0.417-2.199-1.25
	c-0.167-0.867-0.25-1.317-0.25-1.35c0-0.6,0.35-1.167,1.05-1.7c0.7-0.5,1.05-0.433,1.05,0.2
	C297.75,174.55,297.566,174.8,297.2,175.1z"/>
<path fill-rule="evenodd" clip-rule="evenodd" fill="#480000" d="M295.85,177.55c-0.933,0-1.666-0.417-2.199-1.25
	c-0.367-0.566-0.551-1.017-0.551-1.35c0-0.8,0.4-0.633,1.2,0.5c0.7,0.966,1.467,1.517,2.3,1.65
	C296.6,177.4,296.35,177.55,295.85,177.55z"/>
<path fill-rule="evenodd" clip-rule="evenodd" fill="#1C3700" d="M305.8,154.45c-0.666-0.133-1.1-0.233-1.3-0.3
	c-0.233-0.1-0.35-0.233-0.35-0.4c0-0.333,0.283-0.5,0.85-0.5l1,0.2l3.65,0.05c1.066,0.1,1.6,0.333,1.6,0.7
	c0,0.167-0.967,0.9-2.9,2.2c0.601,1.1,0.9,1.983,0.9,2.65c0,0.267-0.05,0.417-0.15,0.45c-0.267,0.133-1.1,0.267-2.5,0.4
	c-0.366,1.434-0.767,2.15-1.199,2.15c-1.167-0.5-1.784-0.75-1.851-0.75c-0.166,0-0.75,0.367-1.75,1.1c-1,0.7-1.533,1.05-1.6,1.05
	c-0.7,0-1.05-0.9-1.05-2.7c-1.233-0.033-2.2-0.1-2.9-0.2c-1.267-0.2-1.616-0.75-1.05-1.65c-0.267-0.133-0.8-0.533-1.601-1.2
	c-0.833-0.7-1.25-1.1-1.25-1.2c0-0.267,0.434-0.583,1.301-0.95c0.466-0.167,1.216-0.433,2.25-0.8c-0.134-0.433-0.517-0.867-1.15-1.3
	c-0.6-0.4-0.9-0.733-0.9-1c0-0.4,0.967-0.717,2.9-0.95c1.9-0.2,2.85-0.067,2.85,0.4c0,0.233-0.116,0.383-0.35,0.45
	c-0.467,0.1-1.733,0.233-3.8,0.4c0.233,0.167,0.55,0.483,0.95,0.95c0.466,0.533,0.699,0.917,0.699,1.15c0,0.3-0.416,0.65-1.25,1.05
	c-0.966,0.4-1.55,0.65-1.75,0.75l-0.199,0.05c0.566,0.433,1.433,1.033,2.6,1.8c0,0.1-0.134,0.417-0.4,0.95l3.4,0.2
	c0.467,0,0.717,0.317,0.75,0.95c0.033,0.967,0.066,1.5,0.1,1.6c1.267-1.367,2.334-2.05,3.2-2.05c0.033,0,0.283,0.133,0.75,0.4
	c0.5,0.267,0.8,0.4,0.9,0.4c0.3-0.7,0.5-1.333,0.6-1.9c0.134-0.167,0.917-0.25,2.351-0.25v-0.45c-0.301-0.567-0.5-0.95-0.601-1.15
	c-0.133-0.267-0.2-0.6-0.2-1c0-0.333,0.134-0.617,0.4-0.85c0.2-0.133,0.616-0.417,1.25-0.85L305.8,154.45z"/>
<path fill-rule="evenodd" clip-rule="evenodd" fill="#1C3700" d="M299.4,152.7c-0.4,0-0.684-0.1-0.851-0.3l-0.149-0.3
	c0-0.4,0.267-0.55,0.8-0.45c0.533,0.133,0.8,0.317,0.8,0.55C300,152.533,299.8,152.7,299.4,152.7z"/>
<path fill-rule="evenodd" clip-rule="evenodd" fill="#482400" d="M302.8,157.8c-0.967,0-1.7-0.283-2.2-0.85
	c-0.333-0.367-0.5-0.684-0.5-0.95c0-0.467,0.617-0.383,1.851,0.25c1.2,0.633,1.8,1,1.8,1.1C303.75,157.65,303.434,157.8,302.8,157.8
	z"/>
<path fill-rule="evenodd" clip-rule="evenodd" fill="#482400" d="M304.85,153.75c-0.399,2.7-0.866,4.05-1.399,4.05
	c-0.267,0-0.434-0.083-0.5-0.25c-0.033-0.066-0.05-0.167-0.05-0.3c0-0.1,0.166-0.633,0.5-1.6c0.333-0.933,0.5-1.583,0.5-1.95
	c-0.467-2.233-1.233-3.35-2.301-3.35l-1.25,0.05l-0.399,0.1c0.333,0.567,0.85,1.25,1.55,2.05c0.333,0.333,0.5,0.8,0.5,1.4
	c0,0.333-0.083,0.783-0.25,1.35c-0.233,0.767-0.517,1.15-0.85,1.15c-0.267,0-0.434-0.1-0.5-0.3c0-0.167,0-0.267,0-0.3
	c0-0.067,0.116-0.35,0.35-0.85c0.233-0.533,0.35-0.917,0.35-1.15c0-0.367-0.366-0.95-1.1-1.75c-0.767-0.8-1.15-1.434-1.15-1.9
	c0-0.3,0.084-0.517,0.25-0.65c0.267-0.267,0.767-0.383,1.5-0.35c0.7,0,1.217,0.117,1.551,0.35c0.5,0.2,0.866,0.417,1.1,0.65
	c0.1,0.066,0.316,0.316,0.65,0.75C304.533,151.75,304.85,152.683,304.85,153.75z"/>
<path fill-rule="evenodd" clip-rule="evenodd" fill="#77003C" d="M299.45,160.95c0,0.167-0.2,0.4-0.601,0.7
	c-0.433,0.333-0.683,0.684-0.75,1.05c-0.199,1.033-0.517,1.55-0.949,1.55c-0.334,0-0.667-0.25-1-0.75
	c-0.301-0.433-0.45-0.767-0.45-1c0-0.333,0.017-0.533,0.05-0.6c0.066-0.167,0.25-0.367,0.55-0.6c0.3-0.3,0.566-0.466,0.8-0.5
	c0.367-0.1,0.801-0.133,1.301-0.1c0.333-0.133,0.517-0.2,0.55-0.2C299.283,160.5,299.45,160.65,299.45,160.95z"/>
<path fill-rule="evenodd" clip-rule="evenodd" fill="#77003C" d="M303.7,162.95c0,0.867-0.434,1.55-1.3,2.05
	c-0.667,0.367-1.351,0.55-2.051,0.55c-0.733,0-1.233-0.25-1.5-0.75c-0.133-0.233-0.199-0.517-0.199-0.85l0.05-0.7
	c0-0.3,0.033-0.5,0.1-0.6c0.066-0.066,0.101-0.117,0.101-0.15l-0.101-0.4c0-0.267,0.134-0.4,0.4-0.4c0.1,0,0.267,0.167,0.5,0.5
	c0.2,0.267,0.35,0.517,0.45,0.75c0.699-0.534,1.383-0.95,2.05-1.25c0.166-0.1,0.383-0.083,0.649,0.05
	c0.233,0.1,0.417,0.233,0.551,0.4C303.6,162.35,303.7,162.617,303.7,162.95z"/>
<path fill-rule="evenodd" clip-rule="evenodd" fill="#77003C" d="M295.8,163.1c0.434,0.5,0.65,0.967,0.65,1.4
	c0,0.4-0.3,0.783-0.9,1.15c-0.666,0.4-1.416,0.6-2.25,0.6c-0.733,0-1.45-0.283-2.149-0.85c-0.634-0.533-0.95-0.967-0.95-1.3
	c0-0.267,0.25-0.733,0.75-1.4c0.5-0.667,0.833-1,1-1l1.45,0.2c0.733,0,1.233-0.066,1.5-0.2c0.267,0,0.466,0.183,0.6,0.55
	C295.634,162.75,295.733,163.033,295.8,163.1z"/>
<path fill-rule="evenodd" clip-rule="evenodd" fill="#77003C" d="M302.65,167c-0.267,0-0.5-0.117-0.7-0.35l-0.25-0.35
	c0-0.333,0.25-0.45,0.75-0.35c0.467,0.1,0.7,0.3,0.7,0.6C303.15,166.85,302.983,167,302.65,167z"/>
<path fill-rule="evenodd" clip-rule="evenodd" fill="#77003C" d="M296.7,167.15c0,0.233,0.149,0.55,0.45,0.95
	c0.333,0.433,0.666,0.65,1,0.65c0.466,0,0.899-0.2,1.3-0.6c0.3-0.333,0.45-0.583,0.45-0.75c0-0.1-0.034-0.183-0.101-0.25
	c-0.066-0.033-0.1-0.133-0.1-0.3c-0.733,0.033-1.3-0.083-1.7-0.35c-0.066-0.067-0.25-0.283-0.55-0.65
	C296.95,165.817,296.7,166.25,296.7,167.15z M296.35,165.55c0.267-0.333,0.733-0.6,1.4-0.8l0.5,0.8c0.2,0.333,0.5,0.5,0.9,0.5
	c1.033-0.033,1.55,0.417,1.55,1.35c0,0.4-0.2,0.833-0.601,1.3c-0.533,0.566-1.183,0.85-1.949,0.85c-0.733,0-1.317-0.367-1.75-1.1
	c-0.334-0.534-0.5-0.95-0.5-1.25C295.9,166.467,296.05,165.917,296.35,165.55z"/>
<path fill-rule="evenodd" clip-rule="evenodd" fill="#77003C" d="M299.45,168.25c-0.5,0.467-0.983,0.7-1.45,0.7
	c-0.634,0-1.05-0.3-1.25-0.9c-0.066-0.633-0.1-0.966-0.1-1c0.166-0.7,0.25-1.183,0.25-1.45c0-0.533,0.517-0.4,1.55,0.4
	c0.767,0.233,1.233,0.4,1.399,0.5c0.2,0.133,0.301,0.35,0.301,0.65C300.15,167.45,299.917,167.817,299.45,168.25z"/>
<path fill-rule="evenodd" clip-rule="evenodd" fill="#77003C" d="M297.4,167.45c0,0.333-0.134,0.5-0.4,0.5
	c-0.2,0-0.333-0.167-0.4-0.5l-0.05-0.5c0-0.534,0.033-0.867,0.101-1c0.166-0.4,0.35-0.534,0.55-0.4c0.166,0.133,0.25,0.3,0.25,0.5
	L297.4,167.45z"/>
<path fill-rule="evenodd" clip-rule="evenodd" fill="#77003C" d="M291.2,165.85c0.1,0.066,0.149,0.2,0.149,0.4
	c0,0.167-0.149,0.5-0.449,1c-0.034,0.2-0.084,0.367-0.15,0.5c-0.167,0.233-0.5,0.35-1,0.35c-0.767,0-1.316-0.417-1.65-1.25
	c-0.199-0.833-0.3-1.267-0.3-1.3c0-0.733,0.467-1.1,1.4-1.1c0.333,0,0.583,0.117,0.75,0.35c0.2,0.333,0.366,0.534,0.5,0.6
	C290.95,165.667,291.2,165.817,291.2,165.85z"/>
<path fill-rule="evenodd" clip-rule="evenodd" fill="#77003C" d="M295,166.45c0.4,0,0.65,0.7,0.75,2.1c0,0.367-0.384,0.55-1.15,0.55
	c-0.833,0-1.483-0.35-1.949-1.05c-0.334-0.5-0.5-0.917-0.5-1.25c0-0.367,0.149-0.5,0.449-0.4c0.667,0.167,1.051,0.25,1.15,0.25
	C294.184,166.65,294.6,166.583,295,166.45z"/>
<path fill-rule="evenodd" clip-rule="evenodd" fill="#77003C" d="M289.95,169.2c0.033-0.1,0.184-0.3,0.45-0.6
	c0.166-0.233,0.399-0.4,0.699-0.5c0.233-0.333,0.417-0.467,0.551-0.4c0.133,0.033,0.316,0.183,0.55,0.45
	c0.3,0.333,0.533,0.55,0.7,0.65c0.199,0.1,0.6,0.267,1.199,0.5c0.233,0.067,0.351,0.217,0.351,0.45c0,0.367-0.2,0.767-0.601,1.2
	c-0.5,0.5-1.066,0.75-1.699,0.75c-1.467,0-2.2-0.633-2.2-1.9V169.2z"/>
<path fill-rule="evenodd" clip-rule="evenodd" fill="#77003C" d="M297.15,170.1c0,0.133-0.134,0.3-0.4,0.5
	c-0.267,0.2-0.417,0.35-0.45,0.45c-0.033,0.1-0.066,0.25-0.1,0.45c-0.101,0.2-0.25,0.3-0.45,0.3c-0.267,0-0.533-0.183-0.8-0.55
	l-0.351-0.55c0-0.967,0.417-1.45,1.25-1.45C296.283,169.25,296.717,169.533,297.15,170.1z"/>
<path fill-rule="evenodd" clip-rule="evenodd" fill="#77003C" d="M294.75,173.6c-0.467,0.433-1,0.65-1.6,0.65
	c-0.667,0-1.267-0.283-1.801-0.85c-0.433-0.433-0.649-0.767-0.649-1s0.35-0.4,1.05-0.5c0.934-0.167,1.667-0.4,2.2-0.7
	c0.467-0.3,0.934,0.167,1.399,1.4C295.35,172.9,295.15,173.233,294.75,173.6z"/>
<path fill-rule="evenodd" clip-rule="evenodd" fill="#77003C" d="M298.8,170.65c0.267,0.333,0.417,0.517,0.45,0.55
	c0.434,0.333,0.65,0.65,0.65,0.95c0,0.333-0.101,0.684-0.301,1.05c-0.333,0.5-0.816,0.75-1.449,0.75c-0.567,0-1.017-0.25-1.351-0.75
	c-0.233-0.333-0.35-0.633-0.35-0.9c0-0.3,0.133-0.683,0.399-1.15c0.367-0.633,0.801-0.95,1.301-0.95
	C298.35,170.2,298.566,170.35,298.8,170.65z"/>
<path fill-rule="evenodd" clip-rule="evenodd" fill="#77003C" d="M296.25,173.4c0.333,0.133,0.5,0.367,0.5,0.7
	c0,0.2-0.116,0.433-0.35,0.7c-0.267,0.233-0.4,0.55-0.4,0.95l0.2,0.85c0,0.3-0.15,0.45-0.45,0.45c-0.5,0-0.983-0.283-1.45-0.85
	c-0.399-0.5-0.6-0.883-0.6-1.15c0-0.4,0.2-0.633,0.6-0.7c0.533-0.067,0.884-0.25,1.05-0.55
	C295.583,173.4,295.884,173.267,296.25,173.4z"/>
<path fill-rule="evenodd" clip-rule="evenodd" fill="#77003C" d="M294.55,157.7c0.601,0.533,0.9,0.883,0.9,1.05
	c0,0.1-0.101,0.367-0.3,0.8c0,0.067,0.116,0.3,0.35,0.7c0,0.267-0.167,0.567-0.5,0.9c-0.434,0.4-0.967,0.6-1.6,0.6
	c-2.167,0-3.25-1.033-3.25-3.1c0-0.367,0.216-0.733,0.649-1.1c0.533-0.5,1.25-0.75,2.15-0.75
	C293.35,156.8,293.884,157.1,294.55,157.7z"/>
<path fill-rule="evenodd" clip-rule="evenodd" fill="#77003C" d="M301.45,166.75c0.133,0,0.5,0.217,1.1,0.65
	c0.3,0,0.533,0.033,0.7,0.1c0.033,0.033,0.217,0.167,0.55,0.4c0.4,0.267,0.65,0.517,0.75,0.75c0.066,0.1,0.101,0.333,0.101,0.7
	c0,0.5-0.217,0.95-0.65,1.35c-0.634,0.533-1.55,0.8-2.75,0.8c-0.467,0-0.9-0.233-1.3-0.7c-0.334-0.367-0.5-0.65-0.5-0.85
	c0-0.067,0.233-0.284,0.7-0.65c0.433-0.367,0.649-0.667,0.649-0.9c0-0.566,0-0.867,0-0.9C300.866,167,301.083,166.75,301.45,166.75z
	"/>
<path fill-rule="evenodd" clip-rule="evenodd" fill="#77003C" d="M301,171.55c-0.366,0-0.65-0.117-0.85-0.35
	c-0.167-0.2-0.25-0.383-0.25-0.55c0-0.533,0.25-0.617,0.75-0.25s0.75,0.617,0.75,0.75C301.4,171.417,301.267,171.55,301,171.55z"/>
<path fill-rule="evenodd" clip-rule="evenodd" fill="#77003C" d="M302.25,172.15c0.1,0.1,0.267,0.317,0.5,0.65
	c0.6,0.4,0.9,0.767,0.9,1.1c0,0.3-0.25,0.567-0.75,0.8c-0.467,0.2-0.983,0.3-1.551,0.3c-0.5,0-0.899-0.183-1.199-0.55
	c-0.2-0.267-0.301-0.467-0.301-0.6c0-0.167,0.051-0.333,0.15-0.5c0.167-0.3,0.267-0.517,0.3-0.65c-0.166-0.167-0.25-0.284-0.25-0.35
	c0-0.267,0.15-0.4,0.45-0.4C301.566,171.95,302.15,172.017,302.25,172.15z"/>
<path fill-rule="evenodd" clip-rule="evenodd" fill="#77003C" d="M298.55,174.4l0.7-0.1c0.366,0,0.65,0.233,0.85,0.7
	c0,0.133-0.083,0.317-0.25,0.55c-0.166,0.2-0.25,0.434-0.25,0.7l0.101,0.7c0,0.167-0.184,0.316-0.55,0.45
	c-0.4,0.133-0.817,0.2-1.25,0.2c-0.733,0-1.217-0.233-1.45-0.7c-0.101-0.2-0.15-0.467-0.15-0.8v-0.5
	c0.033-0.167,0.134-0.35,0.3-0.55c0.034-0.066,0.2-0.2,0.5-0.4c0.334-0.233,0.601-0.35,0.801-0.35L298.55,174.4z"/>
<path fill-rule="evenodd" clip-rule="evenodd" fill="#77003C" d="M303.85,161c0.434,0,0.967,0.35,1.601,1.05
	c0,0.133-0.084,0.284-0.25,0.45c-0.2,0.167-0.434,0.25-0.7,0.25c-0.4,0-0.75-0.2-1.05-0.6c-0.267-0.333-0.4-0.583-0.4-0.75
	C303.05,161.133,303.316,161,303.85,161z"/>
<path fill-rule="evenodd" clip-rule="evenodd" fill="#77003C" d="M304.25,163.4c-0.066-0.066-0.1-0.167-0.1-0.3
	c0-0.3,0.233-0.434,0.699-0.4c0.233,0,0.517,0.017,0.851,0.05c0.066-0.033,0.149-0.15,0.25-0.35c0.1-0.133,0.3-0.133,0.6,0
	c0.033,0.067,0.334,0.25,0.9,0.55c0.467,0.267,0.7,0.466,0.7,0.6c0,0.267-0.184,0.4-0.551,0.4c-0.199,0-0.466-0.083-0.8-0.25
	l-0.45-0.25c-0.133,0.1-0.449,0.15-0.949,0.15C304.8,163.6,304.417,163.533,304.25,163.4z"/>
<path fill-rule="evenodd" clip-rule="evenodd" fill="#77003C" d="M304.55,164.3c-0.3-0.367-0.45-0.633-0.45-0.8
	c0-0.367,0.101-0.517,0.301-0.45c0.371,0.133,0.604,0.216,0.699,0.25c0-0.066,0.284-0.1,0.851-0.1c0.366,0,0.616,0.05,0.75,0.15
	c0.166,0.066,0.399,0.1,0.7,0.1c0.433,0,0.633,0.2,0.6,0.6c0,0.667-0.167,1.317-0.5,1.95c-0.533,0.933-1.35,1.383-2.45,1.35
	c0,0.066-0.133,0.1-0.399,0.1c-0.2,0-0.483-0.25-0.851-0.75l-0.5-0.8c0-0.133,0.217-0.383,0.65-0.75
	C304.35,164.783,304.55,164.5,304.55,164.3z"/>
<path fill-rule="evenodd" clip-rule="evenodd" fill="#77003C" d="M307.65,160.25c-0.134,1.233-0.4,1.85-0.801,1.85
	c-0.267,0-0.399-0.15-0.399-0.45c0-0.2,0.05-0.483,0.149-0.85c0.101-0.433,0.2-0.716,0.301-0.85c0.166-0.367,0.466-0.583,0.899-0.65
	c0.233-0.033,0.5-0.033,0.8,0c0.7-0.233,1.051-0.133,1.051,0.3C309.65,160.067,308.983,160.283,307.65,160.25z"/>
<path fill-rule="evenodd" clip-rule="evenodd" fill="#77003C" d="M310.15,159.45c0,0.4-0.134,0.6-0.4,0.6
	c-0.066,0-0.25-0.316-0.55-0.95l-0.4-0.95c0-0.233,0.15-0.35,0.45-0.35C309.583,157.8,309.884,158.35,310.15,159.45z"/>
<path fill-rule="evenodd" clip-rule="evenodd" fill="#77003C" d="M310.85,159.2c0.267,0.367,0.4,0.683,0.4,0.95
	c0,0.5-0.184,1-0.55,1.5c-0.533,0.7-1.25,1.05-2.15,1.05c-0.566,0-1-0.15-1.3-0.45c-0.2-0.233-0.3-0.433-0.3-0.6
	c0.166-0.5,0.25-0.816,0.25-0.95c0-0.367,0.217-0.617,0.649-0.75c0.301-0.1,0.967-0.267,2-0.5c-0.466-0.267-0.699-0.483-0.699-0.65
	c0-0.233,0.149-0.35,0.449-0.35C310.066,158.45,310.483,158.7,310.85,159.2z"/>
<path fill-rule="evenodd" clip-rule="evenodd" fill="#77003C" d="M312.4,164.45c-0.301,0.4-0.7,0.667-1.2,0.8h-1.45
	c-0.866-0.3-1.3-0.65-1.3-1.05c0-0.667,0.35-1,1.05-1c0.833,0,1.384-0.367,1.65-1.1c0.233-0.633,0.566-0.633,1,0
	c0.399,0.566,0.6,1.05,0.6,1.45C312.75,163.85,312.634,164.15,312.4,164.45z"/>
<path fill-rule="evenodd" clip-rule="evenodd" fill="#77003C" d="M311.25,165.5c0.434,0,0.634,0.15,0.6,0.45
	c0,1.933-0.649,2.9-1.949,2.9c-1.5,0-2.25-0.567-2.25-1.7l0.35-1.05c-0.1-0.133-0.15-0.233-0.15-0.3c0-0.367,0.15-0.5,0.45-0.4
	c0.667,0.2,1.167,0.3,1.5,0.3c0.566,0,0.9-0.034,1-0.1C310.9,165.533,311.05,165.5,311.25,165.5z"/>
<path fill-rule="evenodd" clip-rule="evenodd" fill="#77003C" d="M305.1,169.1c0-0.167-0.066-0.317-0.199-0.45
	c-0.134-0.133-0.2-0.25-0.2-0.35c0-0.233,0.166-0.35,0.5-0.35l0.55,0.1c0.1,0,0.233-0.1,0.4-0.3c0.199-0.2,0.433-0.3,0.699-0.3
	s0.4,0.15,0.4,0.45c0,1.367-0.5,2.05-1.5,2.05c-0.467,0-0.717-0.117-0.75-0.35C305.066,169.333,305.1,169.167,305.1,169.1z"/>
<path fill-rule="evenodd" clip-rule="evenodd" fill="#77003C" d="M307.8,168.8c0.033,0,0.217,0.083,0.55,0.25
	c0.434,0.167,0.934,0.25,1.5,0.25l0.851-0.1c0.3,0,0.45,0.167,0.45,0.5c0,0.4-0.117,0.783-0.351,1.15
	c-0.366,0.566-0.934,0.85-1.7,0.85c-0.833,0-1.366-0.284-1.6-0.85c-0.1-0.233-0.15-0.6-0.15-1.1v-0.55
	C307.384,168.933,307.533,168.8,307.8,168.8z"/>
<path fill-rule="evenodd" clip-rule="evenodd" fill="#77003C" d="M303.35,172.95c-0.333-0.367-0.5-0.684-0.5-0.95
	c0-0.233,0.117-0.383,0.351-0.45c0.366-0.1,0.666-0.25,0.899-0.45c0.634-0.567,0.983-0.817,1.051-0.75
	c0.267,0.2,0.416,0.3,0.449,0.3c0.101,0,0.384-0.066,0.851-0.2c0.333,0,0.666,0.383,1,1.15c0,0.233-0.267,0.633-0.8,1.2
	c-0.601,0.6-1.117,0.9-1.551,0.9C304.366,173.7,303.783,173.45,303.35,172.95z"/>
<path fill-rule="evenodd" clip-rule="evenodd" fill="#77003C" d="M307.6,176.25c-0.466,0-0.883-0.333-1.25-1
	c-0.267-0.5-0.399-0.867-0.399-1.1c0-0.167,0.166-0.383,0.5-0.65l0.649-0.5c0.367-0.7,0.601-1.1,0.7-1.2l1.75,0.65l0.05,1.2
	C309.6,175.383,308.934,176.25,307.6,176.25z"/>
<path fill-rule="evenodd" clip-rule="evenodd" fill="#77003C" d="M303.2,176.35c-0.367-0.267-0.55-0.533-0.55-0.8
	c0-0.167,0.1-0.267,0.3-0.3c0.3-0.067,0.533-0.2,0.7-0.4c0.033-0.133,0.149-0.267,0.35-0.4c0.233-0.2,0.5-0.284,0.8-0.25
	c0.733-0.167,1.101,0.066,1.101,0.7l0.1,0.9c0,0.7-0.35,1.05-1.05,1.05C304.217,176.85,303.634,176.683,303.2,176.35z"/>
<path fill-rule="evenodd" clip-rule="evenodd" fill="#77003C" d="M300.9,175.35c0.166,0.066,0.316,0.1,0.449,0.1
	c0.233,0,0.617,0.316,1.15,0.95c0.2,0.2,0.417,0.367,0.65,0.5c0.133,0.1,0.199,0.217,0.199,0.35c0,0.2-0.05,0.333-0.149,0.4
	c-0.033,0.033-0.233,0.1-0.601,0.2h-1.35c-0.866-0.033-1.3-0.533-1.3-1.5l0.1-0.5c-0.066-0.1-0.1-0.184-0.1-0.25
	c0-0.267,0.166-0.4,0.5-0.4C300.583,175.2,300.733,175.25,300.9,175.35z"/>
<path fill-rule="evenodd" clip-rule="evenodd" fill="#480000" d="M293.75,161.35c0.3,0,0.616-0.05,0.95-0.15
	c0.333-0.133,0.55-0.2,0.649-0.2c0.2,0,0.317,0.083,0.351,0.25c0,0.233-0.717,0.567-2.15,1h-1.75l-0.5-0.05l-0.35-0.35l0.149-0.25
	c-0.767-0.4-1.149-0.717-1.149-0.95s0.083-0.3,0.25-0.2c0.066,0.066,0.2,0.2,0.399,0.4c0.434,0.167,1.017,0.333,1.75,0.5H293.75z"/>
<path fill-rule="evenodd" clip-rule="evenodd" fill="#480000" d="M296.7,164.7c-0.434,0-0.834-0.483-1.2-1.45
	c-0.3-0.967-0.45-1.467-0.45-1.5c0-0.2,0.101-0.35,0.3-0.45c0.2-0.066,0.317,0.067,0.351,0.4c0,0.367,0.083,0.667,0.25,0.9
	c0.066,0.1,0.283,0.35,0.649,0.75c0.334,0.433,0.5,0.733,0.5,0.9C297.1,164.55,296.967,164.7,296.7,164.7z"/>
<path fill-rule="evenodd" clip-rule="evenodd" fill="#480000" d="M298.1,163.9c-0.399,0.767-0.866,1.15-1.399,1.15
	c-0.233,0-0.351-0.083-0.351-0.25l0.5-0.3c0.367-0.267,0.667-0.633,0.9-1.1l0.25-0.75c0.066-0.133,0.167-0.25,0.3-0.35
	c0.167-0.066,0.25,0,0.25,0.2C298.55,162.833,298.4,163.3,298.1,163.9z"/>
<path fill-rule="evenodd" clip-rule="evenodd" fill="#480000" d="M298.35,163.05c-0.133,0-0.216-0.066-0.25-0.2l-0.05-0.25
	c0-0.4,0.233-0.783,0.7-1.15c0.467-0.4,0.7-0.383,0.7,0.05C299.45,161.6,299.083,162.117,298.35,163.05z"/>
<path fill-rule="evenodd" clip-rule="evenodd" fill="#480000" d="M292.25,166.25c-0.434,0-1-0.3-1.7-0.9c-0.666-0.567-1-0.934-1-1.1
	c0-0.367,0.15-0.4,0.45-0.1c0.467,0.467,0.733,0.717,0.8,0.75c0.033,0.033,0.351,0.2,0.95,0.5c0.5,0.233,0.75,0.434,0.75,0.6
	L292.25,166.25z"/>
<path fill-rule="evenodd" clip-rule="evenodd" fill="#480000" d="M292,166.25c0.134,0.033,0.2,0.1,0.2,0.2
	c0,0.367-0.25,0.816-0.75,1.35c-0.5,0.5-0.884,0.75-1.15,0.75l-0.2-0.05l-0.05-0.2c0-0.167,0.2-0.383,0.601-0.65
	c0.433-0.3,0.683-0.5,0.75-0.6l0.199-0.65C291.733,166.267,291.866,166.217,292,166.25z"/>
<path fill-rule="evenodd" clip-rule="evenodd" fill="#480000" d="M295.85,166.1c0,0.233-0.267,0.383-0.8,0.45h-1.45
	c-0.833-0.167-1.366-0.233-1.6-0.2l-0.25-0.25c0.1-0.167,0.184-0.25,0.25-0.25h0.55l0.15,0.1h0.399l0.601,0.1h1.3
	c0.1-0.033,0.283-0.1,0.55-0.2C295.717,165.85,295.816,165.933,295.85,166.1z"/>
<path fill-rule="evenodd" clip-rule="evenodd" fill="#480000" d="M292.7,167.95c0.6,0.566,1.283,0.85,2.05,0.85l0.75-0.1
	c0.167,0,0.267,0.1,0.3,0.3c0,0.2-0.35,0.3-1.05,0.3c-0.833,0-1.583-0.316-2.25-0.95c-0.533-0.5-0.8-0.85-0.8-1.05
	c0-0.133,0.1-0.2,0.3-0.2C292.033,167.1,292.267,167.383,292.7,167.95z"/>
<path fill-rule="evenodd" clip-rule="evenodd" fill="#480000" d="M296.5,169.15c-0.066,0.067-0.134,0.1-0.2,0.1
	c-0.267,0-0.517-0.35-0.75-1.05c-0.2-0.7-0.3-1.067-0.3-1.1c0-0.434,0.033-0.717,0.1-0.85c0.134-0.2,0.301,0.083,0.5,0.85
	c0,0.167,0.134,0.5,0.4,1c0.233,0.467,0.35,0.75,0.35,0.85C296.6,169.017,296.566,169.083,296.5,169.15z"/>
<path fill-rule="evenodd" clip-rule="evenodd" fill="#480000" d="M290.1,168.45c0,0.1-0.05,0.267-0.149,0.5
	c-0.101,0.233-0.15,0.433-0.15,0.6c0,0.3,0.217,0.667,0.65,1.1c0.5,0.5,1.1,0.75,1.8,0.75c0.467,0,0.9-0.167,1.3-0.5
	c0.4-0.367,0.617-0.55,0.65-0.55c0.133,0,0.217,0.1,0.25,0.3c0,0.133-0.25,0.367-0.75,0.7c-0.566,0.367-1.033,0.55-1.4,0.55
	c-1.066,0-1.883-0.383-2.45-1.15c-0.366-0.5-0.55-0.917-0.55-1.25c0-0.367,0.134-0.733,0.4-1.1S290.1,168.05,290.1,168.45z"/>
<path fill-rule="evenodd" clip-rule="evenodd" fill="#480000" d="M294.7,170.35c-0.134,0.233-0.2,0.45-0.2,0.65
	c0,0.067-0.033,0.133-0.1,0.2c-0.067,0.066-0.134,0.1-0.2,0.1c-0.134,0-0.217-0.05-0.25-0.15v-0.2c0.233-0.567,0.35-0.934,0.35-1.1
	c0-0.434,0.101-0.667,0.3-0.7c0.167-0.033,0.25,0.1,0.25,0.4C294.85,169.817,294.8,170.083,294.7,170.35z"/>
<path fill-rule="evenodd" clip-rule="evenodd" fill="#480000" d="M295.45,173.6c-0.566,0.667-1.417,1-2.55,1
	c-1.101,0-1.9-0.383-2.4-1.15c-0.3-0.467-0.45-0.917-0.45-1.35c0-0.3,0.084-0.45,0.25-0.45c0.101,0,0.2,0.167,0.3,0.5
	c0.067,0.2,0.15,0.483,0.25,0.85c0.101,0.467,0.617,0.833,1.551,1.1h1c0.833-0.333,1.383-0.633,1.649-0.9
	c0.267-0.233,0.4-0.534,0.4-0.9c0-0.133-0.233-0.4-0.7-0.8c-0.5-0.433-0.75-0.7-0.75-0.8c0-0.5,0.333-0.417,1,0.25
	c0.634,0.667,0.95,1.133,0.95,1.4C295.95,172.75,295.783,173.167,295.45,173.6z"/>
<path fill-rule="evenodd" clip-rule="evenodd" fill="#480000" d="M296.05,172.2l-0.2-0.05l-0.05-0.2c0-0.133,0.351-0.6,1.05-1.4
	c0.667-0.8,1-0.933,1-0.4L296.05,172.2z"/>
<path fill-rule="evenodd" clip-rule="evenodd" fill="#480000" d="M297.05,174.65c-0.166,0.233-0.267,0.45-0.3,0.65
	c-0.033,0.1-0.05,0.434-0.05,1l0.3,1.25l-0.05,0.25l-0.25,0.05c-0.3,0-0.467-0.25-0.5-0.75v-0.8c0-0.733,0.05-1.183,0.149-1.35
	l0.351-0.7c0.1-0.2,0.217-0.283,0.35-0.25c0.134,0.033,0.2,0.117,0.2,0.25C297.25,174.317,297.184,174.45,297.05,174.65z"/>
<path fill-rule="evenodd" clip-rule="evenodd" fill="#480000" d="M300.15,177.6c-0.067,0.066-0.117,0.1-0.15,0.1
	c-0.233,0-0.384-0.217-0.45-0.65l-0.05-0.65c0-0.433,0.2-0.867,0.6-1.3c0.4-0.4,0.601-0.383,0.601,0.05
	c-0.101,0.133-0.217,0.267-0.351,0.4c-0.233,0.333-0.35,0.617-0.35,0.85c0,0.2,0.083,0.533,0.25,1
	C300.25,177.433,300.217,177.5,300.15,177.6z"/>
<path fill-rule="evenodd" clip-rule="evenodd" fill="#480000" d="M300.05,173.05c-0.066,0-0.133-0.05-0.2-0.15l-0.05-0.15
	c0-0.367,0.15-0.683,0.45-0.95c0.3-0.267,0.45-0.216,0.45,0.15C300.7,172.017,300.483,172.383,300.05,173.05z"/>
<path fill-rule="evenodd" clip-rule="evenodd" fill="#480000" d="M304,174.2c-0.233,0-0.634-0.35-1.2-1.05
	c-0.5-0.5-0.75-0.867-0.75-1.1c0-0.466,0.367-0.3,1.101,0.5c0.733,0.8,1.1,1.25,1.1,1.35C304.217,174.1,304.134,174.2,304,174.2z"/>
<path fill-rule="evenodd" clip-rule="evenodd" fill="#480000" d="M303.3,162.6c-0.333-0.4-0.5-0.684-0.5-0.85
	c0-0.2,0.101-0.267,0.3-0.2c0.2,0.067,0.334,0.217,0.4,0.45c0.3,0.467,0.717,0.7,1.25,0.7c0.167,0,0.517-0.2,1.05-0.6
	c0.167,0,0.267,0.1,0.3,0.3c0,0.133-0.133,0.317-0.399,0.55c-0.334,0.267-0.684,0.4-1.05,0.4C304.15,163.35,303.7,163.1,303.3,162.6
	z"/>
<path fill-rule="evenodd" clip-rule="evenodd" fill="#480000" d="M308.3,164.15c-0.333,1.7-0.666,2.55-1,2.55
	c-0.133,0-0.217-0.05-0.25-0.15v-0.2c0.5-1,0.75-1.75,0.75-2.25c0-0.4-0.267-0.783-0.8-1.15s-0.8-0.567-0.8-0.6
	c0-0.167,0.133-0.25,0.399-0.25l0.601,0.35c0.434,0.233,0.717,0.45,0.85,0.65C308.217,163.333,308.3,163.683,308.3,164.15z"/>
<path fill-rule="evenodd" clip-rule="evenodd" fill="#480000" d="M306.45,173.75c-0.101,0-0.167-0.033-0.2-0.1l-0.05-0.15
	c0.533-0.7,0.833-1.1,0.899-1.2c0.167-0.466,0.351-0.8,0.551-1c0.199-0.2,0.3-0.083,0.3,0.35
	C307.483,173.05,306.983,173.75,306.45,173.75z"/>
<path fill-rule="evenodd" clip-rule="evenodd" fill="#480000" d="M308.5,157.65c0-0.2,0.083-0.3,0.25-0.3
	c0.1-0.033,0.384-0.033,0.85,0c0.267,0,0.5,0.1,0.7,0.3c0.134,0.133,0.2,0.25,0.2,0.35c0,0.033-0.033,0.083-0.1,0.15
	c-0.101,0.067-0.184,0.1-0.25,0.1c-0.233,0-0.434-0.05-0.601-0.15c-0.166-0.1-0.434-0.15-0.8-0.15
	C308.583,157.883,308.5,157.783,308.5,157.65z"/>
<path fill-rule="evenodd" clip-rule="evenodd" fill="#480000" d="M311.2,165.7h-0.5l-0.25-0.25c0-0.1,0.35-0.25,1.05-0.45
	c0.667-0.167,1-0.133,1,0.1S312.066,165.533,311.2,165.7z"/>
<path fill-rule="evenodd" clip-rule="evenodd" fill="#6C3600" d="M303.4,151.55c0.666,1.067,1,1.983,1,2.75
	c0,0.267-0.051,0.483-0.15,0.65c-0.167,0.267-0.35,0.533-0.55,0.8c0,0.267-0.05,0.517-0.15,0.75c-0.166,0.4-0.566,0.6-1.2,0.6
	c-0.366,0-0.716-0.133-1.05-0.4c-0.267-0.2-0.399-0.35-0.399-0.45l0.8-2c0-0.367-0.334-1-1-1.9c-0.667-0.9-1-1.5-1-1.8
	c0-0.167,0.05-0.267,0.149-0.3c0.101-0.033,0.4-0.15,0.9-0.35C301.717,149.667,302.6,150.217,303.4,151.55z"/>
<path fill-rule="evenodd" clip-rule="evenodd" fill="#8C4600" d="M303.85,152c0.467,0.667,0.7,1.45,0.7,2.35
	c0,0.233-0.05,0.5-0.149,0.8c-0.134,0.4-0.301,0.6-0.5,0.6c-0.2,0-0.317-0.083-0.351-0.25c0-0.167,0-0.267,0-0.3
	c0-0.2,0.05-0.417,0.15-0.65c0.066-0.233,0.1-0.433,0.1-0.6c0-0.8-0.416-1.684-1.25-2.65c-0.833-0.833-1.25-1.267-1.25-1.3
	c0-0.2,0.134-0.3,0.4-0.3c0.467,0,0.934,0.333,1.399,1C303.333,151.067,303.583,151.5,303.85,152z"/>
<path fill-rule="evenodd" clip-rule="evenodd" fill="#8C4600" d="M301.8,150.4c-0.233-0.133-0.55-0.217-0.95-0.25
	c-0.199-0.033-0.3-0.167-0.3-0.4c0-0.467,0.267-0.583,0.8-0.35c0.534,0.267,0.801,0.5,0.801,0.7
	C302.15,150.3,302.033,150.4,301.8,150.4z"/>
<path fill-rule="evenodd" clip-rule="evenodd" fill="#482400" d="M301.8,154.6l-0.1,0.75c0,0.267,0.083,0.55,0.25,0.85
	c0.166,0.367,0.399,0.55,0.7,0.55l0.3-0.15c0.1,0,0.184,0.066,0.25,0.2s0.1,0.217,0.1,0.25c0,0.167-0.316,0.267-0.95,0.3
	c-0.5,0-0.916-0.167-1.25-0.5c-0.267-0.267-0.399-0.533-0.399-0.8c0-0.033,0.133-0.383,0.399-1.05c0.034-0.2,0.15-0.383,0.351-0.55
	C301.684,154.25,301.8,154.3,301.8,154.6z"/>
<path fill-rule="evenodd" clip-rule="evenodd" fill="#482400" d="M303.45,157.25h-1.25c-0.467-0.3-0.7-0.617-0.7-0.95
	c0-0.167,0.366-0.117,1.1,0.15c0.733,0.233,1.101,0.417,1.101,0.55C303.7,157.1,303.616,157.183,303.45,157.25z"/>
<path fill-rule="evenodd" clip-rule="evenodd" fill="#482400" d="M301.6,154.75c0,0.9-0.116,1.35-0.35,1.35
	c-0.134,0-0.217-0.033-0.25-0.1l-0.05-0.15l0.149-1.15c0-1.1-0.3-2-0.899-2.7c-0.601-0.7-0.9-1.117-0.9-1.25
	c0-0.367,0.233-0.3,0.7,0.2c0.267,0.3,0.65,0.783,1.15,1.45c0.066,0.133,0.149,0.5,0.25,1.1
	C301.533,154.1,301.6,154.517,301.6,154.75z"/>
<path fill-rule="evenodd" clip-rule="evenodd" fill="#482400" d="M301.5,155c-0.167,0-0.283-0.3-0.35-0.9
	c-0.101-0.8-0.184-1.267-0.25-1.4c-0.967-1.434-1.45-2.184-1.45-2.25c0-0.333,0.267-0.233,0.8,0.3c0.467,0.433,0.8,0.817,1,1.15
	c0.2,0.5,0.35,0.9,0.45,1.2c0.033,0.1,0.05,0.4,0.05,0.9C301.783,154.667,301.7,155,301.5,155z"/>
<path fill-rule="evenodd" clip-rule="evenodd" fill="#387100" d="M299.75,152.1c0.866,0,1.366,0.75,1.5,2.25
	c0,0.233-0.15,0.566-0.45,1c-0.333,0.433-0.5,0.75-0.5,0.95c0,0.2,0.233,0.467,0.7,0.8c0.6,0.4,1.283,0.6,2.05,0.6l0.75-0.1
	c0.2,0,0.351,0.117,0.45,0.35c0,0.066-0.083,0.15-0.25,0.25h-1.55c-1.767-0.6-2.65-1.25-2.65-1.95c0-0.1,0.101-0.417,0.3-0.95
	c0.301-0.5,0.45-0.8,0.45-0.9c-0.166-0.6-0.25-1.033-0.25-1.3c0-0.033-0.166-0.15-0.5-0.35c-0.333-0.2-0.5-0.333-0.5-0.4
	C299.3,152.183,299.45,152.1,299.75,152.1z"/>
<path fill-rule="evenodd" clip-rule="evenodd" fill="#387100" d="M303.9,158.2c-0.167,0-0.267-0.034-0.301-0.1v-0.15l0.75-2.2
	l0.2-1.1c0.066-0.333,0.217-0.517,0.45-0.55c0.2-0.033,0.3,0.117,0.3,0.45C304.434,156.983,303.967,158.2,303.9,158.2z"/>
<path fill-rule="evenodd" clip-rule="evenodd" fill="#387100" d="M297,158.7c-0.233,0-0.866-0.333-1.9-1c-1-0.667-1.5-1.034-1.5-1.1
	c0-0.367,0.617-0.217,1.851,0.45c1.233,0.667,1.85,1.133,1.85,1.4C297.3,158.55,297.2,158.633,297,158.7z"/>
<path fill-rule="evenodd" clip-rule="evenodd" fill="#387100" d="M297.5,155.3c-2,1.133-3.134,1.7-3.4,1.7
	c-0.133,0-0.216-0.05-0.25-0.15v-0.15c0-0.067,0.551-0.35,1.65-0.85c1.066-0.5,1.65-0.75,1.75-0.75
	C297.417,155.1,297.5,155.167,297.5,155.3z"/>
<path fill-rule="evenodd" clip-rule="evenodd" fill="#387100" d="M297.55,155.45c0,0.267-0.083,0.4-0.25,0.4
	c-0.133,0-0.25-0.2-0.35-0.6c-0.134-0.533-0.233-0.867-0.3-1c-0.934-0.8-1.4-1.333-1.4-1.6c0-0.033,0.033-0.083,0.1-0.15
	c0.067-0.1,0.117-0.15,0.15-0.15C296.866,153.65,297.55,154.683,297.55,155.45z"/>
<path fill-rule="evenodd" clip-rule="evenodd" fill="#387100" d="M297.3,153l-0.45,0.05h-1.3c-0.166-0.066-0.25-0.167-0.25-0.3
	c0-0.167,0.167-0.283,0.5-0.35c0.167-0.066,0.417-0.133,0.75-0.2H298c0.634-0.034,1.15,0.017,1.55,0.15l0.25,0.25
	c0,0.2-0.184,0.316-0.55,0.35h-1.9L297.3,153z"/>
<path fill-rule="evenodd" clip-rule="evenodd" fill="#387100" d="M296.7,157.95c0.133,0.1,0.217,0.2,0.25,0.3
	c0,0.133-0.15,0.533-0.45,1.2h1.6l0.15-0.1c1,0.1,1.65,0.05,1.95-0.15c0.333,0,0.533,0.167,0.6,0.5c0,0.233-0.116,0.35-0.35,0.35
	l-0.851-0.1h-3.5c-0.166-0.034-0.25-0.117-0.25-0.25C295.85,159.633,296.134,159.05,296.7,157.95z"/>
<path fill-rule="evenodd" clip-rule="evenodd" fill="#387100" d="M299.95,159.6c0-0.367,0.116-0.45,0.35-0.25
	c0.2,0.167,0.334,0.383,0.4,0.65l0.1,1.25c0.134-0.267,0.4-0.583,0.8-0.95c0.467-0.466,0.834-0.7,1.101-0.7l0.25,0.15
	c0.133-0.067,0.267-0.167,0.399-0.3c0.067-0.067,0.217-0.1,0.45-0.1c0.267,0,0.4,0.066,0.4,0.2c0,0.3-0.717,0.767-2.15,1.4
	c-0.5,0.3-0.8,0.517-0.899,0.65c-0.267,0.467-0.5,0.7-0.7,0.7c-0.267,0-0.4-0.2-0.4-0.6c0-0.434,0-0.684,0-0.75L299.95,159.6z"/>
<path fill-rule="evenodd" clip-rule="evenodd" fill="#387100" d="M305.65,158.7c0.333-0.2,0.483-0.1,0.449,0.3
	c-0.366,1.467-0.649,2.2-0.85,2.2c-0.066,0-0.783-0.417-2.15-1.25c0-0.167,0.167-0.25,0.5-0.25c0.2,0,0.483,0.1,0.851,0.3
	c0.333,0.2,0.533,0.367,0.6,0.5l0.45-1.15L305.65,158.7z"/>
<path fill-rule="evenodd" clip-rule="evenodd" fill="#387100" d="M307.05,154.6c-0.366-0.067-0.967-0.1-1.8-0.1
	c-0.134,0-0.217-0.033-0.25-0.1l-0.05-0.15c0-0.1,0.1-0.183,0.3-0.25c0.333-0.1,0.917-0.067,1.75,0.1h2.7l0.25,0.25
	c0,0.133-0.4,0.417-1.2,0.85c-0.8,0.4-1.2,0.683-1.2,0.85c0,0.367,0.25,1.25,0.75,2.65c0,0.2-0.083,0.316-0.25,0.35
	c-0.267,0-0.866-0.033-1.8-0.1c-0.167-0.1-0.35-0.184-0.55-0.25c-0.101,0-0.15-0.034-0.15-0.1l0.25-0.25h0.4l0.149,0.1h0.5
	l0.551,0.1h0.35c-0.066-0.066-0.2-0.466-0.4-1.2c-0.199-0.767-0.3-1.233-0.3-1.4c0-0.233,0.217-0.483,0.65-0.75
	c0.233-0.133,0.583-0.333,1.05-0.6H307.05z"/>
<path fill-rule="evenodd" clip-rule="evenodd" fill="#387100" d="M309.25,154.7c0,0.167-0.3,0.383-0.9,0.65
	c-0.6,0.267-0.899,0.6-0.899,1c0,0.6,0.25,1.333,0.75,2.2c0,0.267-0.15,0.4-0.45,0.4l-0.85-0.25c-0.434,0-0.767,0.333-1,1
	c-0.2,0.667-0.534,1-1,1c-0.101,0-0.301-0.133-0.601-0.4c-0.233-0.233-0.416-0.45-0.55-0.65h-0.4c-0.033,0.067-0.066,0.133-0.1,0.2
	c-0.1,0.1-0.2,0.15-0.3,0.15c-0.101-0.067-0.2-0.1-0.3-0.1c-0.233,0.2-0.4,0.3-0.5,0.3l-0.5-0.1c0.033,0.133-0.051,0.367-0.25,0.7
	c-0.067,0.4-0.217,0.6-0.45,0.6s-0.4-0.167-0.5-0.5l-0.05-0.5c0-0.467,0.133-0.7,0.399-0.7v-0.1c-0.733,0-1.233-0.017-1.5-0.05
	c-0.267-0.066-0.483-0.1-0.649-0.1l-0.5-0.1c-0.267,0-0.5,0.05-0.7,0.15c-0.233,0.067-0.417,0.1-0.55,0.1
	c-0.267,0-0.434-0.067-0.5-0.2l-0.051-0.2c0-0.233,0.101-0.434,0.301-0.6c0.166-0.167,0.25-0.333,0.25-0.5
	c0-0.167-0.384-0.417-1.15-0.75c-0.767-0.333-1.15-0.583-1.15-0.75c0-0.167,0.117-0.283,0.351-0.35
	c0.166-0.033,0.55-0.133,1.149-0.3c0.334-0.133,0.767-0.367,1.301-0.7c-0.067-0.233-0.301-0.617-0.7-1.15
	c-0.367-0.533-0.55-0.833-0.55-0.9c0-0.267,0.133-0.4,0.399-0.4l0.351,0.1c0.233-0.433,0.533-0.583,0.899-0.45
	c0.233,0.066,0.55,0.183,0.95,0.35c0.066,0,0.116-0.033,0.15-0.1c0.1-0.067,0.333-0.083,0.699-0.05l0.301-0.05
	c0.533,0,0.8,0.316,0.8,0.95l-0.101,0.7l0.101,0.4c0,0.2-0.184,0.583-0.55,1.15c0,0.133,0.05,0.333,0.149,0.6
	c0.167,0.4,0.384,0.667,0.65,0.8c0.399,0.167,1.2,0.433,2.399,0.8c0.167-0.4,0.45-0.683,0.851-0.85c0.2-0.133,0.333-0.433,0.399-0.9
	c0.101-0.467,0.184-0.817,0.25-1.05c0.101-0.4,0.317-0.667,0.65-0.8h1.8l1-0.1C308.934,154.3,309.25,154.433,309.25,154.7z"/>
<path fill-rule="evenodd" clip-rule="evenodd" fill="#387100" d="M298.85,159.05c0.067,0.1,0.101,0.167,0.101,0.2
	c0,0.333-0.45,0.5-1.351,0.5c-0.3,0-0.449-0.15-0.449-0.45c0-0.2,0.066-0.316,0.199-0.35c0.167-0.067,0.567-0.1,1.2-0.1
	C298.65,158.85,298.75,158.917,298.85,159.05z"/>
<path fill-rule="evenodd" clip-rule="evenodd" fill="#1C3700" d="M296.6,159.7c-0.133,0-0.216-0.05-0.25-0.15v-0.15l1.45-1.1
	c0.934-0.667,1.4-0.783,1.4-0.35C299.2,157.983,298.333,158.567,296.6,159.7z"/>
<path fill-rule="evenodd" clip-rule="evenodd" fill="#1C3700" d="M298.55,156.85c0,0.167-0.233,0.25-0.7,0.25
	c-0.5,0-1.017-0.1-1.55-0.3c-0.467-0.167-0.7-0.283-0.7-0.35c0-0.233,0.217-0.3,0.65-0.2c0.9,0.2,1.583,0.317,2.05,0.35
	L298.55,156.85z"/>
<path fill-rule="evenodd" clip-rule="evenodd" fill="#1C3700" d="M299.35,155.25c-0.399,0-0.883-0.35-1.449-1.05l-0.7-1.05
	c0-0.367,0.1-0.433,0.3-0.2c0.134,0.133,0.366,0.4,0.7,0.8c0.066,0.1,0.333,0.333,0.8,0.7c0.4,0.333,0.6,0.517,0.6,0.55
	L299.35,155.25z"/>
<path fill-rule="evenodd" clip-rule="evenodd" fill="#1C3700" d="M300.8,161l-0.2-0.05l-0.05-0.2c0.267-0.967,0.417-1.617,0.45-1.95
	c0.033-0.833,0.134-1.216,0.3-1.15c0.134,0.033,0.2,0.3,0.2,0.8C301.366,160.15,301.134,161,300.8,161z"/>
<path fill-rule="evenodd" clip-rule="evenodd" fill="#1C3700" d="M304.95,159.85c-0.066,0.066-0.117,0.1-0.15,0.1
	s-0.517-0.633-1.45-1.9c0-0.4,0.284-0.283,0.851,0.35c0.566,0.6,0.85,1.017,0.85,1.25C305.05,159.683,305.017,159.75,304.95,159.85z
	"/>
<path fill-rule="evenodd" clip-rule="evenodd" fill="#1C3700" d="M306.9,158.25l-1.2-0.8c-0.566-0.367-0.851-0.617-0.851-0.75
	c0-0.467,0.4-0.4,1.2,0.2c0.367,0.333,0.75,0.7,1.15,1.1C307.2,158.1,307.1,158.183,306.9,158.25z"/>
<path fill-rule="evenodd" clip-rule="evenodd" fill="#1C3700" d="M307.45,155.05c0,0.2-0.267,0.3-0.8,0.3
	c-0.301,0-0.45-0.017-0.45-0.05c-0.733,0-1.101-0.083-1.101-0.25c0-0.133,0.084-0.2,0.25-0.2h1.95L307.45,155.05z"/>
</svg>
