<?xml version="1.0" encoding="utf-8"?>
<!-- Generator: Adobe Illustrator 16.0.0, SVG Export Plug-In . SVG Version: 6.00 Build 0)  -->
<!DOCTYPE svg PUBLIC "-//W3C//DTD SVG 1.1//EN" "http://www.w3.org/Graphics/SVG/1.1/DTD/svg11.dtd">
<svg version="1.1" id="Selected_Items" xmlns="http://www.w3.org/2000/svg" xmlns:xlink="http://www.w3.org/1999/xlink" x="0px"
	 y="0px" width="550px" height="400px" viewBox="0 0 550 400" enable-background="new 0 0 550 400" xml:space="preserve">
<path fill-rule="evenodd" clip-rule="evenodd" d="M334.8,163.7c0,0.633,0.467,1.683,1.4,3.15c0.899,1.433,1.35,2.316,1.35,2.65
	c0,0.433-0.149,0.65-0.45,0.65c-0.1,0-0.449-0.433-1.05-1.3c-0.667-0.934-1.05-1.583-1.149-1.95c-0.2-0.533-0.467-1.15-0.801-1.85
	c-0.166-0.333-0.25-0.767-0.25-1.3c0-1.5,0.817-2.65,2.45-3.45c1.3-0.667,3.7-1.333,7.2-2h3.25l0.3,0.15
	c3.634,0.466,6.25,1.216,7.851,2.25c1.433,0.933,2.149,2.167,2.149,3.7c0,1.733-0.899,2.6-2.7,2.6c-0.899,0-1.467-0.317-1.699-0.95
	l-0.101-1c0-1.233,0.583-1.85,1.75-1.85c0.7,0,1,0.167,0.9,0.5c0,0.267-0.4,0.433-1.2,0.5c-0.367,0.167-0.55,0.466-0.55,0.9
	c0,0.267,0.166,0.566,0.5,0.9h0.899c0.533-0.233,0.9-0.517,1.101-0.85c0.1-0.2,0.149-0.483,0.149-0.85c0-1.167-1.017-2.267-3.05-3.3
	c-1.934-0.967-4.1-1.55-6.5-1.75l-2.8,0.05c-3.233,0.6-5.384,1.117-6.45,1.55C335.633,161.517,334.8,162.467,334.8,163.7z"/>
<path fill-rule="evenodd" clip-rule="evenodd" d="M350.7,163.1c-0.434,0.767-0.65,1.683-0.65,2.75c0,1,0.384,2.017,1.15,3.05
	c0.733,1.033,1.1,2,1.1,2.9c0,0.967-0.816,2.1-2.45,3.4c-1.666,1.333-2.5,2.417-2.5,3.25c0,0.3,0.284,0.7,0.851,1.2
	c0.633,0.533,1.25,0.8,1.85,0.8c0.667,0,1.017-0.333,1.05-1c0-0.233-0.25-0.483-0.75-0.75c-0.533-0.267-0.8-0.534-0.8-0.8
	c0-0.064,0.009-0.123,0.025-0.175c0.817,0.183,1.451,0.291,1.899,0.325c0.043,0.044,0.085,0.094,0.125,0.15
	c0.301,0.4,0.45,0.816,0.45,1.25c0,0.433-0.116,0.833-0.35,1.2c-0.367,0.5-0.884,0.75-1.55,0.75c-1.101,0-2.051-0.433-2.851-1.3
	c-0.633-0.667-0.95-1.217-0.95-1.65c0-1.267,0.834-2.5,2.5-3.7c1.667-1.2,2.5-2.2,2.5-3c0-0.633-0.366-1.483-1.1-2.55
	c-0.767-1.034-1.15-2.133-1.15-3.3c0-2.367,0.817-4.017,2.45-4.95c0.566-0.367,1.117-0.534,1.65-0.5c0.5,0.033,0.75,0.216,0.75,0.55
	c0,0.3-0.2,0.417-0.601,0.35c-0.6-0.067-1.133,0.05-1.6,0.35C351.417,161.933,351.066,162.4,350.7,163.1z"/>
<path fill-rule="evenodd" clip-rule="evenodd" d="M336.3,168.75c0-0.933,0.3-0.95,0.9-0.05c0.566,0.9,0.85,1.716,0.85,2.45
	c0,1.2-0.366,2.233-1.1,3.1c-1.233,1.433-2.117,2.683-2.65,3.75v0.75c0.367,0.1,1.233,0.333,2.601,0.7
	c0.899,0.267,2.366,0.6,4.399,1c1.634,0.066,2.55,0.15,2.75,0.25h6.55c0.301,0.066,0.45,0.233,0.45,0.5c0,0.133-0.066,0.25-0.2,0.35
	c-0.1,0.067-0.183,0.1-0.25,0.1h-6.75c-0.166-0.033-0.267-0.083-0.3-0.15c-1.633-0.067-2.55-0.15-2.75-0.25
	c-2.5-0.3-4.267-0.617-5.3-0.95c-1.434-0.433-2.15-1.05-2.15-1.85c0-1.067,0.634-2.284,1.9-3.65c1.233-1.367,1.85-2.6,1.85-3.7
	c0-0.4-0.133-0.883-0.399-1.45C336.434,169.083,336.3,168.783,336.3,168.75z"/>
<path fill-rule="evenodd" clip-rule="evenodd" d="M353.5,167.15c-0.367,0-1.134-0.233-2.3-0.7c-1.101-0.434-1.65-0.684-1.65-0.75
	c0-0.633,0.783-0.7,2.351-0.2c1.533,0.5,2.3,0.9,2.3,1.2C354.2,167,353.967,167.15,353.5,167.15z"/>
<path fill-rule="evenodd" clip-rule="evenodd" d="M353.2,163.7c-0.467-0.233-0.8-0.383-1-0.45c-0.601-0.2-1.134-0.35-1.601-0.45
	c-0.166-0.033-0.25-0.1-0.25-0.2c0-0.533,0.733-0.6,2.2-0.2c1.434,0.367,2.15,0.75,2.15,1.15c0,0.3-0.184,0.45-0.55,0.45
	C353.883,164,353.566,163.9,353.2,163.7z"/>
<path fill-rule="evenodd" clip-rule="evenodd" fill="#FFFFCC" d="M339.8,159.45c0.566-0.2,2.101-0.45,4.601-0.75h1.699
	c0.233,0.033,1.334,0.3,3.301,0.8c0.566,0.133,1.166,0.233,1.8,0.3c0.399,0.1,0.6,0.333,0.6,0.7c0,0.467-0.233,0.7-0.7,0.7
	c-2.066-0.6-3.783-1-5.149-1.2h-1.4c-0.967,0.133-2.283,0.3-3.95,0.5c-0.233,0.033-0.633,0.183-1.199,0.45
	c-0.601,0.3-1,0.466-1.2,0.5c-1.467,0.233-2.2,1.1-2.2,2.6c0,0.467,0.083,0.75,0.25,0.85h0.25c0-0.533,0.483-1.017,1.45-1.45
	c0.733-0.3,1.267-0.45,1.6-0.45c0.833,0,1.45,0.233,1.851,0.7c0.232,0.267,0.35,0.55,0.35,0.85c0,0.233-0.083,0.467-0.25,0.7
	c-0.167,0.3-0.4,0.5-0.7,0.6c-1.434,0.433-2.217,0.65-2.35,0.65c-0.101,0-0.317-0.083-0.65-0.25c-0.3-0.167-0.866-0.2-1.7-0.1
	c-0.366,0.033-0.699-0.167-1-0.6c-0.233-0.333-0.35-0.833-0.35-1.5c0-2,0.8-3.183,2.4-3.55c0.366-0.1,0.833-0.283,1.399-0.55
	C339.083,159.683,339.5,159.517,339.8,159.45z"/>
<path fill-rule="evenodd" clip-rule="evenodd" fill="#FFFFCC" d="M340.7,160.4l2.25-0.45c0.767-0.067,1.316-0.15,1.649-0.25
	c0.267-0.1,0.551-0.15,0.851-0.15c0.933-0.066,1.483-0.066,1.649,0c0.134,0.034,0.283,0.117,0.45,0.25c0.333,0.1,0.667,0.15,1,0.15
	c0.367-0.034,0.717,0,1.05,0.1c0.301,0.1,0.717,0.184,1.25,0.25c0.434,0.1,0.65,0.317,0.65,0.65c0,0.267-0.15,0.466-0.45,0.6
	c-0.333,0.1-0.517,0.184-0.55,0.25c-0.267,0.467-0.45,0.784-0.55,0.95c-0.101,0.133-0.283,0.483-0.55,1.05
	c-0.167,0.367-0.417,0.55-0.75,0.55c-0.233,0-0.434-0.233-0.601-0.7l-0.2-0.7c0-0.233,0.233-0.667,0.7-1.3
	c-0.8-0.167-1.283-0.316-1.45-0.45c-0.033,0.267-0.066,0.667-0.1,1.2c-0.1,0.467-0.417,0.85-0.95,1.15
	c-0.633-0.033-1.066,0.083-1.3,0.35c-0.167,0.233-0.35,0.434-0.55,0.6c-0.2,0.2-0.4,0.367-0.601,0.5c-0.3,0.267-0.6,0.4-0.899,0.4
	c-0.334,0-0.601-0.1-0.8-0.3c-0.134-0.233-0.25-0.4-0.351-0.5l-0.6,0.1c-0.4,0-0.75-0.133-1.05-0.4
	c-0.233-0.233-0.351-0.433-0.351-0.6h-0.399c-0.467,0.466-0.784,0.7-0.95,0.7c-0.367,0-0.601-0.117-0.7-0.35
	c-0.3,0.934-0.733,1.4-1.3,1.4c-0.4,0-0.634-0.2-0.7-0.6c0-0.434,0-0.667,0-0.7c0-0.533,0.05-0.9,0.15-1.1
	c0.133-0.267,0.533-0.7,1.199-1.3c0.2-0.2,0.733-0.467,1.601-0.8C339.417,160.583,340.167,160.4,340.7,160.4z"/>
<path fill-rule="evenodd" clip-rule="evenodd" fill="#FFFFCC" d="M352.3,160.2c0.233,0.133,0.351,0.267,0.351,0.4
	c0,0.066-0.284,0.233-0.851,0.5c-0.566,0.233-0.899,0.35-1,0.35c-0.3,0-0.45-0.15-0.45-0.45c0-0.133,0.084-0.25,0.25-0.35
	c0.167-0.066,0.25-0.183,0.25-0.35c0-0.233,0.184-0.35,0.551-0.35C351.733,159.95,352.033,160.033,352.3,160.2z"/>
<path fill-rule="evenodd" clip-rule="evenodd" fill="#FBE28C" d="M349.75,165.25c-0.033-0.033-0.05-0.2-0.05-0.5
	c0-0.167,0.149-0.533,0.45-1.1c0.267-0.566,0.399-0.9,0.399-1c-0.133-0.3,0.367-0.25,1.5,0.15c1.167,0.4,1.75,0.65,1.75,0.75
	c0,0.067-0.149,0.233-0.45,0.5c-0.3,0.3-0.449,0.617-0.449,0.95c0,0.3,0.183,0.717,0.55,1.25c0,0.067-0.033,0.133-0.101,0.2
	c-0.066,0.066-0.133,0.1-0.199,0.1c-0.367,0-1.117-0.25-2.25-0.75C350.2,165.467,349.816,165.283,349.75,165.25z"/>
<path fill-rule="evenodd" clip-rule="evenodd" fill="#FBE28C" d="M351.65,162.3c-0.2,0-0.317-0.05-0.351-0.15V162
	c0-0.167,0.217-0.35,0.65-0.55c0.433-0.233,0.866-0.35,1.3-0.35c0.366,0,0.733,0.133,1.1,0.4c0.301,0.2,0.45,0.35,0.45,0.45
	c0,0.233-0.116,0.35-0.35,0.35c-0.134,0-0.317-0.083-0.55-0.25c-0.233-0.2-0.45-0.3-0.65-0.3c-0.4,0-0.733,0.1-1,0.3
	C352.017,162.217,351.816,162.3,351.65,162.3z"/>
<path fill-rule="evenodd" clip-rule="evenodd" fill="#FBE28C" d="M354.25,162.45c1.133,0.433,1.7,0.716,1.7,0.85
	c0,0.2-0.134,0.3-0.4,0.3c-0.066,0-0.8-0.233-2.2-0.7c-0.1-0.033-0.517-0.167-1.25-0.4c-0.333-0.1-0.5-0.233-0.5-0.4
	c0-0.2,0.134-0.3,0.4-0.3C352.366,161.8,353.116,162.017,354.25,162.45z"/>
<path fill-rule="evenodd" clip-rule="evenodd" fill="#FBE28C" d="M352.65,161.6l0.5,0.15c0.033,0,0.183-0.067,0.449-0.2
	c0.101,0,0.267,0.083,0.5,0.25c0.067,0,0.117-0.033,0.15-0.1c0.033-0.067,0.116-0.1,0.25-0.1c0.2,0,0.45,0.183,0.75,0.55
	c0.167,0.2,0.366,0.45,0.6,0.75c0.233,0.267,0.45,0.483,0.65,0.65c0.1,0.1,0.15,0.3,0.15,0.6c0,0.3-0.15,0.684-0.45,1.15
	c-0.4,0.6-0.867,0.9-1.4,0.9c-0.733,0-1.184-0.15-1.35-0.45c-0.033-0.067-0.05-0.267-0.05-0.6c0-0.4,0.033-0.65,0.1-0.75
	c0.167-0.233,0.684-0.433,1.55-0.6c-0.033-0.133-0.05-0.233-0.05-0.3c0-0.1,0.066-0.167,0.2-0.2v-0.1
	c-0.101,0-0.217-0.05-0.351-0.15c-0.1-0.066-0.149-0.133-0.149-0.2c-0.3,0.033-0.783-0.067-1.45-0.3
	c-0.634-0.267-0.95-0.483-0.95-0.65C352.3,161.7,352.417,161.6,352.65,161.6z M355.25,165.05l-0.05,0.1l0.149-0.15L355.25,165.05z"
	/>
<path fill-rule="evenodd" clip-rule="evenodd" fill="#FFFFCC" d="M349.5,161.55c0,0.167-0.05,0.417-0.15,0.75
	c-0.133,0.333-0.199,0.567-0.199,0.7c0,0.067,0.066,0.2,0.199,0.4c0.134,0.2,0.2,0.367,0.2,0.5c0,0.233-0.066,0.667-0.2,1.3
	c0,1.466,0.367,2.583,1.101,3.35c0.7,0.767,1.05,1.8,1.05,3.1c0,0.4-0.333,1-1,1.8c-0.667,0.767-1.15,1.15-1.45,1.15
	c-0.233,0-0.399-0.083-0.5-0.25c-0.066-0.1-0.1-0.2-0.1-0.3c0-0.133,0.333-0.5,1-1.1c0.633-0.633,0.95-1.05,0.95-1.25
	c0-0.867-0.184-1.517-0.551-1.95c-0.767-0.9-1.333-1.717-1.699-2.45l-0.4,0.15c-0.233,0-0.4-0.117-0.5-0.35l-0.05-0.35
	c0.1-0.3,0.149-0.55,0.149-0.75c0-0.167-0.066-0.25-0.199-0.25l-0.4,0.15c-0.333,0-0.517-0.133-0.55-0.4l0.05-0.4l-0.3-0.65
	c0-0.267,0.2-0.867,0.6-1.8c0.467-1.066,0.867-1.6,1.2-1.6l0.5,0.1c0.233,0,0.533-0.05,0.9-0.15
	C349.383,160.967,349.5,161.15,349.5,161.55z"/>
<path fill-rule="evenodd" clip-rule="evenodd" fill="#FFFFCC" d="M337.2,166.4c0.467,0.4,0.8,0.95,1,1.65
	c0.133,0.434,0.333,1.017,0.6,1.75c0.101,0.267,0.15,0.75,0.15,1.45c0,0.6,0,0.917,0,0.95c-0.067,0.466-0.283,0.7-0.65,0.7
	c-0.233,0-0.399-0.083-0.5-0.25c-0.066-0.1-0.1-0.2-0.1-0.3l0.149-1.1c0-1.2-0.449-2.35-1.35-3.45c-0.9-1.133-1.35-1.9-1.35-2.3
	c0-0.433,0.199-0.65,0.6-0.65C335.883,164.85,336.366,165.367,337.2,166.4z"/>
<path fill-rule="evenodd" clip-rule="evenodd" fill="#FFFFCC" d="M339.25,172.4c0,0.333-0.517,1.3-1.55,2.9
	c-0.867,0.7-1.617,1.667-2.25,2.9c0.233,0.1,0.75,0.216,1.55,0.35c0.366,0.067,0.55,0.25,0.55,0.55c0,0.367-0.25,0.55-0.75,0.55
	c-0.533,0-1.066-0.117-1.6-0.35c-0.601-0.267-0.9-0.583-0.9-0.95c0-0.6,0.25-1.25,0.75-1.95c0.134-0.2,0.65-0.8,1.55-1.8
	c0.434-0.533,0.783-1.167,1.051-1.9c0.133-0.5,0.433-0.8,0.899-0.9C339.017,171.733,339.25,171.933,339.25,172.4z"/>
<path fill-rule="evenodd" clip-rule="evenodd" fill="#FFFFCC" d="M338.9,175.45c-0.768,1.1-1.233,1.917-1.4,2.45
	c0.467-0.033,0.816,0.05,1.05,0.25c0.167,0.133,0.25,0.267,0.25,0.4c0,0.367-0.2,0.55-0.6,0.55c-1.3,0-1.983-0.217-2.05-0.65
	c-0.167,0.167-0.317,0.25-0.45,0.25c-0.233,0-0.4-0.1-0.5-0.3l-0.05-0.3c0-0.267,0.8-1.317,2.399-3.15c1.601-1.8,2.4-2.15,2.4-1.05
	C339.95,173.933,339.6,174.45,338.9,175.45z"/>
<path fill-rule="evenodd" clip-rule="evenodd" fill="#FFFFCC" d="M346.7,177.8c-0.134,0.233-0.2,0.417-0.2,0.55s0.1,0.417,0.3,0.85
	c0.167,0.4,0.25,0.683,0.25,0.85c0,0.333-0.184,0.55-0.55,0.65h-3.3c-1.134-0.133-2.5-0.367-4.101-0.7
	c-2.366-0.467-3.55-0.867-3.55-1.2c0-0.367,0.184-0.55,0.55-0.55l3.45,0.75c0.3,0.1,1.55,0.3,3.75,0.6l2.351-0.05
	c-0.167-0.4-0.25-0.8-0.25-1.2c0-0.867,0.25-1.4,0.75-1.6c0.5-0.167,0.75,0,0.75,0.5C346.9,177.383,346.833,177.567,346.7,177.8z"/>
<path fill-rule="evenodd" clip-rule="evenodd" fill="#FFFFCC" d="M346.45,179.8c0-0.267,0.1-0.4,0.3-0.4s0.3,0.117,0.3,0.35
	c0,0.267-0.116,0.4-0.35,0.4C346.533,180.15,346.45,180.033,346.45,179.8z"/>
<path fill-rule="evenodd" clip-rule="evenodd" fill="#FFFFCC" d="M346.7,179.1c0.2,0,0.717,0.55,1.55,1.65
	c0,0.233-0.117,0.35-0.35,0.35c-0.134,0-0.25-0.033-0.351-0.1c-0.1-0.1-0.2-0.15-0.3-0.15c-0.7-0.067-1.117-0.117-1.25-0.15
	c-0.033-0.034-0.05-0.1-0.05-0.2c0-0.233,0.267-0.35,0.8-0.35c-0.267-0.267-0.4-0.5-0.4-0.7c-0.033-0.1-0.033-0.167,0-0.2
	C346.383,179.15,346.5,179.1,346.7,179.1z"/>
<path fill-rule="evenodd" clip-rule="evenodd" fill="#FBE28C" d="M347.45,177.65c0.133-0.333,0.467-0.383,1-0.15
	c0.133,0.033,0.467,0.117,1,0.25c0.399,0.133,0.533,0.3,0.399,0.5l1.2,0.6c0.233,0.167,0.351,0.4,0.351,0.7
	c0,0.767-0.483,1.15-1.45,1.15c-0.7,0-1.3-0.267-1.8-0.8c-0.5-0.5-0.75-1.033-0.75-1.6
	C347.366,178.067,347.383,177.85,347.45,177.65z"/>
<path fill-rule="evenodd" clip-rule="evenodd" fill="#FFFFCC" d="M336.8,165.6c0-0.6,0.217-0.9,0.65-0.9
	c0.333,0,0.8,0.367,1.399,1.1c0-0.933,0.283-1.4,0.851-1.4c0.2,0,0.383,0.133,0.55,0.4c0.033-0.033,0.116-0.233,0.25-0.6
	c0.2-0.3,0.434-0.45,0.7-0.45l0.55,0.3c0.3-0.566,0.6-0.85,0.9-0.85c0.267,0,0.482,0.167,0.649,0.5c0.233-0.1,0.634-0.567,1.2-1.4
	c0.566-0.6,1.05-0.483,1.45,0.35c0.267-0.167,0.433-0.25,0.5-0.25c0.467,0,0.717,0.25,0.75,0.75c0,0.267-0.05,0.567-0.15,0.9
	l0.351-0.1c0.566,0,0.916,0.133,1.05,0.4c0.033,0.1,0.05,0.333,0.05,0.7c0,0.434-0.066,0.917-0.2,1.45c0.3,0,0.517,0.167,0.65,0.5
	c0.033,0.133,0.166,0.333,0.399,0.6c0.033,0.133,0.017,0.333-0.05,0.6c-0.033,0.267,0.033,0.483,0.2,0.65
	c0.1,0.1,0.25,0.167,0.45,0.2c0.2,0.034,0.333,0.083,0.399,0.15c0.067,0.066,0.117,0.283,0.15,0.65c0,0.167,0.116,0.566,0.35,1.2
	c0,0.267-0.283,0.9-0.85,1.9c-0.134,0.167-0.25,0.466-0.35,0.9c-0.067,0.4-0.233,0.717-0.5,0.95c-0.967,0.767-1.617,1.4-1.95,1.9
	c-0.3,0.466-0.45,1.05-0.45,1.75c0,0.133,0.066,0.3,0.2,0.5c0.1,0.2,0.149,0.383,0.149,0.55c0,0.667-0.35,1-1.05,1
	c-0.366,0-0.684-0.1-0.95-0.3c-0.233-0.167-0.366-0.333-0.399-0.5c-0.267,0.3-0.417,0.45-0.45,0.45
	c-0.098,0.033-0.556,0.049-1.375,0.05c0.15-0.004,0.225-0.021,0.225-0.05c-1.133,0.033-1.833,0.017-2.1-0.05
	c-0.367-0.333-0.566-0.517-0.6-0.55c-1.467,0.034-2.4-0.033-2.801-0.2c-0.233-0.1-0.35-0.35-0.35-0.75c0-0.133,0.233-0.75,0.7-1.85
	c0.433-1.1,0.649-1.683,0.649-1.75c0-0.167,0.067-0.35,0.2-0.55l0.2-0.3c-0.167-0.2-0.283-0.467-0.35-0.8
	c-0.034-0.067-0.051-0.333-0.051-0.8c0-0.367,0.033-0.633,0.101-0.8c0.033-0.133,0.05-0.35,0.05-0.65c0-0.267-0.066-0.434-0.2-0.5
	c-0.133-0.1-0.2-0.317-0.2-0.65v-1.15l-0.25,0.05c-0.399,0-0.733-0.517-1-1.55C336.9,166.533,336.8,165.967,336.8,165.6z
	 M346.2,170.95l-0.101,0.15l0.2-0.15C346.267,170.917,346.233,170.917,346.2,170.95z"/>
<path fill-rule="evenodd" clip-rule="evenodd" d="M347.975,177.075c-0.05,0.032-0.074,0.074-0.074,0.125c0,0.1,0.517,0.267,1.55,0.5
	c0.339,0.077,0.647,0.143,0.925,0.2c-0.052,0.133-0.193,0.2-0.425,0.2c-0.233,0-0.7-0.083-1.4-0.25c-0.8-0.2-1.2-0.367-1.2-0.5
	c0-0.2,0.134-0.3,0.4-0.3C347.777,177.05,347.853,177.058,347.975,177.075z"/>
<path fill-rule="evenodd" clip-rule="evenodd" d="M349.85,164.95c0,0.367,0.101,1.1,0.301,2.2c0,0.3-0.101,0.45-0.301,0.45
	c-0.399,0-0.6-0.883-0.6-2.65c0-1.3,0.283-2.217,0.85-2.75c0.301-0.333,0.733-0.7,1.301-1.1c0.767-0.567,1.433-0.85,2-0.85
	c0.233,0,0.35,0.1,0.35,0.3c-0.634,0.267-1.283,0.633-1.95,1.1C350.5,162.55,349.85,163.65,349.85,164.95z"/>
<path fill-rule="evenodd" clip-rule="evenodd" d="M354.7,163.55c0,0.133-0.084,0.2-0.25,0.2c-0.233,0-0.8-0.183-1.7-0.55
	c-0.9-0.4-1.533-0.75-1.9-1.05c0.167-0.167,0.4-0.167,0.7,0c0.2,0.133,0.517,0.333,0.95,0.6c0.3,0.033,0.717,0.133,1.25,0.3
	C354.384,163.25,354.7,163.417,354.7,163.55z"/>
<path fill-rule="evenodd" clip-rule="evenodd" d="M354.75,166.6c0,0.133-0.1,0.2-0.3,0.2c-0.566,0-0.967-0.267-1.2-0.8
	c-0.167-0.333-0.25-0.667-0.25-1c0-0.5,0.316-0.933,0.95-1.3c0.6-0.367,0.899-0.383,0.899-0.05c-0.233,0.1-0.466,0.233-0.699,0.4
	c-0.5,0.3-0.75,0.617-0.75,0.95c0,0.533,0.233,0.933,0.699,1.2C354.533,166.433,354.75,166.567,354.75,166.6z"/>
<path fill-rule="evenodd" clip-rule="evenodd" d="M346.85,180.85c0.233,0,0.434,0.017,0.601,0.05c0.1,0.033,0.533,0.033,1.3,0h0.4
	c0.133,0.1,0.199,0.184,0.199,0.25c0,0.167-0.066,0.25-0.199,0.25c0-0.033-0.351-0.05-1.051-0.05c-0.8,0-1.283-0.083-1.449-0.25
	L346.85,180.85z"/>
<path fill-rule="evenodd" clip-rule="evenodd" d="M347.95,177.4c0.899,0.3,1.566,0.467,2,0.5l0.2,0.2c0,0.133-0.2,0.2-0.601,0.2
	c-0.434,0-0.866-0.083-1.3-0.25c-0.366-0.167-0.566-0.25-0.6-0.25c0,0.067-0.051,0.1-0.15,0.1c-0.134,0-0.2-0.083-0.2-0.25
	C347.3,177.317,347.517,177.233,347.95,177.4z"/>
<path fill-rule="evenodd" clip-rule="evenodd" d="M345.15,160.75c0.033,0,0.783,0.2,2.25,0.6c0.267,0.133,0.583,0.25,0.949,0.35
	c0.2,0.066,0.301,0.183,0.301,0.35c0,0.1-0.051,0.2-0.15,0.3s-0.217,0.15-0.35,0.15c-0.134,0-0.367-0.083-0.7-0.25
	c-0.334-0.167-0.55-0.25-0.65-0.25c-0.3-0.033-0.649-0.117-1.05-0.25c-0.4-0.167-0.616-0.25-0.65-0.25c-0.199,0-0.533,0.15-1,0.45
	c-0.833,0-1.366,0.033-1.6,0.1l-0.9,0.1l-0.8-0.1l-1.75,0.1c-0.434,0.133-0.767,0.2-1,0.2c-0.733,0-1.1-0.2-1.1-0.6
	c0-0.233,0.133-0.35,0.399-0.35c0.134,0,0.367,0.05,0.7,0.15l3.851-0.2c1.267-0.1,2.033-0.233,2.3-0.4
	C344.467,160.817,344.783,160.75,345.15,160.75z"/>
<path fill-rule="evenodd" clip-rule="evenodd" d="M345.85,164.55c0.334,0.133,0.5,0.25,0.5,0.35c0,0.167-0.083,0.25-0.25,0.25
	c-0.066,0-0.149-0.033-0.25-0.1c-0.066-0.1-0.399-0.133-1-0.1c-0.466-0.1-0.8-0.15-1-0.15c-0.3,0-0.533,0.067-0.699,0.2
	c-0.2,0.1-0.467,0.15-0.801,0.15c-0.433,0-0.85-0.083-1.25-0.25c-0.399-0.2-0.767-0.3-1.1-0.3c-1.267-0.1-1.9-0.3-1.9-0.6
	c0-0.233,0.634-0.2,1.9,0.1c1.5,0.367,2.283,0.55,2.35,0.55c0.301,0,0.567-0.066,0.801-0.2s0.466-0.2,0.699-0.2
	C344.684,164.25,345.35,164.35,345.85,164.55z"/>
<path fill-rule="evenodd" clip-rule="evenodd" d="M344.15,167.05c0.199,0,0.517-0.066,0.949-0.2c1.567,0,2.351,0.217,2.351,0.65
	c0,0.2-0.084,0.3-0.25,0.3c-0.134-0.167-0.334-0.25-0.601-0.25c-0.433-0.1-0.933-0.15-1.5-0.15c-0.267,0-0.466,0.033-0.6,0.1
	c-0.167,0.033-0.3,0.05-0.4,0.05c-0.267,0-0.533-0.1-0.8-0.3c-0.233-0.167-0.383-0.267-0.45-0.3l-1.5,0.1
	c-1.566,0-2.35-0.25-2.35-0.75c0-0.2,0.167-0.233,0.5-0.1c0.634,0.233,1.25,0.35,1.85,0.35l1.351-0.1c0.267,0,0.533,0.1,0.8,0.3
	C343.8,166.95,344.017,167.05,344.15,167.05z"/>
<path fill-rule="evenodd" clip-rule="evenodd" d="M347.5,170.05c0.467,0,0.95,0.2,1.45,0.6c0,0.167-0.101,0.25-0.3,0.25
	c-0.134,0-0.317-0.05-0.551-0.15s-0.433-0.15-0.6-0.15l-1.15,0.15c-0.399,0-0.733-0.117-1-0.35c-0.267-0.267-0.433-0.4-0.5-0.4
	c-0.333,0-0.583,0.083-0.75,0.25c-0.199,0.167-0.466,0.25-0.8,0.25c-0.934-0.233-1.55-0.35-1.85-0.35
	c-0.634,0.1-1.066,0.15-1.3,0.15c-0.467,0-0.7-0.1-0.7-0.3c0-0.133,0.066-0.183,0.2-0.15c0.333,0,0.6-0.017,0.8-0.05
	c0.6-0.133,0.916-0.2,0.95-0.2c0.199,0,0.517,0.066,0.949,0.2c0.434,0.133,0.733,0.2,0.9,0.2c0.2,0,0.483-0.133,0.85-0.4
	c0.267-0.2,0.601-0.217,1-0.05c0.101,0.034,0.267,0.167,0.5,0.4c0.233,0.2,0.483,0.3,0.75,0.3
	C346.65,170.25,347.033,170.183,347.5,170.05z"/>
<path fill-rule="evenodd" clip-rule="evenodd" d="M342.2,171.9c0.366,0,0.684,0.067,0.95,0.2c0.199,0.1,0.517,0.3,0.949,0.6h0.45
	l0.65-0.1c0.333,0,0.583,0.083,0.75,0.25c0.166,0.167,0.333,0.25,0.5,0.25c0.233,0,0.45-0.05,0.649-0.15
	c0.233,0,0.351,0.1,0.351,0.3c0,0.233-0.351,0.35-1.05,0.35c-0.134,0-0.301-0.067-0.5-0.2c-0.2-0.167-0.334-0.25-0.4-0.25
	c-1.134-0.033-1.767-0.083-1.9-0.15c-0.633-0.4-1.116-0.6-1.449-0.6l-1.5,0.1c-1.067,0-1.601-0.183-1.601-0.55
	c0-0.2,0.117-0.267,0.351-0.2c0.466,0.167,0.899,0.25,1.3,0.25L342.2,171.9z"/>
<path fill-rule="evenodd" clip-rule="evenodd" d="M339.95,174.3c0.767,0,1.267,0.25,1.5,0.75h0.35c0.101-0.167,0.4-0.25,0.9-0.25
	c0.233,0,0.416,0.067,0.55,0.2s0.25,0.2,0.35,0.2c0.067,0,0.217-0.05,0.45-0.15c0.233-0.1,0.467-0.15,0.7-0.15
	c0.267,0,0.517,0.067,0.75,0.2c0.733-0.067,1.1,0.083,1.1,0.45c0,0.167-0.083,0.25-0.25,0.25l-0.25-0.15
	c-0.5-0.033-0.8-0.066-0.899-0.1c-0.033-0.066-0.084-0.117-0.15-0.15c-0.733,0.2-1.233,0.3-1.5,0.3c-0.233,0-0.399-0.05-0.5-0.15
	c-0.066-0.133-0.116-0.216-0.149-0.25c-0.367,0.034-0.65,0.083-0.851,0.15c-0.166,0.066-0.333,0.1-0.5,0.1c-0.3,0-0.533-0.1-0.7-0.3
	c-0.233-0.267-0.399-0.417-0.5-0.45c-1.166,0.267-1.85,0.067-2.05-0.6c0-0.2,0.084-0.25,0.25-0.15c0.101,0.067,0.267,0.167,0.5,0.3
	L339.95,174.3z"/>
<path fill-rule="evenodd" clip-rule="evenodd" d="M341.2,176.7c0.066,0.033,0.383,0.05,0.95,0.05c0.333,0,0.566,0.083,0.699,0.25
	c0.167,0.167,0.301,0.25,0.4,0.25s0.233-0.067,0.4-0.2c0.166-0.167,0.366-0.25,0.6-0.25c0.3,0,0.816,0.3,1.55,0.9
	c0,0.2-0.083,0.3-0.25,0.3c-0.2,0-0.467-0.117-0.8-0.35c-0.3-0.233-0.467-0.35-0.5-0.35c-0.134,0-0.3,0.083-0.5,0.25
	c-0.2,0.133-0.384,0.2-0.55,0.2c-0.167,0-0.351-0.1-0.55-0.3c-0.167-0.167-0.4-0.217-0.7-0.15c-0.4,0.034-0.684,0.017-0.851-0.05
	c-0.233-0.167-0.383-0.25-0.449-0.25l-2.551,0.05c-0.733,0.167-1.233-0.083-1.5-0.75c0-0.333,0.167-0.383,0.5-0.15
	c0.434,0.333,0.767,0.45,1,0.35h2.551C340.717,176.533,340.9,176.6,341.2,176.7z"/>
<path fill-rule="evenodd" clip-rule="evenodd" d="M341.85,179.05c0.034,0,0.117-0.033,0.25-0.1c0.134-0.067,0.317-0.1,0.551-0.1
	c0.199,0,0.366,0.05,0.5,0.15c0.133,0.1,0.233,0.15,0.3,0.15l0.3-0.15c0.2-0.133,0.384-0.2,0.55-0.2c0.267,0,0.45,0.05,0.55,0.15
	c0.067,0.066,0.134,0.15,0.2,0.25l1-0.05c0.167,0.1,0.25,0.184,0.25,0.25c0,0.133-0.05,0.217-0.149,0.25
	c-0.134,0.033-0.467,0.05-1,0.05c-0.301,0-0.5-0.05-0.601-0.15c-0.033-0.133-0.066-0.216-0.1-0.25c-0.233,0.034-0.417,0.1-0.55,0.2
	c-0.101,0.1-0.267,0.15-0.5,0.15c-0.2,0-0.334-0.033-0.4-0.1c-0.066-0.1-0.116-0.167-0.15-0.2c-0.5,0.133-0.833,0.2-1,0.2
	c-0.166,0-0.366-0.117-0.6-0.35c-0.2-0.233-0.3-0.383-0.3-0.45c0-0.333,0.149-0.383,0.45-0.15
	C341.566,178.733,341.717,178.883,341.85,179.05z"/>
</svg>
