<?xml version="1.0" encoding="utf-8"?>
<!-- Generator: Adobe Illustrator 16.0.0, SVG Export Plug-In . SVG Version: 6.00 Build 0)  -->
<!DOCTYPE svg PUBLIC "-//W3C//DTD SVG 1.1//EN" "http://www.w3.org/Graphics/SVG/1.1/DTD/svg11.dtd">
<svg version="1.1" id="Selected_Items" xmlns="http://www.w3.org/2000/svg" xmlns:xlink="http://www.w3.org/1999/xlink" x="0px"
	 y="0px" width="550px" height="400px" viewBox="0 0 550 400" enable-background="new 0 0 550 400" xml:space="preserve">
<path fill-rule="evenodd" clip-rule="evenodd" fill="#666666" d="M424.85,166.65c0.233,0.3,0.351,0.483,0.351,0.55
	c0,0.6-0.184,0.9-0.55,0.9c-0.801,0-1.351-0.434-1.65-1.3l-0.2-1.3c0-0.7,0.533-1.5,1.601-2.4c1.033-0.833,2.233-1.483,3.6-1.95
	c1.767-0.6,4.033-0.55,6.8,0.15c2.867,0.733,4.3,1.784,4.3,3.15c0,0.879-0.267,1.713-0.8,2.5c-0.086,0.128-0.178,0.253-0.274,0.375
	c-0.055,0.077-0.113,0.152-0.176,0.225c-0.733,0.833-1.399,1.25-2,1.25c-0.433,0-0.649-0.167-0.649-0.5
	c0-0.433,0.483-0.933,1.45-1.5c0.966-0.566,1.449-1.333,1.449-2.3c0-0.467-0.566-1-1.699-1.6c-1.301-0.7-2.7-1.05-4.2-1.05
	c-3.367,0-5.65,0.633-6.851,1.9c-0.566,0.6-0.85,1.333-0.85,2.2C424.5,166.083,424.616,166.316,424.85,166.65z"/>
<path fill-rule="evenodd" clip-rule="evenodd" fill="#666666" d="M424.65,168.15c-0.5-0.4-0.75-0.7-0.75-0.9
	c0-0.533,0.533-0.6,1.6-0.2c1.066,0.4,1.6,0.85,1.6,1.35c0,0.333-0.183,0.5-0.55,0.5C425.884,168.9,425.25,168.65,424.65,168.15z"/>
<path fill-rule="evenodd" clip-rule="evenodd" fill="#666666" d="M436.3,168.95c0-0.367,0-0.684,0-0.95
	c0.033-0.633,0.2-0.95,0.5-0.95c0.334,0.034,0.5,0.367,0.5,1s0.101,1.117,0.3,1.45c0.111,0.185,0.194,0.326,0.25,0.425
	c-0.086,0.184-0.17,0.375-0.25,0.575c-0.421,0.315-1.287,0.666-2.6,1.05c-1.7,0.5-3.134,0.817-4.3,0.95H428
	c-1.667-0.2-2.767-0.633-3.3-1.3c-0.267-0.3-0.4-0.784-0.4-1.45c0-0.3,0.033-0.633,0.101-1c0.1-0.633,0.267-0.95,0.5-0.95
	c0.6,0,0.767,0.883,0.5,2.65c0,0.233,0.316,0.45,0.949,0.65c0.733,0.233,1.733,0.35,3,0.35c2,0,3.617-0.167,4.851-0.5
	c0.899-0.267,1.467-0.567,1.7-0.9C436.134,169.683,436.267,169.316,436.3,168.95z"/>
<path fill-rule="evenodd" clip-rule="evenodd" fill="#666666" d="M426.8,168.9c-0.6-0.367-0.899-0.667-0.899-0.9
	c0-0.4,0.267-0.6,0.8-0.6c0.399,0,1.267,0.184,2.6,0.55h3.4c0.566-0.1,1.283-0.284,2.149-0.55c0.733-0.267,1.217-0.4,1.45-0.4
	c0.601,0,0.867,0.183,0.8,0.55c0,0.333-0.816,0.75-2.449,1.25c-1.733,0.534-3.334,0.8-4.801,0.8
	C428.616,169.6,427.6,169.367,426.8,168.9z"/>
<path fill-rule="evenodd" clip-rule="evenodd" fill="#828282" d="M424.4,165.25c0-2.533,2.35-3.883,7.05-4.05
	c1.899-0.067,3.517,0.167,4.85,0.7c1.467,0.6,2.2,1.434,2.2,2.5c0,2.6-2.717,3.9-8.15,3.9c-2.566,0-4.3-0.4-5.199-1.2
	C424.65,166.667,424.4,166.05,424.4,165.25z M434.45,165.05l0.149-0.15v-0.15h-0.3v0.3H434.45z"/>
<path fill-rule="evenodd" clip-rule="evenodd" fill="#828282" d="M434.2,165.6c-0.634,0.667-1.134,1-1.5,1
	c-0.334,0-0.566-0.15-0.7-0.45c-0.066-0.133-0.1-0.283-0.1-0.45c0-0.567,0.683-1.117,2.05-1.65c1.366-0.533,2.05-0.35,2.05,0.55
	c0,0.167-0.116,0.3-0.35,0.4C435.184,165.2,434.7,165.4,434.2,165.6z"/>
<path fill-rule="evenodd" clip-rule="evenodd" fill="#828282" d="M427,168.8c0.733,0.233,1.85,0.35,3.35,0.35
	c1.067,0,2.65-0.383,4.75-1.15c1.067-0.4,1.601-0.033,1.601,1.1c0,0.6-0.533,1.2-1.601,1.8c-1.366,0.733-3.199,1.1-5.5,1.1
	c-1.133,0-2.133-0.167-3-0.5c-1-0.4-1.5-0.95-1.5-1.65c0-0.967,0.284-1.45,0.851-1.45C426.184,168.4,426.533,168.533,427,168.8z"/>
<path fill-rule="evenodd" clip-rule="evenodd" fill="#414141" d="M427.5,164.4c-0.467,0-0.75-0.117-0.85-0.35
	c-0.034-0.233-0.051-0.367-0.051-0.4c0-0.533,0.45-0.9,1.351-1.1c0.899-0.2,1.35,0.017,1.35,0.65c0,0.2-0.133,0.433-0.399,0.7
	C428.533,164.233,428.066,164.4,427.5,164.4z"/>
<path fill-rule="evenodd" clip-rule="evenodd" fill="#414141" d="M432.95,163.6c-0.167-0.233-0.25-0.467-0.25-0.7
	c0-0.533,0.434-0.7,1.3-0.5c0.866,0.2,1.3,0.55,1.3,1.05s-0.316,0.75-0.95,0.75C433.684,164.2,433.217,164,432.95,163.6z"/>
<path fill-rule="evenodd" clip-rule="evenodd" fill="#414141" d="M431.1,167c-0.566,0-0.933-0.167-1.1-0.5l-0.1-0.45
	c0-0.633,0.416-0.966,1.25-1c0.833-0.033,1.25,0.317,1.25,1.05c0,0.2-0.084,0.383-0.25,0.55C431.917,166.883,431.566,167,431.1,167z
	"/>
<path fill-rule="evenodd" clip-rule="evenodd" fill="#666666" d="M423.4,164.45c0-0.7,0.85-1.534,2.55-2.5
	c1.833-1.067,3.684-1.6,5.55-1.6c5.134,0.1,7.7,1.383,7.7,3.85c0,1-0.566,2-1.7,3c-1.533,1.366-3.667,2.033-6.4,2h-3
	c-2.666-0.434-4-0.95-4-1.55c0-0.3,0.15-0.45,0.45-0.45c0.267,0,1.483,0.383,3.65,1.15h2.8c2.366,0.033,4.283-0.517,5.75-1.65
	c1.1-0.867,1.65-1.7,1.65-2.5c0-0.667-0.334-1.267-1-1.8c-1.034-0.833-2.733-1.25-5.101-1.25c-2.767,0-4.883,0.533-6.35,1.6
	c-1.101,1.167-1.816,1.883-2.15,2.15l-0.35-0.1L423.4,164.45z"/>
<path fill-rule="evenodd" clip-rule="evenodd" fill="#666666" d="M437.6,170.5c0,0.042,0.009,0.092,0.025,0.15
	c-0.49,0.253-1.315,0.57-2.475,0.95c-1.767,0.566-3.117,0.933-4.051,1.1H428.2c-0.733-0.267-1.101-0.5-1.101-0.7
	c0-0.267,0.15-0.4,0.45-0.4c0.167,0,0.316,0.05,0.45,0.15c0.134,0.066,0.684,0.1,1.65,0.1c1.466,0,3.399-0.383,5.8-1.15
	c1.109-0.363,1.885-0.572,2.325-0.625C437.716,170.215,437.657,170.357,437.6,170.5z"/>
<path fill-rule="evenodd" clip-rule="evenodd" fill="#666666" d="M437.675,170.3c-0.069,0.133-0.161,0.2-0.274,0.2
	c-0.334,0-0.5-0.15-0.5-0.45c0.133-0.8,0.199-1.517,0.199-2.15c0.534-0.933,0.801-0.65,0.801,0.85c0,0.618-0.051,1.076-0.15,1.375
	C437.729,170.189,437.704,170.248,437.675,170.3z"/>
<path fill-rule="evenodd" clip-rule="evenodd" fill="#666666" d="M425.8,169.45c0.2,0.833,0.8,1.466,1.8,1.9
	c0.934,0.367,1.4,0.6,1.4,0.7c0,0.3-0.167,0.45-0.5,0.45c-1.634,0-2.717-0.483-3.25-1.45c-0.233-0.4-0.35-0.966-0.35-1.7
	c0-0.767,0.05-1.2,0.149-1.3C425.184,167.883,425.434,168.35,425.8,169.45z"/>
<path fill-rule="evenodd" clip-rule="evenodd" fill="#666666" d="M424.6,164.65c0,0.6,0.233,1.167,0.7,1.7
	c0.601,0.7,1.434,1.05,2.5,1.05c0.367,0,0.934,0.167,1.7,0.5c0.733,0.3,1.1,0.5,1.1,0.6c0,0.267-0.149,0.4-0.449,0.4l-1.851-0.25
	c-0.066,0-0.133,0.05-0.2,0.15c-0.033,0.067-0.1,0.1-0.199,0.1c-1.733-0.8-2.817-1.433-3.25-1.9c-0.634-0.7-0.95-1.434-0.95-2.2
	c0-0.5,0.149-0.9,0.45-1.2C424.45,163.267,424.6,163.617,424.6,164.65z"/>
<path fill-rule="evenodd" clip-rule="evenodd" fill="#E6FFFF" d="M439.2,184.1c0,0.466-0.867,1.167-2.601,2.1
	c-1.899,1-3.666,1.5-5.3,1.5c-2.934,0-5.033-0.7-6.3-2.1c-0.733-0.833-1.1-1.684-1.1-2.55c0-0.833,0.066-1.883,0.199-3.15
	c0.167-1.833,0.267-2.883,0.301-3.15c0-1.4,0.033-2.45,0.1-3.15c0.066-0.367,0.1-0.9,0.1-1.6c0-0.6,0.15-0.967,0.45-1.1
	s0.45,0.067,0.45,0.6c0,0.167-0.267,4.017-0.8,11.55c0,0.7,0.467,1.434,1.399,2.2c1.267,1.066,2.983,1.6,5.15,1.6
	c1.2,0,2.4-0.25,3.6-0.75c0.634-0.233,1.2-0.5,1.7-0.8c0.367-0.167,1.084-0.767,2.15-1.8C438.967,183.5,439.134,183.7,439.2,184.1z"
	/>
<path fill-rule="evenodd" clip-rule="evenodd" fill="#E6FFFF" d="M438.35,184.2c-1.033-7.667-1.55-12.1-1.55-13.3
	c0-0.933,0.134-1.117,0.4-0.55c0.3,0.566,0.517,1.45,0.649,2.65c0.067,0.667,0.25,1.833,0.551,3.5c0.066,0.667,0.25,1.983,0.55,3.95
	c0.1,0.767,0.149,1.8,0.149,3.1c0,0.5-0.116,0.75-0.35,0.75C438.684,184.3,438.55,184.267,438.35,184.2z"/>
<path fill-rule="evenodd" clip-rule="evenodd" fill="#E6FFFF" d="M437.6,174.25c0,0.667-0.066,1.066-0.199,1.2
	c-0.567,0.566-2.034,0.85-4.4,0.85l-4.6-0.1c-1.534-0.034-2.65-0.3-3.351-0.8c-0.434-0.333-0.649-0.717-0.649-1.15
	c0-0.167,0.066-0.45,0.199-0.85c0.167-0.467,0.334-0.733,0.5-0.8c-0.133-0.2-0.199-0.383-0.199-0.55c0-0.433,0.216-0.65,0.649-0.65
	c0.167,0,0.867,0.184,2.101,0.55c1.267,0.333,2.25,0.5,2.949,0.5c1.167,0,2.767-0.45,4.801-1.35c1.399-0.6,2.1-0.6,2.1,0l-0.25,1.55
	c0,0.033,0.066,0.25,0.2,0.65C437.55,173.667,437.6,173.983,437.6,174.25z"/>
<path fill-rule="evenodd" clip-rule="evenodd" fill="#FFFFFF" d="M437.6,177.2c-0.267-0.167-0.483-0.25-0.649-0.25
	c-0.101,0-0.483,0.15-1.15,0.45c-0.666,0.267-1.816,0.4-3.45,0.4c-4.899,0-7.35-0.617-7.35-1.85c0-0.634,0.7-1.233,2.1-1.8
	c1.667-0.7,3.684-0.967,6.051-0.8c0.733,0.066,1.75,0.5,3.05,1.3c1.333,0.833,2,1.483,2,1.95c0,0.133-0.05,0.267-0.15,0.4
	C437.917,177.133,437.767,177.2,437.6,177.2z"/>
<path fill-rule="evenodd" clip-rule="evenodd" fill="#FFFFFF" d="M426.3,175.9c0,0.033-0.166,1.65-0.5,4.85
	c0,0.367,0.101,0.967,0.3,1.8c0.034,1.034-0.283,1.55-0.949,1.55c-0.301,0-0.5-0.133-0.601-0.4l-0.05-0.4l0.2-5.75
	c-0.033-0.566,0.083-1.1,0.35-1.6c0.3-0.634,0.584-0.884,0.851-0.75C426.167,175.333,426.3,175.566,426.3,175.9z"/>
<path fill-rule="evenodd" clip-rule="evenodd" fill="#FFFFFF" d="M437.85,177.3l0.301,2.1c0.066,0.633,0.283,2.033,0.649,4.2
	c0,0.533-0.85,1.267-2.55,2.2c-1.866,1-3.634,1.5-5.3,1.5c-1.566,0-3.017-0.433-4.351-1.3c-1.133-0.733-1.699-1.317-1.699-1.75
	c0-0.567,0.199-0.85,0.6-0.85l1.85,1.2c1.467,0.767,2.733,1.15,3.801,1.15c1.133,0,2.517-0.317,4.149-0.95
	c1.5-0.6,2.25-1.033,2.25-1.3c0-0.033-0.383-2.267-1.149-6.7c0-0.667,0.216-0.85,0.649-0.55
	C437.483,176.517,437.75,176.867,437.85,177.3z"/>
<path fill-rule="evenodd" clip-rule="evenodd" fill="#FFFFFF" d="M437.75,180.05c0.134,0.5,0.316,0.833,0.55,1
	c0.2,0.167,0.3,0.383,0.3,0.65c0,0.4-0.1,0.733-0.3,1c-0.2,0.233-0.3,0.55-0.3,0.95c0,0.6-0.816,1.25-2.45,1.95
	c-1.6,0.667-3.066,1-4.399,1c-2.834,0-4.667-0.8-5.5-2.4c-0.301-1.634-0.45-2.517-0.45-2.65c0-0.466,0.066-1.233,0.2-2.3
	c0.133-1.033,0.199-1.8,0.199-2.3c-0.199-0.267-0.3-0.483-0.3-0.65c0-0.367,0.316-0.583,0.95-0.65c1.066-0.133,1.934-0.367,2.6-0.7
	c0.667-0.333,1.534-0.534,2.601-0.6c1.3-0.067,2.133,0.233,2.5,0.9c2,0.033,3.149,0.483,3.45,1.35c0.133,0.5,0.233,1.066,0.3,1.7
	C437.7,179.333,437.717,179.917,437.75,180.05z M430.55,185l0.4-0.05l-0.351-0.4l-1.6-0.05L430.55,185z M433.35,184.65
	c-0.833,0-1.25,0.05-1.25,0.15l-0.1,0.05L433.35,184.65z"/>
<path fill-rule="evenodd" clip-rule="evenodd" fill="#E6FFFF" d="M427.8,177.95c-1.333,0-2.434-0.684-3.3-2.05
	c0-0.533,0.217-0.65,0.65-0.35c0.033,0.034,0.3,0.3,0.8,0.8c0.6,0.5,1.416,0.9,2.45,1.2C428.4,177.817,428.2,177.95,427.8,177.95z"
	/>
<path fill-rule="evenodd" clip-rule="evenodd" fill="#E6FFFF" d="M437.6,177.2c-0.633,0.433-1.416,0.783-2.35,1.05h-1.35
	c-0.267-0.1-0.4-0.25-0.4-0.45c0-0.133,0.366-0.2,1.1-0.2c0.967-0.067,1.851-0.45,2.65-1.15c0.4-0.467,0.634-0.733,0.7-0.8
	c0.366-0.267,0.55-0.1,0.55,0.5C438.5,176.45,438.2,176.8,437.6,177.2z"/>
<path fill-rule="evenodd" clip-rule="evenodd" fill="#E6FFFF" d="M428,178.15c-0.667-0.233-1-0.467-1-0.7c0-0.3,0.3-0.367,0.9-0.2
	c1.233,0.367,2.6,0.55,4.1,0.55c0.967,0,1.767-0.15,2.4-0.45c0.333,0,0.5,0.133,0.5,0.4c0,0.167-0.217,0.35-0.65,0.55
	c-0.566,0.233-1.333,0.35-2.3,0.35C430.25,178.65,428.934,178.483,428,178.15z"/>
<path fill-rule="evenodd" clip-rule="evenodd" fill="#666666" d="M436.3,171.1c-2.666,1.033-4.399,1.55-5.2,1.55
	c-1.899,0-3.566-0.283-5-0.85c-1.133-0.466-1.699-0.816-1.699-1.05c0-0.1,0.05-0.2,0.149-0.3c0.101-0.133,0.217-0.2,0.351-0.2
	l2.1,0.9c0.9,0.434,2.283,0.65,4.15,0.65c0.733,0,2.033-0.4,3.899-1.2c0.233-0.1,0.684-0.267,1.351-0.5
	c0.633-0.267,0.983-0.6,1.05-1c-0.033-0.767-0.033-1.35,0-1.75c0.262-0.202,0.462-0.243,0.6-0.125
	c-0.033,0.136-0.05,0.328-0.05,0.575c0,0.034,0.033,0.434,0.1,1.2v0.3c0.006,0.019,0.015,0.036,0.025,0.05
	c-0.179,0.338-0.354,0.721-0.525,1.15C437.273,170.746,436.84,170.946,436.3,171.1z"/>
<path fill-rule="evenodd" clip-rule="evenodd" fill="#B9FFFF" d="M424.35,171.3c-0.033-0.5,0.067-0.6,0.301-0.3s0.35,0.6,0.35,0.9
	c0,2.5-0.267,6.5-0.8,12c0.066,0.033,0.017,0.05-0.15,0.05c-0.333,0-0.45-0.5-0.35-1.5c0-0.733,0.066-1.667,0.2-2.8
	c0.166-1.533,0.267-2.467,0.3-2.8v-3.9c0.133-0.167,0.2-0.434,0.2-0.8C424.366,171.75,424.35,171.467,424.35,171.3z"/>
<path fill-rule="evenodd" clip-rule="evenodd" fill="#B9FFFF" d="M439.35,184.35c-0.433-0.767-0.699-1.817-0.8-3.15
	c0-1.5-0.05-2.617-0.149-3.35c-0.601-3.3-0.9-5.5-0.9-6.6c0-2.067,0.233-1.733,0.7,1c0.033,0.967,0.2,2.25,0.5,3.85
	c0.533,3.2,0.8,5.733,0.8,7.6C439.5,184,439.45,184.217,439.35,184.35z"/>
<path fill-rule="evenodd" clip-rule="evenodd" fill="#B9FFFF" d="M425.55,185c0.733,0.5,1.351,0.85,1.851,1.05
	c1.1,0.434,2.366,0.65,3.8,0.65c3,0,5.116-0.55,6.35-1.65c0.634-0.566,1.2-1.133,1.7-1.7l0.3,0.05c0,0.067,0.017,0.133,0.05,0.2
	c0,0.667-0.8,1.45-2.399,2.35c-1.667,0.966-3.233,1.433-4.7,1.4h-2.6c-4.134-1.133-6.2-2.434-6.2-3.9c0-0.733,0.2-0.8,0.6-0.2
	C425,184.317,425.417,184.9,425.55,185z"/>
</svg>
