<?xml version="1.0" encoding="utf-8"?>
<!-- Generator: Adobe Illustrator 16.0.0, SVG Export Plug-In . SVG Version: 6.00 Build 0)  -->
<!DOCTYPE svg PUBLIC "-//W3C//DTD SVG 1.1//EN" "http://www.w3.org/Graphics/SVG/1.1/DTD/svg11.dtd">
<svg version="1.1" id="Selected_Items" xmlns="http://www.w3.org/2000/svg" xmlns:xlink="http://www.w3.org/1999/xlink" x="0px"
	 y="0px" width="550px" height="400px" viewBox="0 0 550 400" enable-background="new 0 0 550 400" xml:space="preserve">
<path fill-rule="evenodd" clip-rule="evenodd" d="M218.45,185.3c0,0.167-1.367,1.2-4.1,3.1c-2.534,1.733-4.267,2.883-5.2,3.45
	c-0.233,0.1-3.566,2.217-10,6.35c-0.3,0-0.5-0.1-0.6-0.3c-0.033-0.066-0.05-0.183-0.05-0.35c0-0.533,1.567-1.767,4.7-3.7
	c2.767-1.767,4.366-2.717,4.8-2.85c1.434-0.833,3.2-1.933,5.3-3.3c0.233-0.167,0.95-0.733,2.15-1.7c1.167-0.9,1.95-1.35,2.35-1.35
	C218.233,184.65,218.45,184.867,218.45,185.3z"/>
<path fill-rule="evenodd" clip-rule="evenodd" d="M226.5,195.4c-2.5-2.466-4.167-4.2-5-5.2c-2.934-3.367-4.4-5.117-4.4-5.25
	c0-1.467,1.683-0.284,5.05,3.55c1.667,1.9,3.333,3.967,5,6.2C227.15,195.167,226.934,195.4,226.5,195.4z"/>
<path fill-rule="evenodd" clip-rule="evenodd" d="M201.05,198.4c0.6,0.633,1.7,1.933,3.3,3.9c0.667,0.667,1.8,1.867,3.4,3.601
	c1.533,1.699,2.3,2.583,2.3,2.649c0,0.434-0.283,0.65-0.85,0.65c-0.733,0-4.233-3.9-10.5-11.7
	C198.7,196.467,199.483,196.767,201.05,198.4z"/>
<path fill-rule="evenodd" clip-rule="evenodd" d="M227.15,194.35c0,0.1-1.167,1-3.5,2.7c-2.933,2.134-5,3.684-6.2,4.65
	c-0.267,0.2-1.767,1.616-4.5,4.25c-2.134,2.033-3.45,3.05-3.95,3.05c-0.4,0-0.6-0.233-0.6-0.7c0-0.333,2.684-2.8,8.05-7.399
	c5.566-4.767,8.9-7.15,10-7.15C226.883,193.75,227.117,193.95,227.15,194.35z"/>
<path fill-rule="evenodd" clip-rule="evenodd" fill="#FFFFE8" d="M212.25,193.15c-0.133,0.4-0.617,0.767-1.45,1.1
	c-1.1,0.4-1.9,0.717-2.4,0.95c-2.633,1.5-4.033,2.25-4.2,2.25c-0.667,0-1-0.35-1-1.05c0-0.733,0.917-1.716,2.75-2.95
	c1.3-0.9,2.7-1.7,4.2-2.4c0.267-0.133,1.6-1.167,4-3.1c2.233-1.5,3.35-1.483,3.35,0.05c0,0.333-0.783,1.017-2.35,2.05
	C213.483,191.15,212.517,192.184,212.25,193.15z"/>
<path fill-rule="evenodd" clip-rule="evenodd" fill="#FFFFE8" d="M217.8,185.95c0.4,0,0.85,0.533,1.35,1.6
	c0,0.434-0.233,0.65-0.7,0.65c-0.233,0-0.434-0.1-0.6-0.3c-0.133-0.2-0.217-0.316-0.25-0.35c-0.6,0.5-1.034,0.75-1.3,0.75
	c-0.3,0-0.483-0.116-0.55-0.35l-0.05-0.4c0-0.233,0.25-0.55,0.75-0.95C216.983,186.167,217.434,185.95,217.8,185.95z"/>
<path fill-rule="evenodd" clip-rule="evenodd" fill="#FFFFE8" d="M201.9,197.55c0.2,0.233,0.617,0.567,1.25,1
	c0.4,0.333,0.6,0.617,0.6,0.85c0,0.2-0.067,0.367-0.2,0.5s-0.283,0.2-0.45,0.2c-0.2,0-1.267-0.883-3.2-2.649
	c0-0.267,0.184-0.5,0.55-0.7c0.233-0.133,0.767-0.383,1.6-0.75c0.133-0.066,0.567-0.383,1.3-0.95c0.5-0.4,0.883-0.6,1.15-0.6
	c0.2,0,0.383,0.117,0.55,0.35c0.134,0.2,0.2,0.35,0.2,0.45C205.25,195.65,204.133,196.417,201.9,197.55z"/>
<path fill-rule="evenodd" clip-rule="evenodd" fill="#FFFFE8" d="M206.05,196.85c0,0.267-0.133,0.617-0.4,1.05
	c-0.267,0.4-0.4,0.9-0.4,1.5c0,0.5-0.25,0.767-0.75,0.8c0.167,0.434,0.25,0.684,0.25,0.75c0,0.133-0.05,0.283-0.15,0.45
	c-0.133,0.199-0.3,0.3-0.5,0.3c-0.367,0-1.033-0.65-2-1.95c-0.1-0.167-0.283-0.517-0.55-1.05c-0.233-0.534-0.35-0.833-0.35-0.9
	c0-1.233,1.316-1.85,3.95-1.85C205.85,195.95,206.15,196.25,206.05,196.85z"/>
<path fill-rule="evenodd" clip-rule="evenodd" fill="#FFFFE8" d="M221.5,196.8c-0.333,0-0.55-0.1-0.65-0.3
	c-0.034-0.066-0.05-0.183-0.05-0.35c0-0.2,0.4-0.55,1.2-1.05c0.434-0.267,1.033-0.633,1.8-1.1c-3.866-3.867-5.8-6.033-5.8-6.5
	c0-1.3,1.283-0.583,3.85,2.15c1.267,1.367,2.533,2.883,3.8,4.55C225.65,194.367,224.267,195.233,221.5,196.8z"/>
<path fill-rule="evenodd" clip-rule="evenodd" fill="#FFFFE8" d="M222.55,196.2c0,0.167-2.183,2.117-6.55,5.85
	c-1.2,1.267-2.233,2.334-3.1,3.2c-1.633,1.634-2.85,2.45-3.65,2.45c-0.767,0-2.033-1.25-3.8-3.75c-1.633-2.467-2.45-3.717-2.45-3.75
	c0-0.434,0.2-0.65,0.6-0.65c0.2,0,1.1,1.134,2.7,3.4c1.6,2.267,2.6,3.399,3,3.399c0.434,0,1.467-0.833,3.1-2.5
	c2-2.033,3.117-3.133,3.35-3.3c0.8-0.633,2.233-1.933,4.3-3.9C221.717,195.217,222.55,195.067,222.55,196.2z"/>
<path fill-rule="evenodd" clip-rule="evenodd" fill="#FFFFE8" d="M221.15,190.15c0.533,0.833,0.817,1.267,0.85,1.3
	c0.167,0.167,0.483,0.6,0.95,1.3c0.533,0.467,0.8,0.883,0.8,1.25c0,0.3-0.267,0.45-0.8,0.45c-0.067,0.133-0.1,0.3-0.1,0.5
	c0.033,0.133-0.017,0.25-0.15,0.35c-0.833,0.467-1.534,0.917-2.1,1.35c-0.867,0.6-1.467,1.05-1.8,1.35
	c-0.167,0.133-0.367,0.35-0.6,0.65c-0.267,0.367-0.5,0.633-0.7,0.8c-1.667,1.333-2.717,2.25-3.15,2.75
	c-0.667,0.6-1.15,1.066-1.45,1.399c-0.267,0.233-0.6,0.467-1,0.7s-0.65,0.351-0.75,0.351c-0.167,0-0.3-0.084-0.4-0.25
	c-0.067-0.134-0.1-0.233-0.1-0.301c0-0.1,0.033-0.216,0.1-0.35c0.1-0.167,0.217-0.233,0.35-0.2l-0.3-0.6
	c-0.7,0.6-1.183,0.899-1.45,0.899c-0.633,0-0.95-0.199-0.95-0.6c0-0.267,0.383-0.7,1.15-1.3v-0.05
	c-0.133,0.033-0.267-0.017-0.4-0.15c-0.1-0.1-0.15-0.2-0.15-0.3l-0.65,0.25c-0.133,0-0.55-0.5-1.25-1.5
	c0-0.133,0.042-0.25,0.125-0.35c-0.365,0.3-0.706,0.45-1.025,0.45c-0.233,0-0.4-0.083-0.5-0.25c-0.067-0.1-0.1-0.2-0.1-0.3
	c0-0.167,0.05-0.283,0.15-0.35l-0.05-0.05c-0.567,0.467-0.983,0.7-1.25,0.7c-0.333,0-0.5-0.167-0.5-0.5c0-0.367,0.466-0.966,1.4-1.8
	c-0.133-0.267-0.2-0.417-0.2-0.45c0-0.533,1.033-1.5,3.1-2.9c1.833-1.267,2.917-1.933,3.25-2c0.233-0.066,0.517-0.25,0.85-0.55
	c0.4-0.3,0.683-0.483,0.85-0.55c0.3-0.133,0.5-0.333,0.6-0.6c0.1-0.3,0.233-0.517,0.4-0.65c0.533-0.4,1.2-0.783,2-1.15
	c0.1-0.033,0.3-0.25,0.6-0.65c0.4-0.367,0.833-0.55,1.3-0.55c0.4,0,0.8,0.15,1.2,0.45c0.4,0.3,0.633,0.633,0.7,1
	C220.433,189.283,220.817,189.617,221.15,190.15z M218.55,190.05l-0.1-0.25l-0.15,0.1l-0.05,0.05L218.55,190.05z M214.25,192
	l0.65-0.3l-0.1-0.1l-0.55,0.35V192z"/>
<path fill-rule="evenodd" clip-rule="evenodd" fill="#FFFFE8" d="M207.05,199.65c0.133,0.133,0.233,0.2,0.3,0.2l0.3-0.1
	c0.2,0,0.367,0.1,0.5,0.3c0.1,0.167,0.15,0.316,0.15,0.45l0.05,0.05l0.45-0.1c0.367,0,0.55,0.166,0.55,0.5l-0.25,0.5l0.05,0.35
	c0.4,0.066,0.617,0.167,0.65,0.3c0.034,0.101,0.017,0.25-0.05,0.45l0.8,0.45l0.95-0.45c0.333,0,0.5,0.167,0.5,0.5
	c0,0.167-0.1,0.316-0.3,0.45c-0.133,0.1-0.35,0.233-0.65,0.4l-0.05,0.05c0.133-0.033,0.35-0.15,0.65-0.351
	c0.233-0.199,0.417-0.3,0.55-0.3c0.333,0,0.5,0.167,0.5,0.5c0,0.2-0.417,0.684-1.25,1.45c-0.867,0.767-1.5,1.15-1.9,1.15
	c-0.7,0-1.75-0.917-3.15-2.75c-1.3-1.733-1.95-2.851-1.95-3.351c0-0.466,0.15-0.783,0.45-0.95c0.333-0.233,0.75-0.067,1.25,0.5
	c0.2-0.267,0.367-0.4,0.5-0.4S206.917,199.517,207.05,199.65z M207,202.6c-0.033,0.101,0.033,0.217,0.2,0.351l0.05-0.45L207,202.6z"
	/>
<path fill-rule="evenodd" clip-rule="evenodd" d="M210.35,201.15c0,0.267-0.167,0.399-0.5,0.399c-0.2,0-0.75-0.184-1.65-0.55
	c-0.934-0.366-1.45-0.566-1.55-0.6c-1.633-0.5-2.45-0.9-2.45-1.2c0-0.233,0.15-0.35,0.45-0.35
	C208.45,200.116,210.35,200.884,210.35,201.15z"/>
<path fill-rule="evenodd" clip-rule="evenodd" d="M207.85,197.2c0.2,0,0.316,0.117,0.35,0.35c0,0.333-0.184,1.25-0.55,2.75
	c-0.033,0.2-0.117,0.667-0.25,1.4c-0.167,0.666-0.35,1-0.55,1c-0.233,0-0.35-0.15-0.35-0.45c0-0.366,0.067-0.8,0.2-1.3
	c0.167-0.533,0.283-0.95,0.35-1.25c0.1-0.867,0.15-1.35,0.15-1.45C207.333,197.55,207.55,197.2,207.85,197.2z"/>
<path fill-rule="evenodd" clip-rule="evenodd" d="M213.6,195.4c0.2,0,0.483,0.333,0.85,1c-0.767-2.3-1.15-3.566-1.15-3.8
	c0-0.467,0.217-0.35,0.65,0.35c0.133,0.2,0.55,0.917,1.25,2.15h0.35c0-0.6,0.1-0.9,0.3-0.9c0.133,0,0.25,0.117,0.35,0.35
	c0.033,0.133,0.1,0.317,0.2,0.55c0.033-0.1,0.083-0.517,0.15-1.25c0.067-0.567,0.15-0.85,0.25-0.85c0.233,0,0.333,0.267,0.3,0.8
	c0,0.367-0.05,0.75-0.15,1.15c-0.133,0.667-0.35,0.95-0.65,0.85c0.167,0.4,0.067,0.6-0.3,0.6c-0.4,0-0.733-0.2-1-0.6
	c-0.233-0.433-0.383-0.683-0.45-0.75c0,0.133,0.233,0.9,0.7,2.3c0,0.2-0.1,0.3-0.3,0.3c-0.167,0-0.45-0.3-0.85-0.9h-0.05
	c0.067,0.267-0.033,0.4-0.3,0.4l-0.25-0.1c-0.033,0.167-0.083,0.317-0.15,0.45c-0.1,0.2-0.25,0.317-0.45,0.35
	c0.033,0.167,0.117,0.483,0.25,0.95c0,0.233-0.083,0.35-0.25,0.35c-0.2,0-0.3-0.1-0.3-0.3h-0.05c0.1,1.033,0,1.55-0.3,1.55
	c-0.533,0-1.133-0.567-1.8-1.7c-0.567-1.133-0.85-1.717-0.85-1.75c0-0.2,0.066-0.3,0.2-0.3c0.067,0,0.267,0.333,0.6,1
	c0.4,0.8,0.967,1.483,1.7,2.05v-0.65c-0.367-1.3-0.55-2.033-0.55-2.2c0-0.233,0.083-0.35,0.25-0.35l0.2,0.15
	c0.1,0,0.167-0.033,0.2-0.1c0.1,0,0.216,0.083,0.35,0.25c0.067,0.1,0.167,0.233,0.3,0.4l0.15-0.45c0-0.1-0.067-0.25-0.2-0.45
	c-0.167-0.2-0.25-0.35-0.25-0.45c0-0.2,0.083-0.3,0.25-0.3c0.067,0,0.184,0.117,0.35,0.35c0.2,0.233,0.333,0.417,0.4,0.55
	l-0.15-0.75C213.4,195.5,213.467,195.4,213.6,195.4z"/>
<path fill-rule="evenodd" clip-rule="evenodd" d="M213.8,194.2c-0.6,0.667-0.966,1-1.1,1c-0.1,0-0.167-0.034-0.2-0.1l-0.05-0.15
	c1.933-2.133,2.9-2.75,2.9-1.85C214.65,193.533,214.133,193.9,213.8,194.2z"/>
<path fill-rule="evenodd" clip-rule="evenodd" d="M221.85,190.95c0,0.066,0.017,0.183,0.05,0.35c0.067,0.133,0.167,0.233,0.3,0.3
	c0.066,0.033,0.1,0.1,0.1,0.2c0,0.167-0.1,0.25-0.3,0.25c-0.133,0-0.25-0.05-0.35-0.15c0,0.033-0.017,0.133-0.05,0.3
	c-0.033,0.133-0.117,0.2-0.25,0.2c-0.067,0-0.184-0.083-0.35-0.25c0,0.033-0.067,0.117-0.2,0.25c-0.066,0.067-0.133,0.2-0.2,0.4
	c-0.033,0.1-0.133,0.184-0.3,0.25c-0.233,0.067-0.417,0.117-0.55,0.15c0,0.1,0,0.25,0,0.45c-0.033,0.133-0.133,0.2-0.3,0.2l-0.6-0.4
	c0,0.333-0.117,0.5-0.35,0.5c-0.1,0-0.333-0.267-0.7-0.8l-0.55-0.8c0-0.167,0.083-0.25,0.25-0.25c0.133,0,0.417,0.333,0.85,1
	c-0.033-0.1-0.033-0.2,0-0.3c0.066-0.133,0.167-0.2,0.3-0.2c0.167,0,0.283,0.05,0.35,0.15c0.133,0.2,0.217,0.317,0.25,0.35
	c-0.1-0.467-0.15-0.85-0.15-1.15l-1.2-1.9c0-0.2,0.083-0.3,0.25-0.3c0.3,0,0.85,0.717,1.65,2.15l0.05-0.1l-0.35-0.6
	c0-0.167,0.083-0.25,0.25-0.25c0.166,0,0.249,0.033,0.25,0.1v-0.2c-0.367-0.733-0.55-1.2-0.55-1.4c0-0.767,0.5-0.2,1.5,1.7
	c0.167-0.267,0.35-0.4,0.55-0.4S221.817,190.817,221.85,190.95z"/>
<path fill-rule="evenodd" clip-rule="evenodd" d="M218.15,191.5c-0.1,0-0.167-0.033-0.2-0.1l-0.05-0.15
	c0-0.167,0.483-0.517,1.45-1.05c0.967-0.5,1.45-0.567,1.45-0.2C220.8,190.067,219.917,190.567,218.15,191.5z"/>
<path fill-rule="evenodd" clip-rule="evenodd" d="M212.05,195.55c-0.066,0-0.133-0.05-0.2-0.15l-0.05-0.1
	c0-0.167,0.083-0.25,0.25-0.25c0.167,0,0.25,0.083,0.25,0.25C212.3,195.467,212.217,195.55,212.05,195.55z"/>
</svg>
