<?xml version="1.0" encoding="utf-8"?>
<!-- Generator: Adobe Illustrator 16.0.0, SVG Export Plug-In . SVG Version: 6.00 Build 0)  -->
<!DOCTYPE svg PUBLIC "-//W3C//DTD SVG 1.1//EN" "http://www.w3.org/Graphics/SVG/1.1/DTD/svg11.dtd">
<svg version="1.1" id="Selected_Items" xmlns="http://www.w3.org/2000/svg" xmlns:xlink="http://www.w3.org/1999/xlink" x="0px"
	 y="0px" width="550px" height="400px" viewBox="0 0 550 400" enable-background="new 0 0 550 400" xml:space="preserve">
<path fill-rule="evenodd" clip-rule="evenodd" fill="#333333" d="M288.95,196.9v-0.025c0.369-0.459,0.886-0.917,1.55-1.375
	c1.5-1,2.25-0.383,2.25,1.85c0,1-0.05,1.617-0.15,1.85c-0.3,0.667-1.083,0.916-2.35,0.75c-0.167,0.5-0.25,1.416-0.25,2.75
	c-0.233,0.166-0.434,0.283-0.6,0.35c-0.287-0.299-0.521-0.691-0.7-1.175V198.7c0.073-0.212,0.123-0.479,0.149-0.8
	C288.884,197.367,288.917,197.033,288.95,196.9z"/>
<path fill-rule="evenodd" clip-rule="evenodd" fill="#333333" d="M294,197.6c-0.333,0.066-0.667,0.183-1,0.35
	c-0.667,0.267-1,1.233-1,2.899v3.101c0,0.399-0.167,1.899-0.5,4.5c0,0.666,0.55,1.2,1.65,1.6c1.066,0.4,1.6,0.717,1.6,0.95
	c0,0.042,0,0.083,0,0.125c-0.017-0.01-0.033-0.019-0.05-0.025h-1.351c-1.704-0.239-2.879-0.54-3.524-0.899
	c-0.226-0.294-0.417-0.627-0.575-1c-0.333-0.8-0.5-1.783-0.5-2.95c0.767-4.667,1.2-7.517,1.3-8.55c0.3,0,0.9-0.1,1.8-0.3
	c0.801-0.167,1.483-0.233,2.051-0.2C293.9,197.3,293.934,197.433,294,197.6z"/>
<path fill-rule="evenodd" clip-rule="evenodd" fill="#333333" d="M291.15,205.2c0.066-0.101,0.233-0.15,0.5-0.15
	c0.399,0,0.75,0.267,1.05,0.8c0.366,0.733,0.6,1.134,0.7,1.2c0.033,0.066,1,0.45,2.899,1.15l1.601,0.1
	c0.1,0.066,0.233,0.101,0.399,0.101c0.134,0.066,0.2,0.216,0.2,0.449s-0.134,0.45-0.4,0.65c-0.267,0.167-0.416,0.267-0.449,0.3
	l-0.65,0.25l8.4-0.5c0.366,0.233,0.583,0.45,0.649,0.65c0.566-0.334,1.134-1.45,1.7-3.351c0-0.466-0.167-1.066-0.5-1.8v-1.35
	c0.833-0.033,1.366,0.416,1.6,1.35c0.043,0.155,0.076,0.355,0.101,0.601v1.875c-0.077,0.561-0.244,1.202-0.5,1.925
	c-0.211,0.561-0.436,1.011-0.675,1.35c-0.42,0.215-0.944,0.331-1.575,0.351c-0.209,0.007-0.393,0.023-0.55,0.05h-10.726
	c-0.067-0.035-0.143-0.068-0.225-0.101H294c-0.396-0.24-0.945-0.573-1.65-1c-0.899-0.533-1.35-1.033-1.35-1.5
	c0-0.133,0.267-0.483,0.8-1.05c-0.7-0.934-0.967-1.684-0.8-2.25L291.15,205.2z"/>
<path fill-rule="evenodd" clip-rule="evenodd" fill="#333333" d="M294.05,207.9c0-0.2,0.134-0.301,0.4-0.301
	c0.3,0,0.7,0.051,1.2,0.15l6.85-0.05c0.767-0.033,1.316-0.184,1.65-0.45c0.133-0.1,0.283-0.3,0.449-0.6
	c0.134-0.4,0.233-0.617,0.301-0.65c0.433,0,0.699,0.017,0.8,0.05c0.1,0.033,0.149,0.134,0.149,0.3c0,0.467-0.55,1.067-1.649,1.801
	c-1.167,0.8-2.217,1.183-3.15,1.149l-3.399,0.101c-0.2,0-0.301-0.117-0.301-0.351c0-0.133,0.117-0.2,0.351-0.2
	c0.6,0,1.267-0.066,2-0.199h1.3c0.116-0.146,0.475-0.229,1.075-0.25h-6.525c-0.633-0.034-1.05-0.084-1.25-0.15
	C294.134,208.184,294.05,208.066,294.05,207.9z"/>
<path fill-rule="evenodd" clip-rule="evenodd" fill="#333333" d="M291.85,207.15c1.134,0.333,1.733,0.517,1.801,0.55l3.75,1.1
	c-0.067-0.2-0.101-0.35-0.101-0.45c0.033-0.199,0.2-0.316,0.5-0.35h2.65c0.1-0.1,0.333-0.15,0.7-0.15h2
	c0.333,0.101,0.5,0.301,0.5,0.601s-0.384,0.6-1.15,0.899c-0.9,0.301-1.533,0.534-1.9,0.7h-2.25c-0.6,0.2-1.133,0.3-1.6,0.3
	c-0.667,0-1-0.166-1-0.5c0-0.199,0.066-0.333,0.2-0.399c-1.033-0.233-1.967-0.483-2.8-0.75c-1.601-0.5-2.4-0.983-2.4-1.45
	c0-0.267,0.1-0.417,0.3-0.45C291.283,206.733,291.55,206.85,291.85,207.15z M300.7,208.95c0.2,0,0.399-0.05,0.6-0.15l-0.55,0.101
	L300.7,208.95z"/>
<path fill-rule="evenodd" clip-rule="evenodd" fill="#333333" d="M304.8,198.4c0.834,0.533,1.25,1.683,1.25,3.45
	c0,0.867-0.05,1.667-0.149,2.4c-0.101,0.7-0.15,1.233-0.15,1.6c0,0.467,0.1,1.2,0.3,2.2c0,0.434-0.267,0.884-0.8,1.351
	c-0.667,0.566-1.467,0.85-2.4,0.85c-0.466,0-0.783-0.017-0.949-0.05c-0.067-0.066-0.134-0.101-0.2-0.101
	c-0.167,0.101-0.367,0.15-0.601,0.15c-0.433,0-0.649-0.15-0.649-0.45c0-0.133,0.333-0.35,1-0.649c0.866-0.434,1.383-0.7,1.55-0.801
	c0.066-0.066,0.45-0.267,1.15-0.6c0.533-0.3,0.8-0.533,0.8-0.7l-0.101-1.2c0-0.5,0.051-1.133,0.15-1.899
	c0.1-0.733,0.15-1.417,0.15-2.05c0-1.634-0.517-2.617-1.551-2.95c-1.566-0.1-2.916-0.233-4.05-0.4l-5.35,0.1
	c-1.134,0.267-1.783,0.517-1.95,0.75c-0.366,0.233-0.583,0.4-0.65,0.5c-0.133,0.267-0.3,0.4-0.5,0.4c-0.3,0-0.449-0.166-0.449-0.5
	c0-0.4,0.399-0.867,1.199-1.4c0.834-0.533,1.567-0.783,2.2-0.75l5.601-0.05C302.283,197.633,304,197.9,304.8,198.4z"/>
<path fill-rule="evenodd" clip-rule="evenodd" fill="#333333" d="M304.9,208.4c0.166-0.267,0.35-0.4,0.55-0.4
	c0.1,0,0.233,0.083,0.399,0.25c0.067-0.066,0.2-0.316,0.4-0.75c0.2-0.333,0.434-0.333,0.7,0c0.066,0.167,0.217,0.384,0.45,0.65
	c0.066,0.133,0.1,0.35,0.1,0.649c-0.167,1.134-0.467,1.7-0.9,1.7c-0.3,0-0.449-0.1-0.449-0.3c0-0.233-0.167-0.351-0.5-0.351
	l-0.45,0.25c-0.334,0-0.5-0.166-0.5-0.5l0.1-0.399l-0.1-0.351C304.7,208.75,304.767,208.6,304.9,208.4z"/>
<path fill-rule="evenodd" clip-rule="evenodd" fill="#333333" d="M292.15,198.4c0.233,0,0.35,0.167,0.35,0.5l-0.25,0.75
	c-0.167,0.534-0.25,1.034-0.25,1.5c0,1.533,0.167,3,0.5,4.399c0,0.434-0.15,0.65-0.45,0.65c-0.399,0-0.7-0.2-0.899-0.601
	c-0.134-0.267-0.2-0.5-0.2-0.699c0-0.101,0.05-0.233,0.149-0.4c0.101-0.167,0.15-0.283,0.15-0.35c-0.1-1.2-0.15-2.217-0.15-3.051
	c0-0.8,0.017-1.283,0.051-1.45C291.283,198.817,291.616,198.4,292.15,198.4z"/>
<path fill-rule="evenodd" clip-rule="evenodd" fill="#333333" d="M303.9,195.7c-0.4,0-0.634-0.017-0.7-0.05l-8-0.1
	c-0.767,0.133-1.367,0.2-1.8,0.2c-0.434,0.033-1,0.267-1.7,0.7c-0.667,0.4-1.05,0.6-1.15,0.6c-0.233,0-0.383-0.083-0.45-0.25v-0.25
	c0-0.433,0.584-0.883,1.75-1.35c1.233-0.5,2.384-0.7,3.45-0.6l8.101,0.05l0.55,0.1l0.6-0.1h2.3c0.051,0.002,0.101,0.002,0.15,0
	c0.165,0.036,0.398,0.136,0.7,0.3c0.366,0.233,0.6,0.433,0.7,0.6c0.233,0.467,0.366,0.817,0.399,1.05l0.05,0.5v0.05
	c0.024,0.273,0.05,0.565,0.075,0.875c-0.038,0.305-0.097,0.63-0.175,0.975c0,0.267,0.066,0.667,0.2,1.2v1.2
	c0.004,0.472,0.004,0.914,0,1.324v0.5c-0.054,2.384-0.271,3.575-0.65,3.575c-0.366,0-0.55-0.149-0.55-0.45
	c0.066-0.333,0.1-0.533,0.1-0.6c-0.166-0.233-0.283-0.417-0.35-0.55c-0.033-0.033-0.05-0.217-0.05-0.55l0.05-0.551v-2.5l0.6-4.5
	c0-0.367-0.083-0.684-0.25-0.95c-0.267-0.433-0.649-0.6-1.149-0.5h-2.05C304.55,195.683,304.3,195.7,303.9,195.7z"/>
<path fill-rule="evenodd" clip-rule="evenodd" fill="#333333" d="M308.75,205.85c-0.167,0.101-0.267,0.2-0.3,0.301
	c-0.066,0.1-0.117,0.316-0.15,0.649c-0.066,0.267-0.233,0.4-0.5,0.4c-0.1,0-0.233-0.084-0.399-0.25
	c-0.101,0.066-0.15,0.316-0.15,0.75c-0.033,0.333-0.217,0.5-0.55,0.5c-0.233,0-0.384-0.117-0.45-0.351v-0.35
	c0-0.366,0.217-0.95,0.65-1.75l0.35-0.85c0.5-0.334,0.75-0.567,0.75-0.7l-0.1-0.7c0-0.4,0.149-0.667,0.449-0.8
	c0.301-0.101,0.5,0.1,0.601,0.6v2.351C308.905,205.717,308.839,205.783,308.75,205.85z"/>
<path fill-rule="evenodd" clip-rule="evenodd" fill="#333333" d="M304.2,197.15c0.366-0.066,0.767,0.033,1.2,0.3
	c0.066,0.066,0.216,0.283,0.449,0.65c0.267,0.367,0.534,0.55,0.801,0.55c0.033,0,0.149-0.167,0.35-0.5c0.2-0.367,0.4-0.55,0.6-0.55
	c0.367,0,0.551,0.4,0.551,1.2c0,0.4-0.134,1.434-0.4,3.101l0.15,1c0,0.533-0.101,1.166-0.301,1.899
	c-0.133,0.4-0.333,1.017-0.6,1.851v0.05c0.134-0.134,0.267-0.2,0.4-0.2c0.433,0,0.633,0.25,0.6,0.75c0,1.066-0.2,1.667-0.6,1.8
	c-0.101,0-0.301,0.267-0.601,0.8c-0.3,0.5-0.583,0.75-0.85,0.75c-0.3,0-0.467-0.083-0.5-0.25c0-0.199,0-0.333,0-0.399
	c0-0.334,0.066-0.733,0.2-1.2c0.133-0.434,0.199-0.783,0.199-1.05c0-0.2-0.05-0.417-0.149-0.65c-0.134-0.233-0.2-0.483-0.2-0.75
	c0.333-2.767,0.5-4.333,0.5-4.7c0-0.267-0.05-0.583-0.15-0.949c-0.1-0.4-0.166-0.734-0.199-1c-0.034-0.267-0.367-0.583-1-0.95
	c-0.634-0.333-0.95-0.65-0.95-0.95S303.866,197.25,304.2,197.15z M306.9,206.9c-0.002,0.14-0.052,0.423-0.15,0.85v0.05
	c0.134-0.1,0.2-0.267,0.2-0.5C306.918,207.106,306.901,206.973,306.9,206.9z"/>
<path fill-rule="evenodd" clip-rule="evenodd" fill="#333333" d="M304.6,195.35c0.7,0.1,1.301,0.15,1.801,0.15
	c0.6,0,0.966-0.05,1.1-0.15c0.233,0,0.467,0.183,0.7,0.55c0.166,0.3,0.25,0.55,0.25,0.75c0,0.467-0.134,0.967-0.4,1.5
	c-0.366,0.767-0.899,1.15-1.6,1.15c-0.4,0-0.733-0.183-1-0.55c-0.166-0.231-0.249-0.415-0.25-0.55c-0.004,0.167-0.304,0.25-0.9,0.25
	c-0.833,0-1.649-0.1-2.45-0.3l-3.449-0.05c-1.067-0.033-1.75-0.083-2.051-0.15H295l-0.05,0.05H293c-0.566-0.067-0.934-0.15-1.1-0.25
	c-0.167-0.067-0.25-0.2-0.25-0.4c0-0.3,0.149-0.467,0.449-0.5c-0.133-0.2-0.199-0.383-0.199-0.55c0-0.367,0.116-0.617,0.35-0.75
	s0.717-0.267,1.45-0.4h2.25l0.25,0.1h4.149l0.25-0.1h3C303.667,195.15,304,195.217,304.6,195.35z"/>
<path fill-rule="evenodd" clip-rule="evenodd" d="M295,189.6c0.2,0.167,0.434,0.367,0.7,0.6c1,0.633,1.533,0.983,1.6,1.05
	c1.066,0.9,1.834,1.633,2.3,2.2c0.5-1.067,1.134-1.983,1.9-2.75c0.767-0.934,1.167-1.417,1.2-1.45c0.333-0.5,0.616-0.767,0.85-0.8
	c0.233,0,0.351,0.167,0.351,0.5c0,0.367-0.301,0.867-0.9,1.5c-0.8,0.9-1.233,1.4-1.3,1.5c-0.533,0.667-0.867,1.167-1,1.5
	c-0.233,0.966-0.566,1.45-1,1.45c-0.3,0-0.566-0.183-0.8-0.55c-0.233-0.4-0.4-0.65-0.5-0.75l-1.45-1.35l-1.8-1.3
	c-0.867-0.6-1.301-1.05-1.301-1.35c0-0.333,0.15-0.5,0.45-0.5C294.434,189.1,294.667,189.267,295,189.6z"/>
<path fill-rule="evenodd" clip-rule="evenodd" fill="#99FFFF" d="M292.85,198.25H304.9c0.233,0,0.35,0.15,0.35,0.45
	c0,0.3-0.116,0.45-0.35,0.45h-12.15c-0.233,0-0.35-0.15-0.35-0.45C292.4,198.4,292.55,198.25,292.85,198.25z"/>
<path fill-rule="evenodd" clip-rule="evenodd" fill="#99FFFF" d="M293.45,198.9l-0.05,0.1v8.3c-0.101,0.267-0.25,0.4-0.45,0.4
	c-0.4,0-0.601-0.334-0.601-1c0.067-0.767,0.101-1.217,0.101-1.351v-6.6c0.2-0.5,0.416-0.667,0.649-0.5
	C293.333,198.35,293.45,198.567,293.45,198.9z"/>
<path fill-rule="evenodd" clip-rule="evenodd" fill="#99FFFF" d="M292.45,207.15c0-0.134,0-0.217,0-0.25
	c0.066-0.067,0.217-0.134,0.45-0.2h12c0.233,0,0.35,0.149,0.35,0.45c0,0.3-0.15,0.449-0.45,0.449l-12,0.051
	c-0.2-0.101-0.316-0.184-0.35-0.25V207.15z"/>
<path fill-rule="evenodd" clip-rule="evenodd" fill="#99FFFF" d="M304.9,198.3c0.267,0,0.399,0.317,0.399,0.95
	c0,0.367-0.017,0.816-0.05,1.35v4.75c0,0.167,0.033,0.601,0.1,1.301c-0.033,0.666-0.216,1-0.55,1c-0.366,0-0.55-0.334-0.55-1
	c0.066-0.7,0.1-1.134,0.1-1.301v-4.8c-0.066-0.434-0.1-0.833-0.1-1.2C304.25,198.65,304.467,198.3,304.9,198.3z"/>
<path fill-rule="evenodd" clip-rule="evenodd" fill="#99FFFF" d="M304.7,200c0,0.733-0.101,1.8-0.3,3.2v1.3
	c0.333,0.066,0.5,0.333,0.5,0.8s-0.101,0.9-0.301,1.3c-0.399,0.733-1.066,0.917-2,0.551h-2.05c-1.166-0.101-1.95-0.051-2.35,0.149
	l-3.601-0.1c-0.366-0.167-0.583-0.25-0.649-0.25l-0.25,0.1c-0.3,0-0.467-0.233-0.5-0.7c0-0.466,0-0.716,0-0.75l0.149-1.55l-0.35-1.6
	c0.134-0.4,0.2-0.767,0.2-1.101l0.05-1.1l-0.1-1.05c0-0.3,0.166-0.45,0.5-0.45c0.166,0,0.316,0.1,0.449,0.3h3.601
	c0.066-0.133,0.2-0.2,0.399-0.2l6.15-0.05C304.55,198.967,304.7,199.367,304.7,200z"/>
<path fill-rule="evenodd" clip-rule="evenodd" fill="#333333" d="M291.5,208.15c0-0.367,0.167-0.551,0.5-0.551s0.5,0.2,0.5,0.601
	c0,0.333-0.15,0.5-0.45,0.5c-0.2,0-0.35-0.101-0.45-0.3L291.5,208.15z"/>
<path fill-rule="evenodd" clip-rule="evenodd" fill="#333333" d="M291.55,197.75c0.033-0.767,0.367-0.917,1-0.45v10.8l0.101,0.2
	c0,0.101-0.067,0.217-0.2,0.351c-0.134,0.1-0.25,0.149-0.351,0.149c-0.366,0-0.55-0.383-0.55-1.149
	c0.066-0.934,0.101-1.534,0.101-1.801V199.7C291.55,198.833,291.517,198.183,291.55,197.75z"/>
<path fill-rule="evenodd" clip-rule="evenodd" fill="#333333" d="M306.15,202.7v3.3c0,0.267,0.033,0.9,0.1,1.9
	c-0.033,0.833-0.233,1.25-0.6,1.25c-0.367,0-0.551-0.434-0.551-1.301c0.067-1,0.101-1.633,0.101-1.899v-8.1
	c-0.066-0.434-0.101-0.75-0.101-0.95c0-0.367,0.184-0.566,0.551-0.6c0.366,0.2,0.55,0.667,0.55,1.4c0,0.433-0.017,1.033-0.05,1.8
	C306.184,200.167,306.184,201.233,306.15,202.7z"/>
<path fill-rule="evenodd" clip-rule="evenodd" fill="#333333" d="M291.65,207.8c0-0.233,0.149-0.383,0.449-0.45h13.95
	c0.267,0.2,0.4,0.351,0.4,0.45c-0.134,0.2-0.3,0.367-0.5,0.5H292.5l-0.1,0.05C291.9,208.35,291.65,208.167,291.65,207.8z"/>
<path fill-rule="evenodd" clip-rule="evenodd" fill="#333333" d="M291.65,197.65c0.066-0.066,0.25-0.117,0.55-0.15l13.95,0.05
	c0.166-0.033,0.3,0.017,0.399,0.15c0.066,0.1,0.101,0.2,0.101,0.3c0,0.033-0.034,0.117-0.101,0.25c-0.1,0.133-0.2,0.2-0.3,0.2h-14.3
	c-0.233-0.034-0.351-0.2-0.351-0.5C291.6,197.783,291.616,197.683,291.65,197.65z"/>
<path fill-rule="evenodd" clip-rule="evenodd" fill="#333333" d="M290.35,195.4c-0.171-0.049-0.279-0.141-0.324-0.275
	c0.024-0.027,0.049-0.052,0.074-0.075c0.242-0.219,0.542-0.402,0.9-0.55h14.85c0.283,0.054,0.633,0.104,1.051,0.15
	c0.166,0,0.433,0.1,0.8,0.3c0.118,0.075,0.227,0.15,0.325,0.225c-0.084,0.09-0.176,0.165-0.275,0.225H290.35z"/>
<path fill-rule="evenodd" clip-rule="evenodd" fill="#333333" d="M291.4,195.2c0,0.2-0.051,0.316-0.15,0.35
	c-0.066,0.034-0.283,0.05-0.65,0.05c-0.533,0-0.899,0.65-1.1,1.95l-0.25,0.95c-0.134,0.433-0.2,0.783-0.2,1.05v8.15
	c0,0.233,0.15,0.55,0.45,0.95c0.333,0.433,0.5,0.75,0.5,0.949c0,0.267,0.384,0.517,1.15,0.75c0.608,0.167,0.967,0.358,1.074,0.575
	c-1.674-0.314-2.648-0.706-2.925-1.175c-0.066-0.1-0.217-0.566-0.45-1.4c-0.047-0.142-0.097-0.267-0.149-0.375V198.7
	c0.073-0.212,0.123-0.479,0.149-0.8c0.034-0.533,0.067-0.867,0.101-1c0.1-0.633,0.483-1.25,1.149-1.85
	c0.165-0.149,0.356-0.283,0.575-0.4C291.158,194.667,291.4,194.851,291.4,195.2z"/>
<path fill-rule="evenodd" clip-rule="evenodd" fill="#333333" d="M289.8,202.3c-0.066,1.867-0.267,2.8-0.6,2.8
	c-0.233,0-0.384-0.267-0.45-0.8c0-0.533,0-0.816,0-0.85v-1.2c0.333-0.4,0.6-0.55,0.8-0.45C289.717,201.9,289.8,202.066,289.8,202.3z
	"/>
<path fill-rule="evenodd" clip-rule="evenodd" fill="#333333" d="M294.7,211.1h-1.351c-0.841-0.118-1.558-0.251-2.149-0.399h16.6
	c0.2-0.233,0.434-0.617,0.7-1.15c0.135-0.285,0.234-0.535,0.3-0.75c0.006,0.099,0.022,0.182,0.05,0.25
	c0.007,0.047,0.007,0.097,0,0.15c-0.06,0.151-0.102,0.31-0.125,0.475c-0.038,0.075-0.08,0.15-0.125,0.226
	c-0.039,0.087-0.072,0.171-0.1,0.25c-0.434,0.633-1.2,0.966-2.3,1c-0.209,0.007-0.393,0.023-0.55,0.05h-10.726
	C294.857,211.165,294.782,211.132,294.7,211.1z M308.7,207.55c0-0.236,0.083-0.395,0.25-0.475v0.85
	c-0.033,0.075-0.059,0.158-0.075,0.25C308.759,207.881,308.7,207.672,308.7,207.55z"/>
<path fill-rule="evenodd" clip-rule="evenodd" fill="#333333" d="M308.4,208.1c0.194-0.223,0.378-0.306,0.55-0.25v0.075
	c-0.043,0.098-0.076,0.206-0.101,0.325c-0.066,0.366-0.066,0.634,0,0.8c0.007,0.047,0.007,0.097,0,0.15
	c-0.06,0.152-0.102,0.311-0.125,0.475c-0.038,0.075-0.079,0.15-0.125,0.226c-0.039,0.087-0.072,0.171-0.1,0.25
	c-0.276,0.403-0.685,0.688-1.225,0.85l-0.025-0.05c0-0.167,0-0.267,0-0.3c0-0.2,0.283-0.767,0.85-1.7
	C308.233,208.45,308.333,208.167,308.4,208.1z"/>
<path fill-rule="evenodd" clip-rule="evenodd" fill="#333333" d="M307.175,194.7c0.142,0.053,0.317,0.136,0.525,0.25
	c0.366,0.233,0.6,0.433,0.7,0.6c0.233,0.467,0.366,0.817,0.399,1.05l0.05,0.5c0.004,0.019,0.013,0.035,0.025,0.05
	c0.015,0.345,0.04,0.712,0.075,1.1v9.45c-0.038-0.042-0.071-0.092-0.101-0.15v-6.899c-0.199-0.034-0.333-0.101-0.399-0.2l0.149-3.05
	c0.034-0.633,0.034-1.083,0-1.35c-0.066-0.367-0.333-0.6-0.8-0.7c-0.434-0.067-0.649-0.2-0.649-0.4
	C307.15,194.839,307.158,194.756,307.175,194.7z"/>
<path fill-rule="evenodd" clip-rule="evenodd" d="M307.05,210c-0.166,0.333-0.467,0.45-0.899,0.35c-0.567-0.036-0.851-0.369-0.851-1
	c0-0.633,0.3-0.949,0.9-0.949c0.6,0,0.899,0.366,0.899,1.1L307.05,210z"/>
<rect x="303.05" y="208.05" fill-rule="evenodd" clip-rule="evenodd" width="1.05" height="1"/>
<rect x="303.05" y="209.45" fill-rule="evenodd" clip-rule="evenodd" width="1" height="1.05"/>
<rect x="301.55" y="208.05" fill-rule="evenodd" clip-rule="evenodd" width="1" height="1"/>
<rect x="301.55" y="209.45" fill-rule="evenodd" clip-rule="evenodd" width="1" height="1"/>
<rect x="299.95" y="208.05" fill-rule="evenodd" clip-rule="evenodd" width="1" height="1"/>
<polygon fill-rule="evenodd" clip-rule="evenodd" points="300.95,209.4 300.95,210.5 299.9,210.5 299.9,209.5 299.95,209.4 "/>
<path fill-rule="evenodd" clip-rule="evenodd" d="M288.4,199.3c0-0.533,0.116-0.933,0.35-1.2c0.233,0.3,0.35,0.717,0.35,1.25
	c0,0.3-0.017,0.733-0.05,1.3c0.033,0.566,0.033,1.399,0,2.5c0.066,3.399-0.033,5.1-0.3,5.1c-0.233,0-0.35-0.35-0.35-1.05
	c0.033-0.8,0.05-1.3,0.05-1.5v-2.55c-0.033-1.134-0.033-1.983,0-2.551C288.417,200.033,288.4,199.6,288.4,199.3z"/>
<path fill-rule="evenodd" clip-rule="evenodd" d="M309.25,197.55l-0.05,0.25v10.5c-0.101,0.101-0.217,0.15-0.351,0.15
	c-0.199,0-0.3-0.367-0.3-1.101c0.033-0.866,0.05-1.433,0.05-1.699v-5.75c-0.066-0.667-0.1-1.2-0.1-1.6c0-0.8,0.15-1.2,0.45-1.2
	C309.15,197.1,309.25,197.25,309.25,197.55z"/>
<path fill-rule="evenodd" clip-rule="evenodd" d="M305.9,210.9c0.166,0.1,0.25,0.183,0.25,0.25l-0.301,0.3L291.7,211.4
	c-0.167,0-0.25-0.084-0.25-0.25c0-0.167,0.083-0.25,0.25-0.25H305.9z"/>
<path fill-rule="evenodd" clip-rule="evenodd" d="M306.8,194.25c0.167,0.1,0.25,0.183,0.25,0.25s-0.05,0.15-0.149,0.25H291.05
	c-0.1-0.067-0.149-0.15-0.149-0.25c0-0.167,0.083-0.25,0.25-0.25H306.8z"/>
<path fill-rule="evenodd" clip-rule="evenodd" d="M306.55,194.4c0-0.333,0.334-0.383,1-0.15c0.634,0.267,1.066,0.617,1.3,1.05
	c0.167,0.333,0.25,0.9,0.25,1.7c0,0.667-0.1,1-0.3,1s-0.3-0.267-0.3-0.8c0.066-0.6,0.083-0.95,0.05-1.05
	c-0.133-0.533-0.283-0.883-0.45-1.05c-0.133-0.133-0.449-0.233-0.949-0.3C306.75,194.733,306.55,194.6,306.55,194.4z"/>
<path fill-rule="evenodd" clip-rule="evenodd" d="M291.45,194.5c0,0.033-0.267,0.15-0.8,0.35c-0.567,0.2-0.9,0.4-1,0.6
	c-0.301,0.367-0.467,0.716-0.5,1.05c-0.034,0.2-0.034,0.7,0,1.5c0.033,0.6-0.051,0.9-0.25,0.9c-0.134,0-0.217-0.267-0.25-0.8
	c-0.034-0.267-0.051-0.567-0.051-0.9c0-0.8,0.134-1.4,0.4-1.8c0.4-0.633,1.134-1.017,2.2-1.15
	C291.366,194.35,291.45,194.433,291.45,194.5z"/>
<path fill-rule="evenodd" clip-rule="evenodd" d="M288.95,207.1c0.166-0.066,0.25,0.017,0.25,0.25c0,0.267-0.05,0.584-0.15,0.95
	c0,1.066,0.533,1.8,1.601,2.2c0.533,0.2,1.066,0.384,1.6,0.55c0,0.167-0.083,0.25-0.25,0.25c-1.434,0-2.434-0.45-3-1.35
	c-0.3-0.467-0.45-1.017-0.45-1.65l0.101-0.85C288.65,207.316,288.75,207.2,288.95,207.1z"/>
<path fill-rule="evenodd" clip-rule="evenodd" d="M309.2,208.35c0,0.667-0.134,1.25-0.4,1.75c-0.467,0.834-1.267,1.25-2.399,1.25
	c-0.5,0-0.767,0-0.801,0c0.067-0.033,0.067-0.083,0-0.149c-0.033-0.033-0.05-0.066-0.05-0.101c0-0.166,0.084-0.25,0.25-0.25
	c1.3,0.267,2.2-0.233,2.7-1.5l0.2-1c0.066-0.267,0.166-0.399,0.3-0.399S309.2,208.083,309.2,208.35z"/>
<path fill-rule="evenodd" clip-rule="evenodd" fill="#333333" d="M289.3,208.6c-0.166,0-0.25-0.3-0.25-0.899
	c0-0.566,0.134-0.851,0.4-0.851s0.399,0.184,0.399,0.551L289.3,208.6z"/>
<path fill-rule="evenodd" clip-rule="evenodd" fill="#333333" d="M292.05,210.9c-0.233,0-0.434-0.051-0.6-0.15
	c-0.134-0.1-0.2-0.184-0.2-0.25c0-0.366,0.2-0.467,0.6-0.3c0.4,0.133,0.601,0.283,0.601,0.45
	C292.45,210.816,292.316,210.9,292.05,210.9z"/>
<path fill-rule="evenodd" clip-rule="evenodd" fill="#333333" d="M292.2,210.95c-0.767,0-1.15-0.167-1.15-0.5
	c0-0.233,0.267-0.283,0.8-0.15c0.534,0.134,0.801,0.267,0.801,0.4C292.65,210.866,292.5,210.95,292.2,210.95z"/>
<path fill-rule="evenodd" clip-rule="evenodd" fill="#333333" d="M290.5,195.45c-0.267,0.1-0.467,0.233-0.6,0.4
	c-0.067,0.066-0.134,0.233-0.2,0.5c-0.066,0.233-0.184,0.35-0.351,0.35c-0.066,0-0.133-0.05-0.199-0.15l-0.051-0.15
	c0-0.433,0.284-0.867,0.851-1.3c0.533-0.4,0.8-0.383,0.8,0.05C290.75,195.317,290.667,195.417,290.5,195.45z"/>
<path fill-rule="evenodd" clip-rule="evenodd" fill="#333333" d="M308.2,196.7c-0.233,0-0.334-0.117-0.3-0.35
	c0.066-0.267,0.083-0.434,0.05-0.5c-0.033-0.1-0.167-0.25-0.4-0.45c-0.166-0.133-0.25-0.25-0.25-0.35c0-0.367,0.2-0.4,0.601-0.1
	c0.399,0.3,0.6,0.683,0.6,1.15C308.5,196.5,308.4,196.7,308.2,196.7z"/>
<path fill-rule="evenodd" clip-rule="evenodd" fill="#333333" d="M308.05,195.7c-0.1,0-0.184-0.067-0.25-0.2s-0.1-0.233-0.1-0.3
	c0-0.167,0.1-0.25,0.3-0.25s0.3,0.133,0.3,0.4C308.3,195.583,308.217,195.7,308.05,195.7z"/>
<path fill-rule="evenodd" clip-rule="evenodd" fill="#DFFFFF" d="M299.6,198.9l0.051,0.15c-1.134,0.534-2.184,1.283-3.15,2.25
	c-0.134,0.101-0.533,0.55-1.2,1.351c-0.6,0.666-0.95,1-1.05,1l-0.2-0.051c1-1.233,1.717-2.066,2.15-2.5
	c0.934-0.899,1.967-1.633,3.1-2.2H299.6z"/>
<path fill-rule="evenodd" clip-rule="evenodd" fill="#DFFFFF" d="M303.3,200.6l0.05,0.15l-0.149,0.15
	c-3.733,1.066-6.117,2.716-7.15,4.949h-0.25l-0.05-0.149c0-0.667,0.9-1.65,2.7-2.95c1.833-1.3,3.283-2.017,4.35-2.15H303.3z"/>
<path fill-rule="evenodd" clip-rule="evenodd" fill="#DFFFFF" d="M303.35,204.1c0,0.034-0.25,0.2-0.75,0.5
	c-0.533,0.334-0.883,0.65-1.05,0.95c-0.166,0.233-0.7,0.667-1.6,1.3l-0.05-0.199c0-0.267,0.449-0.75,1.35-1.45
	c0.866-0.667,1.55-1.066,2.05-1.2L303.35,204.1z"/>
</svg>
