<?xml version="1.0" encoding="utf-8"?>
<!-- Generator: Adobe Illustrator 16.0.0, SVG Export Plug-In . SVG Version: 6.00 Build 0)  -->
<!DOCTYPE svg PUBLIC "-//W3C//DTD SVG 1.1//EN" "http://www.w3.org/Graphics/SVG/1.1/DTD/svg11.dtd">
<svg version="1.1" id="Selected_Items" xmlns="http://www.w3.org/2000/svg" xmlns:xlink="http://www.w3.org/1999/xlink" x="0px"
	 y="0px" width="550px" height="400px" viewBox="0 0 550 400" enable-background="new 0 0 550 400" xml:space="preserve">
<path fill-rule="evenodd" clip-rule="evenodd" fill="#2F0000" d="M276.85,145.4c0.7,0.067,1.051,0.65,1.051,1.75
	c0,0.833,1.1,3.233,3.3,7.2c0.566,0.7,1.083,1.85,1.55,3.45c1,1.467,3.417,2.567,7.25,3.3h7.15c1.866-0.333,6.482-1.5,13.85-3.5
	c0.667,0,1,0.333,1,1c0,0.867-1.384,1.8-4.15,2.8c-3.066,1.1-6.55,1.7-10.449,1.8H289.8c-3.533,0.667-6.883-1.467-10.05-6.4
	c-2.634-4.133-3.95-7.483-3.95-10.05C275.8,145.783,276.15,145.333,276.85,145.4z"/>
<path fill-rule="evenodd" clip-rule="evenodd" fill="#2F0000" d="M272.3,123.1c0.967,1.6,1.45,3.183,1.45,4.75
	c0,0.533,0.617,3.367,1.85,8.5c1.2,5.1,1.801,8.283,1.801,9.55c0,0.633-0.018,1.017-0.051,1.15c-0.133,0.5-0.449,0.75-0.949,0.75
	c-0.634,0-1.268-1.566-1.9-4.7c-0.934-4.5-1.467-6.967-1.6-7.4c-0.4-1.2-0.833-3.067-1.3-5.6c-0.534-2.833-0.8-4.967-0.8-6.4
	C270.8,121.7,271.3,121.5,272.3,123.1z"/>
<path fill-rule="evenodd" clip-rule="evenodd" fill="#2F0000" d="M331.05,113.7c0.167,0.167,0.217,0.35,0.15,0.55
	c0,0.633-0.533,1.817-1.601,3.55c-1.233,2-2.366,3-3.399,3c-0.434,0-1.4-0.267-2.9-0.8c-1.5-0.567-2.45-0.85-2.85-0.85
	c-0.567,0.6-1.233,1.217-2,1.85c-1.533,1.2-2.851,1.8-3.95,1.8c-0.566,0-1.233-0.117-2-0.35c-0.767-0.233-2.25-0.35-4.45-0.35
	l-5.95,0.5c-1.666,0-2.816-0.1-3.449-0.3c-0.301-0.1-0.617-0.316-0.95-0.65c-2.5-0.033-4.367,0.083-5.601,0.35
	c-1.267,0.267-2.5,0.4-3.699,0.4c-1.567,0-2.567-0.2-3-0.6l-0.2-0.6c0-0.324,0.116-0.607,0.35-0.85c-1.201,0.778-2.218,1.445-3.05,2
	c-1.934,1.233-4.333,1.85-7.2,1.85c-1.6,0-2.517-0.083-2.75-0.25c-0.267-0.2-0.983-0.317-2.15-0.35c-0.833-0.233-2.716-0.4-5.65-0.5
	c-1.3-0.067-1.95-0.517-1.95-1.35c0-0.467,1.2-1.25,3.6-2.35s3.6-1.967,3.6-2.6c-0.667-1.633-1-2.933-1-3.9
	c0-0.433,0.017-0.7,0.05-0.8c0.134-0.467,0.45-0.7,0.95-0.7c0.7,0,1.367,1.8,2,5.4c0,0.9-0.333,1.667-1,2.3s-1.9,1.316-3.7,2.05
	c1.534,0.033,2.7,0.15,3.5,0.35h1.05c0.2-0.667,0.6-1.367,1.2-2.1c0.634-0.8,1.217-1.2,1.75-1.2c0.634,0,0.967,0.35,1,1.05
	c0,0.567-0.616,1.533-1.85,2.9c2.7,0.367,5.116-0.267,7.25-1.9c2.3-1.767,4.2-2.65,5.7-2.65c1.1,0,1.8,0.35,2.1,1.05
	c0.233,0.467,0.25,1,0.05,1.6v0.1c0.8-0.067,1.733-0.217,2.8-0.45c1.167-0.2,2.817-0.3,4.95-0.3c1.367,0,2.3,0.15,2.8,0.45
	c0.467,0.3,1.317,0.45,2.551,0.45c0.232,0,0.767-0.067,1.6-0.2c0.8-0.133,1.35-0.233,1.65-0.3h5.399c2.066,0.467,3.316,0.7,3.75,0.7
	c1.4,0,2.667-0.784,3.8-2.35c0-0.1-0.183-0.35-0.55-0.75c-0.399-0.4-0.6-0.684-0.6-0.85c0-0.267,0.1-0.483,0.3-0.65
	c0.233-0.2,0.5-0.3,0.8-0.3s0.917,0.233,1.851,0.7c1.1,0.567,1.716,0.867,1.85,0.9c0.566,0.2,1.8,0.65,3.7,1.35
	c0.7,0,1.383-0.517,2.05-1.55c0.4-0.667,0.684-1.267,0.85-1.8v-0.15l-4,0.35c-6.133,0-9.199-1.35-9.199-4.05
	c0-0.633,0.133-1.05,0.399-1.25c0.367-0.333,0.917,0.067,1.65,1.2c0.133,0.3,0.883,0.817,2.25,1.55
	c0.833,0.267,1.733,0.417,2.7,0.45c2.899,0.067,5.1-0.033,6.6-0.3C330.066,113.2,330.75,113.367,331.05,113.7z"/>
<path fill-rule="evenodd" clip-rule="evenodd" fill="#2F0000" d="M262.4,139.3c0.9-0.566,1.9-0.867,3-0.9
	c2.8-0.1,3.65,1.267,2.55,4.1c0.233,0.033,0.716,0.433,1.45,1.2c0.534,0.566,2.45,0.9,5.75,1c0.767,0,1.316,0.7,1.649,2.1
	c0,0.367-0.116,0.617-0.35,0.75c-0.533,0.3-1.717,0.45-3.55,0.45c-3.733,0-6.816-1.017-9.25-3.05c-1.767-1.467-2.65-2.65-2.65-3.55
	C261,140.6,261.467,139.9,262.4,139.3z M265.6,142.95c0-0.567,0.1-0.967,0.3-1.2c0.167-0.1,0.25-0.2,0.25-0.3
	c0-0.967-0.517-1.35-1.55-1.15c-1.067,0.233-1.6,0.633-1.6,1.2c0,0.3,0.2,0.583,0.6,0.85c0.8,0.467,1.233,0.733,1.3,0.8
	L265.6,142.95z"/>
<path fill-rule="evenodd" clip-rule="evenodd" fill="#2F0000" d="M335,134.85c0,0.733-0.05,1.233-0.15,1.5
	c-0.267,0.6-0.883,1.083-1.85,1.45l-1.85,0.65c-0.768,0.367-1.417,0.883-1.95,1.55c-0.334,1-0.934,1.867-1.8,2.6
	c-1.7,1.467-4.334,2.2-7.9,2.2c-2.867,0-4.3-0.583-4.3-1.75c0-0.333,0.116-0.566,0.35-0.7c0.267-0.133,0.833-0.267,1.7-0.4
	c1.467-0.233,2.583,0.05,3.35,0.85c0.4,0.367,1.317-0.15,2.75-1.55l0.95-0.9c1.467-1.467,2.783-2.667,3.95-3.6
	c0.467-0.367,0.684-1.017,0.65-1.95c-0.034-0.733,0.416-1.283,1.35-1.65c2.2-0.9,3.65-0.95,4.35-0.15
	C334.866,133.333,335,133.95,335,134.85z"/>
<path fill-rule="evenodd" clip-rule="evenodd" fill="#2F0000" d="M316.6,142.15c0.934,0.333,1.4,0.934,1.4,1.8
	c-2.2,10.3-4.5,15.45-6.9,15.45c-0.5,0-0.833-0.167-1-0.5c-0.066-0.3-0.1-0.467-0.1-0.5c0.866-1.6,1.733-3.283,2.6-5.05
	c1.733-3.533,2.601-6.934,2.601-10.2C315.2,142.183,315.667,141.85,316.6,142.15z"/>
<path fill-rule="evenodd" clip-rule="evenodd" fill="#2F0000" d="M320.2,122.45c0,0.433-0.217,2.117-0.65,5.05
	c-0.467,3.067-0.717,4.933-0.75,5.6c-0.033,1.1-0.066,3.25-0.1,6.45c-0.233,2.7-0.934,4.05-2.101,4.05
	c-0.5,0-0.816-0.217-0.949-0.65c-0.034-0.4-0.051-0.617-0.051-0.65c0-1.1,0.2-3.283,0.601-6.55c0.399-3.267,0.6-5.333,0.6-6.2
	c0-1.1,0.217-3.2,0.65-6.3c0.399-2.567,0.967-3.733,1.7-3.5C319.85,119.983,320.2,120.883,320.2,122.45z"/>
<path fill-rule="evenodd" clip-rule="evenodd" fill="#2F0000" d="M291.6,145c-4.333,0.633-7.666-0.4-10-3.1
	c-1.6-1.833-2.399-3.55-2.399-5.15c0-1.767,0.95-3.417,2.85-4.95c2.967-2.433,7.684-3.6,14.15-3.5
	c6.133,0.133,10.267,1.1,12.399,2.9c1.2,1,1.801,2.483,1.801,4.45c0,2.067-0.7,3.934-2.101,5.6c-2.333,2.733-6.167,3.983-11.5,3.75
	H291.6z M285.45,132.05c-2.834,1.2-4.25,2.75-4.25,4.65c0,1.466,0.683,2.716,2.05,3.75c2.167,1.633,5.8,2.45,10.9,2.45
	c9.5,0,14.25-2.383,14.25-7.15c0-1.933-1.417-3.4-4.25-4.4c-2.534-0.934-5.65-1.333-9.351-1.2
	C291.133,130.317,288.017,130.95,285.45,132.05z"/>
<path fill-rule="evenodd" clip-rule="evenodd" fill="#2F0000" d="M289.1,172.7c-0.066-0.3-0.1-0.467-0.1-0.5
	c0-0.434,0.533-1.117,1.6-2.05c1.067-0.9,1.601-1.55,1.601-1.95c-0.533-2.267-0.8-3.633-0.8-4.1c0-0.533,0.017-0.833,0.05-0.9
	c0.166-0.4,0.616-0.6,1.35-0.6c0.767,0,1.3,0.883,1.601,2.65c0.133,0.9,0.199,1.8,0.199,2.7c0,0.833-0.267,1.783-0.8,2.85
	c-0.8,1.6-1.934,2.4-3.399,2.4C289.733,173.2,289.3,173.033,289.1,172.7z"/>
<path fill-rule="evenodd" clip-rule="evenodd" fill="#2F0000" d="M296,169.9c0,0.7-0.5,1.45-1.5,2.25
	c-1.233,0.967-2.8,1.45-4.7,1.45c-1.066,0-1.717-0.25-1.95-0.75c-0.033-0.5-0.05-0.767-0.05-0.8c0-0.333,0.184-0.633,0.55-0.9
	l1.9-1.4c0.533-0.467,1.017-1.217,1.45-2.25c0.267-0.4,0.633-0.467,1.1-0.2c0.267,0.167,0.634,0.417,1.101,0.75
	C295.066,167.45,295.767,168.067,296,169.9z"/>
<path fill-rule="evenodd" clip-rule="evenodd" fill="#2F0000" d="M295.7,170.55c-0.134,0.434-0.467,0.65-1,0.65
	c-0.167,0-0.533-0.383-1.101-1.15c-0.533-0.733-0.8-1.083-0.8-1.05c0-2,0.5-2.883,1.5-2.65c1,0.2,1.5,1.2,1.5,3
	C295.8,169.95,295.767,170.35,295.7,170.55z"/>
<path fill-rule="evenodd" clip-rule="evenodd" fill="#2F0000" d="M307.4,170.05c0,0.5-0.134,0.95-0.4,1.35
	c-0.367,0.533-0.867,0.8-1.5,0.8c-1.7,0-3.15-0.567-4.35-1.7c-0.9-0.833-1.351-1.483-1.351-1.95c0.3-1.1,0.434-1.9,0.4-2.4
	l-0.2-2.25c0-0.767,0.483-1.517,1.45-2.25c0.933-0.767,1.45-0.3,1.55,1.4c0,0.9,0.066,2.333,0.2,4.3c1.7-0.3,2.899,0,3.6,0.9
	C307.2,168.783,307.4,169.383,307.4,170.05z"/>
<path fill-rule="evenodd" clip-rule="evenodd" fill="#2F0000" d="M314.95,105.25c-0.733-0.667-2.267-1.25-4.601-1.75H285.8
	c-7.033,0.667-11.517,1.783-13.45,3.35c-0.9,0.733-1.35,2.117-1.35,4.15c0,0.133,0,0.517,0,1.15c-0.1,0.567-0.434,0.85-1,0.85
	c-0.633,0-1.017-0.667-1.15-2c-0.034-1.367-0.05-2.067-0.05-2.1c0-1.566,1.05-3,3.15-4.3c2.933-1.867,7.416-2.9,13.45-3.1v-0.1
	H310.8c3.134,0.367,5.2,1.483,6.2,3.35c0.533,0.933,0.8,2.35,0.8,4.25c0,0.367-0.333,0.817-1,1.35c-0.7,0.566-1.366,0.85-2,0.85
	c-0.566,0-0.934-0.184-1.1-0.55c-0.067-0.367-0.101-0.566-0.101-0.6c0-0.3,0.334-0.75,1-1.35c0.667-0.6,1-1.133,1-1.6
	C315.6,106.267,315.383,105.65,314.95,105.25z"/>
<path fill-rule="evenodd" clip-rule="evenodd" fill="#2F0000" d="M294.95,113.9c1.533-0.167,5.066-1,10.6-2.5
	c5.3-1.467,8.15-2.2,8.55-2.2c0.733,0,1.101,0.333,1.101,1c0,0.966-2.384,2.1-7.15,3.4c-4.533,1.267-8.816,2.066-12.85,2.4H288
	c-7.634-0.633-12.684-1.683-15.15-3.15c-1.5-0.9-2.25-2.333-2.25-4.3c0-1.066,0.4-1.883,1.2-2.45c0.8-0.533,1.2-0.3,1.2,0.7
	c0,0.167-0.066,0.467-0.2,0.9c-0.133,0.433-0.2,0.733-0.2,0.9c0,1.367,0.75,2.367,2.25,3c2.1,0.867,6.55,1.633,13.35,2.3H294.95z"/>
<path fill-rule="evenodd" clip-rule="evenodd" fill="#2F0000" d="M318.6,108.9c0,1.667-0.033,2.667-0.1,3
	c-0.233,1.2-0.867,2.217-1.9,3.05c-2.733,2.267-9,3.883-18.8,4.85l-5.2,0.1c-0.166,0.033-0.8,0.1-1.899,0.2
	c-1.033,0.066-1.7,0.1-2,0.1c-6.867,0-11.967-0.667-15.3-2c-2.267-0.9-3.4-1.883-3.4-2.95c0-0.7,0.333-1.05,1-1.05
	c0.033,0,1.3,0.65,3.8,1.95c3.634,1.3,8.217,1.95,13.75,1.95c0.3,0,0.95-0.033,1.95-0.1c1.066-0.1,1.7-0.167,1.9-0.2l5.149-0.1
	c11.601-0.767,17.684-2.733,18.25-5.9c0.467-2.6,1.066-4.15,1.8-4.65C318.267,106.683,318.6,107.267,318.6,108.9z"/>
<path fill-rule="evenodd" clip-rule="evenodd" fill="#2F0000" d="M287.2,139.6c-0.733,0-1.283-0.483-1.65-1.45l-0.35-1.3
	c0-1.434,0.833-2.133,2.5-2.1c1.666,0.033,2.5,0.85,2.5,2.45C290.2,138.8,289.2,139.6,287.2,139.6z"/>
<path fill-rule="evenodd" clip-rule="evenodd" fill="#2F0000" d="M302.6,138.4c-1.366,0-2.25-0.35-2.649-1.05
	c-0.101-0.7-0.15-1.083-0.15-1.15c0-1.534,0.833-2.284,2.5-2.25c1.667,0,2.5,0.867,2.5,2.6C304.8,137.783,304.066,138.4,302.6,138.4
	z"/>
<path fill-rule="evenodd" clip-rule="evenodd" fill="#2F0000" d="M292.75,138.45c0.133-0.233,0.283-0.35,0.45-0.35
	c0.267,0,0.433,0.233,0.5,0.7c0.066,0.434,0.55,0.65,1.45,0.65c0.033,0,0.366-0.45,1-1.35c0.633-0.667,0.949-0.383,0.949,0.85
	c0,1.233-0.949,1.85-2.85,1.85c-0.7,0-1.184-0.316-1.45-0.95l-0.2-0.95C292.6,138.767,292.65,138.617,292.75,138.45z"/>
<path fill-rule="evenodd" clip-rule="evenodd" fill="#660000" d="M284.75,135.9c0,0.6-0.417,1.467-1.25,2.6l2.15,1.6
	c1.199,0.9,1.8,1.45,1.8,1.65c0,0.467-0.217,0.7-0.65,0.7c-0.133,0-0.866-0.333-2.2-1c-1.133-0.567-1.883-0.95-2.25-1.15
	c-1.233-0.8-1.85-1.566-1.85-2.3c0-2.667,0.616-4.283,1.85-4.85c3.934-1.833,5.9-2.767,5.9-2.8c0.5-0.167,1.667-0.25,3.5-0.25
	c0.767,0,1.3,0.267,1.6,0.8c0.134,0.267,0.2,0.533,0.2,0.8c0,0.233-0.217,0.6-0.649,1.1c-0.534,0.567-1.067,0.85-1.601,0.85
	c-1.467,0-2.017-0.717-1.649-2.15c0.1-0.033,0.066-0.05-0.101-0.05c-0.233,0-1.116,0.333-2.649,1c-1.601,0.667-2.733,1.2-3.4,1.6
	c0.434,0.1,0.767,0.383,1,0.85C284.667,135.233,284.75,135.567,284.75,135.9z"/>
<path fill-rule="evenodd" clip-rule="evenodd" fill="#660000" d="M287.45,133.6c-1.101,0.467-1.783,0.767-2.05,0.9
	c-1.467,0.9-2.268,1.35-2.4,1.35c-0.4,0-0.617-0.184-0.65-0.55c-0.033-0.267,0-0.45,0.101-0.55c-0.367-0.1-0.55-0.367-0.55-0.8
	c0-0.267,0.216-0.65,0.649-1.15c0.5-0.566,1.033-0.9,1.601-1l1.85-0.95c1.167-0.633,1.883-0.95,2.15-0.95
	c0.433,0,0.666,0.2,0.699,0.6c0,0.067-0.116,0.267-0.35,0.6c0.434,0.267,0.65,0.5,0.65,0.7c0,0.267-0.167,0.483-0.5,0.65
	c-0.334,0.167-0.5,0.316-0.5,0.45C288.15,133.167,287.917,133.4,287.45,133.6z M284,133.35c-0.333,0.233-0.583,0.433-0.75,0.6
	l-0.05,0.1c0.3-0.133,0.783-0.483,1.45-1.05C284.517,133.033,284.3,133.15,284,133.35z"/>
<path fill-rule="evenodd" clip-rule="evenodd" fill="#660000" d="M284.35,134.35c0.2-0.3,0.801-0.45,1.801-0.45
	c0.666,0,1.083-0.316,1.25-0.95c0.166-0.667,0.616-1,1.35-1l0.8-1c0.533-0.467,0.8-0.217,0.8,0.75c0,0.5-0.517,1.1-1.55,1.8
	l-0.05,0.05c1.2,0.9,1.9,1.467,2.1,1.7c0.2,0.3,0.301,0.817,0.301,1.55c0,0.767-0.184,1.5-0.551,2.2c-0.699,1.3-1.899,1.95-3.6,1.95
	c-1.333,0-2.45-0.483-3.35-1.45c-0.634-0.7-0.95-1.233-0.95-1.6c0-0.333,0.116-0.683,0.35-1.05c0.134-0.233,0.4-0.65,0.8-1.25
	C284.05,135.233,284.217,134.817,284.35,134.35z M285.95,135.9c-0.134,0.233-0.2,0.667-0.2,1.3s0.066,1.066,0.2,1.3
	c0.267,0.5,0.866,0.75,1.8,0.75c1.267,0,1.983-0.817,2.15-2.45c0-0.333-0.117-0.633-0.351-0.9c-0.333-0.367-0.616-0.717-0.85-1.05
	h-0.9C286.833,135.083,286.217,135.433,285.95,135.9z"/>
<path fill-rule="evenodd" clip-rule="evenodd" fill="#660000" d="M292.75,134.15c0,0.367-0.1,0.833-0.3,1.4
	c-0.267,0.733-0.601,1.1-1,1.1c-0.3,0-0.601-0.283-0.9-0.85c-0.3-0.566-0.883-0.85-1.75-0.85c-0.399,0-0.667-0.184-0.8-0.55
	c-0.066-0.367-0.1-0.566-0.1-0.6c0-0.2,0.232-0.517,0.699-0.95c0.5-0.5,1-0.75,1.5-0.75C291.866,132.1,292.75,132.783,292.75,134.15
	z"/>
<path fill-rule="evenodd" clip-rule="evenodd" fill="#660000" d="M294.05,134.75c-0.066,0.467,0.617,0.883,2.05,1.25
	c1.434,0.367,2.15,0.75,2.15,1.15c0,0.533-0.566,0.817-1.7,0.85c0,0.333-0.116,0.7-0.35,1.1c-0.3,0.566-0.7,0.85-1.2,0.85
	c-0.733,0-1.2-0.267-1.4-0.8c-0.066-0.5-0.116-0.767-0.149-0.8L293,138.4l-0.05,0.6c0,0.767,0.383,1.183,1.149,1.25
	s1.15,0.65,1.15,1.75c0,0.433-0.017,0.683-0.05,0.75c-0.134,0.2-0.467,0.367-1,0.5h-2.7l-2.95-0.4c-1.366-0.167-2.05-0.6-2.05-1.3
	c-0.867,0.133-1.3-0.1-1.3-0.7c0-0.467,0.45-0.85,1.35-1.15c1.233-0.367,1.983-0.65,2.25-0.85c0.333-0.233,0.634-0.633,0.9-1.2
	c0.3-0.533,0.649-0.95,1.05-1.25c0.4-0.3,0.75-1.233,1.05-2.8c0.3-1.333,0.8-2,1.5-2c0.566,0,0.867,0.45,0.9,1.35
	C294.233,133.417,294.184,134.017,294.05,134.75z M289.45,141.4c0.433,0.333,1.2,0.517,2.3,0.55c1.467,0,2.217-0.034,2.25-0.1
	c-1.733-0.4-2.617-1.067-2.65-2c-0.066-1.267-0.133-1.934-0.199-2c-0.467,0.7-0.75,1.117-0.851,1.25
	c-0.333,0.433-0.8,0.85-1.399,1.25C288.967,140.817,289.15,141.167,289.45,141.4z"/>
<path fill-rule="evenodd" clip-rule="evenodd" fill="#660000" d="M292.05,135.3c0.267,0.1,0.4,0.35,0.4,0.75
	c0,0.167-0.283,1.1-0.851,2.8c0.601-0.067,1,0.267,1.2,1c0.2,0.767,0.5,1.15,0.9,1.15l1.149-0.2c0.667,0,1,0.217,1,0.65
	c0,0.3-0.083,0.483-0.25,0.55c-0.1,0.033-0.383,0.05-0.85,0.05c-0.233,0-0.517,0.1-0.85,0.3c-0.334,0.2-0.634,0.3-0.9,0.3
	c-1-0.2-1.7-0.3-2.1-0.3c-0.301,0-0.518-0.067-0.65-0.2c-0.1-0.2-0.184-0.333-0.25-0.4c-0.167,0.267-0.367,0.4-0.6,0.4
	c-0.367,0-0.567-0.183-0.601-0.55c0.033-0.367,0.05-0.567,0.05-0.6c0-0.067-0.033-0.15-0.1-0.25c-0.1-0.067-0.15-0.15-0.15-0.25
	l0.801-0.65c0.566-0.6,0.966-1.35,1.199-2.25c0.167-0.733,0.334-1.25,0.5-1.55C291.434,135.383,291.75,135.133,292.05,135.3z"/>
<path fill-rule="evenodd" clip-rule="evenodd" fill="#660000" d="M296,130.95l-6.45,0.8c-0.366,0-0.667-0.183-0.899-0.55l-0.25-0.55
	c0-0.267,0.083-0.45,0.25-0.55c0.199-0.133,0.583-0.267,1.149-0.4h6.55c0.301,0.033,2.184,0.233,5.65,0.6c0.1,0,0.2-0.05,0.3-0.15
	c0.101-0.1,0.233-0.15,0.4-0.15c0.333,0,1.166,0.333,2.5,1c1.3,0.633,2.149,1.117,2.55,1.45c0.733,0.6,1.1,1.65,1.1,3.15
	c0,2.267-0.967,4.066-2.899,5.4c-2.467,1.7-6.317,2.55-11.55,2.55c-0.301,0-0.5-0.117-0.601-0.35c-0.066-0.133-0.1-0.267-0.1-0.4
	c0-0.4,2.316-0.85,6.95-1.35c4.633-1,6.949-2.967,6.949-5.9c0-0.633-0.166-1.2-0.5-1.7c-0.5-0.733-1.267-1.167-2.3-1.3
	c-1.233-0.367-2.267-0.667-3.1-0.9C300.133,131.183,298.233,130.95,296,130.95z"/>
<path fill-rule="evenodd" clip-rule="evenodd" fill="#660000" d="M300.15,135.2c-0.067,0.133-0.101,0.483-0.101,1.05
	c0,0.633,0.05,1.033,0.15,1.2c0.3,0.533,1.066,0.8,2.3,0.8c1.467,0,2.2-0.517,2.2-1.55c0-0.5-0.134-0.8-0.4-0.9
	c-0.6-0.3-1.167-0.75-1.7-1.35H301.7C300.866,134.583,300.35,134.833,300.15,135.2z M297.85,130.55c0.601,0.1,1.017,0.15,1.25,0.15
	c0.4,0,0.733,0.083,1,0.25c0.233,0.167,0.367,0.25,0.4,0.25c0.167,0,0.366-0.067,0.6-0.2c1.167,0,2.65,0.417,4.45,1.25
	c0.033,0,0.15-0.05,0.351-0.15c0.199-0.133,0.383-0.2,0.55-0.2c0.833,0,1.399,0.533,1.7,1.6c0.166,0.533,0.232,1.083,0.199,1.65
	c0,0.867-0.1,1.467-0.3,1.8c-0.633,1-1.066,1.783-1.3,2.35c-0.434,0.934-1.217,1.5-2.35,1.7c-1.882,0.231-3.665,0.498-5.351,0.8v0.1
	c0,0.3-0.417,0.583-1.25,0.85s-1.667,0.4-2.5,0.4s-1.35-0.167-1.55-0.5c-0.033-0.333-0.05-0.517-0.05-0.55l0.399-1.15
	c0.434-0.7,1.084-0.9,1.95-0.6c0.167-0.233,0.417-0.517,0.75-0.85c0.2-0.233,0.3-0.433,0.3-0.6c0-0.3-0.683-1.133-2.05-2.5
	c-1.366-1.4-2.05-2.833-2.05-4.3c0-0.6,0.1-0.983,0.3-1.15c0.434-0.367,1.55-0.55,3.351-0.55
	C296.85,130.4,297.25,130.45,297.85,130.55z"/>
<path fill-rule="evenodd" clip-rule="evenodd" fill="#660000" d="M267.55,140.4c-0.233,2.833-0.966,4.25-2.2,4.25
	c-0.467,0-1.167-0.5-2.1-1.5c-0.833-0.867-1.25-1.367-1.25-1.5c0-0.4,0.25-0.883,0.75-1.45c0.633-0.733,1.417-1.1,2.35-1.1
	C266.733,139.1,267.55,139.533,267.55,140.4z"/>
<path fill-rule="evenodd" clip-rule="evenodd" fill="#660000" d="M265,144.15c0-0.433,0.217-0.65,0.65-0.65
	c0.1,0,0.284,0.067,0.55,0.2c-0.467-0.467-0.7-0.8-0.7-1c0-0.934,0.45-1.067,1.35-0.4c0.5,0.367,1.367,1.1,2.6,2.2
	c0.3,0.2,0.9,0.333,1.8,0.4c0.467,0.067,1.15,0.117,2.05,0.15c1.434,0.133,2.367,0.267,2.8,0.4c0.367,0.133,0.551,0.367,0.551,0.7
	c0,0.667-0.551,1-1.65,1c-2.667,0-5.017-0.316-7.05-0.95C265.983,145.567,265,144.883,265,144.15z"/>
<path fill-rule="evenodd" clip-rule="evenodd" fill="#660000" d="M329.7,134.6c0.267-0.4,0.899-0.783,1.899-1.15
	c0.834-0.3,1.417-0.45,1.75-0.45c0.7,0,1.033,0.45,1,1.35c-0.166,1.6-0.666,2.55-1.5,2.85c-1.767,0.6-3.116,1.4-4.05,2.4
	c-0.566,1.066-1.316,1.95-2.25,2.65c-1.767,1.333-4.517,2-8.25,2c-0.566,0-0.983-0.183-1.25-0.55l-0.25-0.55
	c0-0.433,0.3-0.65,0.9-0.65l1.55,0.2c0.233,0,1.733-0.217,4.5-0.65c0.5-0.7,1.4-1.55,2.7-2.55c1.166-0.9,1.916-1.683,2.25-2.35
	c0.2-0.433,0.383-0.933,0.55-1.5C329.35,135.217,329.5,134.867,329.7,134.6z"/>
<path fill-rule="evenodd" clip-rule="evenodd" fill="#660000" d="M289,172.5c-0.134-0.133-0.2-0.367-0.2-0.7
	c0-0.2,0.634-0.867,1.9-2s1.899-2.167,1.899-3.1c-0.666-2.1-1-3.55-1-4.35c0-0.467,0.117-0.75,0.351-0.85
	c0.267-0.167,0.6,0.183,1,1.05c0.333,0.733,0.6,1.483,0.8,2.25c0.033,0.1,0.333,0.8,0.9,2.1c0.466,1.133,0.699,1.934,0.699,2.4
	c0,0.6-0.267,1.25-0.8,1.95c-0.833,1.067-2.083,1.6-3.75,1.6C289.866,172.85,289.267,172.733,289,172.5z"/>
<path fill-rule="evenodd" clip-rule="evenodd" fill="#660000" d="M306.5,170.8c-0.333,0.567-0.8,0.85-1.4,0.85
	c-1,0-2.017-0.5-3.05-1.5c-0.899-0.867-1.35-1.5-1.35-1.9c0-0.3,0.066-0.75,0.2-1.35c0.133-0.6,0.199-1.033,0.199-1.3
	c0-0.333-0.05-0.8-0.149-1.4c-0.101-0.6-0.15-1.034-0.15-1.3c0-1.3,0.25-2.083,0.75-2.35c0.5-0.267,0.767,0.5,0.8,2.3
	c-0.033,0.7,0.067,2.2,0.301,4.5c2.8-0.133,4.199,0.65,4.199,2.35C306.85,170.033,306.733,170.4,306.5,170.8z"/>
<path fill-rule="evenodd" clip-rule="evenodd" fill="#460000" d="M293.75,144.15l7-0.05c0.1-0.033,2.066-1.133,5.9-3.3
	c2.633-1.5,4.333-2.133,5.1-1.9c0.767,0.434,1.483,1.033,2.15,1.8c0.6,0.7,1,1.333,1.199,1.9c0.2,0.667,0.301,1.867,0.301,3.6
	c0,1.9-0.25,3.367-0.75,4.4c-0.367,0.767-1.317,2.7-2.851,5.8c-0.6,1.4-3.033,2.7-7.3,3.9c-4.066,1.133-8,1.7-11.8,1.7
	c-5.033,0-8.95-2-11.75-6c-1.967-2.8-2.95-5.35-2.95-7.65c0-0.767,0.083-1.283,0.25-1.55c0.267-0.5,0.934-0.85,2-1.05
	c-0.134-0.567-0.134-1.117,0-1.65c0.233-1,1.017-1.5,2.35-1.5c0.467,0,2.084,0.183,4.851,0.55
	C290.283,143.55,292.383,143.883,293.75,144.15z"/>
<path fill-rule="evenodd" clip-rule="evenodd" fill="#460000" d="M276.8,142.95c0-2.167,1.167-2.85,3.5-2.05
	c2.333,0.767,3.5,1.967,3.5,3.6c0,0.4-0.45,1.233-1.35,2.5c-0.967,1.333-1.717,2-2.25,2c-1.233,0-2.167-0.967-2.8-2.9
	C277,144.867,276.8,143.817,276.8,142.95z"/>
<path fill-rule="evenodd" clip-rule="evenodd" fill="#460000" d="M312.3,123c0.733,0,1.417,0.133,2.05,0.4
	c0.667,0.267,1.15,0.4,1.45,0.4c1.066,0,1.717,0.517,1.95,1.55c0.133,0.533,0.15,1.083,0.05,1.65c0,0.067-0.217,1.417-0.649,4.05
	c-0.467,2.733-0.717,4.483-0.75,5.25c-0.034,0.667,0,2.4,0.1,5.2c-0.233,2.467-1.4,3.7-3.5,3.7c-1.934,0-3.134-0.684-3.6-2.05
	c-0.134-0.367-0.2-1.3-0.2-2.8c0-1.067,0.283-2.6,0.85-4.6c0.533-2.033,0.8-3.25,0.8-3.65c0-0.233-0.783-0.934-2.35-2.1
	c-1.6-1.167-2.483-1.817-2.65-1.95c-1.8-0.033-4.533-0.216-8.199-0.55c-3.301-0.3-4.967-0.45-5-0.45l-4.2,0.05
	c-0.667,0.667-2.134,1.533-4.4,2.6c-2.233,1.033-3.366,1.566-3.399,1.6c-0.2,0.267-0.434,1.184-0.7,2.75
	c-0.434,1.434-1.217,2.15-2.351,2.15c-0.8,0-1.467-1.267-2-3.8c-0.399-2.533-0.6-3.816-0.6-3.85c0-1.367,0.15-2.233,0.45-2.6
	c0.7-0.867,2.383-1.3,5.05-1.3c0.033,0,0.517-0.65,1.45-1.95c1.399-1.067,3.183-1,5.35,0.2l6.101,0.1c0.732,0.067,1.732,0.1,3,0.1
	c1.366,0.066,3.149,0.35,5.35,0.85l7.05,0.05l0.851,0.15c0.232-0.066,0.482-0.283,0.75-0.65C310.767,123.167,311.4,123,312.3,123z"
	/>
<path fill-rule="evenodd" clip-rule="evenodd" fill="#460000" d="M279.4,147.9c0,0.133,0.083,0.35,0.25,0.65
	c0.166,0.3,0.25,0.517,0.25,0.65c0,0.233-0.084,0.45-0.25,0.65c-0.2,0.233-0.467,0.35-0.801,0.35c-0.6,0-1.033-0.434-1.3-1.3
	c-0.167-0.9-0.25-1.367-0.25-1.4c0-1.033,0.4-1.533,1.2-1.5s1.2,0.4,1.2,1.1C279.7,147.267,279.6,147.533,279.4,147.9z"/>
<path fill-rule="evenodd" clip-rule="evenodd" fill="#460000" d="M277.8,132.5c0.2-0.267,0.467-0.4,0.8-0.4
	c0.667,0,1.051,0.7,1.15,2.1c0.033,0.767,0.05,1.833,0.05,3.2c0.033,0.2,0.417,1.1,1.15,2.7c0.767,1.566,1.149,2.45,1.149,2.65
	c0,0.767-0.333,1.15-1,1.15c-0.133,0-0.333-0.066-0.6-0.2s-0.483-0.2-0.65-0.2c-0.199,0-0.483-0.117-0.85-0.35
	c-0.167,0.033-0.333,0.184-0.5,0.45c-0.167,0.2-0.384,0.3-0.65,0.3c-0.899,0-1.583-1.15-2.05-3.45c-0.366-2.767-0.667-4.6-0.9-5.5
	c-1.466-5.667-2.2-8.684-2.2-9.05c0-0.767,0.267-1.3,0.8-1.6c0.533-0.267,0.917,0,1.15,0.8c0.1,0.267,0.167,0.683,0.2,1.25
	c0.1,0.5,0.367,0.967,0.8,1.4c0.399,0.4,0.716,1.2,0.949,2.4c0.233,1.367,0.551,2.317,0.95,2.85
	C277.583,132.967,277.667,132.8,277.8,132.5z"/>
<path fill-rule="evenodd" clip-rule="evenodd" fill="#460000" d="M313.1,122.1l1.7,0.2h1.25c0.101-0.033,0.316-0.283,0.65-0.75
	c0.366-0.433,0.733-0.65,1.1-0.65c0.634,0,0.967,0.35,1,1.05c0,0.433-0.184,0.867-0.55,1.3c-0.5,0.633-0.85,1.167-1.05,1.6
	c-0.067,0.167-0.101,0.633-0.101,1.4c-0.1,0.7-0.483,1.05-1.149,1.05c-0.8,0-1.2-0.35-1.2-1.05c0-0.133,0.1-0.6,0.3-1.4
	c-0.1-0.067-0.45-0.15-1.05-0.25c-0.767-0.167-1.384-0.25-1.85-0.25c-0.434,0-0.784,0.066-1.051,0.2c-0.267,0.1-0.6,0.15-1,0.15
	c-0.767-0.167-1.233-0.25-1.399-0.25c-0.634,0-1.067,0.066-1.3,0.2c-0.2,0.1-0.75,0.15-1.65,0.15c-1.233,0-2.684-0.15-4.35-0.45
	c-1.4-0.333-2.15-0.5-2.25-0.5c-0.067,0.066-0.15,0.133-0.25,0.2c-0.167,0.1-0.567,0.15-1.2,0.15c-0.567,0-1.067-0.083-1.5-0.25
	c-0.3-0.2-0.5-0.3-0.601-0.3c-0.467,0.233-0.883,0.35-1.25,0.35c-0.5-0.167-0.833-0.25-1-0.25c-1.1,0-1.733,0.15-1.899,0.45
	c-0.167,0.267-0.634,0.4-1.4,0.4c-3.667,0-5.583-0.617-5.75-1.85c-0.434,0.267-1.116,0.867-2.05,1.8
	c-0.767,0.767-1.384,1.217-1.85,1.35c-1.634,0.267-2.717,0.467-3.25,0.6c-0.367,0.1-0.817,0.367-1.351,0.8
	c-0.434,0.4-0.883,0.6-1.35,0.6c-0.6,0-0.983-0.267-1.15-0.8c-0.066-0.5-0.1-0.767-0.1-0.8c0-0.433-0.167-0.75-0.5-0.95
	c-0.333-0.167-0.5-0.383-0.5-0.65c0-0.733,0.333-1.1,1-1.1c0.2,0,0.4,0.066,0.6,0.2c0.167,0.133,0.333,0.2,0.5,0.2
	c0.034,0,0.2-0.067,0.5-0.2s0.65-0.2,1.05-0.2l2.15,0.2c0.1,0,1.116-0.517,3.05-1.55s2.983-1.567,3.15-1.6
	c0.399-0.7,0.833-0.8,1.3-0.3c0.4,0.433,0.6,0.933,0.6,1.5c-0.033,0-0.05,0.017-0.05,0.05h0.101c0.033,0,0.25-0.066,0.649-0.2
	c0.4-0.133,0.867-0.2,1.4-0.2l2.05,0.2c0.566,0,1.434-0.15,2.6-0.45c1.134-0.233,2-0.367,2.601-0.4c0.366,0,0.866,0.017,1.5,0.05
	c0.8,0,1.683,0.267,2.649,0.8c1,0.5,1.817,0.75,2.45,0.75c0.167,0,1.483-0.35,3.95-1.05h3.2c0.2,0.033,0.616,0,1.25-0.1
	c0.566,0,1.033,0.133,1.399,0.4C312.184,121.967,312.6,122.1,313.1,122.1z"/>
<path fill-rule="evenodd" clip-rule="evenodd" fill="#460000" d="M294.85,128.45h-1.35c-0.2,0.2-0.634,0.4-1.3,0.6
	c-0.733,0.233-1.367,0.35-1.9,0.35c-0.3,0-0.55-0.05-0.75-0.15s-0.333-0.15-0.399-0.15c-1.067,0.367-1.867,0.55-2.4,0.55
	c-0.4,0-1.2,0.4-2.4,1.2c-1.066,0.7-1.816,1.267-2.25,1.7c-0.399,0.367-1.017,0.867-1.85,1.5c-0.9,0.7-1.417,1.05-1.55,1.05
	c-0.667,0-1-0.35-1-1.05c0-0.267,0.25-0.716,0.75-1.35l0.75-0.9c-0.134-0.233-0.2-0.433-0.2-0.6c0-0.3,0.383-0.784,1.15-1.45
	c0.767-0.7,1.366-1.05,1.8-1.05c0.166,0,0.45,0.117,0.85,0.35l1.601-1.1c1.166-0.767,2.017-1.15,2.55-1.15
	c0.166,0,0.433,0.083,0.8,0.25c0.167,0,0.65-0.15,1.45-0.45c0.133-0.033,0.783-0.05,1.95-0.05c2.199-0.133,3.416-0.2,3.649-0.2
	c0.434,0,1,0.083,1.7,0.25h2.9c3.366,0.033,5.333,0.133,5.899,0.3c0.4,0.1,1.101,0.35,2.101,0.75c0.8,0.167,1.383,0.6,1.75,1.3
	c0.199,0.367,0.433,0.85,0.699,1.45c1.434,1.6,2.15,3.467,2.15,5.6c0,0.433-0.017,0.717-0.05,0.85c-0.134,0.433-0.45,0.65-0.95,0.65
	c-0.533,0-0.95-0.7-1.25-2.1c-0.333-1.7-0.55-2.633-0.65-2.8c-0.533-0.733-1.683-1.367-3.449-1.9c-1.9-0.567-3.2-1.217-3.9-1.95
	l-2.85-0.1c-0.233,0-0.45,0.067-0.65,0.2c-0.167,0.1-0.483,0.15-0.95,0.15c-0.667,0-1.2-0.067-1.6-0.2
	C295.333,128.633,295.05,128.517,294.85,128.45z"/>
<path fill-rule="evenodd" clip-rule="evenodd" fill="#660000" d="M302.95,142.8c0-0.7,0.533-0.716,1.6-0.05
	c0.934,0.533,1.601,1.067,2,1.6c0.467,1.5,0.7,2.467,0.7,2.9c0,1.567-0.316,2.733-0.95,3.5c-1.033,1.267-3.149,2.333-6.35,3.2h-3.7
	c-2.767-0.833-4.634-1.983-5.6-3.45c-0.601-0.933-0.9-2.183-0.9-3.75c0.033-0.6,0.116-1.2,0.25-1.8c0.267-1.2,0.684-1.8,1.25-1.8
	c0.434,0,0.634,0.217,0.6,0.65l-0.55,1.05c-0.366,0.7-0.55,1.333-0.55,1.9c0,1.333,0.283,2.433,0.85,3.3
	c0.867,1.333,2.45,2.284,4.75,2.85h3.5c2.767-0.733,4.601-1.6,5.5-2.6c0.601-0.7,0.9-1.716,0.9-3.05c0-1.533-0.55-2.65-1.65-3.35
	C303.5,143.2,302.95,142.833,302.95,142.8z"/>
<path fill-rule="evenodd" clip-rule="evenodd" fill="#660000" d="M315.95,143.85c-0.2,0-0.601-0.15-1.2-0.45
	c-0.6-0.333-1.116-0.5-1.55-0.5c-1.634,0-3.184,0.417-4.65,1.25c-1.166,0.8-1.8,1.2-1.899,1.2c-0.334,0-0.5-0.167-0.5-0.5
	c0-0.267,0.383-0.667,1.149-1.2c0.767-0.566,1.533-0.983,2.3-1.25c1.2-0.467,2.667-0.533,4.4-0.2c1.634,0.3,2.45,0.667,2.45,1.1
	C316.45,143.667,316.283,143.85,315.95,143.85z"/>
<path fill-rule="evenodd" clip-rule="evenodd" fill="#660000" d="M308.55,159.15c-1.833,0-3.383-0.833-4.649-2.5
	c-1.034-1.367-1.551-2.583-1.551-3.65c0-0.433,0.067-0.717,0.2-0.85c0.2-0.167,0.467,0.15,0.8,0.95
	c0.067,0.167,0.134,0.483,0.2,0.95c0.101,0.434,0.217,0.767,0.351,1c0.399,0.633,2.183,1.833,5.35,3.6
	C309.25,158.983,309.017,159.15,308.55,159.15z"/>
<path fill-rule="evenodd" clip-rule="evenodd" fill="#660000" d="M290.05,153.55c-0.967-1.9-2.8-2.85-5.5-2.85
	c-2.166,0-3.7,0.233-4.6,0.7c-0.5,0.434-0.867,0.65-1.101,0.65c-0.399,0-0.6-0.167-0.6-0.5c0-0.566,0.7-1.05,2.1-1.45
	c1.467-0.4,3.017-0.5,4.65-0.3c4.5,0.534,6.75,2.85,6.75,6.95c0,1.067-0.083,1.967-0.25,2.7c-0.366,1.6-1.083,2.4-2.15,2.4
	c-0.399,0-0.6-0.167-0.6-0.5c0.934-0.9,1.517-1.667,1.75-2.3c0.167-0.5,0.25-1.267,0.25-2.3
	C290.75,155.517,290.517,154.45,290.05,153.55z"/>
<path fill-rule="evenodd" clip-rule="evenodd" fill="#660000" d="M292,158.3c-0.7-0.333-1.05-0.617-1.05-0.85
	c0-0.333,0.184-0.5,0.55-0.5c0.1,0,0.45,0.15,1.05,0.45c0.601,0.267,1.233,0.4,1.9,0.4c1.1,0,2.116-0.367,3.05-1.1
	c0.533-0.434,0.934-0.883,1.2-1.35c0.233-0.533,0.35-1.017,0.35-1.45c0.5-0.4,0.816-0.5,0.95-0.3c0.033,0.066,0.05,0.283,0.05,0.65
	c0,0.8-0.3,1.633-0.899,2.5c-1,1.4-2.551,2.1-4.65,2.1C293.634,158.85,292.8,158.667,292,158.3z"/>
<path fill-rule="evenodd" clip-rule="evenodd" fill="#660000" d="M287.55,145.65c-2.2,0.567-3.3,1.783-3.3,3.65
	c0,0.133,0.1,0.383,0.3,0.75c0,0.333-0.2,0.5-0.6,0.5c-0.4,0-0.634-0.183-0.7-0.55c0-0.367,0-0.567,0-0.6
	c0-1.233,0.283-2.267,0.85-3.1c0.634-1.066,1.934-1.716,3.9-1.95c1.9-0.267,2.85-0.133,2.85,0.4
	C290.85,144.783,289.75,145.083,287.55,145.65z"/>
<path fill-rule="evenodd" clip-rule="evenodd" fill="#660000" d="M301.85,161.2c-0.033,0.233-0.183,0.35-0.449,0.35
	c-0.301,0-0.551-0.316-0.75-0.95c-0.167-0.667-0.284-1.067-0.351-1.2c-0.1-0.2-0.533-0.583-1.3-1.15c-0.7-0.533-1.05-0.833-1.05-0.9
	c0-0.9,0.649-0.817,1.95,0.25c1.3,1.1,1.949,2.133,1.949,3.1V161.2z"/>
<path fill-rule="evenodd" clip-rule="evenodd" fill="#660000" d="M277.4,143.05c-0.967-0.2-1.45-0.466-1.45-0.8
	c0-1.033,1.45-0.833,4.35,0.6c2.9,1.467,4.351,2.667,4.351,3.6c0,0.4-0.184,0.6-0.551,0.6c-1.733-1.5-2.783-2.367-3.149-2.6
	C280.017,143.817,278.833,143.35,277.4,143.05z"/>
<path fill-rule="evenodd" clip-rule="evenodd" fill="#660000" d="M275.35,138.75c-0.233,0-0.383-0.083-0.45-0.25
	c-0.033-0.067-0.05-0.167-0.05-0.3c0-0.5,0.917-0.917,2.75-1.25c1.834-0.333,2.75-0.233,2.75,0.3
	C280.35,137.317,278.684,137.817,275.35,138.75z"/>
<path fill-rule="evenodd" clip-rule="evenodd" fill="#660000" d="M273.15,128.45c-0.4,0-0.6-0.167-0.6-0.5c0-0.6,0.6-1.067,1.8-1.4
	c1.2-0.333,2.534-0.4,4-0.2c3.867,0.467,5.801,2.167,5.801,5.1c0,0.133-0.051,0.25-0.15,0.35c-0.1,0.1-0.2,0.15-0.3,0.15
	c-0.434-0.8-0.884-1.583-1.351-2.35c-0.933-1.6-2.433-2.4-4.5-2.4c-1.366,0-2.55,0.216-3.55,0.65
	C273.567,128.25,273.183,128.45,273.15,128.45z"/>
<path fill-rule="evenodd" clip-rule="evenodd" fill="#660000" d="M288.05,124.7c-1.6,1.833-3.816,2.75-6.649,2.75
	c-0.567,0-0.851-0.167-0.851-0.5c0-0.3,0.65-0.583,1.95-0.85c1.767-0.333,2.7-0.517,2.8-0.55c0.5-0.2,0.95-0.5,1.351-0.9
	c0.233-0.2,0.517-0.5,0.85-0.9c0.566-0.6,0.884-1.233,0.95-1.9c0.033-0.633,0.25-1,0.649-1.1c0.367-0.1,0.551,0.117,0.551,0.65
	C289.65,122.333,289.116,123.433,288.05,124.7z"/>
<path fill-rule="evenodd" clip-rule="evenodd" fill="#660000" d="M276,127.35c-0.533,0-1.017-0.483-1.45-1.45l-0.5-1.45
	c0-0.6,0.184-0.733,0.55-0.4c0.333,0.267,0.567,0.567,0.7,0.9c0.101,0.267,0.483,0.883,1.15,1.85
	C276.45,127.167,276.3,127.35,276,127.35z"/>
<path fill-rule="evenodd" clip-rule="evenodd" fill="#660000" d="M293.7,129.05c-0.267,0-0.517-0.4-0.75-1.2
	c-0.3-0.967-0.5-1.533-0.601-1.7c-0.566-0.733-1.066-1.2-1.5-1.4c-0.433-0.2-1.1-0.417-2-0.65c-0.466-0.133-0.699-0.317-0.699-0.55
	c0-1.133,1-1,3,0.4c2,1.433,3,2.85,3,4.25C294.15,128.767,294,129.05,293.7,129.05z"/>
<path fill-rule="evenodd" clip-rule="evenodd" fill="#660000" d="M315.7,134.3c-1.267,0.7-2.45,1.05-3.55,1.05
	c-1.334,0-2.334-0.15-3-0.45c-0.4-0.2-0.601-0.383-0.601-0.55c0-0.333,0.217-0.5,0.65-0.5c0.166,0,0.55,0.083,1.149,0.25
	c0.601,0.133,1.217,0.2,1.851,0.2c0.633,0,1.767-0.417,3.399-1.25c1.233-0.633,1.851-0.7,1.851-0.2
	C317.45,133.183,316.866,133.667,315.7,134.3z"/>
<path fill-rule="evenodd" clip-rule="evenodd" fill="#660000" d="M301.9,127.15c-0.9,1.2-1.584,1.8-2.051,1.8
	c-0.399,0-0.6-0.167-0.6-0.5c0-0.067,0.517-0.633,1.55-1.7s1.55-2.067,1.55-3l-0.399-2.05c0-0.8,0.233-0.833,0.7-0.1
	c0.466,0.733,0.699,1.417,0.699,2.05C303.35,124.683,302.866,125.85,301.9,127.15z"/>
<path fill-rule="evenodd" clip-rule="evenodd" fill="#660000" d="M311.8,127.3c-1.3-1.667-3.399-2.5-6.3-2.5
	c-0.767,0-1.233,0.067-1.4,0.2l-0.3,0.15c-0.267,0-0.434-0.083-0.5-0.25c-0.033-0.066-0.05-0.167-0.05-0.3
	c0-0.533,0.55-0.833,1.65-0.9c1.133-0.067,2.366,0.133,3.699,0.6c3.567,1.167,5.351,3.117,5.351,5.85
	c-0.101,3.267-0.517,4.9-1.25,4.9c-0.233,0-0.4-0.117-0.5-0.35l-0.05-0.35c0.533-2.367,0.8-3.75,0.8-4.15
	C312.95,129.233,312.566,128.267,311.8,127.3z"/>
<path fill-rule="evenodd" clip-rule="evenodd" fill="#660000" d="M318.45,123.4c-2.101,0-3.7,0.533-4.8,1.6
	c-0.733,1.033-1.25,1.55-1.551,1.55c-0.267,0-0.433-0.083-0.5-0.25c-0.033-0.066-0.05-0.167-0.05-0.3
	c0-1.067,1.283-2.083,3.851-3.05c2.566-0.967,3.85-1,3.85-0.1C319.25,123.217,318.983,123.4,318.45,123.4z"/>
<path fill-rule="evenodd" clip-rule="evenodd" fill="#880000" d="M282.1,119.55c0.367,0.034,0.551,0.133,0.551,0.3
	c0,0.633-0.517,1.217-1.551,1.75c-1.5,0.767-3.833,1.15-7,1.15c-0.533,0-0.867-0.083-1-0.25c-0.033-0.033-0.05-0.133-0.05-0.3
	c0-0.2,0.217-0.583,0.65-1.15c0.433-0.566,0.8-0.933,1.1-1.1l0.05-0.15l-0.4-0.25c-0.534,0-1.017,0.2-1.45,0.6s-0.683,0.6-0.75,0.6
	c-0.4,0-0.6-0.167-0.6-0.5c0-0.167,0.2-0.517,0.6-1.05c0.4-0.5,0.667-0.75,0.8-0.75l-0.4-0.15h-0.75c-0.6,0.833-1.7,1.7-3.3,2.6
	c-1.434,0.833-2.367,1.25-2.8,1.25c-0.5,0-0.75-0.167-0.75-0.5c0-0.533,0.567-1.083,1.7-1.65c1.433-0.567,2.45-1.033,3.05-1.4
	c0.4-0.4,0.7-0.7,0.9-0.9c0.367-0.367,0.816-0.534,1.35-0.5c1.5,0.267,2.367,0.533,2.6,0.8c0.133,0.167,0.5,0.25,1.1,0.25
	c0.434,0,1.267,0.25,2.5,0.75C279.417,119.2,280.7,119.383,282.1,119.55z"/>
<path fill-rule="evenodd" clip-rule="evenodd" fill="#880000" d="M273.05,119.35c0,0.2-0.083,0.4-0.25,0.6
	c-0.2,0.2-0.3,0.316-0.3,0.35c0,0.1,0.05,0.184,0.15,0.25c0.067,0.067,0.1,0.133,0.1,0.2c0,0.433-0.267,0.817-0.8,1.15
	c-0.6,0.367-1.417,0.55-2.45,0.55c-1.133,0-2.017-0.15-2.65-0.45c-0.467-0.233-0.7-0.45-0.7-0.65c0-0.233,0.283-0.35,0.85-0.35
	c0.733,0,1.35-0.267,1.85-0.8c0.633-0.7,1.083-1.15,1.35-1.35c1.2-1,2.033-1.267,2.5-0.8
	C272.933,118.283,273.05,118.717,273.05,119.35z"/>
<path fill-rule="evenodd" clip-rule="evenodd" fill="#880000" d="M289.05,119.85c0.834,0,1.684-0.1,2.55-0.3
	c0.834-0.2,1.517-0.3,2.051-0.3c1,0,1.5,0.217,1.5,0.65c0,0.333-0.217,0.517-0.65,0.55c-1,0.167-1.95,0.4-2.85,0.7
	c-0.267,0.067-0.617,0.333-1.051,0.8c-0.399,0.4-0.75,0.6-1.05,0.6c-1,0-1.633-0.1-1.899-0.3c-0.134-0.1-0.2-0.267-0.2-0.5
	c0-0.3,0.116-0.483,0.35-0.55l0.2-0.05c-0.767-0.5-1.15-0.967-1.15-1.4c0-0.367,0.217-0.55,0.65-0.55
	C287.934,119.233,288.45,119.45,289.05,119.85z"/>
<path fill-rule="evenodd" clip-rule="evenodd" fill="#880000" d="M324.15,115h3c0.966-0.3,1.5-0.45,1.6-0.45
	c0.333,0,0.5,0.167,0.5,0.5c-1.2,2.6-2.384,3.9-3.55,3.9c-4.267-1.534-6.75-2.383-7.45-2.55h-0.5c0.134,0.3,0.366,0.633,0.7,1
	c0.2,0.233,0.3,0.5,0.3,0.8c0,0.267-0.467,0.767-1.4,1.5c-1.1,0.833-2.1,1.25-3,1.25c-3.633-0.434-6.149-0.65-7.55-0.65
	c-0.533,0-1.116,0.083-1.75,0.25c-0.633,0.133-1.35,0.2-2.149,0.2c-1.767,0-3.067-0.2-3.9-0.6c-0.5-0.4-0.75-0.617-0.75-0.65
	c0-0.2,0.184-0.3,0.55-0.3c1.033,0.033,2.45-0.133,4.25-0.5c0.566-0.133,1.4-0.4,2.5-0.8c0.4-0.1,1.65-0.4,3.75-0.9
	c1.634-0.4,2.65-0.683,3.05-0.85c0.367-0.167,1.167-0.517,2.4-1.05c1.134-0.533,1.816-0.917,2.05-1.15
	c0.367-0.434,1.351-0.467,2.95-0.1C320.65,114.083,322.116,114.467,324.15,115z"/>
<path fill-rule="evenodd" clip-rule="evenodd" fill="#880000" d="M272.25,118.95c-0.233,0-0.383-0.083-0.45-0.25
	c-0.033-0.067-0.05-0.167-0.05-0.3c0-0.3,0.383-0.483,1.15-0.55c0.767-0.1,1.15,0.066,1.15,0.5c0,0.2-0.05,0.333-0.15,0.4
	C273.667,118.883,273.117,118.95,272.25,118.95z"/>
<path fill-rule="evenodd" clip-rule="evenodd" fill="#996600" d="M296.1,102.85c0.634,0.133,0.95,0.467,0.95,1
	c0,0.667-0.399,1-1.2,1l-7.6-0.15l-0.4,0.05l-2.6,0.05c-0.733,0.067-1.5,0.184-2.3,0.35c-0.767,0.167-1.5,0.283-2.2,0.35
	c-1.967,0.133-2.884,0.6-2.75,1.4c1.9,0.333,2.85,1.033,2.85,2.1c0,0.367-0.25,0.8-0.75,1.3c-0.6,0.633-1.333,0.95-2.199,0.95
	c-0.467-0.067-1.067-0.1-1.801-0.1c-1.566,0-2.833-0.367-3.8-1.1c-0.767-0.6-1.15-1.15-1.15-1.65c0-1.6,1.4-2.85,4.2-3.75
	c1.801-0.6,5-1.233,9.601-1.9h2.649l0.351-0.1H291l0.35-0.05C293.783,102.567,295.366,102.65,296.1,102.85z"/>
<path fill-rule="evenodd" clip-rule="evenodd" fill="#996600" d="M304.75,102.45l0.4,0.1h2.6c3.267,0.133,5.55,0.6,6.85,1.4
	c1.034,0.6,1.551,1.5,1.551,2.7c0,1.4-1.017,2.467-3.051,3.2c-2.8,0.733-5,1.3-6.6,1.7c-4.5,1.133-9.134,2.067-13.9,2.8h-5.5
	c-5.267-0.767-8.75-1.3-10.449-1.6c-2.667-0.467-4-1.483-4-3.05c0-0.367,0.133-0.7,0.4-1c0.367-0.434,0.917-0.65,1.65-0.65
	c0.399,0,1.033,0.25,1.899,0.75c-0.166-0.333-0.25-0.667-0.25-1c0-0.867,1.051-1.733,3.15-2.6c2.1-0.9,4.167-1.35,6.2-1.35
	c1.6,0,2.583,0.117,2.95,0.35c0.133,0,1.35-0.217,3.649-0.65c2.667-0.5,4.75-0.85,6.25-1.05v-0.05H304.75z M278.2,110.55
	c-0.2-0.066-0.55,0-1.05,0.2l-0.2,0.05c0.2,0.034,0.666,0.117,1.399,0.25l0.45-0.05C278.533,110.733,278.333,110.583,278.2,110.55z"
	/>
<path fill-rule="evenodd" clip-rule="evenodd" fill="#996600" d="M271.65,115.5c-0.467,0-0.867-0.65-1.2-1.95
	c-0.233-1.3-0.35-1.966-0.35-2c0-0.9,0.25-1.35,0.75-1.35c0.533,0,0.783,0.533,0.75,1.6l0.9,2.95
	C272.5,115.25,272.217,115.5,271.65,115.5z"/>
<path fill-rule="evenodd" clip-rule="evenodd" fill="#996600" d="M277.7,115.05c0,0.5-0.283,0.75-0.851,0.75
	c-0.3,0-0.983-0.133-2.05-0.4c0,0.467-0.3,0.7-0.9,0.7c-0.566,0-1.133-0.333-1.7-1l-0.7-1.05c0-0.1,0.083-0.283,0.25-0.55
	c-0.533-0.5-0.917-0.85-1.15-1.05c-0.4-0.367-0.6-0.633-0.6-0.8c0-0.967,0.517-1.083,1.55-0.35c0.534,0.367,1.117,0.833,1.75,1.4
	c0.167,0,0.367-0.067,0.6-0.2c0.333,0,1.05,0.467,2.15,1.4l1.3,0.5C277.583,114.533,277.7,114.75,277.7,115.05z"/>
<path fill-rule="evenodd" clip-rule="evenodd" fill="#996600" d="M285.65,115.1c0.899,0.233,1.533,0.467,1.899,0.7
	c0.2,0.133,0.566,0.367,1.101,0.7l1.699,0.35c1.834,0.3,2.75,0.566,2.75,0.8c0,0.767-0.833,1.033-2.5,0.8H287.9
	c-0.101,0.1-0.417,0.15-0.95,0.15c-2.533,0-5.517-0.45-8.95-1.35c-3.333-0.867-5-1.567-5-2.1c0-0.167,0.133-0.383,0.4-0.65
	c-0.333-0.233-0.867-0.483-1.6-0.75c-0.466-0.167-0.7-0.4-0.7-0.7c0-0.933,0.683-1.2,2.05-0.8c1.133,0.333,1.984,0.75,2.55,1.25
	c0.467,0.533,1.483,0.917,3.05,1.15c0.866,0.133,2.2,0.283,4,0.45H285.65z"/>
<path fill-rule="evenodd" clip-rule="evenodd" fill="#996600" d="M313.85,114.8c-1.5,0.867-2.883,1.45-4.149,1.75
	c-5.5,0.8-9.4,1.383-11.7,1.75h-6.9c-0.466-0.2-0.666-0.5-0.6-0.9l-2.35,0.1c-1.134,0-1.867-0.133-2.2-0.4
	c-0.101-0.267-0.15-0.417-0.15-0.45c0-0.1,0.233-0.35,0.7-0.75c0.5-0.467,0.884-0.7,1.15-0.7c0.699,0,1.55,0.133,2.55,0.4h2.95
	c0.899-0.167,3.316-0.5,7.25-1c3.8-0.567,6.383-1.133,7.75-1.7c3.899-1.7,6.149-2.583,6.75-2.65c0.933-0.133,1.399,0.533,1.399,2
	C316.3,112.983,315.483,113.833,313.85,114.8z"/>
<path fill-rule="evenodd" clip-rule="evenodd" fill="#825700" d="M311,106.5c-0.467-0.7-0.733-1.067-0.8-1.1
	c-0.267-0.2-0.834-0.4-1.7-0.6c-0.8-0.2-1.417-0.316-1.85-0.35H303.6l-0.35,0.05l-3.85,0.05c-0.667,0.034-4.95,0.3-12.851,0.8
	l-5.8,0.85c-0.5,0-0.75-0.267-0.75-0.8c0-0.667,1.917-1.183,5.75-1.55c1.833-0.167,6.3-0.45,13.4-0.85h3.899l0.3-0.1h2.9
	c2.767,0.367,4.583,0.783,5.45,1.25c0.8,0.434,1.2,1.133,1.2,2.1c0,0.4-0.017,0.65-0.051,0.75c-0.1,0.267-0.35,0.4-0.75,0.4
	C311.733,107.4,311.366,107.1,311,106.5z"/>
<path fill-rule="evenodd" clip-rule="evenodd" fill="#AA7300" d="M300.8,109.95c1.2-0.267,2.417-0.75,3.65-1.45
	c0.934-0.533,1.934-0.8,3-0.8c0.566,0,0.85,0.25,0.85,0.75s-0.983,1.1-2.95,1.8c-1.466,0.533-2.649,0.883-3.55,1.05
	c-1.899,0.467-3.217,0.767-3.95,0.9c-1.066,0.2-3.633,0.4-7.699,0.6h-3.101l-0.3-0.05l-3-0.05c-3,0.033-5.4-0.4-7.2-1.3
	c-1.5-0.767-2.25-1.667-2.25-2.7c0-0.8,0.35-1.383,1.05-1.75c0.7-0.333,1.051-0.117,1.051,0.65c0,0.167-0.101,0.35-0.301,0.55
	c-0.199,0.2-0.3,0.367-0.3,0.5c0,0.8,0.9,1.4,2.7,1.8c1,0.233,2.8,0.483,5.4,0.75h3.05l0.35,0.1h2.65c4-0.2,6.533-0.383,7.6-0.55
	C298.25,110.617,299.333,110.35,300.8,109.95z"/>
<path fill-rule="evenodd" clip-rule="evenodd" fill="#825700" d="M271.45,111.9c0,1.1,0.617,1.9,1.85,2.4
	c1.2,0.534,1.8,0.983,1.8,1.35c0,0.167-0.066,0.333-0.2,0.5c-0.167,0.167-0.367,0.25-0.6,0.25c-1.667,0-2.9-0.617-3.7-1.85
	c-0.6-0.9-0.9-1.983-0.9-3.25c0-0.333,0.15-0.667,0.45-1c0.333-0.433,0.717-0.483,1.15-0.15c0.233,0.2,0.333,0.483,0.3,0.85
	C271.567,111.2,271.517,111.5,271.45,111.9z"/>
<path fill-rule="evenodd" clip-rule="evenodd" fill="#825700" d="M278.15,117.4c-3.067-0.6-4.601-1.15-4.601-1.65
	c0-0.633,0.333-0.883,1-0.75c0.434,0.1,1.367,0.433,2.8,1l8.101,1.6l3.6,0.05l0.2,0.05h3.5l1.6-0.15c0.467,0,0.7,0.167,0.7,0.5
	c0,0.1-0.066,0.167-0.2,0.2c-0.533,0.133-1.199,0.3-2,0.5h-3.699l-0.2-0.05l-3.7-0.05C282.217,118.117,279.85,117.7,278.15,117.4z"
	/>
<path fill-rule="evenodd" clip-rule="evenodd" fill="#AA7300" d="M308.75,103.2l-3.8-0.05l-0.2-0.05l-12.9-0.2
	c-0.6,0.1-0.899-0.05-0.899-0.45c0-0.367,0.233-0.567,0.7-0.6l13.3,0.2l0.2,0.05l6.5,0.05c2.466,1.233,3.767,1.9,3.899,2
	c0.533,0.367,0.8,1,0.8,1.9c0,0.934-0.199,1.4-0.6,1.4s-0.634-0.15-0.7-0.45c0.033-0.333,0.033-0.567,0-0.7s-0.283-0.333-0.75-0.6
	c-0.5-0.267-0.8-0.434-0.899-0.5c-0.801-0.6-1.384-1-1.75-1.2C311.05,103.733,310.083,103.467,308.75,103.2z"/>
<path fill-rule="evenodd" clip-rule="evenodd" fill="#AA7300" d="M316.95,110.65c0.133,0.5,0.2,0.867,0.2,1.1
	c0,0.867-0.284,1.3-0.851,1.3c-0.399,0-0.616-0.2-0.649-0.6c0.033-0.5,0.033-0.817,0-0.95c-0.067-0.467-0.351-0.7-0.851-0.7
	s-0.75-0.15-0.75-0.45c0-0.333,0.351-0.65,1.05-0.95c0.733-0.333,1.217-0.25,1.45,0.25
	C316.684,109.783,316.816,110.117,316.95,110.65z"/>
<path fill-rule="evenodd" clip-rule="evenodd" fill="#660000" d="M271.6,121.7c0.3,0.033,0.45,0.15,0.45,0.35
	c0,0.667-1.033,0.867-3.1,0.6c-0.267,0.133-0.5,0.2-0.7,0.2c-1.033,0-1.933-0.2-2.7-0.6c-0.6-0.333-0.9-0.617-0.9-0.85
	c0-0.5,0.3-0.933,0.9-1.3c0.6-0.333,0.9-0.217,0.9,0.35c0,0.133-0.083,0.283-0.25,0.45c0.233,0.367,0.783,0.567,1.65,0.6
	C269.95,121.567,271.2,121.633,271.6,121.7z"/>
<path fill-rule="evenodd" clip-rule="evenodd" fill="#660000" d="M274.35,121.05c0,0.1-0.067,0.25-0.2,0.45
	c0.133,0.1,0.283,0.25,0.45,0.45c0.233,0.2,0.617,0.3,1.15,0.3c0.333,0,0.9-0.117,1.7-0.35s1.45-0.35,1.95-0.35
	c0.433,0,0.649,0.167,0.649,0.5c-1.1,0.8-2.383,1.2-3.85,1.2c-2.434,0-3.65-0.45-3.65-1.35c0-0.5,0.3-0.917,0.9-1.25
	C274.05,120.35,274.35,120.483,274.35,121.05z"/>
<path fill-rule="evenodd" clip-rule="evenodd" fill="#660000" d="M291.1,121.4c0.2,0.1,0.284,0.217,0.25,0.35
	c0,0.2-0.333,0.417-1,0.65c-0.666,0.233-1.233,0.35-1.699,0.35c-0.467,0-0.934-0.417-1.4-1.25l-0.6-1.25
	c0-0.767,0.233-0.933,0.699-0.5c0.267,0.233,0.733,0.75,1.4,1.55C289.917,121.133,290.7,121.167,291.1,121.4z"/>
<path fill-rule="evenodd" clip-rule="evenodd" fill="#660000" d="M298.75,118.95c0.134,0,0.467,0.066,1,0.2s0.95,0.2,1.25,0.2
	c0.134,0,0.616,0.083,1.45,0.25c1.066,0.167,2.233,0.25,3.5,0.25c0.934,0,1.399,0.2,1.399,0.6c0,0.267-0.149,0.466-0.449,0.6
	c-0.5,0.2-1.45,0.3-2.851,0.3c-0.767,0-1.934-0.217-3.5-0.65c-1.666-0.467-2.5-0.867-2.5-1.2
	C298.05,119.133,298.283,118.95,298.75,118.95z"/>
<path fill-rule="evenodd" clip-rule="evenodd" fill="#660000" d="M317.15,119.55c0.333,0,0.5,0.184,0.5,0.55
	c0,0.267-0.317,0.533-0.95,0.8c-0.733,0.3-1.533,0.45-2.4,0.45c-1.033,0-2.517-0.133-4.45-0.4c-2.199-0.3-3.3-0.6-3.3-0.9
	c0-0.466,0.533-0.6,1.601-0.4c2.166,0.367,4.166,0.55,6,0.55C315.25,120.2,316.25,119.983,317.15,119.55z"/>
<path fill-rule="evenodd" clip-rule="evenodd" fill="#660000" d="M326.8,118c0.167-0.167,0.351-0.25,0.55-0.25
	c0.334,0,0.5,0.183,0.5,0.55c0,0.2-0.199,0.467-0.6,0.8c-0.467,0.367-0.934,0.55-1.4,0.55c-1.3,0-2.949-0.433-4.949-1.3
	c-1.967-0.867-2.95-1.55-2.95-2.05c0-0.466,1.033-0.3,3.1,0.5c2.566,0.967,4.283,1.45,5.15,1.45
	C326.434,118.25,326.634,118.167,326.8,118z"/>
<path fill-rule="evenodd" clip-rule="evenodd" fill="#660000" d="M319.45,117.45c-0.601,0-1.233-0.333-1.9-1
	c-0.6-0.6-0.899-1.034-0.899-1.3c0-0.867,0.55-0.833,1.649,0.1c0.566,0.467,1.117,1.017,1.65,1.65
	C319.95,117.267,319.783,117.45,319.45,117.45z"/>
<path fill-rule="evenodd" clip-rule="evenodd" fill="#660000" d="M315.25,118.55c0,0.1,0.033,0.15,0.1,0.15
	c0.067,0.033,0.101,0.083,0.101,0.15c0,0.267-0.15,0.4-0.45,0.4c-0.333,0-0.816-0.4-1.45-1.2c-0.566-0.8-0.85-1.183-0.85-1.15
	c0-0.333,0.467-0.367,1.399-0.1c0.9,0.267,1.351,0.684,1.351,1.25C315.45,118.217,315.384,118.383,315.25,118.55z"/>
<path fill-rule="evenodd" clip-rule="evenodd" fill="#2F0000" d="M262.5,142.55c-0.667-1.1-1-1.617-1-1.55c0-1.2,0.6-0.817,1.8,1.15
	c0.1,0.2,0.567,0.533,1.4,1c1,0.6,1.617,0.983,1.85,1.15c1.167,0.867,2.284,1.45,3.35,1.75c0.233,0.067,1.483,0.317,3.75,0.75
	c1.6,0.333,2.4,0.567,2.4,0.7c0,0.3-0.133,0.45-0.399,0.45c-0.534,0-1.284-0.117-2.25-0.35c-1-0.267-1.566-0.4-1.7-0.4
	c-0.067,0-0.15,0.05-0.25,0.15c-0.067,0.066-0.15,0.1-0.25,0.1c-0.267,0-0.9-0.167-1.9-0.5c-1.167-0.4-1.917-0.767-2.25-1.1
	c-1.466-1.067-2.466-1.6-3-1.6C263.75,144.25,263.233,143.683,262.5,142.55z"/>
<path fill-rule="evenodd" clip-rule="evenodd" fill="#2F0000" d="M264.5,143.8c0.333,0.233,0.817,0.6,1.45,1.1
	c0.1,0,0.583,0.217,1.45,0.65c0.9,0.467,1.35,0.767,1.35,0.9c0,0.267-0.167,0.4-0.5,0.4c-0.833,0-1.833-0.4-3-1.2
	c-1.1-0.767-1.65-1.333-1.65-1.7C263.6,143.417,263.9,143.367,264.5,143.8z"/>
<path fill-rule="evenodd" clip-rule="evenodd" fill="#2F0000" d="M323.85,141.6c0,0.2-0.316,0.433-0.949,0.7
	c-0.834,0.333-1.95,0.483-3.351,0.45h-0.8c-0.3-0.067-0.45-0.25-0.45-0.55c0-0.367,0.367-0.55,1.101-0.55
	c1.6,0,3.066-0.117,4.399-0.35L323.85,141.6z"/>
<path fill-rule="evenodd" clip-rule="evenodd" fill="#2F0000" d="M317.2,143.9c0-0.333,1.434-0.517,4.3-0.55
	c1.667-0.233,2.634-0.35,2.9-0.35c0.366-0.033,0.55,0.083,0.55,0.35c0,0.2-0.667,0.417-2,0.65c-0.878,0.162-1.611,0.27-2.2,0.325
	V144.3c0-0.1-0.417-0.133-1.25-0.1c-1.134,0.033-1.783,0.05-1.95,0.05C317.316,144.05,317.2,143.933,317.2,143.9z"/>
<path fill-rule="evenodd" clip-rule="evenodd" fill="#2F0000" d="M332.35,137.9c-1.366,0.633-2.199,0.95-2.5,0.95
	c-0.199,0-0.316-0.05-0.35-0.15v-0.2c0-0.4,0.816-0.917,2.45-1.55c1.6-0.6,2.399-0.667,2.399-0.2
	C334.35,136.883,333.684,137.267,332.35,137.9z"/>
<path fill-rule="evenodd" clip-rule="evenodd" fill="#880000" d="M267.3,141.85c-0.066,0-0.133-0.05-0.2-0.15l-0.05-0.15l0.1-0.5
	c0-0.667-0.517-1.15-1.55-1.45c-1.067-0.333-1.6-0.517-1.6-0.55c0-0.367,0.617-0.433,1.85-0.2c1.233,0.2,1.85,0.833,1.85,1.9
	C267.767,141.483,267.633,141.85,267.3,141.85z"/>
<path fill-rule="evenodd" clip-rule="evenodd" fill="#880000" d="M270.65,144.3c1.2,0.233,1.9,0.367,2.1,0.4
	c0.5,0.133,1.283,0.283,2.35,0.45c0.601,0.067,0.9,0.2,0.9,0.4c0,0.2-0.116,0.3-0.35,0.3c-1.467,0-2.851-0.167-4.15-0.5
	c-1.2-0.333-1.8-0.633-1.8-0.9C269.7,144.217,270.017,144.167,270.65,144.3z"/>
<path fill-rule="evenodd" clip-rule="evenodd" fill="#880000" d="M319.4,142.85h-2c-0.167,0-0.25-0.083-0.25-0.25
	c0-0.067,0.166-0.167,0.5-0.3h4.199c0.601-0.066,1.167-0.15,1.7-0.25c0.267-0.033,0.4,0.034,0.4,0.2
	C323.95,142.65,322.434,142.85,319.4,142.85z"/>
<path fill-rule="evenodd" clip-rule="evenodd" fill="#880000" d="M334.1,135c-0.1,0-0.216-0.233-0.35-0.7
	c-0.134-0.466-0.583-0.7-1.35-0.7c-0.733,0-1.4,0.217-2,0.65c-0.434,0.4-0.684,0.6-0.75,0.6c-0.067,0-0.134-0.05-0.2-0.15
	l-0.05-0.15c0-0.733,0.85-1.25,2.55-1.55c1.7-0.267,2.55,0.217,2.55,1.45C334.5,134.817,334.366,135,334.1,135z"/>
<path fill-rule="evenodd" clip-rule="evenodd" fill="#880000" d="M295.3,169.45c-0.133,0-0.983-2.117-2.55-6.35
	c0-0.967,0.467-0.317,1.4,1.95c0.933,2.267,1.399,3.583,1.399,3.95C295.55,169.3,295.467,169.45,295.3,169.45z"/>
<path fill-rule="evenodd" clip-rule="evenodd" fill="#880000" d="M302,163.45c0-0.267,0.1-0.467,0.3-0.6s0.3,0.033,0.3,0.5
	c-0.033,0.3,0.017,0.717,0.15,1.25c0.1,0.5,0.184,1.35,0.25,2.55c1.366,0.033,2.417,0.283,3.15,0.75
	c0.633,0.434,0.949,0.934,0.949,1.5c0,0.233-0.083,0.35-0.25,0.35c-0.199-0.267-0.483-0.533-0.85-0.8
	c-0.7-0.567-1.517-0.85-2.45-0.85c-0.166,0-0.25-0.1-0.25-0.3c-0.366,0-0.649-0.083-0.85-0.25c-0.167-0.1-0.25-0.216-0.25-0.35
	l0.1-0.3C302.1,165.067,302,163.917,302,163.45z"/>
<path fill-rule="evenodd" clip-rule="evenodd" fill="#2F0000" d="M288.75,171.3c0.134-0.267,0.283-0.083,0.45,0.55
	c0.1,0.4,0.649,0.65,1.649,0.75c0.967,0.133,1.45,0.283,1.45,0.45c0,0.167-0.233,0.25-0.7,0.25c-0.899,0-1.483-0.066-1.75-0.2
	c-0.199-0.1-0.35-0.15-0.449-0.15c-0.101,0.2-0.2,0.3-0.301,0.3c-0.366,0-0.55-0.367-0.55-1.1
	C288.55,171.783,288.616,171.5,288.75,171.3z"/>
<path fill-rule="evenodd" clip-rule="evenodd" fill="#2F0000" d="M301.15,166.05c0,0.133-0.051,0.417-0.15,0.85
	c0,0.434,0.05,0.917,0.15,1.45c0.066,0.6,0.366,1.033,0.899,1.3c0.066,0.033,0.3,0.25,0.7,0.65c0.333,0.333,0.616,0.534,0.85,0.6
	c1.534,0.434,2.301,0.717,2.301,0.85c0,0.167-0.101,0.25-0.301,0.25c-0.6,0-1.166-0.1-1.699-0.3c-0.4-0.167-0.634-0.267-0.7-0.3
	l-0.851-0.55c-0.3-0.033-0.533-0.133-0.699-0.3c-0.601-0.6-0.917-0.95-0.95-1.05c-0.367-0.567-0.55-0.95-0.55-1.15
	c0-0.267,0.116-0.783,0.35-1.55l0.15-0.8c0.033-0.3,0.133-0.417,0.3-0.35C301.083,165.683,301.15,165.817,301.15,166.05z"/>
<path fill-rule="evenodd" clip-rule="evenodd" fill="#2F0000" d="M291.35,162.6c0,0.066,0.15,0.566,0.45,1.5
	c0.3,0.9,0.45,1.566,0.45,2c-0.167,1.433-0.483,2.15-0.95,2.15c-0.233,0-0.366-0.05-0.399-0.15v-0.2c0.399-0.733,0.6-1.267,0.6-1.6
	c0-0.233-0.15-0.8-0.45-1.7c-0.3-0.934-0.45-1.567-0.45-1.9c0-0.434,0.134-0.7,0.4-0.8C291.233,161.833,291.35,162.067,291.35,162.6
	z"/>
<path fill-rule="evenodd" clip-rule="evenodd" fill="#2F0000" d="M288.45,171.65c-0.233,0-0.351-0.15-0.351-0.45
	c0.733-0.934,1.483-1.784,2.25-2.55c1.467-1.566,2.2-1.967,2.2-1.2C290.95,170.25,289.583,171.65,288.45,171.65z"/>
<path fill-rule="evenodd" clip-rule="evenodd" fill="#2F0000" d="M296.05,169.45c-0.033,1-0.267,1.5-0.7,1.5
	c-0.033,0-0.149-0.05-0.35-0.15c-0.033-0.167,0-0.4,0.1-0.7c0.134-0.3,0.2-0.5,0.2-0.6c0-0.2-0.25-1.167-0.75-2.9
	s-0.883-2.95-1.149-3.65v-0.55c0.533,0.2,0.933,0.684,1.199,1.45c0.134,0.433,0.317,1.05,0.551,1.85
	c0.033,0.066,0.183,0.617,0.449,1.65C295.9,168.45,296.05,169.15,296.05,169.45z"/>
<path fill-rule="evenodd" clip-rule="evenodd" fill="#2F0000" d="M307.35,169.4c0.034,0.567-0.05,0.85-0.25,0.85l-0.199-0.05
	c-0.034,0-0.051-0.05-0.051-0.15l0.101-0.65c0-0.9-0.533-1.517-1.601-1.85c-1.3-0.167-2.183-0.333-2.649-0.5
	c0.2-0.233,0.85-0.216,1.95,0.05c1,0.233,1.633,0.45,1.899,0.65c0.367,0.367,0.584,0.617,0.65,0.75
	C307.3,168.7,307.35,169,307.35,169.4z"/>
<path fill-rule="evenodd" clip-rule="evenodd" fill="#2F0000" d="M303.4,162.6v2.35c0.133,0.533,0.199,0.917,0.199,1.15
	c0,0.767-0.166,1.15-0.5,1.15c-0.066,0-0.133-0.117-0.199-0.35l-0.051-0.35l0.051-2.75c0-0.5,0.1-0.95,0.3-1.35L303.4,162.6z"/>
<path fill-rule="evenodd" clip-rule="evenodd" fill="#2F0000" d="M303.2,163.05c0,0.167-0.066,0.25-0.2,0.25s-0.217-0.083-0.25-0.25
	c-0.033-0.1-0.05-0.2-0.05-0.3c0-0.167,0.066-0.3,0.2-0.4C303.1,162.417,303.2,162.65,303.2,163.05z"/>
<path fill-rule="evenodd" clip-rule="evenodd" fill="#2F0000" d="M303.6,162.15c0,0.1-0.066,0.283-0.199,0.55
	c-0.134,0.267-0.233,0.4-0.301,0.4c-0.133,0-0.199-0.083-0.199-0.25c0-0.167,0.066-0.35,0.199-0.55c0.101-0.2,0.2-0.333,0.301-0.4
	C303.533,162,303.6,162.083,303.6,162.15z"/>
<path fill-rule="evenodd" clip-rule="evenodd" fill="#2F0000" d="M266.7,138.55c0.867,0.267,1.3,0.733,1.3,1.4
	c0,1.066-0.2,1.933-0.6,2.6l-0.15-0.05l-0.05-0.15c0.267-1.133,0.4-1.934,0.4-2.4c0-0.333-0.067-0.567-0.2-0.7
	c-0.267-0.267-0.783-0.4-1.55-0.4l-0.9,0.05c-0.567,0.333-0.95,0.5-1.15,0.5c-0.133,0-0.2-0.117-0.2-0.35
	c0-0.267,0.167-0.433,0.5-0.5c0.235-0.059,0.652-0.092,1.25-0.1C265.35,138.283,265.8,138.317,266.7,138.55z"/>
<path fill-rule="evenodd" clip-rule="evenodd" fill="#2F0000" d="M268.95,143.35c0-0.233,0.216-0.217,0.65,0.05
	c0.733,0.4,1.15,0.617,1.25,0.65c0.9,0.1,1.8,0.233,2.7,0.4c1.566,0.267,2.351,0.466,2.351,0.6s-0.167,0.2-0.5,0.2
	c-0.734,0-1.884-0.167-3.45-0.5c-1.733-0.367-2.6-0.7-2.6-1C269.083,143.55,268.95,143.417,268.95,143.35z"/>
<path fill-rule="evenodd" clip-rule="evenodd" fill="#2F0000" d="M334.45,135.6l-0.15-0.05l-0.05-0.15l0.15-0.65
	c0-0.3-0.084-0.633-0.25-1c-0.167-0.433-0.4-0.65-0.7-0.65h-0.75c-1.601,0.5-2.417,0.767-2.45,0.8c-0.167,0.067-0.4,0.25-0.7,0.55
	l-0.399,0.45l-0.15-0.05l-0.05-0.2c0-0.367,0.166-0.7,0.5-1c0.467-0.467,1.149-0.7,2.05-0.7l1.15-0.2
	c1.199-0.433,1.916,0.233,2.149,2C334.8,135.25,334.684,135.533,334.45,135.6z"/>
<path fill-rule="evenodd" clip-rule="evenodd" fill="#2F0000" d="M319.05,144.05c0.101,0.067,0.334,0.1,0.7,0.1l0.3,0.3
	c0,0.066-0.066,0.133-0.2,0.2l-0.199-0.05v-0.05c-0.867-0.133-1.367-0.267-1.5-0.4c0.133-0.133,0.199-0.217,0.199-0.25
	C318.684,143.933,318.917,143.983,319.05,144.05z"/>
<path fill-rule="evenodd" clip-rule="evenodd" fill="#2F0000" d="M288.65,122.35c0.3,0,1.366-0.417,3.199-1.25l0.2,0.05l0.05,0.15
	c0,0.434-0.566,0.85-1.699,1.25c-0.967,0.367-1.733,0.55-2.301,0.55l-0.3,0.15c-0.399,0-0.85-0.333-1.35-1
	c-0.434-0.6-0.65-1.017-0.65-1.25c0-0.167,0.066-0.25,0.2-0.25s0.2,0.1,0.2,0.3c0,0.2,0.1,0.3,0.3,0.3c0.1,0,0.217-0.017,0.35-0.05
	c0.101,0,0.4,0.184,0.9,0.55C288.217,122.183,288.517,122.35,288.65,122.35z"/>
<path fill-rule="evenodd" clip-rule="evenodd" fill="#2F0000" d="M304.4,135.15c0.267,0.3,0.399,0.617,0.399,0.95
	c0,0.367-0.1,0.7-0.3,1c-0.267,0.4-0.684,0.6-1.25,0.6c-0.267,0-0.434-0.034-0.5-0.1c0-0.067-0.017-0.117-0.05-0.15h-1
	c-0.334,0-0.5-0.233-0.5-0.7c0-0.133,0.083-0.417,0.25-0.85c0.133-0.433,0.233-0.683,0.3-0.75v-0.05l-0.8,0.4
	c-0.134,0-0.217-0.05-0.25-0.15l-0.05-0.15c0-0.133,0.133-0.317,0.399-0.55c0.233-0.233,0.467-0.367,0.7-0.4h1.65
	C303.667,134.517,304,134.817,304.4,135.15z"/>
<path fill-rule="evenodd" clip-rule="evenodd" fill="#2F0000" d="M293.05,137.65c0.5,0,0.75,0.283,0.75,0.85l-0.1,0.55
	c0,0.333,0.35,0.65,1.05,0.95c0.333-0.1,0.533-0.067,0.6,0.1c0.134,0,0.334-0.067,0.601-0.2c0.267-0.167,0.399-0.316,0.399-0.45
	l-0.199-0.9c-0.034-0.233-0.034-0.4,0-0.5c0.033-0.2,0.149-0.3,0.35-0.3c0.6,0,0.9,0.333,0.9,1s-0.084,1.133-0.25,1.4
	c-0.4,0.533-1.25,0.8-2.551,0.8c-0.833,0-1.416-0.35-1.75-1.05c-0.199-0.4-0.3-0.85-0.3-1.35
	C292.55,137.95,292.717,137.65,293.05,137.65z"/>
<path fill-rule="evenodd" clip-rule="evenodd" fill="#2F0000" d="M285.9,135.8c0.399-0.533,1.017-0.8,1.85-0.8
	c1.033,0,1.7,0.183,2,0.55c0.134,0.167,0.2,0.534,0.2,1.1c0,0.567-0.167,1.083-0.5,1.55c-0.467,0.633-1.117,0.95-1.95,0.95
	c-1.4,0-2.1-0.667-2.1-2C285.4,136.65,285.566,136.2,285.9,135.8z M286.25,136.4c-0.134,0.233-0.217,0.467-0.25,0.7
	c0,0.333,0.1,0.633,0.3,0.9c0.267,0.367,0.667,0.55,1.2,0.55c0.566,0,1.134-0.383,1.7-1.15v-0.05c-0.533-0.3-0.851-0.45-0.95-0.45
	c-0.167,0.1-0.417,0.15-0.75,0.15s-0.5-0.2-0.5-0.6l0.1-0.55C286.733,135.767,286.45,135.933,286.25,136.4z"/>
<path fill-rule="evenodd" clip-rule="evenodd" fill="#460000" d="M262,140.65c0.167-0.133,0.35-0.15,0.55-0.05
	c0.167,0.033,0.284,0.117,0.35,0.25c0.033,0.033,0.1,0.217,0.2,0.55c0.133,0.434,0.717,0.967,1.75,1.6
	c1.3,0.767,2.033,1.183,2.2,1.25c0.434,0.2,0.85,0.433,1.25,0.7c0.467,0.333,0.7,0.6,0.7,0.8c0,0.433-0.15,0.65-0.45,0.65l-1.8-0.85
	c0.067,0.3-0.033,0.45-0.3,0.45l-1.9-1.15c-1-0.667-1.5-1.1-1.5-1.3c0-0.1,0.05-0.183,0.15-0.25v-0.05
	c-0.934-0.167-1.4-0.867-1.4-2.1C261.8,140.917,261.867,140.75,262,140.65z"/>
<path fill-rule="evenodd" clip-rule="evenodd" fill="#460000" d="M273.65,147.3c-1.2,0-1.867,0-2,0l-1-0.1
	c-0.533,0-1.133-0.1-1.8-0.3c-0.633-0.167-1.133-0.333-1.5-0.5c-0.633-0.267-0.95-0.566-0.95-0.9c0-0.133,0.033-0.217,0.1-0.25
	c0.033-0.033,0.183-0.05,0.45-0.05c0.367,0,0.7,0.15,1,0.45c0.267,0.267,0.5,0.4,0.7,0.4c0.067,0,0.15-0.033,0.25-0.1
	c0.1-0.1,0.217-0.15,0.35-0.15c0.1,0,0.533,0.1,1.3,0.3c0.733,0.167,1.25,0.3,1.55,0.4h2.05l0.9,0.2v0.05
	c0.767-0.133,1.101-0.017,1,0.35c0,0.2-0.05,0.3-0.149,0.3H275C275,147.333,274.55,147.3,273.65,147.3z"/>
<path fill-rule="evenodd" clip-rule="evenodd" fill="#460000" d="M317.45,143.55c0.2-0.167,0.383-0.25,0.55-0.25
	c0.2,0,0.3,0.017,0.3,0.05l1.55,0.05c1.134-0.133,2.65-0.25,4.551-0.35c0.133-0.1,0.449-0.233,0.949-0.4
	c0.534-0.2,0.917-0.3,1.15-0.3s0.35,0.1,0.35,0.3c0,0.367-0.616,0.717-1.85,1.05c-1.3,0.267-2.05,0.417-2.25,0.45l-3.75,0.1
	c-0.3-0.067-0.483-0.1-0.55-0.1c-0.601,0.033-0.934,0.05-1,0.05c-0.134,0-0.217-0.05-0.25-0.15l-0.05-0.15
	C317.15,143.8,317.25,143.683,317.45,143.55z"/>
<path fill-rule="evenodd" clip-rule="evenodd" fill="#460000" d="M333.25,137.4c-0.733,0.367-1.267,0.55-1.6,0.55
	c-0.167,0-0.517,0.183-1.051,0.55c-0.533,0.367-0.899,0.55-1.1,0.55c-0.134,0-0.217-0.05-0.25-0.15l-0.05-0.15
	c0-0.333,0.3-0.65,0.899-0.95c0.334-0.167,0.834-0.383,1.5-0.65c1.9-1.1,2.851-1.367,2.851-0.8
	C334.45,136.65,334.05,137,333.25,137.4z"/>
<path fill-rule="evenodd" clip-rule="evenodd" fill="#460000" d="M292.6,172.95c-0.833,0.3-1.416,0.45-1.75,0.45
	c-0.833,0-1.466-0.133-1.899-0.4c-0.4-0.233-0.601-0.533-0.601-0.9c0-0.6,0.233-0.9,0.7-0.9c0.2,0,0.3,0.083,0.3,0.25
	c0,0.066-0.017,0.15-0.05,0.25c0,0.066,0.05,0.216,0.15,0.45c0.229,0,0.746,0.067,1.55,0.2h0.05l2.4-0.35c0.2,0,0.316,0.1,0.35,0.3
	C293.8,172.433,293.4,172.65,292.6,172.95z"/>
<path fill-rule="evenodd" clip-rule="evenodd" fill="#460000" d="M301.2,162.4c0,0.267-0.05,0.667-0.15,1.2c0,0.367,0.05,1,0.15,1.9
	c0.1,0.8,0.133,1.45,0.1,1.95c-0.066,0.466,0.134,1.017,0.601,1.65c0.033,0.033,0.433,0.25,1.199,0.65c0.667,0.333,1,0.617,1,0.85
	c0.2,0,0.684,0.117,1.45,0.35c0.7-0.1,1.05-0.017,1.05,0.25c0,0.133-0.166,0.267-0.5,0.4c-0.333,0.1-0.683,0.15-1.05,0.15
	c-0.733,0-1.25-0.117-1.55-0.35c-0.3-0.3-0.65-0.566-1.05-0.8l-0.5,0.2c-0.3,0-0.634-0.283-1-0.85c-0.334-0.5-0.5-0.817-0.5-0.95
	c0.133-0.233,0.2-0.367,0.2-0.4l-0.101-0.8l0.101-1.35c-0.167-1.534-0.25-2.367-0.25-2.5c0-0.534,0.066-1.017,0.199-1.45
	c0.134-0.467,0.267-0.7,0.4-0.7S301.2,162,301.2,162.4z"/>
<path fill-rule="evenodd" clip-rule="evenodd" fill="#460000" d="M272.8,125.35c0.167,0.233,0.267,0.566,0.3,1
	c0.066,0.433,0.167,0.783,0.3,1.05c0.434,0.867,0.733,2.267,0.9,4.2l1.4,6.25c0.366,1.2,0.55,1.917,0.55,2.15s-0.1,0.35-0.3,0.35
	c-0.167,0-0.283-0.1-0.351-0.3c-0.033-0.1-0.05-0.216-0.05-0.35c-0.3-0.267-0.5-0.467-0.6-0.6c-0.1-0.1-0.15-0.333-0.15-0.7
	c0.034-0.467,0.034-0.75,0-0.85c-0.433-1.767-0.667-2.767-0.7-3c-0.4-1.433-0.617-2.433-0.65-3c-0.7-1.633-1.05-2.583-1.05-2.85
	l0.1-0.3l-0.25-1.65l0.1-0.45c0-0.167-0.117-0.483-0.35-0.95s-0.35-0.817-0.35-1.05c0-0.233,0.1-0.35,0.3-0.35
	c0.2,0,0.333,0.133,0.4,0.4C272.417,124.617,272.567,124.95,272.8,125.35z"/>
<path fill-rule="evenodd" clip-rule="evenodd" fill="#2F0000" d="M272.05,126.2c0.167-0.467,0.383-0.534,0.65-0.2
	c0.066,0.3,0.25,0.867,0.55,1.7l0.55,1.4c0.333,0.9,0.5,1.55,0.5,1.95c0,0.1-0.066,0.233-0.2,0.4c-0.167,0.167-0.283,0.25-0.35,0.25
	c-0.467,0-0.767-0.184-0.9-0.55c-0.067-0.467-0.133-0.816-0.2-1.05c-0.233,0.566-0.517-0.434-0.85-3
	C271.8,126.833,271.883,126.533,272.05,126.2z"/>
<path fill-rule="evenodd" clip-rule="evenodd" fill="#2F0000" d="M272.75,125.05c0,0.067,0.1,0.65,0.3,1.75
	c0.034,0.3,0.167,0.833,0.4,1.6c0.2,0.633,0.3,1.2,0.3,1.7c0,0.267-0.1,0.4-0.3,0.4c-0.467,0-1.167-1.917-2.1-5.75
	c0-0.2,0.1-0.3,0.3-0.3c0.1,0,0.2,0.05,0.3,0.15c0.066-0.533,0.216-0.65,0.45-0.35C272.633,124.517,272.75,124.783,272.75,125.05z"
	/>
<path fill-rule="evenodd" clip-rule="evenodd" fill="#2F0000" d="M273.1,130.2c0.1,0,0.2,0.066,0.3,0.2l0.25-0.05
	c-1.6-3.967-2.4-6.117-2.4-6.45c0-0.833,0.183-0.983,0.55-0.45c0.3,0.466,0.5,0.917,0.6,1.35l1,2.25c0.5,1.1,0.867,2.667,1.1,4.7
	c0.067,0.833,0.217,1.683,0.45,2.55c0,0.034,0.083,0.434,0.25,1.2c0.066,0.467,0.217,0.867,0.45,1.2
	c0.066,0.066,0.133,0.466,0.199,1.2c0,0.167,0.067,0.367,0.2,0.6c0.134,0.267,0.2,0.483,0.2,0.65c0.033,0.434,0.167,1.283,0.4,2.55
	c0,0.2-0.117,0.3-0.351,0.3c-0.166,0-0.283-0.1-0.35-0.3c-0.033-0.067-0.05-0.167-0.05-0.3c-0.067-0.1-0.2-0.183-0.4-0.25
	c-0.167-0.066-0.267-0.15-0.3-0.25c-0.066-0.133-0.15-0.633-0.25-1.5l-0.6-2.8c-0.167-1.333-0.383-2.35-0.65-3.05
	c-0.6-1.6-0.9-2.566-0.9-2.9C272.8,130.35,272.9,130.2,273.1,130.2z"/>
<path fill-rule="evenodd" clip-rule="evenodd" fill="#2F0000" d="M276.05,140.85c0.3-0.1,0.483,0,0.55,0.3v1.2
	c0,0.033,0.117,0.8,0.351,2.3v0.3c-0.033,0.1-0.134,0.15-0.3,0.15c-0.334,0-0.684-1.233-1.051-3.7
	C275.6,141.133,275.75,140.95,276.05,140.85z"/>
<path fill-rule="evenodd" clip-rule="evenodd" fill="#2F0000" d="M278,148.75c0.033,0.2,0.533,1.3,1.5,3.3l0.6,1.45
	c0.334,0.967,0.617,1.517,0.851,1.65c0.3,0.167,0.717,0.667,1.25,1.5c0.5,0.767,0.75,1.233,0.75,1.4c0,0.2-0.101,0.3-0.3,0.3
	c-0.101,0-0.417-0.35-0.95-1.05c-0.667-0.9-1.017-1.367-1.05-1.4l-0.25,0.1c-0.167,0-0.334-0.25-0.5-0.75l-0.301-0.8
	c-0.267-0.233-0.449-0.5-0.55-0.8c-0.066-0.167-0.166-0.283-0.3-0.35c-0.1-0.1-0.167-0.2-0.2-0.3c-0.267-0.7-0.483-1.25-0.649-1.65
	c-0.267-0.733-0.4-1.283-0.4-1.65c0-0.133-0.066-0.383-0.2-0.75c-0.166-0.333-0.25-0.534-0.25-0.6l0.101-0.5
	c-0.134-0.667-0.2-1.167-0.2-1.5c0-0.2,0.083-0.367,0.25-0.5c0.133-0.133,0.25-0.05,0.35,0.25L278,148.75z"/>
<path fill-rule="evenodd" clip-rule="evenodd" fill="#2F0000" d="M282.1,156.2c0.067-0.1,0.167-0.15,0.301-0.15
	c0.133,0,1.399,1.2,3.8,3.6c0.733,0.6,1.916,1.133,3.55,1.6c1.366,0.4,2.05,0.717,2.05,0.95c0,0.233-0.333,0.35-1,0.35
	c-0.066,0.067-0.217,0.1-0.45,0.1c-0.3,0-0.633-0.1-1-0.3c-0.333-0.167-0.517-0.267-0.55-0.3c-0.233-0.133-0.467-0.183-0.7-0.15
	c-0.199,0.033-0.383,0-0.55-0.1c-1.2-0.9-1.866-1.35-2-1.35c-0.1,0.066-0.184,0.1-0.25,0.1c-0.2,0-0.467-0.2-0.8-0.6
	c-0.3-0.434-0.483-0.684-0.55-0.75l-0.05-0.05c0.033,0.067,0.133,0.217,0.3,0.45c0.133,0.167,0.2,0.316,0.2,0.45
	c0,0.233-0.101,0.35-0.301,0.35c-0.166,0-0.433-0.283-0.8-0.85c-0.233-0.367-0.416-0.683-0.55-0.95l-0.25,0.1
	c-0.134,0-1.017-1.167-2.65-3.5c0-0.2,0.117-0.3,0.351-0.3l-0.101-0.35c0-0.2,0.117-0.3,0.351-0.3
	C280.55,154.25,281.1,154.9,282.1,156.2z"/>
<path fill-rule="evenodd" clip-rule="evenodd" fill="#2F0000" d="M295.5,161.6v0.05l0.7,0.05c0.533-0.034,0.8,0.083,0.8,0.35
	c0,0.133-0.083,0.284-0.25,0.45c-0.233,0.2-0.5,0.3-0.8,0.3c-0.4,0-0.684-0.017-0.851-0.05h-2.3c-1.166-0.2-1.983-0.3-2.45-0.3
	c-0.133,0-0.216-0.05-0.25-0.15l-0.05-0.15c0-0.133,0.184-0.267,0.55-0.4c-0.033-0.3,0.101-0.45,0.4-0.45c0.033,0,0.7,0.1,2,0.3
	H295.5z"/>
<path fill-rule="evenodd" clip-rule="evenodd" fill="#2F0000" d="M294.8,162.15c-0.166-0.033-0.25-0.117-0.25-0.25
	c0-0.233,0.267-0.383,0.8-0.45H298c0.434-0.167,1.366-0.35,2.8-0.55c1.4-0.2,2.467-0.3,3.2-0.3c0.5,0,0.733,0.1,0.7,0.3
	c0,0.167-0.15,0.3-0.45,0.4l0.15,0.25c0,0.233-0.384,0.45-1.15,0.65c-0.767,0.167-1.65,0.25-2.65,0.25l-1.3-0.25l-1.649,0.25h-1.9
	C295.45,162.317,295.134,162.217,294.8,162.15z"/>
<path fill-rule="evenodd" clip-rule="evenodd" fill="#660000" d="M318.8,123.9c-0.233,0.567-0.467,0.85-0.7,0.85
	c-0.133,0-0.216-0.05-0.25-0.15l-0.05-0.15c0.233-0.434,0.4-0.833,0.5-1.2c0.066-0.3,0.2-0.55,0.4-0.75
	c0.233-0.2,0.35-0.067,0.35,0.4C319.05,123.1,318.967,123.433,318.8,123.9z"/>
<path fill-rule="evenodd" clip-rule="evenodd" fill="#660000" d="M319.1,121.6c0,1.967-0.233,2.95-0.699,2.95
	c-0.134,0-0.217-0.05-0.25-0.15l-0.051-0.15c0.134-0.6,0.25-1.15,0.351-1.65c0-1.033,0-1.583,0-1.65c0-0.2,0.116-0.3,0.35-0.3
	C319,120.65,319.1,120.967,319.1,121.6z"/>
<path fill-rule="evenodd" clip-rule="evenodd" fill="#660000" d="M318,126.45c-0.2,0-0.3-0.117-0.3-0.35
	c0-0.1,0.133-1.033,0.399-2.8v-2.1c0.467-0.667,0.667-0.284,0.601,1.15C318.733,125.083,318.5,126.45,318,126.45z"/>
<path fill-rule="evenodd" clip-rule="evenodd" fill="#660000" d="M318.1,126.85c0.167,1.167,0.051,1.75-0.35,1.75
	c-0.134,0-0.217-0.05-0.25-0.15l-0.05-0.15l0.1-5.3c0.3-0.6,0.483-0.483,0.55,0.35c0.067,0.433,0.084,0.95,0.051,1.55L318.1,126.85z
	"/>
<path fill-rule="evenodd" clip-rule="evenodd" fill="#660000" d="M317.45,130.75c-0.233,0-0.351-0.117-0.351-0.35
	c0.167-0.433,0.267-0.85,0.301-1.25c-0.067-0.433-0.017-0.867,0.149-1.3V124c0.3-0.633,0.483-0.483,0.55,0.45
	c0.067,0.433,0.084,0.966,0.051,1.6C318.15,129.183,317.917,130.75,317.45,130.75z"/>
<path fill-rule="evenodd" clip-rule="evenodd" fill="#660000" d="M317.05,133.5c-0.066-0.1-0.1-0.167-0.1-0.2
	c0-0.2,0.166-1.466,0.5-3.8c0.166-0.867,0.233-1.5,0.2-1.9l0.149-0.95c0.066-0.333,0.184-0.45,0.351-0.35
	c0.166,0.067,0.25,0.233,0.25,0.5l-0.4,3.5c-0.033,0.267-0.1,0.934-0.2,2c-0.133,0.9-0.3,1.35-0.5,1.35
	C317.2,133.65,317.116,133.6,317.05,133.5z"/>
<path fill-rule="evenodd" clip-rule="evenodd" fill="#660000" d="M317.8,129.1l-0.3,3.15c-0.033,0.333-0.1,0.95-0.2,1.85
	c-0.1,0.767-0.233,1.15-0.399,1.15c-0.2,0-0.301-0.2-0.301-0.6c0-0.5,0.051-1.1,0.15-1.8c0.134-0.733,0.217-1.233,0.25-1.5l0.2-2.55
	C317.6,128.5,317.8,128.6,317.8,129.1z"/>
<path fill-rule="evenodd" clip-rule="evenodd" fill="#660000" d="M317.35,129.9c0.134,0,0.2,0.25,0.2,0.75
	c0,0.6-0.083,1.75-0.25,3.45c-0.033,0.233-0.083,0.867-0.149,1.9c-0.101,0.9-0.233,1.35-0.4,1.35c-0.2,0-0.3-0.3-0.3-0.9
	c0-0.233,0.05-0.85,0.149-1.85c0.134-1,0.217-1.617,0.25-1.85l0.051-1.8C317.033,130.217,317.184,129.867,317.35,129.9z"/>
<path fill-rule="evenodd" clip-rule="evenodd" fill="#660000" d="M316.25,140.75c-0.2,0-0.3-0.133-0.3-0.4
	c0-0.233,0.033-0.617,0.1-1.15c0.101-0.567,0.184-0.917,0.25-1.05l0.15-1.2c0.033-0.4,0.149-0.6,0.35-0.6s0.3,0.133,0.3,0.4
	C316.733,139.417,316.45,140.75,316.25,140.75z"/>
<path fill-rule="evenodd" clip-rule="evenodd" fill="#660000" d="M316.3,143.3c-0.2,0-0.3-0.133-0.3-0.4
	c0.267-2.033,0.4-3.3,0.4-3.8c0.1-0.6,0.149-1.233,0.149-1.9c0-0.534,0.15-0.733,0.45-0.6c0.167,0.1,0.217,0.4,0.15,0.9
	C316.884,141.367,316.6,143.3,316.3,143.3z"/>
<path fill-rule="evenodd" clip-rule="evenodd" fill="#660000" d="M316.8,139.2c0.134,0,0.2,0.117,0.2,0.35
	c-0.267,4.4-0.55,6.6-0.85,6.6c-0.2,0-0.301-0.117-0.301-0.35l0.5-6.25C316.483,139.283,316.634,139.167,316.8,139.2z"/>
<path fill-rule="evenodd" clip-rule="evenodd" fill="#660000" d="M316.5,144.1c-0.033,0.2-0.083,0.733-0.15,1.6
	c-0.1,0.767-0.25,1.15-0.449,1.15c-0.2,0-0.301-0.2-0.301-0.6c0.233-1.933,0.351-2.933,0.351-3l0.149-1.4
	c0.034-0.367,0.15-0.684,0.351-0.95c0.233-0.267,0.35-0.15,0.35,0.35C316.8,141.583,316.7,142.533,316.5,144.1z"/>
<path fill-rule="evenodd" clip-rule="evenodd" fill="#660000" d="M315.85,142.8c-0.033-0.533,0.067-0.85,0.301-0.95
	s0.35,0.05,0.35,0.45c-0.233,3.9-0.55,5.85-0.95,5.85c-0.166,0-0.267-0.05-0.3-0.15v-0.3c0-0.233,0.083-0.833,0.25-1.8
	c0.134-0.933,0.217-1.433,0.25-1.5L315.85,142.8z"/>
<path fill-rule="evenodd" clip-rule="evenodd" fill="#660000" d="M316.2,142.2c0.166,0.066,0.25,0.216,0.25,0.45
	c0,0.4-0.15,1.667-0.45,3.8c-0.267,2.333-0.566,3.5-0.9,3.5c-0.166,0-0.267-0.05-0.3-0.15v-0.3c0.434-2.1,0.684-3.417,0.75-3.95
	l0.3-2.9C315.884,142.25,316,142.1,316.2,142.2z"/>
<path fill-rule="evenodd" clip-rule="evenodd" fill="#660000" d="M315.95,143.75c0,0.633-0.184,1.6-0.55,2.9
	c-0.301,1.767-0.551,2.65-0.75,2.65c-0.2,0-0.301-0.133-0.301-0.4c0-0.5,0.167-1.383,0.5-2.65c0.301-1.267,0.45-2.2,0.45-2.8
	c0-0.2,0.117-0.3,0.351-0.3S315.983,143.35,315.95,143.75z"/>
<path fill-rule="evenodd" clip-rule="evenodd" fill="#660000" d="M314.35,152.2c-0.133,0-0.216-0.05-0.25-0.15l-0.05-0.15
	c0.533-2.133,0.834-3.433,0.9-3.9c0.133-0.4,0.233-1.05,0.3-1.95l0.1-1.05c0.2-0.3,0.351-0.4,0.45-0.3
	c0.101,0.066,0.15,0.233,0.15,0.5C315.384,149.867,314.85,152.2,314.35,152.2z"/>
<path fill-rule="evenodd" clip-rule="evenodd" fill="#660000" d="M313.65,154.6c-0.134,0-0.217-0.05-0.25-0.15l-0.051-0.15
	c0-0.2,0.351-1.35,1.051-3.45l0.35-1.7c0-0.3,0.083-0.583,0.25-0.85c0.1-0.267,0.233-0.383,0.4-0.35
	c0.133,0.066,0.199,0.2,0.199,0.4C314.7,152.517,314.05,154.6,313.65,154.6z"/>
<path fill-rule="evenodd" clip-rule="evenodd" fill="#660000" d="M312.9,155.35c-0.134,0-0.217-0.05-0.25-0.15l-0.051-0.15
	c0-0.267,0.4-1.283,1.2-3.05c0.334-1,0.517-1.6,0.55-1.8c0-0.367,0.067-0.667,0.2-0.9c0.134-0.3,0.267-0.433,0.4-0.4
	c0.166,0.033,0.25,0.167,0.25,0.4C314.2,153.333,313.434,155.35,312.9,155.35z"/>
<path fill-rule="evenodd" clip-rule="evenodd" fill="#660000" d="M312.7,157h-0.65c0.134-0.5,0.55-1.667,1.25-3.5
	c0.233-0.8,0.45-1.417,0.65-1.85c0.2-0.533,0.3-0.816,0.3-0.85c0.134-0.267,0.283-0.383,0.45-0.35c0.133,0.033,0.2,0.133,0.2,0.3
	C314.9,151.15,314.167,153.233,312.7,157z"/>
<path fill-rule="evenodd" clip-rule="evenodd" fill="#660000" d="M313.4,154.45c0,0.066-0.067,0.2-0.2,0.4
	c-0.167,0.2-0.3,0.417-0.4,0.65c-0.166,0.267-0.283,0.567-0.35,0.9c-0.4,1.133-0.8,1.7-1.2,1.7c-0.134,0-0.217-0.05-0.25-0.15
	l-0.05-0.15c0.3-0.633,0.45-0.983,0.45-1.05c-0.101-0.133-0.15-0.233-0.15-0.3c0-0.1,0.267-0.5,0.8-1.2c0.533-0.733,0.867-1.1,1-1.1
	C313.25,154.15,313.366,154.25,313.4,154.45z"/>
<path fill-rule="evenodd" clip-rule="evenodd" fill="#660000" d="M312.05,157.35c-0.1,0.1-0.2,0.15-0.3,0.15
	c-0.134,0-0.217-0.05-0.25-0.15l-0.05-0.15c0-0.167,0.133-0.317,0.399-0.45c0.233-0.1,0.351,0,0.351,0.3
	C312.2,157.117,312.15,157.217,312.05,157.35z"/>
<path fill-rule="evenodd" clip-rule="evenodd" fill="#880000" d="M298.8,130.35c-0.533-0.1-1.166-0.167-1.899-0.2
	c-1.634-0.066-2.45-0.25-2.45-0.55c0-0.233,0.166-0.35,0.5-0.35l2.649,0.3c0.567,0,0.851,0.017,0.851,0.05
	c0.8,0,2.25,0.133,4.35,0.4c0.066,0,0.2-0.05,0.4-0.15c0.399,0,0.816,0.133,1.25,0.4s0.649,0.533,0.649,0.8
	c0,0.2-0.116,0.3-0.35,0.3c-0.1,0-0.45-0.1-1.05-0.3c-0.601-0.233-1.084-0.35-1.45-0.35c-0.833-0.167-1.55-0.25-2.15-0.25
	C299.7,130.45,299.267,130.417,298.8,130.35z"/>
<path fill-rule="evenodd" clip-rule="evenodd" fill="#880000" d="M299,129.65c0.066,0,0.866,0.2,2.4,0.6
	c0.199,0,0.35-0.05,0.449-0.15c0.167,0,0.351,0.05,0.551,0.15c0.233,0.067,0.466,0.1,0.699,0.1s0.617,0.15,1.15,0.45
	c0-0.167,0.116-0.25,0.35-0.25c0.067,0,0.717,0.317,1.95,0.95c0.5,0.133,0.934,0.433,1.3,0.9c0.267,0.167,0.551,0.533,0.851,1.1
	c0.267,0.567,0.399,1,0.399,1.3c0,1.167-0.116,1.75-0.35,1.75c-0.134,0-0.283-0.35-0.45-1.05c-0.166-0.767-0.267-1.217-0.3-1.35
	c-0.134-0.367-0.45-0.717-0.95-1.05c-0.2-0.167-0.7-0.45-1.5-0.85c-1-0.533-2.233-0.933-3.7-1.2c-2.166-0.4-3.25-0.767-3.25-1.1
	C298.6,129.75,298.733,129.65,299,129.65z"/>
<path fill-rule="evenodd" clip-rule="evenodd" fill="#460000" d="M281.05,136.2c0,0.1-0.033,0.233-0.1,0.4
	c-0.101,0.2-0.15,0.383-0.15,0.55c0.233,0.567,0.15,0.85-0.25,0.85c-0.2,0-0.316-0.083-0.35-0.25c0-0.2,0-0.333,0-0.4
	c0-0.967,0.184-1.45,0.55-1.45C280.95,135.9,281.05,136,281.05,136.2z"/>
<path fill-rule="evenodd" clip-rule="evenodd" fill="#460000" d="M280.75,135.75l0.6,1.15c0.467,0.833,0.95,1.467,1.45,1.9
	c0.101,0.067,0.316,0.317,0.65,0.75c0.3,0.333,0.55,0.567,0.75,0.7l0.649,0.3c0.233,0.133,0.384,0.267,0.45,0.4s0.167,0.267,0.3,0.4
	c0.067,0.033,0.101,0.15,0.101,0.35c0,0.2-0.117,0.3-0.351,0.3c-0.1,0-0.566-0.25-1.399-0.75c-0.934-0.533-1.584-0.867-1.95-1
	c-1.1-1.067-1.65-1.833-1.65-2.3c0.134-0.3,0.2-0.483,0.2-0.55c-0.166-0.367-0.25-0.6-0.25-0.7
	C280.3,136.067,280.45,135.75,280.75,135.75z"/>
<path fill-rule="evenodd" clip-rule="evenodd" fill="#460000" d="M286.55,141.65c0.101,0.033,0.351,0.067,0.75,0.1
	c0.367,0.067,0.7,0.15,1,0.25c0.867,0.067,1.65,0.167,2.351,0.3c0.433,0.1,1.149,0.25,2.149,0.45c0.334,0,0.5,0.017,0.5,0.05
	l0.601,0.05c0.199,0,0.533,0.033,1,0.1c0.733,0.033,1.199,0.083,1.399,0.15c0.134,0.066,0.2,0.167,0.2,0.3
	c0,0.2-0.134,0.317-0.4,0.35c-0.5,0-0.933-0.033-1.3-0.1c-0.291-0.058-0.508-0.092-0.649-0.1l-0.601,0.25
	c-0.733,0-1.833-0.117-3.3-0.35c-1.4-0.233-2.15-0.367-2.25-0.4c-1.1-0.233-1.833-0.466-2.2-0.7c-0.399-0.233-0.7-0.417-0.899-0.55
	c-0.367-0.2-0.551-0.4-0.551-0.6c0-0.267,0.134-0.4,0.4-0.4C284.816,140.8,285.417,141.083,286.55,141.65z"/>
<path fill-rule="evenodd" clip-rule="evenodd" fill="#460000" d="M281.6,137.7c0.367,0.2,0.733,0.5,1.101,0.9
	c0.2,0.233,0.517,0.65,0.95,1.25c0.1,0.1,0.683,0.333,1.75,0.7c0.399,0.167,0.949,0.467,1.649,0.9c0.367,0.133,1.25,0.3,2.65,0.5
	c0.733,0.066,1.166,0.117,1.3,0.15c0.233,0.066,0.35,0.217,0.35,0.45c0,0.233-0.1,0.35-0.3,0.35c-0.666-0.233-1.149-0.35-1.45-0.35
	c-0.033,0-0.083,0.034-0.149,0.1c-0.066,0.067-0.184,0.1-0.351,0.1c-0.199,0-0.483-0.067-0.85-0.2s-0.566-0.2-0.6-0.2
	c-0.067,0.133-0.217,0.2-0.45,0.2c-0.733-0.3-1.283-0.466-1.65-0.5c-0.333-0.066-0.6-0.183-0.8-0.35c-0.2-0.167-0.366-0.3-0.5-0.4
	c-0.167-0.133-0.45-0.417-0.85-0.85c-0.267-0.333-0.567-0.534-0.9-0.6c-0.167-0.067-0.566-0.6-1.2-1.6
	c-0.633-1.033-0.95-1.683-0.95-1.95c0-0.767,0.15-1.117,0.45-1.05c0.2,0.067,0.316,0.217,0.351,0.45l0.05,0.7
	c0.033,0.167,0.05,0.4,0.05,0.7C281.316,137.367,281.434,137.567,281.6,137.7z"/>
<path fill-rule="evenodd" clip-rule="evenodd" fill="#460000" d="M303.15,142.3c0,0.3-0.784,0.633-2.351,1
	c-1.6,0.367-3.116,0.55-4.55,0.55c-0.134,0-0.233-0.05-0.3-0.15l-0.05-0.15c0-0.3,0.466-0.466,1.399-0.5
	c1.367-0.033,2.283-0.117,2.75-0.25c1.566-0.566,2.483-0.85,2.75-0.85C303.033,141.95,303.15,142.067,303.15,142.3z"/>
<path fill-rule="evenodd" clip-rule="evenodd" fill="#460000" d="M289,135.95c0.267,0.333,0.4,0.667,0.4,1
	c0,0.6-0.117,0.9-0.351,0.9c-0.133,0-0.2-0.117-0.2-0.35c0.034-0.233,0.051-0.367,0.051-0.4c0-0.467-0.301-0.833-0.9-1.1
	c-0.6-0.3-0.9-0.467-0.9-0.5c0.134,0,0.2-0.067,0.2-0.2C288.066,135.233,288.634,135.45,289,135.95z"/>
<path fill-rule="evenodd" clip-rule="evenodd" fill="#460000" d="M303.9,136.35c0,0.533-0.101,0.8-0.301,0.8
	c-0.1,0-0.166-0.05-0.199-0.15l-0.051-0.15l0.101-0.45c0-0.333-0.117-0.65-0.351-0.95c-0.1-0.133-0.25-0.167-0.449-0.1
	c-0.2,0.066-0.384,0.017-0.551-0.15l-0.3-0.4l0.2-0.25c0.634-0.033,1.134,0.2,1.5,0.7C303.767,135.617,303.9,135.983,303.9,136.35z"
	/>
<path fill-rule="evenodd" clip-rule="evenodd" fill="#2F0000" d="M308.75,138.7c0.333,0,0.5,0.133,0.5,0.4
	c0,0.833-1.417,1.917-4.25,3.25c-3.233,1.467-6.517,2.2-9.85,2.2c-1.9,0-3.967-0.167-6.2-0.5c-1.767-0.3-3-0.566-3.7-0.8
	c-0.333-0.1-0.884-0.4-1.65-0.9c-0.6-0.4-1.1-0.6-1.5-0.6c-0.333,0-0.866-0.45-1.6-1.35c-0.667-0.833-1-1.3-1-1.4
	c0-0.067,0.033-0.133,0.1-0.2c0.067-0.033,0.101-0.1,0.101-0.2l-0.3-1.85c0-0.833,0.017-1.333,0.05-1.5
	c0.166-0.533,0.583-0.917,1.25-1.15l0.05,0.25c0,0.033-0.134,0.783-0.4,2.25c0,1.566,0.584,2.883,1.75,3.95
	c2.334,2.133,6.7,3.2,13.101,3.2c3.434,0,6.616-0.733,9.55-2.2C305.384,141.217,306.717,140.267,308.75,138.7z"/>
<path fill-rule="evenodd" clip-rule="evenodd" fill="#2F0000" d="M309.65,135.75c-0.034,0.333-0.217,0.5-0.551,0.5
	c-0.233,0-0.366-0.05-0.399-0.15v-0.2c0.133-0.4,0.2-0.683,0.2-0.85c0-1.133-0.75-2.25-2.25-3.35c-2.334-1.733-5.867-2.6-10.601-2.6
	s-8.517,0.8-11.35,2.4c-1.934,1.567-3.066,2.35-3.4,2.35c-0.233,0-0.366-0.067-0.399-0.2v-0.15c0-1.067,1.833-2.25,5.5-3.55
	c4.399-1.567,9.083-1.983,14.05-1.25c3.3,0.433,5.75,1.367,7.35,2.8c1.233,1.067,1.851,2.25,1.851,3.55
	C309.65,135.15,309.65,135.383,309.65,135.75z"/>
</svg>
