<?xml version="1.0" encoding="utf-8"?>
<!-- Generator: Adobe Illustrator 16.0.0, SVG Export Plug-In . SVG Version: 6.00 Build 0)  -->
<!DOCTYPE svg PUBLIC "-//W3C//DTD SVG 1.1//EN" "http://www.w3.org/Graphics/SVG/1.1/DTD/svg11.dtd">
<svg version="1.1" id="Selected_Items" xmlns="http://www.w3.org/2000/svg" xmlns:xlink="http://www.w3.org/1999/xlink" x="0px"
	 y="0px" width="550px" height="400px" viewBox="0 0 550 400" enable-background="new 0 0 550 400" xml:space="preserve">
<path fill-rule="evenodd" clip-rule="evenodd" fill="#482400" d="M210.15,205.35c-1.433-2.899-2.15-4.416-2.15-4.55
	c0-1.667,0.883-1.233,2.65,1.3c1.733,2.5,3.233,5.467,4.5,8.9c0.367,0.967,1.4,3.384,3.1,7.25c1.433,3.267,2.15,5,2.15,5.2
	c0,0.8-0.3,1.2-0.9,1.2c-0.8,0-1.85-1.551-3.15-4.65c-1.333-3.7-2.233-6.116-2.7-7.25C213.017,211.184,211.85,208.717,210.15,205.35
	z"/>
<path fill-rule="evenodd" clip-rule="evenodd" fill="#482400" d="M294.35,211.2c-2.8,1.1-4.783,1.783-5.949,2.05
	c-2.067,0.5-4.801,1.233-8.2,2.2c-2.634,0.733-4.783,1.25-6.45,1.55c-2.333,0.733-4.55,1.267-6.65,1.6
	c-3.633,0.634-12.2,1.267-25.7,1.9c-1.7,0.066-5.733,0.667-12.1,1.8c-6.033,1.066-9.133,1.601-9.3,1.601
	c-0.833,0-1.25-0.284-1.25-0.851c0-1.434,5.95-2.649,17.85-3.649c16.967-1.467,29.4-2.983,37.3-4.551
	c1.234-0.233,5.85-1.6,13.85-4.1c7.434-2.167,11.15-2.833,11.15-2C298.9,209.15,297.384,209.967,294.35,211.2z"/>
<path fill-rule="evenodd" clip-rule="evenodd" fill="#482400" d="M256,218.5c0.867,0.566,1.333,1.6,1.4,3.1
	c0.167,0.5,0.517,1.367,1.05,2.601c0.466,1.2,0.7,2.149,0.7,2.85c0,0.967-0.217,1.9-0.65,2.8c-0.733,1.534-1.983,2.301-3.75,2.301
	c-0.967,0-1.55-0.25-1.75-0.75c0-0.5,0-0.767,0-0.801c0-0.666,0.6-1.416,1.8-2.25c1.2-0.866,1.8-1.366,1.8-1.5
	c0-0.066-0.617-2.399-1.85-7C254.75,218.417,255.167,217.967,256,218.5z"/>
<path fill-rule="evenodd" clip-rule="evenodd" fill="#482400" d="M258.1,220.7c1.7,3.033,2.55,5.166,2.55,6.399
	c0,0.834-0.433,1.884-1.3,3.15c-1.2,1.767-2.7,2.65-4.5,2.65c-1.2,0-1.95-0.351-2.25-1.051c-0.067-0.733-0.1-1.116-0.1-1.149
	c0-0.533,0.333-1.217,1-2.05c0.867-1.101,1.983-1.65,3.35-1.65c0.667,0,1.017,0.333,1.05,1c0,0.434-0.35,0.85-1.05,1.25
	c-1,0.5-1.817,0.95-2.45,1.35v0.15l0.1,0.25c1,0.033,2-0.5,3-1.6c0.833-0.967,1.25-1.717,1.25-2.25c0-0.367-0.533-1.65-1.6-3.851
	c-1.1-2.166-1.65-3.35-1.65-3.55C255.5,217.35,256.367,217.667,258.1,220.7z"/>
<path fill-rule="evenodd" clip-rule="evenodd" fill="#482400" d="M272.4,219.05c0,0.434-0.167,1.634-0.5,3.601
	c0,0.899,0.833,1.633,2.5,2.199c1.667,0.534,2.5,1.517,2.5,2.95c0,0.434-0.051,0.733-0.15,0.9c-0.2,0.3-0.616,0.45-1.25,0.45
	c-1.433,0-2.983-0.75-4.65-2.25c-1.4-1.233-2.1-2.034-2.1-2.4c0.333-2.667,0.5-4.667,0.5-6c0-2.366,0.533-3.167,1.6-2.4
	C271.883,216.9,272.4,217.884,272.4,219.05z"/>
<path fill-rule="evenodd" clip-rule="evenodd" fill="#482400" d="M274.85,227.45c-0.067-0.101-0.1-0.267-0.1-0.5
	c0-0.3,0.133-0.533,0.4-0.7c0.233-0.167,0.466-0.25,0.699-0.25c0.967,0,1.317,0.583,1.051,1.75c0,0.6-0.051,1.017-0.15,1.25
	c-0.267,0.434-0.816,0.65-1.65,0.65c-2.466,0-4.3-0.75-5.5-2.25c-0.733-0.9-1.1-1.767-1.1-2.601c0-0.934,0.483-1.7,1.45-2.3
	c0.966-0.6,1.45-0.333,1.45,0.8c0,0.267-0.167,0.566-0.5,0.9c-0.333,0.333-0.5,0.566-0.5,0.7c0,0.5,0.417,1,1.25,1.5
	c0.833,0.5,1.917,0.899,3.25,1.199C274.933,227.566,274.917,227.517,274.85,227.45z"/>
<path fill-rule="evenodd" clip-rule="evenodd" fill="#482400" d="M250.55,208.75c-0.233,0.767-0.833,1.4-1.8,1.9h-2.25
	c-1,0.066-1.8-0.767-2.4-2.5c-0.4-1.233-0.6-2.367-0.6-3.4c0-1.434,0.367-2.483,1.1-3.15c0.7-0.566,1.533-0.733,2.5-0.5
	c2.367,0.667,3.55,2.601,3.55,5.801C250.65,207.9,250.617,208.517,250.55,208.75z"/>
<path fill-rule="evenodd" clip-rule="evenodd" fill="#482400" d="M264.15,208.25c0,0.267-0.3,0.566-0.9,0.9
	c-0.867,0.5-2.033,0.75-3.5,0.75c-0.4,0-0.733-0.25-1-0.75c-0.167-0.367-0.25-0.65-0.25-0.851c0-0.399,0.183-0.666,0.55-0.8
	c0.633-0.2,2.034-0.283,4.2-0.25C263.85,207.483,264.15,207.816,264.15,208.25z"/>
<path fill-rule="evenodd" clip-rule="evenodd" fill="#482400" d="M276.7,203c-0.733,2.267-1.767,3.4-3.1,3.4
	c-0.867,0-1.483-0.667-1.85-2l-0.25-2c0-2.7,0.983-4.567,2.95-5.601c1.967-1.033,2.95-0.2,2.95,2.5
	C277.4,200.267,277.167,201.5,276.7,203z"/>
<path fill-rule="evenodd" clip-rule="evenodd" fill="#482400" d="M300.5,196.95c-1.333,1.433-2.417,2.4-3.25,2.9l-7.5,4.55
	c-0.967,0-1.717-0.667-2.25-2c-0.333-1.334-0.5-2.017-0.5-2.051c0-0.733,0.134-1.35,0.4-1.85c0.466-0.833,1.199-1.25,2.199-1.25
	c0.934,0,1.5,0.3,1.7,0.9c0.233,0.567,0.8,0.85,1.7,0.85c0.033,0,1.783-1.383,5.25-4.15c2.934-2.367,4.4-2.717,4.4-1.05
	C302.65,194.367,301.934,195.417,300.5,196.95z"/>
<path fill-rule="evenodd" clip-rule="evenodd" fill="#482400" d="M223.75,213.15c-1.067,0-1.8-0.184-2.2-0.551l-0.3-0.55
	c0-0.666,0.567-1.033,1.7-1.1c1.133-0.101,1.7,0.267,1.7,1.1C224.65,212.783,224.35,213.15,223.75,213.15z"/>
<path fill-rule="evenodd" clip-rule="evenodd" fill="#482400" d="M226.85,210.15c1.167,0.199,2.433,0.533,3.8,1h3.6
	c1.733-1.733,3.133-2.017,4.2-0.851c0.8,0.867,1.2,1.851,1.2,2.95c0,0.733-0.167,1.35-0.5,1.85c-0.533,0.867-1.467,1.301-2.8,1.301
	c-1.033,0-1.617-0.15-1.75-0.45c0-0.434-0.117-0.783-0.35-1.05c-5.367-0.167-9.117-0.601-11.25-1.301
	c-1.667-0.533-2.5-1.283-2.5-2.25c0-0.466,0.033-0.767,0.1-0.899c0.133-0.334,0.433-0.566,0.9-0.7h2.75
	C224.817,209.85,225.683,209.983,226.85,210.15z"/>
<path fill-rule="evenodd" clip-rule="evenodd" fill="#482400" d="M300.55,179.35c3.9-2,5.851-2.35,5.851-1.05
	c0,3.367-12.067,8.067-36.2,14.1c-23.667,5.934-41.4,8.933-53.2,9h-7.25c-0.367-0.2-0.683-0.467-0.95-0.801
	c-0.2-0.233-0.3-0.383-0.3-0.449c0-0.267,0.083-0.5,0.25-0.7c0.3-0.333,0.767-0.35,1.4-0.05h6.6c28.867-3.8,48.817-7.433,59.85-10.9
	c10.767-3.4,16.45-5.2,17.051-5.4C294.116,182.967,296.417,181.717,300.55,179.35z"/>
<path fill-rule="evenodd" clip-rule="evenodd" fill="#482400" d="M304.9,194.85c-2.2,10.034-4.25,15.05-6.15,15.05
	c-0.533,0-0.85-0.184-0.95-0.551c-0.033-0.366-0.05-0.566-0.05-0.6c0-0.134,0.8-2.333,2.4-6.6c1.666-4.534,2.699-8,3.1-10.4
	c0.1-0.467,0.25-1.883,0.45-4.25c0.166-1.7,0.434-3.083,0.8-4.15c0.3-0.867,0.533-1.55,0.7-2.05c0.3-0.933,0.483-1.7,0.55-2.3
	c0.167-1.533,0.533-2.117,1.1-1.75c0.534,0.333,0.801,0.983,0.801,1.95C307.65,181.267,306.733,186.483,304.9,194.85z"/>
<path fill-rule="evenodd" clip-rule="evenodd" fill="#482400" d="M242.4,174.45c0,0.466,0.067,0.85,0.2,1.15
	c0.167,0.367,0.517,0.8,1.05,1.3H245c0.167-0.066,0.25-0.316,0.25-0.75c0-0.1-0.367-0.4-1.1-0.9c-0.767-0.5-1.15-0.95-1.15-1.35
	c0-0.167,0.083-0.35,0.25-0.55c0.2-0.233,0.483-0.35,0.85-0.35c1.2,0,2.066,0.533,2.6,1.6c0.267,0.533,0.417,1.083,0.45,1.65
	c0,0.667-0.033,1.067-0.1,1.2c-0.167,0.367-0.683,0.85-1.55,1.45h-2c-1.533-0.9-2.467-1.65-2.8-2.25c-0.133-0.3-0.2-1.017-0.2-2.15
	c0-4.767,3.367-6.217,10.1-4.35c2.367,0.633,4.667,1.567,6.9,2.8c2.1,1.167,3.15,2.017,3.15,2.55c0,0.767-0.3,1.15-0.9,1.15
	c-1.733-0.9-3.55-1.8-5.45-2.7c-3.8-1.8-7.066-2.7-9.8-2.7c-0.8,0-1.4,0.517-1.8,1.55C242.533,173.333,242.433,173.883,242.4,174.45
	z"/>
<path fill-rule="evenodd" clip-rule="evenodd" fill="#482400" d="M258,179.9c-1.367-0.333-2.667-0.633-3.9-0.9
	c-2.434-0.567-5.05-0.767-7.85-0.6l-0.7-0.4c-0.2-0.133-0.3-0.283-0.3-0.45c0-1.066,2.283-1.35,6.85-0.85
	c4.533,0.533,6.8,1.233,6.8,2.1C258.9,179.533,258.6,179.9,258,179.9z"/>
<path fill-rule="evenodd" clip-rule="evenodd" fill="#482400" d="M269.25,166.05c-3,3.3-4.75,5.284-5.25,5.95
	c-1.567,2.433-2.717,4.233-3.45,5.4c-1.367,2.133-2.883,3.883-4.55,5.25l-0.9-0.3l-0.1-0.55c3.8-5.566,7.7-10.683,11.7-15.35
	c4.3-4.967,6.45-6.684,6.45-5.15C273.15,161.6,271.85,163.183,269.25,166.05z"/>
<path fill-rule="evenodd" clip-rule="evenodd" fill="#482400" d="M273.25,164.75c0.133,0.633,0.467,1.05,1,1.25
	c1.767-0.033,2.866-0.333,3.3-0.9c0.134-0.167,0.2-0.6,0.2-1.3c0-0.566-0.116-1.083-0.35-1.55c-0.134,0-0.267,0.017-0.4,0.05
	c-0.267,0.034-0.434,0.1-0.5,0.2c0.434,0.467,0.65,0.867,0.65,1.2c0,0.8-0.301,1.2-0.9,1.2s-1.1-0.483-1.5-1.45
	c-0.396-0.923-0.445-1.648-0.15-2.175c-0.738,0.228-1.188,0.536-1.35,0.925c-0.067,0.167-0.1,0.617-0.1,1.35
	C273.15,164.117,273.183,164.517,273.25,164.75z M271.25,163.5c0-1.267,0.083-2.1,0.25-2.5c0.5-1.167,1.667-1.75,3.5-1.75
	c2.167,0,3.583,0.7,4.25,2.1c0.366,0.733,0.5,1.5,0.4,2.3c0,1.133-0.101,1.917-0.301,2.35c-0.6,1.267-1.966,1.9-4.1,1.9
	c-2.033,0-3.317-0.733-3.85-2.2C271.3,164.267,271.25,163.533,271.25,163.5z"/>
<path fill-rule="evenodd" clip-rule="evenodd" fill="#482400" d="M257.75,177.4c-0.1,0-0.833-0.316-2.2-0.95
	c-1.433-0.667-2.283-1.017-2.55-1.05c-2.7-0.367-5.217-0.5-7.55-0.4c-0.967,0.033-1.45-0.2-1.45-0.7c0-1.367,2.483-1.7,7.45-1
	c4.966,0.667,7.45,1.733,7.45,3.2C258.9,177.1,258.517,177.4,257.75,177.4z"/>
<path fill-rule="evenodd" clip-rule="evenodd" fill="#482400" d="M278.9,166.5c0,0.233-1.434,1.7-4.3,4.4
	c-3.267,3-5.3,4.867-6.1,5.6c-0.9,0.867-2.483,2.517-4.75,4.95c-1.967,2.133-3.55,3.7-4.75,4.7h-2c-1.333-0.533-2-1.733-2-3.6
	c0-0.433,0.133-0.966,0.4-1.6c0.434-0.967,1.05-1.45,1.85-1.45c0.233,0,0.383,0.033,0.45,0.1l0.3,0.25l0.1,0.15
	c0.033,0.1,0.05,0.267,0.05,0.5c0,0.2-0.2,0.55-0.6,1.05c-0.433,0.5-0.65,0.833-0.65,1c0,0.367,0.083,0.717,0.25,1.05
	c0.233,0.367,0.517,0.55,0.85,0.55c0.133,0,3.8-3.683,11-11.05C275.6,166.333,278.9,164.133,278.9,166.5z"/>
<path fill-rule="evenodd" clip-rule="evenodd" fill="#482400" d="M262.9,180c0.233-0.167,0.467-0.25,0.7-0.25
	c0.6,0,1.717,0.717,3.35,2.15c2.033,1.8,3.133,2.75,3.3,2.85c2.7-0.1,4.25-0.333,4.65-0.7c0.267-0.2,0.383-0.633,0.35-1.3
	c-1.9-0.667-3.633-1.3-5.2-1.9c-3.033-1.133-4.55-2.033-4.55-2.7c0-1.367,1.95-1.283,5.85,0.25c3.867,1.533,5.8,2.983,5.8,4.35
	c0,0.8-0.301,1.55-0.9,2.25c-0.934,1.1-2.433,1.65-4.5,1.65c-1.6,0-3.617-0.967-6.05-2.9l-3.2-2.95
	C262.5,180.433,262.633,180.167,262.9,180z"/>
<path fill-rule="evenodd" clip-rule="evenodd" fill="#482400" d="M273.25,185.15c-0.2,0-1.783-1.05-4.75-3.15
	c-2.833-2-4.25-2.867-4.25-2.6c0-1.333,1.65-1.083,4.95,0.75c3.3,1.8,4.95,3.1,4.95,3.9C274.15,184.783,273.85,185.15,273.25,185.15
	z"/>
<path fill-rule="evenodd" clip-rule="evenodd" fill="#482400" d="M227.15,187.6c-9.967,8.367-15.767,12.55-17.4,12.55
	c-0.833,0-1.25-0.284-1.25-0.851c1.867-1.267,4.017-2.716,6.45-4.35c4.933-3.4,8.733-6.517,11.4-9.35
	c1.9-1.967,4.683-4.467,8.35-7.5c4.8-4,7.2-5.367,7.2-4.1C241.9,174.833,236.983,179.367,227.15,187.6z"/>
<path fill-rule="evenodd" clip-rule="evenodd" fill="#482400" d="M274.85,156.4c-3.067-0.767-5.417-1.15-7.05-1.15
	c-6.1,0-10.9,1.1-14.4,3.3c-2.133,1.367-3.383,2.684-3.75,3.95c-0.633,2.033-1.083,3.4-1.35,4.1c-0.6,1.633-1.2,2.9-1.8,3.8
	l-0.9-0.3c-0.067-0.233-0.1-0.667-0.1-1.3c0-2.767,1.333-5.8,4-9.1c3.9-4.867,9.4-6.967,16.5-6.3c14.366,2.233,28.1,4.217,41.2,5.95
	c3.533,0.733,5.916,1.633,7.149,2.7c1.2,1,1.801,2.617,1.801,4.85c0,0.9-0.301,1.883-0.9,2.95c-0.833,1.333-1.5,2.433-2,3.3
	c-0.1,0.233-0.366,1.233-0.8,3c-0.467,1.667-1,2.5-1.601,2.5c-0.733,0-1.1-0.283-1.1-0.85c0-2.066,0.75-4.133,2.25-6.2
	c1.5-2.067,2.25-3.633,2.25-4.7c0-1.433-0.75-2.683-2.25-3.75c-2.2-1.566-5.866-2.566-11-3c-1.566-0.1-5.25-0.483-11.05-1.15
	c-5.867-0.7-9.267-1.15-10.2-1.35C278.05,157.183,276.417,156.767,274.85,156.4z"/>
<path fill-rule="evenodd" clip-rule="evenodd" fill="#482400" d="M246.6,168.45c0.467-0.167,1.816-0.45,4.05-0.85
	c0.833-0.167,1.35-0.2,1.55-0.1c0.133,0.067,0.333,0.267,0.6,0.6c1.067,0.767,4.383,1.233,9.95,1.4c0.6,0.233,0.9,0.567,0.9,1
	c0,0.4-0.167,0.65-0.5,0.75c-0.3,0.1-1.017,0.15-2.15,0.15c-4.8,0-7.55-0.316-8.25-0.95c-0.133-0.3-0.233-0.517-0.3-0.65
	c-0.133-0.2-0.534-0.3-1.2-0.3c-1.4,0.6-2.15,0.9-2.25,0.9h-2.25c-0.367-0.2-0.6-0.35-0.7-0.45c-0.2-0.133-0.3-0.267-0.3-0.4
	C245.75,168.983,246.033,168.617,246.6,168.45z"/>
<path fill-rule="evenodd" clip-rule="evenodd" fill="#482400" d="M273,172.05c0-0.6,0.383-0.95,1.15-1.05
	c0.867-0.1,2.067,0.15,3.6,0.75c2.134,0.767,3.417,1.15,3.85,1.15c0.301,0,1.017-0.05,2.15-0.15c0.733,0.033,1.866-0.083,3.4-0.35
	c0.767-0.133,1.916,0.15,3.449,0.85c0.967,0.467,3.617,1.05,7.95,1.75c4.134,0.667,6.9,1,8.3,1c1.767,0,2.934,0.333,3.5,1
	c0.267,0.367,0.367,0.75,0.301,1.15c0,0.434-0.134,0.934-0.4,1.5c-0.3,0.667-0.634,1-1,1c-0.7,0-1.05-0.3-1.05-0.9
	c0.2-0.667,0.3-1.083,0.3-1.25c-0.434-0.2-1.083-0.283-1.95-0.25c-1.066,0.1-1.967,0.15-2.7,0.15c-0.866,0-1.783-0.25-2.75-0.75
	c-0.966-0.5-2.8-0.75-5.5-0.75c-1.833,0-3.416-0.333-4.75-1c-0.133-0.066-0.699-0.45-1.699-1.15c-1.5,0-2.667,0.033-3.5,0.1
	c-0.567,0.033-0.95,0.05-1.15,0.05c-2.5,0-5.167-0.467-8-1.4C274.167,172.733,273,172.25,273,172.05z"/>
<path fill-rule="evenodd" clip-rule="evenodd" fill="#482400" d="M310.9,189.6c0,0.433,0.166,1.9,0.5,4.4c0,1.1-0.417,2.5-1.25,4.2
	c-0.834,1.7-1.25,3.133-1.25,4.3c0,1.6-0.301,2.9-0.9,3.9c-1.467,2.333-4.384,3.5-8.75,3.5c-0.6,0-0.983-0.167-1.15-0.5
	c-0.066-0.101-0.1-0.284-0.1-0.551c0-0.5,0.283-0.816,0.85-0.949c0.534-0.134,2.417-0.467,5.65-1c0.9-0.9,1.983-3.2,3.25-6.9
	c1.167-3.333,1.75-5.35,1.75-6.05c-0.333-2.534-0.5-4-0.5-4.4c0.333-3.7,0.5-6.466,0.5-8.3c0.066-3.5,0.4-4.783,1-3.85
	c0.6,0.9,0.9,2.184,0.9,3.85L310.9,189.6z"/>
<path fill-rule="evenodd" clip-rule="evenodd" fill="#663300" d="M251.65,189.25c0.233,0.433,0.35,0.917,0.35,1.45
	c0,2.2-4.583,4.233-13.75,6.1c-7.4,1.5-12.95,2.25-16.65,2.25c-1.033,0-1.767-0.4-2.2-1.2c-0.267-0.467-0.4-0.934-0.4-1.4
	c0-1.233,0.8-2.583,2.4-4.05c1-0.9,2.7-2.15,5.1-3.75c2.3-1.533,4.233-3.167,5.8-4.9c0.133-0.133,1.65-0.2,4.55-0.2
	c1.167,0,2.25,0.633,3.25,1.9c0.767,1,1.15,1.683,1.15,2.05c0,1.433-1.333,2.783-4,4.05l-0.15,0.15
	c1.233-0.034,3.316-0.65,6.25-1.85c2.9-1.2,4.9-1.8,6-1.8C250.417,188.05,251.183,188.45,251.65,189.25z M230.75,192.15
	c0.233,0.033,0.483,0,0.75-0.1v-0.25l-0.5,0.15L230.75,192.15z"/>
<path fill-rule="evenodd" clip-rule="evenodd" fill="#663300" d="M261.9,186.35c2.033-0.7,3.684-1.05,4.95-1.05
	c1.033,0,1.783,0.4,2.25,1.2c0.233,0.4,0.367,0.817,0.4,1.25c0,1.2-3.633,2.95-10.9,5.25c-7.033,2.2-12.033,3.3-15,3.3
	c-1.133,0-1.9-0.4-2.3-1.2c-0.2-0.9-0.333-1.417-0.4-1.55c-1.233,0.3-3.183,0.7-5.85,1.2c-2.8,0.533-4.45,0.8-4.95,0.8
	c-1.033,0-1.783-0.417-2.25-1.25c-0.233-0.8-0.35-1.216-0.35-1.25c0-1.667,1.817-2.816,5.45-3.45c4.033-0.733,6.35-1.75,6.95-3.05
	l-0.3-0.5c-0.467,0.333-1,0.5-1.6,0.5c-1.133,0-1.933-0.417-2.4-1.25c-0.233-0.433-0.35-0.883-0.35-1.35c0-1.7,1.033-3,3.1-3.9
	c2.7-1.2,6.633-1.167,11.8,0.1c1.167,0.667,2.533,2.017,4.1,4.05c0.333,0.466,0.967,1.05,1.9,1.75c0.867,0.633,1.434,1.216,1.7,1.75
	C257.95,187.667,259.3,187.217,261.9,186.35z"/>
<path fill-rule="evenodd" clip-rule="evenodd" fill="#663300" d="M216.35,202.05c0.566,0.5,1.066,1.3,1.5,2.4
	c0.566,1.533,0.867,2.316,0.9,2.35c0.467,0.867,0.933,2.417,1.4,4.65c0.867,1.934,2.783,3.184,5.75,3.75l7.1,0.1
	c1.667,0.101,2.5,0.983,2.5,2.65c0,1.066-1.717,2.083-5.15,3.05c-3.1,0.866-5.967,1.3-8.6,1.3c-1.767,0-3.233-1.333-4.4-4
	c-0.9-2.899-1.467-4.6-1.7-5.1c-0.8-1.7-1.633-3.584-2.5-5.65c-0.933-2.166-1.4-3.399-1.4-3.7c0-0.966,0.35-1.666,1.05-2.1
	C213.633,201.184,214.817,201.283,216.35,202.05z"/>
<path fill-rule="evenodd" clip-rule="evenodd" fill="#663300" d="M216.65,200.45h11.6c2.733-0.167,6.3-0.784,10.7-1.85
	c3.033-0.4,4.55,0.583,4.55,2.95c0,2.434-0.65,4.084-1.95,4.95c-2.633,1.7-8.483,2.55-17.55,2.55c-3.567,0-5.583-0.483-6.05-1.45
	c-0.067-0.133,0.066-0.816,0.4-2.05c-3.567,0-5.35-0.899-5.35-2.7c0-0.733,0.183-1.333,0.55-1.8
	C214.15,200.316,215.183,200.116,216.65,200.45z"/>
<path fill-rule="evenodd" clip-rule="evenodd" fill="#663300" d="M260.6,201.9c-0.767,0.899-2.05,1.233-3.85,1
	c0.5,1.733,0.75,3.366,0.75,4.899c0,0.667-0.25,2.617-0.75,5.851c0,0.199,0.133,0.55,0.4,1.05c0.233,0.5,0.35,0.816,0.35,0.95
	c0,1.399-1.533,2.316-4.6,2.75c-0.867,0.133-2.066,0.133-3.6,0c-1.6-0.101-3.2-0.051-4.8,0.149c-0.333,0.033-0.733,0.25-1.2,0.65
	c-0.466,0.399-0.9,0.6-1.3,0.6c-1,0-1.717-0.399-2.15-1.2c-0.233-0.466-0.35-0.933-0.35-1.399c0-0.367,0.217-0.867,0.65-1.5
	c0.4-0.634,0.6-1.017,0.6-1.15c-2-4.233-3-6.8-3-7.7c0-0.566,0.167-1.083,0.5-1.55c0.467-0.666,1.133-1,2-1
	c1.267,0,2.483,1.267,3.65,3.8c0.167,0.367,0.783,2.051,1.85,5.051h1.35c0.367-0.434,1.217-0.801,2.55-1.101
	c1.367-0.333,2.233-0.717,2.6-1.149c0.167-1.7,0.25-2.767,0.25-3.2c0-2.134-0.75-4.05-2.25-5.75s-2.25-2.833-2.25-3.4
	c0-2.233,2.217-2.85,6.65-1.85c4.4,1.033,6.6,2.216,6.6,3.55C261.25,200.85,261.033,201.4,260.6,201.9z"/>
<path fill-rule="evenodd" clip-rule="evenodd" fill="#663300" d="M272.9,198.35c-1.433,1.066-2.15,2.55-2.15,4.45
	c0,0.8,0.217,1.816,0.65,3.05c0.4,1.267,0.6,2.184,0.6,2.75c0,0.601-0.133,1.167-0.4,1.7l-0.1,0.15c0.9-0.134,3.35-0.767,7.35-1.9
	c3.534-1,5.784-1.5,6.75-1.5c1.034,0,1.784,0.4,2.25,1.2c0.233,0.4,0.367,0.816,0.4,1.25c0,1.634-3.95,3.384-11.85,5.25
	c-7.367,1.7-13.467,2.55-18.3,2.55c-2,0-3.317-0.467-3.95-1.399c-0.267-0.367-0.4-0.9-0.4-1.601c0-1.5,2.083-2.7,6.25-3.6
	c4.167-0.934,6.25-1.7,6.25-2.3c0-1.034-1.867-1.65-5.6-1.851c-3.767-0.166-5.65-1.083-5.65-2.75c0-0.467,0.2-1.05,0.6-1.75
	l0.15-0.149c-2.5-0.067-3.75-0.934-3.75-2.601c0-1.6,1.267-2.55,3.8-2.85c5.6-0.667,8.583-1.05,8.95-1.15
	c1.267-0.333,3.45-1.017,6.55-2.05c2.467-0.467,3.7,0.283,3.7,2.25C275,196.3,274.3,197.25,272.9,198.35z"/>
<path fill-rule="evenodd" clip-rule="evenodd" fill="#663300" d="M305,186.25c-0.667,0.6-1,1.317-1,2.15c0,0.6-1.5,2.233-4.5,4.9
	c-3.2,2.833-5.5,4.25-6.9,4.25c-0.399,0-0.933-0.167-1.6-0.5c-0.667-0.333-1.1-0.5-1.3-0.5c-0.3,0-0.95,0.25-1.95,0.75
	c-0.866,0.467-1.366,0.767-1.5,0.9v5.75l1.75-0.15c1.066,0,1.816,0.167,2.25,0.5c0.233,0.167,0.483,0.417,0.75,0.75
	c0.233-0.5,1.033-1.316,2.4-2.45c1.433-1.199,2.466-1.8,3.1-1.8c1.1,0,1.934,0.517,2.5,1.55c0.333,0.601,0.5,1.15,0.5,1.65
	c0,1.2-1.017,2.667-3.05,4.4c-2.434,2.1-5.134,3.149-8.101,3.149c-1.699,0-2.767-0.366-3.199-1.1c-0.101-0.2-0.15-0.667-0.15-1.4
	c-0.767,0-1.5-0.1-2.2-0.3c-0.566-0.233-0.866-0.35-0.899-0.35c-0.5,0.699-1.084,1.399-1.75,2.1c-1.267,1.366-2.95,2.05-5.051,2.05
	c-2.533,0-4.417-0.416-5.649-1.25c-0.967-0.633-1.45-1.416-1.45-2.35c0-0.601,0.15-1.134,0.45-1.601c0.4-0.699,1.083-1.05,2.05-1.05
	c0.1,0,0.7,0.2,1.8,0.601c1.133,0.366,1.917,0.55,2.35,0.55c1.433,0,2.583-0.95,3.45-2.851c0.601-1.899,0.9-2.866,0.9-2.899
	c0-1.934-0.667-3.633-2-5.1s-2-2.483-2-3.05c0-1.333,5.417-3.466,16.25-6.4c1.033-0.267,3.866-1.8,8.5-4.6
	c4.167-1.966,6.25-1.4,6.25,1.7C306,185.017,305.667,185.683,305,186.25z"/>
<path fill-rule="evenodd" clip-rule="evenodd" fill="#663300" d="M298.75,179.05c0,1.067-2.417,2.6-7.25,4.6
	c-4.6,1.934-7.767,2.9-9.5,2.9c-0.967,0-2.066-0.85-3.3-2.55c-0.767-1.033-1.367-2.017-1.8-2.95c-0.634-1.466-1.834-2.4-3.601-2.8
	c-1.533-0.367-2.3-1.017-2.3-1.95c0-1.966,1.6-2.65,4.8-2.05c1.767,0.367,4.55,0.933,8.351,1.7c0.466,0,1.083-0.15,1.85-0.45
	s1.55-0.45,2.35-0.45c3.367,0,6,0.417,7.9,1.25C297.917,177.033,298.75,177.95,298.75,179.05z"/>
<path fill-rule="evenodd" clip-rule="evenodd" fill="#663300" d="M215.8,201c0.133,0.167,0.2,0.384,0.2,0.65s-0.1,0.533-0.3,0.8
	c-0.4,0.434-1.067,0.583-2,0.45c0.333,0.066,0.783,0.267,1.35,0.6c0.5,0.333,0.8,0.5,0.9,0.5c0.167,0,0.433-0.066,0.8-0.2
	c0.733,0,1.783,0.884,3.15,2.65c0,0.899-0.45,1.35-1.35,1.35c-0.033,0-0.767-0.35-2.2-1.05c-1.533-0.767-2.65-1.233-3.35-1.4
	c-0.633-0.166-1.367-0.716-2.2-1.649c-0.767-0.867-1.15-1.483-1.15-1.851c0-0.533,0.133-0.866,0.4-1
	c0.534-0.3,1.817-0.449,3.85-0.449C214.833,200.4,215.467,200.6,215.8,201z"/>
<path fill-rule="evenodd" clip-rule="evenodd" fill="#663300" d="M221.95,219.65c0.8,0,1.233,0.416,1.3,1.25
	c0,1.1-0.933,1.649-2.8,1.649c-0.8,0-1.417-0.383-1.85-1.149c-0.3-0.5-0.45-0.95-0.45-1.351c0-1.233,0.417-1.633,1.25-1.2
	c0.434,0.233,0.95,0.584,1.55,1.051C221.117,219.9,221.45,219.816,221.95,219.65z"/>
<path fill-rule="evenodd" clip-rule="evenodd" fill="#663300" d="M240,208.85c0,0.233-0.083,0.483-0.25,0.75
	c-0.233,0.367-0.567,0.551-1,0.551c-0.167,0-0.417-0.067-0.75-0.2c-0.3-0.134-0.65-0.2-1.05-0.2c-0.4,0-0.95,0.3-1.65,0.9
	c-0.667,0.6-1.466,0.899-2.4,0.899c-0.7,0-2.316-0.283-4.85-0.85c-2.533-0.566-4.216-0.851-5.05-0.851c-1.7,0-2.517,0.584-2.45,1.75
	c0.067,1.134-0.316,1.7-1.15,1.7c-0.7,0-1.117-0.35-1.25-1.05c0-0.733,0-1.116,0-1.15c0-1,0.184-1.75,0.55-2.25
	c0.733-1.033,2.15-1.55,4.25-1.55c1.833,0,4.233,0.4,7.2,1.2c-0.1-0.366,0.033-0.7,0.4-1c0.467-0.434,1.25-0.583,2.35-0.45h3.25
	c1.434-0.233,2.5-0.05,3.2,0.55C239.783,207.967,240,208.384,240,208.85z"/>
<path fill-rule="evenodd" clip-rule="evenodd" fill="#663300" d="M240.95,209.75c0.1,0.2,0.283,0.866,0.55,2s0.4,1.833,0.4,2.1
	c-0.3,3.367-1.217,5.051-2.75,5.051c-0.5,0-0.85-0.2-1.05-0.601c-0.133-0.233-0.2-0.467-0.2-0.7c0-0.1,0.25-0.699,0.75-1.8
	c0.5-1.1,0.75-1.75,0.75-1.95c0-1.267-0.35-2.366-1.05-3.3c-0.733-0.899-1.1-1.517-1.1-1.85c0-1,0.467-1.367,1.4-1.101
	C239.55,207.866,240.317,208.583,240.95,209.75z"/>
<path fill-rule="evenodd" clip-rule="evenodd" fill="#663300" d="M232.75,214.5c0.933,0.1,1.55,0.417,1.85,0.95
	c0.3,0.533,0.917,0.8,1.85,0.8c0.833,0,1.533-0.184,2.1-0.55c0.6-0.367,1-0.55,1.2-0.55c0.467,0,0.817,0.199,1.05,0.6
	c0.133,0.233,0.2,0.467,0.2,0.7c0,0.533-0.233,0.934-0.7,1.2c-0.333,0.199-1.133,0.583-2.4,1.149H235
	c-0.433-0.133-1-0.517-1.7-1.149c-0.5-0.434-1.55-0.684-3.15-0.75c-0.867-0.034-3.183-0.334-6.95-0.9
	c-1.267-0.233-2.467-0.8-3.6-1.7c-1.133-0.899-1.7-1.717-1.7-2.45c0-0.267,0.1-0.517,0.3-0.75c0.233-0.3,0.6-0.449,1.1-0.449
	c0.467,0,0.967,0.283,1.5,0.85c0.267,0.267,0.617,0.634,1.05,1.1c0.467,0.334,1.033,0.567,1.7,0.7c0.633,0.167,1.833,0.334,3.6,0.5
	c0.5,0.033,1.117,0.117,1.85,0.25C229.767,214.217,231.017,214.366,232.75,214.5z"/>
<path fill-rule="evenodd" clip-rule="evenodd" fill="#663300" d="M237,220.15h-3.25c-1.5,0-2.25-0.45-2.25-1.351
	c0-0.3,0.1-0.583,0.3-0.85c0.4-0.467,1.083-0.584,2.05-0.351h2.95c0.967-0.199,1.517-0.399,1.65-0.6c0.233-0.1,1.583-0.15,4.05-0.15
	l8.95-0.6c0.5-0.167,1.7-0.35,3.6-0.55c1.733-0.2,2.767-0.3,3.1-0.3c0.833,0,1.283,0.416,1.35,1.25c0,0.733-0.683,1.216-2.05,1.449
	c-2.167,0.2-4.017,0.434-5.55,0.7l-4.05,0.05c-0.9,0.167-1.667,0.284-2.3,0.351c-1.133,0.1-2.85,0.149-5.15,0.149
	c-0.9,0-1.617,0.117-2.15,0.351C237.517,219.967,237.1,220.116,237,220.15z"/>
<path fill-rule="evenodd" clip-rule="evenodd" fill="#663300" d="M234.6,217.2c-0.3,0.566-0.7,0.85-1.2,0.85s-0.85-0.2-1.05-0.6
	c-0.133-0.233-0.2-0.483-0.2-0.75c0-1.3,0.467-2.033,1.4-2.2c0.9-0.134,1.35,0.384,1.35,1.55
	C234.9,216.384,234.8,216.767,234.6,217.2z"/>
<path fill-rule="evenodd" clip-rule="evenodd" fill="#663300" d="M215.75,195.85c-0.033-0.2,0.083-0.367,0.35-0.5
	c0.6-0.333,1.633-1,3.1-2c1.333-0.934,2.3-1.65,2.9-2.15c2.867-2.133,4.816-3.617,5.85-4.45c1.167-1.233,2.133-2.167,2.9-2.8
	c1.4-1.167,2.1-1.133,2.1,0.1c0,0.767-2.133,2.833-6.4,6.2c-0.8,0.633-2.267,1.717-4.4,3.25c-1.733,1.3-2.633,2.217-2.7,2.75
	c0.466-0.1,0.816-0.033,1.05,0.2c0.167,0.133,0.25,0.316,0.25,0.55c0,0.2-0.083,0.417-0.25,0.65c0.667,0.267,1,0.55,1,0.85
	c0,0.4-0.25,0.683-0.75,0.85c-0.5,0.167-1.5,0.333-3,0.5h-4.05c-0.067,0.033-0.383,0.05-0.95,0.05c-0.933,0-1.4-0.267-1.4-0.8
	c0-0.4,0.333-0.75,1-1.05c1.2-0.6,1.833-0.917,1.9-0.95c0.1-0.067,0.35-0.133,0.75-0.2c0.367-0.066,0.6-0.2,0.7-0.4
	C215.733,196.433,215.75,196.217,215.75,195.85z"/>
<path fill-rule="evenodd" clip-rule="evenodd" fill="#663300" d="M251.7,202.4c0.7,1.366,1.05,3.033,1.05,5
	c0,1.233-0.267,2.283-0.8,3.149c-0.967,1.566-2.733,2.351-5.3,2.351c-1.4,0-2.483-0.584-3.25-1.75c-0.1-0.101-0.45-0.9-1.05-2.4
	c-0.633-1.3-1.017-2.116-1.15-2.45c-0.2-0.467-0.3-1.05-0.3-1.75V203.4c0.133-0.634,0.5-0.95,1.1-0.95c0.7,0,1.417,1.366,2.15,4.1
	s1.567,4.101,2.5,4.101c2.6,0,3.9-1.117,3.9-3.351c0-0.233-0.117-0.866-0.35-1.899c-0.233-1.034-0.383-1.617-0.45-1.75
	c-0.567-0.9-1.283-1.667-2.15-2.301c-0.633-0.466-0.95-0.899-0.95-1.3c0-0.566,0.267-0.917,0.8-1.05
	c0.667-0.2,1.517,0.083,2.55,0.85C250.7,200.717,251.267,201.566,251.7,202.4z"/>
<path fill-rule="evenodd" clip-rule="evenodd" fill="#663300" d="M245.5,199.25c2.233-0.233,3.35,0.15,3.35,1.15
	c0,0.699-0.5,1.033-1.5,1c-1.267-0.067-2.25,0.416-2.95,1.449c-0.267,0.367-0.533,1.034-0.8,2c-0.167,0.601-0.533,0.9-1.1,0.9
	s-0.917-0.25-1.05-0.75c-0.034-0.533-0.05-0.816-0.05-0.85c0-0.767,0.383-1.75,1.15-2.95C243.483,199.8,244.467,199.15,245.5,199.25
	z"/>
<path fill-rule="evenodd" clip-rule="evenodd" fill="#663300" d="M249.1,199.35c-0.367,0.267-1.067,0.617-2.1,1.05
	c-2.767,0.899-4.267,1.35-4.5,1.35c-0.567,0-0.917-0.233-1.05-0.7v-0.75c0-0.133-0.15-0.316-0.45-0.55s-0.45-0.433-0.45-0.6
	c0-0.767,1.517-1.383,4.55-1.85c3-0.466,4.5-0.15,4.5,0.95C249.6,198.683,249.433,199.05,249.1,199.35z"/>
<path fill-rule="evenodd" clip-rule="evenodd" fill="#663300" d="M244.95,213.65c-0.633,0-1.05-0.184-1.25-0.551l-0.15-0.55
	c0-0.399,0.15-0.7,0.45-0.899c0.467-0.267,1.383-0.417,2.75-0.45l2.55-0.05c1.4-1.267,2.35-2.034,2.85-2.301
	c0.967-0.5,1.45-0.166,1.45,1c0,0.733-0.283,1.467-0.85,2.2c-0.767,0.934-1.8,1.384-3.1,1.351h-2.8L244.95,213.65z"/>
<path fill-rule="evenodd" clip-rule="evenodd" fill="#663300" d="M265.9,205.75c0.2,0.1,0.4,0.417,0.6,0.95
	c0.133,0.434,0.35,0.767,0.65,1c0.233,0.166,0.35,0.434,0.35,0.8c0,1.267-1.417,2.267-4.25,3l-4.3,0.75
	c-1.333,0-2.167-0.45-2.5-1.35c-0.1-0.934-0.15-1.417-0.15-1.45c-0.066-0.467-0.233-1.066-0.5-1.8c-0.267-0.7-0.4-1.084-0.4-1.15
	c0-0.8,0.367-1.2,1.1-1.2c0.167,0,0.333,0.066,0.5,0.2c0.167,0.1,0.65,0.15,1.45,0.15c0.933,0,1.767-0.084,2.5-0.25
	c0.566-0.167,0.966-0.217,1.2-0.15c1.9-0.1,2.983-0.116,3.25-0.05C265.6,205.233,265.767,205.417,265.9,205.75z M262.5,207.4
	c-0.833,0.267-1.333,0.416-1.5,0.449c-0.367,0.067-1.133,0.134-2.3,0.2c0.4,0.834,0.583,1.367,0.55,1.601v0.05
	c0.9-0.167,2.05-0.367,3.45-0.601c0.933-0.199,1.4-0.517,1.4-0.949c-0.3-0.301-0.5-0.551-0.6-0.75H262.5z"/>
<path fill-rule="evenodd" clip-rule="evenodd" fill="#663300" d="M297.5,185.8c0,0.7-2.884,1.883-8.65,3.55
	c-6.633,1.733-10.8,2.833-12.5,3.3c-15.766,4.167-23.95,6.25-24.55,6.25c-0.533,0-0.883-0.183-1.05-0.55l-0.1-0.55
	c0-0.9,1.65-1.716,4.95-2.45c1.8-0.367,4.183-0.833,7.15-1.4c5.033-1.5,8.967-2.567,11.8-3.2c1.434-0.333,3.533-0.85,6.3-1.55
	c2.367-0.6,4.417-1.2,6.15-1.8c0.2-0.066,2.033-0.75,5.5-2.05C295.833,184.35,297.5,184.5,297.5,185.8z"/>
<path fill-rule="evenodd" clip-rule="evenodd" fill="#663300" d="M276,193.05c0.1,0.167,0.184,0.467,0.25,0.9
	c0.033,0.466,0.217,0.8,0.55,1c0.167,0.133,0.483,0.316,0.95,0.55c0.6,0.467,1,1.067,1.2,1.8c0.1,0.367,0.149,0.917,0.149,1.65
	c0,1.1-0.05,1.833-0.149,2.2c-0.066,0.366-0.334,1.316-0.8,2.85c-0.601,2.167-1.334,3.533-2.2,4.1
	c-0.566,0.367-1.65,0.551-3.25,0.551c-1.934,0-3.117-0.851-3.55-2.551c-0.066-1.699-0.1-2.566-0.1-2.6
	c-0.033-1.267,0.034-2.467,0.2-3.6c0.3-2.233,0.883-3.35,1.75-3.35c0.733,0,1.183,0.75,1.35,2.25c0,0.3-0.083,0.667-0.25,1.1
	c-0.2,0.433-0.3,0.683-0.3,0.75c0,3.333,0.5,5.116,1.5,5.35h0.4c1.033,0,1.883-1.15,2.55-3.45c0.434-2.333,0.65-3.533,0.65-3.6
	c0-0.633-0.017-1.034-0.051-1.2c-0.199-0.7-0.699-1.05-1.5-1.05c-0.366,0.133-0.633,0.2-0.8,0.2c-0.566,0-0.95-0.25-1.15-0.75
	l-0.1-0.75c-0.1-0.267-0.3-0.533-0.6-0.8c-0.267-0.233-0.4-0.45-0.4-0.65c0-0.367,0.15-0.684,0.45-0.95
	c0.367-0.367,0.933-0.55,1.7-0.55C275.217,192.45,275.733,192.65,276,193.05z"/>
<path fill-rule="evenodd" clip-rule="evenodd" fill="#663300" d="M280.05,197.85c0.867-0.333,1.3,0.017,1.3,1.05
	c-1.833,5.167-3.233,7.75-4.199,7.75c-0.467,0-0.784-0.184-0.95-0.551l-0.15-0.55c0-0.1,0.316-0.783,0.95-2.05
	c0.7-1.3,1.1-2.184,1.2-2.65C278.533,199.183,279.15,198.183,280.05,197.85z"/>
<path fill-rule="evenodd" clip-rule="evenodd" fill="#663300" d="M293.25,198.65c-0.2,0.333-0.5,0.5-0.9,0.5
	c-0.333,0-0.733-0.2-1.199-0.6c-0.601-0.5-0.95-0.767-1.051-0.8c-0.966-0.1-1.716,0.283-2.25,1.15c-0.333,0.6-0.5,1.133-0.5,1.6
	c0,0.033,0.25,0.65,0.75,1.85c0.5,1.2,0.75,1.9,0.75,2.101c0,0.866-0.416,1.3-1.25,1.3c-1.133,0-1.883-0.717-2.25-2.15
	c-0.133-1.466-0.199-2.25-0.199-2.35c0-3.567,1.383-5.45,4.149-5.65c1.033-0.1,1.983,0.1,2.851,0.6c0.866,0.5,1.3,1.083,1.3,1.75
	C293.45,198.183,293.384,198.417,293.25,198.65z"/>
<path fill-rule="evenodd" clip-rule="evenodd" fill="#663300" d="M297.8,201.35c-0.733,0.601-2,1.5-3.8,2.7
	c-2.167,1.467-3.467,2.2-3.9,2.2c-0.5,0-0.833-0.184-1-0.55L289,205.1c0-0.466,1.116-1.433,3.35-2.899
	c1.167-0.767,2.45-1.584,3.851-2.45c1.633-1.267,2.717-2.183,3.25-2.75c0.733-0.867,1.399-1.233,2-1.1
	c0.5,0.133,0.75,0.483,0.75,1.05c0,0.4-0.783,2.633-2.351,6.7c-0.267,0.6-0.649,1.699-1.149,3.3c-0.167,0.833-0.384,1.399-0.65,1.7
	c-0.333,0.333-0.833,0.649-1.5,0.949c-0.533,0.2-0.883,0.301-1.05,0.301c-0.467,0-0.783-0.184-0.95-0.551
	c-0.1-0.199-0.149-0.416-0.149-0.649c0-0.5,0.283-0.917,0.85-1.25c0.7-0.434,1.184-0.967,1.45-1.601
	c0.434-1.033,0.666-1.633,0.7-1.8c0-0.033,0-0.416,0-1.149l0.449-1.5L297.8,201.35z"/>
<path fill-rule="evenodd" clip-rule="evenodd" fill="#663300" d="M291.55,210.5c-2.833,1.167-4.684,1.75-5.55,1.75
	c-0.566,0-0.967-0.184-1.2-0.55l-0.149-0.55c0-0.634,0.616-1.117,1.85-1.45c2.167-0.601,3.517-1.033,4.05-1.3
	c3.533-1.767,5.3-1.851,5.3-0.25C295.85,208.55,294.417,209.333,291.55,210.5z"/>
<path fill-rule="evenodd" clip-rule="evenodd" fill="#663300" d="M302.05,188.75c0.533-0.9,1.066-1.217,1.601-0.95
	c0.466,0.2,0.699,0.567,0.699,1.1c0,0.833-0.466,1.75-1.399,2.75c-0.9,0.934-2.134,1.833-3.7,2.7c-0.967,0.533-2.233,1.633-3.8,3.3
	c-1.367,1.5-2.184,2.25-2.45,2.25c-0.566,0-0.917-0.25-1.05-0.75c-0.033-0.533-0.05-0.816-0.05-0.85c0-0.833,0.267-1.417,0.8-1.75
	c1.333-0.9,2.3-1.633,2.899-2.2c0.2-0.2,0.784-0.817,1.75-1.85c1.067-0.967,2.034-1.45,2.9-1.45c0.566,0,1.017-0.35,1.35-1.05
	C301.767,189.633,301.917,189.217,302.05,188.75z"/>
<path fill-rule="evenodd" clip-rule="evenodd" fill="#663300" d="M304.7,188.05c-0.3,1.233-0.75,1.85-1.351,1.85
	c-0.5,0-0.833-0.183-1-0.55c-0.066-0.167-0.1-0.383-0.1-0.65c0.333-1.9,0.5-2.967,0.5-3.2c0.1-1.333,0.5-1.767,1.2-1.3
	c0.666,0.466,1,1.017,1,1.65C304.95,186.583,304.866,187.317,304.7,188.05z"/>
<path fill-rule="evenodd" clip-rule="evenodd" fill="#663300" d="M306.1,182.65c-0.199,1-0.633,1.5-1.3,1.5
	c-0.399,0-0.684-0.066-0.85-0.2c-0.233-0.133-0.584-0.217-1.05-0.25c-0.601-0.034-0.9-0.4-0.9-1.1c0-0.6,0.7-1.45,2.1-2.55
	c1.4-1.066,2.101-0.816,2.101,0.75C306.2,181.667,306.167,182.283,306.1,182.65z"/>
<path fill-rule="evenodd" clip-rule="evenodd" fill="#663300" d="M300.9,195.3c0.233-0.433,0.35-0.733,0.35-0.9
	c0-0.066-0.2-0.267-0.6-0.6c-0.4-0.333-0.601-0.6-0.601-0.8l0.55-0.9c0.434-0.567,0.884-0.817,1.351-0.75
	c1.233-1.733,1.85-1.65,1.85,0.25c-0.733,3.867-1.533,5.8-2.399,5.8c-0.434,0-0.7-0.15-0.801-0.45c-0.033-0.1-0.05-0.3-0.05-0.6
	C300.55,196.083,300.667,195.733,300.9,195.3z"/>
<path fill-rule="evenodd" clip-rule="evenodd" fill="#663300" d="M250.9,178c1.067,0,1.8,0.083,2.2,0.25
	c0.733,0.3,1.2,0.467,1.4,0.5c1.567,0.3,2.35,0.667,2.35,1.1c0,0.333-0.217,0.717-0.65,1.15c-0.467,0.4-0.7,0.617-0.7,0.65
	c0,1.167,0.4,2.267,1.2,3.3c0.767,1.033,1.15,1.617,1.15,1.75c0,0.6-0.25,0.9-0.75,0.9c-0.4,0-0.967-0.35-1.7-1.05
	c-0.467-0.433-0.833-0.833-1.1-1.2c-0.4-0.533-0.867-0.983-1.4-1.35c-0.6-0.4-0.95-0.65-1.05-0.75c-0.6-0.7-2.017-1.4-4.25-2.1
	c-2.1-0.667-3.717-1-4.85-1l-1.15,0.2c-0.434,0-0.75-0.083-0.95-0.25l-0.3-0.25c-0.2,0-0.533,0.25-1,0.75
	c-0.5,0.5-1.067,0.75-1.7,0.75c-0.367,0.5-0.767,0.983-1.2,1.45c-0.833,0.967-1.75,1.45-2.75,1.45c-0.067,0-0.2,0.067-0.4,0.2
	c-0.2,0.133-0.367,0.2-0.5,0.2c-0.566,0-0.85-0.267-0.85-0.8c0-0.5,0.833-1.417,2.5-2.75c1.966-1.567,3.216-2.733,3.75-3.5
	c0.9-1.333,1.533-2.1,1.9-2.3c0.3-0.167,0.566,0,0.8,0.5c0.867,1.7,2.083,2.55,3.65,2.55c0.5,0,0.867-0.1,1.1-0.3
	c0.233-0.2,0.617-0.3,1.15-0.3c0.3,0,0.883,0.05,1.75,0.15C249.45,177.967,250.233,178,250.9,178z"/>
<path fill-rule="evenodd" clip-rule="evenodd" fill="#663300" d="M266.1,183.7c0.3,0.133,0.816,0.35,1.55,0.65
	c0.633,0.333,0.95,0.683,0.95,1.05c0,0.5-0.333,0.75-1,0.75c-0.367,0-0.667-0.033-0.9-0.1c-0.567-0.167-0.934-0.267-1.1-0.3h-0.05
	c0.067,0.567-0.267,1.15-1,1.75c-0.733,0.6-1.4,0.9-2,0.9c-0.6,0-0.966-0.167-1.1-0.5c0-0.3,0-0.467,0-0.5
	c-0.1,0.033-0.583,0.25-1.45,0.65c-0.8,0.367-1.333,0.55-1.6,0.55c-0.566,0-1-0.2-1.3-0.6c-0.2-0.4-0.3-0.617-0.3-0.65
	c0-0.133,0.1-0.333,0.3-0.6c-0.434-0.5-0.65-0.85-0.65-1.05c0-0.567,0.267-0.85,0.8-0.85c0.167,0,0.4,0.133,0.7,0.4
	c0.3,0.233,0.517,0.35,0.65,0.35c0.233,0,0.983-0.667,2.25-2c1.233-1.367,2.117-2.033,2.65-2c0.5,0.033,0.917,0.316,1.25,0.85
	C265.15,183.083,265.6,183.5,266.1,183.7z"/>
<path fill-rule="evenodd" clip-rule="evenodd" fill="#663300" d="M267.55,185c0.167-0.167,0.35-0.25,0.55-0.25
	c0.133,0,0.533,0.233,1.2,0.7c0.667,0.433,1.284,0.65,1.85,0.65c2.333,0,4.1-0.567,5.3-1.7c1.133-1.1,1.733-1.65,1.8-1.65
	c0.366,0.1,1.35,0.667,2.95,1.7c0.533,0.367,1.083,0.667,1.649,0.9c0.301,0.167,0.45,0.417,0.45,0.75c0,0.667-0.517,1.133-1.55,1.4
	c-1.634,0.333-3.033,0.667-4.2,1c-0.5,0.133-1.45,0.467-2.85,1c-1.3,0.467-2.267,0.767-2.9,0.9c-0.667,0.133-2.867,0.717-6.6,1.75
	c-3.534,0.967-5.383,1.45-5.55,1.45c-0.433,0-0.717-0.133-0.85-0.4c-0.066-0.267-0.1-0.417-0.1-0.45c0-0.6,0.566-1.133,1.7-1.6
	c2.033-0.767,3.133-1.2,3.3-1.3c0.133-0.1,0.583-0.317,1.35-0.65c0.7-0.3,1.133-0.534,1.3-0.7c0.066-0.067,0.45-0.283,1.15-0.65
	s1.167-0.583,1.4-0.65c-1.066-0.534-1.6-1.083-1.6-1.65C267.3,185.35,267.383,185.167,267.55,185z M280.55,186.1l0.05,0.15
	l0.301-0.05c-0.034-0.034-0.101-0.067-0.2-0.1C280.6,186.067,280.55,186.067,280.55,186.1z"/>
<path fill-rule="evenodd" clip-rule="evenodd" fill="#663300" d="M281.6,186.4c-0.399,0.5-0.816,0.75-1.25,0.75
	c-0.533,0-0.8-0.283-0.8-0.85c0-0.333,0.434-0.833,1.3-1.5c0.834-0.633,1.25-0.433,1.25,0.6
	C282.1,185.633,281.934,185.967,281.6,186.4z"/>
<path fill-rule="evenodd" clip-rule="evenodd" fill="#663300" d="M289.85,176.1c-0.433,0.167-1.267,0.25-2.5,0.25
	c-3.233,0-6.517-0.417-9.85-1.25c-2.7-0.867-4.1-1.3-4.2-1.3c-0.367,0-1.15,0.684-2.35,2.05c-1.167,1.367-1.95,2.05-2.35,2.05
	c-0.6,0-0.9-0.267-0.9-0.8c0-0.1,0.35-0.567,1.05-1.4c0.667-0.833,1.15-1.367,1.45-1.6c0.4-0.367,0.966-0.967,1.7-1.8
	c0.7-0.5,1.517-0.45,2.45,0.15c0.467,0.2,1.433,0.483,2.9,0.85c1.4,0.367,2.35,0.583,2.85,0.65c2.434,0.367,5.15,0.566,8.15,0.6
	c1.366,0,2.05,0.284,2.05,0.85C290.3,175.733,290.15,175.967,289.85,176.1z"/>
<path fill-rule="evenodd" clip-rule="evenodd" fill="#663300" d="M275.3,174.05c0,0.3-0.583,0.667-1.75,1.1
	c-1.167,0.467-1.75,0.934-1.75,1.4c0,0.067,1.133,0.8,3.4,2.2c2.267,1.4,3.399,2.733,3.399,4c0,1.4-0.399,2.1-1.199,2.1
	c-0.367,0-0.884-0.583-1.551-1.75c-0.699-1.267-1.3-2-1.8-2.2c-3.5-1.433-5.25-2.583-5.25-3.45c0-0.333,0.3-0.817,0.9-1.45l1.45-1.5
	c0.233-0.333,0.95-0.683,2.15-1.05C274.633,173.05,275.3,173.25,275.3,174.05z"/>
<path fill-rule="evenodd" clip-rule="evenodd" fill="#663300" d="M302.85,177.7c0.5,0.066,0.75,0.3,0.75,0.7
	c0,0.5-0.85,1.067-2.55,1.7c-1.934,0.633-3.1,1.05-3.5,1.25c-1.467,0.8-2.6,1.417-3.399,1.85c-1.467,0.8-2.551,1.2-3.25,1.2
	c-0.634,0-0.95-0.267-0.95-0.8c0-0.233,1.1-0.983,3.3-2.25c3-1.7,4.7-2.684,5.1-2.95c-1.267-0.3-2.083-0.55-2.449-0.75
	c-0.4-0.167-0.601-0.417-0.601-0.75c0-0.633,0.367-0.883,1.101-0.75c0.433,0.067,1.283,0.317,2.55,0.75
	C300.184,177.267,301.483,177.533,302.85,177.7z"/>
<path fill-rule="evenodd" clip-rule="evenodd" fill="#663300" d="M256.25,170.3c1.533,0.6,2.433,0.9,2.7,0.9
	c1.167,0,1.983-0.067,2.45-0.2c0.467-0.167,0.733-0.25,0.8-0.25c0.6,0,0.9,0.267,0.9,0.8c0,0.2-0.5,0.85-1.5,1.95
	c-1.033,1.1-1.684,1.65-1.95,1.65c-0.233,0-0.967-0.35-2.2-1.05c-1.2-0.7-2.083-1.267-2.65-1.7c-0.5-0.4-0.85-0.683-1.05-0.85
	c-0.367-0.233-0.767-0.367-1.2-0.4c-1.333-0.167-2.15-0.316-2.45-0.45c-0.367-0.133-0.55-0.367-0.55-0.7c0-0.5,0.267-0.75,0.8-0.75
	c0.4,0,1.4,0.033,3,0.1C253.75,169.35,254.717,169.667,256.25,170.3z"/>
<path fill-rule="evenodd" clip-rule="evenodd" fill="#663300" d="M262.8,207.85c-1.433,0.367-2.683,0.551-3.75,0.551
	c-0.867,0-1.417-0.117-1.65-0.351c-0.066-0.066-0.1-0.217-0.1-0.45c0-0.399,0.317-0.633,0.95-0.699
	c1.367-0.134,2.483-0.317,3.35-0.551c1.4-0.399,2.367-0.533,2.9-0.399c0.367,0.066,0.55,0.333,0.55,0.8
	C265.05,207.083,264.3,207.45,262.8,207.85z"/>
<path fill-rule="evenodd" clip-rule="evenodd" fill="#824100" d="M255,175.5c2.2,0.9,3.3,1.533,3.3,1.9c0,0.3-0.1,0.633-0.3,1
	c-0.233,0.467-0.533,0.7-0.9,0.7c-4.1-1.133-6.35-1.7-6.75-1.7c-1.967-0.033-3.217-0.217-3.75-0.55c-0.1-0.067-0.2-0.333-0.3-0.8
	c-0.133-0.433-0.433-0.783-0.9-1.05c-0.4-0.233-0.6-0.45-0.6-0.65c0-0.5,0.267-0.767,0.8-0.8c0.566-0.033,1,0.233,1.3,0.8h3.6
	C251.267,174.183,252.767,174.567,255,175.5z"/>
<path fill-rule="evenodd" clip-rule="evenodd" fill="#824100" d="M258.1,176.6c-0.033,0-1.6-0.684-4.7-2.05
	c-3.133-1.367-5.683-2.05-7.65-2.05c-1.633,0-2.45,0.317-2.45,0.95c0,0.367,0.383,0.833,1.15,1.4c0.733,0.533,1.1,1.066,1.1,1.6
	c0,0.6-0.433,0.9-1.3,0.9c-1.033,0-1.767-0.667-2.2-2l-0.35-1.9c0-2.833,2.867-3.434,8.6-1.8c2.034,0.567,3.983,1.317,5.85,2.25
	c1.8,0.867,2.7,1.467,2.7,1.8C258.85,176.3,258.6,176.6,258.1,176.6z"/>
<path fill-rule="evenodd" clip-rule="evenodd" fill="#824100" d="M248.75,173.4c-0.4,0-0.75-0.05-1.05-0.15
	c-0.333-0.1-0.633-0.15-0.9-0.15l-1.35,0.15c-0.434,0-0.85,0.067-1.25,0.2c-0.4,0.1-0.65,0.15-0.75,0.15c-0.4,0-0.667-0.133-0.8-0.4
	c-0.066-0.267-0.1-0.417-0.1-0.45c0-1.267,1.25-1.733,3.75-1.4c2.5,0.3,3.75,0.733,3.75,1.3
	C250.05,173.15,249.617,173.4,248.75,173.4z"/>
<path fill-rule="evenodd" clip-rule="evenodd" fill="#824100" d="M261.05,181.85c-1.566,1.667-2.633,2.5-3.2,2.5
	c-0.4,0-0.75-0.25-1.05-0.75c-0.233-0.4-0.35-0.684-0.35-0.85c0-0.333,0.383-0.967,1.15-1.9c0.867-1.067,1.6-1.6,2.2-1.6
	c0.233,0,0.5,0.2,0.8,0.6c0.3-0.6,0.8-1.117,1.5-1.55c0.8-0.5,1.2-0.333,1.2,0.5C263.3,179.2,262.55,180.217,261.05,181.85z"/>
<path fill-rule="evenodd" clip-rule="evenodd" fill="#824100" d="M267.4,172.65c1.133-1,1.7-0.967,1.7,0.1
	c0,0.167-1.25,1.633-3.75,4.4c-1.767,2.633-3.017,3.95-3.75,3.95c-0.133,0-0.4-0.1-0.8-0.3c-0.367-0.2-0.583-0.3-0.65-0.3
	c-0.8,0.933-1.433,1.4-1.9,1.4c-0.533,0-0.8-0.283-0.8-0.85c1.367-1.633,2.2-2.767,2.5-3.4c0.066-0.233,0.417-0.767,1.05-1.6
	c0.767-0.966,1.367-1.45,1.8-1.45c0.4,0,0.65,0.167,0.75,0.5c0.167-0.333,0.45-0.5,0.85-0.5c0.167,0,0.434,0.1,0.8,0.3
	C265.433,174.733,266.167,173.983,267.4,172.65z"/>
<path fill-rule="evenodd" clip-rule="evenodd" fill="#824100" d="M265.1,173.3c-0.3,0.6-0.567,1.117-0.8,1.55
	c-0.5,0.867-0.933,1.3-1.3,1.3s-0.667-0.133-0.9-0.4c-0.2-0.233-0.3-0.45-0.3-0.65c0-0.1,0.833-1.267,2.5-3.5
	c0.367-0.6,0.9-1.184,1.6-1.75c0.934-0.767,1.4-0.65,1.4,0.35C267.3,170.433,266.567,171.467,265.1,173.3z"/>
<path fill-rule="evenodd" clip-rule="evenodd" fill="#824100" d="M270.15,167.3c-0.833,1.067-1.6,1.934-2.3,2.6
	c-3.233,3.5-4.9,5.25-5,5.25c-0.4,0-0.65-0.15-0.75-0.45c-0.033-0.3-0.05-0.467-0.05-0.5c0-0.434,0.817-1.517,2.45-3.25
	c1.433-1.567,2.283-2.434,2.55-2.6c0.467-0.467,1.267-1.467,2.4-3c1.6-2.467,2.4-2.817,2.4-1.05
	C271.85,164.9,271.283,165.9,270.15,167.3z"/>
<path fill-rule="evenodd" clip-rule="evenodd" fill="#824100" d="M276.65,166.6c0.5,0,0.8,0.267,0.899,0.8c0,0.333-0.7,0.9-2.1,1.7
	c-1.5,0.8-2.333,1.267-2.5,1.4c-1.067,0.833-2.25,1.967-3.55,3.4c-4.267,4.5-6.55,6.75-6.85,6.75c-0.566,0-0.85-0.283-0.85-0.85
	c0-0.233,0.716-1.05,2.15-2.45c0.733-0.733,1.517-1.483,2.35-2.25V175l-0.7,0.2c-0.233,0.066-0.4,0.167-0.5,0.3
	c-0.2,0.233-0.333,0.383-0.4,0.45c-0.133,0.133-0.283,0.2-0.45,0.2c-0.566,0-0.85-0.267-0.85-0.8c0-0.233,0.767-1.333,2.3-3.3
	c1.566-2.033,2.566-3.05,3-3.05c0.433,0,0.683,0.2,0.75,0.6c0.066,0.2,0.066,0.45,0,0.75l0.25,0.05c0.2,0,0.717-0.417,1.55-1.25
	c-0.733-0.733-1.1-1.367-1.1-1.9c0-1.833,0.383-2.717,1.15-2.65c0.7,0.033,1.45,0.816,2.25,2.35h2.149
	C276.033,166.817,276.384,166.7,276.65,166.6z"/>
<path fill-rule="evenodd" clip-rule="evenodd" fill="#824100" d="M271.3,167.65c0,0.1-0.033,0.184-0.1,0.25
	c-0.067,0.067-0.1,0.133-0.1,0.2c0,0.066,0.15,0.383,0.45,0.95c0,0.233-0.617,1.217-1.85,2.95c-1.267,1.767-2,2.65-2.2,2.65
	c-0.533,0-0.8-0.283-0.8-0.85c0-0.466,0.617-1.417,1.85-2.85c-0.5-0.233-0.75-0.534-0.75-0.9c0-0.667,0.583-1.517,1.75-2.55
	C270.717,166.433,271.3,166.483,271.3,167.65z"/>
<path fill-rule="evenodd" clip-rule="evenodd" fill="#824100" d="M273.05,161.75c0.333-0.667,0.934-1.1,1.8-1.3
	c0.9-0.233,1.35-0.083,1.35,0.45c0,0.3-0.316,0.434-0.95,0.4c-0.7-0.033-1.117,0.233-1.25,0.8c-0.133,0.433-0.2,0.967-0.2,1.6
	c0,0.2,0.15,0.6,0.45,1.2h1.1c0.2-0.1,0.584-0.25,1.15-0.45c0.366-0.1,0.55-0.233,0.55-0.4c-0.3-0.733-0.45-1.283-0.45-1.65
	c0-0.5,0.184-0.75,0.551-0.75c0.666,0,1.1,0.35,1.3,1.05c0.1,0.367,0.133,0.733,0.1,1.1c0,0.6-0.217,1.133-0.649,1.6
	c-0.601,0.633-1.517,0.95-2.75,0.95c-1.167,0-1.9-0.35-2.2-1.05c-0.067-0.167-0.1-0.65-0.1-1.45L273.05,161.75z"/>
<path fill-rule="evenodd" clip-rule="evenodd" fill="#824100" d="M277.1,164.35c-0.5,0-0.866-0.3-1.1-0.9l-0.2-0.8
	c0-0.9,0.417-1.267,1.25-1.1c0.834,0.2,1.25,0.684,1.25,1.45C278.3,163.1,277.9,163.55,277.1,164.35z"/>
<path fill-rule="evenodd" clip-rule="evenodd" fill="#824100" d="M274.95,165.6c-1.1,0-1.65-0.55-1.65-1.65
	c0.733-3.067,1.2-3.883,1.4-2.45c0,0.6,0.233,1.283,0.7,2.05c0.433,0.767,0.649,1.2,0.649,1.3
	C276.05,165.35,275.684,165.6,274.95,165.6z"/>
<path fill-rule="evenodd" clip-rule="evenodd" fill="#824100" d="M271.5,185.5c-0.567,0-1.867-0.8-3.9-2.4c-2-1.567-3-2.5-3-2.8
	c0-0.867,0.667-0.95,2-0.25c0.167,0.1,0.95,0.617,2.35,1.55l2.35,1.45c1.333,0.833,2,1.35,2,1.55
	C273.3,185.2,272.7,185.5,271.5,185.5z"/>
<path fill-rule="evenodd" clip-rule="evenodd" fill="#824100" d="M275.8,183.9c0,0.333-0.033,0.567-0.1,0.7
	c-0.167,0.267-0.533,0.4-1.1,0.4c-0.1,0-0.733-0.5-1.9-1.5c-1.267-1.067-1.917-1.617-1.95-1.65c-2.767-1.467-4.15-2.467-4.15-3
	c0-0.467,0.717-0.333,2.15,0.4c1.067,0.567,1.933,1.1,2.6,1.6c1.133,0.566,2.3,1.066,3.5,1.5
	C275.483,182.65,275.8,183.167,275.8,183.9z"/>
<path fill-rule="evenodd" clip-rule="evenodd" fill="#482400" d="M272.9,165.1c-0.367,0-0.55-0.15-0.55-0.45
	c1.967-3.533,2.95-4.483,2.95-2.85C275.3,161.967,274.5,163.067,272.9,165.1z"/>
<path fill-rule="evenodd" clip-rule="evenodd" fill="#482400" d="M275.5,165.85c-0.7,0.767-1.15,1.15-1.35,1.15
	c-0.267,0-0.433-0.083-0.5-0.25c-0.033-0.067-0.05-0.167-0.05-0.3c0-0.167,0.233-0.467,0.7-0.9c0.5-0.466,0.767-0.75,0.8-0.85
	c0.233-0.5,0.534-0.784,0.9-0.85c0.366-0.033,0.55,0.167,0.55,0.6C276.55,164.617,276.2,165.083,275.5,165.85z"/>
<path fill-rule="evenodd" clip-rule="evenodd" fill="#482400" d="M277,161.75c-0.366,0.167-0.866,0.25-1.5,0.25
	c-0.434,0-0.65-0.15-0.65-0.45c0-0.466,0.433-0.716,1.3-0.75c0.866-0.033,1.3,0.133,1.3,0.5
	C277.45,161.467,277.3,161.617,277,161.75z"/>
<path fill-rule="evenodd" clip-rule="evenodd" fill="#482400" d="M272,163.55c0.4,0.467,0.667,0.883,0.8,1.25
	c0.333,0.7,0.534,1.067,0.6,1.1c0.467,0.367,1.517,0.583,3.15,0.65l1.101-0.15c0.366,0,0.55,0.167,0.55,0.5
	c0,0.4-0.384,0.6-1.15,0.6c-2.033,0-3.583-0.5-4.65-1.5c-0.733-0.7-1.1-1.383-1.1-2.05C271.3,163.15,271.533,163.017,272,163.55z"/>
<path fill-rule="evenodd" clip-rule="evenodd" fill="#824100" d="M236.6,215.35c-0.7,0-1.2-0.416-1.5-1.25
	c-0.167-0.866-0.25-1.316-0.25-1.35c0-0.934,0.617-1.517,1.85-1.75c1.233-0.267,1.85,0.6,1.85,2.6
	C238.55,214.767,237.9,215.35,236.6,215.35z"/>
<path fill-rule="evenodd" clip-rule="evenodd" fill="#824100" d="M235.8,212.95c0,0.434-0.15,0.649-0.45,0.649
	c-0.267-0.1-0.6-0.199-1-0.3c-0.8-0.233-1.85-0.383-3.15-0.45c-2.067-0.3-3.517-0.466-4.35-0.5c-0.8-0.066-1.7-0.233-2.7-0.5
	c-1.2-0.3-1.8-0.566-1.8-0.8c0-0.3,0.233-0.45,0.7-0.45l4.95,1c4,0.233,6.233,0.384,6.7,0.45
	C235.433,212.184,235.8,212.483,235.8,212.95z"/>
<path fill-rule="evenodd" clip-rule="evenodd" fill="#824100" d="M235.95,213.65c0,0.3-0.284,0.449-0.85,0.449
	c-0.934-0.133-2.017-0.233-3.25-0.3l-3-0.05c-1.867-0.3-3.267-0.566-4.2-0.8c-1.7-0.4-2.55-0.917-2.55-1.55
	c0-0.667,0.433-0.617,1.3,0.149c0.233,0.134,0.6,0.2,1.1,0.2c0.833,0,1.767,0.1,2.8,0.3c0.367,0.066,2.367,0.3,6,0.7
	C235.067,212.95,235.95,213.25,235.95,213.65z"/>
<path fill-rule="evenodd" clip-rule="evenodd" fill="#824100" d="M291.45,202.25c-0.434,0.833-0.95,1.25-1.55,1.25
	c-0.301,0-0.65-0.583-1.051-1.75l-0.55-1.7c0-0.933,0.617-1.333,1.851-1.2c1.199,0.133,1.8,0.767,1.8,1.9
	C291.95,201.116,291.783,201.616,291.45,202.25z"/>
<path fill-rule="evenodd" clip-rule="evenodd" fill="#824100" d="M290.8,201.5c0-0.167,0-0.267,0-0.3c0-0.233,0.05-0.384,0.15-0.45
	c0.066-0.033,0.217-0.05,0.45-0.05c0.5,0,1.366-0.434,2.6-1.3c1.033-0.733,1.75-1.316,2.15-1.75c0.566-0.7,1.333-1.417,2.3-2.15
	c1.233-0.967,1.85-1.067,1.85-0.3c0,0.333-1.184,1.617-3.55,3.85c-0.233,0.267-1.05,0.767-2.45,1.5c-1.467,0.8-2.399,1.2-2.8,1.2
	S290.866,201.667,290.8,201.5z"/>
<path fill-rule="evenodd" clip-rule="evenodd" fill="#824100" d="M259.5,225.4c0.233,0.633,0.35,1.35,0.35,2.149
	c0,0.434-0.6,1.334-1.8,2.7c-1.333,1.5-2.466,2.25-3.4,2.25c-0.566,0-0.917-0.267-1.05-0.8c0-0.533,0-0.816,0-0.851
	c0-0.866,0.133-1.517,0.4-1.949c0.533-0.867,1.617-1.351,3.25-1.45c-1.033-3.033-1.55-4.816-1.55-5.351
	c0.167-0.267,0.25-0.483,0.25-0.649c0-0.101-0.1-0.267-0.3-0.5c-0.2-0.233-0.3-0.417-0.3-0.55c0-0.534,0.217-0.767,0.65-0.7
	s0.9,0.434,1.4,1.1l1.1,2.25C259.133,224.483,259.467,225.267,259.5,225.4z"/>
<path fill-rule="evenodd" clip-rule="evenodd" fill="#824100" d="M271.6,220.55c-0.167,0.7-0.25,1.267-0.25,1.7
	c0,1.3,0.917,2.384,2.75,3.25s2.75,1.533,2.75,2c0,0.4-0.1,0.767-0.3,1.1c-0.333,0.534-0.866,0.801-1.6,0.801
	c-1.5,0-2.817-0.417-3.95-1.25c-0.9-0.667-1.35-1.167-1.35-1.5c-0.133-1.034-0.2-2.167-0.2-3.4l0.2-1.2
	c-0.133-0.366-0.2-0.633-0.2-0.8c0-1.033,0.4-1.983,1.2-2.85c0.8-0.867,1.2-0.601,1.2,0.8C271.85,219.4,271.767,219.85,271.6,220.55
	z"/>
<path fill-rule="evenodd" clip-rule="evenodd" fill="#663300" d="M269.5,222.55c-0.133,0-0.217-0.066-0.25-0.2v-0.199l0.2-2.95
	c0.4-0.4,0.6-0.283,0.6,0.35C269.983,221.55,269.8,222.55,269.5,222.55z"/>
<path fill-rule="evenodd" clip-rule="evenodd" fill="#663300" d="M269.95,222.75v0.95c-0.034,0.434-0.184,0.649-0.45,0.649
	c-0.167,0-0.25-0.116-0.25-0.35c0.133-1.1,0.217-1.967,0.25-2.6V220.1c0.467-0.5,0.667-0.183,0.6,0.95
	C270.1,221.85,270.05,222.417,269.95,222.75z"/>
<path fill-rule="evenodd" clip-rule="evenodd" fill="#663300" d="M271.7,227.3c0.333,0.233,1.033,0.634,2.1,1.2
	c0.367,0.2,0.9,0.366,1.601,0.5c0.433,0.066,0.649,0.233,0.649,0.5c0,0.2-0.184,0.3-0.55,0.3c-1.733,0-3.25-0.517-4.55-1.55
	c-1.3-1.033-1.95-2.184-1.95-3.45c0-0.467,0.083-0.916,0.25-1.35c0-0.033-0.017-0.283-0.05-0.75c-0.034-0.334,0.066-0.517,0.3-0.55
	c0.3-0.101,0.467,0,0.5,0.3c0.033,0.166,0.017,0.434-0.05,0.8c0,0.4,0.083,0.85,0.25,1.35c0.233,0.801,0.383,1.267,0.45,1.4
	C270.883,226.533,271.233,226.967,271.7,227.3z"/>
<path fill-rule="evenodd" clip-rule="evenodd" fill="#663300" d="M256.1,220.25c0,0.1-0.05,0.217-0.15,0.35
	c0,0.101,0.117,0.367,0.35,0.801c0,0.333,0.05,0.6,0.15,0.8c0.133,0.366,0.316,0.916,0.55,1.649c0.167,0.4,0.4,0.917,0.7,1.551
	l0.2,1.6c0,0.2-0.017,0.333-0.05,0.4c-0.067,0.1-0.25,0.149-0.55,0.149c-0.1,0-0.517-1.217-1.25-3.649
	c-0.1-0.301-0.25-0.934-0.45-1.9c-0.2-1-0.3-1.583-0.3-1.75c0-0.434,0.133-0.6,0.4-0.5C255.967,219.85,256.1,220.017,256.1,220.25z"
	/>
<path fill-rule="evenodd" clip-rule="evenodd" fill="#663300" d="M254.05,229.45l-0.1,0.5c0,0.233,0.15,0.533,0.45,0.899
	c0.367,0.467,0.833,0.7,1.4,0.7c0.6,0,1.067-0.184,1.4-0.55c0.367-0.366,0.633-0.55,0.8-0.55c0.2,0,0.367,0.083,0.5,0.25
	c0.1,0.1,0.15,0.2,0.15,0.3c0,0.366-0.417,0.733-1.25,1.1c-0.833,0.334-1.65,0.5-2.45,0.5c-0.8,0-1.4-0.199-1.8-0.6
	c-0.267-0.267-0.4-0.517-0.4-0.75c0-0.267,0.1-0.667,0.3-1.2c0.233-0.666,0.467-1,0.7-1S254.083,229.184,254.05,229.45z"/>
<path fill-rule="evenodd" clip-rule="evenodd" fill="#663300" d="M290.7,202.7c0.399,0.133,0.6,0.233,0.6,0.3
	c0,0.167-0.55,0.434-1.649,0.8c-0.233,0-0.417-0.133-0.551-0.399c-0.1-0.167-0.149-0.301-0.149-0.4c0-0.134-0.066-0.267-0.2-0.4
	c-0.134-0.133-0.217-0.267-0.25-0.399c-0.267-0.667-0.4-1.233-0.4-1.7c0-0.667,0.101-0.983,0.301-0.95
	c0.199,0.067,0.366,0.533,0.5,1.4c0.166,0.6,0.333,0.967,0.5,1.1C289.733,202.316,290.167,202.533,290.7,202.7z"/>
<path fill-rule="evenodd" clip-rule="evenodd" fill="#663300" d="M293.75,200.35c0.533-0.233,0.884-0.35,1.05-0.35
	c0.2,0,0.3,0.1,0.3,0.3c0,0.134-0.233,0.334-0.699,0.601c-0.467,0.233-0.817,0.35-1.051,0.35c-0.133,0-0.35,0.1-0.649,0.3
	c-0.3,0.167-0.5,0.25-0.601,0.25c-0.133,0-0.216-0.05-0.25-0.149l-0.05-0.15c0-0.2,0.084-0.333,0.25-0.4
	c0.134-0.066,0.45-0.199,0.95-0.399C293.033,200.667,293.283,200.55,293.75,200.35z"/>
<path fill-rule="evenodd" clip-rule="evenodd" fill="#663300" d="M229.65,213.95l-0.45-0.15l-2.7-0.2
	c-1.1-0.166-1.933-0.333-2.5-0.5c-0.867-0.267-1.45-0.533-1.75-0.8c-0.267-0.233-0.4-0.566-0.4-1c0-0.633,0.3-0.7,0.9-0.2
	c0.333,0.267,0.7,0.65,1.1,1.15c0.2,0.267,2.65,0.65,7.35,1.15l2.2,0.05c0.6,0.133,1.233,0.233,1.9,0.3c0.2,0.033,0.3,0.134,0.3,0.3
	c0.033,0.2-0.083,0.316-0.35,0.351l-0.2-0.051v-0.05c-0.566-0.033-1.183-0.116-1.85-0.25L229.65,213.95z"/>
<path fill-rule="evenodd" clip-rule="evenodd" fill="#663300" d="M237.35,215.65c-0.133,0.1-0.267,0.149-0.4,0.149
	c-0.767,0-1.3-0.233-1.6-0.7c-0.167-0.267-0.25-0.533-0.25-0.8s0.083-0.416,0.25-0.45c0.167-0.033,0.4,0.101,0.7,0.4
	c0.034,0.033,0.317,0.2,0.85,0.5c0.4,0.233,0.6,0.45,0.6,0.65C237.5,215.467,237.45,215.55,237.35,215.65z"/>
<path fill-rule="evenodd" clip-rule="evenodd" fill="#663300" d="M241.25,174.4c0-0.2,0.033-0.533,0.1-1
	c0.1-0.5,0.167-0.767,0.2-0.8c0.434-0.3,0.667-0.25,0.7,0.15c0.033,0.2,0.017,0.533-0.05,1c0,0.367,0.283,0.967,0.85,1.8
	c0.3,0.467,0.733,0.85,1.3,1.15c0.5,0.267,0.75,0.417,0.75,0.45c0,0.3-0.333,0.45-1,0.45c-0.934,0-1.684-0.5-2.25-1.5
	C241.45,175.4,241.25,174.833,241.25,174.4z"/>
<path fill-rule="evenodd" clip-rule="evenodd" fill="#663300" d="M250.2,177.3c0,0.2-0.133,0.3-0.4,0.3c-1.433,0-2.5-0.233-3.2-0.7
	c-0.5-0.333-0.75-0.683-0.75-1.05c0-0.2,0.15-0.3,0.45-0.3c0.034,0,0.55,0.333,1.55,1c0.3,0.1,0.883,0.217,1.75,0.35
	C250,176.967,250.2,177.1,250.2,177.3z"/>
<path fill-rule="evenodd" clip-rule="evenodd" fill="#663300" d="M245.7,175.55c-0.3,0-0.567-0.2-0.8-0.6l-0.25-0.6
	c0-0.7,0.233-0.783,0.7-0.25c0.433,0.566,0.65,0.933,0.65,1.1C246,175.433,245.9,175.55,245.7,175.55z"/>
<path fill-rule="evenodd" clip-rule="evenodd" fill="#663300" d="M256.15,182.85c0-0.2,0-0.317,0-0.35
	c0.033-0.067,0.15-0.133,0.35-0.2c0.167-0.066,0.317-0.017,0.45,0.15c0.066,0.066,0.167,0.2,0.3,0.4c0.067,0.066,0.3,0.25,0.7,0.55
	c0.367,0.333,0.55,0.583,0.55,0.75c0,0.3-0.167,0.45-0.5,0.45c-0.5,0-0.95-0.267-1.35-0.8
	C256.317,183.367,256.15,183.05,256.15,182.85z"/>
<path fill-rule="evenodd" clip-rule="evenodd" fill="#663300" d="M258.75,184.45c-0.333,0.167-0.617,0.25-0.85,0.25
	s-0.35-0.117-0.35-0.35c0.1-0.133,0.15-0.233,0.15-0.3l-0.15-0.3c0-0.333,0.284-0.417,0.85-0.25c0.533,0.2,0.8,0.367,0.8,0.5
	S259.05,184.283,258.75,184.45z"/>
<path fill-rule="evenodd" clip-rule="evenodd" fill="#663300" d="M250.4,176.95c0.167,0,0.85,0.15,2.05,0.45
	c1.1,0.3,1.883,0.517,2.35,0.65c0.2,0.067,0.8,0.167,1.8,0.3c0.9,0.2,1.35,0.433,1.35,0.7c0,0.233-0.167,0.35-0.5,0.35
	c-0.2,0-0.85-0.15-1.95-0.45c-1-0.267-1.667-0.467-2-0.6c-0.3-0.1-1.017-0.3-2.15-0.6c-0.867-0.2-1.3-0.367-1.3-0.5
	C250.05,177.05,250.167,176.95,250.4,176.95z"/>
<path fill-rule="evenodd" clip-rule="evenodd" fill="#663300" d="M256.6,183.1c-0.3,0-0.467-0.083-0.5-0.25c0-0.167,0-0.267,0-0.3
	c0-0.6,0.15-0.966,0.45-1.1c0.267-0.167,0.4,0.1,0.4,0.8C256.95,182.817,256.833,183.1,256.6,183.1z"/>
<path fill-rule="evenodd" clip-rule="evenodd" fill="#663300" d="M265.65,181.7c-0.667-0.467-1-0.733-1-0.8
	c0-0.933,1.233-0.3,3.7,1.9l3.25,1.95c0.066,0.033,0.15,0.1,0.25,0.2c0.167,0.066,0.533,0.083,1.1,0.05c0.2-0.033,0.3,0.067,0.3,0.3
	c0,0.133-0.183,0.25-0.55,0.35s-0.733,0.15-1.1,0.15s-1.1-0.4-2.2-1.2c-0.867-0.633-1.433-1.083-1.7-1.35
	C267.2,182.783,266.517,182.267,265.65,181.7z"/>
<path fill-rule="evenodd" clip-rule="evenodd" fill="#663300" d="M276,184.35c0,0.3-0.05,0.5-0.15,0.6
	c-0.166,0.133-0.55,0.2-1.149,0.2c-0.267,0-0.4-0.1-0.4-0.3c0-0.067,0.2-0.217,0.6-0.45s0.667-0.35,0.8-0.35
	C275.9,184.05,276,184.15,276,184.35z"/>
<path fill-rule="evenodd" clip-rule="evenodd" fill="#A98C36" d="M272.65,156.75c0,1.267-1.3,2.567-3.9,3.9
	c-2.633,1.1-3.967,1.65-4,1.65c-0.533,0-0.917-0.2-1.15-0.6c-0.133-0.233-0.2-0.467-0.2-0.7c0-0.633,0.6-1.233,1.8-1.8
	c0.733-0.3,1.983-0.85,3.75-1.65c-2.333-0.167-3.583-0.25-3.75-0.25c-0.767,0-1.967,0.184-3.6,0.55
	c-1.434,0.333-2.217,0.55-2.35,0.65c-0.067,0.033-0.767,0.2-2.1,0.5c-0.733,0.167-1.1,0.5-1.1,1c1.3,0.167,1.95,0.75,1.95,1.75
	c0,0.433-0.183,0.9-0.55,1.4c-0.534,0.7-1.284,1.05-2.25,1.05c-0.7-0.167-1.133-0.25-1.3-0.25c-1.066,0-2.017,0.566-2.85,1.7
	c-0.867,1.1-1.466,1.65-1.8,1.65c-0.567,0-0.95-0.233-1.15-0.7l-0.1-0.7c0-0.9,0.567-2.133,1.7-3.7c0.433-0.633,1.35-1.767,2.75-3.4
	c0.8-1,2.966-1.95,6.5-2.85c2.966-0.767,5.083-1.15,6.35-1.15c2.833,0,4.817,0.184,5.95,0.55
	C272.183,155.65,272.65,156.117,272.65,156.75z"/>
<path fill-rule="evenodd" clip-rule="evenodd" fill="#A98C36" d="M252.05,162.55c-0.966,1.267-1.65,1.9-2.05,1.9
	c-0.6,0-0.983-0.233-1.15-0.7c-0.067-0.433-0.1-0.667-0.1-0.7c0-0.833,0.783-1.933,2.35-3.3c1.533-1.333,2.3-1.133,2.3,0.6
	C253.4,160.617,252.95,161.35,252.05,162.55z"/>
<path fill-rule="evenodd" clip-rule="evenodd" fill="#A98C36" d="M281.5,164.7c0,0.767-0.017,1.233-0.05,1.4
	c-0.167,0.633-0.566,0.95-1.2,0.95c-0.7,0-1.1-0.367-1.2-1.1c0-1.034,0-1.833,0-2.4c-0.033-2.367-1.5-3.55-4.4-3.55
	c-0.9,0-2.417,1.05-4.55,3.15c-2.1,2.1-3.417,3.15-3.95,3.15c-0.467,0-0.816-0.2-1.05-0.6c-0.133-0.233-0.2-0.467-0.2-0.7
	c0-0.433,0.383-1.05,1.15-1.85c0.4-0.433,0.983-1.05,1.75-1.85l-0.1-0.15c-0.267,0.167-0.45,0.267-0.55,0.3
	c-0.133,0.066-0.467,0.1-1,0.1l-1.2-0.2c-1.367,0-2.3,0.117-2.8,0.35c-0.467,0.233-0.967,0.35-1.5,0.35l-1.3-0.25
	c-1.467,0-2.6,0.233-3.4,0.7c-0.8,0.467-1.284,0.7-1.45,0.7c-0.5,0-0.85-0.2-1.05-0.6c-0.133-0.233-0.2-0.483-0.2-0.75
	c0-0.367,0.183-0.684,0.55-0.95c0.434-0.267,0.667-0.5,0.7-0.7c-0.2-0.833,0.167-1.434,1.1-1.8c1.933-0.8,5.4-1.2,10.4-1.2
	c0.033,0,0.317-0.1,0.85-0.3c0.5-0.167,0.85-0.217,1.05-0.15c1.367-0.067,2.25,0.133,2.65,0.6c0.233,0.233,0.467,0.617,0.7,1.15
	c0.333-0.167,0.75-0.417,1.25-0.75c0.5-0.2,1.217-0.3,2.15-0.3c3.4,0,5.55,1.066,6.45,3.2
	C281.366,161.283,281.5,162.633,281.5,164.7z"/>
<path fill-rule="evenodd" clip-rule="evenodd" fill="#A98C36" d="M277.3,171.3c-0.5,0-0.866-0.2-1.1-0.6
	c-0.134-0.233-0.2-0.467-0.2-0.7c0-0.5,0.4-1.1,1.2-1.8c0.866-0.733,1.366-1.333,1.5-1.8c0.267-1.033,0.85-1.633,1.75-1.8
	c0.866-0.2,1.3,0.167,1.3,1.1C280.316,169.433,278.833,171.3,277.3,171.3z"/>
<path fill-rule="evenodd" clip-rule="evenodd" fill="#A98C36" d="M263.9,160.65c1.9-0.233,3.2-0.35,3.9-0.35
	c0.867,0,1.267,0.534,1.2,1.6c0,0.767-0.55,2.233-1.65,4.4c-0.367,0.534-1.017,1.3-1.95,2.3c-1.133,1.233-1.85,1.85-2.15,1.85
	c-0.267,0-0.517-0.1-0.75-0.3c-0.267-0.233-0.517-0.35-0.75-0.35l-1.25,0.25h-5.25c-0.6-0.167-1.183-0.4-1.75-0.7
	c-0.667-0.367-1.1-0.717-1.3-1.05c-0.267-0.433-0.917-0.65-1.95-0.65c-0.833,0-1.25-0.316-1.25-0.95c0.133-0.3,0.2-0.534,0.2-0.7
	c-0.133-0.333-0.2-0.583-0.2-0.75c0-0.7,0.683-1.383,2.05-2.05c0.8-0.333,2.05-0.867,3.75-1.6c0.267-0.167,1.284-0.283,3.05-0.35
	c1.933-0.1,3-0.167,3.2-0.2C261.283,160.983,262.233,160.85,263.9,160.65z"/>
<path fill-rule="evenodd" clip-rule="evenodd" fill="#A98C36" d="M283,160.6c-2.366-0.934-3.65-1.417-3.85-1.45
	c-3.034-0.4-5.15-0.683-6.351-0.85c-2.033-0.3-3.05-0.833-3.05-1.6c0-1.1,1.433-1.45,4.3-1.05c1.601,0.267,4.15,0.767,7.65,1.5
	c0.767,0.267,2.35,0.783,4.75,1.55c2.033,0.733,3.05,1.4,3.05,2c0,0.833-0.55,1.25-1.65,1.25
	C287.083,161.95,285.467,161.5,283,160.6z"/>
<path fill-rule="evenodd" clip-rule="evenodd" fill="#A98C36" d="M293.2,159.9c0.967,0.167,1.45,0.633,1.45,1.4
	c0,0.267-0.084,0.517-0.25,0.75c-0.267,0.333-0.65,0.5-1.15,0.5c-0.333,0-1.467-0.183-3.4-0.55c-1.933-0.4-3.149-0.683-3.649-0.85
	c-1.601-0.433-2.634-0.717-3.101-0.85c-0.733-0.2-1.1-0.633-1.1-1.3c0-0.8,0.533-1.2,1.6-1.2c0.567,0,1.667,0.2,3.301,0.6
	c1.433,0.367,2.416,0.65,2.949,0.85C290.684,159.55,291.8,159.767,293.2,159.9z"/>
<path fill-rule="evenodd" clip-rule="evenodd" fill="#A98C36" d="M302.75,160.5l2.75,0.05c0.833,0.233,1.25,0.667,1.25,1.3
	c0,0.333-0.1,0.633-0.3,0.9c-0.233,0.3-0.55,0.45-0.95,0.45c-2.533,0-4.684-0.217-6.45-0.65c-1.5-0.433-2.5-0.7-3-0.8l-3.649-0.05
	c-2-0.333-3.75-0.684-5.25-1.05c-2.934-0.733-4.4-1.45-4.4-2.15c0-0.8,0.483-1.2,1.45-1.2c1.633,0,4.483,0.617,8.55,1.85l3.5,0.05
	c1.233,0.1,2.4,0.316,3.5,0.65C300.917,160.183,301.917,160.4,302.75,160.5z"/>
<path fill-rule="evenodd" clip-rule="evenodd" fill="#A98C36" d="M307.2,162.8c-0.267,0.333-0.634,0.5-1.101,0.5
	c-1.3,0-2.85-0.2-4.649-0.6c-1.834-0.434-2.783-0.65-2.851-0.65c-0.466,0-0.816,0.133-1.05,0.4c-0.267,0.233-0.533,0.35-0.8,0.35
	c-0.5,0-0.85-0.2-1.05-0.6c-0.134-0.233-0.2-0.483-0.2-0.75c0-0.5,0.233-0.934,0.7-1.3c0.633-0.467,1.533-0.683,2.7-0.65
	c2.666-0.133,4.783,0.05,6.35,0.55c1.5,0.467,2.25,1.1,2.25,1.9C307.5,162.25,307.4,162.533,307.2,162.8z"/>
<path fill-rule="evenodd" clip-rule="evenodd" fill="#A98C36" d="M314.75,166.4c0,2.434-0.517,4.3-1.55,5.6c-0.7,1.2-1.3,2.2-1.8,3
	c-0.934,1.533-1.75,2.3-2.45,2.3c-1.334,0-5.101-0.7-11.3-2.1c-1.034-0.233-2.884-0.717-5.551-1.45c-2.366-0.667-3.583-1-3.649-1
	c-0.2,0-1.351,0.15-3.45,0.45h-3.5c-1.9-0.434-3.1-0.717-3.6-0.85c-0.767-0.233-1.15-0.733-1.15-1.5c0-0.3,0.1-0.617,0.3-0.95
	c0.267-0.467,0.667-0.7,1.2-0.7c0.1,0,0.566,0.25,1.4,0.75c0.866,0.466,2.033,0.7,3.5,0.7c0.566,0,1.483-0.066,2.75-0.2
	c1.3-0.167,2.416-0.25,3.35-0.25c1.3,0,2.184,0.216,2.65,0.65c0.533,0.5,1.183,0.8,1.949,0.9c1.434,0.2,3.034,0.55,4.801,1.05
	c0.899,0.2,2.449,0.517,4.649,0.95c2.733,0.533,4.417,0.8,5.05,0.8l2.7-4.1c0.134-0.2,0.367-0.867,0.7-2s0.5-1.817,0.5-2.05
	c0-0.767-1.033-1.65-3.1-2.65c-2.034-1-3.767-1.5-5.2-1.5c-0.101,0-0.217,0.05-0.351,0.15c-0.133,0.1-0.283,0.15-0.449,0.15
	c-0.467,0-0.817-0.2-1.051-0.6c-0.133-0.4-0.199-0.617-0.199-0.65c0-1.233,0.816-1.767,2.449-1.6c1.233,0.1,3.15,0.65,5.75,1.65
	c1.567,0.467,2.767,1.233,3.601,2.3C314.4,164.517,314.75,165.433,314.75,166.4z"/>
<path fill-rule="evenodd" clip-rule="evenodd" fill="#A98C36" d="M296.85,162.5c1.101,1.167,1.65,2.05,1.65,2.65
	c0,0.633-0.217,1.283-0.65,1.95c-0.733,1.066-1.866,1.533-3.399,1.4c-0.767,0.667-1.233,1-1.4,1c-0.467-0.067-1.3-0.1-2.5-0.1
	c-0.366,0-0.783,0.383-1.25,1.15c-0.467,0.767-1.3,1.15-2.5,1.15c-1.1,0-1.967-0.083-2.6-0.25c-0.634-0.167-1.117-0.25-1.45-0.25
	c-0.566-0.133-0.934-0.2-1.1-0.2c-0.434,0.7-1.017,1.05-1.75,1.05c-0.634,0-1.067-0.2-1.301-0.6c-0.133-0.2-0.199-0.434-0.199-0.7
	c0-0.1,0.35-0.783,1.05-2.05c0.7-1.267,1.05-2.167,1.05-2.7c0.3-1.733,0.45-3.267,0.45-4.6c0-0.033-0.15-0.233-0.45-0.6
	c-0.333-0.4-0.5-0.75-0.5-1.05c0-0.933,0.35-1.433,1.05-1.5c0.8-0.1,1.617,0.583,2.45,2.05c0.267,0,0.634-0.117,1.1-0.35
	c0.5-0.267,0.851-0.4,1.051-0.4c0.666,0,1.333,0.217,2,0.65c0.666,0.4,1.017,0.6,1.05,0.6l3.6-0.5
	C293.967,160.3,295.483,161.033,296.85,162.5z"/>
<path fill-rule="evenodd" clip-rule="evenodd" fill="#A98C36" d="M313.4,167.95c0,1.533-0.75,2.883-2.25,4.05
	c-0.067,0.067-0.434,0.783-1.101,2.15c-0.467,0.934-1.416,1.4-2.85,1.4c-0.967,0-1.601-0.183-1.9-0.55
	c-0.1-0.167-0.149-0.417-0.149-0.75l-1.4,0.2c-0.267,0-0.8-0.15-1.6-0.45c-0.834-0.333-1.334-0.5-1.5-0.5
	c0,0.267-0.117,0.533-0.351,0.8c-0.267,0.267-0.6,0.4-1,0.4c-0.267,0-1.366-0.367-3.3-1.1c-2.167-0.833-3.55-1.367-4.15-1.6
	c-1.8-0.433-3.05-0.733-3.75-0.9c-1.233-0.3-1.85-0.85-1.85-1.65c0-0.267,0.083-0.517,0.25-0.75c0.233-0.333,0.583-0.5,1.05-0.5
	c0.533,0,2.05,0.183,4.55,0.55h0.65c0.033-0.6,0.55-1.217,1.55-1.85c1.033-0.667,2.066-0.967,3.101-0.9c-0.5-0.5-0.834-0.917-1-1.25
	c-0.167-0.333-0.25-0.75-0.25-1.25c0-0.767,0.25-1.367,0.75-1.8c0.733-0.633,1.833-0.65,3.3-0.05l2.8,0.05
	c0.267,0.033,0.917,0.267,1.95,0.7c0.566,0.2,0.916,0.283,1.05,0.25c0.333-0.133,0.65-0.2,0.95-0.2c2.666,0,4.533,0.816,5.6,2.45
	C313.116,165.8,313.4,166.817,313.4,167.95z"/>
<path fill-rule="evenodd" clip-rule="evenodd" fill="#A98C36" d="M310.6,179.95c-0.033,0.333-0.066,1.083-0.1,2.25
	c-0.134,1.033-0.5,1.55-1.1,1.55c-0.301,0-0.717-0.533-1.25-1.6c-0.467-0.933-0.7-1.467-0.7-1.6c0.166-1.7,0.267-2.983,0.3-3.85
	c0.033-0.833,0.616-1.467,1.75-1.9c1.134-0.466,1.7-0.117,1.7,1.05C311.2,176.183,311,177.55,310.6,179.95z"/>
<path fill-rule="evenodd" clip-rule="evenodd" fill="#A98C36" d="M250.4,165.4c0.067,0.067,0.1,0.2,0.1,0.4
	c-1.233,1.567-2.05,2.35-2.45,2.35c-0.533,0-0.8-0.267-0.8-0.8c0-0.3,0.267-0.733,0.8-1.3c0.534-0.6,0.983-0.9,1.35-0.9
	C249.933,165.15,250.267,165.233,250.4,165.4z"/>
<path fill-rule="evenodd" clip-rule="evenodd" fill="#A98C36" d="M248.95,166.95l-0.05,0.1c0.067,0,0.283-0.066,0.65-0.2
	c0.467-0.133,1.034-0.2,1.7-0.2c0.767,0,1.1,0.217,1,0.65c0,0.2-0.083,0.317-0.25,0.35c-0.533,0.133-1.217,0.3-2.05,0.5
	c-0.267,0.067-0.567,0.184-0.9,0.35c-0.233,0.1-0.533,0.15-0.9,0.15c-0.467,0-0.75-0.133-0.85-0.4c-0.033-0.067-0.05-0.233-0.05-0.5
	c0-0.767,0.317-1.4,0.95-1.9c0.6-0.533,0.9-0.4,0.9,0.4C249.1,166.317,249.05,166.55,248.95,166.95z"/>
<path fill-rule="evenodd" clip-rule="evenodd" fill="#A98C36" d="M276.75,170.45c0.333,0.333,0.717,0.55,1.15,0.65
	c0.233,0.066,0.35,0.2,0.35,0.4s-0.05,0.4-0.15,0.6c-0.166,0.3-0.399,0.45-0.699,0.45c-0.567,0-1.284-0.2-2.15-0.6
	c-0.833-0.4-1.25-0.717-1.25-0.95c0-0.267,0.633-0.9,1.9-1.9c1.233-1,1.85-1.017,1.85-0.05
	C277.75,169.317,277.417,169.783,276.75,170.45z"/>
<path fill-rule="evenodd" clip-rule="evenodd" fill="#A98C36" d="M308.6,177.75l0.351,0.4c0.033-0.033,0.083-0.2,0.149-0.5
	c0.134-0.233,0.351-0.35,0.65-0.35c0.533,0,0.733,0.284,0.6,0.85c0,0.6-0.116,1.35-0.35,2.25c-0.333,1.267-0.767,1.9-1.3,1.9
	c-0.233,0-0.533-0.367-0.9-1.1c-0.366-0.733-0.55-1.317-0.55-1.75c0-0.667-0.233-1.267-0.7-1.8s-0.7-0.917-0.7-1.15
	c0-0.333,0.184-0.567,0.551-0.7c0.399-0.133,0.816,0.083,1.25,0.65c0.066,0.066,0.25,0.133,0.55,0.2c0.267,0.1,0.434,0.217,0.5,0.35
	C308.733,177.1,308.7,177.35,308.6,177.75z"/>
<path fill-rule="evenodd" clip-rule="evenodd" fill="#A98C36" d="M308.25,202.45c-0.134,0.333-0.483,1.1-1.05,2.3
	c-0.667,1.2-1.217,2.017-1.65,2.45c-0.366,0.333-1.066,0.666-2.1,1c-0.9,0.267-1.601,0.399-2.101,0.399
	c-0.366,0-0.616-0.199-0.75-0.6c-0.066-0.2-0.1-0.434-0.1-0.7l0.9-2.1c0.699-1.4,1.283-2.101,1.75-2.101
	c0.533,0,0.767,0.317,0.699,0.95c0,0.3-0.133,0.684-0.399,1.15c-0.367,0.6-0.584,0.983-0.65,1.149
	c1.308-0.312,2.225-0.878,2.75-1.699c0.267-0.4,0.5-1.101,0.7-2.101c0-0.066,0.25-0.783,0.75-2.149c0.134-0.467,0.45-0.867,0.95-1.2
	c0.533-0.367,0.8-0.117,0.8,0.75C308.75,200.684,308.583,201.517,308.25,202.45z"/>
<path fill-rule="evenodd" clip-rule="evenodd" fill="#A98C36" d="M306.25,193c-0.3,1.1-0.866,3.533-1.7,7.3
	c-0.767,3.2-1.283,4.8-1.55,4.8c-0.366,0-0.6-0.116-0.7-0.35l-0.05-0.4c0-0.699,0.434-2.883,1.3-6.55c0.634-2.7,1.15-4.75,1.55-6.15
	c0.733-2.867,1.233-4.967,1.5-6.3c0.301-1.567,0.467-2.617,0.5-3.15c0-0.5,0.084-1.034,0.25-1.6c0.134-0.633,0.384-0.85,0.75-0.65
	c0.334,0.167,0.5,0.45,0.5,0.85C308.6,182.5,307.816,186.567,306.25,193z"/>
<path fill-rule="evenodd" clip-rule="evenodd" fill="#A98C36" d="M308.75,182.5c0.833-0.567,1.25-0.017,1.25,1.65
	c0,1.1-0.134,2.4-0.4,3.9c0,0.633,0.167,2.617,0.5,5.95c0,1.967-0.616,3.983-1.85,6.05c-0.634,1-1.267,1.967-1.9,2.9
	c0,0.166,0.084,0.383,0.25,0.649c-1.133,1.834-1.833,2.75-2.1,2.75c-0.267-0.133-0.483-0.199-0.65-0.199
	c-0.233,0.233-0.399,0.35-0.5,0.35c-0.5,0-0.75-0.233-0.75-0.7c0.934-2.5,1.5-4.066,1.7-4.7c0.5-1.766,0.75-2.683,0.75-2.75
	c-0.033-0.367-0.05-1.017-0.05-1.95c0-0.433,0.217-1.15,0.65-2.15c0.399-1.033,0.6-1.7,0.6-2c0-0.067-0.033-0.15-0.1-0.25
	c-0.101-0.067-0.15-0.15-0.15-0.25c0-0.5,0.25-1.433,0.75-2.8s0.75-2.417,0.75-3.15C307.5,184.2,307.917,183.1,308.75,182.5z"/>
<path fill-rule="evenodd" clip-rule="evenodd" fill="#A98C36" d="M304.1,198.85c0.167-0.934,0.317-1.533,0.45-1.8
	c0.3-0.6,0.617-0.85,0.95-0.75c0.333,0.067,0.5,0.284,0.5,0.65c-0.9,4.033-1.566,6.05-2,6.05c-0.5,0-0.75-0.233-0.75-0.7
	C303.816,200.6,304.1,199.45,304.1,198.85z"/>
<path fill-rule="evenodd" clip-rule="evenodd" fill="#A98C36" d="M300.45,208.85c-2.3,0.467-3.917,0.801-4.851,1
	c-1.233,0.267-2.416,0.617-3.55,1.051c-1.267,0.5-2.2,0.816-2.8,0.949c-0.3,0.067-4.083,1.117-11.35,3.15
	c-2.733,0.767-5.3,1.15-7.7,1.15c-0.367,0-0.617-0.101-0.75-0.301c-0.067-0.1-0.1-0.216-0.1-0.35c0-0.267,1.833-0.884,5.5-1.85
	c6.067-1.567,9.6-2.5,10.6-2.801c2.533-0.733,5.116-1.533,7.75-2.399c1.666-0.467,3.3-0.7,4.899-0.7c0.101,0,1.134-0.233,3.101-0.7
	c1.366-0.333,2.05-0.217,2.05,0.351C303.25,207.934,302.316,208.417,300.45,208.85z"/>
<path fill-rule="evenodd" clip-rule="evenodd" fill="#A98C36" d="M273.1,215.9c0,0.6-1.85,1.183-5.55,1.75
	c-3.966,0.5-6.233,0.833-6.8,1l-7.85,0.05c-0.6,0.133-1.083,0.25-1.45,0.35c-0.667,0.134-1.233,0.2-1.7,0.2
	c-0.6,0-0.983-0.1-1.15-0.3l-0.1-0.3c0-0.367,0.417-0.667,1.25-0.9c0.633-0.2,1.967-0.45,4-0.75l2.85-0.05
	c2.467-0.2,6.6-0.816,12.4-1.851C271.733,214.6,273.1,214.866,273.1,215.9z"/>
<path fill-rule="evenodd" clip-rule="evenodd" fill="#A98C36" d="M246.15,217.25h6.1c0.4,0.066,0.6,0.283,0.6,0.65
	c0,0.166-0.05,0.267-0.15,0.3c-0.3,0.166-1.05,0.3-2.25,0.399c-0.167,0.101-2.817,0.434-7.95,1c-5.4,0.634-8.4,1.017-9,1.15
	c-6.567,1.434-11.067,2.15-13.5,2.15c-1.033,0-1.6-0.034-1.7-0.101c0.034-0.133,0-0.283-0.1-0.45c-0.067-0.133-0.1-0.283-0.1-0.449
	c0-1.101,5.05-2.351,15.15-3.75l3.6-0.051c0.1-0.033,1.95-0.267,5.55-0.699l3.45-0.051C246.05,217.316,246.15,217.283,246.15,217.25
	z"/>
<path fill-rule="evenodd" clip-rule="evenodd" fill="#482400" d="M299.2,207.25c0,0.2-0.967,0.45-2.9,0.75
	c-2.5,0.4-4.366,0.816-5.6,1.25c-3.066,0.967-5.15,1.634-6.25,2c-2.733,0.9-4.7,1.517-5.9,1.85c-4,1.434-6.583,2.15-7.75,2.15
	c-0.4,0-0.65-0.066-0.75-0.2L270,214.8c0-0.366,1.533-0.983,4.6-1.85c1.8-0.5,4.933-1.367,9.4-2.601
	c1.7-0.533,3.566-1.183,5.6-1.949c2-0.567,5.051-1.117,9.15-1.65C299.05,206.917,299.2,207.083,299.2,207.25z"/>
<path fill-rule="evenodd" clip-rule="evenodd" fill="#482400" d="M248.1,217.2c0,0.434-0.483,0.7-1.45,0.8
	c-2.667,0.233-5.75,0.517-9.25,0.85l-3.55,0.101c-6.233,0.5-9.967,0.967-11.2,1.399c-2.267,1-3.733,1.5-4.4,1.5
	c-0.3,0-0.483-0.066-0.55-0.199c0-0.134,0-0.217,0-0.25c0-0.601,1.767-1.301,5.3-2.101c3.6-0.767,7.183-1.217,10.75-1.35l3.5-0.101
	c2.5-0.199,5.817-0.533,9.95-1C247.8,216.45,248.1,216.566,248.1,217.2z"/>
<path fill-rule="evenodd" clip-rule="evenodd" fill="#482400" d="M246.75,217.4c0-0.2,0.167-0.351,0.5-0.45l8.45-0.101
	c1.3-0.166,2.85-0.449,4.65-0.85c1.667-0.366,3.05-0.616,4.15-0.75c1.333-0.167,3.267-0.517,5.8-1.05
	c1.034-0.233,1.55-0.117,1.55,0.35s-0.434,0.75-1.3,0.851c-2.633,0.3-4.7,0.6-6.2,0.899c-1.733,0.367-3.033,0.634-3.9,0.8
	c-1.5,0.334-3.067,0.584-4.7,0.75h-8.5C246.917,217.684,246.75,217.533,246.75,217.4z"/>
<path fill-rule="evenodd" clip-rule="evenodd" fill="#51431A" d="M218,221.75c0.167-0.066,0.333-0.017,0.5,0.15
	c0.4,0.399,1.267,0.6,2.6,0.6c0.433,0,0.85-0.05,1.25-0.15h1.1l0.25,0.25l-0.25,0.25l-1.75,0.051c-0.034,0.033-0.184,0.05-0.45,0.05
	l-0.15,0.1h-0.85l-0.15,0.101h-0.8c-0.367,0-0.716-0.15-1.05-0.45c-0.3-0.233-0.45-0.434-0.45-0.601
	C217.8,221.934,217.867,221.816,218,221.75z"/>
<path fill-rule="evenodd" clip-rule="evenodd" fill="#51431A" d="M249.3,168.05l0.25,0.25c0,0.1-0.133,0.25-0.4,0.45
	s-0.5,0.3-0.7,0.3l-0.45-0.1c-0.033,0.066-0.1,0.1-0.2,0.1c-0.4,0-0.65-0.233-0.75-0.7l-0.05-0.7c0-0.633,0.167-1.15,0.5-1.55
	c0.3-0.434,0.45-0.383,0.45,0.15l-0.1,0.35c0,0.1,0.25,0.583,0.75,1.45H249.3z"/>
<path fill-rule="evenodd" clip-rule="evenodd" fill="#51431A" d="M250.9,168.15c-0.4,0.067-0.717,0.133-0.95,0.2l-1.2,0.3
	c-0.367,0-0.55-0.083-0.55-0.25c0-0.167,0.316-0.333,0.95-0.5c0.533-0.133,0.9-0.2,1.1-0.2c0.033,0,0.283-0.05,0.75-0.15
	c0.2-0.066,0.3,0.034,0.3,0.3C251.3,167.983,251.167,168.083,250.9,168.15z"/>
<path fill-rule="evenodd" clip-rule="evenodd" fill="#51431A" d="M254.05,169.55c-0.1,0.067-0.183,0.1-0.25,0.1
	c-0.333,0-0.75-0.267-1.25-0.8c-0.466-0.5-0.7-0.8-0.7-0.9c0-0.367,0.133-0.434,0.4-0.2c0.133,0.133,0.35,0.367,0.65,0.7
	c0.067,0.066,0.5,0.367,1.3,0.9C254.2,169.383,254.15,169.45,254.05,169.55z"/>
<path fill-rule="evenodd" clip-rule="evenodd" fill="#51431A" d="M263.25,170.65c-0.1,0.067-0.167,0.1-0.2,0.1
	c-0.233,0-0.466-0.133-0.7-0.4l-0.3-0.4c0-0.367,0.217-0.383,0.65-0.05c0.233,0.167,0.45,0.367,0.65,0.6
	C263.35,170.533,263.317,170.583,263.25,170.65z"/>
<path fill-rule="evenodd" clip-rule="evenodd" fill="#482400" d="M247.25,201.15c2.533,0.5,3.8,2.466,3.8,5.899
	c0,1.066-0.167,1.867-0.5,2.4c-0.633,0.934-1.867,1.399-3.7,1.399c-1.5,0-2.517-1.1-3.05-3.3c-0.233-2.233-0.35-3.366-0.35-3.399
	c0-1.101,0.4-1.934,1.2-2.5C245.383,201.116,246.25,200.95,247.25,201.15z M245.6,204.7c0.333,0.3,0.5,0.566,0.5,0.8
	c0,0.2-0.133,0.434-0.4,0.7c-0.267,0.233-0.4,0.366-0.4,0.399c0,0.233,0.217,0.717,0.65,1.45c0.433,0.767,0.75,1.15,0.95,1.15
	c1.233,0,2.017-0.267,2.35-0.8c0.133-0.2,0.2-0.617,0.2-1.25c0-0.934-0.133-1.767-0.4-2.5c-0.5-1.267-1.3-1.917-2.4-1.95
	c-0.133,0.166-0.467,0.383-1,0.649c-0.4,0.2-0.6,0.384-0.6,0.551C245.05,204.167,245.233,204.434,245.6,204.7z"/>
<path fill-rule="evenodd" clip-rule="evenodd" fill="#482400" d="M272.3,200.6v1.65c0.167-0.167,0.4-0.467,0.7-0.9
	c0.3-0.333,0.767-0.5,1.4-0.5c0.167,0,0.467,0.067,0.9,0.2c-0.033-0.399-0.017-0.7,0.05-0.899c0.134-0.434,0.551-0.601,1.25-0.5
	c-0.1-0.267-0.416-0.566-0.949-0.9c-0.534-0.333-0.851-0.55-0.95-0.65c-1.067,0.133-1.733,0.483-2,1.05
	C272.567,199.85,272.433,200.333,272.3,200.6z M271.2,198.4c0.6-1.367,1.816-2,3.65-1.9c1.667,0.367,2.733,1.15,3.2,2.35
	c0.2,0.533,0.3,1.5,0.3,2.9c0,1.033-0.233,2-0.699,2.9c-0.801,1.5-2.101,2.25-3.9,2.25c-1.3,0-2.2-0.9-2.7-2.7
	c-0.233-1.8-0.35-2.717-0.35-2.75C270.7,200.116,270.867,199.1,271.2,198.4z M273.1,204.95c0.133,0.1,0.45,0.233,0.95,0.399
	c0.233-1.466,0.3-2.399,0.2-2.8c-0.167,0.066-0.45,0.367-0.85,0.9c-0.367,0.533-0.55,0.883-0.55,1.05
	C272.85,204.7,272.933,204.85,273.1,204.95z"/>
<path fill-rule="evenodd" clip-rule="evenodd" fill="#482400" d="M263.1,209.6c-1.067,0.334-2.517,0.5-4.35,0.5
	c-0.467,0-0.783-0.133-0.95-0.399c-0.066-0.267-0.1-0.417-0.1-0.45c0-0.4,0.333-0.616,1-0.65c1.5-0.133,2.7-0.316,3.6-0.55
	c0.867-0.2,1.467-0.267,1.8-0.2c0.3,0.067,0.45,0.284,0.45,0.65C264.55,208.934,264.067,209.3,263.1,209.6z"/>
<path fill-rule="evenodd" clip-rule="evenodd" fill="#482400" d="M299.45,183.3l-8.3,2.55c-0.801,0.233-3.717,1.183-8.75,2.85
	c-4,1.333-7.051,2.216-9.15,2.65c-9.167,2.133-16.083,3.733-20.75,4.8c-8.333,1.9-17.633,3.467-27.9,4.7h-14
	c-1.167-0.3-1.9-0.517-2.2-0.649c-0.233-0.101-0.35-0.217-0.35-0.35c0-0.767,0.934-0.983,2.8-0.65h13.5
	c9.8-1.133,19.033-2.7,27.7-4.7c13.5-3.133,20.633-4.767,21.4-4.9c2.3-0.467,5.233-1.283,8.8-2.45c5.667-1.867,8.6-2.833,8.8-2.9
	c0.834-0.233,2.2-0.633,4.101-1.2c1.733-0.5,3.149-0.983,4.25-1.45c0.466-0.2,1.833-1.067,4.1-2.6c2.033-1.167,3.05-1.15,3.05,0.05
	C303.316,181.383,300.95,182.8,299.45,183.3z"/>
<path fill-rule="evenodd" clip-rule="evenodd" fill="#482400" d="M223.05,223.7c-0.8,0.2-1.383,0.35-1.75,0.45
	c-0.5,0.233-0.883,0.35-1.15,0.35s-0.433-0.083-0.5-0.25c-0.033-0.066-0.05-0.167-0.05-0.3c0-0.4,0.65-0.7,1.95-0.9
	c1.267-0.2,1.9-0.083,1.9,0.351C223.45,223.566,223.317,223.667,223.05,223.7z"/>
<path fill-rule="evenodd" clip-rule="evenodd" fill="#482400" d="M249.7,177.6c0.4,0,0.7,0.05,0.9,0.15h1.85
	c0.667,0.067,1.633,0.333,2.9,0.8c1.333,0.5,2,0.883,2,1.15c0,0.2-0.117,0.3-0.35,0.3c-1.7-0.667-3.317-1.133-4.85-1.4
	c-0.033-0.033-0.383-0.05-1.05-0.05l-0.5-0.05c-0.333-0.133-1.133-0.267-2.4-0.4c-0.034-0.033-0.317-0.05-0.85-0.05
	c-0.033-0.033-0.333-0.05-0.9-0.05l-0.15-0.1h-0.7c-0.133-0.066-0.2-0.167-0.2-0.3c0-0.167,0.4-0.2,1.2-0.1
	c1.267,0.167,2.183,0.25,2.75,0.25L249.7,177.6z"/>
<path fill-rule="evenodd" clip-rule="evenodd" fill="#482400" d="M259.05,176.9c-0.233,0-0.367-0.066-0.4-0.2v-0.2
	c0-0.3,0.117-0.467,0.35-0.5s0.35,0.083,0.35,0.35C259.317,176.717,259.217,176.9,259.05,176.9z"/>
<path fill-rule="evenodd" clip-rule="evenodd" fill="#482400" d="M256.9,176.6c-0.767-0.267-1.417-0.567-1.95-0.9
	c-0.467-0.3-1.117-0.583-1.95-0.85c-0.967-0.267-1.717-0.5-2.25-0.7c-1.067-0.1-1.6-0.267-1.6-0.5c0-0.333,0.783-0.267,2.35,0.2
	c1.467,0.4,2.65,0.833,3.55,1.3c2.6,1.167,3.9,1.883,3.9,2.15c0,0.2-0.1,0.3-0.3,0.3c-0.167,0-0.433-0.133-0.8-0.4
	C257.25,176.833,256.933,176.633,256.9,176.6z"/>
<path fill-rule="evenodd" clip-rule="evenodd" fill="#482400" d="M246.2,176.45c0,1.1-0.417,1.65-1.25,1.65l-0.3-0.15v-0.3
	c0.2,0.1,0.417,0.033,0.65-0.2c0.133-0.1,0.267-0.25,0.4-0.45v-0.6c-0.2-0.133-0.534-0.533-1-1.2c-0.5-0.7-0.75-1.117-0.75-1.25
	c0-0.7,0.383-0.617,1.15,0.25C245.833,175.067,246.2,175.817,246.2,176.45z"/>
<path fill-rule="evenodd" clip-rule="evenodd" fill="#482400" d="M250.3,174.1h-2.35c-0.733,0.066-1.167,0.15-1.3,0.25h-1.05
	c-0.033-0.033-0.367-0.05-1-0.05c-0.233-0.1-0.3-0.233-0.2-0.4c-0.3,0.067-0.45-0.033-0.45-0.3c0-0.133,0.2-0.233,0.6-0.3
	c0.233-0.033,0.617-0.1,1.15-0.2h1.65c2.133,0.167,3.2,0.417,3.2,0.75L250.3,174.1z"/>
<path fill-rule="evenodd" clip-rule="evenodd" fill="#482400" d="M250.1,174c-0.133,0-0.434-0.083-0.9-0.25
	c-0.5-0.167-0.75-0.3-0.75-0.4c0-0.233,0.316-0.283,0.95-0.15s0.95,0.3,0.95,0.5C250.317,173.9,250.233,174,250.1,174z"/>
<path fill-rule="evenodd" clip-rule="evenodd" fill="#482400" d="M250,173.65c-0.1,0.067-0.183,0.1-0.25,0.1l-0.2-0.1l-1.1-0.05
	l-0.5-0.15v-0.3c1.433-0.066,2.15,0.05,2.15,0.35C250.1,173.533,250.067,173.583,250,173.65z"/>
<path fill-rule="evenodd" clip-rule="evenodd" fill="#482400" d="M247.7,177.55c0.167,0.034,0.25,0.117,0.25,0.25
	s-0.083,0.217-0.25,0.25c-0.167,0.034-0.6,0.05-1.3,0.05c-0.8,0-1.2-0.083-1.2-0.25c0-0.1,0.15-0.184,0.45-0.25v-0.05H247.7z"/>
<path fill-rule="evenodd" clip-rule="evenodd" fill="#482400" d="M257.7,185.55c-0.434-0.167-0.75-0.3-0.95-0.4
	c-0.4-0.2-0.6-0.367-0.6-0.5s0.1-0.217,0.3-0.25c-0.667-1.233-1-2-1-2.3c0-0.633,0.167-0.6,0.5,0.1c0.267,0.667,0.433,1.05,0.5,1.15
	c0.633,0.9,1.216,1.467,1.75,1.7c0.267,0.133,0.466,0.217,0.6,0.25l-0.25,0.25H257.7z"/>
<path fill-rule="evenodd" clip-rule="evenodd" fill="#482400" d="M261.7,175.3c-0.067,0-0.133-0.05-0.2-0.15l-0.05-0.15l0.1-0.2
	l-0.1-0.3l1.85-2.7c1.2-1.667,1.8-2.167,1.8-1.5C262.9,173.633,261.767,175.3,261.7,175.3z"/>
<path fill-rule="evenodd" clip-rule="evenodd" fill="#482400" d="M267.85,183.5c1.633,1.1,2.983,1.65,4.05,1.65l0.7-0.05
	c0.4,0.033,0.983-0.15,1.75-0.55c0.733-0.367,1.1-0.65,1.1-0.85c0-0.267-0.167-0.667-0.5-1.2c-0.367-0.533-0.55-0.85-0.55-0.95
	c0-0.5,0.35-0.383,1.05,0.35c0.666,0.7,1,1.35,1,1.95l-0.05,0.75c0,0.066-0.217,0.233-0.65,0.5s-0.7,0.4-0.8,0.4
	c-0.167,0-0.267-0.033-0.3-0.1c0-0.1-0.017-0.167-0.05-0.2c-0.533,0.3-0.917,0.45-1.15,0.45l-0.35-0.1c-0.1,0-0.167,0.034-0.2,0.1
	c-0.033,0.1-0.1,0.184-0.2,0.25h-1.6c-0.8-0.4-1.817-0.967-3.05-1.7c-1.9-1.1-2.85-1.8-2.85-2.1c0-0.167,0.083-0.25,0.25-0.25
	C265.617,181.85,266.417,182.4,267.85,183.5z"/>
<path fill-rule="evenodd" clip-rule="evenodd" fill="#482400" d="M268.2,176.8c0,0.233,0.183,0.55,0.55,0.95s0.55,0.617,0.55,0.65
	c0,0.267-0.117,0.4-0.35,0.4c-0.233,0-0.534-0.267-0.9-0.8c-0.333-0.5-0.5-0.8-0.5-0.9c0-0.367,0.167-0.65,0.5-0.85
	c0.333-0.2,0.5-0.15,0.5,0.15C268.55,176.433,268.433,176.567,268.2,176.8z"/>
<path fill-rule="evenodd" clip-rule="evenodd" fill="#482400" d="M255.35,169.8c0.467,0.3,1.066,0.467,1.8,0.5
	c0.167,0.067,0.25,0.15,0.25,0.25c0,0.067-0.083,0.15-0.25,0.25h-0.6c-0.633-0.167-1.583-0.5-2.85-1c-1.3-0.5-2.1-0.8-2.4-0.9h-0.35
	c-0.1,0.067-0.45,0.184-1.05,0.35c-0.667,0.2-1.133,0.3-1.4,0.3c-0.933,0-1.533-0.216-1.8-0.65c-0.1-0.467-0.15-0.717-0.15-0.75
	c0-0.833,0.05-1.333,0.15-1.5c0.033-0.1,0.183-0.333,0.45-0.7c0.233-0.267,0.333-0.534,0.3-0.8c0.3-0.033,0.45,0.067,0.45,0.3
	l-0.4,0.95c-0.3,0.667-0.45,1.233-0.45,1.7c0,0.3,0.017,0.467,0.05,0.5s0.4,0.183,1.1,0.45h0.75c0.566-0.433,1.283-0.65,2.15-0.65
	c0.367,0,0.983,0.117,1.85,0.35c0.733,0.2,1.233,0.35,1.5,0.45C254.683,169.3,254.983,169.5,255.35,169.8z"/>
<path fill-rule="evenodd" clip-rule="evenodd" fill="#482400" d="M277.7,167.45c0,0.066,0.033,0.133,0.1,0.2
	c0,0.6-1.166,1.633-3.5,3.1c-0.066,0-0.133-0.05-0.2-0.15l-0.05-0.15c0-0.2,0.35-0.583,1.05-1.15c0.634-0.566,0.983-0.85,1.051-0.85
	c0.1-0.1,0.416-0.5,0.949-1.2c0.5-0.533,0.75-0.567,0.75-0.1L277.7,167.45z"/>
<path fill-rule="evenodd" clip-rule="evenodd" fill="#482400" d="M276.55,161.65c-0.434,0.167-0.649,0.367-0.649,0.6
	c0,0.367,0.083,0.767,0.25,1.2c0.1,0.3,0.267,0.533,0.5,0.7c0.199,0.167,0.3,0.3,0.3,0.4c-1.2,1.4-1.834,2.1-1.9,2.1
	s-0.133-0.05-0.2-0.15l-0.05-0.15c0-0.1,0.133-0.3,0.4-0.6c0.3-0.367,0.467-0.583,0.5-0.65v-0.05c-0.066,0.133-0.233,0.3-0.5,0.5
	c-0.233,0.2-0.417,0.3-0.55,0.3s-0.2-0.05-0.2-0.15v-0.15c0-0.066,0.167-0.233,0.5-0.5c0.333-0.3,0.5-0.517,0.5-0.65
	c-0.2-0.6-0.3-1.033-0.3-1.3c0-0.9,0.333-1.567,1-2c0.666-0.467,1-0.434,1,0.1C277.15,161.333,276.95,161.483,276.55,161.65z
	 M275.9,164.8l0.199-0.2l-0.149-0.2L275.9,164.8z"/>
<path fill-rule="evenodd" clip-rule="evenodd" fill="#482400" d="M295.6,198.25c0,0.1-0.449,0.45-1.35,1.05
	c-0.833,0.567-1.366,0.9-1.6,1l-0.051-0.2c0-0.133,0.167-0.3,0.5-0.5c0.2-0.1,0.517-0.283,0.95-0.55c0.8-0.7,1.3-1,1.5-0.9
	L295.6,198.25z"/>
<path fill-rule="evenodd" clip-rule="evenodd" fill="#482400" d="M299.45,197.3c0,0.2-0.9,0.983-2.7,2.35s-2.833,2.05-3.1,2.05
	c-1.167,0.533-1.934,0.967-2.301,1.3c-0.267,0.333-0.5,0.6-0.699,0.8c-0.4,0.4-0.834,0.601-1.301,0.601
	c-0.6,0-1.083-0.517-1.449-1.551c-0.233-1.1-0.367-1.683-0.4-1.75v-0.3l0.1-0.05c0.233,0,0.5,0.5,0.801,1.5
	c0.267,1,0.716,1.5,1.35,1.5c0.233,0,0.5-0.2,0.8-0.6c0.3-0.434,0.55-0.65,0.75-0.65c0.134,0,1.283-0.733,3.45-2.2
	c2.467-1.733,4-2.783,4.6-3.15C299.417,197.217,299.45,197.267,299.45,197.3z"/>
<path fill-rule="evenodd" clip-rule="evenodd" fill="#482400" d="M291.5,198.65c0.233,0,0.684,0.233,1.35,0.7
	c0.4,0,0.851-0.217,1.351-0.65c0.533-0.5,0.816-0.75,0.85-0.75l0.05,0.15c0,0.133-0.1,0.316-0.3,0.55
	c-0.233,0.233-0.399,0.417-0.5,0.55c-0.1,0.1-0.333,0.233-0.7,0.4c-0.333,0.167-0.517,0.316-0.55,0.45h-0.25
	c-0.033-0.066-0.116-0.1-0.25-0.1c-0.233,0-0.383-0.017-0.45-0.05c0-0.4-0.116-0.683-0.35-0.85c-0.267-0.133-0.4-0.216-0.4-0.25
	c0-0.1,0.034-0.15,0.101-0.15H291.5z"/>
<path fill-rule="evenodd" clip-rule="evenodd" fill="#482400" d="M299.75,197.05c-0.6,0.6-1,0.967-1.2,1.1L298.5,198
	c0-0.167,0.366-0.633,1.1-1.4s1.101-1.017,1.101-0.75C300.7,196.017,300.384,196.417,299.75,197.05z"/>
<path fill-rule="evenodd" clip-rule="evenodd" fill="#482400" d="M229.6,214.75c-0.3,0-0.95-0.15-1.95-0.45
	c-0.967-0.3-1.867-0.45-2.7-0.45c-0.167,0-0.217,0.034-0.15,0.101v0.149l-0.2,0.051c-0.7-0.367-1.233-0.551-1.6-0.551
	c-0.4,0-0.9-0.3-1.5-0.899c-0.567-0.566-0.85-0.95-0.85-1.15c0-0.133,0.1-0.2,0.3-0.2c0.167,0,0.35,0.134,0.55,0.4
	c0.233,0.3,0.367,0.467,0.4,0.5c0.567,0.366,1.017,0.55,1.35,0.55l1.4,0.601H225l0.2-0.101c0.466,0,2.117,0.2,4.95,0.601
	c0.533,0.033,0.983,0.116,1.35,0.25c0.2,0.066,0.5,0.083,0.9,0.05c0.833-0.101,1.383-0.084,1.65,0.05
	c0.133,0.066,0.267,0.15,0.4,0.25l0.05-0.05c0.067-0.066,0.167-0.101,0.3-0.101l0.05,0.551c0.033,0.199,0.2,0.366,0.5,0.5
	c0.033,0.133-0.05,0.199-0.25,0.199c-0.233,0-0.434-0.133-0.6-0.399c-0.167-0.3-0.317-0.467-0.45-0.5l-3.4-0.05l-0.45-0.101
	c-0.1,0-0.2,0.033-0.3,0.101C229.8,214.717,229.7,214.75,229.6,214.75z"/>
<path fill-rule="evenodd" clip-rule="evenodd" fill="#482400" d="M300.25,209.25l0.4,0.4c-0.567,0.5-2.617,1.1-6.15,1.8l-0.3-0.351
	c0-0.833,1.1-1.449,3.3-1.85H300.25z"/>
<path fill-rule="evenodd" clip-rule="evenodd" fill="#482400" d="M237.3,221.05c0,0.367-1.95,0.767-5.85,1.2
	c-5.5,1.3-8.383,1.95-8.65,1.95l-1.7-0.101l-0.3-0.3l0.05-0.3c2.267-0.233,5.283-0.717,9.05-1.45c3.467-0.7,5.917-1.083,7.35-1.149
	L237.3,221.05z"/>
<path fill-rule="evenodd" clip-rule="evenodd" fill="#482400" d="M236.7,221.3c-0.034,0-0.083-0.1-0.15-0.3
	c0.133-0.134,0.267-0.217,0.4-0.25c0.1,0,0.283,0.017,0.55,0.05c0.2,0,1.033-0.149,2.5-0.45l2.55-0.05c1.633-0.2,2.7-0.283,3.2-0.25
	l0.05,0.25c0,0.233-0.583,0.384-1.75,0.45l-6.65,0.7C237.033,221.45,236.8,221.4,236.7,221.3z"/>
<path fill-rule="evenodd" clip-rule="evenodd" fill="#482400" d="M296.05,211.15c0,0.133-0.166,0.267-0.5,0.399
	c-0.467,0.134-0.833,0.233-1.1,0.3h-1.2l-0.3-0.3c0-0.2,0.35-0.383,1.05-0.55c0.733-0.134,1.4-0.134,2,0L296.05,211.15z"/>
<path fill-rule="evenodd" clip-rule="evenodd" fill="#482400" d="M311.15,196.5c-1.134,5.9-2,8.85-2.601,8.85l-0.25-0.05
	c-0.066-0.066-0.1-0.149-0.1-0.25c0-0.333,0.149-1.184,0.45-2.55c0.267-1.3,0.449-2.05,0.55-2.25c0.166-1.133,0.283-1.95,0.35-2.45
	c0.134-0.833,0.65-1.383,1.55-1.65L311.15,196.5z"/>
<path fill-rule="evenodd" clip-rule="evenodd" fill="#482400" d="M315.85,167.15l0.051,1.35c0,1.367-0.367,2.683-1.101,3.95
	c-1.2,2.167-1.95,3.633-2.25,4.4c-0.633,1.467-0.967,2.883-1,4.25c0,0.4-0.133,0.7-0.399,0.9c-0.267,0.233-0.434,0.517-0.5,0.85
	c-0.067,0.267-0.101,0.933-0.101,2c0,0.566,0.084,1.217,0.25,1.95v4.6c0.134,0.167,0.233,0.5,0.3,1
	c0.067,0.533,0.134,0.883,0.2,1.05v0.85l-0.3,0.15c-0.333-0.367-0.533-0.817-0.6-1.35c-0.034-0.633-0.101-1.117-0.2-1.45v-4.5
	c-0.167-0.4-0.25-1.15-0.25-2.25c0-1.667,0.133-3.083,0.399-4.25c0.5-1.7,0.95-3.283,1.351-4.75c0.133-0.5,0.483-1.25,1.05-2.25
	c0.566-1.066,0.934-1.816,1.1-2.25c0.067-0.267,0.284-0.65,0.65-1.15c0.3-0.5,0.483-0.867,0.55-1.1c0-0.533,0.033-0.933,0.101-1.2
	C315.217,167.45,315.45,167.183,315.85,167.15z"/>
<path fill-rule="evenodd" clip-rule="evenodd" fill="#482400" d="M254.65,220.05c0-0.133,0.033-0.25,0.1-0.35
	c0.067-0.167,0.167-0.15,0.3,0.05l0.15,0.7l0.9,2.55c0.3,0.733,0.45,1.217,0.45,1.45s-0.083,0.35-0.25,0.35
	c-0.133,0-0.45-0.783-0.95-2.35C254.883,221.083,254.65,220.283,254.65,220.05z"/>
<path fill-rule="evenodd" clip-rule="evenodd" fill="#482400" d="M254.85,219.85c-0.133,0-0.2-0.05-0.2-0.149v-0.15
	c0-0.033,0.083-0.116,0.25-0.25l1.3-0.05c0.3-0.033,0.683-0.116,1.15-0.25c0.367-0.066,0.55,0.033,0.55,0.3
	c0,0.033-0.083,0.117-0.25,0.25C255.883,219.75,254.95,219.85,254.85,219.85z"/>
<path fill-rule="evenodd" clip-rule="evenodd" fill="#482400" d="M254.85,220.05c0.167,0.066,0.267,0.233,0.3,0.5
	c-0.033,0.267,0.033,0.566,0.2,0.9l0.5,1.7l0.05,0.449c0,0.2,0.133,0.334,0.4,0.4l0.25,0.9c0.2,0.6,0.3,1.166,0.3,1.699
	c0,0.434-0.083,0.65-0.25,0.65c-0.2,0-0.317-0.233-0.35-0.7c-0.067-0.666-0.117-1.033-0.15-1.1c-0.367-0.767-0.583-1.316-0.65-1.65
	c-0.6-2.033-0.9-3.2-0.9-3.5C254.55,220.1,254.65,220.017,254.85,220.05z"/>
<path fill-rule="evenodd" clip-rule="evenodd" fill="#482400" d="M255.9,227.45c-0.6,0.133-1.017,0.3-1.25,0.5
	c-0.433,0.333-0.767,0.684-1,1.05c-0.533,0.7-0.8,1.4-0.8,2.1c0,0.233,0.183,0.5,0.55,0.801c0.434,0.333,0.95,0.5,1.55,0.5
	c1.833,0,3.25-0.851,4.25-2.551c0.7-1.699,1.167-2.55,1.4-2.55c0.133,0,0.217,0.101,0.25,0.3c0,0.101-0.217,0.551-0.65,1.351
	c-0.367,0.767-0.633,1.267-0.8,1.5l-1.1,1.399c-0.7,0.7-1.816,1.051-3.35,1.051c-0.934,0-1.633-0.25-2.1-0.75
	c-0.3-0.334-0.45-0.684-0.45-1.051c0-1.466,0.717-2.649,2.15-3.55c1.4-0.899,2.1-1.066,2.1-0.5
	C256.65,227.217,256.4,227.35,255.9,227.45z"/>
<path fill-rule="evenodd" clip-rule="evenodd" fill="#482400" d="M260.7,227.9c-0.2,0-0.367-0.2-0.5-0.601
	c-0.1-0.3-0.15-0.517-0.15-0.649c0-0.7,0.15-0.9,0.45-0.601c0.3,0.334,0.45,0.733,0.45,1.2
	C260.95,227.684,260.867,227.9,260.7,227.9z"/>
<path fill-rule="evenodd" clip-rule="evenodd" fill="#482400" d="M269.6,218.4c0,0.6-0.083,1.616-0.25,3.05
	c0,0.399-0.133,1.366-0.4,2.899c0,0.967,0.383,1.851,1.15,2.65c0.933,1,2.3,1.783,4.1,2.35h1.85c0.601-0.6,0.9-1.149,0.9-1.649
	c-0.167-0.3-0.25-0.584-0.25-0.851c0-0.3,0.066-0.449,0.2-0.449c0.3,0,0.517,0.433,0.649,1.3c0,1.066-0.483,1.783-1.45,2.149h-1.95
	c-3.8-1.066-5.7-2.899-5.7-5.5c0.3-1.966,0.466-3.083,0.5-3.35v-1.95c0.066-0.066,0.1-0.166,0.1-0.3c0-0.2,0.017-0.316,0.05-0.35
	c0.1-0.2,0.217-0.284,0.35-0.25C269.55,218.184,269.6,218.267,269.6,218.4z"/>
<path fill-rule="evenodd" clip-rule="evenodd" fill="#482400" d="M276.85,228.85c-0.133,0-0.199-0.05-0.199-0.149v-0.15l0.149-1.05
	c0-0.167-0.133-0.467-0.399-0.9c-0.298-0.463-0.448-0.646-0.45-0.55c0.001-0.499,0.234-0.466,0.7,0.101
	c0.433,0.566,0.649,1.017,0.649,1.35C277.2,228.4,277.05,228.85,276.85,228.85z"/>
</svg>
